M48
; DRILL file {KiCad (5.1.5-131-g305ed0b65)-1} date 09/08/20 16:17:08
; FORMAT={-:-/ absolute / inch / decimal}
; #@! TF.CreationDate,2020-09-08T16:17:08+08:00
; #@! TF.GenerationSoftware,Kicad,Pcbnew,(5.1.5-131-g305ed0b65)-1
FMAT,2
INCH
T1C0.0118
T2C0.0300
T3C0.0394
T4C0.0472
%
G90
G05
T1
X1.6906Y-1.8937
X1.7244Y-1.9398
X1.8264Y-2.1051
X2.0433Y-2.5362
X3.2228Y-1.7701
X3.7594Y-2.8339
X3.8374Y-2.3807
X3.8488Y-2.5193
X3.9205Y-2.3378
X4.024Y-2.2823
X4.0941Y-2.3063
X5.0531Y-2.2933
X5.0579Y-2.1039
X5.0591Y-2.372
X5.5023Y-2.7937
X5.507Y-2.8314
X5.5213Y-2.8528
X5.5296Y-2.7822
X5.5508Y-2.8219
X5.5819Y-2.7815
X5.5985Y-2.7619
X5.6163Y-2.7434
X5.6231Y-2.7057
X5.6392Y-2.7318
X6.5915Y-2.6941
X7.7791Y-2.8307
T2
X8.1248Y-2.2266
X8.1434Y-1.9762
X8.1972Y-2.3584
X8.2344Y-1.8565
X8.3176Y-2.4484
X8.3669Y-1.7854
X8.4646Y-2.4803
X8.5169Y-1.7755
X8.6115Y-2.4484
X8.6575Y-1.8288
X8.732Y-2.3584
X8.7634Y-1.9356
X8.8043Y-2.2266
X8.8154Y-2.0767
X3.4004Y-2.2266
X3.419Y-1.9762
X3.4727Y-2.3584
X3.51Y-1.8565
X3.5932Y-2.4484
X3.6425Y-1.7854
X3.7402Y-2.4803
X3.7925Y-1.7755
X3.8871Y-2.4484
X3.9331Y-1.8288
X4.0076Y-2.3584
X4.039Y-1.9356
X4.0799Y-2.2266
X4.091Y-2.0767
X6.7469Y-2.2266
X6.7655Y-1.9762
X6.8192Y-2.3584
X6.8565Y-1.8565
X6.9397Y-2.4484
X6.9889Y-1.7854
X7.0866Y-2.4803
X7.139Y-1.7755
X7.2336Y-2.4484
X7.2796Y-1.8288
X7.354Y-2.3584
X7.3855Y-1.9356
X7.4264Y-2.2266
X7.4375Y-2.0767
X0.054Y-2.2266
X0.0726Y-1.9762
X0.1263Y-2.3584
X0.1636Y-1.8565
X0.2468Y-2.4484
X0.296Y-1.7854
X0.3937Y-2.4803
X0.4461Y-1.7755
X0.5406Y-2.4484
X0.5867Y-1.8288
X0.6611Y-2.3584
X0.6925Y-1.9356
X0.7334Y-2.2266
X0.7446Y-2.0767
X4.7784Y-2.2266
X4.797Y-1.9762
X4.8507Y-2.3584
X4.888Y-1.8565
X4.9712Y-2.4484
X5.0204Y-1.7854
X5.1181Y-2.4803
X5.1705Y-1.7755
X5.265Y-2.4484
X5.3111Y-1.8288
X5.3855Y-2.3584
X5.4169Y-1.9356
X5.4578Y-2.2266
X5.469Y-2.0767
X1.4319Y-2.2266
X1.4505Y-1.9762
X1.5042Y-2.3584
X1.5415Y-1.8565
X1.6247Y-2.4484
X1.674Y-1.7854
X1.7717Y-2.4803
X1.824Y-1.7755
X1.9186Y-2.4484
X1.9646Y-1.8288
X2.0391Y-2.3584
X2.0705Y-1.9356
X2.1114Y-2.2266
X2.1225Y-2.0767
T3
X2.4409Y-2.9528
X2.5409Y-2.9528
X2.6409Y-2.9528
X2.7409Y-2.9528
X2.8409Y-2.9528
X2.9409Y-2.9528
X3.0409Y-2.9528
X3.1409Y-2.9528
X3.2409Y-2.9528
X3.3409Y-2.9528
X3.4409Y-2.9528
X3.5409Y-2.9528
X3.7402Y-2.9528
X3.8402Y-2.9528
X3.9402Y-2.9528
X4.0402Y-2.9528
X4.1402Y-2.9528
X4.2402Y-2.9528
X4.3402Y-2.9528
X4.4402Y-2.9528
X4.5402Y-2.9528
X4.6402Y-2.9528
X4.7402Y-2.9528
X4.8402Y-2.9528
X3.7402Y-3.0709
X3.8402Y-3.0709
X3.9402Y-3.0709
X4.0402Y-3.0709
X4.1402Y-3.0709
X4.2402Y-3.0709
X4.3402Y-3.0709
X4.4402Y-3.0709
X4.5402Y-3.0709
X4.6402Y-3.0709
X4.7402Y-3.0709
X4.8402Y-3.0709
X1.1417Y-3.0709
X1.2417Y-3.0709
X1.3417Y-3.0709
X1.4417Y-3.0709
X1.5417Y-3.0709
X1.6417Y-3.0709
X1.7417Y-3.0709
X1.8417Y-3.0709
X1.9417Y-3.0709
X2.0417Y-3.0709
X2.1417Y-3.0709
X2.2417Y-3.0709
X1.1417Y-2.9528
X1.2417Y-2.9528
X1.3417Y-2.9528
X1.4417Y-2.9528
X1.5417Y-2.9528
X1.6417Y-2.9528
X1.7417Y-2.9528
X1.8417Y-2.9528
X1.9417Y-2.9528
X2.0417Y-2.9528
X2.1417Y-2.9528
X2.2417Y-2.9528
X2.4409Y-3.0709
X2.5409Y-3.0709
X2.6409Y-3.0709
X2.7409Y-3.0709
X2.8409Y-3.0709
X2.9409Y-3.0709
X3.0409Y-3.0709
X3.1409Y-3.0709
X3.2409Y-3.0709
X3.3409Y-3.0709
X3.4409Y-3.0709
X3.5409Y-3.0709
T4
X7.9134Y-2.9134
X8.5134Y-2.9134
X6.2598Y-1.9197
X6.2598Y-2.5197
X5.9055Y-1.9197
X5.9055Y-2.5197
X2.5591Y-1.9197
X2.5591Y-2.5197
X2.9134Y-1.9197
X2.9134Y-2.5197
X0.1087Y-2.9528
X0.7087Y-2.9528
T0
M30
