%TF.GenerationSoftware,KiCad,Pcbnew,(5.1.5-131-g305ed0b65)-1*%
%TF.CreationDate,2020-05-02T04:22:27+08:00*%
%TF.ProjectId,IN-18,494e2d31-382e-46b6-9963-61645f706362,rev?*%
%TF.SameCoordinates,Original*%
%TF.FileFunction,Copper,L1,Top*%
%TF.FilePolarity,Positive*%
%FSLAX46Y46*%
G04 Gerber Fmt 4.6, Leading zero omitted, Abs format (unit mm)*
G04 Created by KiCad (PCBNEW (5.1.5-131-g305ed0b65)-1) date 2020-05-02 04:22:27*
%MOMM*%
%LPD*%
G01*
G04 APERTURE LIST*
%TA.AperFunction,ComponentPad*%
%ADD10O,1.700000X1.700000*%
%TD*%
%TA.AperFunction,ComponentPad*%
%ADD11R,1.700000X1.700000*%
%TD*%
%TA.AperFunction,ComponentPad*%
%ADD12C,1.524000*%
%TD*%
%TA.AperFunction,ComponentPad*%
%ADD13C,2.400000*%
%TD*%
%TA.AperFunction,ComponentPad*%
%ADD14O,2.400000X2.400000*%
%TD*%
%TA.AperFunction,ViaPad*%
%ADD15C,0.500000*%
%TD*%
%TA.AperFunction,Conductor*%
%ADD16C,0.152400*%
%TD*%
G04 APERTURE END LIST*
D10*
%TO.P,J1,12*%
%TO.N,GND*%
X56940000Y-78000000D03*
%TO.P,J1,11*%
%TO.N,HV*%
X54400000Y-78000000D03*
%TO.P,J1,10*%
%TO.N,Net-(J1-Pad10)*%
X51860000Y-78000000D03*
%TO.P,J1,9*%
%TO.N,Net-(J1-Pad9)*%
X49320000Y-78000000D03*
%TO.P,J1,8*%
%TO.N,Net-(J1-Pad8)*%
X46780000Y-78000000D03*
%TO.P,J1,7*%
%TO.N,Net-(J1-Pad7)*%
X44240000Y-78000000D03*
%TO.P,J1,6*%
%TO.N,Net-(J1-Pad6)*%
X41700000Y-78000000D03*
%TO.P,J1,5*%
%TO.N,Net-(J1-Pad5)*%
X39160000Y-78000000D03*
%TO.P,J1,4*%
%TO.N,Net-(J1-Pad4)*%
X36620000Y-78000000D03*
%TO.P,J1,3*%
%TO.N,Net-(J1-Pad3)*%
X34080000Y-78000000D03*
%TO.P,J1,2*%
%TO.N,Net-(J1-Pad2)*%
X31540000Y-78000000D03*
D11*
%TO.P,J1,1*%
%TO.N,Net-(J1-Pad1)*%
X29000000Y-78000000D03*
%TD*%
D10*
%TO.P,J2,12*%
%TO.N,GND*%
X56940000Y-75000000D03*
%TO.P,J2,11*%
%TO.N,HV*%
X54400000Y-75000000D03*
%TO.P,J2,10*%
%TO.N,Net-(J2-Pad10)*%
X51860000Y-75000000D03*
%TO.P,J2,9*%
%TO.N,Net-(J2-Pad9)*%
X49320000Y-75000000D03*
%TO.P,J2,8*%
%TO.N,Net-(J2-Pad8)*%
X46780000Y-75000000D03*
%TO.P,J2,7*%
%TO.N,Net-(J2-Pad7)*%
X44240000Y-75000000D03*
%TO.P,J2,6*%
%TO.N,Net-(J2-Pad6)*%
X41700000Y-75000000D03*
%TO.P,J2,5*%
%TO.N,Net-(J2-Pad5)*%
X39160000Y-75000000D03*
%TO.P,J2,4*%
%TO.N,Net-(J2-Pad4)*%
X36620000Y-75000000D03*
%TO.P,J2,3*%
%TO.N,Net-(J2-Pad3)*%
X34080000Y-75000000D03*
%TO.P,J2,2*%
%TO.N,Net-(J2-Pad2)*%
X31540000Y-75000000D03*
D11*
%TO.P,J2,1*%
%TO.N,Net-(J2-Pad1)*%
X29000000Y-75000000D03*
%TD*%
D10*
%TO.P,J3,12*%
%TO.N,GND*%
X89940000Y-78000000D03*
%TO.P,J3,11*%
%TO.N,HV*%
X87400000Y-78000000D03*
%TO.P,J3,10*%
%TO.N,Net-(J3-Pad10)*%
X84860000Y-78000000D03*
%TO.P,J3,9*%
%TO.N,Net-(J3-Pad9)*%
X82320000Y-78000000D03*
%TO.P,J3,8*%
%TO.N,Net-(J3-Pad8)*%
X79780000Y-78000000D03*
%TO.P,J3,7*%
%TO.N,Net-(J3-Pad7)*%
X77240000Y-78000000D03*
%TO.P,J3,6*%
%TO.N,Net-(J3-Pad6)*%
X74700000Y-78000000D03*
%TO.P,J3,5*%
%TO.N,Net-(J3-Pad5)*%
X72160000Y-78000000D03*
%TO.P,J3,4*%
%TO.N,Net-(J3-Pad4)*%
X69620000Y-78000000D03*
%TO.P,J3,3*%
%TO.N,Net-(J3-Pad3)*%
X67080000Y-78000000D03*
%TO.P,J3,2*%
%TO.N,Net-(J3-Pad2)*%
X64540000Y-78000000D03*
D11*
%TO.P,J3,1*%
%TO.N,Net-(J3-Pad1)*%
X62000000Y-78000000D03*
%TD*%
%TO.P,J4,1*%
%TO.N,Net-(J4-Pad1)*%
X62000000Y-75000000D03*
D10*
%TO.P,J4,2*%
%TO.N,Net-(J4-Pad2)*%
X64540000Y-75000000D03*
%TO.P,J4,3*%
%TO.N,Net-(J4-Pad3)*%
X67080000Y-75000000D03*
%TO.P,J4,4*%
%TO.N,Net-(J4-Pad4)*%
X69620000Y-75000000D03*
%TO.P,J4,5*%
%TO.N,Net-(J4-Pad5)*%
X72160000Y-75000000D03*
%TO.P,J4,6*%
%TO.N,Net-(J4-Pad6)*%
X74700000Y-75000000D03*
%TO.P,J4,7*%
%TO.N,Net-(J4-Pad7)*%
X77240000Y-75000000D03*
%TO.P,J4,8*%
%TO.N,Net-(J4-Pad8)*%
X79780000Y-75000000D03*
%TO.P,J4,9*%
%TO.N,Net-(J4-Pad9)*%
X82320000Y-75000000D03*
%TO.P,J4,10*%
%TO.N,Net-(J4-Pad10)*%
X84860000Y-75000000D03*
%TO.P,J4,11*%
%TO.N,HV*%
X87400000Y-75000000D03*
%TO.P,J4,12*%
%TO.N,GND*%
X89940000Y-75000000D03*
%TD*%
D11*
%TO.P,J5,1*%
%TO.N,Net-(J5-Pad1)*%
X95000000Y-78000000D03*
D10*
%TO.P,J5,2*%
%TO.N,Net-(J5-Pad2)*%
X97540000Y-78000000D03*
%TO.P,J5,3*%
%TO.N,Net-(J5-Pad3)*%
X100080000Y-78000000D03*
%TO.P,J5,4*%
%TO.N,Net-(J5-Pad4)*%
X102620000Y-78000000D03*
%TO.P,J5,5*%
%TO.N,Net-(J5-Pad5)*%
X105160000Y-78000000D03*
%TO.P,J5,6*%
%TO.N,Net-(J5-Pad6)*%
X107700000Y-78000000D03*
%TO.P,J5,7*%
%TO.N,Net-(J5-Pad7)*%
X110240000Y-78000000D03*
%TO.P,J5,8*%
%TO.N,Net-(J5-Pad8)*%
X112780000Y-78000000D03*
%TO.P,J5,9*%
%TO.N,Net-(J5-Pad9)*%
X115320000Y-78000000D03*
%TO.P,J5,10*%
%TO.N,Net-(J5-Pad10)*%
X117860000Y-78000000D03*
%TO.P,J5,11*%
%TO.N,HV*%
X120400000Y-78000000D03*
%TO.P,J5,12*%
%TO.N,GND*%
X122940000Y-78000000D03*
%TD*%
D11*
%TO.P,J6,1*%
%TO.N,Net-(J6-Pad1)*%
X95000000Y-75000000D03*
D10*
%TO.P,J6,2*%
%TO.N,Net-(J6-Pad2)*%
X97540000Y-75000000D03*
%TO.P,J6,3*%
%TO.N,Net-(J6-Pad3)*%
X100080000Y-75000000D03*
%TO.P,J6,4*%
%TO.N,Net-(J6-Pad4)*%
X102620000Y-75000000D03*
%TO.P,J6,5*%
%TO.N,Net-(J6-Pad5)*%
X105160000Y-75000000D03*
%TO.P,J6,6*%
%TO.N,Net-(J6-Pad6)*%
X107700000Y-75000000D03*
%TO.P,J6,7*%
%TO.N,Net-(J6-Pad7)*%
X110240000Y-75000000D03*
%TO.P,J6,8*%
%TO.N,Net-(J6-Pad8)*%
X112780000Y-75000000D03*
%TO.P,J6,9*%
%TO.N,Net-(J6-Pad9)*%
X115320000Y-75000000D03*
%TO.P,J6,10*%
%TO.N,Net-(J6-Pad10)*%
X117860000Y-75000000D03*
%TO.P,J6,11*%
%TO.N,HV*%
X120400000Y-75000000D03*
%TO.P,J6,12*%
%TO.N,GND*%
X122940000Y-75000000D03*
%TD*%
D12*
%TO.P,U1,14*%
%TO.N,Net-(J1-Pad10)*%
X1843230Y-50196436D03*
%TO.P,U1,13*%
%TO.N,Net-(J1-Pad1)*%
X4154968Y-47156347D03*
%TO.P,U1,12*%
%TO.N,Anode*%
X7519264Y-45348645D03*
%TO.P,U1,11*%
%TO.N,Net-(J1-Pad2)*%
X11330284Y-45098858D03*
%TO.P,U1,10*%
%TO.N,Net-(J1-Pad3)*%
X14901751Y-46451965D03*
%TO.P,U1,9*%
%TO.N,Net-(J1-Pad9)*%
X17590523Y-49164304D03*
%TO.P,U1,8*%
%TO.N,Net-(U1-Pad1)*%
X18912412Y-52747443D03*
%TO.P,U1,1*%
X1370623Y-56556138D03*
%TO.P,U1,2*%
%TO.N,Net-(J1-Pad5)*%
X3207614Y-59904531D03*
%TO.P,U1,3*%
%TO.N,Net-(J1-Pad6)*%
X6267761Y-62189651D03*
%TO.P,U1,7*%
%TO.N,Net-(J1-Pad4)*%
X18629377Y-56556138D03*
%TO.P,U1,6*%
%TO.N,Net-(J1-Pad8)*%
X16792386Y-59904531D03*
%TO.P,U1,5*%
%TO.N,Net-(J1-Pad7)*%
X13732239Y-62189651D03*
%TO.P,U1,4*%
%TO.N,Anode*%
X10000000Y-63000000D03*
%TD*%
%TO.P,U2,14*%
%TO.N,Net-(J2-Pad10)*%
X36843230Y-50196436D03*
%TO.P,U2,13*%
%TO.N,Net-(J2-Pad1)*%
X39154968Y-47156347D03*
%TO.P,U2,12*%
%TO.N,Anode*%
X42519264Y-45348645D03*
%TO.P,U2,11*%
%TO.N,Net-(J2-Pad2)*%
X46330284Y-45098858D03*
%TO.P,U2,10*%
%TO.N,Net-(J2-Pad3)*%
X49901751Y-46451965D03*
%TO.P,U2,9*%
%TO.N,Net-(J2-Pad9)*%
X52590523Y-49164304D03*
%TO.P,U2,8*%
%TO.N,Net-(U2-Pad1)*%
X53912412Y-52747443D03*
%TO.P,U2,1*%
X36370623Y-56556138D03*
%TO.P,U2,2*%
%TO.N,Net-(J2-Pad5)*%
X38207614Y-59904531D03*
%TO.P,U2,3*%
%TO.N,Net-(J2-Pad6)*%
X41267761Y-62189651D03*
%TO.P,U2,7*%
%TO.N,Net-(J2-Pad4)*%
X53629377Y-56556138D03*
%TO.P,U2,6*%
%TO.N,Net-(J2-Pad8)*%
X51792386Y-59904531D03*
%TO.P,U2,5*%
%TO.N,Net-(J2-Pad7)*%
X48732239Y-62189651D03*
%TO.P,U2,4*%
%TO.N,Anode*%
X45000000Y-63000000D03*
%TD*%
%TO.P,U3,4*%
%TO.N,Anode*%
X95000000Y-63000000D03*
%TO.P,U3,5*%
%TO.N,Net-(J3-Pad7)*%
X98732239Y-62189651D03*
%TO.P,U3,6*%
%TO.N,Net-(J3-Pad8)*%
X101792386Y-59904531D03*
%TO.P,U3,7*%
%TO.N,Net-(J3-Pad4)*%
X103629377Y-56556138D03*
%TO.P,U3,3*%
%TO.N,Net-(J3-Pad6)*%
X91267761Y-62189651D03*
%TO.P,U3,2*%
%TO.N,Net-(J3-Pad5)*%
X88207614Y-59904531D03*
%TO.P,U3,1*%
%TO.N,Net-(U3-Pad1)*%
X86370623Y-56556138D03*
%TO.P,U3,8*%
X103912412Y-52747443D03*
%TO.P,U3,9*%
%TO.N,Net-(J3-Pad9)*%
X102590523Y-49164304D03*
%TO.P,U3,10*%
%TO.N,Net-(J3-Pad3)*%
X99901751Y-46451965D03*
%TO.P,U3,11*%
%TO.N,Net-(J3-Pad2)*%
X96330284Y-45098858D03*
%TO.P,U3,12*%
%TO.N,Anode*%
X92519264Y-45348645D03*
%TO.P,U3,13*%
%TO.N,Net-(J3-Pad1)*%
X89154968Y-47156347D03*
%TO.P,U3,14*%
%TO.N,Net-(J3-Pad10)*%
X86843230Y-50196436D03*
%TD*%
%TO.P,U4,4*%
%TO.N,Anode*%
X130000000Y-63000000D03*
%TO.P,U4,5*%
%TO.N,Net-(J4-Pad7)*%
X133732239Y-62189651D03*
%TO.P,U4,6*%
%TO.N,Net-(J4-Pad8)*%
X136792386Y-59904531D03*
%TO.P,U4,7*%
%TO.N,Net-(J4-Pad4)*%
X138629377Y-56556138D03*
%TO.P,U4,3*%
%TO.N,Net-(J4-Pad6)*%
X126267761Y-62189651D03*
%TO.P,U4,2*%
%TO.N,Net-(J4-Pad5)*%
X123207614Y-59904531D03*
%TO.P,U4,1*%
%TO.N,Net-(U4-Pad1)*%
X121370623Y-56556138D03*
%TO.P,U4,8*%
X138912412Y-52747443D03*
%TO.P,U4,9*%
%TO.N,Net-(J4-Pad9)*%
X137590523Y-49164304D03*
%TO.P,U4,10*%
%TO.N,Net-(J4-Pad3)*%
X134901751Y-46451965D03*
%TO.P,U4,11*%
%TO.N,Net-(J4-Pad2)*%
X131330284Y-45098858D03*
%TO.P,U4,12*%
%TO.N,Anode*%
X127519264Y-45348645D03*
%TO.P,U4,13*%
%TO.N,Net-(J4-Pad1)*%
X124154968Y-47156347D03*
%TO.P,U4,14*%
%TO.N,Net-(J4-Pad10)*%
X121843230Y-50196436D03*
%TD*%
%TO.P,U5,4*%
%TO.N,Anode*%
X180000000Y-63000000D03*
%TO.P,U5,5*%
%TO.N,Net-(J5-Pad7)*%
X183732239Y-62189651D03*
%TO.P,U5,6*%
%TO.N,Net-(J5-Pad8)*%
X186792386Y-59904531D03*
%TO.P,U5,7*%
%TO.N,Net-(J5-Pad4)*%
X188629377Y-56556138D03*
%TO.P,U5,3*%
%TO.N,Net-(J5-Pad6)*%
X176267761Y-62189651D03*
%TO.P,U5,2*%
%TO.N,Net-(J5-Pad5)*%
X173207614Y-59904531D03*
%TO.P,U5,1*%
%TO.N,Net-(U5-Pad1)*%
X171370623Y-56556138D03*
%TO.P,U5,8*%
X188912412Y-52747443D03*
%TO.P,U5,9*%
%TO.N,Net-(J5-Pad9)*%
X187590523Y-49164304D03*
%TO.P,U5,10*%
%TO.N,Net-(J5-Pad3)*%
X184901751Y-46451965D03*
%TO.P,U5,11*%
%TO.N,Net-(J5-Pad2)*%
X181330284Y-45098858D03*
%TO.P,U5,12*%
%TO.N,Anode*%
X177519264Y-45348645D03*
%TO.P,U5,13*%
%TO.N,Net-(J5-Pad1)*%
X174154968Y-47156347D03*
%TO.P,U5,14*%
%TO.N,Net-(J5-Pad10)*%
X171843230Y-50196436D03*
%TD*%
%TO.P,U6,14*%
%TO.N,Net-(J6-Pad10)*%
X206843230Y-50196436D03*
%TO.P,U6,13*%
%TO.N,Net-(J6-Pad1)*%
X209154968Y-47156347D03*
%TO.P,U6,12*%
%TO.N,Anode*%
X212519264Y-45348645D03*
%TO.P,U6,11*%
%TO.N,Net-(J6-Pad2)*%
X216330284Y-45098858D03*
%TO.P,U6,10*%
%TO.N,Net-(J6-Pad3)*%
X219901751Y-46451965D03*
%TO.P,U6,9*%
%TO.N,Net-(J6-Pad9)*%
X222590523Y-49164304D03*
%TO.P,U6,8*%
%TO.N,Net-(U6-Pad1)*%
X223912412Y-52747443D03*
%TO.P,U6,1*%
X206370623Y-56556138D03*
%TO.P,U6,2*%
%TO.N,Net-(J6-Pad5)*%
X208207614Y-59904531D03*
%TO.P,U6,3*%
%TO.N,Net-(J6-Pad6)*%
X211267761Y-62189651D03*
%TO.P,U6,7*%
%TO.N,Net-(J6-Pad4)*%
X223629377Y-56556138D03*
%TO.P,U6,6*%
%TO.N,Net-(J6-Pad8)*%
X221792386Y-59904531D03*
%TO.P,U6,5*%
%TO.N,Net-(J6-Pad7)*%
X218732239Y-62189651D03*
%TO.P,U6,4*%
%TO.N,Anode*%
X215000000Y-63000000D03*
%TD*%
D13*
%TO.P,R1,1*%
%TO.N,HV*%
X18000000Y-75000000D03*
D14*
%TO.P,R1,2*%
%TO.N,Anode*%
X2760000Y-75000000D03*
%TD*%
D13*
%TO.P,R2,1*%
%TO.N,HV*%
X65000000Y-64000000D03*
D14*
%TO.P,R2,2*%
%TO.N,Anode*%
X65000000Y-48760000D03*
%TD*%
D13*
%TO.P,R3,1*%
%TO.N,HV*%
X74000000Y-64000000D03*
D14*
%TO.P,R3,2*%
%TO.N,Anode*%
X74000000Y-48760000D03*
%TD*%
%TO.P,R4,2*%
%TO.N,Anode*%
X150000000Y-48760000D03*
D13*
%TO.P,R4,1*%
%TO.N,HV*%
X150000000Y-64000000D03*
%TD*%
D14*
%TO.P,R5,2*%
%TO.N,Anode*%
X159000000Y-48760000D03*
D13*
%TO.P,R5,1*%
%TO.N,HV*%
X159000000Y-64000000D03*
%TD*%
D14*
%TO.P,R6,2*%
%TO.N,Anode*%
X216240000Y-74000000D03*
D13*
%TO.P,R6,1*%
%TO.N,HV*%
X201000000Y-74000000D03*
%TD*%
D15*
%TO.N,Net-(J2-Pad10)*%
X51900000Y-64420000D03*
X46390000Y-53470000D03*
%TO.N,Net-(J2-Pad3)*%
X43800000Y-49270000D03*
%TO.N,Net-(J2-Pad2)*%
X42940000Y-48100000D03*
%TO.N,Net-(J3-Pad10)*%
X95490000Y-71980000D03*
%TO.N,Net-(J4-Pad1)*%
X81860000Y-44960000D03*
%TO.N,Net-(J4-Pad6)*%
X97470000Y-60470000D03*
%TO.N,Net-(J4-Pad7)*%
X103990000Y-58580000D03*
X128500000Y-60250000D03*
%TO.N,Net-(J4-Pad8)*%
X102210000Y-57970000D03*
X128350000Y-58250000D03*
%TO.N,Net-(J4-Pad9)*%
X99580000Y-59380000D03*
X128470000Y-53440000D03*
%TO.N,Net-(J4-Pad10)*%
X97760000Y-63990000D03*
%TO.N,Net-(J5-Pad10)*%
X167423536Y-68431390D03*
%TO.N,Net-(J6-Pad1)*%
X142826350Y-68724294D03*
%TO.N,Net-(J6-Pad2)*%
X143235500Y-69386939D03*
%TO.N,Net-(J6-Pad3)*%
X142653373Y-69681505D03*
%TO.N,Net-(J6-Pad4)*%
X142201522Y-70152112D03*
%TO.N,Net-(J6-Pad5)*%
X141780973Y-70650890D03*
%TO.N,Net-(J6-Pad6)*%
X140451794Y-70667444D03*
%TO.N,Net-(J6-Pad7)*%
X139758873Y-70960683D03*
%TO.N,Net-(J6-Pad8)*%
X140990406Y-71676579D03*
%TO.N,Net-(J6-Pad9)*%
X139877009Y-71917894D03*
%TO.N,Net-(J6-Pad10)*%
X140240000Y-72460000D03*
X197590000Y-71900000D03*
%TD*%
D16*
%TO.N,Net-(J1-Pad10)*%
X49837729Y-79078601D02*
X48802271Y-79078601D01*
X50398601Y-78517729D02*
X49837729Y-79078601D01*
X51860000Y-78000000D02*
X50398601Y-78000000D01*
X50398601Y-78000000D02*
X50398601Y-78517729D01*
X48802271Y-79078601D02*
X46570872Y-81310000D01*
X380022Y-51659644D02*
X1843230Y-50196436D01*
X21764603Y-81310000D02*
X380022Y-59925419D01*
X380022Y-59925419D02*
X380022Y-51659644D01*
X46570872Y-81310000D02*
X21764603Y-81310000D01*
%TO.N,Net-(J1-Pad9)*%
X35158601Y-66732382D02*
X17590523Y-49164304D01*
X35158601Y-75134931D02*
X35158601Y-66732382D01*
X36102271Y-76078601D02*
X35158601Y-75134931D01*
X47398601Y-76078601D02*
X36102271Y-76078601D01*
X49320000Y-78000000D02*
X47398601Y-76078601D01*
%TO.N,Net-(J1-Pad8)*%
X33562271Y-76078601D02*
X33001399Y-75517729D01*
X33001399Y-75517729D02*
X33001399Y-69462070D01*
X16792386Y-56927039D02*
X16792386Y-59904531D01*
X36209191Y-76616588D02*
X35671204Y-76078601D01*
X18153888Y-55565537D02*
X16792386Y-56927039D01*
X35671204Y-76078601D02*
X33562271Y-76078601D01*
X33001399Y-69462070D02*
X19104866Y-55565537D01*
X19104866Y-55565537D02*
X18153888Y-55565537D01*
X45396588Y-76616588D02*
X36209191Y-76616588D01*
X46780000Y-78000000D02*
X45396588Y-76616588D01*
%TO.N,Net-(J1-Pad7)*%
X30078601Y-76967119D02*
X29811482Y-76700000D01*
X37137729Y-79078601D02*
X31022271Y-79078601D01*
X37698601Y-77865069D02*
X37698601Y-78517729D01*
X43161399Y-76921399D02*
X38642271Y-76921399D01*
X37698601Y-78517729D02*
X37137729Y-79078601D01*
X31022271Y-79078601D02*
X30078601Y-78134931D01*
X30078601Y-78134931D02*
X30078601Y-76967119D01*
X38642271Y-76921399D02*
X37698601Y-77865069D01*
X44240000Y-78000000D02*
X43161399Y-76921399D01*
X29811482Y-76700000D02*
X28242588Y-76700000D01*
X28242588Y-76700000D02*
X13732239Y-62189651D01*
%TO.N,Net-(J1-Pad6)*%
X41700000Y-78000000D02*
X38694811Y-81005189D01*
X38694811Y-81005189D02*
X21890859Y-81005189D01*
X6267761Y-65382091D02*
X6267761Y-62189651D01*
X21890859Y-81005189D02*
X6267761Y-65382091D01*
%TO.N,Net-(J1-Pad5)*%
X30591205Y-79078601D02*
X27542776Y-79078601D01*
X8368706Y-59904531D02*
X3207614Y-59904531D01*
X27542776Y-79078601D02*
X8368706Y-59904531D01*
X37776588Y-79383412D02*
X30896015Y-79383412D01*
X39160000Y-78000000D02*
X37776588Y-79383412D01*
X30896015Y-79383412D02*
X30591205Y-79078601D01*
%TO.N,Net-(J1-Pad4)*%
X36620000Y-78000000D02*
X35003412Y-76383412D01*
X31022271Y-76078601D02*
X30461399Y-75517729D01*
X33436015Y-76383412D02*
X33131205Y-76078601D01*
X33131205Y-76078601D02*
X31022271Y-76078601D01*
X30461399Y-75517729D02*
X30461399Y-68388160D01*
X35003412Y-76383412D02*
X33436015Y-76383412D01*
X30461399Y-68388160D02*
X18629377Y-56556138D01*
%TO.N,Net-(J1-Pad3)*%
X30078601Y-75565998D02*
X30078601Y-73967119D01*
X14901751Y-59479986D02*
X14901751Y-46451965D01*
X16316897Y-60895132D02*
X14901751Y-59479986D01*
X30078601Y-73967119D02*
X17006614Y-60895132D01*
X17006614Y-60895132D02*
X16316897Y-60895132D01*
X30896015Y-76383412D02*
X30078601Y-75565998D01*
X34080000Y-78000000D02*
X32463412Y-76383412D01*
X32463412Y-76383412D02*
X30896015Y-76383412D01*
%TO.N,Net-(J1-Pad2)*%
X31540000Y-78000000D02*
X31540000Y-77997451D01*
X11330284Y-46176488D02*
X11330284Y-45098858D01*
X31540000Y-77997451D02*
X29925961Y-76383412D01*
X14722840Y-59732142D02*
X11330284Y-56339586D01*
X11330284Y-56339586D02*
X11330284Y-46176488D01*
X28357066Y-76383412D02*
X14722840Y-62749186D01*
X14722840Y-62749186D02*
X14722840Y-59732142D01*
X29925961Y-76383412D02*
X28357066Y-76383412D01*
%TO.N,Net-(J1-Pad1)*%
X27977867Y-78000000D02*
X4154968Y-54177101D01*
X29000000Y-78000000D02*
X27977867Y-78000000D01*
X4154968Y-48233977D02*
X4154968Y-47156347D01*
X4154968Y-54177101D02*
X4154968Y-48233977D01*
%TO.N,Net-(J2-Pad10)*%
X51860000Y-75000000D02*
X51860000Y-64460000D01*
X51860000Y-64460000D02*
X51900000Y-64420000D01*
X40116794Y-53470000D02*
X36843230Y-50196436D01*
X46390000Y-53470000D02*
X40116794Y-53470000D01*
%TO.N,Net-(J2-Pad9)*%
X49320000Y-75000000D02*
X49320000Y-65570000D01*
X52782987Y-57175838D02*
X52590523Y-56983374D01*
X52782987Y-62107013D02*
X52782987Y-57175838D01*
X52590523Y-56983374D02*
X52590523Y-49164304D01*
X49320000Y-65570000D02*
X52782987Y-62107013D01*
%TO.N,Net-(J2-Pad8)*%
X51792386Y-60982161D02*
X51792386Y-59904531D01*
X46780000Y-65994547D02*
X51792386Y-60982161D01*
X46780000Y-75000000D02*
X46780000Y-65994547D01*
%TO.N,Net-(J2-Pad7)*%
X44240000Y-66681890D02*
X48732239Y-62189651D01*
X44240000Y-75000000D02*
X44240000Y-66681890D01*
%TO.N,Net-(J2-Pad6)*%
X41700000Y-62621890D02*
X41267761Y-62189651D01*
X41700000Y-75000000D02*
X41700000Y-62621890D01*
%TO.N,Net-(J2-Pad5)*%
X39160000Y-60856917D02*
X38207614Y-59904531D01*
X39160000Y-75000000D02*
X39160000Y-60856917D01*
%TO.N,Net-(J2-Pad3)*%
X47083716Y-49270000D02*
X49901751Y-46451965D01*
X43800000Y-49270000D02*
X47083716Y-49270000D01*
%TO.N,Net-(J2-Pad2)*%
X45941142Y-45098858D02*
X46330284Y-45098858D01*
X42940000Y-48100000D02*
X45941142Y-45098858D01*
%TO.N,Net-(J3-Pad10)*%
X90548601Y-76921399D02*
X95490000Y-71980000D01*
X89422271Y-76921399D02*
X90548601Y-76921399D01*
X88861399Y-77482271D02*
X89422271Y-76921399D01*
X87917729Y-79078601D02*
X88861399Y-78134931D01*
X88861399Y-78134931D02*
X88861399Y-77482271D01*
X84860000Y-78000000D02*
X85938601Y-79078601D01*
X85938601Y-79078601D02*
X87917729Y-79078601D01*
%TO.N,Net-(J3-Pad9)*%
X83398601Y-76921399D02*
X88991205Y-76921399D01*
X88991205Y-76921399D02*
X89296015Y-76616588D01*
X82320000Y-78000000D02*
X83398601Y-76921399D01*
X89296015Y-76616588D02*
X89919742Y-76616588D01*
X104903013Y-61633317D02*
X104903013Y-51476794D01*
X89919742Y-76616588D02*
X104903013Y-61633317D01*
X104903013Y-51476794D02*
X102590523Y-49164304D01*
%TO.N,Net-(J3-Pad8)*%
X79780000Y-78000000D02*
X81224809Y-76555191D01*
X88861399Y-73913148D02*
X101792386Y-60982161D01*
X81224809Y-76555191D02*
X87844809Y-76555191D01*
X101792386Y-60982161D02*
X101792386Y-59904531D01*
X88861399Y-75538601D02*
X88861399Y-73913148D01*
X87844809Y-76555191D02*
X88861399Y-75538601D01*
%TO.N,Net-(J3-Pad7)*%
X98182953Y-62189651D02*
X98732239Y-62189651D01*
X83781399Y-75134931D02*
X83781399Y-74482271D01*
X77240000Y-78000000D02*
X78551777Y-76688223D01*
X80550241Y-76688223D02*
X81159862Y-76078601D01*
X83781399Y-74482271D02*
X84342271Y-73921399D01*
X86451205Y-73921399D02*
X98182953Y-62189651D01*
X84342271Y-73921399D02*
X86451205Y-73921399D01*
X81159862Y-76078601D02*
X82837729Y-76078601D01*
X78551777Y-76688223D02*
X80550241Y-76688223D01*
X82837729Y-76078601D02*
X83781399Y-75134931D01*
%TO.N,Net-(J3-Pad6)*%
X75778601Y-76921399D02*
X75778601Y-74865069D01*
X75778601Y-74865069D02*
X88454019Y-62189651D01*
X88454019Y-62189651D02*
X91267761Y-62189651D01*
X74700000Y-78000000D02*
X75778601Y-76921399D01*
%TO.N,Net-(J3-Pad5)*%
X73591113Y-76568887D02*
X73591113Y-74571020D01*
X87445615Y-60716518D02*
X87445615Y-60666530D01*
X87445615Y-60666530D02*
X88207614Y-59904531D01*
X72160000Y-78000000D02*
X73591113Y-76568887D01*
X73591113Y-74571020D02*
X87445615Y-60716518D01*
%TO.N,Net-(J3-Pad4)*%
X73264809Y-75491521D02*
X73264809Y-73381245D01*
X73264809Y-73381245D02*
X90089916Y-56556138D01*
X90089916Y-56556138D02*
X102551747Y-56556138D01*
X72677729Y-76078601D02*
X73264809Y-75491521D01*
X71541399Y-76078601D02*
X72677729Y-76078601D01*
X69620000Y-78000000D02*
X71541399Y-76078601D01*
X102551747Y-56556138D02*
X103629377Y-56556138D01*
%TO.N,Net-(J3-Pad3)*%
X67080000Y-78000000D02*
X68158601Y-76921399D01*
X86018312Y-59300380D02*
X98866727Y-46451965D01*
X83723290Y-59300380D02*
X86018312Y-59300380D01*
X68158601Y-74865069D02*
X83723290Y-59300380D01*
X68158601Y-76921399D02*
X68158601Y-74865069D01*
X98866727Y-46451965D02*
X99901751Y-46451965D01*
%TO.N,Net-(J3-Pad2)*%
X95384812Y-45098858D02*
X96330284Y-45098858D01*
X65618601Y-74865069D02*
X95384812Y-45098858D01*
X65618601Y-76921399D02*
X65618601Y-74865069D01*
X64540000Y-78000000D02*
X65618601Y-76921399D01*
%TO.N,Net-(J3-Pad1)*%
X63078601Y-76921399D02*
X63078601Y-72155084D01*
X88077338Y-47156347D02*
X89154968Y-47156347D01*
X63078601Y-72155084D02*
X88077338Y-47156347D01*
X62000000Y-78000000D02*
X63078601Y-76921399D01*
%TO.N,Net-(J4-Pad1)*%
X81860000Y-44960000D02*
X83134811Y-43685189D01*
X120683810Y-43685189D02*
X123392969Y-46394348D01*
X123392969Y-46394348D02*
X124154968Y-47156347D01*
X83134811Y-43685189D02*
X120683810Y-43685189D01*
%TO.N,Net-(J4-Pad2)*%
X123679479Y-48146948D02*
X128282194Y-48146948D01*
X128282194Y-48146948D02*
X131330284Y-45098858D01*
X92293562Y-44108257D02*
X119640788Y-44108257D01*
X91528663Y-44873156D02*
X92293562Y-44108257D01*
X91528663Y-46977093D02*
X91528663Y-44873156D01*
X87318719Y-51187037D02*
X91528663Y-46977093D01*
X84698633Y-51187037D02*
X87318719Y-51187037D01*
X64540000Y-75000000D02*
X64540000Y-71345670D01*
X119640788Y-44108257D02*
X123679479Y-48146948D01*
X64540000Y-71345670D02*
X84698633Y-51187037D01*
%TO.N,Net-(J4-Pad3)*%
X117921364Y-45461364D02*
X120911759Y-48451759D01*
X120911759Y-48451759D02*
X132901957Y-48451759D01*
X99426262Y-45461364D02*
X117921364Y-45461364D01*
X85892056Y-58995569D02*
X99426262Y-45461364D01*
X132901957Y-48451759D02*
X134901751Y-46451965D01*
X67080000Y-75000000D02*
X83084431Y-58995569D01*
X83084431Y-58995569D02*
X85892056Y-58995569D01*
%TO.N,Net-(J4-Pad4)*%
X111907852Y-48173703D02*
X118354407Y-48173703D01*
X126736842Y-56556138D02*
X138629377Y-56556138D01*
X85014809Y-59605191D02*
X86178731Y-59605191D01*
X69620000Y-75000000D02*
X85014809Y-59605191D01*
X97915029Y-47868892D02*
X111603042Y-47868892D01*
X86178731Y-59605191D02*
X97915029Y-47868892D01*
X118354407Y-48173703D02*
X126736842Y-56556138D01*
X111603042Y-47868892D02*
X111907852Y-48173703D01*
%TO.N,Net-(J4-Pad5)*%
X98041285Y-48173703D02*
X111476786Y-48173703D01*
X72160000Y-74054988D02*
X98041285Y-48173703D01*
X72160000Y-75000000D02*
X72160000Y-74054988D01*
X111476786Y-48173703D02*
X123207614Y-59904531D01*
%TO.N,Net-(J4-Pad6)*%
X73621399Y-77280682D02*
X73621399Y-78517729D01*
X75217729Y-79078601D02*
X75778601Y-78517729D01*
X74700000Y-75000000D02*
X74700000Y-76202081D01*
X75778601Y-78517729D02*
X75778601Y-77352465D01*
X75778601Y-77352465D02*
X77052465Y-76078601D01*
X77052465Y-76078601D02*
X78831205Y-76078601D01*
X78831205Y-76078601D02*
X79136015Y-76383412D01*
X95301066Y-60470000D02*
X97470000Y-60470000D01*
X79136015Y-76383412D02*
X80423985Y-76383412D01*
X81241399Y-74529667D02*
X95301066Y-60470000D01*
X80423985Y-76383412D02*
X81241399Y-75565998D01*
X74182271Y-79078601D02*
X75217729Y-79078601D01*
X74700000Y-76202081D02*
X73621399Y-77280682D01*
X81241399Y-75565998D02*
X81241399Y-74529667D01*
X73621399Y-78517729D02*
X74182271Y-79078601D01*
%TO.N,Net-(J4-Pad7)*%
X131792588Y-60250000D02*
X133732239Y-62189651D01*
X128500000Y-60250000D02*
X131792588Y-60250000D01*
X80297729Y-76078601D02*
X80936588Y-75439742D01*
X80936588Y-74403413D02*
X96760001Y-58580000D01*
X80936588Y-75439742D02*
X80936588Y-74403413D01*
X79262271Y-76078601D02*
X80297729Y-76078601D01*
X78183670Y-75000000D02*
X79262271Y-76078601D01*
X96760001Y-58580000D02*
X103990000Y-58580000D01*
X77240000Y-75000000D02*
X78183670Y-75000000D01*
%TO.N,Net-(J4-Pad8)*%
X79908935Y-75000000D02*
X96938935Y-57970000D01*
X79780000Y-75000000D02*
X79908935Y-75000000D01*
X96938935Y-57970000D02*
X102210000Y-57970000D01*
X130004531Y-59904531D02*
X136792386Y-59904531D01*
X128350000Y-58250000D02*
X130004531Y-59904531D01*
%TO.N,Net-(J4-Pad9)*%
X99580000Y-59886090D02*
X99580000Y-59380000D01*
X82320000Y-75000000D02*
X93329399Y-63990601D01*
X95475489Y-63990601D02*
X99580000Y-59886090D01*
X93329399Y-63990601D02*
X95475489Y-63990601D01*
X133314827Y-53440000D02*
X137590523Y-49164304D01*
X128470000Y-53440000D02*
X133314827Y-53440000D01*
%TO.N,Net-(J4-Pad10)*%
X85803670Y-75000000D02*
X96813670Y-63990000D01*
X84860000Y-75000000D02*
X85803670Y-75000000D01*
X96813670Y-63990000D02*
X97760000Y-63990000D01*
%TO.N,Net-(J5-Pad1)*%
X164729323Y-47156347D02*
X174154968Y-47156347D01*
X147895069Y-63990601D02*
X164729323Y-47156347D01*
X106953069Y-63990601D02*
X147895069Y-63990601D01*
X96078601Y-74865069D02*
X106953069Y-63990601D01*
X96078601Y-76921399D02*
X96078601Y-74865069D01*
X95000000Y-78000000D02*
X96078601Y-76921399D01*
%TO.N,Net-(J5-Pad2)*%
X98618601Y-74865069D02*
X108055069Y-65428601D01*
X174106323Y-51245189D02*
X180252654Y-45098858D01*
X98618601Y-76921399D02*
X98618601Y-74865069D01*
X180252654Y-45098858D02*
X181330284Y-45098858D01*
X155457069Y-65428601D02*
X169640481Y-51245189D01*
X97540000Y-78000000D02*
X98618601Y-76921399D01*
X169640481Y-51245189D02*
X174106323Y-51245189D01*
X108055069Y-65428601D02*
X155457069Y-65428601D01*
%TO.N,Net-(J5-Pad3)*%
X110233670Y-65790000D02*
X160208934Y-65790000D01*
X100080000Y-78000000D02*
X101158601Y-76921399D01*
X101158601Y-74865069D02*
X110233670Y-65790000D01*
X101158601Y-76921399D02*
X101158601Y-74865069D01*
X183824121Y-46451965D02*
X184901751Y-46451965D01*
X179546969Y-46451965D02*
X183824121Y-46451965D01*
X160208934Y-65790000D02*
X179546969Y-46451965D01*
%TO.N,Net-(J5-Pad4)*%
X102620000Y-78000000D02*
X103698601Y-76921399D01*
X103698601Y-74865069D02*
X112423670Y-66140000D01*
X103698601Y-76921399D02*
X103698601Y-74865069D01*
X187638776Y-55565537D02*
X188629377Y-56556138D01*
X160320671Y-66140000D02*
X170895134Y-55565537D01*
X112423670Y-66140000D02*
X160320671Y-66140000D01*
X170895134Y-55565537D02*
X187638776Y-55565537D01*
%TO.N,Net-(J5-Pad5)*%
X106238601Y-74865069D02*
X114643670Y-66460000D01*
X105160000Y-78000000D02*
X106238601Y-76921399D01*
X106238601Y-76921399D02*
X106238601Y-74865069D01*
X166652145Y-66460000D02*
X173207614Y-59904531D01*
X114643670Y-66460000D02*
X166652145Y-66460000D01*
%TO.N,Net-(J5-Pad6)*%
X108778601Y-74865069D02*
X116803670Y-66840000D01*
X107700000Y-78000000D02*
X108778601Y-76921399D01*
X108778601Y-76921399D02*
X108778601Y-74865069D01*
X171617412Y-66840000D02*
X176267761Y-62189651D01*
X116803670Y-66840000D02*
X171617412Y-66840000D01*
%TO.N,Net-(J5-Pad7)*%
X110240000Y-78000000D02*
X111318601Y-76921399D01*
X111318601Y-74865069D02*
X118983670Y-67200000D01*
X111318601Y-76921399D02*
X111318601Y-74865069D01*
X178721890Y-67200000D02*
X183732239Y-62189651D01*
X118983670Y-67200000D02*
X178721890Y-67200000D01*
%TO.N,Net-(J5-Pad8)*%
X186792386Y-60939555D02*
X186792386Y-59904531D01*
X121203670Y-67520000D02*
X180211941Y-67520000D01*
X180211941Y-67520000D02*
X186792386Y-60939555D01*
X113858601Y-76921399D02*
X113858601Y-74865069D01*
X112780000Y-78000000D02*
X113858601Y-76921399D01*
X113858601Y-74865069D02*
X121203670Y-67520000D01*
%TO.N,Net-(J5-Pad9)*%
X115320000Y-78000000D02*
X116398601Y-76921399D01*
X116398601Y-74865069D02*
X123413670Y-67850000D01*
X116398601Y-76921399D02*
X116398601Y-74865069D01*
X189903013Y-51476794D02*
X187590523Y-49164304D01*
X180313007Y-67850000D02*
X189903013Y-58259994D01*
X189903013Y-58259994D02*
X189903013Y-51476794D01*
X123413670Y-67850000D02*
X180313007Y-67850000D01*
%TO.N,Net-(J5-Pad10)*%
X119321399Y-74482271D02*
X125372280Y-68431390D01*
X142660921Y-68181391D02*
X167173537Y-68181391D01*
X125372280Y-68431390D02*
X142410922Y-68431390D01*
X119321399Y-76538601D02*
X119321399Y-74482271D01*
X142410922Y-68431390D02*
X142660921Y-68181391D01*
X167173537Y-68181391D02*
X167423536Y-68431390D01*
X117860000Y-78000000D02*
X119321399Y-76538601D01*
%TO.N,Net-(J6-Pad1)*%
X209154968Y-47156347D02*
X208077338Y-47156347D01*
X208077338Y-47156347D02*
X186117808Y-69115877D01*
X143281187Y-68724294D02*
X142826350Y-68724294D01*
X143672770Y-69115877D02*
X143281187Y-68724294D01*
X186117808Y-69115877D02*
X143672770Y-69115877D01*
%TO.N,Net-(J6-Pad2)*%
X190961599Y-69636938D02*
X143485499Y-69636938D01*
X215568285Y-45860857D02*
X214737680Y-45860857D01*
X143485499Y-69636938D02*
X143235500Y-69386939D01*
X214737680Y-45860857D02*
X190961599Y-69636938D01*
X216330284Y-45098858D02*
X215568285Y-45860857D01*
%TO.N,Net-(J6-Pad3)*%
X214577639Y-46451965D02*
X191007400Y-70022204D01*
X219901751Y-46451965D02*
X214577639Y-46451965D01*
X191007400Y-70022204D02*
X142994072Y-70022204D01*
X142994072Y-70022204D02*
X142653373Y-69681505D01*
%TO.N,Net-(J6-Pad4)*%
X222638776Y-55565537D02*
X205895134Y-55565537D01*
X205895134Y-55565537D02*
X191058560Y-70402111D01*
X142451521Y-70402111D02*
X142201522Y-70152112D01*
X223629377Y-56556138D02*
X222638776Y-55565537D01*
X191058560Y-70402111D02*
X142451521Y-70402111D01*
%TO.N,Net-(J6-Pad5)*%
X208207614Y-59904531D02*
X207122869Y-59904531D01*
X142030972Y-70900889D02*
X141780973Y-70650890D01*
X196126511Y-70900889D02*
X142030972Y-70900889D01*
X207122869Y-59904531D02*
X196126511Y-70900889D01*
%TO.N,Net-(J6-Pad6)*%
X205268816Y-62189651D02*
X196217711Y-71240756D01*
X141120670Y-70667444D02*
X140451794Y-70667444D01*
X211267761Y-62189651D02*
X205268816Y-62189651D01*
X141693982Y-71240756D02*
X141120670Y-70667444D01*
X196217711Y-71240756D02*
X141693982Y-71240756D01*
%TO.N,Net-(J6-Pad7)*%
X197077758Y-70811776D02*
X196343967Y-71545567D01*
X196343967Y-71545567D02*
X141567726Y-71545567D01*
X139996167Y-71197977D02*
X139758873Y-70960683D01*
X218732239Y-62189651D02*
X210110114Y-70811776D01*
X210110114Y-70811776D02*
X197077758Y-70811776D01*
X141567726Y-71545567D02*
X141220136Y-71197977D01*
X141220136Y-71197977D02*
X139996167Y-71197977D01*
%TO.N,Net-(J6-Pad8)*%
X197204014Y-71116587D02*
X196470223Y-71850378D01*
X197945986Y-71116587D02*
X197204014Y-71116587D01*
X198934617Y-72105218D02*
X197945986Y-71116587D01*
X210669329Y-72105218D02*
X198934617Y-72105218D01*
X221792386Y-60982161D02*
X210669329Y-72105218D01*
X196470223Y-71850378D02*
X141164205Y-71850378D01*
X221792386Y-59904531D02*
X221792386Y-60982161D01*
X141164205Y-71850378D02*
X140990406Y-71676579D01*
%TO.N,Net-(J6-Pad9)*%
X222590523Y-49164304D02*
X224903013Y-51476794D01*
X140613519Y-72155189D02*
X140376224Y-71917894D01*
X224903013Y-51476794D02*
X224903013Y-59676987D01*
X196596479Y-72155189D02*
X140613519Y-72155189D01*
X198836352Y-72438020D02*
X197819730Y-71421398D01*
X197819730Y-71421398D02*
X197330270Y-71421398D01*
X224903013Y-59676987D02*
X212141980Y-72438020D01*
X140376224Y-71917894D02*
X139877009Y-71917894D01*
X212141980Y-72438020D02*
X198836352Y-72438020D01*
X197330270Y-71421398D02*
X196596479Y-72155189D01*
%TO.N,Net-(J6-Pad10)*%
X140240000Y-72460000D02*
X197030000Y-72460000D01*
X197030000Y-72460000D02*
X197590000Y-71900000D01*
%TD*%
M02*
