%TF.GenerationSoftware,KiCad,Pcbnew,(5.1.5-131-g305ed0b65)-1*%
%TF.CreationDate,2020-09-08T16:17:06+08:00*%
%TF.ProjectId,IN-18,494e2d31-382e-46b6-9963-61645f706362,rev?*%
%TF.SameCoordinates,Original*%
%TF.FileFunction,Legend,Top*%
%TF.FilePolarity,Positive*%
%FSLAX46Y46*%
G04 Gerber Fmt 4.6, Leading zero omitted, Abs format (unit mm)*
G04 Created by KiCad (PCBNEW (5.1.5-131-g305ed0b65)-1) date 2020-09-08 16:17:06*
%MOMM*%
%LPD*%
G01*
G04 APERTURE LIST*
%ADD10C,0.150000*%
%ADD11C,0.200000*%
%ADD12C,0.381000*%
%ADD13C,0.010000*%
%ADD14C,0.120000*%
G04 APERTURE END LIST*
D10*
X4952380Y-80452380D02*
X4952380Y-79452380D01*
X4952380Y-79928571D02*
X5523809Y-79928571D01*
X5523809Y-80452380D02*
X5523809Y-79452380D01*
X6000000Y-80452380D02*
X6000000Y-79452380D01*
X7000000Y-79500000D02*
X6904761Y-79452380D01*
X6761904Y-79452380D01*
X6619047Y-79500000D01*
X6523809Y-79595238D01*
X6476190Y-79690476D01*
X6428571Y-79880952D01*
X6428571Y-80023809D01*
X6476190Y-80214285D01*
X6523809Y-80309523D01*
X6619047Y-80404761D01*
X6761904Y-80452380D01*
X6857142Y-80452380D01*
X7000000Y-80404761D01*
X7047619Y-80357142D01*
X7047619Y-80023809D01*
X6857142Y-80023809D01*
X7476190Y-80452380D02*
X7476190Y-79452380D01*
X7476190Y-79928571D02*
X8047619Y-79928571D01*
X8047619Y-80452380D02*
X8047619Y-79452380D01*
X9142857Y-79452380D02*
X9476190Y-80452380D01*
X9809523Y-79452380D01*
X10333333Y-79452380D02*
X10523809Y-79452380D01*
X10619047Y-79500000D01*
X10714285Y-79595238D01*
X10761904Y-79785714D01*
X10761904Y-80119047D01*
X10714285Y-80309523D01*
X10619047Y-80404761D01*
X10523809Y-80452380D01*
X10333333Y-80452380D01*
X10238095Y-80404761D01*
X10142857Y-80309523D01*
X10095238Y-80119047D01*
X10095238Y-79785714D01*
X10142857Y-79595238D01*
X10238095Y-79500000D01*
X10333333Y-79452380D01*
X11666666Y-80452380D02*
X11190476Y-80452380D01*
X11190476Y-79452380D01*
X11857142Y-79452380D02*
X12428571Y-79452380D01*
X12142857Y-80452380D02*
X12142857Y-79452380D01*
X12714285Y-80166666D02*
X13190476Y-80166666D01*
X12619047Y-80452380D02*
X12952380Y-79452380D01*
X13285714Y-80452380D01*
X14142857Y-79500000D02*
X14047619Y-79452380D01*
X13904761Y-79452380D01*
X13761904Y-79500000D01*
X13666666Y-79595238D01*
X13619047Y-79690476D01*
X13571428Y-79880952D01*
X13571428Y-80023809D01*
X13619047Y-80214285D01*
X13666666Y-80309523D01*
X13761904Y-80404761D01*
X13904761Y-80452380D01*
X14000000Y-80452380D01*
X14142857Y-80404761D01*
X14190476Y-80357142D01*
X14190476Y-80023809D01*
X14000000Y-80023809D01*
X14619047Y-79928571D02*
X14952380Y-79928571D01*
X15095238Y-80452380D02*
X14619047Y-80452380D01*
X14619047Y-79452380D01*
X15095238Y-79452380D01*
X141595238Y-80785714D02*
X141595238Y-81595238D01*
X141547619Y-81690476D01*
X141500000Y-81738095D01*
X141404761Y-81785714D01*
X141261904Y-81785714D01*
X141166666Y-81738095D01*
X141595238Y-81404761D02*
X141500000Y-81452380D01*
X141309523Y-81452380D01*
X141214285Y-81404761D01*
X141166666Y-81357142D01*
X141119047Y-81261904D01*
X141119047Y-80976190D01*
X141166666Y-80880952D01*
X141214285Y-80833333D01*
X141309523Y-80785714D01*
X141500000Y-80785714D01*
X141595238Y-80833333D01*
X142071428Y-81452380D02*
X142071428Y-80785714D01*
X142071428Y-80452380D02*
X142023809Y-80500000D01*
X142071428Y-80547619D01*
X142119047Y-80500000D01*
X142071428Y-80452380D01*
X142071428Y-80547619D01*
X142404761Y-80785714D02*
X142785714Y-80785714D01*
X142547619Y-80452380D02*
X142547619Y-81309523D01*
X142595238Y-81404761D01*
X142690476Y-81452380D01*
X142785714Y-81452380D01*
X143119047Y-81452380D02*
X143119047Y-80452380D01*
X143547619Y-81452380D02*
X143547619Y-80928571D01*
X143500000Y-80833333D01*
X143404761Y-80785714D01*
X143261904Y-80785714D01*
X143166666Y-80833333D01*
X143119047Y-80880952D01*
X144452380Y-80785714D02*
X144452380Y-81452380D01*
X144023809Y-80785714D02*
X144023809Y-81309523D01*
X144071428Y-81404761D01*
X144166666Y-81452380D01*
X144309523Y-81452380D01*
X144404761Y-81404761D01*
X144452380Y-81357142D01*
X144928571Y-81452380D02*
X144928571Y-80452380D01*
X144928571Y-80833333D02*
X145023809Y-80785714D01*
X145214285Y-80785714D01*
X145309523Y-80833333D01*
X145357142Y-80880952D01*
X145404761Y-80976190D01*
X145404761Y-81261904D01*
X145357142Y-81357142D01*
X145309523Y-81404761D01*
X145214285Y-81452380D01*
X145023809Y-81452380D01*
X144928571Y-81404761D01*
X145833333Y-81357142D02*
X145880952Y-81404761D01*
X145833333Y-81452380D01*
X145785714Y-81404761D01*
X145833333Y-81357142D01*
X145833333Y-81452380D01*
X146738095Y-81404761D02*
X146642857Y-81452380D01*
X146452380Y-81452380D01*
X146357142Y-81404761D01*
X146309523Y-81357142D01*
X146261904Y-81261904D01*
X146261904Y-80976190D01*
X146309523Y-80880952D01*
X146357142Y-80833333D01*
X146452380Y-80785714D01*
X146642857Y-80785714D01*
X146738095Y-80833333D01*
X147309523Y-81452380D02*
X147214285Y-81404761D01*
X147166666Y-81357142D01*
X147119047Y-81261904D01*
X147119047Y-80976190D01*
X147166666Y-80880952D01*
X147214285Y-80833333D01*
X147309523Y-80785714D01*
X147452380Y-80785714D01*
X147547619Y-80833333D01*
X147595238Y-80880952D01*
X147642857Y-80976190D01*
X147642857Y-81261904D01*
X147595238Y-81357142D01*
X147547619Y-81404761D01*
X147452380Y-81452380D01*
X147309523Y-81452380D01*
X148071428Y-81452380D02*
X148071428Y-80785714D01*
X148071428Y-80880952D02*
X148119047Y-80833333D01*
X148214285Y-80785714D01*
X148357142Y-80785714D01*
X148452380Y-80833333D01*
X148500000Y-80928571D01*
X148500000Y-81452380D01*
X148500000Y-80928571D02*
X148547619Y-80833333D01*
X148642857Y-80785714D01*
X148785714Y-80785714D01*
X148880952Y-80833333D01*
X148928571Y-80928571D01*
X148928571Y-81452380D01*
X150119047Y-80404761D02*
X149261904Y-81690476D01*
X150452380Y-81452380D02*
X150452380Y-80452380D01*
X150690476Y-80452380D01*
X150833333Y-80500000D01*
X150928571Y-80595238D01*
X150976190Y-80690476D01*
X151023809Y-80880952D01*
X151023809Y-81023809D01*
X150976190Y-81214285D01*
X150928571Y-81309523D01*
X150833333Y-81404761D01*
X150690476Y-81452380D01*
X150452380Y-81452380D01*
X151880952Y-81452380D02*
X151880952Y-80928571D01*
X151833333Y-80833333D01*
X151738095Y-80785714D01*
X151547619Y-80785714D01*
X151452380Y-80833333D01*
X151880952Y-81404761D02*
X151785714Y-81452380D01*
X151547619Y-81452380D01*
X151452380Y-81404761D01*
X151404761Y-81309523D01*
X151404761Y-81214285D01*
X151452380Y-81119047D01*
X151547619Y-81071428D01*
X151785714Y-81071428D01*
X151880952Y-81023809D01*
X152357142Y-80785714D02*
X152357142Y-81452380D01*
X152357142Y-80880952D02*
X152404761Y-80833333D01*
X152500000Y-80785714D01*
X152642857Y-80785714D01*
X152738095Y-80833333D01*
X152785714Y-80928571D01*
X152785714Y-81452380D01*
X153261904Y-81452380D02*
X153261904Y-80785714D01*
X153261904Y-80452380D02*
X153214285Y-80500000D01*
X153261904Y-80547619D01*
X153309523Y-80500000D01*
X153261904Y-80452380D01*
X153261904Y-80547619D01*
X154119047Y-81404761D02*
X154023809Y-81452380D01*
X153833333Y-81452380D01*
X153738095Y-81404761D01*
X153690476Y-81309523D01*
X153690476Y-80928571D01*
X153738095Y-80833333D01*
X153833333Y-80785714D01*
X154023809Y-80785714D01*
X154119047Y-80833333D01*
X154166666Y-80928571D01*
X154166666Y-81023809D01*
X153690476Y-81119047D01*
X154738095Y-81452380D02*
X154642857Y-81404761D01*
X154595238Y-81309523D01*
X154595238Y-80452380D01*
X155119047Y-81452380D02*
X155119047Y-80452380D01*
X155119047Y-80928571D02*
X155690476Y-80928571D01*
X155690476Y-81452380D02*
X155690476Y-80452380D01*
X156547619Y-81404761D02*
X156452380Y-81452380D01*
X156261904Y-81452380D01*
X156166666Y-81404761D01*
X156119047Y-81309523D01*
X156119047Y-80928571D01*
X156166666Y-80833333D01*
X156261904Y-80785714D01*
X156452380Y-80785714D01*
X156547619Y-80833333D01*
X156595238Y-80928571D01*
X156595238Y-81023809D01*
X156119047Y-81119047D01*
X157023809Y-80928571D02*
X157357142Y-80928571D01*
X157500000Y-81452380D02*
X157023809Y-81452380D01*
X157023809Y-80452380D01*
X157500000Y-80452380D01*
X158452380Y-80500000D02*
X158357142Y-80452380D01*
X158214285Y-80452380D01*
X158071428Y-80500000D01*
X157976190Y-80595238D01*
X157928571Y-80690476D01*
X157880952Y-80880952D01*
X157880952Y-81023809D01*
X157928571Y-81214285D01*
X157976190Y-81309523D01*
X158071428Y-81404761D01*
X158214285Y-81452380D01*
X158309523Y-81452380D01*
X158452380Y-81404761D01*
X158500000Y-81357142D01*
X158500000Y-81023809D01*
X158309523Y-81023809D01*
X159452380Y-80500000D02*
X159357142Y-80452380D01*
X159214285Y-80452380D01*
X159071428Y-80500000D01*
X158976190Y-80595238D01*
X158928571Y-80690476D01*
X158880952Y-80880952D01*
X158880952Y-81023809D01*
X158928571Y-81214285D01*
X158976190Y-81309523D01*
X159071428Y-81404761D01*
X159214285Y-81452380D01*
X159309523Y-81452380D01*
X159452380Y-81404761D01*
X159500000Y-81357142D01*
X159500000Y-81023809D01*
X159309523Y-81023809D01*
X160642857Y-80404761D02*
X159785714Y-81690476D01*
X160976190Y-81452380D02*
X160976190Y-80452380D01*
X161547619Y-81452380D01*
X161547619Y-80452380D01*
X162023809Y-81452380D02*
X162023809Y-80785714D01*
X162023809Y-80452380D02*
X161976190Y-80500000D01*
X162023809Y-80547619D01*
X162071428Y-80500000D01*
X162023809Y-80452380D01*
X162023809Y-80547619D01*
X162404761Y-81452380D02*
X162928571Y-80785714D01*
X162404761Y-80785714D02*
X162928571Y-81452380D01*
X163309523Y-81452380D02*
X163309523Y-80785714D01*
X163309523Y-80452380D02*
X163261904Y-80500000D01*
X163309523Y-80547619D01*
X163357142Y-80500000D01*
X163309523Y-80452380D01*
X163309523Y-80547619D01*
X164166666Y-81404761D02*
X164071428Y-81452380D01*
X163880952Y-81452380D01*
X163785714Y-81404761D01*
X163738095Y-81309523D01*
X163738095Y-80928571D01*
X163785714Y-80833333D01*
X163880952Y-80785714D01*
X164071428Y-80785714D01*
X164166666Y-80833333D01*
X164214285Y-80928571D01*
X164214285Y-81023809D01*
X163738095Y-81119047D01*
X164642857Y-81071428D02*
X165404761Y-81071428D01*
X166452380Y-81357142D02*
X166404761Y-81404761D01*
X166261904Y-81452380D01*
X166166666Y-81452380D01*
X166023809Y-81404761D01*
X165928571Y-81309523D01*
X165880952Y-81214285D01*
X165833333Y-81023809D01*
X165833333Y-80880952D01*
X165880952Y-80690476D01*
X165928571Y-80595238D01*
X166023809Y-80500000D01*
X166166666Y-80452380D01*
X166261904Y-80452380D01*
X166404761Y-80500000D01*
X166452380Y-80547619D01*
X167023809Y-81452380D02*
X166928571Y-81404761D01*
X166880952Y-81357142D01*
X166833333Y-81261904D01*
X166833333Y-80976190D01*
X166880952Y-80880952D01*
X166928571Y-80833333D01*
X167023809Y-80785714D01*
X167166666Y-80785714D01*
X167261904Y-80833333D01*
X167309523Y-80880952D01*
X167357142Y-80976190D01*
X167357142Y-81261904D01*
X167309523Y-81357142D01*
X167261904Y-81404761D01*
X167166666Y-81452380D01*
X167023809Y-81452380D01*
X167785714Y-80785714D02*
X167785714Y-81452380D01*
X167785714Y-80880952D02*
X167833333Y-80833333D01*
X167928571Y-80785714D01*
X168071428Y-80785714D01*
X168166666Y-80833333D01*
X168214285Y-80928571D01*
X168214285Y-81452380D01*
X168547619Y-80785714D02*
X168928571Y-80785714D01*
X168690476Y-80452380D02*
X168690476Y-81309523D01*
X168738095Y-81404761D01*
X168833333Y-81452380D01*
X168928571Y-81452380D01*
X169261904Y-81452380D02*
X169261904Y-80785714D01*
X169261904Y-80976190D02*
X169309523Y-80880952D01*
X169357142Y-80833333D01*
X169452380Y-80785714D01*
X169547619Y-80785714D01*
X170023809Y-81452380D02*
X169928571Y-81404761D01*
X169880952Y-81357142D01*
X169833333Y-81261904D01*
X169833333Y-80976190D01*
X169880952Y-80880952D01*
X169928571Y-80833333D01*
X170023809Y-80785714D01*
X170166666Y-80785714D01*
X170261904Y-80833333D01*
X170309523Y-80880952D01*
X170357142Y-80976190D01*
X170357142Y-81261904D01*
X170309523Y-81357142D01*
X170261904Y-81404761D01*
X170166666Y-81452380D01*
X170023809Y-81452380D01*
X170928571Y-81452380D02*
X170833333Y-81404761D01*
X170785714Y-81309523D01*
X170785714Y-80452380D01*
X171452380Y-81452380D02*
X171357142Y-81404761D01*
X171309523Y-81309523D01*
X171309523Y-80452380D01*
X172214285Y-81404761D02*
X172119047Y-81452380D01*
X171928571Y-81452380D01*
X171833333Y-81404761D01*
X171785714Y-81309523D01*
X171785714Y-80928571D01*
X171833333Y-80833333D01*
X171928571Y-80785714D01*
X172119047Y-80785714D01*
X172214285Y-80833333D01*
X172261904Y-80928571D01*
X172261904Y-81023809D01*
X171785714Y-81119047D01*
X172690476Y-81452380D02*
X172690476Y-80785714D01*
X172690476Y-80976190D02*
X172738095Y-80880952D01*
X172785714Y-80833333D01*
X172880952Y-80785714D01*
X172976190Y-80785714D01*
D11*
X136678571Y-79678571D02*
X136678571Y-78178571D01*
X136678571Y-78892857D02*
X137535714Y-78892857D01*
X137535714Y-79678571D02*
X137535714Y-78178571D01*
X138821428Y-79607142D02*
X138678571Y-79678571D01*
X138392857Y-79678571D01*
X138250000Y-79607142D01*
X138178571Y-79464285D01*
X138178571Y-78892857D01*
X138250000Y-78750000D01*
X138392857Y-78678571D01*
X138678571Y-78678571D01*
X138821428Y-78750000D01*
X138892857Y-78892857D01*
X138892857Y-79035714D01*
X138178571Y-79178571D01*
X139392857Y-79678571D02*
X140178571Y-78678571D01*
X139392857Y-78678571D02*
X140178571Y-79678571D01*
X141892857Y-79678571D02*
X141892857Y-78178571D01*
X142607142Y-79678571D02*
X142607142Y-78178571D01*
X143464285Y-79678571D01*
X143464285Y-78178571D01*
X144178571Y-79107142D02*
X145321428Y-79107142D01*
X146821428Y-79678571D02*
X145964285Y-79678571D01*
X146392857Y-79678571D02*
X146392857Y-78178571D01*
X146250000Y-78392857D01*
X146107142Y-78535714D01*
X145964285Y-78607142D01*
X147678571Y-78821428D02*
X147535714Y-78750000D01*
X147464285Y-78678571D01*
X147392857Y-78535714D01*
X147392857Y-78464285D01*
X147464285Y-78321428D01*
X147535714Y-78250000D01*
X147678571Y-78178571D01*
X147964285Y-78178571D01*
X148107142Y-78250000D01*
X148178571Y-78321428D01*
X148250000Y-78464285D01*
X148250000Y-78535714D01*
X148178571Y-78678571D01*
X148107142Y-78750000D01*
X147964285Y-78821428D01*
X147678571Y-78821428D01*
X147535714Y-78892857D01*
X147464285Y-78964285D01*
X147392857Y-79107142D01*
X147392857Y-79392857D01*
X147464285Y-79535714D01*
X147535714Y-79607142D01*
X147678571Y-79678571D01*
X147964285Y-79678571D01*
X148107142Y-79607142D01*
X148178571Y-79535714D01*
X148250000Y-79392857D01*
X148250000Y-79107142D01*
X148178571Y-78964285D01*
X148107142Y-78892857D01*
X147964285Y-78821428D01*
X150035714Y-79678571D02*
X150035714Y-78178571D01*
X150892857Y-79678571D01*
X150892857Y-78178571D01*
X151607142Y-79678571D02*
X151607142Y-78678571D01*
X151607142Y-78178571D02*
X151535714Y-78250000D01*
X151607142Y-78321428D01*
X151678571Y-78250000D01*
X151607142Y-78178571D01*
X151607142Y-78321428D01*
X152178571Y-79678571D02*
X152964285Y-78678571D01*
X152178571Y-78678571D02*
X152964285Y-79678571D01*
X153535714Y-79678571D02*
X153535714Y-78678571D01*
X153535714Y-78178571D02*
X153464285Y-78250000D01*
X153535714Y-78321428D01*
X153607142Y-78250000D01*
X153535714Y-78178571D01*
X153535714Y-78321428D01*
X154821428Y-79607142D02*
X154678571Y-79678571D01*
X154392857Y-79678571D01*
X154250000Y-79607142D01*
X154178571Y-79464285D01*
X154178571Y-78892857D01*
X154250000Y-78750000D01*
X154392857Y-78678571D01*
X154678571Y-78678571D01*
X154821428Y-78750000D01*
X154892857Y-78892857D01*
X154892857Y-79035714D01*
X154178571Y-79178571D01*
X156464285Y-78178571D02*
X157321428Y-78178571D01*
X156892857Y-79678571D02*
X156892857Y-78178571D01*
X158464285Y-78678571D02*
X158464285Y-79678571D01*
X157821428Y-78678571D02*
X157821428Y-79464285D01*
X157892857Y-79607142D01*
X158035714Y-79678571D01*
X158250000Y-79678571D01*
X158392857Y-79607142D01*
X158464285Y-79535714D01*
X159178571Y-79678571D02*
X159178571Y-78178571D01*
X159178571Y-78750000D02*
X159321428Y-78678571D01*
X159607142Y-78678571D01*
X159750000Y-78750000D01*
X159821428Y-78821428D01*
X159892857Y-78964285D01*
X159892857Y-79392857D01*
X159821428Y-79535714D01*
X159750000Y-79607142D01*
X159607142Y-79678571D01*
X159321428Y-79678571D01*
X159178571Y-79607142D01*
X161107142Y-79607142D02*
X160964285Y-79678571D01*
X160678571Y-79678571D01*
X160535714Y-79607142D01*
X160464285Y-79464285D01*
X160464285Y-78892857D01*
X160535714Y-78750000D01*
X160678571Y-78678571D01*
X160964285Y-78678571D01*
X161107142Y-78750000D01*
X161178571Y-78892857D01*
X161178571Y-79035714D01*
X160464285Y-79178571D01*
X162892857Y-79607142D02*
X163107142Y-79678571D01*
X163464285Y-79678571D01*
X163607142Y-79607142D01*
X163678571Y-79535714D01*
X163750000Y-79392857D01*
X163750000Y-79250000D01*
X163678571Y-79107142D01*
X163607142Y-79035714D01*
X163464285Y-78964285D01*
X163178571Y-78892857D01*
X163035714Y-78821428D01*
X162964285Y-78750000D01*
X162892857Y-78607142D01*
X162892857Y-78464285D01*
X162964285Y-78321428D01*
X163035714Y-78250000D01*
X163178571Y-78178571D01*
X163535714Y-78178571D01*
X163750000Y-78250000D01*
X164607142Y-79678571D02*
X164464285Y-79607142D01*
X164392857Y-79535714D01*
X164321428Y-79392857D01*
X164321428Y-78964285D01*
X164392857Y-78821428D01*
X164464285Y-78750000D01*
X164607142Y-78678571D01*
X164821428Y-78678571D01*
X164964285Y-78750000D01*
X165035714Y-78821428D01*
X165107142Y-78964285D01*
X165107142Y-79392857D01*
X165035714Y-79535714D01*
X164964285Y-79607142D01*
X164821428Y-79678571D01*
X164607142Y-79678571D01*
X166392857Y-79607142D02*
X166250000Y-79678571D01*
X165964285Y-79678571D01*
X165821428Y-79607142D01*
X165750000Y-79535714D01*
X165678571Y-79392857D01*
X165678571Y-78964285D01*
X165750000Y-78821428D01*
X165821428Y-78750000D01*
X165964285Y-78678571D01*
X166250000Y-78678571D01*
X166392857Y-78750000D01*
X167035714Y-79678571D02*
X167035714Y-78178571D01*
X167178571Y-79107142D02*
X167607142Y-79678571D01*
X167607142Y-78678571D02*
X167035714Y-79250000D01*
X168821428Y-79607142D02*
X168678571Y-79678571D01*
X168392857Y-79678571D01*
X168250000Y-79607142D01*
X168178571Y-79464285D01*
X168178571Y-78892857D01*
X168250000Y-78750000D01*
X168392857Y-78678571D01*
X168678571Y-78678571D01*
X168821428Y-78750000D01*
X168892857Y-78892857D01*
X168892857Y-79035714D01*
X168178571Y-79178571D01*
X169321428Y-78678571D02*
X169892857Y-78678571D01*
X169535714Y-78178571D02*
X169535714Y-79464285D01*
X169607142Y-79607142D01*
X169750000Y-79678571D01*
X169892857Y-79678571D01*
X172035714Y-78892857D02*
X172250000Y-78964285D01*
X172321428Y-79035714D01*
X172392857Y-79178571D01*
X172392857Y-79392857D01*
X172321428Y-79535714D01*
X172250000Y-79607142D01*
X172107142Y-79678571D01*
X171535714Y-79678571D01*
X171535714Y-78178571D01*
X172035714Y-78178571D01*
X172178571Y-78250000D01*
X172250000Y-78321428D01*
X172321428Y-78464285D01*
X172321428Y-78607142D01*
X172250000Y-78750000D01*
X172178571Y-78821428D01*
X172035714Y-78892857D01*
X171535714Y-78892857D01*
X173250000Y-79678571D02*
X173107142Y-79607142D01*
X173035714Y-79535714D01*
X172964285Y-79392857D01*
X172964285Y-78964285D01*
X173035714Y-78821428D01*
X173107142Y-78750000D01*
X173250000Y-78678571D01*
X173464285Y-78678571D01*
X173607142Y-78750000D01*
X173678571Y-78821428D01*
X173750000Y-78964285D01*
X173750000Y-79392857D01*
X173678571Y-79535714D01*
X173607142Y-79607142D01*
X173464285Y-79678571D01*
X173250000Y-79678571D01*
X175035714Y-79678571D02*
X175035714Y-78892857D01*
X174964285Y-78750000D01*
X174821428Y-78678571D01*
X174535714Y-78678571D01*
X174392857Y-78750000D01*
X175035714Y-79607142D02*
X174892857Y-79678571D01*
X174535714Y-79678571D01*
X174392857Y-79607142D01*
X174321428Y-79464285D01*
X174321428Y-79321428D01*
X174392857Y-79178571D01*
X174535714Y-79107142D01*
X174892857Y-79107142D01*
X175035714Y-79035714D01*
X175750000Y-79678571D02*
X175750000Y-78678571D01*
X175750000Y-78964285D02*
X175821428Y-78821428D01*
X175892857Y-78750000D01*
X176035714Y-78678571D01*
X176178571Y-78678571D01*
X177321428Y-79678571D02*
X177321428Y-78178571D01*
X177321428Y-79607142D02*
X177178571Y-79678571D01*
X176892857Y-79678571D01*
X176750000Y-79607142D01*
X176678571Y-79535714D01*
X176607142Y-79392857D01*
X176607142Y-78964285D01*
X176678571Y-78821428D01*
X176750000Y-78750000D01*
X176892857Y-78678571D01*
X177178571Y-78678571D01*
X177321428Y-78750000D01*
D12*
%TO.C,REF\u002A\u002A*%
X5301000Y-78794000D02*
X10000000Y-71809000D01*
X14699000Y-78794000D02*
X5301000Y-78794000D01*
X10000000Y-71809000D02*
X14699000Y-78794000D01*
X9502160Y-78199640D02*
X9400560Y-77300480D01*
X10299720Y-75400560D02*
X9502160Y-78199640D01*
X9100840Y-76200660D02*
X10299720Y-75400560D01*
X9900940Y-73200920D02*
X9100840Y-76200660D01*
X9502160Y-78199640D02*
X10101600Y-77501140D01*
X9100840Y-76200660D02*
X10401320Y-73399040D01*
X10701040Y-75100840D02*
X10101600Y-75499620D01*
X9502160Y-78199640D02*
X10701040Y-75100840D01*
D13*
G36*
X181599744Y-81919918D02*
G01*
X181655201Y-81947568D01*
X181704148Y-81998480D01*
X181717629Y-82017338D01*
X181732314Y-82042015D01*
X181741842Y-82068816D01*
X181747293Y-82104587D01*
X181749747Y-82156169D01*
X181750286Y-82224267D01*
X181747852Y-82317588D01*
X181739394Y-82387657D01*
X181723174Y-82439931D01*
X181697454Y-82479869D01*
X181660497Y-82512929D01*
X181657782Y-82514886D01*
X181621360Y-82534908D01*
X181577502Y-82544815D01*
X181521724Y-82547257D01*
X181431048Y-82547257D01*
X181431010Y-82635283D01*
X181430166Y-82684308D01*
X181425024Y-82713065D01*
X181411587Y-82730311D01*
X181385858Y-82744808D01*
X181379679Y-82747769D01*
X181350764Y-82761648D01*
X181328376Y-82770414D01*
X181311729Y-82771171D01*
X181300036Y-82761023D01*
X181292510Y-82737073D01*
X181288366Y-82696426D01*
X181286815Y-82636186D01*
X181287071Y-82553455D01*
X181288349Y-82445339D01*
X181288748Y-82413000D01*
X181290185Y-82301524D01*
X181291472Y-82228603D01*
X181430971Y-82228603D01*
X181431755Y-82290499D01*
X181435240Y-82330997D01*
X181443124Y-82357708D01*
X181457105Y-82378244D01*
X181466597Y-82388260D01*
X181505404Y-82417567D01*
X181539763Y-82419952D01*
X181575216Y-82395750D01*
X181576114Y-82394857D01*
X181590539Y-82376153D01*
X181599313Y-82350732D01*
X181603739Y-82311584D01*
X181605118Y-82251697D01*
X181605143Y-82238430D01*
X181601812Y-82155901D01*
X181590969Y-82098691D01*
X181571340Y-82063766D01*
X181541650Y-82048094D01*
X181524491Y-82046514D01*
X181483766Y-82053926D01*
X181455832Y-82078330D01*
X181439017Y-82122980D01*
X181431650Y-82191130D01*
X181430971Y-82228603D01*
X181291472Y-82228603D01*
X181291708Y-82215245D01*
X181293677Y-82150333D01*
X181296450Y-82102958D01*
X181300388Y-82069290D01*
X181305849Y-82045498D01*
X181313192Y-82027753D01*
X181322777Y-82012224D01*
X181326887Y-82006381D01*
X181381405Y-81951185D01*
X181450336Y-81919890D01*
X181530072Y-81911165D01*
X181599744Y-81919918D01*
G37*
X181599744Y-81919918D02*
X181655201Y-81947568D01*
X181704148Y-81998480D01*
X181717629Y-82017338D01*
X181732314Y-82042015D01*
X181741842Y-82068816D01*
X181747293Y-82104587D01*
X181749747Y-82156169D01*
X181750286Y-82224267D01*
X181747852Y-82317588D01*
X181739394Y-82387657D01*
X181723174Y-82439931D01*
X181697454Y-82479869D01*
X181660497Y-82512929D01*
X181657782Y-82514886D01*
X181621360Y-82534908D01*
X181577502Y-82544815D01*
X181521724Y-82547257D01*
X181431048Y-82547257D01*
X181431010Y-82635283D01*
X181430166Y-82684308D01*
X181425024Y-82713065D01*
X181411587Y-82730311D01*
X181385858Y-82744808D01*
X181379679Y-82747769D01*
X181350764Y-82761648D01*
X181328376Y-82770414D01*
X181311729Y-82771171D01*
X181300036Y-82761023D01*
X181292510Y-82737073D01*
X181288366Y-82696426D01*
X181286815Y-82636186D01*
X181287071Y-82553455D01*
X181288349Y-82445339D01*
X181288748Y-82413000D01*
X181290185Y-82301524D01*
X181291472Y-82228603D01*
X181430971Y-82228603D01*
X181431755Y-82290499D01*
X181435240Y-82330997D01*
X181443124Y-82357708D01*
X181457105Y-82378244D01*
X181466597Y-82388260D01*
X181505404Y-82417567D01*
X181539763Y-82419952D01*
X181575216Y-82395750D01*
X181576114Y-82394857D01*
X181590539Y-82376153D01*
X181599313Y-82350732D01*
X181603739Y-82311584D01*
X181605118Y-82251697D01*
X181605143Y-82238430D01*
X181601812Y-82155901D01*
X181590969Y-82098691D01*
X181571340Y-82063766D01*
X181541650Y-82048094D01*
X181524491Y-82046514D01*
X181483766Y-82053926D01*
X181455832Y-82078330D01*
X181439017Y-82122980D01*
X181431650Y-82191130D01*
X181430971Y-82228603D01*
X181291472Y-82228603D01*
X181291708Y-82215245D01*
X181293677Y-82150333D01*
X181296450Y-82102958D01*
X181300388Y-82069290D01*
X181305849Y-82045498D01*
X181313192Y-82027753D01*
X181322777Y-82012224D01*
X181326887Y-82006381D01*
X181381405Y-81951185D01*
X181450336Y-81919890D01*
X181530072Y-81911165D01*
X181599744Y-81919918D01*
G36*
X182716093Y-81927780D02*
G01*
X182762672Y-81954723D01*
X182795057Y-81981466D01*
X182818742Y-82009484D01*
X182835059Y-82043748D01*
X182845339Y-82089227D01*
X182850914Y-82150892D01*
X182853116Y-82233711D01*
X182853371Y-82293246D01*
X182853371Y-82512391D01*
X182791686Y-82540044D01*
X182730000Y-82567697D01*
X182722743Y-82327670D01*
X182719744Y-82238028D01*
X182716598Y-82172962D01*
X182712701Y-82128026D01*
X182707447Y-82098770D01*
X182700231Y-82080748D01*
X182690450Y-82069511D01*
X182687312Y-82067079D01*
X182639761Y-82048083D01*
X182591697Y-82055600D01*
X182563086Y-82075543D01*
X182551447Y-82089675D01*
X182543391Y-82108220D01*
X182538271Y-82136334D01*
X182535441Y-82179173D01*
X182534256Y-82241895D01*
X182534057Y-82307261D01*
X182534018Y-82389268D01*
X182532614Y-82447316D01*
X182527914Y-82486465D01*
X182517987Y-82511780D01*
X182500903Y-82528323D01*
X182474732Y-82541156D01*
X182439775Y-82554491D01*
X182401596Y-82569007D01*
X182406141Y-82311389D01*
X182407971Y-82218519D01*
X182410112Y-82149889D01*
X182413181Y-82100711D01*
X182417794Y-82066198D01*
X182424568Y-82041562D01*
X182434119Y-82022016D01*
X182445634Y-82004770D01*
X182501190Y-81949680D01*
X182568980Y-81917822D01*
X182642713Y-81910191D01*
X182716093Y-81927780D01*
G37*
X182716093Y-81927780D02*
X182762672Y-81954723D01*
X182795057Y-81981466D01*
X182818742Y-82009484D01*
X182835059Y-82043748D01*
X182845339Y-82089227D01*
X182850914Y-82150892D01*
X182853116Y-82233711D01*
X182853371Y-82293246D01*
X182853371Y-82512391D01*
X182791686Y-82540044D01*
X182730000Y-82567697D01*
X182722743Y-82327670D01*
X182719744Y-82238028D01*
X182716598Y-82172962D01*
X182712701Y-82128026D01*
X182707447Y-82098770D01*
X182700231Y-82080748D01*
X182690450Y-82069511D01*
X182687312Y-82067079D01*
X182639761Y-82048083D01*
X182591697Y-82055600D01*
X182563086Y-82075543D01*
X182551447Y-82089675D01*
X182543391Y-82108220D01*
X182538271Y-82136334D01*
X182535441Y-82179173D01*
X182534256Y-82241895D01*
X182534057Y-82307261D01*
X182534018Y-82389268D01*
X182532614Y-82447316D01*
X182527914Y-82486465D01*
X182517987Y-82511780D01*
X182500903Y-82528323D01*
X182474732Y-82541156D01*
X182439775Y-82554491D01*
X182401596Y-82569007D01*
X182406141Y-82311389D01*
X182407971Y-82218519D01*
X182410112Y-82149889D01*
X182413181Y-82100711D01*
X182417794Y-82066198D01*
X182424568Y-82041562D01*
X182434119Y-82022016D01*
X182445634Y-82004770D01*
X182501190Y-81949680D01*
X182568980Y-81917822D01*
X182642713Y-81910191D01*
X182716093Y-81927780D01*
G36*
X181041115Y-81921962D02*
G01*
X181109145Y-81957733D01*
X181159351Y-82015301D01*
X181177185Y-82052312D01*
X181191063Y-82107882D01*
X181198167Y-82178096D01*
X181198840Y-82254727D01*
X181193427Y-82329552D01*
X181182270Y-82394342D01*
X181165714Y-82440873D01*
X181160626Y-82448887D01*
X181100355Y-82508707D01*
X181028769Y-82544535D01*
X180951092Y-82555020D01*
X180872548Y-82538810D01*
X180850689Y-82529092D01*
X180808122Y-82499143D01*
X180770763Y-82459433D01*
X180767232Y-82454397D01*
X180752881Y-82430124D01*
X180743394Y-82404178D01*
X180737790Y-82370022D01*
X180735086Y-82321119D01*
X180734299Y-82250935D01*
X180734286Y-82235200D01*
X180734322Y-82230192D01*
X180879429Y-82230192D01*
X180880273Y-82296430D01*
X180883596Y-82340386D01*
X180890583Y-82368779D01*
X180902416Y-82388325D01*
X180908457Y-82394857D01*
X180943186Y-82419680D01*
X180976903Y-82418548D01*
X181010995Y-82397016D01*
X181031329Y-82374029D01*
X181043371Y-82340478D01*
X181050134Y-82287569D01*
X181050598Y-82281399D01*
X181051752Y-82185513D01*
X181039688Y-82114299D01*
X181014570Y-82068194D01*
X180976560Y-82047635D01*
X180962992Y-82046514D01*
X180927364Y-82052152D01*
X180902994Y-82071686D01*
X180888093Y-82109042D01*
X180880875Y-82168150D01*
X180879429Y-82230192D01*
X180734322Y-82230192D01*
X180734826Y-82160413D01*
X180737096Y-82108159D01*
X180742068Y-82071949D01*
X180750713Y-82045299D01*
X180764005Y-82021722D01*
X180766943Y-82017338D01*
X180816313Y-81958249D01*
X180870109Y-81923947D01*
X180935602Y-81910331D01*
X180957842Y-81909665D01*
X181041115Y-81921962D01*
G37*
X181041115Y-81921962D02*
X181109145Y-81957733D01*
X181159351Y-82015301D01*
X181177185Y-82052312D01*
X181191063Y-82107882D01*
X181198167Y-82178096D01*
X181198840Y-82254727D01*
X181193427Y-82329552D01*
X181182270Y-82394342D01*
X181165714Y-82440873D01*
X181160626Y-82448887D01*
X181100355Y-82508707D01*
X181028769Y-82544535D01*
X180951092Y-82555020D01*
X180872548Y-82538810D01*
X180850689Y-82529092D01*
X180808122Y-82499143D01*
X180770763Y-82459433D01*
X180767232Y-82454397D01*
X180752881Y-82430124D01*
X180743394Y-82404178D01*
X180737790Y-82370022D01*
X180735086Y-82321119D01*
X180734299Y-82250935D01*
X180734286Y-82235200D01*
X180734322Y-82230192D01*
X180879429Y-82230192D01*
X180880273Y-82296430D01*
X180883596Y-82340386D01*
X180890583Y-82368779D01*
X180902416Y-82388325D01*
X180908457Y-82394857D01*
X180943186Y-82419680D01*
X180976903Y-82418548D01*
X181010995Y-82397016D01*
X181031329Y-82374029D01*
X181043371Y-82340478D01*
X181050134Y-82287569D01*
X181050598Y-82281399D01*
X181051752Y-82185513D01*
X181039688Y-82114299D01*
X181014570Y-82068194D01*
X180976560Y-82047635D01*
X180962992Y-82046514D01*
X180927364Y-82052152D01*
X180902994Y-82071686D01*
X180888093Y-82109042D01*
X180880875Y-82168150D01*
X180879429Y-82230192D01*
X180734322Y-82230192D01*
X180734826Y-82160413D01*
X180737096Y-82108159D01*
X180742068Y-82071949D01*
X180750713Y-82045299D01*
X180764005Y-82021722D01*
X180766943Y-82017338D01*
X180816313Y-81958249D01*
X180870109Y-81923947D01*
X180935602Y-81910331D01*
X180957842Y-81909665D01*
X181041115Y-81921962D01*
G36*
X182168303Y-81931239D02*
G01*
X182225527Y-81969735D01*
X182269749Y-82025335D01*
X182296167Y-82096086D01*
X182301510Y-82148162D01*
X182300903Y-82169893D01*
X182295822Y-82186531D01*
X182281855Y-82201437D01*
X182254589Y-82217973D01*
X182209612Y-82239498D01*
X182142511Y-82269374D01*
X182142171Y-82269524D01*
X182080407Y-82297813D01*
X182029759Y-82322933D01*
X181995404Y-82342179D01*
X181982518Y-82352848D01*
X181982514Y-82352934D01*
X181993872Y-82376166D01*
X182020431Y-82401774D01*
X182050923Y-82420221D01*
X182066370Y-82423886D01*
X182108515Y-82411212D01*
X182144808Y-82379471D01*
X182162517Y-82344572D01*
X182179552Y-82318845D01*
X182212922Y-82289546D01*
X182252149Y-82264235D01*
X182286756Y-82250471D01*
X182293993Y-82249714D01*
X182302139Y-82262160D01*
X182302630Y-82293972D01*
X182296643Y-82336866D01*
X182285357Y-82382558D01*
X182269950Y-82422761D01*
X182269171Y-82424322D01*
X182222804Y-82489062D01*
X182162711Y-82533097D01*
X182094465Y-82554711D01*
X182023638Y-82552185D01*
X181955804Y-82523804D01*
X181952788Y-82521808D01*
X181899427Y-82473448D01*
X181864340Y-82410352D01*
X181844922Y-82327387D01*
X181842316Y-82304078D01*
X181837701Y-82194055D01*
X181843233Y-82142748D01*
X181982514Y-82142748D01*
X181984324Y-82174753D01*
X181994222Y-82184093D01*
X182018898Y-82177105D01*
X182057795Y-82160587D01*
X182101275Y-82139881D01*
X182102356Y-82139333D01*
X182139209Y-82119949D01*
X182154000Y-82107013D01*
X182150353Y-82093451D01*
X182134995Y-82075632D01*
X182095923Y-82049845D01*
X182053846Y-82047950D01*
X182016103Y-82066717D01*
X181990034Y-82102915D01*
X181982514Y-82142748D01*
X181843233Y-82142748D01*
X181847194Y-82106027D01*
X181871550Y-82036212D01*
X181905456Y-81987302D01*
X181966653Y-81937878D01*
X182034063Y-81913359D01*
X182102880Y-81911797D01*
X182168303Y-81931239D01*
G37*
X182168303Y-81931239D02*
X182225527Y-81969735D01*
X182269749Y-82025335D01*
X182296167Y-82096086D01*
X182301510Y-82148162D01*
X182300903Y-82169893D01*
X182295822Y-82186531D01*
X182281855Y-82201437D01*
X182254589Y-82217973D01*
X182209612Y-82239498D01*
X182142511Y-82269374D01*
X182142171Y-82269524D01*
X182080407Y-82297813D01*
X182029759Y-82322933D01*
X181995404Y-82342179D01*
X181982518Y-82352848D01*
X181982514Y-82352934D01*
X181993872Y-82376166D01*
X182020431Y-82401774D01*
X182050923Y-82420221D01*
X182066370Y-82423886D01*
X182108515Y-82411212D01*
X182144808Y-82379471D01*
X182162517Y-82344572D01*
X182179552Y-82318845D01*
X182212922Y-82289546D01*
X182252149Y-82264235D01*
X182286756Y-82250471D01*
X182293993Y-82249714D01*
X182302139Y-82262160D01*
X182302630Y-82293972D01*
X182296643Y-82336866D01*
X182285357Y-82382558D01*
X182269950Y-82422761D01*
X182269171Y-82424322D01*
X182222804Y-82489062D01*
X182162711Y-82533097D01*
X182094465Y-82554711D01*
X182023638Y-82552185D01*
X181955804Y-82523804D01*
X181952788Y-82521808D01*
X181899427Y-82473448D01*
X181864340Y-82410352D01*
X181844922Y-82327387D01*
X181842316Y-82304078D01*
X181837701Y-82194055D01*
X181843233Y-82142748D01*
X181982514Y-82142748D01*
X181984324Y-82174753D01*
X181994222Y-82184093D01*
X182018898Y-82177105D01*
X182057795Y-82160587D01*
X182101275Y-82139881D01*
X182102356Y-82139333D01*
X182139209Y-82119949D01*
X182154000Y-82107013D01*
X182150353Y-82093451D01*
X182134995Y-82075632D01*
X182095923Y-82049845D01*
X182053846Y-82047950D01*
X182016103Y-82066717D01*
X181990034Y-82102915D01*
X181982514Y-82142748D01*
X181843233Y-82142748D01*
X181847194Y-82106027D01*
X181871550Y-82036212D01*
X181905456Y-81987302D01*
X181966653Y-81937878D01*
X182034063Y-81913359D01*
X182102880Y-81911797D01*
X182168303Y-81931239D01*
G36*
X183375886Y-81851289D02*
G01*
X183380139Y-81910613D01*
X183385025Y-81945572D01*
X183391795Y-81960820D01*
X183401702Y-81961015D01*
X183404914Y-81959195D01*
X183447644Y-81946015D01*
X183503227Y-81946785D01*
X183559737Y-81960333D01*
X183595082Y-81977861D01*
X183631321Y-82005861D01*
X183657813Y-82037549D01*
X183675999Y-82077813D01*
X183687322Y-82131543D01*
X183693222Y-82203626D01*
X183695143Y-82298951D01*
X183695177Y-82317237D01*
X183695200Y-82522646D01*
X183649491Y-82538580D01*
X183617027Y-82549420D01*
X183599215Y-82554468D01*
X183598691Y-82554514D01*
X183596937Y-82540828D01*
X183595444Y-82503076D01*
X183594326Y-82446224D01*
X183593697Y-82375234D01*
X183593600Y-82332073D01*
X183593398Y-82246973D01*
X183592358Y-82185981D01*
X183589831Y-82144177D01*
X183585164Y-82116642D01*
X183577707Y-82098456D01*
X183566811Y-82084698D01*
X183560007Y-82078073D01*
X183513272Y-82051375D01*
X183462272Y-82049375D01*
X183416001Y-82071955D01*
X183407444Y-82080107D01*
X183394893Y-82095436D01*
X183386188Y-82113618D01*
X183380631Y-82139909D01*
X183377526Y-82179562D01*
X183376176Y-82237832D01*
X183375886Y-82318173D01*
X183375886Y-82522646D01*
X183330177Y-82538580D01*
X183297713Y-82549420D01*
X183279901Y-82554468D01*
X183279377Y-82554514D01*
X183278037Y-82540623D01*
X183276828Y-82501439D01*
X183275801Y-82440700D01*
X183275002Y-82362141D01*
X183274481Y-82269498D01*
X183274286Y-82166509D01*
X183274286Y-81769342D01*
X183321457Y-81749444D01*
X183368629Y-81729547D01*
X183375886Y-81851289D01*
G37*
X183375886Y-81851289D02*
X183380139Y-81910613D01*
X183385025Y-81945572D01*
X183391795Y-81960820D01*
X183401702Y-81961015D01*
X183404914Y-81959195D01*
X183447644Y-81946015D01*
X183503227Y-81946785D01*
X183559737Y-81960333D01*
X183595082Y-81977861D01*
X183631321Y-82005861D01*
X183657813Y-82037549D01*
X183675999Y-82077813D01*
X183687322Y-82131543D01*
X183693222Y-82203626D01*
X183695143Y-82298951D01*
X183695177Y-82317237D01*
X183695200Y-82522646D01*
X183649491Y-82538580D01*
X183617027Y-82549420D01*
X183599215Y-82554468D01*
X183598691Y-82554514D01*
X183596937Y-82540828D01*
X183595444Y-82503076D01*
X183594326Y-82446224D01*
X183593697Y-82375234D01*
X183593600Y-82332073D01*
X183593398Y-82246973D01*
X183592358Y-82185981D01*
X183589831Y-82144177D01*
X183585164Y-82116642D01*
X183577707Y-82098456D01*
X183566811Y-82084698D01*
X183560007Y-82078073D01*
X183513272Y-82051375D01*
X183462272Y-82049375D01*
X183416001Y-82071955D01*
X183407444Y-82080107D01*
X183394893Y-82095436D01*
X183386188Y-82113618D01*
X183380631Y-82139909D01*
X183377526Y-82179562D01*
X183376176Y-82237832D01*
X183375886Y-82318173D01*
X183375886Y-82522646D01*
X183330177Y-82538580D01*
X183297713Y-82549420D01*
X183279901Y-82554468D01*
X183279377Y-82554514D01*
X183278037Y-82540623D01*
X183276828Y-82501439D01*
X183275801Y-82440700D01*
X183275002Y-82362141D01*
X183274481Y-82269498D01*
X183274286Y-82166509D01*
X183274286Y-81769342D01*
X183321457Y-81749444D01*
X183368629Y-81729547D01*
X183375886Y-81851289D01*
G36*
X184039744Y-81950968D02*
G01*
X184096616Y-81972087D01*
X184097267Y-81972493D01*
X184132440Y-81998380D01*
X184158407Y-82028633D01*
X184176670Y-82068058D01*
X184188732Y-82121462D01*
X184196096Y-82193651D01*
X184200264Y-82289432D01*
X184200629Y-82303078D01*
X184205876Y-82508842D01*
X184161716Y-82531678D01*
X184129763Y-82547110D01*
X184110470Y-82554423D01*
X184109578Y-82554514D01*
X184106239Y-82541022D01*
X184103587Y-82504626D01*
X184101956Y-82451452D01*
X184101600Y-82408393D01*
X184101592Y-82338641D01*
X184098403Y-82294837D01*
X184087288Y-82273944D01*
X184063501Y-82272925D01*
X184022296Y-82288741D01*
X183960086Y-82317815D01*
X183914341Y-82341963D01*
X183890813Y-82362913D01*
X183883896Y-82385747D01*
X183883886Y-82386877D01*
X183895299Y-82426212D01*
X183929092Y-82447462D01*
X183980809Y-82450539D01*
X184018061Y-82450006D01*
X184037703Y-82460735D01*
X184049952Y-82486505D01*
X184057002Y-82519337D01*
X184046842Y-82537966D01*
X184043017Y-82540632D01*
X184007001Y-82551340D01*
X183956566Y-82552856D01*
X183904626Y-82545759D01*
X183867822Y-82532788D01*
X183816938Y-82489585D01*
X183788014Y-82429446D01*
X183782286Y-82382462D01*
X183786657Y-82340082D01*
X183802475Y-82305488D01*
X183833797Y-82274763D01*
X183884678Y-82243990D01*
X183959176Y-82209252D01*
X183963714Y-82207288D01*
X184030821Y-82176287D01*
X184072232Y-82150862D01*
X184089981Y-82128014D01*
X184086107Y-82104745D01*
X184062643Y-82078056D01*
X184055627Y-82071914D01*
X184008630Y-82048100D01*
X183959933Y-82049103D01*
X183917522Y-82072451D01*
X183889384Y-82115675D01*
X183886769Y-82124160D01*
X183861308Y-82165308D01*
X183829001Y-82185128D01*
X183782286Y-82204770D01*
X183782286Y-82153950D01*
X183796496Y-82080082D01*
X183838675Y-82012327D01*
X183860624Y-81989661D01*
X183910517Y-81960569D01*
X183973967Y-81947400D01*
X184039744Y-81950968D01*
G37*
X184039744Y-81950968D02*
X184096616Y-81972087D01*
X184097267Y-81972493D01*
X184132440Y-81998380D01*
X184158407Y-82028633D01*
X184176670Y-82068058D01*
X184188732Y-82121462D01*
X184196096Y-82193651D01*
X184200264Y-82289432D01*
X184200629Y-82303078D01*
X184205876Y-82508842D01*
X184161716Y-82531678D01*
X184129763Y-82547110D01*
X184110470Y-82554423D01*
X184109578Y-82554514D01*
X184106239Y-82541022D01*
X184103587Y-82504626D01*
X184101956Y-82451452D01*
X184101600Y-82408393D01*
X184101592Y-82338641D01*
X184098403Y-82294837D01*
X184087288Y-82273944D01*
X184063501Y-82272925D01*
X184022296Y-82288741D01*
X183960086Y-82317815D01*
X183914341Y-82341963D01*
X183890813Y-82362913D01*
X183883896Y-82385747D01*
X183883886Y-82386877D01*
X183895299Y-82426212D01*
X183929092Y-82447462D01*
X183980809Y-82450539D01*
X184018061Y-82450006D01*
X184037703Y-82460735D01*
X184049952Y-82486505D01*
X184057002Y-82519337D01*
X184046842Y-82537966D01*
X184043017Y-82540632D01*
X184007001Y-82551340D01*
X183956566Y-82552856D01*
X183904626Y-82545759D01*
X183867822Y-82532788D01*
X183816938Y-82489585D01*
X183788014Y-82429446D01*
X183782286Y-82382462D01*
X183786657Y-82340082D01*
X183802475Y-82305488D01*
X183833797Y-82274763D01*
X183884678Y-82243990D01*
X183959176Y-82209252D01*
X183963714Y-82207288D01*
X184030821Y-82176287D01*
X184072232Y-82150862D01*
X184089981Y-82128014D01*
X184086107Y-82104745D01*
X184062643Y-82078056D01*
X184055627Y-82071914D01*
X184008630Y-82048100D01*
X183959933Y-82049103D01*
X183917522Y-82072451D01*
X183889384Y-82115675D01*
X183886769Y-82124160D01*
X183861308Y-82165308D01*
X183829001Y-82185128D01*
X183782286Y-82204770D01*
X183782286Y-82153950D01*
X183796496Y-82080082D01*
X183838675Y-82012327D01*
X183860624Y-81989661D01*
X183910517Y-81960569D01*
X183973967Y-81947400D01*
X184039744Y-81950968D01*
G36*
X184529926Y-81949755D02*
G01*
X184595858Y-81974084D01*
X184649273Y-82017117D01*
X184670164Y-82047409D01*
X184692939Y-82102994D01*
X184692466Y-82143186D01*
X184668562Y-82170217D01*
X184659717Y-82174813D01*
X184621530Y-82189144D01*
X184602028Y-82185472D01*
X184595422Y-82161407D01*
X184595086Y-82148114D01*
X184582992Y-82099210D01*
X184551471Y-82064999D01*
X184507659Y-82048476D01*
X184458695Y-82052634D01*
X184418894Y-82074227D01*
X184405450Y-82086544D01*
X184395921Y-82101487D01*
X184389485Y-82124075D01*
X184385317Y-82159328D01*
X184382597Y-82212266D01*
X184380502Y-82287907D01*
X184379960Y-82311857D01*
X184377981Y-82393790D01*
X184375731Y-82451455D01*
X184372357Y-82489608D01*
X184367006Y-82513004D01*
X184358824Y-82526398D01*
X184346959Y-82534545D01*
X184339362Y-82538144D01*
X184307102Y-82550452D01*
X184288111Y-82554514D01*
X184281836Y-82540948D01*
X184278006Y-82499934D01*
X184276600Y-82430999D01*
X184277598Y-82333669D01*
X184277908Y-82318657D01*
X184280101Y-82229859D01*
X184282693Y-82165019D01*
X184286382Y-82119067D01*
X184291864Y-82086935D01*
X184299835Y-82063553D01*
X184310993Y-82043852D01*
X184316830Y-82035410D01*
X184350296Y-81998057D01*
X184387727Y-81969003D01*
X184392309Y-81966467D01*
X184459426Y-81946443D01*
X184529926Y-81949755D01*
G37*
X184529926Y-81949755D02*
X184595858Y-81974084D01*
X184649273Y-82017117D01*
X184670164Y-82047409D01*
X184692939Y-82102994D01*
X184692466Y-82143186D01*
X184668562Y-82170217D01*
X184659717Y-82174813D01*
X184621530Y-82189144D01*
X184602028Y-82185472D01*
X184595422Y-82161407D01*
X184595086Y-82148114D01*
X184582992Y-82099210D01*
X184551471Y-82064999D01*
X184507659Y-82048476D01*
X184458695Y-82052634D01*
X184418894Y-82074227D01*
X184405450Y-82086544D01*
X184395921Y-82101487D01*
X184389485Y-82124075D01*
X184385317Y-82159328D01*
X184382597Y-82212266D01*
X184380502Y-82287907D01*
X184379960Y-82311857D01*
X184377981Y-82393790D01*
X184375731Y-82451455D01*
X184372357Y-82489608D01*
X184367006Y-82513004D01*
X184358824Y-82526398D01*
X184346959Y-82534545D01*
X184339362Y-82538144D01*
X184307102Y-82550452D01*
X184288111Y-82554514D01*
X184281836Y-82540948D01*
X184278006Y-82499934D01*
X184276600Y-82430999D01*
X184277598Y-82333669D01*
X184277908Y-82318657D01*
X184280101Y-82229859D01*
X184282693Y-82165019D01*
X184286382Y-82119067D01*
X184291864Y-82086935D01*
X184299835Y-82063553D01*
X184310993Y-82043852D01*
X184316830Y-82035410D01*
X184350296Y-81998057D01*
X184387727Y-81969003D01*
X184392309Y-81966467D01*
X184459426Y-81946443D01*
X184529926Y-81949755D01*
G36*
X185190117Y-82065358D02*
G01*
X185189933Y-82173837D01*
X185189219Y-82257287D01*
X185187675Y-82319704D01*
X185185001Y-82365085D01*
X185180894Y-82397429D01*
X185175055Y-82420733D01*
X185167182Y-82438995D01*
X185161221Y-82449418D01*
X185111855Y-82505945D01*
X185049264Y-82541377D01*
X184980013Y-82554090D01*
X184910668Y-82542463D01*
X184869375Y-82521568D01*
X184826025Y-82485422D01*
X184796481Y-82441276D01*
X184778655Y-82383462D01*
X184770463Y-82306313D01*
X184769302Y-82249714D01*
X184769458Y-82245647D01*
X184870857Y-82245647D01*
X184871476Y-82310550D01*
X184874314Y-82353514D01*
X184880840Y-82381622D01*
X184892523Y-82401953D01*
X184906483Y-82417288D01*
X184953365Y-82446890D01*
X185003701Y-82449419D01*
X185051276Y-82424705D01*
X185054979Y-82421356D01*
X185070783Y-82403935D01*
X185080693Y-82383209D01*
X185086058Y-82352362D01*
X185088228Y-82304577D01*
X185088571Y-82251748D01*
X185087827Y-82185381D01*
X185084748Y-82141106D01*
X185078061Y-82112009D01*
X185066496Y-82091173D01*
X185057013Y-82080107D01*
X185012960Y-82052198D01*
X184962224Y-82048843D01*
X184913796Y-82070159D01*
X184904450Y-82078073D01*
X184888540Y-82095647D01*
X184878610Y-82116587D01*
X184873278Y-82147782D01*
X184871163Y-82196122D01*
X184870857Y-82245647D01*
X184769458Y-82245647D01*
X184772810Y-82158568D01*
X184784726Y-82090086D01*
X184807135Y-82038600D01*
X184842124Y-81998443D01*
X184869375Y-81977861D01*
X184918907Y-81955625D01*
X184976316Y-81945304D01*
X185029682Y-81948067D01*
X185059543Y-81959212D01*
X185071261Y-81962383D01*
X185079037Y-81950557D01*
X185084465Y-81918866D01*
X185088571Y-81870593D01*
X185093067Y-81816829D01*
X185099313Y-81784482D01*
X185110676Y-81765985D01*
X185130528Y-81753770D01*
X185143000Y-81748362D01*
X185190171Y-81728601D01*
X185190117Y-82065358D01*
G37*
X185190117Y-82065358D02*
X185189933Y-82173837D01*
X185189219Y-82257287D01*
X185187675Y-82319704D01*
X185185001Y-82365085D01*
X185180894Y-82397429D01*
X185175055Y-82420733D01*
X185167182Y-82438995D01*
X185161221Y-82449418D01*
X185111855Y-82505945D01*
X185049264Y-82541377D01*
X184980013Y-82554090D01*
X184910668Y-82542463D01*
X184869375Y-82521568D01*
X184826025Y-82485422D01*
X184796481Y-82441276D01*
X184778655Y-82383462D01*
X184770463Y-82306313D01*
X184769302Y-82249714D01*
X184769458Y-82245647D01*
X184870857Y-82245647D01*
X184871476Y-82310550D01*
X184874314Y-82353514D01*
X184880840Y-82381622D01*
X184892523Y-82401953D01*
X184906483Y-82417288D01*
X184953365Y-82446890D01*
X185003701Y-82449419D01*
X185051276Y-82424705D01*
X185054979Y-82421356D01*
X185070783Y-82403935D01*
X185080693Y-82383209D01*
X185086058Y-82352362D01*
X185088228Y-82304577D01*
X185088571Y-82251748D01*
X185087827Y-82185381D01*
X185084748Y-82141106D01*
X185078061Y-82112009D01*
X185066496Y-82091173D01*
X185057013Y-82080107D01*
X185012960Y-82052198D01*
X184962224Y-82048843D01*
X184913796Y-82070159D01*
X184904450Y-82078073D01*
X184888540Y-82095647D01*
X184878610Y-82116587D01*
X184873278Y-82147782D01*
X184871163Y-82196122D01*
X184870857Y-82245647D01*
X184769458Y-82245647D01*
X184772810Y-82158568D01*
X184784726Y-82090086D01*
X184807135Y-82038600D01*
X184842124Y-81998443D01*
X184869375Y-81977861D01*
X184918907Y-81955625D01*
X184976316Y-81945304D01*
X185029682Y-81948067D01*
X185059543Y-81959212D01*
X185071261Y-81962383D01*
X185079037Y-81950557D01*
X185084465Y-81918866D01*
X185088571Y-81870593D01*
X185093067Y-81816829D01*
X185099313Y-81784482D01*
X185110676Y-81765985D01*
X185130528Y-81753770D01*
X185143000Y-81748362D01*
X185190171Y-81728601D01*
X185190117Y-82065358D01*
G36*
X185779833Y-81958663D02*
G01*
X185782048Y-81996850D01*
X185783784Y-82054886D01*
X185784899Y-82128180D01*
X185785257Y-82205055D01*
X185785257Y-82465196D01*
X185739326Y-82511127D01*
X185707675Y-82539429D01*
X185679890Y-82550893D01*
X185641915Y-82550168D01*
X185626840Y-82548321D01*
X185579726Y-82542948D01*
X185540756Y-82539869D01*
X185531257Y-82539585D01*
X185499233Y-82541445D01*
X185453432Y-82546114D01*
X185435674Y-82548321D01*
X185392057Y-82551735D01*
X185362745Y-82544320D01*
X185333680Y-82521427D01*
X185323188Y-82511127D01*
X185277257Y-82465196D01*
X185277257Y-81978602D01*
X185314226Y-81961758D01*
X185346059Y-81949282D01*
X185364683Y-81944914D01*
X185369458Y-81958718D01*
X185373921Y-81997286D01*
X185377775Y-82056356D01*
X185380722Y-82131663D01*
X185382143Y-82195286D01*
X185386114Y-82445657D01*
X185420759Y-82450556D01*
X185452268Y-82447131D01*
X185467708Y-82436041D01*
X185472023Y-82415308D01*
X185475708Y-82371145D01*
X185478469Y-82309146D01*
X185480012Y-82234909D01*
X185480235Y-82196706D01*
X185480457Y-81976783D01*
X185526166Y-81960849D01*
X185558518Y-81950015D01*
X185576115Y-81944962D01*
X185576623Y-81944914D01*
X185578388Y-81958648D01*
X185580329Y-81996730D01*
X185582282Y-82054482D01*
X185584084Y-82127227D01*
X185585343Y-82195286D01*
X185589314Y-82445657D01*
X185676400Y-82445657D01*
X185680396Y-82217240D01*
X185684392Y-81988822D01*
X185726847Y-81966868D01*
X185758192Y-81951793D01*
X185776744Y-81944951D01*
X185777279Y-81944914D01*
X185779833Y-81958663D01*
G37*
X185779833Y-81958663D02*
X185782048Y-81996850D01*
X185783784Y-82054886D01*
X185784899Y-82128180D01*
X185785257Y-82205055D01*
X185785257Y-82465196D01*
X185739326Y-82511127D01*
X185707675Y-82539429D01*
X185679890Y-82550893D01*
X185641915Y-82550168D01*
X185626840Y-82548321D01*
X185579726Y-82542948D01*
X185540756Y-82539869D01*
X185531257Y-82539585D01*
X185499233Y-82541445D01*
X185453432Y-82546114D01*
X185435674Y-82548321D01*
X185392057Y-82551735D01*
X185362745Y-82544320D01*
X185333680Y-82521427D01*
X185323188Y-82511127D01*
X185277257Y-82465196D01*
X185277257Y-81978602D01*
X185314226Y-81961758D01*
X185346059Y-81949282D01*
X185364683Y-81944914D01*
X185369458Y-81958718D01*
X185373921Y-81997286D01*
X185377775Y-82056356D01*
X185380722Y-82131663D01*
X185382143Y-82195286D01*
X185386114Y-82445657D01*
X185420759Y-82450556D01*
X185452268Y-82447131D01*
X185467708Y-82436041D01*
X185472023Y-82415308D01*
X185475708Y-82371145D01*
X185478469Y-82309146D01*
X185480012Y-82234909D01*
X185480235Y-82196706D01*
X185480457Y-81976783D01*
X185526166Y-81960849D01*
X185558518Y-81950015D01*
X185576115Y-81944962D01*
X185576623Y-81944914D01*
X185578388Y-81958648D01*
X185580329Y-81996730D01*
X185582282Y-82054482D01*
X185584084Y-82127227D01*
X185585343Y-82195286D01*
X185589314Y-82445657D01*
X185676400Y-82445657D01*
X185680396Y-82217240D01*
X185684392Y-81988822D01*
X185726847Y-81966868D01*
X185758192Y-81951793D01*
X185776744Y-81944951D01*
X185777279Y-81944914D01*
X185779833Y-81958663D01*
G36*
X186144876Y-81956335D02*
G01*
X186186667Y-81975344D01*
X186219469Y-81998378D01*
X186243503Y-82024133D01*
X186260097Y-82057358D01*
X186270577Y-82102800D01*
X186276271Y-82165207D01*
X186278507Y-82249327D01*
X186278743Y-82304721D01*
X186278743Y-82520826D01*
X186241774Y-82537670D01*
X186212656Y-82549981D01*
X186198231Y-82554514D01*
X186195472Y-82541025D01*
X186193282Y-82504653D01*
X186191942Y-82451542D01*
X186191657Y-82409372D01*
X186190434Y-82348447D01*
X186187136Y-82300115D01*
X186182321Y-82270518D01*
X186178496Y-82264229D01*
X186152783Y-82270652D01*
X186112418Y-82287125D01*
X186065679Y-82309458D01*
X186020845Y-82333457D01*
X185986193Y-82354930D01*
X185970002Y-82369685D01*
X185969938Y-82369845D01*
X185971330Y-82397152D01*
X185983818Y-82423219D01*
X186005743Y-82444392D01*
X186037743Y-82451474D01*
X186065092Y-82450649D01*
X186103826Y-82450042D01*
X186124158Y-82459116D01*
X186136369Y-82483092D01*
X186137909Y-82487613D01*
X186143203Y-82521806D01*
X186129047Y-82542568D01*
X186092148Y-82552462D01*
X186052289Y-82554292D01*
X185980562Y-82540727D01*
X185943432Y-82521355D01*
X185897576Y-82475845D01*
X185873256Y-82419983D01*
X185871073Y-82360957D01*
X185891629Y-82305953D01*
X185922549Y-82271486D01*
X185953420Y-82252189D01*
X186001942Y-82227759D01*
X186058485Y-82202985D01*
X186067910Y-82199199D01*
X186130019Y-82171791D01*
X186165822Y-82147634D01*
X186177337Y-82123619D01*
X186166580Y-82096635D01*
X186148114Y-82075543D01*
X186104469Y-82049572D01*
X186056446Y-82047624D01*
X186012406Y-82067637D01*
X185980709Y-82107551D01*
X185976549Y-82117848D01*
X185952327Y-82155724D01*
X185916965Y-82183842D01*
X185872343Y-82206917D01*
X185872343Y-82141485D01*
X185874969Y-82101506D01*
X185886230Y-82069997D01*
X185911199Y-82036378D01*
X185935169Y-82010484D01*
X185972441Y-81973817D01*
X186001401Y-81954121D01*
X186032505Y-81946220D01*
X186067713Y-81944914D01*
X186144876Y-81956335D01*
G37*
X186144876Y-81956335D02*
X186186667Y-81975344D01*
X186219469Y-81998378D01*
X186243503Y-82024133D01*
X186260097Y-82057358D01*
X186270577Y-82102800D01*
X186276271Y-82165207D01*
X186278507Y-82249327D01*
X186278743Y-82304721D01*
X186278743Y-82520826D01*
X186241774Y-82537670D01*
X186212656Y-82549981D01*
X186198231Y-82554514D01*
X186195472Y-82541025D01*
X186193282Y-82504653D01*
X186191942Y-82451542D01*
X186191657Y-82409372D01*
X186190434Y-82348447D01*
X186187136Y-82300115D01*
X186182321Y-82270518D01*
X186178496Y-82264229D01*
X186152783Y-82270652D01*
X186112418Y-82287125D01*
X186065679Y-82309458D01*
X186020845Y-82333457D01*
X185986193Y-82354930D01*
X185970002Y-82369685D01*
X185969938Y-82369845D01*
X185971330Y-82397152D01*
X185983818Y-82423219D01*
X186005743Y-82444392D01*
X186037743Y-82451474D01*
X186065092Y-82450649D01*
X186103826Y-82450042D01*
X186124158Y-82459116D01*
X186136369Y-82483092D01*
X186137909Y-82487613D01*
X186143203Y-82521806D01*
X186129047Y-82542568D01*
X186092148Y-82552462D01*
X186052289Y-82554292D01*
X185980562Y-82540727D01*
X185943432Y-82521355D01*
X185897576Y-82475845D01*
X185873256Y-82419983D01*
X185871073Y-82360957D01*
X185891629Y-82305953D01*
X185922549Y-82271486D01*
X185953420Y-82252189D01*
X186001942Y-82227759D01*
X186058485Y-82202985D01*
X186067910Y-82199199D01*
X186130019Y-82171791D01*
X186165822Y-82147634D01*
X186177337Y-82123619D01*
X186166580Y-82096635D01*
X186148114Y-82075543D01*
X186104469Y-82049572D01*
X186056446Y-82047624D01*
X186012406Y-82067637D01*
X185980709Y-82107551D01*
X185976549Y-82117848D01*
X185952327Y-82155724D01*
X185916965Y-82183842D01*
X185872343Y-82206917D01*
X185872343Y-82141485D01*
X185874969Y-82101506D01*
X185886230Y-82069997D01*
X185911199Y-82036378D01*
X185935169Y-82010484D01*
X185972441Y-81973817D01*
X186001401Y-81954121D01*
X186032505Y-81946220D01*
X186067713Y-81944914D01*
X186144876Y-81956335D01*
G36*
X186652600Y-81958752D02*
G01*
X186669948Y-81966334D01*
X186711356Y-81999128D01*
X186746765Y-82046547D01*
X186768664Y-82097151D01*
X186772229Y-82122098D01*
X186760279Y-82156927D01*
X186734067Y-82175357D01*
X186705964Y-82186516D01*
X186693095Y-82188572D01*
X186686829Y-82173649D01*
X186674456Y-82141175D01*
X186669028Y-82126502D01*
X186638590Y-82075744D01*
X186594520Y-82050427D01*
X186538010Y-82051206D01*
X186533825Y-82052203D01*
X186503655Y-82066507D01*
X186481476Y-82094393D01*
X186466327Y-82139287D01*
X186457250Y-82204615D01*
X186453286Y-82293804D01*
X186452914Y-82341261D01*
X186452730Y-82416071D01*
X186451522Y-82467069D01*
X186448309Y-82499471D01*
X186442109Y-82518495D01*
X186431940Y-82529356D01*
X186416819Y-82537272D01*
X186415946Y-82537670D01*
X186386828Y-82549981D01*
X186372403Y-82554514D01*
X186370186Y-82540809D01*
X186368289Y-82502925D01*
X186366847Y-82445715D01*
X186365998Y-82374027D01*
X186365829Y-82321565D01*
X186366692Y-82220047D01*
X186370070Y-82143032D01*
X186377142Y-82086023D01*
X186389088Y-82044526D01*
X186407090Y-82014043D01*
X186432327Y-81990080D01*
X186457247Y-81973355D01*
X186517171Y-81951097D01*
X186586911Y-81946076D01*
X186652600Y-81958752D01*
G37*
X186652600Y-81958752D02*
X186669948Y-81966334D01*
X186711356Y-81999128D01*
X186746765Y-82046547D01*
X186768664Y-82097151D01*
X186772229Y-82122098D01*
X186760279Y-82156927D01*
X186734067Y-82175357D01*
X186705964Y-82186516D01*
X186693095Y-82188572D01*
X186686829Y-82173649D01*
X186674456Y-82141175D01*
X186669028Y-82126502D01*
X186638590Y-82075744D01*
X186594520Y-82050427D01*
X186538010Y-82051206D01*
X186533825Y-82052203D01*
X186503655Y-82066507D01*
X186481476Y-82094393D01*
X186466327Y-82139287D01*
X186457250Y-82204615D01*
X186453286Y-82293804D01*
X186452914Y-82341261D01*
X186452730Y-82416071D01*
X186451522Y-82467069D01*
X186448309Y-82499471D01*
X186442109Y-82518495D01*
X186431940Y-82529356D01*
X186416819Y-82537272D01*
X186415946Y-82537670D01*
X186386828Y-82549981D01*
X186372403Y-82554514D01*
X186370186Y-82540809D01*
X186368289Y-82502925D01*
X186366847Y-82445715D01*
X186365998Y-82374027D01*
X186365829Y-82321565D01*
X186366692Y-82220047D01*
X186370070Y-82143032D01*
X186377142Y-82086023D01*
X186389088Y-82044526D01*
X186407090Y-82014043D01*
X186432327Y-81990080D01*
X186457247Y-81973355D01*
X186517171Y-81951097D01*
X186586911Y-81946076D01*
X186652600Y-81958752D01*
G36*
X187153595Y-81966966D02*
G01*
X187211021Y-82004497D01*
X187238719Y-82038096D01*
X187260662Y-82099064D01*
X187262405Y-82147308D01*
X187258457Y-82211816D01*
X187109686Y-82276934D01*
X187037349Y-82310202D01*
X186990084Y-82336964D01*
X186965507Y-82360144D01*
X186961237Y-82382667D01*
X186974889Y-82407455D01*
X186989943Y-82423886D01*
X187033746Y-82450235D01*
X187081389Y-82452081D01*
X187125145Y-82431546D01*
X187157289Y-82390752D01*
X187163038Y-82376347D01*
X187190576Y-82331356D01*
X187222258Y-82312182D01*
X187265714Y-82295779D01*
X187265714Y-82357966D01*
X187261872Y-82400283D01*
X187246823Y-82435969D01*
X187215280Y-82476943D01*
X187210592Y-82482267D01*
X187175506Y-82518720D01*
X187145347Y-82538283D01*
X187107615Y-82547283D01*
X187076335Y-82550230D01*
X187020385Y-82550965D01*
X186980555Y-82541660D01*
X186955708Y-82527846D01*
X186916656Y-82497467D01*
X186889625Y-82464613D01*
X186872517Y-82423294D01*
X186863238Y-82367521D01*
X186859693Y-82291305D01*
X186859410Y-82252622D01*
X186860372Y-82206247D01*
X186948007Y-82206247D01*
X186949023Y-82231126D01*
X186951556Y-82235200D01*
X186968274Y-82229665D01*
X187004249Y-82215017D01*
X187052331Y-82194190D01*
X187062386Y-82189714D01*
X187123152Y-82158814D01*
X187156632Y-82131657D01*
X187163990Y-82106220D01*
X187146391Y-82080481D01*
X187131856Y-82069109D01*
X187079410Y-82046364D01*
X187030322Y-82050122D01*
X186989227Y-82077884D01*
X186960758Y-82127152D01*
X186951631Y-82166257D01*
X186948007Y-82206247D01*
X186860372Y-82206247D01*
X186861285Y-82162249D01*
X186868196Y-82095384D01*
X186881884Y-82046695D01*
X186904096Y-82010849D01*
X186936574Y-81982513D01*
X186950733Y-81973355D01*
X187015053Y-81949507D01*
X187085473Y-81948006D01*
X187153595Y-81966966D01*
G37*
X187153595Y-81966966D02*
X187211021Y-82004497D01*
X187238719Y-82038096D01*
X187260662Y-82099064D01*
X187262405Y-82147308D01*
X187258457Y-82211816D01*
X187109686Y-82276934D01*
X187037349Y-82310202D01*
X186990084Y-82336964D01*
X186965507Y-82360144D01*
X186961237Y-82382667D01*
X186974889Y-82407455D01*
X186989943Y-82423886D01*
X187033746Y-82450235D01*
X187081389Y-82452081D01*
X187125145Y-82431546D01*
X187157289Y-82390752D01*
X187163038Y-82376347D01*
X187190576Y-82331356D01*
X187222258Y-82312182D01*
X187265714Y-82295779D01*
X187265714Y-82357966D01*
X187261872Y-82400283D01*
X187246823Y-82435969D01*
X187215280Y-82476943D01*
X187210592Y-82482267D01*
X187175506Y-82518720D01*
X187145347Y-82538283D01*
X187107615Y-82547283D01*
X187076335Y-82550230D01*
X187020385Y-82550965D01*
X186980555Y-82541660D01*
X186955708Y-82527846D01*
X186916656Y-82497467D01*
X186889625Y-82464613D01*
X186872517Y-82423294D01*
X186863238Y-82367521D01*
X186859693Y-82291305D01*
X186859410Y-82252622D01*
X186860372Y-82206247D01*
X186948007Y-82206247D01*
X186949023Y-82231126D01*
X186951556Y-82235200D01*
X186968274Y-82229665D01*
X187004249Y-82215017D01*
X187052331Y-82194190D01*
X187062386Y-82189714D01*
X187123152Y-82158814D01*
X187156632Y-82131657D01*
X187163990Y-82106220D01*
X187146391Y-82080481D01*
X187131856Y-82069109D01*
X187079410Y-82046364D01*
X187030322Y-82050122D01*
X186989227Y-82077884D01*
X186960758Y-82127152D01*
X186951631Y-82166257D01*
X186948007Y-82206247D01*
X186860372Y-82206247D01*
X186861285Y-82162249D01*
X186868196Y-82095384D01*
X186881884Y-82046695D01*
X186904096Y-82010849D01*
X186936574Y-81982513D01*
X186950733Y-81973355D01*
X187015053Y-81949507D01*
X187085473Y-81948006D01*
X187153595Y-81966966D01*
G36*
X184103910Y-77242348D02*
G01*
X184182454Y-77242778D01*
X184239298Y-77243942D01*
X184278105Y-77246207D01*
X184302538Y-77249940D01*
X184316262Y-77255506D01*
X184322940Y-77263273D01*
X184326236Y-77273605D01*
X184326556Y-77274943D01*
X184331562Y-77299079D01*
X184340829Y-77346701D01*
X184353392Y-77412741D01*
X184368287Y-77492128D01*
X184384551Y-77579796D01*
X184385119Y-77582875D01*
X184401410Y-77668789D01*
X184416652Y-77744696D01*
X184429861Y-77806045D01*
X184440054Y-77848282D01*
X184446248Y-77866855D01*
X184446543Y-77867184D01*
X184464788Y-77876253D01*
X184502405Y-77891367D01*
X184551271Y-77909262D01*
X184551543Y-77909358D01*
X184613093Y-77932493D01*
X184685657Y-77961965D01*
X184754057Y-77991597D01*
X184757294Y-77993062D01*
X184868702Y-78043626D01*
X185115399Y-77875160D01*
X185191077Y-77823803D01*
X185259631Y-77777889D01*
X185317088Y-77740030D01*
X185359476Y-77712837D01*
X185382825Y-77698921D01*
X185385042Y-77697889D01*
X185402010Y-77702484D01*
X185433701Y-77724655D01*
X185481352Y-77765447D01*
X185546198Y-77825905D01*
X185612397Y-77890227D01*
X185676214Y-77953612D01*
X185733329Y-78011451D01*
X185780305Y-78060175D01*
X185813703Y-78096210D01*
X185830085Y-78115984D01*
X185830694Y-78117002D01*
X185832505Y-78130572D01*
X185825683Y-78152733D01*
X185808540Y-78186478D01*
X185779393Y-78234800D01*
X185736555Y-78300692D01*
X185679448Y-78385517D01*
X185628766Y-78460177D01*
X185583461Y-78527140D01*
X185546150Y-78582516D01*
X185519452Y-78622420D01*
X185505985Y-78642962D01*
X185505137Y-78644356D01*
X185506781Y-78664038D01*
X185519245Y-78702293D01*
X185540048Y-78751889D01*
X185547462Y-78767728D01*
X185579814Y-78838290D01*
X185614328Y-78918353D01*
X185642365Y-78987629D01*
X185662568Y-79039045D01*
X185678615Y-79078119D01*
X185687888Y-79098541D01*
X185689041Y-79100114D01*
X185706096Y-79102721D01*
X185746298Y-79109863D01*
X185804302Y-79120523D01*
X185874763Y-79133685D01*
X185952335Y-79148333D01*
X186031672Y-79163449D01*
X186107431Y-79178018D01*
X186174264Y-79191022D01*
X186226828Y-79201445D01*
X186259776Y-79208270D01*
X186267857Y-79210199D01*
X186276205Y-79214962D01*
X186282506Y-79225718D01*
X186287045Y-79246098D01*
X186290104Y-79279734D01*
X186291967Y-79330255D01*
X186292918Y-79401292D01*
X186293240Y-79496476D01*
X186293257Y-79535492D01*
X186293257Y-79852799D01*
X186217057Y-79867839D01*
X186174663Y-79875995D01*
X186111400Y-79887899D01*
X186034962Y-79902116D01*
X185953043Y-79917210D01*
X185930400Y-79921355D01*
X185854806Y-79936053D01*
X185788953Y-79950505D01*
X185738366Y-79963375D01*
X185708574Y-79973322D01*
X185703612Y-79976287D01*
X185691426Y-79997283D01*
X185673953Y-80037967D01*
X185654577Y-80090322D01*
X185650734Y-80101600D01*
X185625339Y-80171523D01*
X185593817Y-80250418D01*
X185562969Y-80321266D01*
X185562817Y-80321595D01*
X185511447Y-80432733D01*
X185680399Y-80681253D01*
X185849352Y-80929772D01*
X185632429Y-81147058D01*
X185566819Y-81211726D01*
X185506979Y-81268733D01*
X185456267Y-81315033D01*
X185418046Y-81347584D01*
X185395675Y-81363343D01*
X185392466Y-81364343D01*
X185373626Y-81356469D01*
X185335180Y-81334578D01*
X185281330Y-81301267D01*
X185216276Y-81259131D01*
X185145940Y-81211943D01*
X185074555Y-81163810D01*
X185010908Y-81121928D01*
X184959041Y-81088871D01*
X184922995Y-81067218D01*
X184906867Y-81059543D01*
X184887189Y-81066037D01*
X184849875Y-81083150D01*
X184802621Y-81107326D01*
X184797612Y-81110013D01*
X184733977Y-81141927D01*
X184690341Y-81157579D01*
X184663202Y-81157745D01*
X184649057Y-81143204D01*
X184648975Y-81143000D01*
X184641905Y-81125779D01*
X184625042Y-81084899D01*
X184599695Y-81023525D01*
X184567171Y-80944819D01*
X184528778Y-80851947D01*
X184485822Y-80748072D01*
X184444222Y-80647502D01*
X184398504Y-80536516D01*
X184356526Y-80433703D01*
X184319548Y-80342215D01*
X184288827Y-80265201D01*
X184265622Y-80205815D01*
X184251190Y-80167209D01*
X184246743Y-80152800D01*
X184257896Y-80136272D01*
X184287069Y-80109930D01*
X184325971Y-80080887D01*
X184436757Y-79989039D01*
X184523351Y-79883759D01*
X184584716Y-79767266D01*
X184619815Y-79641776D01*
X184627608Y-79509507D01*
X184621943Y-79448457D01*
X184591078Y-79321795D01*
X184537920Y-79209941D01*
X184465767Y-79114001D01*
X184377917Y-79035076D01*
X184277665Y-78974270D01*
X184168310Y-78932687D01*
X184053147Y-78911428D01*
X183935475Y-78911599D01*
X183818590Y-78934301D01*
X183705789Y-78980638D01*
X183600369Y-79051713D01*
X183556368Y-79091911D01*
X183471979Y-79195129D01*
X183413222Y-79307925D01*
X183379704Y-79427010D01*
X183371035Y-79549095D01*
X183386823Y-79670893D01*
X183426678Y-79789116D01*
X183490207Y-79900475D01*
X183577021Y-80001684D01*
X183674029Y-80080887D01*
X183714437Y-80111162D01*
X183742982Y-80137219D01*
X183753257Y-80152825D01*
X183747877Y-80169843D01*
X183732575Y-80210500D01*
X183708612Y-80271642D01*
X183677244Y-80350119D01*
X183639732Y-80442780D01*
X183597333Y-80546472D01*
X183555663Y-80647526D01*
X183509690Y-80758607D01*
X183467107Y-80861541D01*
X183429221Y-80953165D01*
X183397340Y-81030316D01*
X183372771Y-81089831D01*
X183356820Y-81128544D01*
X183350910Y-81143000D01*
X183336948Y-81157685D01*
X183309940Y-81157642D01*
X183266413Y-81142099D01*
X183202890Y-81110284D01*
X183202388Y-81110013D01*
X183154560Y-81085323D01*
X183115897Y-81067338D01*
X183094095Y-81059614D01*
X183093133Y-81059543D01*
X183076721Y-81067378D01*
X183040487Y-81089165D01*
X182988474Y-81122328D01*
X182924725Y-81164291D01*
X182854060Y-81211943D01*
X182782116Y-81260191D01*
X182717274Y-81302151D01*
X182663735Y-81335227D01*
X182625697Y-81356821D01*
X182607533Y-81364343D01*
X182590808Y-81354457D01*
X182557180Y-81326826D01*
X182510010Y-81284495D01*
X182452658Y-81230505D01*
X182388484Y-81167899D01*
X182367497Y-81146983D01*
X182150499Y-80929623D01*
X182315668Y-80687220D01*
X182365864Y-80612781D01*
X182409919Y-80545972D01*
X182445362Y-80490665D01*
X182469719Y-80450729D01*
X182480522Y-80430036D01*
X182480838Y-80428563D01*
X182475143Y-80409058D01*
X182459826Y-80369822D01*
X182437537Y-80317430D01*
X182421893Y-80282355D01*
X182392641Y-80215201D01*
X182365094Y-80147358D01*
X182343737Y-80090034D01*
X182337935Y-80072572D01*
X182321452Y-80025938D01*
X182305340Y-79989905D01*
X182296490Y-79976287D01*
X182276960Y-79967952D01*
X182234334Y-79956137D01*
X182174145Y-79942181D01*
X182101922Y-79927422D01*
X182069600Y-79921355D01*
X181987522Y-79906273D01*
X181908795Y-79891669D01*
X181841109Y-79878980D01*
X181792160Y-79869642D01*
X181782943Y-79867839D01*
X181706743Y-79852799D01*
X181706743Y-79535492D01*
X181706914Y-79431154D01*
X181707616Y-79352213D01*
X181709134Y-79295038D01*
X181711749Y-79255999D01*
X181715746Y-79231465D01*
X181721409Y-79217805D01*
X181729020Y-79211389D01*
X181732143Y-79210199D01*
X181750978Y-79205980D01*
X181792588Y-79197562D01*
X181851630Y-79185961D01*
X181922757Y-79172195D01*
X182000625Y-79157280D01*
X182079887Y-79142232D01*
X182155198Y-79128069D01*
X182221213Y-79115806D01*
X182272587Y-79106461D01*
X182303975Y-79101050D01*
X182310959Y-79100114D01*
X182317285Y-79087596D01*
X182331290Y-79054246D01*
X182350355Y-79006377D01*
X182357634Y-78987629D01*
X182386996Y-78915195D01*
X182421571Y-78835170D01*
X182452537Y-78767728D01*
X182475323Y-78716159D01*
X182490482Y-78673785D01*
X182495542Y-78647834D01*
X182494736Y-78644356D01*
X182484041Y-78627936D01*
X182459620Y-78591417D01*
X182424095Y-78538687D01*
X182380087Y-78473635D01*
X182330217Y-78400151D01*
X182320356Y-78385645D01*
X182262492Y-78299704D01*
X182219956Y-78234261D01*
X182191054Y-78186304D01*
X182174090Y-78152820D01*
X182167367Y-78130795D01*
X182169190Y-78117217D01*
X182169236Y-78117131D01*
X182183586Y-78099297D01*
X182215323Y-78064817D01*
X182261010Y-78017268D01*
X182317204Y-77960222D01*
X182380468Y-77897255D01*
X182387602Y-77890227D01*
X182467330Y-77813020D01*
X182528857Y-77756330D01*
X182573421Y-77719110D01*
X182602257Y-77700315D01*
X182614958Y-77697889D01*
X182633494Y-77708471D01*
X182671961Y-77732916D01*
X182726386Y-77768612D01*
X182792798Y-77812947D01*
X182867225Y-77863311D01*
X182884601Y-77875160D01*
X183131297Y-78043626D01*
X183242706Y-77993062D01*
X183310457Y-77963595D01*
X183383183Y-77933959D01*
X183445703Y-77910330D01*
X183448457Y-77909358D01*
X183497360Y-77891457D01*
X183535057Y-77876320D01*
X183553425Y-77867210D01*
X183553456Y-77867184D01*
X183559285Y-77850717D01*
X183569192Y-77810219D01*
X183582195Y-77750242D01*
X183597309Y-77675340D01*
X183613552Y-77590064D01*
X183614881Y-77582875D01*
X183631175Y-77495014D01*
X183646133Y-77415260D01*
X183658791Y-77348681D01*
X183668186Y-77300347D01*
X183673354Y-77275325D01*
X183673444Y-77274943D01*
X183676589Y-77264299D01*
X183682704Y-77256262D01*
X183695453Y-77250467D01*
X183718500Y-77246547D01*
X183755509Y-77244135D01*
X183810144Y-77242865D01*
X183886067Y-77242371D01*
X183986944Y-77242286D01*
X184000000Y-77242286D01*
X184103910Y-77242348D01*
G37*
X184103910Y-77242348D02*
X184182454Y-77242778D01*
X184239298Y-77243942D01*
X184278105Y-77246207D01*
X184302538Y-77249940D01*
X184316262Y-77255506D01*
X184322940Y-77263273D01*
X184326236Y-77273605D01*
X184326556Y-77274943D01*
X184331562Y-77299079D01*
X184340829Y-77346701D01*
X184353392Y-77412741D01*
X184368287Y-77492128D01*
X184384551Y-77579796D01*
X184385119Y-77582875D01*
X184401410Y-77668789D01*
X184416652Y-77744696D01*
X184429861Y-77806045D01*
X184440054Y-77848282D01*
X184446248Y-77866855D01*
X184446543Y-77867184D01*
X184464788Y-77876253D01*
X184502405Y-77891367D01*
X184551271Y-77909262D01*
X184551543Y-77909358D01*
X184613093Y-77932493D01*
X184685657Y-77961965D01*
X184754057Y-77991597D01*
X184757294Y-77993062D01*
X184868702Y-78043626D01*
X185115399Y-77875160D01*
X185191077Y-77823803D01*
X185259631Y-77777889D01*
X185317088Y-77740030D01*
X185359476Y-77712837D01*
X185382825Y-77698921D01*
X185385042Y-77697889D01*
X185402010Y-77702484D01*
X185433701Y-77724655D01*
X185481352Y-77765447D01*
X185546198Y-77825905D01*
X185612397Y-77890227D01*
X185676214Y-77953612D01*
X185733329Y-78011451D01*
X185780305Y-78060175D01*
X185813703Y-78096210D01*
X185830085Y-78115984D01*
X185830694Y-78117002D01*
X185832505Y-78130572D01*
X185825683Y-78152733D01*
X185808540Y-78186478D01*
X185779393Y-78234800D01*
X185736555Y-78300692D01*
X185679448Y-78385517D01*
X185628766Y-78460177D01*
X185583461Y-78527140D01*
X185546150Y-78582516D01*
X185519452Y-78622420D01*
X185505985Y-78642962D01*
X185505137Y-78644356D01*
X185506781Y-78664038D01*
X185519245Y-78702293D01*
X185540048Y-78751889D01*
X185547462Y-78767728D01*
X185579814Y-78838290D01*
X185614328Y-78918353D01*
X185642365Y-78987629D01*
X185662568Y-79039045D01*
X185678615Y-79078119D01*
X185687888Y-79098541D01*
X185689041Y-79100114D01*
X185706096Y-79102721D01*
X185746298Y-79109863D01*
X185804302Y-79120523D01*
X185874763Y-79133685D01*
X185952335Y-79148333D01*
X186031672Y-79163449D01*
X186107431Y-79178018D01*
X186174264Y-79191022D01*
X186226828Y-79201445D01*
X186259776Y-79208270D01*
X186267857Y-79210199D01*
X186276205Y-79214962D01*
X186282506Y-79225718D01*
X186287045Y-79246098D01*
X186290104Y-79279734D01*
X186291967Y-79330255D01*
X186292918Y-79401292D01*
X186293240Y-79496476D01*
X186293257Y-79535492D01*
X186293257Y-79852799D01*
X186217057Y-79867839D01*
X186174663Y-79875995D01*
X186111400Y-79887899D01*
X186034962Y-79902116D01*
X185953043Y-79917210D01*
X185930400Y-79921355D01*
X185854806Y-79936053D01*
X185788953Y-79950505D01*
X185738366Y-79963375D01*
X185708574Y-79973322D01*
X185703612Y-79976287D01*
X185691426Y-79997283D01*
X185673953Y-80037967D01*
X185654577Y-80090322D01*
X185650734Y-80101600D01*
X185625339Y-80171523D01*
X185593817Y-80250418D01*
X185562969Y-80321266D01*
X185562817Y-80321595D01*
X185511447Y-80432733D01*
X185680399Y-80681253D01*
X185849352Y-80929772D01*
X185632429Y-81147058D01*
X185566819Y-81211726D01*
X185506979Y-81268733D01*
X185456267Y-81315033D01*
X185418046Y-81347584D01*
X185395675Y-81363343D01*
X185392466Y-81364343D01*
X185373626Y-81356469D01*
X185335180Y-81334578D01*
X185281330Y-81301267D01*
X185216276Y-81259131D01*
X185145940Y-81211943D01*
X185074555Y-81163810D01*
X185010908Y-81121928D01*
X184959041Y-81088871D01*
X184922995Y-81067218D01*
X184906867Y-81059543D01*
X184887189Y-81066037D01*
X184849875Y-81083150D01*
X184802621Y-81107326D01*
X184797612Y-81110013D01*
X184733977Y-81141927D01*
X184690341Y-81157579D01*
X184663202Y-81157745D01*
X184649057Y-81143204D01*
X184648975Y-81143000D01*
X184641905Y-81125779D01*
X184625042Y-81084899D01*
X184599695Y-81023525D01*
X184567171Y-80944819D01*
X184528778Y-80851947D01*
X184485822Y-80748072D01*
X184444222Y-80647502D01*
X184398504Y-80536516D01*
X184356526Y-80433703D01*
X184319548Y-80342215D01*
X184288827Y-80265201D01*
X184265622Y-80205815D01*
X184251190Y-80167209D01*
X184246743Y-80152800D01*
X184257896Y-80136272D01*
X184287069Y-80109930D01*
X184325971Y-80080887D01*
X184436757Y-79989039D01*
X184523351Y-79883759D01*
X184584716Y-79767266D01*
X184619815Y-79641776D01*
X184627608Y-79509507D01*
X184621943Y-79448457D01*
X184591078Y-79321795D01*
X184537920Y-79209941D01*
X184465767Y-79114001D01*
X184377917Y-79035076D01*
X184277665Y-78974270D01*
X184168310Y-78932687D01*
X184053147Y-78911428D01*
X183935475Y-78911599D01*
X183818590Y-78934301D01*
X183705789Y-78980638D01*
X183600369Y-79051713D01*
X183556368Y-79091911D01*
X183471979Y-79195129D01*
X183413222Y-79307925D01*
X183379704Y-79427010D01*
X183371035Y-79549095D01*
X183386823Y-79670893D01*
X183426678Y-79789116D01*
X183490207Y-79900475D01*
X183577021Y-80001684D01*
X183674029Y-80080887D01*
X183714437Y-80111162D01*
X183742982Y-80137219D01*
X183753257Y-80152825D01*
X183747877Y-80169843D01*
X183732575Y-80210500D01*
X183708612Y-80271642D01*
X183677244Y-80350119D01*
X183639732Y-80442780D01*
X183597333Y-80546472D01*
X183555663Y-80647526D01*
X183509690Y-80758607D01*
X183467107Y-80861541D01*
X183429221Y-80953165D01*
X183397340Y-81030316D01*
X183372771Y-81089831D01*
X183356820Y-81128544D01*
X183350910Y-81143000D01*
X183336948Y-81157685D01*
X183309940Y-81157642D01*
X183266413Y-81142099D01*
X183202890Y-81110284D01*
X183202388Y-81110013D01*
X183154560Y-81085323D01*
X183115897Y-81067338D01*
X183094095Y-81059614D01*
X183093133Y-81059543D01*
X183076721Y-81067378D01*
X183040487Y-81089165D01*
X182988474Y-81122328D01*
X182924725Y-81164291D01*
X182854060Y-81211943D01*
X182782116Y-81260191D01*
X182717274Y-81302151D01*
X182663735Y-81335227D01*
X182625697Y-81356821D01*
X182607533Y-81364343D01*
X182590808Y-81354457D01*
X182557180Y-81326826D01*
X182510010Y-81284495D01*
X182452658Y-81230505D01*
X182388484Y-81167899D01*
X182367497Y-81146983D01*
X182150499Y-80929623D01*
X182315668Y-80687220D01*
X182365864Y-80612781D01*
X182409919Y-80545972D01*
X182445362Y-80490665D01*
X182469719Y-80450729D01*
X182480522Y-80430036D01*
X182480838Y-80428563D01*
X182475143Y-80409058D01*
X182459826Y-80369822D01*
X182437537Y-80317430D01*
X182421893Y-80282355D01*
X182392641Y-80215201D01*
X182365094Y-80147358D01*
X182343737Y-80090034D01*
X182337935Y-80072572D01*
X182321452Y-80025938D01*
X182305340Y-79989905D01*
X182296490Y-79976287D01*
X182276960Y-79967952D01*
X182234334Y-79956137D01*
X182174145Y-79942181D01*
X182101922Y-79927422D01*
X182069600Y-79921355D01*
X181987522Y-79906273D01*
X181908795Y-79891669D01*
X181841109Y-79878980D01*
X181792160Y-79869642D01*
X181782943Y-79867839D01*
X181706743Y-79852799D01*
X181706743Y-79535492D01*
X181706914Y-79431154D01*
X181707616Y-79352213D01*
X181709134Y-79295038D01*
X181711749Y-79255999D01*
X181715746Y-79231465D01*
X181721409Y-79217805D01*
X181729020Y-79211389D01*
X181732143Y-79210199D01*
X181750978Y-79205980D01*
X181792588Y-79197562D01*
X181851630Y-79185961D01*
X181922757Y-79172195D01*
X182000625Y-79157280D01*
X182079887Y-79142232D01*
X182155198Y-79128069D01*
X182221213Y-79115806D01*
X182272587Y-79106461D01*
X182303975Y-79101050D01*
X182310959Y-79100114D01*
X182317285Y-79087596D01*
X182331290Y-79054246D01*
X182350355Y-79006377D01*
X182357634Y-78987629D01*
X182386996Y-78915195D01*
X182421571Y-78835170D01*
X182452537Y-78767728D01*
X182475323Y-78716159D01*
X182490482Y-78673785D01*
X182495542Y-78647834D01*
X182494736Y-78644356D01*
X182484041Y-78627936D01*
X182459620Y-78591417D01*
X182424095Y-78538687D01*
X182380087Y-78473635D01*
X182330217Y-78400151D01*
X182320356Y-78385645D01*
X182262492Y-78299704D01*
X182219956Y-78234261D01*
X182191054Y-78186304D01*
X182174090Y-78152820D01*
X182167367Y-78130795D01*
X182169190Y-78117217D01*
X182169236Y-78117131D01*
X182183586Y-78099297D01*
X182215323Y-78064817D01*
X182261010Y-78017268D01*
X182317204Y-77960222D01*
X182380468Y-77897255D01*
X182387602Y-77890227D01*
X182467330Y-77813020D01*
X182528857Y-77756330D01*
X182573421Y-77719110D01*
X182602257Y-77700315D01*
X182614958Y-77697889D01*
X182633494Y-77708471D01*
X182671961Y-77732916D01*
X182726386Y-77768612D01*
X182792798Y-77812947D01*
X182867225Y-77863311D01*
X182884601Y-77875160D01*
X183131297Y-78043626D01*
X183242706Y-77993062D01*
X183310457Y-77963595D01*
X183383183Y-77933959D01*
X183445703Y-77910330D01*
X183448457Y-77909358D01*
X183497360Y-77891457D01*
X183535057Y-77876320D01*
X183553425Y-77867210D01*
X183553456Y-77867184D01*
X183559285Y-77850717D01*
X183569192Y-77810219D01*
X183582195Y-77750242D01*
X183597309Y-77675340D01*
X183613552Y-77590064D01*
X183614881Y-77582875D01*
X183631175Y-77495014D01*
X183646133Y-77415260D01*
X183658791Y-77348681D01*
X183668186Y-77300347D01*
X183673354Y-77275325D01*
X183673444Y-77274943D01*
X183676589Y-77264299D01*
X183682704Y-77256262D01*
X183695453Y-77250467D01*
X183718500Y-77246547D01*
X183755509Y-77244135D01*
X183810144Y-77242865D01*
X183886067Y-77242371D01*
X183986944Y-77242286D01*
X184000000Y-77242286D01*
X184103910Y-77242348D01*
D14*
%TO.C,U1*%
X25000000Y-54000000D02*
G75*
G03*
X25000000Y-54000000I-15000000J0D01*
G01*
%TO.C,U2*%
X60000000Y-54000000D02*
G75*
G03*
X60000000Y-54000000I-15000000J0D01*
G01*
%TO.C,U3*%
X110000000Y-54000000D02*
G75*
G03*
X110000000Y-54000000I-15000000J0D01*
G01*
%TO.C,U4*%
X145000000Y-54000000D02*
G75*
G03*
X145000000Y-54000000I-15000000J0D01*
G01*
%TO.C,U5*%
X195000000Y-54000000D02*
G75*
G03*
X195000000Y-54000000I-15000000J0D01*
G01*
%TO.C,U6*%
X230000000Y-54000000D02*
G75*
G03*
X230000000Y-54000000I-15000000J0D01*
G01*
%TO.C,U1*%
D10*
X9238095Y-37452380D02*
X9238095Y-38261904D01*
X9285714Y-38357142D01*
X9333333Y-38404761D01*
X9428571Y-38452380D01*
X9619047Y-38452380D01*
X9714285Y-38404761D01*
X9761904Y-38357142D01*
X9809523Y-38261904D01*
X9809523Y-37452380D01*
X10809523Y-38452380D02*
X10238095Y-38452380D01*
X10523809Y-38452380D02*
X10523809Y-37452380D01*
X10428571Y-37595238D01*
X10333333Y-37690476D01*
X10238095Y-37738095D01*
%TO.C,U2*%
X44238095Y-37452380D02*
X44238095Y-38261904D01*
X44285714Y-38357142D01*
X44333333Y-38404761D01*
X44428571Y-38452380D01*
X44619047Y-38452380D01*
X44714285Y-38404761D01*
X44761904Y-38357142D01*
X44809523Y-38261904D01*
X44809523Y-37452380D01*
X45238095Y-37547619D02*
X45285714Y-37500000D01*
X45380952Y-37452380D01*
X45619047Y-37452380D01*
X45714285Y-37500000D01*
X45761904Y-37547619D01*
X45809523Y-37642857D01*
X45809523Y-37738095D01*
X45761904Y-37880952D01*
X45190476Y-38452380D01*
X45809523Y-38452380D01*
%TO.C,U3*%
X94238095Y-37452380D02*
X94238095Y-38261904D01*
X94285714Y-38357142D01*
X94333333Y-38404761D01*
X94428571Y-38452380D01*
X94619047Y-38452380D01*
X94714285Y-38404761D01*
X94761904Y-38357142D01*
X94809523Y-38261904D01*
X94809523Y-37452380D01*
X95190476Y-37452380D02*
X95809523Y-37452380D01*
X95476190Y-37833333D01*
X95619047Y-37833333D01*
X95714285Y-37880952D01*
X95761904Y-37928571D01*
X95809523Y-38023809D01*
X95809523Y-38261904D01*
X95761904Y-38357142D01*
X95714285Y-38404761D01*
X95619047Y-38452380D01*
X95333333Y-38452380D01*
X95238095Y-38404761D01*
X95190476Y-38357142D01*
%TO.C,U4*%
X129238095Y-37452380D02*
X129238095Y-38261904D01*
X129285714Y-38357142D01*
X129333333Y-38404761D01*
X129428571Y-38452380D01*
X129619047Y-38452380D01*
X129714285Y-38404761D01*
X129761904Y-38357142D01*
X129809523Y-38261904D01*
X129809523Y-37452380D01*
X130714285Y-37785714D02*
X130714285Y-38452380D01*
X130476190Y-37404761D02*
X130238095Y-38119047D01*
X130857142Y-38119047D01*
%TO.C,U5*%
X179238095Y-37452380D02*
X179238095Y-38261904D01*
X179285714Y-38357142D01*
X179333333Y-38404761D01*
X179428571Y-38452380D01*
X179619047Y-38452380D01*
X179714285Y-38404761D01*
X179761904Y-38357142D01*
X179809523Y-38261904D01*
X179809523Y-37452380D01*
X180761904Y-37452380D02*
X180285714Y-37452380D01*
X180238095Y-37928571D01*
X180285714Y-37880952D01*
X180380952Y-37833333D01*
X180619047Y-37833333D01*
X180714285Y-37880952D01*
X180761904Y-37928571D01*
X180809523Y-38023809D01*
X180809523Y-38261904D01*
X180761904Y-38357142D01*
X180714285Y-38404761D01*
X180619047Y-38452380D01*
X180380952Y-38452380D01*
X180285714Y-38404761D01*
X180238095Y-38357142D01*
%TO.C,U6*%
X214238095Y-37452380D02*
X214238095Y-38261904D01*
X214285714Y-38357142D01*
X214333333Y-38404761D01*
X214428571Y-38452380D01*
X214619047Y-38452380D01*
X214714285Y-38404761D01*
X214761904Y-38357142D01*
X214809523Y-38261904D01*
X214809523Y-37452380D01*
X215714285Y-37452380D02*
X215523809Y-37452380D01*
X215428571Y-37500000D01*
X215380952Y-37547619D01*
X215285714Y-37690476D01*
X215238095Y-37880952D01*
X215238095Y-38261904D01*
X215285714Y-38357142D01*
X215333333Y-38404761D01*
X215428571Y-38452380D01*
X215619047Y-38452380D01*
X215714285Y-38404761D01*
X215761904Y-38357142D01*
X215809523Y-38261904D01*
X215809523Y-38023809D01*
X215761904Y-37928571D01*
X215714285Y-37880952D01*
X215619047Y-37833333D01*
X215428571Y-37833333D01*
X215333333Y-37880952D01*
X215285714Y-37928571D01*
X215238095Y-38023809D01*
%TD*%
M02*
