%TF.GenerationSoftware,KiCad,Pcbnew,(5.1.5-131-g305ed0b65)-1*%
%TF.CreationDate,2020-07-18T18:45:46+08:00*%
%TF.ProjectId,IN-18,494e2d31-382e-46b6-9963-61645f706362,rev?*%
%TF.SameCoordinates,Original*%
%TF.FileFunction,Copper,L2,Bot*%
%TF.FilePolarity,Positive*%
%FSLAX46Y46*%
G04 Gerber Fmt 4.6, Leading zero omitted, Abs format (unit mm)*
G04 Created by KiCad (PCBNEW (5.1.5-131-g305ed0b65)-1) date 2020-07-18 18:45:46*
%MOMM*%
%LPD*%
G01*
G04 APERTURE LIST*
%TA.AperFunction,ComponentPad*%
%ADD10O,1.700000X1.700000*%
%TD*%
%TA.AperFunction,ComponentPad*%
%ADD11R,1.700000X1.700000*%
%TD*%
%TA.AperFunction,ComponentPad*%
%ADD12C,1.524000*%
%TD*%
%TA.AperFunction,ComponentPad*%
%ADD13C,2.400000*%
%TD*%
%TA.AperFunction,ComponentPad*%
%ADD14O,2.400000X2.400000*%
%TD*%
%TA.AperFunction,ViaPad*%
%ADD15C,0.500000*%
%TD*%
%TA.AperFunction,Conductor*%
%ADD16C,0.152400*%
%TD*%
%TA.AperFunction,Conductor*%
%ADD17C,0.254000*%
%TD*%
G04 APERTURE END LIST*
D10*
%TO.P,J1,12*%
%TO.N,GND*%
X56940000Y-78000000D03*
%TO.P,J1,11*%
%TO.N,HV*%
X54400000Y-78000000D03*
%TO.P,J1,10*%
%TO.N,Net-(J1-Pad10)*%
X51860000Y-78000000D03*
%TO.P,J1,9*%
%TO.N,Net-(J1-Pad9)*%
X49320000Y-78000000D03*
%TO.P,J1,8*%
%TO.N,Net-(J1-Pad8)*%
X46780000Y-78000000D03*
%TO.P,J1,7*%
%TO.N,Net-(J1-Pad7)*%
X44240000Y-78000000D03*
%TO.P,J1,6*%
%TO.N,Net-(J1-Pad6)*%
X41700000Y-78000000D03*
%TO.P,J1,5*%
%TO.N,Net-(J1-Pad5)*%
X39160000Y-78000000D03*
%TO.P,J1,4*%
%TO.N,Net-(J1-Pad4)*%
X36620000Y-78000000D03*
%TO.P,J1,3*%
%TO.N,Net-(J1-Pad3)*%
X34080000Y-78000000D03*
%TO.P,J1,2*%
%TO.N,Net-(J1-Pad2)*%
X31540000Y-78000000D03*
D11*
%TO.P,J1,1*%
%TO.N,Net-(J1-Pad1)*%
X29000000Y-78000000D03*
%TD*%
D10*
%TO.P,J2,12*%
%TO.N,GND*%
X56940000Y-75000000D03*
%TO.P,J2,11*%
%TO.N,HV*%
X54400000Y-75000000D03*
%TO.P,J2,10*%
%TO.N,Net-(J2-Pad10)*%
X51860000Y-75000000D03*
%TO.P,J2,9*%
%TO.N,Net-(J2-Pad9)*%
X49320000Y-75000000D03*
%TO.P,J2,8*%
%TO.N,Net-(J2-Pad8)*%
X46780000Y-75000000D03*
%TO.P,J2,7*%
%TO.N,Net-(J2-Pad7)*%
X44240000Y-75000000D03*
%TO.P,J2,6*%
%TO.N,Net-(J2-Pad6)*%
X41700000Y-75000000D03*
%TO.P,J2,5*%
%TO.N,Net-(J2-Pad5)*%
X39160000Y-75000000D03*
%TO.P,J2,4*%
%TO.N,Net-(J2-Pad4)*%
X36620000Y-75000000D03*
%TO.P,J2,3*%
%TO.N,Net-(J2-Pad3)*%
X34080000Y-75000000D03*
%TO.P,J2,2*%
%TO.N,Net-(J2-Pad2)*%
X31540000Y-75000000D03*
D11*
%TO.P,J2,1*%
%TO.N,Net-(J2-Pad1)*%
X29000000Y-75000000D03*
%TD*%
D10*
%TO.P,J3,12*%
%TO.N,GND*%
X89940000Y-78000000D03*
%TO.P,J3,11*%
%TO.N,HV*%
X87400000Y-78000000D03*
%TO.P,J3,10*%
%TO.N,Net-(J3-Pad10)*%
X84860000Y-78000000D03*
%TO.P,J3,9*%
%TO.N,Net-(J3-Pad9)*%
X82320000Y-78000000D03*
%TO.P,J3,8*%
%TO.N,Net-(J3-Pad8)*%
X79780000Y-78000000D03*
%TO.P,J3,7*%
%TO.N,Net-(J3-Pad7)*%
X77240000Y-78000000D03*
%TO.P,J3,6*%
%TO.N,Net-(J3-Pad6)*%
X74700000Y-78000000D03*
%TO.P,J3,5*%
%TO.N,Net-(J3-Pad5)*%
X72160000Y-78000000D03*
%TO.P,J3,4*%
%TO.N,Net-(J3-Pad4)*%
X69620000Y-78000000D03*
%TO.P,J3,3*%
%TO.N,Net-(J3-Pad3)*%
X67080000Y-78000000D03*
%TO.P,J3,2*%
%TO.N,Net-(J3-Pad2)*%
X64540000Y-78000000D03*
D11*
%TO.P,J3,1*%
%TO.N,Net-(J3-Pad1)*%
X62000000Y-78000000D03*
%TD*%
%TO.P,J4,1*%
%TO.N,Net-(J4-Pad1)*%
X62000000Y-75000000D03*
D10*
%TO.P,J4,2*%
%TO.N,Net-(J4-Pad2)*%
X64540000Y-75000000D03*
%TO.P,J4,3*%
%TO.N,Net-(J4-Pad3)*%
X67080000Y-75000000D03*
%TO.P,J4,4*%
%TO.N,Net-(J4-Pad4)*%
X69620000Y-75000000D03*
%TO.P,J4,5*%
%TO.N,Net-(J4-Pad5)*%
X72160000Y-75000000D03*
%TO.P,J4,6*%
%TO.N,Net-(J4-Pad6)*%
X74700000Y-75000000D03*
%TO.P,J4,7*%
%TO.N,Net-(J4-Pad7)*%
X77240000Y-75000000D03*
%TO.P,J4,8*%
%TO.N,Net-(J4-Pad8)*%
X79780000Y-75000000D03*
%TO.P,J4,9*%
%TO.N,Net-(J4-Pad9)*%
X82320000Y-75000000D03*
%TO.P,J4,10*%
%TO.N,Net-(J4-Pad10)*%
X84860000Y-75000000D03*
%TO.P,J4,11*%
%TO.N,HV*%
X87400000Y-75000000D03*
%TO.P,J4,12*%
%TO.N,GND*%
X89940000Y-75000000D03*
%TD*%
D11*
%TO.P,J5,1*%
%TO.N,Net-(J5-Pad1)*%
X95000000Y-78000000D03*
D10*
%TO.P,J5,2*%
%TO.N,Net-(J5-Pad2)*%
X97540000Y-78000000D03*
%TO.P,J5,3*%
%TO.N,Net-(J5-Pad3)*%
X100080000Y-78000000D03*
%TO.P,J5,4*%
%TO.N,Net-(J5-Pad4)*%
X102620000Y-78000000D03*
%TO.P,J5,5*%
%TO.N,Net-(J5-Pad5)*%
X105160000Y-78000000D03*
%TO.P,J5,6*%
%TO.N,Net-(J5-Pad6)*%
X107700000Y-78000000D03*
%TO.P,J5,7*%
%TO.N,Net-(J5-Pad7)*%
X110240000Y-78000000D03*
%TO.P,J5,8*%
%TO.N,Net-(J5-Pad8)*%
X112780000Y-78000000D03*
%TO.P,J5,9*%
%TO.N,Net-(J5-Pad9)*%
X115320000Y-78000000D03*
%TO.P,J5,10*%
%TO.N,Net-(J5-Pad10)*%
X117860000Y-78000000D03*
%TO.P,J5,11*%
%TO.N,HV*%
X120400000Y-78000000D03*
%TO.P,J5,12*%
%TO.N,GND*%
X122940000Y-78000000D03*
%TD*%
D11*
%TO.P,J6,1*%
%TO.N,Net-(J6-Pad1)*%
X95000000Y-75000000D03*
D10*
%TO.P,J6,2*%
%TO.N,Net-(J6-Pad2)*%
X97540000Y-75000000D03*
%TO.P,J6,3*%
%TO.N,Net-(J6-Pad3)*%
X100080000Y-75000000D03*
%TO.P,J6,4*%
%TO.N,Net-(J6-Pad4)*%
X102620000Y-75000000D03*
%TO.P,J6,5*%
%TO.N,Net-(J6-Pad5)*%
X105160000Y-75000000D03*
%TO.P,J6,6*%
%TO.N,Net-(J6-Pad6)*%
X107700000Y-75000000D03*
%TO.P,J6,7*%
%TO.N,Net-(J6-Pad7)*%
X110240000Y-75000000D03*
%TO.P,J6,8*%
%TO.N,Net-(J6-Pad8)*%
X112780000Y-75000000D03*
%TO.P,J6,9*%
%TO.N,Net-(J6-Pad9)*%
X115320000Y-75000000D03*
%TO.P,J6,10*%
%TO.N,Net-(J6-Pad10)*%
X117860000Y-75000000D03*
%TO.P,J6,11*%
%TO.N,HV*%
X120400000Y-75000000D03*
%TO.P,J6,12*%
%TO.N,GND*%
X122940000Y-75000000D03*
%TD*%
D12*
%TO.P,U1,14*%
%TO.N,Net-(J1-Pad10)*%
X1843230Y-50196436D03*
%TO.P,U1,13*%
%TO.N,Net-(J1-Pad1)*%
X4154968Y-47156347D03*
%TO.P,U1,12*%
%TO.N,Anode*%
X7519264Y-45348645D03*
%TO.P,U1,11*%
%TO.N,Net-(J1-Pad2)*%
X11330284Y-45098858D03*
%TO.P,U1,10*%
%TO.N,Net-(J1-Pad3)*%
X14901751Y-46451965D03*
%TO.P,U1,9*%
%TO.N,Net-(J1-Pad9)*%
X17590523Y-49164304D03*
%TO.P,U1,8*%
%TO.N,Net-(U1-Pad1)*%
X18912412Y-52747443D03*
%TO.P,U1,1*%
X1370623Y-56556138D03*
%TO.P,U1,2*%
%TO.N,Net-(J1-Pad5)*%
X3207614Y-59904531D03*
%TO.P,U1,3*%
%TO.N,Net-(J1-Pad6)*%
X6267761Y-62189651D03*
%TO.P,U1,7*%
%TO.N,Net-(J1-Pad4)*%
X18629377Y-56556138D03*
%TO.P,U1,6*%
%TO.N,Net-(J1-Pad8)*%
X16792386Y-59904531D03*
%TO.P,U1,5*%
%TO.N,Net-(J1-Pad7)*%
X13732239Y-62189651D03*
%TO.P,U1,4*%
%TO.N,Anode*%
X10000000Y-63000000D03*
%TD*%
%TO.P,U2,14*%
%TO.N,Net-(J2-Pad10)*%
X36843230Y-50196436D03*
%TO.P,U2,13*%
%TO.N,Net-(J2-Pad1)*%
X39154968Y-47156347D03*
%TO.P,U2,12*%
%TO.N,Anode*%
X42519264Y-45348645D03*
%TO.P,U2,11*%
%TO.N,Net-(J2-Pad2)*%
X46330284Y-45098858D03*
%TO.P,U2,10*%
%TO.N,Net-(J2-Pad3)*%
X49901751Y-46451965D03*
%TO.P,U2,9*%
%TO.N,Net-(J2-Pad9)*%
X52590523Y-49164304D03*
%TO.P,U2,8*%
%TO.N,Net-(U2-Pad1)*%
X53912412Y-52747443D03*
%TO.P,U2,1*%
X36370623Y-56556138D03*
%TO.P,U2,2*%
%TO.N,Net-(J2-Pad5)*%
X38207614Y-59904531D03*
%TO.P,U2,3*%
%TO.N,Net-(J2-Pad6)*%
X41267761Y-62189651D03*
%TO.P,U2,7*%
%TO.N,Net-(J2-Pad4)*%
X53629377Y-56556138D03*
%TO.P,U2,6*%
%TO.N,Net-(J2-Pad8)*%
X51792386Y-59904531D03*
%TO.P,U2,5*%
%TO.N,Net-(J2-Pad7)*%
X48732239Y-62189651D03*
%TO.P,U2,4*%
%TO.N,Anode*%
X45000000Y-63000000D03*
%TD*%
%TO.P,U3,4*%
%TO.N,Anode*%
X95000000Y-63000000D03*
%TO.P,U3,5*%
%TO.N,Net-(J3-Pad7)*%
X98732239Y-62189651D03*
%TO.P,U3,6*%
%TO.N,Net-(J3-Pad8)*%
X101792386Y-59904531D03*
%TO.P,U3,7*%
%TO.N,Net-(J3-Pad4)*%
X103629377Y-56556138D03*
%TO.P,U3,3*%
%TO.N,Net-(J3-Pad6)*%
X91267761Y-62189651D03*
%TO.P,U3,2*%
%TO.N,Net-(J3-Pad5)*%
X88207614Y-59904531D03*
%TO.P,U3,1*%
%TO.N,Net-(U3-Pad1)*%
X86370623Y-56556138D03*
%TO.P,U3,8*%
X103912412Y-52747443D03*
%TO.P,U3,9*%
%TO.N,Net-(J3-Pad9)*%
X102590523Y-49164304D03*
%TO.P,U3,10*%
%TO.N,Net-(J3-Pad3)*%
X99901751Y-46451965D03*
%TO.P,U3,11*%
%TO.N,Net-(J3-Pad2)*%
X96330284Y-45098858D03*
%TO.P,U3,12*%
%TO.N,Anode*%
X92519264Y-45348645D03*
%TO.P,U3,13*%
%TO.N,Net-(J3-Pad1)*%
X89154968Y-47156347D03*
%TO.P,U3,14*%
%TO.N,Net-(J3-Pad10)*%
X86843230Y-50196436D03*
%TD*%
%TO.P,U4,4*%
%TO.N,Anode*%
X130000000Y-63000000D03*
%TO.P,U4,5*%
%TO.N,Net-(J4-Pad7)*%
X133732239Y-62189651D03*
%TO.P,U4,6*%
%TO.N,Net-(J4-Pad8)*%
X136792386Y-59904531D03*
%TO.P,U4,7*%
%TO.N,Net-(J4-Pad4)*%
X138629377Y-56556138D03*
%TO.P,U4,3*%
%TO.N,Net-(J4-Pad6)*%
X126267761Y-62189651D03*
%TO.P,U4,2*%
%TO.N,Net-(J4-Pad5)*%
X123207614Y-59904531D03*
%TO.P,U4,1*%
%TO.N,Net-(U4-Pad1)*%
X121370623Y-56556138D03*
%TO.P,U4,8*%
X138912412Y-52747443D03*
%TO.P,U4,9*%
%TO.N,Net-(J4-Pad9)*%
X137590523Y-49164304D03*
%TO.P,U4,10*%
%TO.N,Net-(J4-Pad3)*%
X134901751Y-46451965D03*
%TO.P,U4,11*%
%TO.N,Net-(J4-Pad2)*%
X131330284Y-45098858D03*
%TO.P,U4,12*%
%TO.N,Anode*%
X127519264Y-45348645D03*
%TO.P,U4,13*%
%TO.N,Net-(J4-Pad1)*%
X124154968Y-47156347D03*
%TO.P,U4,14*%
%TO.N,Net-(J4-Pad10)*%
X121843230Y-50196436D03*
%TD*%
%TO.P,U5,4*%
%TO.N,Anode*%
X180000000Y-63000000D03*
%TO.P,U5,5*%
%TO.N,Net-(J5-Pad7)*%
X183732239Y-62189651D03*
%TO.P,U5,6*%
%TO.N,Net-(J5-Pad8)*%
X186792386Y-59904531D03*
%TO.P,U5,7*%
%TO.N,Net-(J5-Pad4)*%
X188629377Y-56556138D03*
%TO.P,U5,3*%
%TO.N,Net-(J5-Pad6)*%
X176267761Y-62189651D03*
%TO.P,U5,2*%
%TO.N,Net-(J5-Pad5)*%
X173207614Y-59904531D03*
%TO.P,U5,1*%
%TO.N,Net-(U5-Pad1)*%
X171370623Y-56556138D03*
%TO.P,U5,8*%
X188912412Y-52747443D03*
%TO.P,U5,9*%
%TO.N,Net-(J5-Pad9)*%
X187590523Y-49164304D03*
%TO.P,U5,10*%
%TO.N,Net-(J5-Pad3)*%
X184901751Y-46451965D03*
%TO.P,U5,11*%
%TO.N,Net-(J5-Pad2)*%
X181330284Y-45098858D03*
%TO.P,U5,12*%
%TO.N,Anode*%
X177519264Y-45348645D03*
%TO.P,U5,13*%
%TO.N,Net-(J5-Pad1)*%
X174154968Y-47156347D03*
%TO.P,U5,14*%
%TO.N,Net-(J5-Pad10)*%
X171843230Y-50196436D03*
%TD*%
%TO.P,U6,14*%
%TO.N,Net-(J6-Pad10)*%
X206843230Y-50196436D03*
%TO.P,U6,13*%
%TO.N,Net-(J6-Pad1)*%
X209154968Y-47156347D03*
%TO.P,U6,12*%
%TO.N,Anode*%
X212519264Y-45348645D03*
%TO.P,U6,11*%
%TO.N,Net-(J6-Pad2)*%
X216330284Y-45098858D03*
%TO.P,U6,10*%
%TO.N,Net-(J6-Pad3)*%
X219901751Y-46451965D03*
%TO.P,U6,9*%
%TO.N,Net-(J6-Pad9)*%
X222590523Y-49164304D03*
%TO.P,U6,8*%
%TO.N,Net-(U6-Pad1)*%
X223912412Y-52747443D03*
%TO.P,U6,1*%
X206370623Y-56556138D03*
%TO.P,U6,2*%
%TO.N,Net-(J6-Pad5)*%
X208207614Y-59904531D03*
%TO.P,U6,3*%
%TO.N,Net-(J6-Pad6)*%
X211267761Y-62189651D03*
%TO.P,U6,7*%
%TO.N,Net-(J6-Pad4)*%
X223629377Y-56556138D03*
%TO.P,U6,6*%
%TO.N,Net-(J6-Pad8)*%
X221792386Y-59904531D03*
%TO.P,U6,5*%
%TO.N,Net-(J6-Pad7)*%
X218732239Y-62189651D03*
%TO.P,U6,4*%
%TO.N,Anode*%
X215000000Y-63000000D03*
%TD*%
D13*
%TO.P,R1,1*%
%TO.N,HV*%
X18000000Y-75000000D03*
D14*
%TO.P,R1,2*%
%TO.N,Anode*%
X2760000Y-75000000D03*
%TD*%
D13*
%TO.P,R2,1*%
%TO.N,HV*%
X65000000Y-64000000D03*
D14*
%TO.P,R2,2*%
%TO.N,Anode*%
X65000000Y-48760000D03*
%TD*%
D13*
%TO.P,R3,1*%
%TO.N,HV*%
X74000000Y-64000000D03*
D14*
%TO.P,R3,2*%
%TO.N,Anode*%
X74000000Y-48760000D03*
%TD*%
%TO.P,R4,2*%
%TO.N,Anode*%
X150000000Y-48760000D03*
D13*
%TO.P,R4,1*%
%TO.N,HV*%
X150000000Y-64000000D03*
%TD*%
D14*
%TO.P,R5,2*%
%TO.N,Anode*%
X159000000Y-48760000D03*
D13*
%TO.P,R5,1*%
%TO.N,HV*%
X159000000Y-64000000D03*
%TD*%
D14*
%TO.P,R6,2*%
%TO.N,Anode*%
X216240000Y-74000000D03*
D13*
%TO.P,R6,1*%
%TO.N,HV*%
X201000000Y-74000000D03*
%TD*%
D15*
%TO.N,Net-(J2-Pad10)*%
X51900000Y-64420000D03*
X46390000Y-53470000D03*
%TO.N,Net-(J2-Pad3)*%
X43800000Y-49270000D03*
%TO.N,Net-(J2-Pad2)*%
X42940000Y-48100000D03*
%TO.N,Net-(J3-Pad10)*%
X95490000Y-71980000D03*
%TO.N,Net-(J4-Pad1)*%
X81860000Y-44960000D03*
%TO.N,Net-(J4-Pad6)*%
X97470000Y-60470000D03*
%TO.N,Net-(J4-Pad7)*%
X103990000Y-58580000D03*
X128500000Y-60250000D03*
%TO.N,Net-(J4-Pad8)*%
X102210000Y-57970000D03*
X128350000Y-58250000D03*
%TO.N,Net-(J4-Pad9)*%
X99580000Y-59380000D03*
X128470000Y-53440000D03*
%TO.N,Net-(J4-Pad10)*%
X97760000Y-63990000D03*
%TO.N,Net-(J5-Pad10)*%
X167423536Y-68431390D03*
%TO.N,Net-(J6-Pad1)*%
X142826350Y-68724294D03*
%TO.N,Net-(J6-Pad2)*%
X143235500Y-69386939D03*
%TO.N,Net-(J6-Pad3)*%
X142653373Y-69681505D03*
%TO.N,Net-(J6-Pad4)*%
X142201522Y-70152112D03*
%TO.N,Net-(J6-Pad5)*%
X141780973Y-70650890D03*
%TO.N,Net-(J6-Pad6)*%
X140451794Y-70667444D03*
%TO.N,Net-(J6-Pad7)*%
X139758873Y-70960683D03*
%TO.N,Net-(J6-Pad8)*%
X140990406Y-71676579D03*
%TO.N,Net-(J6-Pad9)*%
X139877009Y-71917894D03*
%TO.N,Net-(J6-Pad10)*%
X140240000Y-72460000D03*
X197590000Y-71900000D03*
%TD*%
D16*
%TO.N,Net-(J2-Pad10)*%
X51900000Y-64420000D02*
X51900000Y-63891322D01*
X46390000Y-58381322D02*
X46390000Y-53470000D01*
X51900000Y-63891322D02*
X46390000Y-58381322D01*
%TO.N,Net-(J2-Pad4)*%
X36620000Y-75000000D02*
X40280000Y-71340000D01*
X40280000Y-71340000D02*
X49580000Y-71340000D01*
X53629377Y-67290623D02*
X53629377Y-56556138D01*
X49580000Y-71340000D02*
X53629377Y-67290623D01*
%TO.N,Net-(J2-Pad3)*%
X42190671Y-49270000D02*
X43800000Y-49270000D01*
X34080000Y-75000000D02*
X34080000Y-57380671D01*
X34080000Y-57380671D02*
X42190671Y-49270000D01*
%TO.N,Net-(J2-Pad2)*%
X31540000Y-59146447D02*
X42586447Y-48100000D01*
X42586447Y-48100000D02*
X42940000Y-48100000D01*
X31540000Y-75000000D02*
X31540000Y-59146447D01*
%TO.N,Net-(J2-Pad1)*%
X38417229Y-47156347D02*
X39154968Y-47156347D01*
X29000000Y-56573576D02*
X38417229Y-47156347D01*
X29000000Y-75000000D02*
X29000000Y-56573576D01*
%TO.N,Net-(J3-Pad10)*%
X87605229Y-50958435D02*
X86843230Y-50196436D01*
X87605229Y-57061029D02*
X87605229Y-50958435D01*
X95490000Y-64945800D02*
X87605229Y-57061029D01*
X95490000Y-71980000D02*
X95490000Y-64945800D01*
%TO.N,Net-(J4-Pad1)*%
X81860000Y-45025670D02*
X81860000Y-44960000D01*
X62000000Y-75000000D02*
X62000000Y-64885670D01*
X62000000Y-64885670D02*
X81860000Y-45025670D01*
%TO.N,Net-(J4-Pad6)*%
X124973242Y-60895132D02*
X126267761Y-62189651D01*
X97895132Y-60895132D02*
X124973242Y-60895132D01*
X97470000Y-60470000D02*
X97895132Y-60895132D01*
%TO.N,Net-(J4-Pad7)*%
X103990000Y-58580000D02*
X126830000Y-58580000D01*
X126830000Y-58580000D02*
X128500000Y-60250000D01*
%TO.N,Net-(J4-Pad8)*%
X102210000Y-57970000D02*
X128070000Y-57970000D01*
X128070000Y-57970000D02*
X128350000Y-58250000D01*
%TO.N,Net-(J4-Pad9)*%
X105166447Y-53440000D02*
X128470000Y-53440000D01*
X99580000Y-59380000D02*
X99580000Y-59026447D01*
X99580000Y-59026447D02*
X105166447Y-53440000D01*
%TO.N,Net-(J4-Pad10)*%
X97510001Y-63740001D02*
X97510001Y-62600001D01*
X97760000Y-63990000D02*
X97510001Y-63740001D01*
X97510001Y-62600001D02*
X96100000Y-61190000D01*
X96100000Y-61190000D02*
X96100000Y-56410000D01*
X102313564Y-50196436D02*
X121843230Y-50196436D01*
X96100000Y-56410000D02*
X102313564Y-50196436D01*
%TO.N,Net-(J5-Pad10)*%
X171843230Y-50196436D02*
X167423536Y-54616130D01*
X167423536Y-54616130D02*
X167423536Y-68431390D01*
%TO.N,Net-(J6-Pad1)*%
X100273306Y-68724294D02*
X142826350Y-68724294D01*
X95000000Y-75000000D02*
X95000000Y-73997600D01*
X95000000Y-73997600D02*
X100273306Y-68724294D01*
%TO.N,Net-(J6-Pad2)*%
X103337096Y-69202904D02*
X143051465Y-69202904D01*
X97540000Y-75000000D02*
X103337096Y-69202904D01*
X143051465Y-69202904D02*
X143235500Y-69386939D01*
%TO.N,Net-(J6-Pad3)*%
X100080000Y-75000000D02*
X105512351Y-69567649D01*
X142539517Y-69567649D02*
X142653373Y-69681505D01*
X105512351Y-69567649D02*
X142539517Y-69567649D01*
%TO.N,Net-(J6-Pad4)*%
X141921870Y-69872460D02*
X142201522Y-70152112D01*
X107747540Y-69872460D02*
X141921870Y-69872460D01*
X102620000Y-75000000D02*
X107747540Y-69872460D01*
%TO.N,Net-(J6-Pad5)*%
X141307354Y-70177271D02*
X141780973Y-70650890D01*
X109982729Y-70177271D02*
X141307354Y-70177271D01*
X105160000Y-75000000D02*
X109982729Y-70177271D01*
%TO.N,Net-(J6-Pad6)*%
X140266432Y-70482082D02*
X140451794Y-70667444D01*
X107700000Y-75000000D02*
X112217918Y-70482082D01*
X112217918Y-70482082D02*
X140266432Y-70482082D01*
%TO.N,Net-(J6-Pad7)*%
X110240000Y-75000000D02*
X114279317Y-70960683D01*
X114279317Y-70960683D02*
X139758873Y-70960683D01*
%TO.N,Net-(J6-Pad8)*%
X112780000Y-75000000D02*
X116340707Y-71439293D01*
X140753120Y-71439293D02*
X140990406Y-71676579D01*
X116340707Y-71439293D02*
X140753120Y-71439293D01*
%TO.N,Net-(J6-Pad9)*%
X118402106Y-71917894D02*
X139877009Y-71917894D01*
X115320000Y-75000000D02*
X118402106Y-71917894D01*
%TO.N,Net-(J6-Pad10)*%
X117860000Y-75000000D02*
X120400000Y-72460000D01*
X120400000Y-72460000D02*
X140240000Y-72460000D01*
X197590000Y-59449666D02*
X206843230Y-50196436D01*
X197590000Y-71900000D02*
X197590000Y-59449666D01*
%TO.N,Anode*%
X10000000Y-47829381D02*
X7519264Y-45348645D01*
X10000000Y-63000000D02*
X10000000Y-47829381D01*
X45000000Y-47829381D02*
X42519264Y-45348645D01*
X45000000Y-63000000D02*
X45000000Y-47829381D01*
X130000000Y-47829381D02*
X127519264Y-45348645D01*
X130000000Y-63000000D02*
X130000000Y-47829381D01*
X180000000Y-47829381D02*
X177519264Y-45348645D01*
X180000000Y-63000000D02*
X180000000Y-47829381D01*
X215000000Y-47829381D02*
X212519264Y-45348645D01*
X215000000Y-63000000D02*
X215000000Y-47829381D01*
X94238001Y-47067382D02*
X93281263Y-46110644D01*
X93281263Y-46110644D02*
X92519264Y-45348645D01*
X95000000Y-63000000D02*
X94238001Y-62238001D01*
X94238001Y-62238001D02*
X94238001Y-47067382D01*
X216240000Y-64240000D02*
X215000000Y-63000000D01*
X216240000Y-74000000D02*
X216240000Y-64240000D01*
X162411355Y-45348645D02*
X159000000Y-48760000D01*
X177519264Y-45348645D02*
X162411355Y-45348645D01*
X127519264Y-45348645D02*
X128867909Y-44000000D01*
X145240000Y-44000000D02*
X150000000Y-48760000D01*
X128867909Y-44000000D02*
X145240000Y-44000000D01*
X92519264Y-45348645D02*
X91170619Y-44000000D01*
X78760000Y-44000000D02*
X74000000Y-48760000D01*
X91170619Y-44000000D02*
X78760000Y-44000000D01*
X42519264Y-45348645D02*
X43867909Y-44000000D01*
X60240000Y-44000000D02*
X65000000Y-48760000D01*
X43867909Y-44000000D02*
X60240000Y-44000000D01*
X2760000Y-70240000D02*
X10000000Y-63000000D01*
X2760000Y-75000000D02*
X2760000Y-70240000D01*
%TO.N,HV*%
X53321399Y-79078601D02*
X27578601Y-79078601D01*
X54400000Y-78000000D02*
X53321399Y-79078601D01*
X23500000Y-75000000D02*
X18000000Y-75000000D01*
X27578601Y-79078601D02*
X23500000Y-75000000D01*
X76400000Y-64000000D02*
X74000000Y-64000000D01*
X87400000Y-75000000D02*
X76400000Y-64000000D01*
X74000000Y-64000000D02*
X65000000Y-64000000D01*
X150000000Y-64000000D02*
X159000000Y-64000000D01*
X169000000Y-74000000D02*
X159000000Y-64000000D01*
X201000000Y-74000000D02*
X169000000Y-74000000D01*
X139000000Y-75000000D02*
X150000000Y-64000000D01*
X128800000Y-75000000D02*
X139000000Y-75000000D01*
X120400000Y-78000000D02*
X121478601Y-79078601D01*
X124721399Y-79078601D02*
X128800000Y-75000000D01*
X121478601Y-79078601D02*
X124721399Y-79078601D01*
%TD*%
D17*
%TO.N,GND*%
G36*
X232354749Y-36208385D02*
G01*
X232695988Y-36311410D01*
X233010710Y-36478751D01*
X233286944Y-36704042D01*
X233514154Y-36978691D01*
X233683689Y-37292240D01*
X233789095Y-37632752D01*
X233832000Y-38040967D01*
X233832001Y-81942860D01*
X233791614Y-82354754D01*
X233688590Y-82695987D01*
X233521248Y-83010712D01*
X233295958Y-83286944D01*
X233021309Y-83514154D01*
X232707760Y-83683689D01*
X232367249Y-83789095D01*
X231959033Y-83832000D01*
X-6942870Y-83832000D01*
X-7354754Y-83791614D01*
X-7695987Y-83688590D01*
X-8010712Y-83521248D01*
X-8286944Y-83295958D01*
X-8514154Y-83021309D01*
X-8683689Y-82707760D01*
X-8789095Y-82367249D01*
X-8832000Y-81959033D01*
X-8832000Y-78736530D01*
X-6675057Y-78736530D01*
X-6675057Y-79263470D01*
X-6572256Y-79780285D01*
X-6370604Y-80267114D01*
X-6077852Y-80705249D01*
X-5705249Y-81077852D01*
X-5267114Y-81370604D01*
X-4780285Y-81572256D01*
X-4263470Y-81675057D01*
X-3736530Y-81675057D01*
X-3219715Y-81572256D01*
X-2732886Y-81370604D01*
X-2294751Y-81077852D01*
X-1922148Y-80705249D01*
X-1629396Y-80267114D01*
X-1427744Y-79780285D01*
X-1324943Y-79263470D01*
X-1324943Y-78736530D01*
X-1427744Y-78219715D01*
X-1629396Y-77732886D01*
X-1922148Y-77294751D01*
X-2294751Y-76922148D01*
X-2732886Y-76629396D01*
X-3219715Y-76427744D01*
X-3736530Y-76324943D01*
X-4263470Y-76324943D01*
X-4780285Y-76427744D01*
X-5267114Y-76629396D01*
X-5705249Y-76922148D01*
X-6077852Y-77294751D01*
X-6370604Y-77732886D01*
X-6572256Y-78219715D01*
X-6675057Y-78736530D01*
X-8832000Y-78736530D01*
X-8832000Y-74769235D01*
X417000Y-74769235D01*
X417000Y-75230765D01*
X507040Y-75683428D01*
X683660Y-76109827D01*
X940073Y-76493576D01*
X1266424Y-76819927D01*
X1650173Y-77076340D01*
X2076572Y-77252960D01*
X2529235Y-77343000D01*
X2990765Y-77343000D01*
X3443428Y-77252960D01*
X3869827Y-77076340D01*
X4253576Y-76819927D01*
X4579927Y-76493576D01*
X4836340Y-76109827D01*
X5012960Y-75683428D01*
X5103000Y-75230765D01*
X5103000Y-74769235D01*
X15657000Y-74769235D01*
X15657000Y-75230765D01*
X15747040Y-75683428D01*
X15923660Y-76109827D01*
X16180073Y-76493576D01*
X16506424Y-76819927D01*
X16890173Y-77076340D01*
X17316572Y-77252960D01*
X17769235Y-77343000D01*
X18230765Y-77343000D01*
X18683428Y-77252960D01*
X19109827Y-77076340D01*
X19493576Y-76819927D01*
X19819927Y-76493576D01*
X20003259Y-76219200D01*
X20997699Y-76219200D01*
X20922148Y-76294751D01*
X20629396Y-76732886D01*
X20427744Y-77219715D01*
X20324943Y-77736530D01*
X20324943Y-78263470D01*
X20427744Y-78780285D01*
X20629396Y-79267114D01*
X20922148Y-79705249D01*
X21294751Y-80077852D01*
X21732886Y-80370604D01*
X22219715Y-80572256D01*
X22736530Y-80675057D01*
X23263470Y-80675057D01*
X23780285Y-80572256D01*
X24267114Y-80370604D01*
X24705249Y-80077852D01*
X25077852Y-79705249D01*
X25370604Y-79267114D01*
X25567517Y-78791726D01*
X26674142Y-79898351D01*
X26712325Y-79944877D01*
X26897972Y-80097234D01*
X27035999Y-80171010D01*
X27109775Y-80210445D01*
X27339596Y-80280160D01*
X27578601Y-80303700D01*
X27638494Y-80297801D01*
X53261506Y-80297801D01*
X53321399Y-80303700D01*
X53381292Y-80297801D01*
X53560404Y-80280160D01*
X53790224Y-80210445D01*
X54002028Y-80097234D01*
X54143604Y-79981045D01*
X54203707Y-79993000D01*
X54596293Y-79993000D01*
X54981337Y-79916410D01*
X55344039Y-79766173D01*
X55670463Y-79548064D01*
X55948064Y-79270463D01*
X56022383Y-79159237D01*
X56173080Y-79271641D01*
X56435901Y-79396825D01*
X56583110Y-79441476D01*
X56813000Y-79320155D01*
X56813000Y-78127000D01*
X57067000Y-78127000D01*
X57067000Y-79320155D01*
X57296890Y-79441476D01*
X57444099Y-79396825D01*
X57706920Y-79271641D01*
X57940269Y-79097588D01*
X58135178Y-78881355D01*
X58284157Y-78631252D01*
X58381481Y-78356891D01*
X58260814Y-78127000D01*
X57067000Y-78127000D01*
X56813000Y-78127000D01*
X56793000Y-78127000D01*
X56793000Y-77873000D01*
X56813000Y-77873000D01*
X56813000Y-76679845D01*
X57067000Y-76679845D01*
X57067000Y-77873000D01*
X58260814Y-77873000D01*
X58381481Y-77643109D01*
X58284157Y-77368748D01*
X58135178Y-77118645D01*
X57940269Y-76902412D01*
X57706920Y-76728359D01*
X57444099Y-76603175D01*
X57296890Y-76558524D01*
X57067000Y-76679845D01*
X56813000Y-76679845D01*
X56583110Y-76558524D01*
X56435901Y-76603175D01*
X56173080Y-76728359D01*
X56022383Y-76840763D01*
X55948064Y-76729537D01*
X55718527Y-76500000D01*
X55948064Y-76270463D01*
X56022383Y-76159237D01*
X56173080Y-76271641D01*
X56435901Y-76396825D01*
X56583110Y-76441476D01*
X56813000Y-76320155D01*
X56813000Y-75127000D01*
X57067000Y-75127000D01*
X57067000Y-76320155D01*
X57296890Y-76441476D01*
X57444099Y-76396825D01*
X57706920Y-76271641D01*
X57940269Y-76097588D01*
X58135178Y-75881355D01*
X58284157Y-75631252D01*
X58381481Y-75356891D01*
X58260814Y-75127000D01*
X57067000Y-75127000D01*
X56813000Y-75127000D01*
X56793000Y-75127000D01*
X56793000Y-74873000D01*
X56813000Y-74873000D01*
X56813000Y-73679845D01*
X57067000Y-73679845D01*
X57067000Y-74873000D01*
X58260814Y-74873000D01*
X58381481Y-74643109D01*
X58284157Y-74368748D01*
X58153856Y-74150000D01*
X60001470Y-74150000D01*
X60001470Y-75850000D01*
X60023539Y-76074067D01*
X60088897Y-76289523D01*
X60195032Y-76488089D01*
X60204807Y-76500000D01*
X60195032Y-76511911D01*
X60088897Y-76710477D01*
X60023539Y-76925933D01*
X60001470Y-77150000D01*
X60001470Y-78850000D01*
X60023539Y-79074067D01*
X60088897Y-79289523D01*
X60195032Y-79488089D01*
X60337867Y-79662133D01*
X60511911Y-79804968D01*
X60710477Y-79911103D01*
X60925933Y-79976461D01*
X61150000Y-79998530D01*
X62850000Y-79998530D01*
X63074067Y-79976461D01*
X63289523Y-79911103D01*
X63488089Y-79804968D01*
X63562557Y-79743853D01*
X63595961Y-79766173D01*
X63958663Y-79916410D01*
X64343707Y-79993000D01*
X64736293Y-79993000D01*
X65121337Y-79916410D01*
X65484039Y-79766173D01*
X65810000Y-79548373D01*
X66135961Y-79766173D01*
X66498663Y-79916410D01*
X66883707Y-79993000D01*
X67276293Y-79993000D01*
X67661337Y-79916410D01*
X68024039Y-79766173D01*
X68350000Y-79548373D01*
X68675961Y-79766173D01*
X69038663Y-79916410D01*
X69423707Y-79993000D01*
X69816293Y-79993000D01*
X70201337Y-79916410D01*
X70564039Y-79766173D01*
X70890000Y-79548373D01*
X71215961Y-79766173D01*
X71578663Y-79916410D01*
X71963707Y-79993000D01*
X72356293Y-79993000D01*
X72741337Y-79916410D01*
X73104039Y-79766173D01*
X73430000Y-79548373D01*
X73755961Y-79766173D01*
X74118663Y-79916410D01*
X74503707Y-79993000D01*
X74896293Y-79993000D01*
X75281337Y-79916410D01*
X75644039Y-79766173D01*
X75970000Y-79548373D01*
X76295961Y-79766173D01*
X76658663Y-79916410D01*
X77043707Y-79993000D01*
X77436293Y-79993000D01*
X77821337Y-79916410D01*
X78184039Y-79766173D01*
X78510000Y-79548373D01*
X78835961Y-79766173D01*
X79198663Y-79916410D01*
X79583707Y-79993000D01*
X79976293Y-79993000D01*
X80361337Y-79916410D01*
X80724039Y-79766173D01*
X81050000Y-79548373D01*
X81375961Y-79766173D01*
X81738663Y-79916410D01*
X82123707Y-79993000D01*
X82516293Y-79993000D01*
X82901337Y-79916410D01*
X83264039Y-79766173D01*
X83590000Y-79548373D01*
X83915961Y-79766173D01*
X84278663Y-79916410D01*
X84663707Y-79993000D01*
X85056293Y-79993000D01*
X85441337Y-79916410D01*
X85804039Y-79766173D01*
X86130000Y-79548373D01*
X86455961Y-79766173D01*
X86818663Y-79916410D01*
X87203707Y-79993000D01*
X87596293Y-79993000D01*
X87981337Y-79916410D01*
X88344039Y-79766173D01*
X88670463Y-79548064D01*
X88948064Y-79270463D01*
X89022383Y-79159237D01*
X89173080Y-79271641D01*
X89435901Y-79396825D01*
X89583110Y-79441476D01*
X89813000Y-79320155D01*
X89813000Y-78127000D01*
X90067000Y-78127000D01*
X90067000Y-79320155D01*
X90296890Y-79441476D01*
X90444099Y-79396825D01*
X90706920Y-79271641D01*
X90940269Y-79097588D01*
X91135178Y-78881355D01*
X91284157Y-78631252D01*
X91381481Y-78356891D01*
X91260814Y-78127000D01*
X90067000Y-78127000D01*
X89813000Y-78127000D01*
X89793000Y-78127000D01*
X89793000Y-77873000D01*
X89813000Y-77873000D01*
X89813000Y-76679845D01*
X90067000Y-76679845D01*
X90067000Y-77873000D01*
X91260814Y-77873000D01*
X91381481Y-77643109D01*
X91284157Y-77368748D01*
X91135178Y-77118645D01*
X90940269Y-76902412D01*
X90706920Y-76728359D01*
X90444099Y-76603175D01*
X90296890Y-76558524D01*
X90067000Y-76679845D01*
X89813000Y-76679845D01*
X89583110Y-76558524D01*
X89435901Y-76603175D01*
X89173080Y-76728359D01*
X89022383Y-76840763D01*
X88948064Y-76729537D01*
X88718527Y-76500000D01*
X88948064Y-76270463D01*
X89022383Y-76159237D01*
X89173080Y-76271641D01*
X89435901Y-76396825D01*
X89583110Y-76441476D01*
X89813000Y-76320155D01*
X89813000Y-75127000D01*
X90067000Y-75127000D01*
X90067000Y-76320155D01*
X90296890Y-76441476D01*
X90444099Y-76396825D01*
X90706920Y-76271641D01*
X90940269Y-76097588D01*
X91135178Y-75881355D01*
X91284157Y-75631252D01*
X91381481Y-75356891D01*
X91260814Y-75127000D01*
X90067000Y-75127000D01*
X89813000Y-75127000D01*
X89793000Y-75127000D01*
X89793000Y-74873000D01*
X89813000Y-74873000D01*
X89813000Y-73679845D01*
X90067000Y-73679845D01*
X90067000Y-74873000D01*
X91260814Y-74873000D01*
X91381481Y-74643109D01*
X91284157Y-74368748D01*
X91135178Y-74118645D01*
X90940269Y-73902412D01*
X90706920Y-73728359D01*
X90444099Y-73603175D01*
X90296890Y-73558524D01*
X90067000Y-73679845D01*
X89813000Y-73679845D01*
X89583110Y-73558524D01*
X89435901Y-73603175D01*
X89173080Y-73728359D01*
X89022383Y-73840763D01*
X88948064Y-73729537D01*
X88670463Y-73451936D01*
X88344039Y-73233827D01*
X87981337Y-73083590D01*
X87596293Y-73007000D01*
X87203707Y-73007000D01*
X87143237Y-73019028D01*
X77304464Y-63180256D01*
X77266276Y-63133724D01*
X77080629Y-62981367D01*
X76868825Y-62868156D01*
X76639005Y-62798441D01*
X76459893Y-62780800D01*
X76400000Y-62774901D01*
X76340107Y-62780800D01*
X76003259Y-62780800D01*
X75819927Y-62506424D01*
X75493576Y-62180073D01*
X75109827Y-61923660D01*
X74683428Y-61747040D01*
X74230765Y-61657000D01*
X73769235Y-61657000D01*
X73316572Y-61747040D01*
X72890173Y-61923660D01*
X72506424Y-62180073D01*
X72180073Y-62506424D01*
X71996741Y-62780800D01*
X67003259Y-62780800D01*
X66819927Y-62506424D01*
X66493576Y-62180073D01*
X66455348Y-62154530D01*
X82341588Y-46268292D01*
X82519833Y-46194460D01*
X82747986Y-46042014D01*
X82942014Y-45847986D01*
X83094460Y-45619833D01*
X83199468Y-45366323D01*
X83228733Y-45219200D01*
X90614264Y-45219200D01*
X90614264Y-45536271D01*
X90687473Y-45904313D01*
X90814628Y-46211295D01*
X90634678Y-45941981D01*
X90369334Y-45676637D01*
X90057324Y-45468158D01*
X89710636Y-45324556D01*
X89342594Y-45251347D01*
X88967342Y-45251347D01*
X88599300Y-45324556D01*
X88252612Y-45468158D01*
X87940602Y-45676637D01*
X87675258Y-45941981D01*
X87466779Y-46253991D01*
X87323177Y-46600679D01*
X87249968Y-46968721D01*
X87249968Y-47343973D01*
X87323177Y-47712015D01*
X87466779Y-48058703D01*
X87675258Y-48370713D01*
X87940602Y-48636057D01*
X88252612Y-48844536D01*
X88599300Y-48988138D01*
X88967342Y-49061347D01*
X89342594Y-49061347D01*
X89710636Y-48988138D01*
X90057324Y-48844536D01*
X90369334Y-48636057D01*
X90634678Y-48370713D01*
X90843157Y-48058703D01*
X90986759Y-47712015D01*
X91059968Y-47343973D01*
X91059968Y-46968721D01*
X90986759Y-46600679D01*
X90859604Y-46293697D01*
X91039554Y-46563011D01*
X91304898Y-46828355D01*
X91616908Y-47036834D01*
X91963596Y-47180436D01*
X92331638Y-47253645D01*
X92700056Y-47253645D01*
X93018802Y-47572392D01*
X93018801Y-60750393D01*
X88824429Y-56556021D01*
X88824429Y-51018327D01*
X88830328Y-50958434D01*
X88806788Y-50719429D01*
X88764470Y-50579927D01*
X88737073Y-50489610D01*
X88729903Y-50476196D01*
X88748230Y-50384062D01*
X88748230Y-50008810D01*
X88675021Y-49640768D01*
X88531419Y-49294080D01*
X88322940Y-48982070D01*
X88057596Y-48716726D01*
X87745586Y-48508247D01*
X87398898Y-48364645D01*
X87030856Y-48291436D01*
X86655604Y-48291436D01*
X86287562Y-48364645D01*
X85940874Y-48508247D01*
X85628864Y-48716726D01*
X85363520Y-48982070D01*
X85155041Y-49294080D01*
X85011439Y-49640768D01*
X84938230Y-50008810D01*
X84938230Y-50384062D01*
X85011439Y-50752104D01*
X85155041Y-51098792D01*
X85363520Y-51410802D01*
X85628864Y-51676146D01*
X85940874Y-51884625D01*
X86287562Y-52028227D01*
X86386030Y-52047814D01*
X86386029Y-54651138D01*
X86182997Y-54651138D01*
X85814955Y-54724347D01*
X85468267Y-54867949D01*
X85156257Y-55076428D01*
X84890913Y-55341772D01*
X84682434Y-55653782D01*
X84538832Y-56000470D01*
X84465623Y-56368512D01*
X84465623Y-56743764D01*
X84538832Y-57111806D01*
X84682434Y-57458494D01*
X84890913Y-57770504D01*
X85156257Y-58035848D01*
X85468267Y-58244327D01*
X85814955Y-58387929D01*
X86182997Y-58461138D01*
X86558249Y-58461138D01*
X86926291Y-58387929D01*
X87125434Y-58305442D01*
X87144050Y-58324058D01*
X86993248Y-58424821D01*
X86727904Y-58690165D01*
X86519425Y-59002175D01*
X86375823Y-59348863D01*
X86302614Y-59716905D01*
X86302614Y-60092157D01*
X86375823Y-60460199D01*
X86519425Y-60806887D01*
X86727904Y-61118897D01*
X86993248Y-61384241D01*
X87305258Y-61592720D01*
X87651946Y-61736322D01*
X88019988Y-61809531D01*
X88395240Y-61809531D01*
X88763282Y-61736322D01*
X89109970Y-61592720D01*
X89421980Y-61384241D01*
X89687324Y-61118897D01*
X89788087Y-60968095D01*
X89791664Y-60971672D01*
X89788051Y-60975285D01*
X89579572Y-61287295D01*
X89435970Y-61633983D01*
X89362761Y-62002025D01*
X89362761Y-62377277D01*
X89435970Y-62745319D01*
X89579572Y-63092007D01*
X89788051Y-63404017D01*
X90053395Y-63669361D01*
X90365405Y-63877840D01*
X90712093Y-64021442D01*
X91080135Y-64094651D01*
X91455387Y-64094651D01*
X91823429Y-64021442D01*
X92170117Y-63877840D01*
X92482127Y-63669361D01*
X92485740Y-63665748D01*
X94270801Y-65450810D01*
X94270800Y-71297328D01*
X94255540Y-71320167D01*
X94150532Y-71573677D01*
X94097000Y-71842801D01*
X94097000Y-72117199D01*
X94150532Y-72386323D01*
X94255540Y-72639833D01*
X94406953Y-72866439D01*
X94271922Y-73001470D01*
X94150000Y-73001470D01*
X93925933Y-73023539D01*
X93710477Y-73088897D01*
X93511911Y-73195032D01*
X93337867Y-73337867D01*
X93195032Y-73511911D01*
X93088897Y-73710477D01*
X93023539Y-73925933D01*
X93001470Y-74150000D01*
X93001470Y-75850000D01*
X93023539Y-76074067D01*
X93088897Y-76289523D01*
X93195032Y-76488089D01*
X93204807Y-76500000D01*
X93195032Y-76511911D01*
X93088897Y-76710477D01*
X93023539Y-76925933D01*
X93001470Y-77150000D01*
X93001470Y-78850000D01*
X93023539Y-79074067D01*
X93088897Y-79289523D01*
X93195032Y-79488089D01*
X93337867Y-79662133D01*
X93511911Y-79804968D01*
X93710477Y-79911103D01*
X93925933Y-79976461D01*
X94150000Y-79998530D01*
X95850000Y-79998530D01*
X96074067Y-79976461D01*
X96289523Y-79911103D01*
X96488089Y-79804968D01*
X96562557Y-79743853D01*
X96595961Y-79766173D01*
X96958663Y-79916410D01*
X97343707Y-79993000D01*
X97736293Y-79993000D01*
X98121337Y-79916410D01*
X98484039Y-79766173D01*
X98810000Y-79548373D01*
X99135961Y-79766173D01*
X99498663Y-79916410D01*
X99883707Y-79993000D01*
X100276293Y-79993000D01*
X100661337Y-79916410D01*
X101024039Y-79766173D01*
X101350000Y-79548373D01*
X101675961Y-79766173D01*
X102038663Y-79916410D01*
X102423707Y-79993000D01*
X102816293Y-79993000D01*
X103201337Y-79916410D01*
X103564039Y-79766173D01*
X103890000Y-79548373D01*
X104215961Y-79766173D01*
X104578663Y-79916410D01*
X104963707Y-79993000D01*
X105356293Y-79993000D01*
X105741337Y-79916410D01*
X106104039Y-79766173D01*
X106430000Y-79548373D01*
X106755961Y-79766173D01*
X107118663Y-79916410D01*
X107503707Y-79993000D01*
X107896293Y-79993000D01*
X108281337Y-79916410D01*
X108644039Y-79766173D01*
X108970000Y-79548373D01*
X109295961Y-79766173D01*
X109658663Y-79916410D01*
X110043707Y-79993000D01*
X110436293Y-79993000D01*
X110821337Y-79916410D01*
X111184039Y-79766173D01*
X111510000Y-79548373D01*
X111835961Y-79766173D01*
X112198663Y-79916410D01*
X112583707Y-79993000D01*
X112976293Y-79993000D01*
X113361337Y-79916410D01*
X113724039Y-79766173D01*
X114050000Y-79548373D01*
X114375961Y-79766173D01*
X114738663Y-79916410D01*
X115123707Y-79993000D01*
X115516293Y-79993000D01*
X115901337Y-79916410D01*
X116264039Y-79766173D01*
X116590000Y-79548373D01*
X116915961Y-79766173D01*
X117278663Y-79916410D01*
X117663707Y-79993000D01*
X118056293Y-79993000D01*
X118441337Y-79916410D01*
X118804039Y-79766173D01*
X119130000Y-79548373D01*
X119455961Y-79766173D01*
X119818663Y-79916410D01*
X120203707Y-79993000D01*
X120596293Y-79993000D01*
X120656396Y-79981045D01*
X120797972Y-80097234D01*
X121009776Y-80210445D01*
X121169880Y-80259012D01*
X121239595Y-80280160D01*
X121478600Y-80303700D01*
X121538493Y-80297801D01*
X124661506Y-80297801D01*
X124721399Y-80303700D01*
X124781292Y-80297801D01*
X124960404Y-80280160D01*
X125190224Y-80210445D01*
X125402028Y-80097234D01*
X125587675Y-79944877D01*
X125625863Y-79898345D01*
X127324943Y-78199265D01*
X127324943Y-78263470D01*
X127427744Y-78780285D01*
X127629396Y-79267114D01*
X127922148Y-79705249D01*
X128294751Y-80077852D01*
X128732886Y-80370604D01*
X129219715Y-80572256D01*
X129736530Y-80675057D01*
X130263470Y-80675057D01*
X130780285Y-80572256D01*
X131267114Y-80370604D01*
X131705249Y-80077852D01*
X132077852Y-79705249D01*
X132370604Y-79267114D01*
X132572256Y-78780285D01*
X132675057Y-78263470D01*
X132675057Y-77736530D01*
X194324943Y-77736530D01*
X194324943Y-78263470D01*
X194427744Y-78780285D01*
X194629396Y-79267114D01*
X194922148Y-79705249D01*
X195294751Y-80077852D01*
X195732886Y-80370604D01*
X196219715Y-80572256D01*
X196736530Y-80675057D01*
X197263470Y-80675057D01*
X197780285Y-80572256D01*
X198267114Y-80370604D01*
X198705249Y-80077852D01*
X199077852Y-79705249D01*
X199370604Y-79267114D01*
X199572256Y-78780285D01*
X199580959Y-78736530D01*
X226324943Y-78736530D01*
X226324943Y-79263470D01*
X226427744Y-79780285D01*
X226629396Y-80267114D01*
X226922148Y-80705249D01*
X227294751Y-81077852D01*
X227732886Y-81370604D01*
X228219715Y-81572256D01*
X228736530Y-81675057D01*
X229263470Y-81675057D01*
X229780285Y-81572256D01*
X230267114Y-81370604D01*
X230705249Y-81077852D01*
X231077852Y-80705249D01*
X231370604Y-80267114D01*
X231572256Y-79780285D01*
X231675057Y-79263470D01*
X231675057Y-78736530D01*
X231572256Y-78219715D01*
X231370604Y-77732886D01*
X231077852Y-77294751D01*
X230705249Y-76922148D01*
X230267114Y-76629396D01*
X229780285Y-76427744D01*
X229263470Y-76324943D01*
X228736530Y-76324943D01*
X228219715Y-76427744D01*
X227732886Y-76629396D01*
X227294751Y-76922148D01*
X226922148Y-77294751D01*
X226629396Y-77732886D01*
X226427744Y-78219715D01*
X226324943Y-78736530D01*
X199580959Y-78736530D01*
X199675057Y-78263470D01*
X199675057Y-77736530D01*
X199572256Y-77219715D01*
X199370604Y-76732886D01*
X199077852Y-76294751D01*
X198705249Y-75922148D01*
X198267114Y-75629396D01*
X197780285Y-75427744D01*
X197263470Y-75324943D01*
X196736530Y-75324943D01*
X196219715Y-75427744D01*
X195732886Y-75629396D01*
X195294751Y-75922148D01*
X194922148Y-76294751D01*
X194629396Y-76732886D01*
X194427744Y-77219715D01*
X194324943Y-77736530D01*
X132675057Y-77736530D01*
X132572256Y-77219715D01*
X132370604Y-76732886D01*
X132077852Y-76294751D01*
X132002301Y-76219200D01*
X138940107Y-76219200D01*
X139000000Y-76225099D01*
X139059893Y-76219200D01*
X139239005Y-76201559D01*
X139468825Y-76131844D01*
X139680629Y-76018633D01*
X139866276Y-75866276D01*
X139904464Y-75819744D01*
X149445586Y-66278622D01*
X149769235Y-66343000D01*
X150230765Y-66343000D01*
X150683428Y-66252960D01*
X151109827Y-66076340D01*
X151493576Y-65819927D01*
X151819927Y-65493576D01*
X152003259Y-65219200D01*
X156996741Y-65219200D01*
X157180073Y-65493576D01*
X157506424Y-65819927D01*
X157890173Y-66076340D01*
X158316572Y-66252960D01*
X158769235Y-66343000D01*
X159230765Y-66343000D01*
X159554414Y-66278622D01*
X168095541Y-74819750D01*
X168133724Y-74866276D01*
X168319371Y-75018633D01*
X168526683Y-75129443D01*
X168531175Y-75131844D01*
X168760995Y-75201559D01*
X169000000Y-75225099D01*
X169059893Y-75219200D01*
X198996741Y-75219200D01*
X199180073Y-75493576D01*
X199506424Y-75819927D01*
X199890173Y-76076340D01*
X200316572Y-76252960D01*
X200769235Y-76343000D01*
X201230765Y-76343000D01*
X201683428Y-76252960D01*
X202109827Y-76076340D01*
X202493576Y-75819927D01*
X202819927Y-75493576D01*
X203076340Y-75109827D01*
X203252960Y-74683428D01*
X203343000Y-74230765D01*
X203343000Y-73769235D01*
X203252960Y-73316572D01*
X203076340Y-72890173D01*
X202819927Y-72506424D01*
X202493576Y-72180073D01*
X202109827Y-71923660D01*
X201683428Y-71747040D01*
X201230765Y-71657000D01*
X200769235Y-71657000D01*
X200316572Y-71747040D01*
X199890173Y-71923660D01*
X199506424Y-72180073D01*
X199180073Y-72506424D01*
X198996741Y-72780800D01*
X198676816Y-72780800D01*
X198824460Y-72559833D01*
X198929468Y-72306323D01*
X198983000Y-72037199D01*
X198983000Y-71762801D01*
X198929468Y-71493677D01*
X198824460Y-71240167D01*
X198809200Y-71217329D01*
X198809200Y-62002025D01*
X209362761Y-62002025D01*
X209362761Y-62377277D01*
X209435970Y-62745319D01*
X209579572Y-63092007D01*
X209788051Y-63404017D01*
X210053395Y-63669361D01*
X210365405Y-63877840D01*
X210712093Y-64021442D01*
X211080135Y-64094651D01*
X211455387Y-64094651D01*
X211823429Y-64021442D01*
X212170117Y-63877840D01*
X212482127Y-63669361D01*
X212747471Y-63404017D01*
X212955950Y-63092007D01*
X213099552Y-62745319D01*
X213172761Y-62377277D01*
X213172761Y-62002025D01*
X213099552Y-61633983D01*
X212955950Y-61287295D01*
X212747471Y-60975285D01*
X212482127Y-60709941D01*
X212170117Y-60501462D01*
X211823429Y-60357860D01*
X211455387Y-60284651D01*
X211080135Y-60284651D01*
X210712093Y-60357860D01*
X210365405Y-60501462D01*
X210053395Y-60709941D01*
X209788051Y-60975285D01*
X209579572Y-61287295D01*
X209435970Y-61633983D01*
X209362761Y-62002025D01*
X198809200Y-62002025D01*
X198809200Y-59954674D01*
X202395362Y-56368512D01*
X204465623Y-56368512D01*
X204465623Y-56743764D01*
X204538832Y-57111806D01*
X204682434Y-57458494D01*
X204890913Y-57770504D01*
X205156257Y-58035848D01*
X205468267Y-58244327D01*
X205814955Y-58387929D01*
X206182997Y-58461138D01*
X206558249Y-58461138D01*
X206926291Y-58387929D01*
X207247713Y-58254792D01*
X206993248Y-58424821D01*
X206727904Y-58690165D01*
X206519425Y-59002175D01*
X206375823Y-59348863D01*
X206302614Y-59716905D01*
X206302614Y-60092157D01*
X206375823Y-60460199D01*
X206519425Y-60806887D01*
X206727904Y-61118897D01*
X206993248Y-61384241D01*
X207305258Y-61592720D01*
X207651946Y-61736322D01*
X208019988Y-61809531D01*
X208395240Y-61809531D01*
X208763282Y-61736322D01*
X209109970Y-61592720D01*
X209421980Y-61384241D01*
X209687324Y-61118897D01*
X209895803Y-60806887D01*
X210039405Y-60460199D01*
X210112614Y-60092157D01*
X210112614Y-59716905D01*
X210039405Y-59348863D01*
X209895803Y-59002175D01*
X209687324Y-58690165D01*
X209421980Y-58424821D01*
X209109970Y-58216342D01*
X208763282Y-58072740D01*
X208395240Y-57999531D01*
X208019988Y-57999531D01*
X207651946Y-58072740D01*
X207330524Y-58205877D01*
X207584989Y-58035848D01*
X207850333Y-57770504D01*
X208058812Y-57458494D01*
X208202414Y-57111806D01*
X208275623Y-56743764D01*
X208275623Y-56368512D01*
X208202414Y-56000470D01*
X208058812Y-55653782D01*
X207850333Y-55341772D01*
X207584989Y-55076428D01*
X207272979Y-54867949D01*
X206926291Y-54724347D01*
X206558249Y-54651138D01*
X206182997Y-54651138D01*
X205814955Y-54724347D01*
X205468267Y-54867949D01*
X205156257Y-55076428D01*
X204890913Y-55341772D01*
X204682434Y-55653782D01*
X204538832Y-56000470D01*
X204465623Y-56368512D01*
X202395362Y-56368512D01*
X206662440Y-52101436D01*
X207030856Y-52101436D01*
X207398898Y-52028227D01*
X207745586Y-51884625D01*
X208057596Y-51676146D01*
X208322940Y-51410802D01*
X208531419Y-51098792D01*
X208675021Y-50752104D01*
X208748230Y-50384062D01*
X208748230Y-50008810D01*
X208675021Y-49640768D01*
X208531419Y-49294080D01*
X208322940Y-48982070D01*
X208057596Y-48716726D01*
X207745586Y-48508247D01*
X207398898Y-48364645D01*
X207030856Y-48291436D01*
X206655604Y-48291436D01*
X206287562Y-48364645D01*
X205940874Y-48508247D01*
X205628864Y-48716726D01*
X205363520Y-48982070D01*
X205155041Y-49294080D01*
X205011439Y-49640768D01*
X204938230Y-50008810D01*
X204938230Y-50377226D01*
X196770251Y-58545207D01*
X196723725Y-58583390D01*
X196571368Y-58769037D01*
X196495738Y-58910532D01*
X196458157Y-58980841D01*
X196388441Y-59210662D01*
X196364901Y-59449666D01*
X196370801Y-59509569D01*
X196370800Y-71217329D01*
X196355540Y-71240167D01*
X196250532Y-71493677D01*
X196197000Y-71762801D01*
X196197000Y-72037199D01*
X196250532Y-72306323D01*
X196355540Y-72559833D01*
X196503184Y-72780800D01*
X169505009Y-72780800D01*
X165018400Y-68294191D01*
X166030536Y-68294191D01*
X166030536Y-68568589D01*
X166084068Y-68837713D01*
X166189076Y-69091223D01*
X166341522Y-69319376D01*
X166535550Y-69513404D01*
X166763703Y-69665850D01*
X167017213Y-69770858D01*
X167286337Y-69824390D01*
X167560735Y-69824390D01*
X167829859Y-69770858D01*
X168083369Y-69665850D01*
X168311522Y-69513404D01*
X168505550Y-69319376D01*
X168657996Y-69091223D01*
X168763004Y-68837713D01*
X168816536Y-68568589D01*
X168816536Y-68294191D01*
X168763004Y-68025067D01*
X168657996Y-67771557D01*
X168642736Y-67748719D01*
X168642736Y-62002025D01*
X174362761Y-62002025D01*
X174362761Y-62377277D01*
X174435970Y-62745319D01*
X174579572Y-63092007D01*
X174788051Y-63404017D01*
X175053395Y-63669361D01*
X175365405Y-63877840D01*
X175712093Y-64021442D01*
X176080135Y-64094651D01*
X176455387Y-64094651D01*
X176823429Y-64021442D01*
X177170117Y-63877840D01*
X177482127Y-63669361D01*
X177747471Y-63404017D01*
X177955950Y-63092007D01*
X178099552Y-62745319D01*
X178172761Y-62377277D01*
X178172761Y-62002025D01*
X178099552Y-61633983D01*
X177955950Y-61287295D01*
X177747471Y-60975285D01*
X177482127Y-60709941D01*
X177170117Y-60501462D01*
X176823429Y-60357860D01*
X176455387Y-60284651D01*
X176080135Y-60284651D01*
X175712093Y-60357860D01*
X175365405Y-60501462D01*
X175053395Y-60709941D01*
X174788051Y-60975285D01*
X174579572Y-61287295D01*
X174435970Y-61633983D01*
X174362761Y-62002025D01*
X168642736Y-62002025D01*
X168642736Y-56368512D01*
X169465623Y-56368512D01*
X169465623Y-56743764D01*
X169538832Y-57111806D01*
X169682434Y-57458494D01*
X169890913Y-57770504D01*
X170156257Y-58035848D01*
X170468267Y-58244327D01*
X170814955Y-58387929D01*
X171182997Y-58461138D01*
X171558249Y-58461138D01*
X171926291Y-58387929D01*
X172247713Y-58254792D01*
X171993248Y-58424821D01*
X171727904Y-58690165D01*
X171519425Y-59002175D01*
X171375823Y-59348863D01*
X171302614Y-59716905D01*
X171302614Y-60092157D01*
X171375823Y-60460199D01*
X171519425Y-60806887D01*
X171727904Y-61118897D01*
X171993248Y-61384241D01*
X172305258Y-61592720D01*
X172651946Y-61736322D01*
X173019988Y-61809531D01*
X173395240Y-61809531D01*
X173763282Y-61736322D01*
X174109970Y-61592720D01*
X174421980Y-61384241D01*
X174687324Y-61118897D01*
X174895803Y-60806887D01*
X175039405Y-60460199D01*
X175112614Y-60092157D01*
X175112614Y-59716905D01*
X175039405Y-59348863D01*
X174895803Y-59002175D01*
X174687324Y-58690165D01*
X174421980Y-58424821D01*
X174109970Y-58216342D01*
X173763282Y-58072740D01*
X173395240Y-57999531D01*
X173019988Y-57999531D01*
X172651946Y-58072740D01*
X172330524Y-58205877D01*
X172584989Y-58035848D01*
X172850333Y-57770504D01*
X173058812Y-57458494D01*
X173202414Y-57111806D01*
X173275623Y-56743764D01*
X173275623Y-56368512D01*
X173202414Y-56000470D01*
X173058812Y-55653782D01*
X172850333Y-55341772D01*
X172584989Y-55076428D01*
X172272979Y-54867949D01*
X171926291Y-54724347D01*
X171558249Y-54651138D01*
X171182997Y-54651138D01*
X170814955Y-54724347D01*
X170468267Y-54867949D01*
X170156257Y-55076428D01*
X169890913Y-55341772D01*
X169682434Y-55653782D01*
X169538832Y-56000470D01*
X169465623Y-56368512D01*
X168642736Y-56368512D01*
X168642736Y-55121138D01*
X171662439Y-52101436D01*
X172030856Y-52101436D01*
X172398898Y-52028227D01*
X172745586Y-51884625D01*
X173057596Y-51676146D01*
X173322940Y-51410802D01*
X173531419Y-51098792D01*
X173675021Y-50752104D01*
X173748230Y-50384062D01*
X173748230Y-50008810D01*
X173675021Y-49640768D01*
X173531419Y-49294080D01*
X173322940Y-48982070D01*
X173057596Y-48716726D01*
X172745586Y-48508247D01*
X172398898Y-48364645D01*
X172030856Y-48291436D01*
X171655604Y-48291436D01*
X171287562Y-48364645D01*
X170940874Y-48508247D01*
X170628864Y-48716726D01*
X170363520Y-48982070D01*
X170155041Y-49294080D01*
X170011439Y-49640768D01*
X169938230Y-50008810D01*
X169938230Y-50377227D01*
X166603792Y-53711666D01*
X166557260Y-53749854D01*
X166404903Y-53935502D01*
X166291692Y-54147306D01*
X166227783Y-54357986D01*
X166221977Y-54377126D01*
X166198437Y-54616130D01*
X166204336Y-54676023D01*
X166204337Y-67748717D01*
X166189076Y-67771557D01*
X166084068Y-68025067D01*
X166030536Y-68294191D01*
X165018400Y-68294191D01*
X161278622Y-64554414D01*
X161343000Y-64230765D01*
X161343000Y-63769235D01*
X161252960Y-63316572D01*
X161076340Y-62890173D01*
X160819927Y-62506424D01*
X160493576Y-62180073D01*
X160109827Y-61923660D01*
X159683428Y-61747040D01*
X159230765Y-61657000D01*
X158769235Y-61657000D01*
X158316572Y-61747040D01*
X157890173Y-61923660D01*
X157506424Y-62180073D01*
X157180073Y-62506424D01*
X156996741Y-62780800D01*
X152003259Y-62780800D01*
X151819927Y-62506424D01*
X151493576Y-62180073D01*
X151109827Y-61923660D01*
X150683428Y-61747040D01*
X150230765Y-61657000D01*
X149769235Y-61657000D01*
X149316572Y-61747040D01*
X148890173Y-61923660D01*
X148506424Y-62180073D01*
X148180073Y-62506424D01*
X147923660Y-62890173D01*
X147747040Y-63316572D01*
X147657000Y-63769235D01*
X147657000Y-64230765D01*
X147721378Y-64554414D01*
X144104897Y-68170895D01*
X144060810Y-68064461D01*
X143908364Y-67836308D01*
X143714336Y-67642280D01*
X143486183Y-67489834D01*
X143232673Y-67384826D01*
X142963549Y-67331294D01*
X142689151Y-67331294D01*
X142420027Y-67384826D01*
X142166517Y-67489834D01*
X142143679Y-67505094D01*
X100333199Y-67505094D01*
X100273306Y-67499195D01*
X100034301Y-67522735D01*
X99804480Y-67592450D01*
X99730704Y-67631885D01*
X99592677Y-67705661D01*
X99407030Y-67858018D01*
X99368847Y-67904544D01*
X96709200Y-70564192D01*
X96709200Y-65005692D01*
X96715099Y-64945799D01*
X96711745Y-64911745D01*
X96872014Y-65072014D01*
X97100167Y-65224460D01*
X97353677Y-65329468D01*
X97622801Y-65383000D01*
X97897199Y-65383000D01*
X98166323Y-65329468D01*
X98419833Y-65224460D01*
X98647986Y-65072014D01*
X98842014Y-64877986D01*
X98994460Y-64649833D01*
X99099468Y-64396323D01*
X99153000Y-64127199D01*
X99153000Y-64048277D01*
X99287907Y-64021442D01*
X99634595Y-63877840D01*
X99946605Y-63669361D01*
X100211949Y-63404017D01*
X100420428Y-63092007D01*
X100564030Y-62745319D01*
X100637239Y-62377277D01*
X100637239Y-62114332D01*
X124362761Y-62114332D01*
X124362761Y-62377277D01*
X124435970Y-62745319D01*
X124579572Y-63092007D01*
X124788051Y-63404017D01*
X125053395Y-63669361D01*
X125365405Y-63877840D01*
X125712093Y-64021442D01*
X126080135Y-64094651D01*
X126455387Y-64094651D01*
X126823429Y-64021442D01*
X127170117Y-63877840D01*
X127482127Y-63669361D01*
X127747471Y-63404017D01*
X127955950Y-63092007D01*
X128099552Y-62745319D01*
X128172761Y-62377277D01*
X128172761Y-62002025D01*
X128099552Y-61633983D01*
X128078511Y-61583186D01*
X128093677Y-61589468D01*
X128362801Y-61643000D01*
X128637199Y-61643000D01*
X128669312Y-61636612D01*
X128520290Y-61785634D01*
X128311811Y-62097644D01*
X128168209Y-62444332D01*
X128095000Y-62812374D01*
X128095000Y-63187626D01*
X128168209Y-63555668D01*
X128311811Y-63902356D01*
X128520290Y-64214366D01*
X128785634Y-64479710D01*
X129097644Y-64688189D01*
X129444332Y-64831791D01*
X129812374Y-64905000D01*
X130187626Y-64905000D01*
X130555668Y-64831791D01*
X130902356Y-64688189D01*
X131214366Y-64479710D01*
X131479710Y-64214366D01*
X131688189Y-63902356D01*
X131831791Y-63555668D01*
X131905000Y-63187626D01*
X131905000Y-62812374D01*
X131831791Y-62444332D01*
X131688189Y-62097644D01*
X131624299Y-62002025D01*
X131827239Y-62002025D01*
X131827239Y-62377277D01*
X131900448Y-62745319D01*
X132044050Y-63092007D01*
X132252529Y-63404017D01*
X132517873Y-63669361D01*
X132829883Y-63877840D01*
X133176571Y-64021442D01*
X133544613Y-64094651D01*
X133919865Y-64094651D01*
X134287907Y-64021442D01*
X134634595Y-63877840D01*
X134946605Y-63669361D01*
X135211949Y-63404017D01*
X135420428Y-63092007D01*
X135564030Y-62745319D01*
X135637239Y-62377277D01*
X135637239Y-62002025D01*
X135564030Y-61633983D01*
X135420428Y-61287295D01*
X135211949Y-60975285D01*
X134946605Y-60709941D01*
X134634595Y-60501462D01*
X134287907Y-60357860D01*
X133919865Y-60284651D01*
X133544613Y-60284651D01*
X133176571Y-60357860D01*
X132829883Y-60501462D01*
X132517873Y-60709941D01*
X132252529Y-60975285D01*
X132044050Y-61287295D01*
X131900448Y-61633983D01*
X131827239Y-62002025D01*
X131624299Y-62002025D01*
X131479710Y-61785634D01*
X131219200Y-61525124D01*
X131219200Y-59716905D01*
X134887386Y-59716905D01*
X134887386Y-60092157D01*
X134960595Y-60460199D01*
X135104197Y-60806887D01*
X135312676Y-61118897D01*
X135578020Y-61384241D01*
X135890030Y-61592720D01*
X136236718Y-61736322D01*
X136604760Y-61809531D01*
X136980012Y-61809531D01*
X137348054Y-61736322D01*
X137694742Y-61592720D01*
X138006752Y-61384241D01*
X138272096Y-61118897D01*
X138480575Y-60806887D01*
X138624177Y-60460199D01*
X138697386Y-60092157D01*
X138697386Y-59716905D01*
X138624177Y-59348863D01*
X138480575Y-59002175D01*
X138272096Y-58690165D01*
X138006752Y-58424821D01*
X137752287Y-58254792D01*
X138073709Y-58387929D01*
X138441751Y-58461138D01*
X138817003Y-58461138D01*
X139185045Y-58387929D01*
X139531733Y-58244327D01*
X139843743Y-58035848D01*
X140109087Y-57770504D01*
X140317566Y-57458494D01*
X140461168Y-57111806D01*
X140534377Y-56743764D01*
X140534377Y-56368512D01*
X140461168Y-56000470D01*
X140317566Y-55653782D01*
X140109087Y-55341772D01*
X139843743Y-55076428D01*
X139531733Y-54867949D01*
X139185045Y-54724347D01*
X138823564Y-54652443D01*
X139100038Y-54652443D01*
X139468080Y-54579234D01*
X139814768Y-54435632D01*
X140126778Y-54227153D01*
X140392122Y-53961809D01*
X140600601Y-53649799D01*
X140744203Y-53303111D01*
X140817412Y-52935069D01*
X140817412Y-52559817D01*
X140744203Y-52191775D01*
X140600601Y-51845087D01*
X140392122Y-51533077D01*
X140126778Y-51267733D01*
X139814768Y-51059254D01*
X139468080Y-50915652D01*
X139100038Y-50842443D01*
X138724786Y-50842443D01*
X138356744Y-50915652D01*
X138010056Y-51059254D01*
X137698046Y-51267733D01*
X137432702Y-51533077D01*
X137224223Y-51845087D01*
X137080621Y-52191775D01*
X137007412Y-52559817D01*
X137007412Y-52935069D01*
X137080621Y-53303111D01*
X137224223Y-53649799D01*
X137432702Y-53961809D01*
X137698046Y-54227153D01*
X138010056Y-54435632D01*
X138356744Y-54579234D01*
X138718225Y-54651138D01*
X138441751Y-54651138D01*
X138073709Y-54724347D01*
X137727021Y-54867949D01*
X137415011Y-55076428D01*
X137149667Y-55341772D01*
X136941188Y-55653782D01*
X136797586Y-56000470D01*
X136724377Y-56368512D01*
X136724377Y-56743764D01*
X136797586Y-57111806D01*
X136941188Y-57458494D01*
X137149667Y-57770504D01*
X137415011Y-58035848D01*
X137669476Y-58205877D01*
X137348054Y-58072740D01*
X136980012Y-57999531D01*
X136604760Y-57999531D01*
X136236718Y-58072740D01*
X135890030Y-58216342D01*
X135578020Y-58424821D01*
X135312676Y-58690165D01*
X135104197Y-59002175D01*
X134960595Y-59348863D01*
X134887386Y-59716905D01*
X131219200Y-59716905D01*
X131219200Y-48976678D01*
X135685523Y-48976678D01*
X135685523Y-49351930D01*
X135758732Y-49719972D01*
X135902334Y-50066660D01*
X136110813Y-50378670D01*
X136376157Y-50644014D01*
X136688167Y-50852493D01*
X137034855Y-50996095D01*
X137402897Y-51069304D01*
X137778149Y-51069304D01*
X138146191Y-50996095D01*
X138492879Y-50852493D01*
X138804889Y-50644014D01*
X139070233Y-50378670D01*
X139278712Y-50066660D01*
X139422314Y-49719972D01*
X139495523Y-49351930D01*
X139495523Y-48976678D01*
X139422314Y-48608636D01*
X139278712Y-48261948D01*
X139070233Y-47949938D01*
X138804889Y-47684594D01*
X138492879Y-47476115D01*
X138146191Y-47332513D01*
X137778149Y-47259304D01*
X137402897Y-47259304D01*
X137034855Y-47332513D01*
X136688167Y-47476115D01*
X136376157Y-47684594D01*
X136110813Y-47949938D01*
X135902334Y-48261948D01*
X135758732Y-48608636D01*
X135685523Y-48976678D01*
X131219200Y-48976678D01*
X131219200Y-47889266D01*
X131225098Y-47829380D01*
X131219200Y-47769494D01*
X131219200Y-47769488D01*
X131201559Y-47590376D01*
X131131844Y-47360556D01*
X131018633Y-47148752D01*
X130866276Y-46963105D01*
X130843400Y-46944331D01*
X131142658Y-47003858D01*
X131517910Y-47003858D01*
X131885952Y-46930649D01*
X132232640Y-46787047D01*
X132544650Y-46578568D01*
X132809994Y-46313224D01*
X133018473Y-46001214D01*
X133162075Y-45654526D01*
X133235284Y-45286484D01*
X133235284Y-45219200D01*
X133440440Y-45219200D01*
X133422041Y-45237599D01*
X133213562Y-45549609D01*
X133069960Y-45896297D01*
X132996751Y-46264339D01*
X132996751Y-46639591D01*
X133069960Y-47007633D01*
X133213562Y-47354321D01*
X133422041Y-47666331D01*
X133687385Y-47931675D01*
X133999395Y-48140154D01*
X134346083Y-48283756D01*
X134714125Y-48356965D01*
X135089377Y-48356965D01*
X135457419Y-48283756D01*
X135804107Y-48140154D01*
X136116117Y-47931675D01*
X136381461Y-47666331D01*
X136589940Y-47354321D01*
X136733542Y-47007633D01*
X136806751Y-46639591D01*
X136806751Y-46264339D01*
X136733542Y-45896297D01*
X136589940Y-45549609D01*
X136381461Y-45237599D01*
X136363062Y-45219200D01*
X144734992Y-45219200D01*
X147721378Y-48205586D01*
X147657000Y-48529235D01*
X147657000Y-48990765D01*
X147747040Y-49443428D01*
X147923660Y-49869827D01*
X148180073Y-50253576D01*
X148506424Y-50579927D01*
X148890173Y-50836340D01*
X149316572Y-51012960D01*
X149769235Y-51103000D01*
X150230765Y-51103000D01*
X150683428Y-51012960D01*
X151109827Y-50836340D01*
X151493576Y-50579927D01*
X151819927Y-50253576D01*
X152076340Y-49869827D01*
X152252960Y-49443428D01*
X152343000Y-48990765D01*
X152343000Y-48529235D01*
X156657000Y-48529235D01*
X156657000Y-48990765D01*
X156747040Y-49443428D01*
X156923660Y-49869827D01*
X157180073Y-50253576D01*
X157506424Y-50579927D01*
X157890173Y-50836340D01*
X158316572Y-51012960D01*
X158769235Y-51103000D01*
X159230765Y-51103000D01*
X159683428Y-51012960D01*
X160109827Y-50836340D01*
X160493576Y-50579927D01*
X160819927Y-50253576D01*
X161076340Y-49869827D01*
X161252960Y-49443428D01*
X161343000Y-48990765D01*
X161343000Y-48529235D01*
X161278622Y-48205586D01*
X162916364Y-46567845D01*
X172336777Y-46567845D01*
X172323177Y-46600679D01*
X172249968Y-46968721D01*
X172249968Y-47343973D01*
X172323177Y-47712015D01*
X172466779Y-48058703D01*
X172675258Y-48370713D01*
X172940602Y-48636057D01*
X173252612Y-48844536D01*
X173599300Y-48988138D01*
X173967342Y-49061347D01*
X174342594Y-49061347D01*
X174710636Y-48988138D01*
X175057324Y-48844536D01*
X175369334Y-48636057D01*
X175634678Y-48370713D01*
X175843157Y-48058703D01*
X175986759Y-47712015D01*
X176059968Y-47343973D01*
X176059968Y-46968721D01*
X175986759Y-46600679D01*
X175973159Y-46567845D01*
X176044388Y-46567845D01*
X176304898Y-46828355D01*
X176616908Y-47036834D01*
X176963596Y-47180436D01*
X177331638Y-47253645D01*
X177700056Y-47253645D01*
X178780801Y-48334391D01*
X178780800Y-61525124D01*
X178520290Y-61785634D01*
X178311811Y-62097644D01*
X178168209Y-62444332D01*
X178095000Y-62812374D01*
X178095000Y-63187626D01*
X178168209Y-63555668D01*
X178311811Y-63902356D01*
X178520290Y-64214366D01*
X178785634Y-64479710D01*
X179097644Y-64688189D01*
X179444332Y-64831791D01*
X179812374Y-64905000D01*
X180187626Y-64905000D01*
X180555668Y-64831791D01*
X180902356Y-64688189D01*
X181214366Y-64479710D01*
X181479710Y-64214366D01*
X181688189Y-63902356D01*
X181831791Y-63555668D01*
X181905000Y-63187626D01*
X181905000Y-62812374D01*
X181831791Y-62444332D01*
X181688189Y-62097644D01*
X181624299Y-62002025D01*
X181827239Y-62002025D01*
X181827239Y-62377277D01*
X181900448Y-62745319D01*
X182044050Y-63092007D01*
X182252529Y-63404017D01*
X182517873Y-63669361D01*
X182829883Y-63877840D01*
X183176571Y-64021442D01*
X183544613Y-64094651D01*
X183919865Y-64094651D01*
X184287907Y-64021442D01*
X184634595Y-63877840D01*
X184946605Y-63669361D01*
X185211949Y-63404017D01*
X185420428Y-63092007D01*
X185564030Y-62745319D01*
X185637239Y-62377277D01*
X185637239Y-62002025D01*
X185564030Y-61633983D01*
X185420428Y-61287295D01*
X185211949Y-60975285D01*
X184946605Y-60709941D01*
X184634595Y-60501462D01*
X184287907Y-60357860D01*
X183919865Y-60284651D01*
X183544613Y-60284651D01*
X183176571Y-60357860D01*
X182829883Y-60501462D01*
X182517873Y-60709941D01*
X182252529Y-60975285D01*
X182044050Y-61287295D01*
X181900448Y-61633983D01*
X181827239Y-62002025D01*
X181624299Y-62002025D01*
X181479710Y-61785634D01*
X181219200Y-61525124D01*
X181219200Y-59716905D01*
X184887386Y-59716905D01*
X184887386Y-60092157D01*
X184960595Y-60460199D01*
X185104197Y-60806887D01*
X185312676Y-61118897D01*
X185578020Y-61384241D01*
X185890030Y-61592720D01*
X186236718Y-61736322D01*
X186604760Y-61809531D01*
X186980012Y-61809531D01*
X187348054Y-61736322D01*
X187694742Y-61592720D01*
X188006752Y-61384241D01*
X188272096Y-61118897D01*
X188480575Y-60806887D01*
X188624177Y-60460199D01*
X188697386Y-60092157D01*
X188697386Y-59716905D01*
X188624177Y-59348863D01*
X188480575Y-59002175D01*
X188272096Y-58690165D01*
X188006752Y-58424821D01*
X187752287Y-58254792D01*
X188073709Y-58387929D01*
X188441751Y-58461138D01*
X188817003Y-58461138D01*
X189185045Y-58387929D01*
X189531733Y-58244327D01*
X189843743Y-58035848D01*
X190109087Y-57770504D01*
X190317566Y-57458494D01*
X190461168Y-57111806D01*
X190534377Y-56743764D01*
X190534377Y-56368512D01*
X190461168Y-56000470D01*
X190317566Y-55653782D01*
X190109087Y-55341772D01*
X189843743Y-55076428D01*
X189531733Y-54867949D01*
X189185045Y-54724347D01*
X188823564Y-54652443D01*
X189100038Y-54652443D01*
X189468080Y-54579234D01*
X189814768Y-54435632D01*
X190126778Y-54227153D01*
X190392122Y-53961809D01*
X190600601Y-53649799D01*
X190744203Y-53303111D01*
X190817412Y-52935069D01*
X190817412Y-52559817D01*
X190744203Y-52191775D01*
X190600601Y-51845087D01*
X190392122Y-51533077D01*
X190126778Y-51267733D01*
X189814768Y-51059254D01*
X189468080Y-50915652D01*
X189100038Y-50842443D01*
X188724786Y-50842443D01*
X188356744Y-50915652D01*
X188010056Y-51059254D01*
X187698046Y-51267733D01*
X187432702Y-51533077D01*
X187224223Y-51845087D01*
X187080621Y-52191775D01*
X187007412Y-52559817D01*
X187007412Y-52935069D01*
X187080621Y-53303111D01*
X187224223Y-53649799D01*
X187432702Y-53961809D01*
X187698046Y-54227153D01*
X188010056Y-54435632D01*
X188356744Y-54579234D01*
X188718225Y-54651138D01*
X188441751Y-54651138D01*
X188073709Y-54724347D01*
X187727021Y-54867949D01*
X187415011Y-55076428D01*
X187149667Y-55341772D01*
X186941188Y-55653782D01*
X186797586Y-56000470D01*
X186724377Y-56368512D01*
X186724377Y-56743764D01*
X186797586Y-57111806D01*
X186941188Y-57458494D01*
X187149667Y-57770504D01*
X187415011Y-58035848D01*
X187669476Y-58205877D01*
X187348054Y-58072740D01*
X186980012Y-57999531D01*
X186604760Y-57999531D01*
X186236718Y-58072740D01*
X185890030Y-58216342D01*
X185578020Y-58424821D01*
X185312676Y-58690165D01*
X185104197Y-59002175D01*
X184960595Y-59348863D01*
X184887386Y-59716905D01*
X181219200Y-59716905D01*
X181219200Y-48976678D01*
X185685523Y-48976678D01*
X185685523Y-49351930D01*
X185758732Y-49719972D01*
X185902334Y-50066660D01*
X186110813Y-50378670D01*
X186376157Y-50644014D01*
X186688167Y-50852493D01*
X187034855Y-50996095D01*
X187402897Y-51069304D01*
X187778149Y-51069304D01*
X188146191Y-50996095D01*
X188492879Y-50852493D01*
X188804889Y-50644014D01*
X189070233Y-50378670D01*
X189278712Y-50066660D01*
X189422314Y-49719972D01*
X189495523Y-49351930D01*
X189495523Y-48976678D01*
X189422314Y-48608636D01*
X189278712Y-48261948D01*
X189070233Y-47949938D01*
X188804889Y-47684594D01*
X188492879Y-47476115D01*
X188146191Y-47332513D01*
X187778149Y-47259304D01*
X187402897Y-47259304D01*
X187034855Y-47332513D01*
X186688167Y-47476115D01*
X186376157Y-47684594D01*
X186110813Y-47949938D01*
X185902334Y-48261948D01*
X185758732Y-48608636D01*
X185685523Y-48976678D01*
X181219200Y-48976678D01*
X181219200Y-47889266D01*
X181225098Y-47829380D01*
X181219200Y-47769494D01*
X181219200Y-47769488D01*
X181201559Y-47590376D01*
X181131844Y-47360556D01*
X181018633Y-47148752D01*
X180866276Y-46963105D01*
X180843400Y-46944331D01*
X181142658Y-47003858D01*
X181517910Y-47003858D01*
X181885952Y-46930649D01*
X182232640Y-46787047D01*
X182544650Y-46578568D01*
X182809994Y-46313224D01*
X182842658Y-46264339D01*
X182996751Y-46264339D01*
X182996751Y-46639591D01*
X183069960Y-47007633D01*
X183213562Y-47354321D01*
X183422041Y-47666331D01*
X183687385Y-47931675D01*
X183999395Y-48140154D01*
X184346083Y-48283756D01*
X184714125Y-48356965D01*
X185089377Y-48356965D01*
X185457419Y-48283756D01*
X185804107Y-48140154D01*
X186116117Y-47931675D01*
X186381461Y-47666331D01*
X186589940Y-47354321D01*
X186733542Y-47007633D01*
X186741282Y-46968721D01*
X207249968Y-46968721D01*
X207249968Y-47343973D01*
X207323177Y-47712015D01*
X207466779Y-48058703D01*
X207675258Y-48370713D01*
X207940602Y-48636057D01*
X208252612Y-48844536D01*
X208599300Y-48988138D01*
X208967342Y-49061347D01*
X209342594Y-49061347D01*
X209710636Y-48988138D01*
X210057324Y-48844536D01*
X210369334Y-48636057D01*
X210634678Y-48370713D01*
X210843157Y-48058703D01*
X210986759Y-47712015D01*
X211059968Y-47343973D01*
X211059968Y-46968721D01*
X210986759Y-46600679D01*
X210859604Y-46293697D01*
X211039554Y-46563011D01*
X211304898Y-46828355D01*
X211616908Y-47036834D01*
X211963596Y-47180436D01*
X212331638Y-47253645D01*
X212700056Y-47253645D01*
X213780801Y-48334391D01*
X213780800Y-61525124D01*
X213520290Y-61785634D01*
X213311811Y-62097644D01*
X213168209Y-62444332D01*
X213095000Y-62812374D01*
X213095000Y-63187626D01*
X213168209Y-63555668D01*
X213311811Y-63902356D01*
X213520290Y-64214366D01*
X213785634Y-64479710D01*
X214097644Y-64688189D01*
X214444332Y-64831791D01*
X214812374Y-64905000D01*
X215020801Y-64905000D01*
X215020800Y-71996741D01*
X214746424Y-72180073D01*
X214420073Y-72506424D01*
X214163660Y-72890173D01*
X213987040Y-73316572D01*
X213897000Y-73769235D01*
X213897000Y-74230765D01*
X213987040Y-74683428D01*
X214163660Y-75109827D01*
X214420073Y-75493576D01*
X214746424Y-75819927D01*
X215130173Y-76076340D01*
X215556572Y-76252960D01*
X216009235Y-76343000D01*
X216470765Y-76343000D01*
X216923428Y-76252960D01*
X217349827Y-76076340D01*
X217733576Y-75819927D01*
X218059927Y-75493576D01*
X218316340Y-75109827D01*
X218492960Y-74683428D01*
X218583000Y-74230765D01*
X218583000Y-73769235D01*
X218492960Y-73316572D01*
X218316340Y-72890173D01*
X218059927Y-72506424D01*
X217733576Y-72180073D01*
X217459200Y-71996741D01*
X217459200Y-64299893D01*
X217465099Y-64240000D01*
X217441559Y-64000995D01*
X217371844Y-63771174D01*
X217332409Y-63697398D01*
X217258633Y-63559371D01*
X217106276Y-63373724D01*
X217059750Y-63335541D01*
X216905000Y-63180791D01*
X216905000Y-62812374D01*
X216831791Y-62444332D01*
X216688189Y-62097644D01*
X216624299Y-62002025D01*
X216827239Y-62002025D01*
X216827239Y-62377277D01*
X216900448Y-62745319D01*
X217044050Y-63092007D01*
X217252529Y-63404017D01*
X217517873Y-63669361D01*
X217829883Y-63877840D01*
X218176571Y-64021442D01*
X218544613Y-64094651D01*
X218919865Y-64094651D01*
X219287907Y-64021442D01*
X219634595Y-63877840D01*
X219946605Y-63669361D01*
X220211949Y-63404017D01*
X220420428Y-63092007D01*
X220564030Y-62745319D01*
X220637239Y-62377277D01*
X220637239Y-62002025D01*
X220564030Y-61633983D01*
X220420428Y-61287295D01*
X220211949Y-60975285D01*
X219946605Y-60709941D01*
X219634595Y-60501462D01*
X219287907Y-60357860D01*
X218919865Y-60284651D01*
X218544613Y-60284651D01*
X218176571Y-60357860D01*
X217829883Y-60501462D01*
X217517873Y-60709941D01*
X217252529Y-60975285D01*
X217044050Y-61287295D01*
X216900448Y-61633983D01*
X216827239Y-62002025D01*
X216624299Y-62002025D01*
X216479710Y-61785634D01*
X216219200Y-61525124D01*
X216219200Y-59716905D01*
X219887386Y-59716905D01*
X219887386Y-60092157D01*
X219960595Y-60460199D01*
X220104197Y-60806887D01*
X220312676Y-61118897D01*
X220578020Y-61384241D01*
X220890030Y-61592720D01*
X221236718Y-61736322D01*
X221604760Y-61809531D01*
X221980012Y-61809531D01*
X222348054Y-61736322D01*
X222694742Y-61592720D01*
X223006752Y-61384241D01*
X223272096Y-61118897D01*
X223480575Y-60806887D01*
X223624177Y-60460199D01*
X223697386Y-60092157D01*
X223697386Y-59716905D01*
X223624177Y-59348863D01*
X223480575Y-59002175D01*
X223272096Y-58690165D01*
X223006752Y-58424821D01*
X222752287Y-58254792D01*
X223073709Y-58387929D01*
X223441751Y-58461138D01*
X223817003Y-58461138D01*
X224185045Y-58387929D01*
X224531733Y-58244327D01*
X224843743Y-58035848D01*
X225109087Y-57770504D01*
X225317566Y-57458494D01*
X225461168Y-57111806D01*
X225534377Y-56743764D01*
X225534377Y-56368512D01*
X225461168Y-56000470D01*
X225317566Y-55653782D01*
X225109087Y-55341772D01*
X224843743Y-55076428D01*
X224531733Y-54867949D01*
X224185045Y-54724347D01*
X223823564Y-54652443D01*
X224100038Y-54652443D01*
X224468080Y-54579234D01*
X224814768Y-54435632D01*
X225126778Y-54227153D01*
X225392122Y-53961809D01*
X225600601Y-53649799D01*
X225744203Y-53303111D01*
X225817412Y-52935069D01*
X225817412Y-52559817D01*
X225744203Y-52191775D01*
X225600601Y-51845087D01*
X225392122Y-51533077D01*
X225126778Y-51267733D01*
X224814768Y-51059254D01*
X224468080Y-50915652D01*
X224100038Y-50842443D01*
X223724786Y-50842443D01*
X223356744Y-50915652D01*
X223010056Y-51059254D01*
X222698046Y-51267733D01*
X222432702Y-51533077D01*
X222224223Y-51845087D01*
X222080621Y-52191775D01*
X222007412Y-52559817D01*
X222007412Y-52935069D01*
X222080621Y-53303111D01*
X222224223Y-53649799D01*
X222432702Y-53961809D01*
X222698046Y-54227153D01*
X223010056Y-54435632D01*
X223356744Y-54579234D01*
X223718225Y-54651138D01*
X223441751Y-54651138D01*
X223073709Y-54724347D01*
X222727021Y-54867949D01*
X222415011Y-55076428D01*
X222149667Y-55341772D01*
X221941188Y-55653782D01*
X221797586Y-56000470D01*
X221724377Y-56368512D01*
X221724377Y-56743764D01*
X221797586Y-57111806D01*
X221941188Y-57458494D01*
X222149667Y-57770504D01*
X222415011Y-58035848D01*
X222669476Y-58205877D01*
X222348054Y-58072740D01*
X221980012Y-57999531D01*
X221604760Y-57999531D01*
X221236718Y-58072740D01*
X220890030Y-58216342D01*
X220578020Y-58424821D01*
X220312676Y-58690165D01*
X220104197Y-59002175D01*
X219960595Y-59348863D01*
X219887386Y-59716905D01*
X216219200Y-59716905D01*
X216219200Y-48976678D01*
X220685523Y-48976678D01*
X220685523Y-49351930D01*
X220758732Y-49719972D01*
X220902334Y-50066660D01*
X221110813Y-50378670D01*
X221376157Y-50644014D01*
X221688167Y-50852493D01*
X222034855Y-50996095D01*
X222402897Y-51069304D01*
X222778149Y-51069304D01*
X223146191Y-50996095D01*
X223492879Y-50852493D01*
X223804889Y-50644014D01*
X224070233Y-50378670D01*
X224278712Y-50066660D01*
X224422314Y-49719972D01*
X224495523Y-49351930D01*
X224495523Y-48976678D01*
X224422314Y-48608636D01*
X224278712Y-48261948D01*
X224070233Y-47949938D01*
X223804889Y-47684594D01*
X223492879Y-47476115D01*
X223146191Y-47332513D01*
X222778149Y-47259304D01*
X222402897Y-47259304D01*
X222034855Y-47332513D01*
X221688167Y-47476115D01*
X221376157Y-47684594D01*
X221110813Y-47949938D01*
X220902334Y-48261948D01*
X220758732Y-48608636D01*
X220685523Y-48976678D01*
X216219200Y-48976678D01*
X216219200Y-47889266D01*
X216225098Y-47829380D01*
X216219200Y-47769494D01*
X216219200Y-47769488D01*
X216201559Y-47590376D01*
X216131844Y-47360556D01*
X216018633Y-47148752D01*
X215866276Y-46963105D01*
X215843400Y-46944331D01*
X216142658Y-47003858D01*
X216517910Y-47003858D01*
X216885952Y-46930649D01*
X217232640Y-46787047D01*
X217544650Y-46578568D01*
X217809994Y-46313224D01*
X217842658Y-46264339D01*
X217996751Y-46264339D01*
X217996751Y-46639591D01*
X218069960Y-47007633D01*
X218213562Y-47354321D01*
X218422041Y-47666331D01*
X218687385Y-47931675D01*
X218999395Y-48140154D01*
X219346083Y-48283756D01*
X219714125Y-48356965D01*
X220089377Y-48356965D01*
X220457419Y-48283756D01*
X220804107Y-48140154D01*
X221116117Y-47931675D01*
X221381461Y-47666331D01*
X221589940Y-47354321D01*
X221733542Y-47007633D01*
X221806751Y-46639591D01*
X221806751Y-46264339D01*
X221733542Y-45896297D01*
X221589940Y-45549609D01*
X221381461Y-45237599D01*
X221116117Y-44972255D01*
X220804107Y-44763776D01*
X220457419Y-44620174D01*
X220089377Y-44546965D01*
X219714125Y-44546965D01*
X219346083Y-44620174D01*
X218999395Y-44763776D01*
X218687385Y-44972255D01*
X218422041Y-45237599D01*
X218213562Y-45549609D01*
X218069960Y-45896297D01*
X217996751Y-46264339D01*
X217842658Y-46264339D01*
X218018473Y-46001214D01*
X218162075Y-45654526D01*
X218235284Y-45286484D01*
X218235284Y-44911232D01*
X218162075Y-44543190D01*
X218018473Y-44196502D01*
X217809994Y-43884492D01*
X217544650Y-43619148D01*
X217232640Y-43410669D01*
X216885952Y-43267067D01*
X216517910Y-43193858D01*
X216142658Y-43193858D01*
X215774616Y-43267067D01*
X215427928Y-43410669D01*
X215115918Y-43619148D01*
X214850574Y-43884492D01*
X214642095Y-44196502D01*
X214498493Y-44543190D01*
X214425284Y-44911232D01*
X214425284Y-45286484D01*
X214485864Y-45591037D01*
X214424264Y-45529437D01*
X214424264Y-45161019D01*
X214351055Y-44792977D01*
X214207453Y-44446289D01*
X213998974Y-44134279D01*
X213733630Y-43868935D01*
X213421620Y-43660456D01*
X213074932Y-43516854D01*
X212706890Y-43443645D01*
X212331638Y-43443645D01*
X211963596Y-43516854D01*
X211616908Y-43660456D01*
X211304898Y-43868935D01*
X211039554Y-44134279D01*
X210831075Y-44446289D01*
X210687473Y-44792977D01*
X210614264Y-45161019D01*
X210614264Y-45536271D01*
X210687473Y-45904313D01*
X210814628Y-46211295D01*
X210634678Y-45941981D01*
X210369334Y-45676637D01*
X210057324Y-45468158D01*
X209710636Y-45324556D01*
X209342594Y-45251347D01*
X208967342Y-45251347D01*
X208599300Y-45324556D01*
X208252612Y-45468158D01*
X207940602Y-45676637D01*
X207675258Y-45941981D01*
X207466779Y-46253991D01*
X207323177Y-46600679D01*
X207249968Y-46968721D01*
X186741282Y-46968721D01*
X186806751Y-46639591D01*
X186806751Y-46264339D01*
X186733542Y-45896297D01*
X186589940Y-45549609D01*
X186381461Y-45237599D01*
X186116117Y-44972255D01*
X185804107Y-44763776D01*
X185457419Y-44620174D01*
X185089377Y-44546965D01*
X184714125Y-44546965D01*
X184346083Y-44620174D01*
X183999395Y-44763776D01*
X183687385Y-44972255D01*
X183422041Y-45237599D01*
X183213562Y-45549609D01*
X183069960Y-45896297D01*
X182996751Y-46264339D01*
X182842658Y-46264339D01*
X183018473Y-46001214D01*
X183162075Y-45654526D01*
X183235284Y-45286484D01*
X183235284Y-44911232D01*
X183162075Y-44543190D01*
X183018473Y-44196502D01*
X182809994Y-43884492D01*
X182544650Y-43619148D01*
X182232640Y-43410669D01*
X181885952Y-43267067D01*
X181517910Y-43193858D01*
X181142658Y-43193858D01*
X180774616Y-43267067D01*
X180427928Y-43410669D01*
X180115918Y-43619148D01*
X179850574Y-43884492D01*
X179642095Y-44196502D01*
X179498493Y-44543190D01*
X179425284Y-44911232D01*
X179425284Y-45286484D01*
X179485864Y-45591037D01*
X179424264Y-45529437D01*
X179424264Y-45161019D01*
X179351055Y-44792977D01*
X179207453Y-44446289D01*
X178998974Y-44134279D01*
X178733630Y-43868935D01*
X178421620Y-43660456D01*
X178074932Y-43516854D01*
X177706890Y-43443645D01*
X177331638Y-43443645D01*
X176963596Y-43516854D01*
X176616908Y-43660456D01*
X176304898Y-43868935D01*
X176044388Y-44129445D01*
X162471251Y-44129445D01*
X162411355Y-44123546D01*
X162172350Y-44147085D01*
X161942530Y-44216801D01*
X161730726Y-44330012D01*
X161545079Y-44482369D01*
X161506896Y-44528895D01*
X159554414Y-46481378D01*
X159230765Y-46417000D01*
X158769235Y-46417000D01*
X158316572Y-46507040D01*
X157890173Y-46683660D01*
X157506424Y-46940073D01*
X157180073Y-47266424D01*
X156923660Y-47650173D01*
X156747040Y-48076572D01*
X156657000Y-48529235D01*
X152343000Y-48529235D01*
X152252960Y-48076572D01*
X152076340Y-47650173D01*
X151819927Y-47266424D01*
X151493576Y-46940073D01*
X151109827Y-46683660D01*
X150683428Y-46507040D01*
X150230765Y-46417000D01*
X149769235Y-46417000D01*
X149445586Y-46481378D01*
X146144464Y-43180256D01*
X146106276Y-43133724D01*
X145920629Y-42981367D01*
X145708825Y-42868156D01*
X145479005Y-42798441D01*
X145299893Y-42780800D01*
X145240000Y-42774901D01*
X145180107Y-42780800D01*
X128927801Y-42780800D01*
X128867908Y-42774901D01*
X128628904Y-42798441D01*
X128399084Y-42868156D01*
X128187280Y-42981367D01*
X128001633Y-43133724D01*
X127963450Y-43180250D01*
X127700055Y-43443645D01*
X127331638Y-43443645D01*
X126963596Y-43516854D01*
X126616908Y-43660456D01*
X126304898Y-43868935D01*
X126039554Y-44134279D01*
X125831075Y-44446289D01*
X125687473Y-44792977D01*
X125614264Y-45161019D01*
X125614264Y-45536271D01*
X125687473Y-45904313D01*
X125814628Y-46211295D01*
X125634678Y-45941981D01*
X125369334Y-45676637D01*
X125057324Y-45468158D01*
X124710636Y-45324556D01*
X124342594Y-45251347D01*
X123967342Y-45251347D01*
X123599300Y-45324556D01*
X123252612Y-45468158D01*
X122940602Y-45676637D01*
X122675258Y-45941981D01*
X122466779Y-46253991D01*
X122323177Y-46600679D01*
X122249968Y-46968721D01*
X122249968Y-47343973D01*
X122323177Y-47712015D01*
X122466779Y-48058703D01*
X122675258Y-48370713D01*
X122940602Y-48636057D01*
X123252612Y-48844536D01*
X123599300Y-48988138D01*
X123967342Y-49061347D01*
X124342594Y-49061347D01*
X124710636Y-48988138D01*
X125057324Y-48844536D01*
X125369334Y-48636057D01*
X125634678Y-48370713D01*
X125843157Y-48058703D01*
X125986759Y-47712015D01*
X126059968Y-47343973D01*
X126059968Y-46968721D01*
X125986759Y-46600679D01*
X125859604Y-46293697D01*
X126039554Y-46563011D01*
X126304898Y-46828355D01*
X126616908Y-47036834D01*
X126963596Y-47180436D01*
X127331638Y-47253645D01*
X127700056Y-47253645D01*
X128780801Y-48334391D01*
X128780801Y-52081531D01*
X128607199Y-52047000D01*
X128332801Y-52047000D01*
X128063677Y-52100532D01*
X127810167Y-52205540D01*
X127787329Y-52220800D01*
X105749977Y-52220800D01*
X105744203Y-52191775D01*
X105600601Y-51845087D01*
X105392122Y-51533077D01*
X105274681Y-51415636D01*
X120368354Y-51415636D01*
X120628864Y-51676146D01*
X120940874Y-51884625D01*
X121287562Y-52028227D01*
X121655604Y-52101436D01*
X122030856Y-52101436D01*
X122398898Y-52028227D01*
X122745586Y-51884625D01*
X123057596Y-51676146D01*
X123322940Y-51410802D01*
X123531419Y-51098792D01*
X123675021Y-50752104D01*
X123748230Y-50384062D01*
X123748230Y-50008810D01*
X123675021Y-49640768D01*
X123531419Y-49294080D01*
X123322940Y-48982070D01*
X123057596Y-48716726D01*
X122745586Y-48508247D01*
X122398898Y-48364645D01*
X122030856Y-48291436D01*
X121655604Y-48291436D01*
X121287562Y-48364645D01*
X120940874Y-48508247D01*
X120628864Y-48716726D01*
X120368354Y-48977236D01*
X104495523Y-48977236D01*
X104495523Y-48976678D01*
X104422314Y-48608636D01*
X104278712Y-48261948D01*
X104070233Y-47949938D01*
X103804889Y-47684594D01*
X103492879Y-47476115D01*
X103146191Y-47332513D01*
X102778149Y-47259304D01*
X102402897Y-47259304D01*
X102034855Y-47332513D01*
X101688167Y-47476115D01*
X101376157Y-47684594D01*
X101110813Y-47949938D01*
X100902334Y-48261948D01*
X100758732Y-48608636D01*
X100685523Y-48976678D01*
X100685523Y-49351930D01*
X100758732Y-49719972D01*
X100848675Y-49937116D01*
X95457201Y-55328591D01*
X95457201Y-47127275D01*
X95463100Y-47067382D01*
X95439560Y-46828377D01*
X95426793Y-46786288D01*
X95427928Y-46787047D01*
X95774616Y-46930649D01*
X96142658Y-47003858D01*
X96517910Y-47003858D01*
X96885952Y-46930649D01*
X97232640Y-46787047D01*
X97544650Y-46578568D01*
X97809994Y-46313224D01*
X97842658Y-46264339D01*
X97996751Y-46264339D01*
X97996751Y-46639591D01*
X98069960Y-47007633D01*
X98213562Y-47354321D01*
X98422041Y-47666331D01*
X98687385Y-47931675D01*
X98999395Y-48140154D01*
X99346083Y-48283756D01*
X99714125Y-48356965D01*
X100089377Y-48356965D01*
X100457419Y-48283756D01*
X100804107Y-48140154D01*
X101116117Y-47931675D01*
X101381461Y-47666331D01*
X101589940Y-47354321D01*
X101733542Y-47007633D01*
X101806751Y-46639591D01*
X101806751Y-46264339D01*
X101733542Y-45896297D01*
X101589940Y-45549609D01*
X101381461Y-45237599D01*
X101116117Y-44972255D01*
X100804107Y-44763776D01*
X100457419Y-44620174D01*
X100089377Y-44546965D01*
X99714125Y-44546965D01*
X99346083Y-44620174D01*
X98999395Y-44763776D01*
X98687385Y-44972255D01*
X98422041Y-45237599D01*
X98213562Y-45549609D01*
X98069960Y-45896297D01*
X97996751Y-46264339D01*
X97842658Y-46264339D01*
X98018473Y-46001214D01*
X98162075Y-45654526D01*
X98235284Y-45286484D01*
X98235284Y-44911232D01*
X98162075Y-44543190D01*
X98018473Y-44196502D01*
X97809994Y-43884492D01*
X97544650Y-43619148D01*
X97232640Y-43410669D01*
X96885952Y-43267067D01*
X96517910Y-43193858D01*
X96142658Y-43193858D01*
X95774616Y-43267067D01*
X95427928Y-43410669D01*
X95115918Y-43619148D01*
X94850574Y-43884492D01*
X94642095Y-44196502D01*
X94498493Y-44543190D01*
X94425284Y-44911232D01*
X94425284Y-45286484D01*
X94485864Y-45591037D01*
X94424264Y-45529437D01*
X94424264Y-45161019D01*
X94351055Y-44792977D01*
X94207453Y-44446289D01*
X93998974Y-44134279D01*
X93733630Y-43868935D01*
X93421620Y-43660456D01*
X93074932Y-43516854D01*
X92706890Y-43443645D01*
X92338472Y-43443645D01*
X92075082Y-43180255D01*
X92036895Y-43133724D01*
X91851248Y-42981367D01*
X91639444Y-42868156D01*
X91409624Y-42798441D01*
X91230512Y-42780800D01*
X91170619Y-42774901D01*
X91110726Y-42780800D01*
X78819893Y-42780800D01*
X78760000Y-42774901D01*
X78520995Y-42798441D01*
X78291175Y-42868156D01*
X78079371Y-42981367D01*
X77893724Y-43133724D01*
X77855541Y-43180250D01*
X74554414Y-46481378D01*
X74230765Y-46417000D01*
X73769235Y-46417000D01*
X73316572Y-46507040D01*
X72890173Y-46683660D01*
X72506424Y-46940073D01*
X72180073Y-47266424D01*
X71923660Y-47650173D01*
X71747040Y-48076572D01*
X71657000Y-48529235D01*
X71657000Y-48990765D01*
X71747040Y-49443428D01*
X71923660Y-49869827D01*
X72180073Y-50253576D01*
X72506424Y-50579927D01*
X72890173Y-50836340D01*
X73316572Y-51012960D01*
X73769235Y-51103000D01*
X74058461Y-51103000D01*
X61180251Y-63981211D01*
X61133725Y-64019394D01*
X60981368Y-64205041D01*
X60949228Y-64265171D01*
X60868157Y-64416845D01*
X60798441Y-64646666D01*
X60774901Y-64885670D01*
X60780801Y-64945573D01*
X60780800Y-73067565D01*
X60710477Y-73088897D01*
X60511911Y-73195032D01*
X60337867Y-73337867D01*
X60195032Y-73511911D01*
X60088897Y-73710477D01*
X60023539Y-73925933D01*
X60001470Y-74150000D01*
X58153856Y-74150000D01*
X58135178Y-74118645D01*
X57940269Y-73902412D01*
X57706920Y-73728359D01*
X57444099Y-73603175D01*
X57296890Y-73558524D01*
X57067000Y-73679845D01*
X56813000Y-73679845D01*
X56583110Y-73558524D01*
X56435901Y-73603175D01*
X56173080Y-73728359D01*
X56022383Y-73840763D01*
X55948064Y-73729537D01*
X55670463Y-73451936D01*
X55344039Y-73233827D01*
X54981337Y-73083590D01*
X54596293Y-73007000D01*
X54203707Y-73007000D01*
X53818663Y-73083590D01*
X53455961Y-73233827D01*
X53130000Y-73451627D01*
X52804039Y-73233827D01*
X52441337Y-73083590D01*
X52056293Y-73007000D01*
X51663707Y-73007000D01*
X51278663Y-73083590D01*
X50915961Y-73233827D01*
X50590000Y-73451627D01*
X50264039Y-73233827D01*
X49901337Y-73083590D01*
X49516293Y-73007000D01*
X49123707Y-73007000D01*
X48738663Y-73083590D01*
X48375961Y-73233827D01*
X48050000Y-73451627D01*
X47724039Y-73233827D01*
X47361337Y-73083590D01*
X46976293Y-73007000D01*
X46583707Y-73007000D01*
X46198663Y-73083590D01*
X45835961Y-73233827D01*
X45510000Y-73451627D01*
X45184039Y-73233827D01*
X44821337Y-73083590D01*
X44436293Y-73007000D01*
X44043707Y-73007000D01*
X43658663Y-73083590D01*
X43295961Y-73233827D01*
X42970000Y-73451627D01*
X42644039Y-73233827D01*
X42281337Y-73083590D01*
X41896293Y-73007000D01*
X41503707Y-73007000D01*
X41118663Y-73083590D01*
X40755961Y-73233827D01*
X40430000Y-73451627D01*
X40107841Y-73236368D01*
X40785009Y-72559200D01*
X49520107Y-72559200D01*
X49580000Y-72565099D01*
X49639893Y-72559200D01*
X49819005Y-72541559D01*
X50048825Y-72471844D01*
X50260629Y-72358633D01*
X50446276Y-72206276D01*
X50484464Y-72159744D01*
X54449128Y-68195081D01*
X54495653Y-68156899D01*
X54648010Y-67971252D01*
X54761221Y-67759448D01*
X54830936Y-67529628D01*
X54848577Y-67350516D01*
X54848577Y-67350515D01*
X54854476Y-67290623D01*
X54848577Y-67230730D01*
X54848577Y-58031014D01*
X55109087Y-57770504D01*
X55317566Y-57458494D01*
X55461168Y-57111806D01*
X55534377Y-56743764D01*
X55534377Y-56368512D01*
X55461168Y-56000470D01*
X55317566Y-55653782D01*
X55109087Y-55341772D01*
X54843743Y-55076428D01*
X54531733Y-54867949D01*
X54185045Y-54724347D01*
X53823564Y-54652443D01*
X54100038Y-54652443D01*
X54468080Y-54579234D01*
X54814768Y-54435632D01*
X55126778Y-54227153D01*
X55392122Y-53961809D01*
X55600601Y-53649799D01*
X55744203Y-53303111D01*
X55817412Y-52935069D01*
X55817412Y-52559817D01*
X55744203Y-52191775D01*
X55600601Y-51845087D01*
X55392122Y-51533077D01*
X55126778Y-51267733D01*
X54814768Y-51059254D01*
X54468080Y-50915652D01*
X54100038Y-50842443D01*
X53724786Y-50842443D01*
X53356744Y-50915652D01*
X53010056Y-51059254D01*
X52698046Y-51267733D01*
X52432702Y-51533077D01*
X52224223Y-51845087D01*
X52080621Y-52191775D01*
X52007412Y-52559817D01*
X52007412Y-52935069D01*
X52080621Y-53303111D01*
X52224223Y-53649799D01*
X52432702Y-53961809D01*
X52698046Y-54227153D01*
X53010056Y-54435632D01*
X53356744Y-54579234D01*
X53718225Y-54651138D01*
X53441751Y-54651138D01*
X53073709Y-54724347D01*
X52727021Y-54867949D01*
X52415011Y-55076428D01*
X52149667Y-55341772D01*
X51941188Y-55653782D01*
X51797586Y-56000470D01*
X51724377Y-56368512D01*
X51724377Y-56743764D01*
X51797586Y-57111806D01*
X51941188Y-57458494D01*
X52149667Y-57770504D01*
X52410178Y-58031015D01*
X52410178Y-58098472D01*
X52348054Y-58072740D01*
X51980012Y-57999531D01*
X51604760Y-57999531D01*
X51236718Y-58072740D01*
X50890030Y-58216342D01*
X50578020Y-58424821D01*
X50312676Y-58690165D01*
X50104197Y-59002175D01*
X49960595Y-59348863D01*
X49887386Y-59716905D01*
X49887386Y-60092157D01*
X49902866Y-60169980D01*
X47609200Y-57876314D01*
X47609200Y-54152671D01*
X47624460Y-54129833D01*
X47729468Y-53876323D01*
X47783000Y-53607199D01*
X47783000Y-53332801D01*
X47729468Y-53063677D01*
X47624460Y-52810167D01*
X47472014Y-52582014D01*
X47277986Y-52387986D01*
X47049833Y-52235540D01*
X46796323Y-52130532D01*
X46527199Y-52077000D01*
X46252801Y-52077000D01*
X46219200Y-52083684D01*
X46219200Y-48976678D01*
X50685523Y-48976678D01*
X50685523Y-49351930D01*
X50758732Y-49719972D01*
X50902334Y-50066660D01*
X51110813Y-50378670D01*
X51376157Y-50644014D01*
X51688167Y-50852493D01*
X52034855Y-50996095D01*
X52402897Y-51069304D01*
X52778149Y-51069304D01*
X53146191Y-50996095D01*
X53492879Y-50852493D01*
X53804889Y-50644014D01*
X54070233Y-50378670D01*
X54278712Y-50066660D01*
X54422314Y-49719972D01*
X54495523Y-49351930D01*
X54495523Y-48976678D01*
X54422314Y-48608636D01*
X54278712Y-48261948D01*
X54070233Y-47949938D01*
X53804889Y-47684594D01*
X53492879Y-47476115D01*
X53146191Y-47332513D01*
X52778149Y-47259304D01*
X52402897Y-47259304D01*
X52034855Y-47332513D01*
X51688167Y-47476115D01*
X51376157Y-47684594D01*
X51110813Y-47949938D01*
X50902334Y-48261948D01*
X50758732Y-48608636D01*
X50685523Y-48976678D01*
X46219200Y-48976678D01*
X46219200Y-47889266D01*
X46225098Y-47829380D01*
X46219200Y-47769494D01*
X46219200Y-47769488D01*
X46201559Y-47590376D01*
X46131844Y-47360556D01*
X46018633Y-47148752D01*
X45866276Y-46963105D01*
X45843400Y-46944331D01*
X46142658Y-47003858D01*
X46517910Y-47003858D01*
X46885952Y-46930649D01*
X47232640Y-46787047D01*
X47544650Y-46578568D01*
X47809994Y-46313224D01*
X48018473Y-46001214D01*
X48162075Y-45654526D01*
X48235284Y-45286484D01*
X48235284Y-45219200D01*
X48440440Y-45219200D01*
X48422041Y-45237599D01*
X48213562Y-45549609D01*
X48069960Y-45896297D01*
X47996751Y-46264339D01*
X47996751Y-46639591D01*
X48069960Y-47007633D01*
X48213562Y-47354321D01*
X48422041Y-47666331D01*
X48687385Y-47931675D01*
X48999395Y-48140154D01*
X49346083Y-48283756D01*
X49714125Y-48356965D01*
X50089377Y-48356965D01*
X50457419Y-48283756D01*
X50804107Y-48140154D01*
X51116117Y-47931675D01*
X51381461Y-47666331D01*
X51589940Y-47354321D01*
X51733542Y-47007633D01*
X51806751Y-46639591D01*
X51806751Y-46264339D01*
X51733542Y-45896297D01*
X51589940Y-45549609D01*
X51381461Y-45237599D01*
X51363062Y-45219200D01*
X59734992Y-45219200D01*
X62721378Y-48205586D01*
X62657000Y-48529235D01*
X62657000Y-48990765D01*
X62747040Y-49443428D01*
X62923660Y-49869827D01*
X63180073Y-50253576D01*
X63506424Y-50579927D01*
X63890173Y-50836340D01*
X64316572Y-51012960D01*
X64769235Y-51103000D01*
X65230765Y-51103000D01*
X65683428Y-51012960D01*
X66109827Y-50836340D01*
X66493576Y-50579927D01*
X66819927Y-50253576D01*
X67076340Y-49869827D01*
X67252960Y-49443428D01*
X67343000Y-48990765D01*
X67343000Y-48529235D01*
X67252960Y-48076572D01*
X67076340Y-47650173D01*
X66819927Y-47266424D01*
X66493576Y-46940073D01*
X66109827Y-46683660D01*
X65683428Y-46507040D01*
X65230765Y-46417000D01*
X64769235Y-46417000D01*
X64445586Y-46481378D01*
X61144464Y-43180256D01*
X61106276Y-43133724D01*
X60920629Y-42981367D01*
X60708825Y-42868156D01*
X60479005Y-42798441D01*
X60299893Y-42780800D01*
X60240000Y-42774901D01*
X60180107Y-42780800D01*
X43927801Y-42780800D01*
X43867908Y-42774901D01*
X43628904Y-42798441D01*
X43399084Y-42868156D01*
X43187280Y-42981367D01*
X43001633Y-43133724D01*
X42963450Y-43180250D01*
X42700055Y-43443645D01*
X42331638Y-43443645D01*
X41963596Y-43516854D01*
X41616908Y-43660456D01*
X41304898Y-43868935D01*
X41039554Y-44134279D01*
X40831075Y-44446289D01*
X40687473Y-44792977D01*
X40614264Y-45161019D01*
X40614264Y-45536271D01*
X40687473Y-45904313D01*
X40814628Y-46211295D01*
X40634678Y-45941981D01*
X40369334Y-45676637D01*
X40057324Y-45468158D01*
X39710636Y-45324556D01*
X39342594Y-45251347D01*
X38967342Y-45251347D01*
X38599300Y-45324556D01*
X38252612Y-45468158D01*
X37940602Y-45676637D01*
X37675258Y-45941981D01*
X37466779Y-46253991D01*
X37375848Y-46473519D01*
X28180251Y-55669117D01*
X28133725Y-55707300D01*
X27981368Y-55892947D01*
X27961998Y-55929186D01*
X27868157Y-56104751D01*
X27798441Y-56334572D01*
X27774901Y-56573576D01*
X27780801Y-56633479D01*
X27780800Y-73067565D01*
X27710477Y-73088897D01*
X27511911Y-73195032D01*
X27337867Y-73337867D01*
X27195032Y-73511911D01*
X27088897Y-73710477D01*
X27023539Y-73925933D01*
X27001470Y-74150000D01*
X27001470Y-75850000D01*
X27023539Y-76074067D01*
X27088897Y-76289523D01*
X27195032Y-76488089D01*
X27204807Y-76500000D01*
X27195032Y-76511911D01*
X27088897Y-76710477D01*
X27053005Y-76828796D01*
X24404464Y-74180256D01*
X24366276Y-74133724D01*
X24180629Y-73981367D01*
X23968825Y-73868156D01*
X23739005Y-73798441D01*
X23559893Y-73780800D01*
X23500000Y-73774901D01*
X23440107Y-73780800D01*
X20003259Y-73780800D01*
X19819927Y-73506424D01*
X19493576Y-73180073D01*
X19109827Y-72923660D01*
X18683428Y-72747040D01*
X18230765Y-72657000D01*
X17769235Y-72657000D01*
X17316572Y-72747040D01*
X16890173Y-72923660D01*
X16506424Y-73180073D01*
X16180073Y-73506424D01*
X15923660Y-73890173D01*
X15747040Y-74316572D01*
X15657000Y-74769235D01*
X5103000Y-74769235D01*
X5012960Y-74316572D01*
X4836340Y-73890173D01*
X4579927Y-73506424D01*
X4253576Y-73180073D01*
X3979200Y-72996741D01*
X3979200Y-70745008D01*
X9819209Y-64905000D01*
X10187626Y-64905000D01*
X10555668Y-64831791D01*
X10902356Y-64688189D01*
X11214366Y-64479710D01*
X11479710Y-64214366D01*
X11688189Y-63902356D01*
X11831791Y-63555668D01*
X11905000Y-63187626D01*
X11905000Y-62812374D01*
X11831791Y-62444332D01*
X11688189Y-62097644D01*
X11624299Y-62002025D01*
X11827239Y-62002025D01*
X11827239Y-62377277D01*
X11900448Y-62745319D01*
X12044050Y-63092007D01*
X12252529Y-63404017D01*
X12517873Y-63669361D01*
X12829883Y-63877840D01*
X13176571Y-64021442D01*
X13544613Y-64094651D01*
X13919865Y-64094651D01*
X14287907Y-64021442D01*
X14634595Y-63877840D01*
X14946605Y-63669361D01*
X15211949Y-63404017D01*
X15420428Y-63092007D01*
X15564030Y-62745319D01*
X15637239Y-62377277D01*
X15637239Y-62002025D01*
X15564030Y-61633983D01*
X15420428Y-61287295D01*
X15211949Y-60975285D01*
X14946605Y-60709941D01*
X14634595Y-60501462D01*
X14287907Y-60357860D01*
X13919865Y-60284651D01*
X13544613Y-60284651D01*
X13176571Y-60357860D01*
X12829883Y-60501462D01*
X12517873Y-60709941D01*
X12252529Y-60975285D01*
X12044050Y-61287295D01*
X11900448Y-61633983D01*
X11827239Y-62002025D01*
X11624299Y-62002025D01*
X11479710Y-61785634D01*
X11219200Y-61525124D01*
X11219200Y-59716905D01*
X14887386Y-59716905D01*
X14887386Y-60092157D01*
X14960595Y-60460199D01*
X15104197Y-60806887D01*
X15312676Y-61118897D01*
X15578020Y-61384241D01*
X15890030Y-61592720D01*
X16236718Y-61736322D01*
X16604760Y-61809531D01*
X16980012Y-61809531D01*
X17348054Y-61736322D01*
X17694742Y-61592720D01*
X18006752Y-61384241D01*
X18272096Y-61118897D01*
X18480575Y-60806887D01*
X18624177Y-60460199D01*
X18697386Y-60092157D01*
X18697386Y-59716905D01*
X18624177Y-59348863D01*
X18480575Y-59002175D01*
X18272096Y-58690165D01*
X18006752Y-58424821D01*
X17752287Y-58254792D01*
X18073709Y-58387929D01*
X18441751Y-58461138D01*
X18817003Y-58461138D01*
X19185045Y-58387929D01*
X19531733Y-58244327D01*
X19843743Y-58035848D01*
X20109087Y-57770504D01*
X20317566Y-57458494D01*
X20461168Y-57111806D01*
X20534377Y-56743764D01*
X20534377Y-56368512D01*
X20461168Y-56000470D01*
X20317566Y-55653782D01*
X20109087Y-55341772D01*
X19843743Y-55076428D01*
X19531733Y-54867949D01*
X19185045Y-54724347D01*
X18823564Y-54652443D01*
X19100038Y-54652443D01*
X19468080Y-54579234D01*
X19814768Y-54435632D01*
X20126778Y-54227153D01*
X20392122Y-53961809D01*
X20600601Y-53649799D01*
X20744203Y-53303111D01*
X20817412Y-52935069D01*
X20817412Y-52559817D01*
X20744203Y-52191775D01*
X20600601Y-51845087D01*
X20392122Y-51533077D01*
X20126778Y-51267733D01*
X19814768Y-51059254D01*
X19468080Y-50915652D01*
X19100038Y-50842443D01*
X18724786Y-50842443D01*
X18356744Y-50915652D01*
X18010056Y-51059254D01*
X17698046Y-51267733D01*
X17432702Y-51533077D01*
X17224223Y-51845087D01*
X17080621Y-52191775D01*
X17007412Y-52559817D01*
X17007412Y-52935069D01*
X17080621Y-53303111D01*
X17224223Y-53649799D01*
X17432702Y-53961809D01*
X17698046Y-54227153D01*
X18010056Y-54435632D01*
X18356744Y-54579234D01*
X18718225Y-54651138D01*
X18441751Y-54651138D01*
X18073709Y-54724347D01*
X17727021Y-54867949D01*
X17415011Y-55076428D01*
X17149667Y-55341772D01*
X16941188Y-55653782D01*
X16797586Y-56000470D01*
X16724377Y-56368512D01*
X16724377Y-56743764D01*
X16797586Y-57111806D01*
X16941188Y-57458494D01*
X17149667Y-57770504D01*
X17415011Y-58035848D01*
X17669476Y-58205877D01*
X17348054Y-58072740D01*
X16980012Y-57999531D01*
X16604760Y-57999531D01*
X16236718Y-58072740D01*
X15890030Y-58216342D01*
X15578020Y-58424821D01*
X15312676Y-58690165D01*
X15104197Y-59002175D01*
X14960595Y-59348863D01*
X14887386Y-59716905D01*
X11219200Y-59716905D01*
X11219200Y-48976678D01*
X15685523Y-48976678D01*
X15685523Y-49351930D01*
X15758732Y-49719972D01*
X15902334Y-50066660D01*
X16110813Y-50378670D01*
X16376157Y-50644014D01*
X16688167Y-50852493D01*
X17034855Y-50996095D01*
X17402897Y-51069304D01*
X17778149Y-51069304D01*
X18146191Y-50996095D01*
X18492879Y-50852493D01*
X18804889Y-50644014D01*
X19070233Y-50378670D01*
X19278712Y-50066660D01*
X19422314Y-49719972D01*
X19495523Y-49351930D01*
X19495523Y-48976678D01*
X19422314Y-48608636D01*
X19278712Y-48261948D01*
X19070233Y-47949938D01*
X18804889Y-47684594D01*
X18492879Y-47476115D01*
X18146191Y-47332513D01*
X17778149Y-47259304D01*
X17402897Y-47259304D01*
X17034855Y-47332513D01*
X16688167Y-47476115D01*
X16376157Y-47684594D01*
X16110813Y-47949938D01*
X15902334Y-48261948D01*
X15758732Y-48608636D01*
X15685523Y-48976678D01*
X11219200Y-48976678D01*
X11219200Y-47889266D01*
X11225098Y-47829380D01*
X11219200Y-47769494D01*
X11219200Y-47769488D01*
X11201559Y-47590376D01*
X11131844Y-47360556D01*
X11018633Y-47148752D01*
X10866276Y-46963105D01*
X10843400Y-46944331D01*
X11142658Y-47003858D01*
X11517910Y-47003858D01*
X11885952Y-46930649D01*
X12232640Y-46787047D01*
X12544650Y-46578568D01*
X12809994Y-46313224D01*
X12842658Y-46264339D01*
X12996751Y-46264339D01*
X12996751Y-46639591D01*
X13069960Y-47007633D01*
X13213562Y-47354321D01*
X13422041Y-47666331D01*
X13687385Y-47931675D01*
X13999395Y-48140154D01*
X14346083Y-48283756D01*
X14714125Y-48356965D01*
X15089377Y-48356965D01*
X15457419Y-48283756D01*
X15804107Y-48140154D01*
X16116117Y-47931675D01*
X16381461Y-47666331D01*
X16589940Y-47354321D01*
X16733542Y-47007633D01*
X16806751Y-46639591D01*
X16806751Y-46264339D01*
X16733542Y-45896297D01*
X16589940Y-45549609D01*
X16381461Y-45237599D01*
X16116117Y-44972255D01*
X15804107Y-44763776D01*
X15457419Y-44620174D01*
X15089377Y-44546965D01*
X14714125Y-44546965D01*
X14346083Y-44620174D01*
X13999395Y-44763776D01*
X13687385Y-44972255D01*
X13422041Y-45237599D01*
X13213562Y-45549609D01*
X13069960Y-45896297D01*
X12996751Y-46264339D01*
X12842658Y-46264339D01*
X13018473Y-46001214D01*
X13162075Y-45654526D01*
X13235284Y-45286484D01*
X13235284Y-44911232D01*
X13162075Y-44543190D01*
X13018473Y-44196502D01*
X12809994Y-43884492D01*
X12544650Y-43619148D01*
X12232640Y-43410669D01*
X11885952Y-43267067D01*
X11517910Y-43193858D01*
X11142658Y-43193858D01*
X10774616Y-43267067D01*
X10427928Y-43410669D01*
X10115918Y-43619148D01*
X9850574Y-43884492D01*
X9642095Y-44196502D01*
X9498493Y-44543190D01*
X9425284Y-44911232D01*
X9425284Y-45286484D01*
X9485864Y-45591037D01*
X9424264Y-45529437D01*
X9424264Y-45161019D01*
X9351055Y-44792977D01*
X9207453Y-44446289D01*
X8998974Y-44134279D01*
X8733630Y-43868935D01*
X8421620Y-43660456D01*
X8074932Y-43516854D01*
X7706890Y-43443645D01*
X7331638Y-43443645D01*
X6963596Y-43516854D01*
X6616908Y-43660456D01*
X6304898Y-43868935D01*
X6039554Y-44134279D01*
X5831075Y-44446289D01*
X5687473Y-44792977D01*
X5614264Y-45161019D01*
X5614264Y-45536271D01*
X5687473Y-45904313D01*
X5814628Y-46211295D01*
X5634678Y-45941981D01*
X5369334Y-45676637D01*
X5057324Y-45468158D01*
X4710636Y-45324556D01*
X4342594Y-45251347D01*
X3967342Y-45251347D01*
X3599300Y-45324556D01*
X3252612Y-45468158D01*
X2940602Y-45676637D01*
X2675258Y-45941981D01*
X2466779Y-46253991D01*
X2323177Y-46600679D01*
X2249968Y-46968721D01*
X2249968Y-47343973D01*
X2323177Y-47712015D01*
X2466779Y-48058703D01*
X2675258Y-48370713D01*
X2940602Y-48636057D01*
X3252612Y-48844536D01*
X3599300Y-48988138D01*
X3967342Y-49061347D01*
X4342594Y-49061347D01*
X4710636Y-48988138D01*
X5057324Y-48844536D01*
X5369334Y-48636057D01*
X5634678Y-48370713D01*
X5843157Y-48058703D01*
X5986759Y-47712015D01*
X6059968Y-47343973D01*
X6059968Y-46968721D01*
X5986759Y-46600679D01*
X5859604Y-46293697D01*
X6039554Y-46563011D01*
X6304898Y-46828355D01*
X6616908Y-47036834D01*
X6963596Y-47180436D01*
X7331638Y-47253645D01*
X7700056Y-47253645D01*
X8780801Y-48334391D01*
X8780800Y-61525124D01*
X8520290Y-61785634D01*
X8311811Y-62097644D01*
X8168209Y-62444332D01*
X8095000Y-62812374D01*
X8095000Y-63180791D01*
X1940251Y-69335541D01*
X1893725Y-69373724D01*
X1741368Y-69559371D01*
X1661686Y-69708446D01*
X1628157Y-69771175D01*
X1558441Y-70000996D01*
X1534901Y-70240000D01*
X1540801Y-70299903D01*
X1540800Y-72996740D01*
X1266424Y-73180073D01*
X940073Y-73506424D01*
X683660Y-73890173D01*
X507040Y-74316572D01*
X417000Y-74769235D01*
X-8832000Y-74769235D01*
X-8832000Y-62002025D01*
X4362761Y-62002025D01*
X4362761Y-62377277D01*
X4435970Y-62745319D01*
X4579572Y-63092007D01*
X4788051Y-63404017D01*
X5053395Y-63669361D01*
X5365405Y-63877840D01*
X5712093Y-64021442D01*
X6080135Y-64094651D01*
X6455387Y-64094651D01*
X6823429Y-64021442D01*
X7170117Y-63877840D01*
X7482127Y-63669361D01*
X7747471Y-63404017D01*
X7955950Y-63092007D01*
X8099552Y-62745319D01*
X8172761Y-62377277D01*
X8172761Y-62002025D01*
X8099552Y-61633983D01*
X7955950Y-61287295D01*
X7747471Y-60975285D01*
X7482127Y-60709941D01*
X7170117Y-60501462D01*
X6823429Y-60357860D01*
X6455387Y-60284651D01*
X6080135Y-60284651D01*
X5712093Y-60357860D01*
X5365405Y-60501462D01*
X5053395Y-60709941D01*
X4788051Y-60975285D01*
X4579572Y-61287295D01*
X4435970Y-61633983D01*
X4362761Y-62002025D01*
X-8832000Y-62002025D01*
X-8832000Y-56368512D01*
X-534377Y-56368512D01*
X-534377Y-56743764D01*
X-461168Y-57111806D01*
X-317566Y-57458494D01*
X-109087Y-57770504D01*
X156257Y-58035848D01*
X468267Y-58244327D01*
X814955Y-58387929D01*
X1182997Y-58461138D01*
X1558249Y-58461138D01*
X1926291Y-58387929D01*
X2247713Y-58254792D01*
X1993248Y-58424821D01*
X1727904Y-58690165D01*
X1519425Y-59002175D01*
X1375823Y-59348863D01*
X1302614Y-59716905D01*
X1302614Y-60092157D01*
X1375823Y-60460199D01*
X1519425Y-60806887D01*
X1727904Y-61118897D01*
X1993248Y-61384241D01*
X2305258Y-61592720D01*
X2651946Y-61736322D01*
X3019988Y-61809531D01*
X3395240Y-61809531D01*
X3763282Y-61736322D01*
X4109970Y-61592720D01*
X4421980Y-61384241D01*
X4687324Y-61118897D01*
X4895803Y-60806887D01*
X5039405Y-60460199D01*
X5112614Y-60092157D01*
X5112614Y-59716905D01*
X5039405Y-59348863D01*
X4895803Y-59002175D01*
X4687324Y-58690165D01*
X4421980Y-58424821D01*
X4109970Y-58216342D01*
X3763282Y-58072740D01*
X3395240Y-57999531D01*
X3019988Y-57999531D01*
X2651946Y-58072740D01*
X2330524Y-58205877D01*
X2584989Y-58035848D01*
X2850333Y-57770504D01*
X3058812Y-57458494D01*
X3202414Y-57111806D01*
X3275623Y-56743764D01*
X3275623Y-56368512D01*
X3202414Y-56000470D01*
X3058812Y-55653782D01*
X2850333Y-55341772D01*
X2584989Y-55076428D01*
X2272979Y-54867949D01*
X1926291Y-54724347D01*
X1558249Y-54651138D01*
X1182997Y-54651138D01*
X814955Y-54724347D01*
X468267Y-54867949D01*
X156257Y-55076428D01*
X-109087Y-55341772D01*
X-317566Y-55653782D01*
X-461168Y-56000470D01*
X-534377Y-56368512D01*
X-8832000Y-56368512D01*
X-8832000Y-50008810D01*
X-61770Y-50008810D01*
X-61770Y-50384062D01*
X11439Y-50752104D01*
X155041Y-51098792D01*
X363520Y-51410802D01*
X628864Y-51676146D01*
X940874Y-51884625D01*
X1287562Y-52028227D01*
X1655604Y-52101436D01*
X2030856Y-52101436D01*
X2398898Y-52028227D01*
X2745586Y-51884625D01*
X3057596Y-51676146D01*
X3322940Y-51410802D01*
X3531419Y-51098792D01*
X3675021Y-50752104D01*
X3748230Y-50384062D01*
X3748230Y-50008810D01*
X3675021Y-49640768D01*
X3531419Y-49294080D01*
X3322940Y-48982070D01*
X3057596Y-48716726D01*
X2745586Y-48508247D01*
X2398898Y-48364645D01*
X2030856Y-48291436D01*
X1655604Y-48291436D01*
X1287562Y-48364645D01*
X940874Y-48508247D01*
X628864Y-48716726D01*
X363520Y-48982070D01*
X155041Y-49294080D01*
X11439Y-49640768D01*
X-61770Y-50008810D01*
X-8832000Y-50008810D01*
X-8832000Y-40736530D01*
X-6675057Y-40736530D01*
X-6675057Y-41263470D01*
X-6572256Y-41780285D01*
X-6370604Y-42267114D01*
X-6077852Y-42705249D01*
X-5705249Y-43077852D01*
X-5267114Y-43370604D01*
X-4780285Y-43572256D01*
X-4263470Y-43675057D01*
X-3736530Y-43675057D01*
X-3219715Y-43572256D01*
X-2732886Y-43370604D01*
X-2294751Y-43077852D01*
X-1953429Y-42736530D01*
X20324943Y-42736530D01*
X20324943Y-43263470D01*
X20427744Y-43780285D01*
X20629396Y-44267114D01*
X20922148Y-44705249D01*
X21294751Y-45077852D01*
X21732886Y-45370604D01*
X22219715Y-45572256D01*
X22736530Y-45675057D01*
X23263470Y-45675057D01*
X23780285Y-45572256D01*
X24267114Y-45370604D01*
X24705249Y-45077852D01*
X25077852Y-44705249D01*
X25370604Y-44267114D01*
X25572256Y-43780285D01*
X25675057Y-43263470D01*
X25675057Y-42736530D01*
X194324943Y-42736530D01*
X194324943Y-43263470D01*
X194427744Y-43780285D01*
X194629396Y-44267114D01*
X194922148Y-44705249D01*
X195294751Y-45077852D01*
X195732886Y-45370604D01*
X196219715Y-45572256D01*
X196736530Y-45675057D01*
X197263470Y-45675057D01*
X197780285Y-45572256D01*
X198267114Y-45370604D01*
X198705249Y-45077852D01*
X199077852Y-44705249D01*
X199370604Y-44267114D01*
X199572256Y-43780285D01*
X199675057Y-43263470D01*
X199675057Y-42736530D01*
X199572256Y-42219715D01*
X199370604Y-41732886D01*
X199077852Y-41294751D01*
X198705249Y-40922148D01*
X198427452Y-40736530D01*
X226324943Y-40736530D01*
X226324943Y-41263470D01*
X226427744Y-41780285D01*
X226629396Y-42267114D01*
X226922148Y-42705249D01*
X227294751Y-43077852D01*
X227732886Y-43370604D01*
X228219715Y-43572256D01*
X228736530Y-43675057D01*
X229263470Y-43675057D01*
X229780285Y-43572256D01*
X230267114Y-43370604D01*
X230705249Y-43077852D01*
X231077852Y-42705249D01*
X231370604Y-42267114D01*
X231572256Y-41780285D01*
X231675057Y-41263470D01*
X231675057Y-40736530D01*
X231572256Y-40219715D01*
X231370604Y-39732886D01*
X231077852Y-39294751D01*
X230705249Y-38922148D01*
X230267114Y-38629396D01*
X229780285Y-38427744D01*
X229263470Y-38324943D01*
X228736530Y-38324943D01*
X228219715Y-38427744D01*
X227732886Y-38629396D01*
X227294751Y-38922148D01*
X226922148Y-39294751D01*
X226629396Y-39732886D01*
X226427744Y-40219715D01*
X226324943Y-40736530D01*
X198427452Y-40736530D01*
X198267114Y-40629396D01*
X197780285Y-40427744D01*
X197263470Y-40324943D01*
X196736530Y-40324943D01*
X196219715Y-40427744D01*
X195732886Y-40629396D01*
X195294751Y-40922148D01*
X194922148Y-41294751D01*
X194629396Y-41732886D01*
X194427744Y-42219715D01*
X194324943Y-42736530D01*
X25675057Y-42736530D01*
X25572256Y-42219715D01*
X25370604Y-41732886D01*
X25077852Y-41294751D01*
X24705249Y-40922148D01*
X24267114Y-40629396D01*
X23780285Y-40427744D01*
X23263470Y-40324943D01*
X22736530Y-40324943D01*
X22219715Y-40427744D01*
X21732886Y-40629396D01*
X21294751Y-40922148D01*
X20922148Y-41294751D01*
X20629396Y-41732886D01*
X20427744Y-42219715D01*
X20324943Y-42736530D01*
X-1953429Y-42736530D01*
X-1922148Y-42705249D01*
X-1629396Y-42267114D01*
X-1427744Y-41780285D01*
X-1324943Y-41263470D01*
X-1324943Y-40736530D01*
X-1427744Y-40219715D01*
X-1629396Y-39732886D01*
X-1922148Y-39294751D01*
X-2294751Y-38922148D01*
X-2732886Y-38629396D01*
X-3219715Y-38427744D01*
X-3736530Y-38324943D01*
X-4263470Y-38324943D01*
X-4780285Y-38427744D01*
X-5267114Y-38629396D01*
X-5705249Y-38922148D01*
X-6077852Y-39294751D01*
X-6370604Y-39732886D01*
X-6572256Y-40219715D01*
X-6675057Y-40736530D01*
X-8832000Y-40736530D01*
X-8832000Y-38057129D01*
X-8791615Y-37645251D01*
X-8688590Y-37304012D01*
X-8521249Y-36989290D01*
X-8295958Y-36713056D01*
X-8021309Y-36485846D01*
X-7707760Y-36316311D01*
X-7367248Y-36210905D01*
X-6959033Y-36168000D01*
X231942871Y-36168000D01*
X232354749Y-36208385D01*
G37*
X232354749Y-36208385D02*
X232695988Y-36311410D01*
X233010710Y-36478751D01*
X233286944Y-36704042D01*
X233514154Y-36978691D01*
X233683689Y-37292240D01*
X233789095Y-37632752D01*
X233832000Y-38040967D01*
X233832001Y-81942860D01*
X233791614Y-82354754D01*
X233688590Y-82695987D01*
X233521248Y-83010712D01*
X233295958Y-83286944D01*
X233021309Y-83514154D01*
X232707760Y-83683689D01*
X232367249Y-83789095D01*
X231959033Y-83832000D01*
X-6942870Y-83832000D01*
X-7354754Y-83791614D01*
X-7695987Y-83688590D01*
X-8010712Y-83521248D01*
X-8286944Y-83295958D01*
X-8514154Y-83021309D01*
X-8683689Y-82707760D01*
X-8789095Y-82367249D01*
X-8832000Y-81959033D01*
X-8832000Y-78736530D01*
X-6675057Y-78736530D01*
X-6675057Y-79263470D01*
X-6572256Y-79780285D01*
X-6370604Y-80267114D01*
X-6077852Y-80705249D01*
X-5705249Y-81077852D01*
X-5267114Y-81370604D01*
X-4780285Y-81572256D01*
X-4263470Y-81675057D01*
X-3736530Y-81675057D01*
X-3219715Y-81572256D01*
X-2732886Y-81370604D01*
X-2294751Y-81077852D01*
X-1922148Y-80705249D01*
X-1629396Y-80267114D01*
X-1427744Y-79780285D01*
X-1324943Y-79263470D01*
X-1324943Y-78736530D01*
X-1427744Y-78219715D01*
X-1629396Y-77732886D01*
X-1922148Y-77294751D01*
X-2294751Y-76922148D01*
X-2732886Y-76629396D01*
X-3219715Y-76427744D01*
X-3736530Y-76324943D01*
X-4263470Y-76324943D01*
X-4780285Y-76427744D01*
X-5267114Y-76629396D01*
X-5705249Y-76922148D01*
X-6077852Y-77294751D01*
X-6370604Y-77732886D01*
X-6572256Y-78219715D01*
X-6675057Y-78736530D01*
X-8832000Y-78736530D01*
X-8832000Y-74769235D01*
X417000Y-74769235D01*
X417000Y-75230765D01*
X507040Y-75683428D01*
X683660Y-76109827D01*
X940073Y-76493576D01*
X1266424Y-76819927D01*
X1650173Y-77076340D01*
X2076572Y-77252960D01*
X2529235Y-77343000D01*
X2990765Y-77343000D01*
X3443428Y-77252960D01*
X3869827Y-77076340D01*
X4253576Y-76819927D01*
X4579927Y-76493576D01*
X4836340Y-76109827D01*
X5012960Y-75683428D01*
X5103000Y-75230765D01*
X5103000Y-74769235D01*
X15657000Y-74769235D01*
X15657000Y-75230765D01*
X15747040Y-75683428D01*
X15923660Y-76109827D01*
X16180073Y-76493576D01*
X16506424Y-76819927D01*
X16890173Y-77076340D01*
X17316572Y-77252960D01*
X17769235Y-77343000D01*
X18230765Y-77343000D01*
X18683428Y-77252960D01*
X19109827Y-77076340D01*
X19493576Y-76819927D01*
X19819927Y-76493576D01*
X20003259Y-76219200D01*
X20997699Y-76219200D01*
X20922148Y-76294751D01*
X20629396Y-76732886D01*
X20427744Y-77219715D01*
X20324943Y-77736530D01*
X20324943Y-78263470D01*
X20427744Y-78780285D01*
X20629396Y-79267114D01*
X20922148Y-79705249D01*
X21294751Y-80077852D01*
X21732886Y-80370604D01*
X22219715Y-80572256D01*
X22736530Y-80675057D01*
X23263470Y-80675057D01*
X23780285Y-80572256D01*
X24267114Y-80370604D01*
X24705249Y-80077852D01*
X25077852Y-79705249D01*
X25370604Y-79267114D01*
X25567517Y-78791726D01*
X26674142Y-79898351D01*
X26712325Y-79944877D01*
X26897972Y-80097234D01*
X27035999Y-80171010D01*
X27109775Y-80210445D01*
X27339596Y-80280160D01*
X27578601Y-80303700D01*
X27638494Y-80297801D01*
X53261506Y-80297801D01*
X53321399Y-80303700D01*
X53381292Y-80297801D01*
X53560404Y-80280160D01*
X53790224Y-80210445D01*
X54002028Y-80097234D01*
X54143604Y-79981045D01*
X54203707Y-79993000D01*
X54596293Y-79993000D01*
X54981337Y-79916410D01*
X55344039Y-79766173D01*
X55670463Y-79548064D01*
X55948064Y-79270463D01*
X56022383Y-79159237D01*
X56173080Y-79271641D01*
X56435901Y-79396825D01*
X56583110Y-79441476D01*
X56813000Y-79320155D01*
X56813000Y-78127000D01*
X57067000Y-78127000D01*
X57067000Y-79320155D01*
X57296890Y-79441476D01*
X57444099Y-79396825D01*
X57706920Y-79271641D01*
X57940269Y-79097588D01*
X58135178Y-78881355D01*
X58284157Y-78631252D01*
X58381481Y-78356891D01*
X58260814Y-78127000D01*
X57067000Y-78127000D01*
X56813000Y-78127000D01*
X56793000Y-78127000D01*
X56793000Y-77873000D01*
X56813000Y-77873000D01*
X56813000Y-76679845D01*
X57067000Y-76679845D01*
X57067000Y-77873000D01*
X58260814Y-77873000D01*
X58381481Y-77643109D01*
X58284157Y-77368748D01*
X58135178Y-77118645D01*
X57940269Y-76902412D01*
X57706920Y-76728359D01*
X57444099Y-76603175D01*
X57296890Y-76558524D01*
X57067000Y-76679845D01*
X56813000Y-76679845D01*
X56583110Y-76558524D01*
X56435901Y-76603175D01*
X56173080Y-76728359D01*
X56022383Y-76840763D01*
X55948064Y-76729537D01*
X55718527Y-76500000D01*
X55948064Y-76270463D01*
X56022383Y-76159237D01*
X56173080Y-76271641D01*
X56435901Y-76396825D01*
X56583110Y-76441476D01*
X56813000Y-76320155D01*
X56813000Y-75127000D01*
X57067000Y-75127000D01*
X57067000Y-76320155D01*
X57296890Y-76441476D01*
X57444099Y-76396825D01*
X57706920Y-76271641D01*
X57940269Y-76097588D01*
X58135178Y-75881355D01*
X58284157Y-75631252D01*
X58381481Y-75356891D01*
X58260814Y-75127000D01*
X57067000Y-75127000D01*
X56813000Y-75127000D01*
X56793000Y-75127000D01*
X56793000Y-74873000D01*
X56813000Y-74873000D01*
X56813000Y-73679845D01*
X57067000Y-73679845D01*
X57067000Y-74873000D01*
X58260814Y-74873000D01*
X58381481Y-74643109D01*
X58284157Y-74368748D01*
X58153856Y-74150000D01*
X60001470Y-74150000D01*
X60001470Y-75850000D01*
X60023539Y-76074067D01*
X60088897Y-76289523D01*
X60195032Y-76488089D01*
X60204807Y-76500000D01*
X60195032Y-76511911D01*
X60088897Y-76710477D01*
X60023539Y-76925933D01*
X60001470Y-77150000D01*
X60001470Y-78850000D01*
X60023539Y-79074067D01*
X60088897Y-79289523D01*
X60195032Y-79488089D01*
X60337867Y-79662133D01*
X60511911Y-79804968D01*
X60710477Y-79911103D01*
X60925933Y-79976461D01*
X61150000Y-79998530D01*
X62850000Y-79998530D01*
X63074067Y-79976461D01*
X63289523Y-79911103D01*
X63488089Y-79804968D01*
X63562557Y-79743853D01*
X63595961Y-79766173D01*
X63958663Y-79916410D01*
X64343707Y-79993000D01*
X64736293Y-79993000D01*
X65121337Y-79916410D01*
X65484039Y-79766173D01*
X65810000Y-79548373D01*
X66135961Y-79766173D01*
X66498663Y-79916410D01*
X66883707Y-79993000D01*
X67276293Y-79993000D01*
X67661337Y-79916410D01*
X68024039Y-79766173D01*
X68350000Y-79548373D01*
X68675961Y-79766173D01*
X69038663Y-79916410D01*
X69423707Y-79993000D01*
X69816293Y-79993000D01*
X70201337Y-79916410D01*
X70564039Y-79766173D01*
X70890000Y-79548373D01*
X71215961Y-79766173D01*
X71578663Y-79916410D01*
X71963707Y-79993000D01*
X72356293Y-79993000D01*
X72741337Y-79916410D01*
X73104039Y-79766173D01*
X73430000Y-79548373D01*
X73755961Y-79766173D01*
X74118663Y-79916410D01*
X74503707Y-79993000D01*
X74896293Y-79993000D01*
X75281337Y-79916410D01*
X75644039Y-79766173D01*
X75970000Y-79548373D01*
X76295961Y-79766173D01*
X76658663Y-79916410D01*
X77043707Y-79993000D01*
X77436293Y-79993000D01*
X77821337Y-79916410D01*
X78184039Y-79766173D01*
X78510000Y-79548373D01*
X78835961Y-79766173D01*
X79198663Y-79916410D01*
X79583707Y-79993000D01*
X79976293Y-79993000D01*
X80361337Y-79916410D01*
X80724039Y-79766173D01*
X81050000Y-79548373D01*
X81375961Y-79766173D01*
X81738663Y-79916410D01*
X82123707Y-79993000D01*
X82516293Y-79993000D01*
X82901337Y-79916410D01*
X83264039Y-79766173D01*
X83590000Y-79548373D01*
X83915961Y-79766173D01*
X84278663Y-79916410D01*
X84663707Y-79993000D01*
X85056293Y-79993000D01*
X85441337Y-79916410D01*
X85804039Y-79766173D01*
X86130000Y-79548373D01*
X86455961Y-79766173D01*
X86818663Y-79916410D01*
X87203707Y-79993000D01*
X87596293Y-79993000D01*
X87981337Y-79916410D01*
X88344039Y-79766173D01*
X88670463Y-79548064D01*
X88948064Y-79270463D01*
X89022383Y-79159237D01*
X89173080Y-79271641D01*
X89435901Y-79396825D01*
X89583110Y-79441476D01*
X89813000Y-79320155D01*
X89813000Y-78127000D01*
X90067000Y-78127000D01*
X90067000Y-79320155D01*
X90296890Y-79441476D01*
X90444099Y-79396825D01*
X90706920Y-79271641D01*
X90940269Y-79097588D01*
X91135178Y-78881355D01*
X91284157Y-78631252D01*
X91381481Y-78356891D01*
X91260814Y-78127000D01*
X90067000Y-78127000D01*
X89813000Y-78127000D01*
X89793000Y-78127000D01*
X89793000Y-77873000D01*
X89813000Y-77873000D01*
X89813000Y-76679845D01*
X90067000Y-76679845D01*
X90067000Y-77873000D01*
X91260814Y-77873000D01*
X91381481Y-77643109D01*
X91284157Y-77368748D01*
X91135178Y-77118645D01*
X90940269Y-76902412D01*
X90706920Y-76728359D01*
X90444099Y-76603175D01*
X90296890Y-76558524D01*
X90067000Y-76679845D01*
X89813000Y-76679845D01*
X89583110Y-76558524D01*
X89435901Y-76603175D01*
X89173080Y-76728359D01*
X89022383Y-76840763D01*
X88948064Y-76729537D01*
X88718527Y-76500000D01*
X88948064Y-76270463D01*
X89022383Y-76159237D01*
X89173080Y-76271641D01*
X89435901Y-76396825D01*
X89583110Y-76441476D01*
X89813000Y-76320155D01*
X89813000Y-75127000D01*
X90067000Y-75127000D01*
X90067000Y-76320155D01*
X90296890Y-76441476D01*
X90444099Y-76396825D01*
X90706920Y-76271641D01*
X90940269Y-76097588D01*
X91135178Y-75881355D01*
X91284157Y-75631252D01*
X91381481Y-75356891D01*
X91260814Y-75127000D01*
X90067000Y-75127000D01*
X89813000Y-75127000D01*
X89793000Y-75127000D01*
X89793000Y-74873000D01*
X89813000Y-74873000D01*
X89813000Y-73679845D01*
X90067000Y-73679845D01*
X90067000Y-74873000D01*
X91260814Y-74873000D01*
X91381481Y-74643109D01*
X91284157Y-74368748D01*
X91135178Y-74118645D01*
X90940269Y-73902412D01*
X90706920Y-73728359D01*
X90444099Y-73603175D01*
X90296890Y-73558524D01*
X90067000Y-73679845D01*
X89813000Y-73679845D01*
X89583110Y-73558524D01*
X89435901Y-73603175D01*
X89173080Y-73728359D01*
X89022383Y-73840763D01*
X88948064Y-73729537D01*
X88670463Y-73451936D01*
X88344039Y-73233827D01*
X87981337Y-73083590D01*
X87596293Y-73007000D01*
X87203707Y-73007000D01*
X87143237Y-73019028D01*
X77304464Y-63180256D01*
X77266276Y-63133724D01*
X77080629Y-62981367D01*
X76868825Y-62868156D01*
X76639005Y-62798441D01*
X76459893Y-62780800D01*
X76400000Y-62774901D01*
X76340107Y-62780800D01*
X76003259Y-62780800D01*
X75819927Y-62506424D01*
X75493576Y-62180073D01*
X75109827Y-61923660D01*
X74683428Y-61747040D01*
X74230765Y-61657000D01*
X73769235Y-61657000D01*
X73316572Y-61747040D01*
X72890173Y-61923660D01*
X72506424Y-62180073D01*
X72180073Y-62506424D01*
X71996741Y-62780800D01*
X67003259Y-62780800D01*
X66819927Y-62506424D01*
X66493576Y-62180073D01*
X66455348Y-62154530D01*
X82341588Y-46268292D01*
X82519833Y-46194460D01*
X82747986Y-46042014D01*
X82942014Y-45847986D01*
X83094460Y-45619833D01*
X83199468Y-45366323D01*
X83228733Y-45219200D01*
X90614264Y-45219200D01*
X90614264Y-45536271D01*
X90687473Y-45904313D01*
X90814628Y-46211295D01*
X90634678Y-45941981D01*
X90369334Y-45676637D01*
X90057324Y-45468158D01*
X89710636Y-45324556D01*
X89342594Y-45251347D01*
X88967342Y-45251347D01*
X88599300Y-45324556D01*
X88252612Y-45468158D01*
X87940602Y-45676637D01*
X87675258Y-45941981D01*
X87466779Y-46253991D01*
X87323177Y-46600679D01*
X87249968Y-46968721D01*
X87249968Y-47343973D01*
X87323177Y-47712015D01*
X87466779Y-48058703D01*
X87675258Y-48370713D01*
X87940602Y-48636057D01*
X88252612Y-48844536D01*
X88599300Y-48988138D01*
X88967342Y-49061347D01*
X89342594Y-49061347D01*
X89710636Y-48988138D01*
X90057324Y-48844536D01*
X90369334Y-48636057D01*
X90634678Y-48370713D01*
X90843157Y-48058703D01*
X90986759Y-47712015D01*
X91059968Y-47343973D01*
X91059968Y-46968721D01*
X90986759Y-46600679D01*
X90859604Y-46293697D01*
X91039554Y-46563011D01*
X91304898Y-46828355D01*
X91616908Y-47036834D01*
X91963596Y-47180436D01*
X92331638Y-47253645D01*
X92700056Y-47253645D01*
X93018802Y-47572392D01*
X93018801Y-60750393D01*
X88824429Y-56556021D01*
X88824429Y-51018327D01*
X88830328Y-50958434D01*
X88806788Y-50719429D01*
X88764470Y-50579927D01*
X88737073Y-50489610D01*
X88729903Y-50476196D01*
X88748230Y-50384062D01*
X88748230Y-50008810D01*
X88675021Y-49640768D01*
X88531419Y-49294080D01*
X88322940Y-48982070D01*
X88057596Y-48716726D01*
X87745586Y-48508247D01*
X87398898Y-48364645D01*
X87030856Y-48291436D01*
X86655604Y-48291436D01*
X86287562Y-48364645D01*
X85940874Y-48508247D01*
X85628864Y-48716726D01*
X85363520Y-48982070D01*
X85155041Y-49294080D01*
X85011439Y-49640768D01*
X84938230Y-50008810D01*
X84938230Y-50384062D01*
X85011439Y-50752104D01*
X85155041Y-51098792D01*
X85363520Y-51410802D01*
X85628864Y-51676146D01*
X85940874Y-51884625D01*
X86287562Y-52028227D01*
X86386030Y-52047814D01*
X86386029Y-54651138D01*
X86182997Y-54651138D01*
X85814955Y-54724347D01*
X85468267Y-54867949D01*
X85156257Y-55076428D01*
X84890913Y-55341772D01*
X84682434Y-55653782D01*
X84538832Y-56000470D01*
X84465623Y-56368512D01*
X84465623Y-56743764D01*
X84538832Y-57111806D01*
X84682434Y-57458494D01*
X84890913Y-57770504D01*
X85156257Y-58035848D01*
X85468267Y-58244327D01*
X85814955Y-58387929D01*
X86182997Y-58461138D01*
X86558249Y-58461138D01*
X86926291Y-58387929D01*
X87125434Y-58305442D01*
X87144050Y-58324058D01*
X86993248Y-58424821D01*
X86727904Y-58690165D01*
X86519425Y-59002175D01*
X86375823Y-59348863D01*
X86302614Y-59716905D01*
X86302614Y-60092157D01*
X86375823Y-60460199D01*
X86519425Y-60806887D01*
X86727904Y-61118897D01*
X86993248Y-61384241D01*
X87305258Y-61592720D01*
X87651946Y-61736322D01*
X88019988Y-61809531D01*
X88395240Y-61809531D01*
X88763282Y-61736322D01*
X89109970Y-61592720D01*
X89421980Y-61384241D01*
X89687324Y-61118897D01*
X89788087Y-60968095D01*
X89791664Y-60971672D01*
X89788051Y-60975285D01*
X89579572Y-61287295D01*
X89435970Y-61633983D01*
X89362761Y-62002025D01*
X89362761Y-62377277D01*
X89435970Y-62745319D01*
X89579572Y-63092007D01*
X89788051Y-63404017D01*
X90053395Y-63669361D01*
X90365405Y-63877840D01*
X90712093Y-64021442D01*
X91080135Y-64094651D01*
X91455387Y-64094651D01*
X91823429Y-64021442D01*
X92170117Y-63877840D01*
X92482127Y-63669361D01*
X92485740Y-63665748D01*
X94270801Y-65450810D01*
X94270800Y-71297328D01*
X94255540Y-71320167D01*
X94150532Y-71573677D01*
X94097000Y-71842801D01*
X94097000Y-72117199D01*
X94150532Y-72386323D01*
X94255540Y-72639833D01*
X94406953Y-72866439D01*
X94271922Y-73001470D01*
X94150000Y-73001470D01*
X93925933Y-73023539D01*
X93710477Y-73088897D01*
X93511911Y-73195032D01*
X93337867Y-73337867D01*
X93195032Y-73511911D01*
X93088897Y-73710477D01*
X93023539Y-73925933D01*
X93001470Y-74150000D01*
X93001470Y-75850000D01*
X93023539Y-76074067D01*
X93088897Y-76289523D01*
X93195032Y-76488089D01*
X93204807Y-76500000D01*
X93195032Y-76511911D01*
X93088897Y-76710477D01*
X93023539Y-76925933D01*
X93001470Y-77150000D01*
X93001470Y-78850000D01*
X93023539Y-79074067D01*
X93088897Y-79289523D01*
X93195032Y-79488089D01*
X93337867Y-79662133D01*
X93511911Y-79804968D01*
X93710477Y-79911103D01*
X93925933Y-79976461D01*
X94150000Y-79998530D01*
X95850000Y-79998530D01*
X96074067Y-79976461D01*
X96289523Y-79911103D01*
X96488089Y-79804968D01*
X96562557Y-79743853D01*
X96595961Y-79766173D01*
X96958663Y-79916410D01*
X97343707Y-79993000D01*
X97736293Y-79993000D01*
X98121337Y-79916410D01*
X98484039Y-79766173D01*
X98810000Y-79548373D01*
X99135961Y-79766173D01*
X99498663Y-79916410D01*
X99883707Y-79993000D01*
X100276293Y-79993000D01*
X100661337Y-79916410D01*
X101024039Y-79766173D01*
X101350000Y-79548373D01*
X101675961Y-79766173D01*
X102038663Y-79916410D01*
X102423707Y-79993000D01*
X102816293Y-79993000D01*
X103201337Y-79916410D01*
X103564039Y-79766173D01*
X103890000Y-79548373D01*
X104215961Y-79766173D01*
X104578663Y-79916410D01*
X104963707Y-79993000D01*
X105356293Y-79993000D01*
X105741337Y-79916410D01*
X106104039Y-79766173D01*
X106430000Y-79548373D01*
X106755961Y-79766173D01*
X107118663Y-79916410D01*
X107503707Y-79993000D01*
X107896293Y-79993000D01*
X108281337Y-79916410D01*
X108644039Y-79766173D01*
X108970000Y-79548373D01*
X109295961Y-79766173D01*
X109658663Y-79916410D01*
X110043707Y-79993000D01*
X110436293Y-79993000D01*
X110821337Y-79916410D01*
X111184039Y-79766173D01*
X111510000Y-79548373D01*
X111835961Y-79766173D01*
X112198663Y-79916410D01*
X112583707Y-79993000D01*
X112976293Y-79993000D01*
X113361337Y-79916410D01*
X113724039Y-79766173D01*
X114050000Y-79548373D01*
X114375961Y-79766173D01*
X114738663Y-79916410D01*
X115123707Y-79993000D01*
X115516293Y-79993000D01*
X115901337Y-79916410D01*
X116264039Y-79766173D01*
X116590000Y-79548373D01*
X116915961Y-79766173D01*
X117278663Y-79916410D01*
X117663707Y-79993000D01*
X118056293Y-79993000D01*
X118441337Y-79916410D01*
X118804039Y-79766173D01*
X119130000Y-79548373D01*
X119455961Y-79766173D01*
X119818663Y-79916410D01*
X120203707Y-79993000D01*
X120596293Y-79993000D01*
X120656396Y-79981045D01*
X120797972Y-80097234D01*
X121009776Y-80210445D01*
X121169880Y-80259012D01*
X121239595Y-80280160D01*
X121478600Y-80303700D01*
X121538493Y-80297801D01*
X124661506Y-80297801D01*
X124721399Y-80303700D01*
X124781292Y-80297801D01*
X124960404Y-80280160D01*
X125190224Y-80210445D01*
X125402028Y-80097234D01*
X125587675Y-79944877D01*
X125625863Y-79898345D01*
X127324943Y-78199265D01*
X127324943Y-78263470D01*
X127427744Y-78780285D01*
X127629396Y-79267114D01*
X127922148Y-79705249D01*
X128294751Y-80077852D01*
X128732886Y-80370604D01*
X129219715Y-80572256D01*
X129736530Y-80675057D01*
X130263470Y-80675057D01*
X130780285Y-80572256D01*
X131267114Y-80370604D01*
X131705249Y-80077852D01*
X132077852Y-79705249D01*
X132370604Y-79267114D01*
X132572256Y-78780285D01*
X132675057Y-78263470D01*
X132675057Y-77736530D01*
X194324943Y-77736530D01*
X194324943Y-78263470D01*
X194427744Y-78780285D01*
X194629396Y-79267114D01*
X194922148Y-79705249D01*
X195294751Y-80077852D01*
X195732886Y-80370604D01*
X196219715Y-80572256D01*
X196736530Y-80675057D01*
X197263470Y-80675057D01*
X197780285Y-80572256D01*
X198267114Y-80370604D01*
X198705249Y-80077852D01*
X199077852Y-79705249D01*
X199370604Y-79267114D01*
X199572256Y-78780285D01*
X199580959Y-78736530D01*
X226324943Y-78736530D01*
X226324943Y-79263470D01*
X226427744Y-79780285D01*
X226629396Y-80267114D01*
X226922148Y-80705249D01*
X227294751Y-81077852D01*
X227732886Y-81370604D01*
X228219715Y-81572256D01*
X228736530Y-81675057D01*
X229263470Y-81675057D01*
X229780285Y-81572256D01*
X230267114Y-81370604D01*
X230705249Y-81077852D01*
X231077852Y-80705249D01*
X231370604Y-80267114D01*
X231572256Y-79780285D01*
X231675057Y-79263470D01*
X231675057Y-78736530D01*
X231572256Y-78219715D01*
X231370604Y-77732886D01*
X231077852Y-77294751D01*
X230705249Y-76922148D01*
X230267114Y-76629396D01*
X229780285Y-76427744D01*
X229263470Y-76324943D01*
X228736530Y-76324943D01*
X228219715Y-76427744D01*
X227732886Y-76629396D01*
X227294751Y-76922148D01*
X226922148Y-77294751D01*
X226629396Y-77732886D01*
X226427744Y-78219715D01*
X226324943Y-78736530D01*
X199580959Y-78736530D01*
X199675057Y-78263470D01*
X199675057Y-77736530D01*
X199572256Y-77219715D01*
X199370604Y-76732886D01*
X199077852Y-76294751D01*
X198705249Y-75922148D01*
X198267114Y-75629396D01*
X197780285Y-75427744D01*
X197263470Y-75324943D01*
X196736530Y-75324943D01*
X196219715Y-75427744D01*
X195732886Y-75629396D01*
X195294751Y-75922148D01*
X194922148Y-76294751D01*
X194629396Y-76732886D01*
X194427744Y-77219715D01*
X194324943Y-77736530D01*
X132675057Y-77736530D01*
X132572256Y-77219715D01*
X132370604Y-76732886D01*
X132077852Y-76294751D01*
X132002301Y-76219200D01*
X138940107Y-76219200D01*
X139000000Y-76225099D01*
X139059893Y-76219200D01*
X139239005Y-76201559D01*
X139468825Y-76131844D01*
X139680629Y-76018633D01*
X139866276Y-75866276D01*
X139904464Y-75819744D01*
X149445586Y-66278622D01*
X149769235Y-66343000D01*
X150230765Y-66343000D01*
X150683428Y-66252960D01*
X151109827Y-66076340D01*
X151493576Y-65819927D01*
X151819927Y-65493576D01*
X152003259Y-65219200D01*
X156996741Y-65219200D01*
X157180073Y-65493576D01*
X157506424Y-65819927D01*
X157890173Y-66076340D01*
X158316572Y-66252960D01*
X158769235Y-66343000D01*
X159230765Y-66343000D01*
X159554414Y-66278622D01*
X168095541Y-74819750D01*
X168133724Y-74866276D01*
X168319371Y-75018633D01*
X168526683Y-75129443D01*
X168531175Y-75131844D01*
X168760995Y-75201559D01*
X169000000Y-75225099D01*
X169059893Y-75219200D01*
X198996741Y-75219200D01*
X199180073Y-75493576D01*
X199506424Y-75819927D01*
X199890173Y-76076340D01*
X200316572Y-76252960D01*
X200769235Y-76343000D01*
X201230765Y-76343000D01*
X201683428Y-76252960D01*
X202109827Y-76076340D01*
X202493576Y-75819927D01*
X202819927Y-75493576D01*
X203076340Y-75109827D01*
X203252960Y-74683428D01*
X203343000Y-74230765D01*
X203343000Y-73769235D01*
X203252960Y-73316572D01*
X203076340Y-72890173D01*
X202819927Y-72506424D01*
X202493576Y-72180073D01*
X202109827Y-71923660D01*
X201683428Y-71747040D01*
X201230765Y-71657000D01*
X200769235Y-71657000D01*
X200316572Y-71747040D01*
X199890173Y-71923660D01*
X199506424Y-72180073D01*
X199180073Y-72506424D01*
X198996741Y-72780800D01*
X198676816Y-72780800D01*
X198824460Y-72559833D01*
X198929468Y-72306323D01*
X198983000Y-72037199D01*
X198983000Y-71762801D01*
X198929468Y-71493677D01*
X198824460Y-71240167D01*
X198809200Y-71217329D01*
X198809200Y-62002025D01*
X209362761Y-62002025D01*
X209362761Y-62377277D01*
X209435970Y-62745319D01*
X209579572Y-63092007D01*
X209788051Y-63404017D01*
X210053395Y-63669361D01*
X210365405Y-63877840D01*
X210712093Y-64021442D01*
X211080135Y-64094651D01*
X211455387Y-64094651D01*
X211823429Y-64021442D01*
X212170117Y-63877840D01*
X212482127Y-63669361D01*
X212747471Y-63404017D01*
X212955950Y-63092007D01*
X213099552Y-62745319D01*
X213172761Y-62377277D01*
X213172761Y-62002025D01*
X213099552Y-61633983D01*
X212955950Y-61287295D01*
X212747471Y-60975285D01*
X212482127Y-60709941D01*
X212170117Y-60501462D01*
X211823429Y-60357860D01*
X211455387Y-60284651D01*
X211080135Y-60284651D01*
X210712093Y-60357860D01*
X210365405Y-60501462D01*
X210053395Y-60709941D01*
X209788051Y-60975285D01*
X209579572Y-61287295D01*
X209435970Y-61633983D01*
X209362761Y-62002025D01*
X198809200Y-62002025D01*
X198809200Y-59954674D01*
X202395362Y-56368512D01*
X204465623Y-56368512D01*
X204465623Y-56743764D01*
X204538832Y-57111806D01*
X204682434Y-57458494D01*
X204890913Y-57770504D01*
X205156257Y-58035848D01*
X205468267Y-58244327D01*
X205814955Y-58387929D01*
X206182997Y-58461138D01*
X206558249Y-58461138D01*
X206926291Y-58387929D01*
X207247713Y-58254792D01*
X206993248Y-58424821D01*
X206727904Y-58690165D01*
X206519425Y-59002175D01*
X206375823Y-59348863D01*
X206302614Y-59716905D01*
X206302614Y-60092157D01*
X206375823Y-60460199D01*
X206519425Y-60806887D01*
X206727904Y-61118897D01*
X206993248Y-61384241D01*
X207305258Y-61592720D01*
X207651946Y-61736322D01*
X208019988Y-61809531D01*
X208395240Y-61809531D01*
X208763282Y-61736322D01*
X209109970Y-61592720D01*
X209421980Y-61384241D01*
X209687324Y-61118897D01*
X209895803Y-60806887D01*
X210039405Y-60460199D01*
X210112614Y-60092157D01*
X210112614Y-59716905D01*
X210039405Y-59348863D01*
X209895803Y-59002175D01*
X209687324Y-58690165D01*
X209421980Y-58424821D01*
X209109970Y-58216342D01*
X208763282Y-58072740D01*
X208395240Y-57999531D01*
X208019988Y-57999531D01*
X207651946Y-58072740D01*
X207330524Y-58205877D01*
X207584989Y-58035848D01*
X207850333Y-57770504D01*
X208058812Y-57458494D01*
X208202414Y-57111806D01*
X208275623Y-56743764D01*
X208275623Y-56368512D01*
X208202414Y-56000470D01*
X208058812Y-55653782D01*
X207850333Y-55341772D01*
X207584989Y-55076428D01*
X207272979Y-54867949D01*
X206926291Y-54724347D01*
X206558249Y-54651138D01*
X206182997Y-54651138D01*
X205814955Y-54724347D01*
X205468267Y-54867949D01*
X205156257Y-55076428D01*
X204890913Y-55341772D01*
X204682434Y-55653782D01*
X204538832Y-56000470D01*
X204465623Y-56368512D01*
X202395362Y-56368512D01*
X206662440Y-52101436D01*
X207030856Y-52101436D01*
X207398898Y-52028227D01*
X207745586Y-51884625D01*
X208057596Y-51676146D01*
X208322940Y-51410802D01*
X208531419Y-51098792D01*
X208675021Y-50752104D01*
X208748230Y-50384062D01*
X208748230Y-50008810D01*
X208675021Y-49640768D01*
X208531419Y-49294080D01*
X208322940Y-48982070D01*
X208057596Y-48716726D01*
X207745586Y-48508247D01*
X207398898Y-48364645D01*
X207030856Y-48291436D01*
X206655604Y-48291436D01*
X206287562Y-48364645D01*
X205940874Y-48508247D01*
X205628864Y-48716726D01*
X205363520Y-48982070D01*
X205155041Y-49294080D01*
X205011439Y-49640768D01*
X204938230Y-50008810D01*
X204938230Y-50377226D01*
X196770251Y-58545207D01*
X196723725Y-58583390D01*
X196571368Y-58769037D01*
X196495738Y-58910532D01*
X196458157Y-58980841D01*
X196388441Y-59210662D01*
X196364901Y-59449666D01*
X196370801Y-59509569D01*
X196370800Y-71217329D01*
X196355540Y-71240167D01*
X196250532Y-71493677D01*
X196197000Y-71762801D01*
X196197000Y-72037199D01*
X196250532Y-72306323D01*
X196355540Y-72559833D01*
X196503184Y-72780800D01*
X169505009Y-72780800D01*
X165018400Y-68294191D01*
X166030536Y-68294191D01*
X166030536Y-68568589D01*
X166084068Y-68837713D01*
X166189076Y-69091223D01*
X166341522Y-69319376D01*
X166535550Y-69513404D01*
X166763703Y-69665850D01*
X167017213Y-69770858D01*
X167286337Y-69824390D01*
X167560735Y-69824390D01*
X167829859Y-69770858D01*
X168083369Y-69665850D01*
X168311522Y-69513404D01*
X168505550Y-69319376D01*
X168657996Y-69091223D01*
X168763004Y-68837713D01*
X168816536Y-68568589D01*
X168816536Y-68294191D01*
X168763004Y-68025067D01*
X168657996Y-67771557D01*
X168642736Y-67748719D01*
X168642736Y-62002025D01*
X174362761Y-62002025D01*
X174362761Y-62377277D01*
X174435970Y-62745319D01*
X174579572Y-63092007D01*
X174788051Y-63404017D01*
X175053395Y-63669361D01*
X175365405Y-63877840D01*
X175712093Y-64021442D01*
X176080135Y-64094651D01*
X176455387Y-64094651D01*
X176823429Y-64021442D01*
X177170117Y-63877840D01*
X177482127Y-63669361D01*
X177747471Y-63404017D01*
X177955950Y-63092007D01*
X178099552Y-62745319D01*
X178172761Y-62377277D01*
X178172761Y-62002025D01*
X178099552Y-61633983D01*
X177955950Y-61287295D01*
X177747471Y-60975285D01*
X177482127Y-60709941D01*
X177170117Y-60501462D01*
X176823429Y-60357860D01*
X176455387Y-60284651D01*
X176080135Y-60284651D01*
X175712093Y-60357860D01*
X175365405Y-60501462D01*
X175053395Y-60709941D01*
X174788051Y-60975285D01*
X174579572Y-61287295D01*
X174435970Y-61633983D01*
X174362761Y-62002025D01*
X168642736Y-62002025D01*
X168642736Y-56368512D01*
X169465623Y-56368512D01*
X169465623Y-56743764D01*
X169538832Y-57111806D01*
X169682434Y-57458494D01*
X169890913Y-57770504D01*
X170156257Y-58035848D01*
X170468267Y-58244327D01*
X170814955Y-58387929D01*
X171182997Y-58461138D01*
X171558249Y-58461138D01*
X171926291Y-58387929D01*
X172247713Y-58254792D01*
X171993248Y-58424821D01*
X171727904Y-58690165D01*
X171519425Y-59002175D01*
X171375823Y-59348863D01*
X171302614Y-59716905D01*
X171302614Y-60092157D01*
X171375823Y-60460199D01*
X171519425Y-60806887D01*
X171727904Y-61118897D01*
X171993248Y-61384241D01*
X172305258Y-61592720D01*
X172651946Y-61736322D01*
X173019988Y-61809531D01*
X173395240Y-61809531D01*
X173763282Y-61736322D01*
X174109970Y-61592720D01*
X174421980Y-61384241D01*
X174687324Y-61118897D01*
X174895803Y-60806887D01*
X175039405Y-60460199D01*
X175112614Y-60092157D01*
X175112614Y-59716905D01*
X175039405Y-59348863D01*
X174895803Y-59002175D01*
X174687324Y-58690165D01*
X174421980Y-58424821D01*
X174109970Y-58216342D01*
X173763282Y-58072740D01*
X173395240Y-57999531D01*
X173019988Y-57999531D01*
X172651946Y-58072740D01*
X172330524Y-58205877D01*
X172584989Y-58035848D01*
X172850333Y-57770504D01*
X173058812Y-57458494D01*
X173202414Y-57111806D01*
X173275623Y-56743764D01*
X173275623Y-56368512D01*
X173202414Y-56000470D01*
X173058812Y-55653782D01*
X172850333Y-55341772D01*
X172584989Y-55076428D01*
X172272979Y-54867949D01*
X171926291Y-54724347D01*
X171558249Y-54651138D01*
X171182997Y-54651138D01*
X170814955Y-54724347D01*
X170468267Y-54867949D01*
X170156257Y-55076428D01*
X169890913Y-55341772D01*
X169682434Y-55653782D01*
X169538832Y-56000470D01*
X169465623Y-56368512D01*
X168642736Y-56368512D01*
X168642736Y-55121138D01*
X171662439Y-52101436D01*
X172030856Y-52101436D01*
X172398898Y-52028227D01*
X172745586Y-51884625D01*
X173057596Y-51676146D01*
X173322940Y-51410802D01*
X173531419Y-51098792D01*
X173675021Y-50752104D01*
X173748230Y-50384062D01*
X173748230Y-50008810D01*
X173675021Y-49640768D01*
X173531419Y-49294080D01*
X173322940Y-48982070D01*
X173057596Y-48716726D01*
X172745586Y-48508247D01*
X172398898Y-48364645D01*
X172030856Y-48291436D01*
X171655604Y-48291436D01*
X171287562Y-48364645D01*
X170940874Y-48508247D01*
X170628864Y-48716726D01*
X170363520Y-48982070D01*
X170155041Y-49294080D01*
X170011439Y-49640768D01*
X169938230Y-50008810D01*
X169938230Y-50377227D01*
X166603792Y-53711666D01*
X166557260Y-53749854D01*
X166404903Y-53935502D01*
X166291692Y-54147306D01*
X166227783Y-54357986D01*
X166221977Y-54377126D01*
X166198437Y-54616130D01*
X166204336Y-54676023D01*
X166204337Y-67748717D01*
X166189076Y-67771557D01*
X166084068Y-68025067D01*
X166030536Y-68294191D01*
X165018400Y-68294191D01*
X161278622Y-64554414D01*
X161343000Y-64230765D01*
X161343000Y-63769235D01*
X161252960Y-63316572D01*
X161076340Y-62890173D01*
X160819927Y-62506424D01*
X160493576Y-62180073D01*
X160109827Y-61923660D01*
X159683428Y-61747040D01*
X159230765Y-61657000D01*
X158769235Y-61657000D01*
X158316572Y-61747040D01*
X157890173Y-61923660D01*
X157506424Y-62180073D01*
X157180073Y-62506424D01*
X156996741Y-62780800D01*
X152003259Y-62780800D01*
X151819927Y-62506424D01*
X151493576Y-62180073D01*
X151109827Y-61923660D01*
X150683428Y-61747040D01*
X150230765Y-61657000D01*
X149769235Y-61657000D01*
X149316572Y-61747040D01*
X148890173Y-61923660D01*
X148506424Y-62180073D01*
X148180073Y-62506424D01*
X147923660Y-62890173D01*
X147747040Y-63316572D01*
X147657000Y-63769235D01*
X147657000Y-64230765D01*
X147721378Y-64554414D01*
X144104897Y-68170895D01*
X144060810Y-68064461D01*
X143908364Y-67836308D01*
X143714336Y-67642280D01*
X143486183Y-67489834D01*
X143232673Y-67384826D01*
X142963549Y-67331294D01*
X142689151Y-67331294D01*
X142420027Y-67384826D01*
X142166517Y-67489834D01*
X142143679Y-67505094D01*
X100333199Y-67505094D01*
X100273306Y-67499195D01*
X100034301Y-67522735D01*
X99804480Y-67592450D01*
X99730704Y-67631885D01*
X99592677Y-67705661D01*
X99407030Y-67858018D01*
X99368847Y-67904544D01*
X96709200Y-70564192D01*
X96709200Y-65005692D01*
X96715099Y-64945799D01*
X96711745Y-64911745D01*
X96872014Y-65072014D01*
X97100167Y-65224460D01*
X97353677Y-65329468D01*
X97622801Y-65383000D01*
X97897199Y-65383000D01*
X98166323Y-65329468D01*
X98419833Y-65224460D01*
X98647986Y-65072014D01*
X98842014Y-64877986D01*
X98994460Y-64649833D01*
X99099468Y-64396323D01*
X99153000Y-64127199D01*
X99153000Y-64048277D01*
X99287907Y-64021442D01*
X99634595Y-63877840D01*
X99946605Y-63669361D01*
X100211949Y-63404017D01*
X100420428Y-63092007D01*
X100564030Y-62745319D01*
X100637239Y-62377277D01*
X100637239Y-62114332D01*
X124362761Y-62114332D01*
X124362761Y-62377277D01*
X124435970Y-62745319D01*
X124579572Y-63092007D01*
X124788051Y-63404017D01*
X125053395Y-63669361D01*
X125365405Y-63877840D01*
X125712093Y-64021442D01*
X126080135Y-64094651D01*
X126455387Y-64094651D01*
X126823429Y-64021442D01*
X127170117Y-63877840D01*
X127482127Y-63669361D01*
X127747471Y-63404017D01*
X127955950Y-63092007D01*
X128099552Y-62745319D01*
X128172761Y-62377277D01*
X128172761Y-62002025D01*
X128099552Y-61633983D01*
X128078511Y-61583186D01*
X128093677Y-61589468D01*
X128362801Y-61643000D01*
X128637199Y-61643000D01*
X128669312Y-61636612D01*
X128520290Y-61785634D01*
X128311811Y-62097644D01*
X128168209Y-62444332D01*
X128095000Y-62812374D01*
X128095000Y-63187626D01*
X128168209Y-63555668D01*
X128311811Y-63902356D01*
X128520290Y-64214366D01*
X128785634Y-64479710D01*
X129097644Y-64688189D01*
X129444332Y-64831791D01*
X129812374Y-64905000D01*
X130187626Y-64905000D01*
X130555668Y-64831791D01*
X130902356Y-64688189D01*
X131214366Y-64479710D01*
X131479710Y-64214366D01*
X131688189Y-63902356D01*
X131831791Y-63555668D01*
X131905000Y-63187626D01*
X131905000Y-62812374D01*
X131831791Y-62444332D01*
X131688189Y-62097644D01*
X131624299Y-62002025D01*
X131827239Y-62002025D01*
X131827239Y-62377277D01*
X131900448Y-62745319D01*
X132044050Y-63092007D01*
X132252529Y-63404017D01*
X132517873Y-63669361D01*
X132829883Y-63877840D01*
X133176571Y-64021442D01*
X133544613Y-64094651D01*
X133919865Y-64094651D01*
X134287907Y-64021442D01*
X134634595Y-63877840D01*
X134946605Y-63669361D01*
X135211949Y-63404017D01*
X135420428Y-63092007D01*
X135564030Y-62745319D01*
X135637239Y-62377277D01*
X135637239Y-62002025D01*
X135564030Y-61633983D01*
X135420428Y-61287295D01*
X135211949Y-60975285D01*
X134946605Y-60709941D01*
X134634595Y-60501462D01*
X134287907Y-60357860D01*
X133919865Y-60284651D01*
X133544613Y-60284651D01*
X133176571Y-60357860D01*
X132829883Y-60501462D01*
X132517873Y-60709941D01*
X132252529Y-60975285D01*
X132044050Y-61287295D01*
X131900448Y-61633983D01*
X131827239Y-62002025D01*
X131624299Y-62002025D01*
X131479710Y-61785634D01*
X131219200Y-61525124D01*
X131219200Y-59716905D01*
X134887386Y-59716905D01*
X134887386Y-60092157D01*
X134960595Y-60460199D01*
X135104197Y-60806887D01*
X135312676Y-61118897D01*
X135578020Y-61384241D01*
X135890030Y-61592720D01*
X136236718Y-61736322D01*
X136604760Y-61809531D01*
X136980012Y-61809531D01*
X137348054Y-61736322D01*
X137694742Y-61592720D01*
X138006752Y-61384241D01*
X138272096Y-61118897D01*
X138480575Y-60806887D01*
X138624177Y-60460199D01*
X138697386Y-60092157D01*
X138697386Y-59716905D01*
X138624177Y-59348863D01*
X138480575Y-59002175D01*
X138272096Y-58690165D01*
X138006752Y-58424821D01*
X137752287Y-58254792D01*
X138073709Y-58387929D01*
X138441751Y-58461138D01*
X138817003Y-58461138D01*
X139185045Y-58387929D01*
X139531733Y-58244327D01*
X139843743Y-58035848D01*
X140109087Y-57770504D01*
X140317566Y-57458494D01*
X140461168Y-57111806D01*
X140534377Y-56743764D01*
X140534377Y-56368512D01*
X140461168Y-56000470D01*
X140317566Y-55653782D01*
X140109087Y-55341772D01*
X139843743Y-55076428D01*
X139531733Y-54867949D01*
X139185045Y-54724347D01*
X138823564Y-54652443D01*
X139100038Y-54652443D01*
X139468080Y-54579234D01*
X139814768Y-54435632D01*
X140126778Y-54227153D01*
X140392122Y-53961809D01*
X140600601Y-53649799D01*
X140744203Y-53303111D01*
X140817412Y-52935069D01*
X140817412Y-52559817D01*
X140744203Y-52191775D01*
X140600601Y-51845087D01*
X140392122Y-51533077D01*
X140126778Y-51267733D01*
X139814768Y-51059254D01*
X139468080Y-50915652D01*
X139100038Y-50842443D01*
X138724786Y-50842443D01*
X138356744Y-50915652D01*
X138010056Y-51059254D01*
X137698046Y-51267733D01*
X137432702Y-51533077D01*
X137224223Y-51845087D01*
X137080621Y-52191775D01*
X137007412Y-52559817D01*
X137007412Y-52935069D01*
X137080621Y-53303111D01*
X137224223Y-53649799D01*
X137432702Y-53961809D01*
X137698046Y-54227153D01*
X138010056Y-54435632D01*
X138356744Y-54579234D01*
X138718225Y-54651138D01*
X138441751Y-54651138D01*
X138073709Y-54724347D01*
X137727021Y-54867949D01*
X137415011Y-55076428D01*
X137149667Y-55341772D01*
X136941188Y-55653782D01*
X136797586Y-56000470D01*
X136724377Y-56368512D01*
X136724377Y-56743764D01*
X136797586Y-57111806D01*
X136941188Y-57458494D01*
X137149667Y-57770504D01*
X137415011Y-58035848D01*
X137669476Y-58205877D01*
X137348054Y-58072740D01*
X136980012Y-57999531D01*
X136604760Y-57999531D01*
X136236718Y-58072740D01*
X135890030Y-58216342D01*
X135578020Y-58424821D01*
X135312676Y-58690165D01*
X135104197Y-59002175D01*
X134960595Y-59348863D01*
X134887386Y-59716905D01*
X131219200Y-59716905D01*
X131219200Y-48976678D01*
X135685523Y-48976678D01*
X135685523Y-49351930D01*
X135758732Y-49719972D01*
X135902334Y-50066660D01*
X136110813Y-50378670D01*
X136376157Y-50644014D01*
X136688167Y-50852493D01*
X137034855Y-50996095D01*
X137402897Y-51069304D01*
X137778149Y-51069304D01*
X138146191Y-50996095D01*
X138492879Y-50852493D01*
X138804889Y-50644014D01*
X139070233Y-50378670D01*
X139278712Y-50066660D01*
X139422314Y-49719972D01*
X139495523Y-49351930D01*
X139495523Y-48976678D01*
X139422314Y-48608636D01*
X139278712Y-48261948D01*
X139070233Y-47949938D01*
X138804889Y-47684594D01*
X138492879Y-47476115D01*
X138146191Y-47332513D01*
X137778149Y-47259304D01*
X137402897Y-47259304D01*
X137034855Y-47332513D01*
X136688167Y-47476115D01*
X136376157Y-47684594D01*
X136110813Y-47949938D01*
X135902334Y-48261948D01*
X135758732Y-48608636D01*
X135685523Y-48976678D01*
X131219200Y-48976678D01*
X131219200Y-47889266D01*
X131225098Y-47829380D01*
X131219200Y-47769494D01*
X131219200Y-47769488D01*
X131201559Y-47590376D01*
X131131844Y-47360556D01*
X131018633Y-47148752D01*
X130866276Y-46963105D01*
X130843400Y-46944331D01*
X131142658Y-47003858D01*
X131517910Y-47003858D01*
X131885952Y-46930649D01*
X132232640Y-46787047D01*
X132544650Y-46578568D01*
X132809994Y-46313224D01*
X133018473Y-46001214D01*
X133162075Y-45654526D01*
X133235284Y-45286484D01*
X133235284Y-45219200D01*
X133440440Y-45219200D01*
X133422041Y-45237599D01*
X133213562Y-45549609D01*
X133069960Y-45896297D01*
X132996751Y-46264339D01*
X132996751Y-46639591D01*
X133069960Y-47007633D01*
X133213562Y-47354321D01*
X133422041Y-47666331D01*
X133687385Y-47931675D01*
X133999395Y-48140154D01*
X134346083Y-48283756D01*
X134714125Y-48356965D01*
X135089377Y-48356965D01*
X135457419Y-48283756D01*
X135804107Y-48140154D01*
X136116117Y-47931675D01*
X136381461Y-47666331D01*
X136589940Y-47354321D01*
X136733542Y-47007633D01*
X136806751Y-46639591D01*
X136806751Y-46264339D01*
X136733542Y-45896297D01*
X136589940Y-45549609D01*
X136381461Y-45237599D01*
X136363062Y-45219200D01*
X144734992Y-45219200D01*
X147721378Y-48205586D01*
X147657000Y-48529235D01*
X147657000Y-48990765D01*
X147747040Y-49443428D01*
X147923660Y-49869827D01*
X148180073Y-50253576D01*
X148506424Y-50579927D01*
X148890173Y-50836340D01*
X149316572Y-51012960D01*
X149769235Y-51103000D01*
X150230765Y-51103000D01*
X150683428Y-51012960D01*
X151109827Y-50836340D01*
X151493576Y-50579927D01*
X151819927Y-50253576D01*
X152076340Y-49869827D01*
X152252960Y-49443428D01*
X152343000Y-48990765D01*
X152343000Y-48529235D01*
X156657000Y-48529235D01*
X156657000Y-48990765D01*
X156747040Y-49443428D01*
X156923660Y-49869827D01*
X157180073Y-50253576D01*
X157506424Y-50579927D01*
X157890173Y-50836340D01*
X158316572Y-51012960D01*
X158769235Y-51103000D01*
X159230765Y-51103000D01*
X159683428Y-51012960D01*
X160109827Y-50836340D01*
X160493576Y-50579927D01*
X160819927Y-50253576D01*
X161076340Y-49869827D01*
X161252960Y-49443428D01*
X161343000Y-48990765D01*
X161343000Y-48529235D01*
X161278622Y-48205586D01*
X162916364Y-46567845D01*
X172336777Y-46567845D01*
X172323177Y-46600679D01*
X172249968Y-46968721D01*
X172249968Y-47343973D01*
X172323177Y-47712015D01*
X172466779Y-48058703D01*
X172675258Y-48370713D01*
X172940602Y-48636057D01*
X173252612Y-48844536D01*
X173599300Y-48988138D01*
X173967342Y-49061347D01*
X174342594Y-49061347D01*
X174710636Y-48988138D01*
X175057324Y-48844536D01*
X175369334Y-48636057D01*
X175634678Y-48370713D01*
X175843157Y-48058703D01*
X175986759Y-47712015D01*
X176059968Y-47343973D01*
X176059968Y-46968721D01*
X175986759Y-46600679D01*
X175973159Y-46567845D01*
X176044388Y-46567845D01*
X176304898Y-46828355D01*
X176616908Y-47036834D01*
X176963596Y-47180436D01*
X177331638Y-47253645D01*
X177700056Y-47253645D01*
X178780801Y-48334391D01*
X178780800Y-61525124D01*
X178520290Y-61785634D01*
X178311811Y-62097644D01*
X178168209Y-62444332D01*
X178095000Y-62812374D01*
X178095000Y-63187626D01*
X178168209Y-63555668D01*
X178311811Y-63902356D01*
X178520290Y-64214366D01*
X178785634Y-64479710D01*
X179097644Y-64688189D01*
X179444332Y-64831791D01*
X179812374Y-64905000D01*
X180187626Y-64905000D01*
X180555668Y-64831791D01*
X180902356Y-64688189D01*
X181214366Y-64479710D01*
X181479710Y-64214366D01*
X181688189Y-63902356D01*
X181831791Y-63555668D01*
X181905000Y-63187626D01*
X181905000Y-62812374D01*
X181831791Y-62444332D01*
X181688189Y-62097644D01*
X181624299Y-62002025D01*
X181827239Y-62002025D01*
X181827239Y-62377277D01*
X181900448Y-62745319D01*
X182044050Y-63092007D01*
X182252529Y-63404017D01*
X182517873Y-63669361D01*
X182829883Y-63877840D01*
X183176571Y-64021442D01*
X183544613Y-64094651D01*
X183919865Y-64094651D01*
X184287907Y-64021442D01*
X184634595Y-63877840D01*
X184946605Y-63669361D01*
X185211949Y-63404017D01*
X185420428Y-63092007D01*
X185564030Y-62745319D01*
X185637239Y-62377277D01*
X185637239Y-62002025D01*
X185564030Y-61633983D01*
X185420428Y-61287295D01*
X185211949Y-60975285D01*
X184946605Y-60709941D01*
X184634595Y-60501462D01*
X184287907Y-60357860D01*
X183919865Y-60284651D01*
X183544613Y-60284651D01*
X183176571Y-60357860D01*
X182829883Y-60501462D01*
X182517873Y-60709941D01*
X182252529Y-60975285D01*
X182044050Y-61287295D01*
X181900448Y-61633983D01*
X181827239Y-62002025D01*
X181624299Y-62002025D01*
X181479710Y-61785634D01*
X181219200Y-61525124D01*
X181219200Y-59716905D01*
X184887386Y-59716905D01*
X184887386Y-60092157D01*
X184960595Y-60460199D01*
X185104197Y-60806887D01*
X185312676Y-61118897D01*
X185578020Y-61384241D01*
X185890030Y-61592720D01*
X186236718Y-61736322D01*
X186604760Y-61809531D01*
X186980012Y-61809531D01*
X187348054Y-61736322D01*
X187694742Y-61592720D01*
X188006752Y-61384241D01*
X188272096Y-61118897D01*
X188480575Y-60806887D01*
X188624177Y-60460199D01*
X188697386Y-60092157D01*
X188697386Y-59716905D01*
X188624177Y-59348863D01*
X188480575Y-59002175D01*
X188272096Y-58690165D01*
X188006752Y-58424821D01*
X187752287Y-58254792D01*
X188073709Y-58387929D01*
X188441751Y-58461138D01*
X188817003Y-58461138D01*
X189185045Y-58387929D01*
X189531733Y-58244327D01*
X189843743Y-58035848D01*
X190109087Y-57770504D01*
X190317566Y-57458494D01*
X190461168Y-57111806D01*
X190534377Y-56743764D01*
X190534377Y-56368512D01*
X190461168Y-56000470D01*
X190317566Y-55653782D01*
X190109087Y-55341772D01*
X189843743Y-55076428D01*
X189531733Y-54867949D01*
X189185045Y-54724347D01*
X188823564Y-54652443D01*
X189100038Y-54652443D01*
X189468080Y-54579234D01*
X189814768Y-54435632D01*
X190126778Y-54227153D01*
X190392122Y-53961809D01*
X190600601Y-53649799D01*
X190744203Y-53303111D01*
X190817412Y-52935069D01*
X190817412Y-52559817D01*
X190744203Y-52191775D01*
X190600601Y-51845087D01*
X190392122Y-51533077D01*
X190126778Y-51267733D01*
X189814768Y-51059254D01*
X189468080Y-50915652D01*
X189100038Y-50842443D01*
X188724786Y-50842443D01*
X188356744Y-50915652D01*
X188010056Y-51059254D01*
X187698046Y-51267733D01*
X187432702Y-51533077D01*
X187224223Y-51845087D01*
X187080621Y-52191775D01*
X187007412Y-52559817D01*
X187007412Y-52935069D01*
X187080621Y-53303111D01*
X187224223Y-53649799D01*
X187432702Y-53961809D01*
X187698046Y-54227153D01*
X188010056Y-54435632D01*
X188356744Y-54579234D01*
X188718225Y-54651138D01*
X188441751Y-54651138D01*
X188073709Y-54724347D01*
X187727021Y-54867949D01*
X187415011Y-55076428D01*
X187149667Y-55341772D01*
X186941188Y-55653782D01*
X186797586Y-56000470D01*
X186724377Y-56368512D01*
X186724377Y-56743764D01*
X186797586Y-57111806D01*
X186941188Y-57458494D01*
X187149667Y-57770504D01*
X187415011Y-58035848D01*
X187669476Y-58205877D01*
X187348054Y-58072740D01*
X186980012Y-57999531D01*
X186604760Y-57999531D01*
X186236718Y-58072740D01*
X185890030Y-58216342D01*
X185578020Y-58424821D01*
X185312676Y-58690165D01*
X185104197Y-59002175D01*
X184960595Y-59348863D01*
X184887386Y-59716905D01*
X181219200Y-59716905D01*
X181219200Y-48976678D01*
X185685523Y-48976678D01*
X185685523Y-49351930D01*
X185758732Y-49719972D01*
X185902334Y-50066660D01*
X186110813Y-50378670D01*
X186376157Y-50644014D01*
X186688167Y-50852493D01*
X187034855Y-50996095D01*
X187402897Y-51069304D01*
X187778149Y-51069304D01*
X188146191Y-50996095D01*
X188492879Y-50852493D01*
X188804889Y-50644014D01*
X189070233Y-50378670D01*
X189278712Y-50066660D01*
X189422314Y-49719972D01*
X189495523Y-49351930D01*
X189495523Y-48976678D01*
X189422314Y-48608636D01*
X189278712Y-48261948D01*
X189070233Y-47949938D01*
X188804889Y-47684594D01*
X188492879Y-47476115D01*
X188146191Y-47332513D01*
X187778149Y-47259304D01*
X187402897Y-47259304D01*
X187034855Y-47332513D01*
X186688167Y-47476115D01*
X186376157Y-47684594D01*
X186110813Y-47949938D01*
X185902334Y-48261948D01*
X185758732Y-48608636D01*
X185685523Y-48976678D01*
X181219200Y-48976678D01*
X181219200Y-47889266D01*
X181225098Y-47829380D01*
X181219200Y-47769494D01*
X181219200Y-47769488D01*
X181201559Y-47590376D01*
X181131844Y-47360556D01*
X181018633Y-47148752D01*
X180866276Y-46963105D01*
X180843400Y-46944331D01*
X181142658Y-47003858D01*
X181517910Y-47003858D01*
X181885952Y-46930649D01*
X182232640Y-46787047D01*
X182544650Y-46578568D01*
X182809994Y-46313224D01*
X182842658Y-46264339D01*
X182996751Y-46264339D01*
X182996751Y-46639591D01*
X183069960Y-47007633D01*
X183213562Y-47354321D01*
X183422041Y-47666331D01*
X183687385Y-47931675D01*
X183999395Y-48140154D01*
X184346083Y-48283756D01*
X184714125Y-48356965D01*
X185089377Y-48356965D01*
X185457419Y-48283756D01*
X185804107Y-48140154D01*
X186116117Y-47931675D01*
X186381461Y-47666331D01*
X186589940Y-47354321D01*
X186733542Y-47007633D01*
X186741282Y-46968721D01*
X207249968Y-46968721D01*
X207249968Y-47343973D01*
X207323177Y-47712015D01*
X207466779Y-48058703D01*
X207675258Y-48370713D01*
X207940602Y-48636057D01*
X208252612Y-48844536D01*
X208599300Y-48988138D01*
X208967342Y-49061347D01*
X209342594Y-49061347D01*
X209710636Y-48988138D01*
X210057324Y-48844536D01*
X210369334Y-48636057D01*
X210634678Y-48370713D01*
X210843157Y-48058703D01*
X210986759Y-47712015D01*
X211059968Y-47343973D01*
X211059968Y-46968721D01*
X210986759Y-46600679D01*
X210859604Y-46293697D01*
X211039554Y-46563011D01*
X211304898Y-46828355D01*
X211616908Y-47036834D01*
X211963596Y-47180436D01*
X212331638Y-47253645D01*
X212700056Y-47253645D01*
X213780801Y-48334391D01*
X213780800Y-61525124D01*
X213520290Y-61785634D01*
X213311811Y-62097644D01*
X213168209Y-62444332D01*
X213095000Y-62812374D01*
X213095000Y-63187626D01*
X213168209Y-63555668D01*
X213311811Y-63902356D01*
X213520290Y-64214366D01*
X213785634Y-64479710D01*
X214097644Y-64688189D01*
X214444332Y-64831791D01*
X214812374Y-64905000D01*
X215020801Y-64905000D01*
X215020800Y-71996741D01*
X214746424Y-72180073D01*
X214420073Y-72506424D01*
X214163660Y-72890173D01*
X213987040Y-73316572D01*
X213897000Y-73769235D01*
X213897000Y-74230765D01*
X213987040Y-74683428D01*
X214163660Y-75109827D01*
X214420073Y-75493576D01*
X214746424Y-75819927D01*
X215130173Y-76076340D01*
X215556572Y-76252960D01*
X216009235Y-76343000D01*
X216470765Y-76343000D01*
X216923428Y-76252960D01*
X217349827Y-76076340D01*
X217733576Y-75819927D01*
X218059927Y-75493576D01*
X218316340Y-75109827D01*
X218492960Y-74683428D01*
X218583000Y-74230765D01*
X218583000Y-73769235D01*
X218492960Y-73316572D01*
X218316340Y-72890173D01*
X218059927Y-72506424D01*
X217733576Y-72180073D01*
X217459200Y-71996741D01*
X217459200Y-64299893D01*
X217465099Y-64240000D01*
X217441559Y-64000995D01*
X217371844Y-63771174D01*
X217332409Y-63697398D01*
X217258633Y-63559371D01*
X217106276Y-63373724D01*
X217059750Y-63335541D01*
X216905000Y-63180791D01*
X216905000Y-62812374D01*
X216831791Y-62444332D01*
X216688189Y-62097644D01*
X216624299Y-62002025D01*
X216827239Y-62002025D01*
X216827239Y-62377277D01*
X216900448Y-62745319D01*
X217044050Y-63092007D01*
X217252529Y-63404017D01*
X217517873Y-63669361D01*
X217829883Y-63877840D01*
X218176571Y-64021442D01*
X218544613Y-64094651D01*
X218919865Y-64094651D01*
X219287907Y-64021442D01*
X219634595Y-63877840D01*
X219946605Y-63669361D01*
X220211949Y-63404017D01*
X220420428Y-63092007D01*
X220564030Y-62745319D01*
X220637239Y-62377277D01*
X220637239Y-62002025D01*
X220564030Y-61633983D01*
X220420428Y-61287295D01*
X220211949Y-60975285D01*
X219946605Y-60709941D01*
X219634595Y-60501462D01*
X219287907Y-60357860D01*
X218919865Y-60284651D01*
X218544613Y-60284651D01*
X218176571Y-60357860D01*
X217829883Y-60501462D01*
X217517873Y-60709941D01*
X217252529Y-60975285D01*
X217044050Y-61287295D01*
X216900448Y-61633983D01*
X216827239Y-62002025D01*
X216624299Y-62002025D01*
X216479710Y-61785634D01*
X216219200Y-61525124D01*
X216219200Y-59716905D01*
X219887386Y-59716905D01*
X219887386Y-60092157D01*
X219960595Y-60460199D01*
X220104197Y-60806887D01*
X220312676Y-61118897D01*
X220578020Y-61384241D01*
X220890030Y-61592720D01*
X221236718Y-61736322D01*
X221604760Y-61809531D01*
X221980012Y-61809531D01*
X222348054Y-61736322D01*
X222694742Y-61592720D01*
X223006752Y-61384241D01*
X223272096Y-61118897D01*
X223480575Y-60806887D01*
X223624177Y-60460199D01*
X223697386Y-60092157D01*
X223697386Y-59716905D01*
X223624177Y-59348863D01*
X223480575Y-59002175D01*
X223272096Y-58690165D01*
X223006752Y-58424821D01*
X222752287Y-58254792D01*
X223073709Y-58387929D01*
X223441751Y-58461138D01*
X223817003Y-58461138D01*
X224185045Y-58387929D01*
X224531733Y-58244327D01*
X224843743Y-58035848D01*
X225109087Y-57770504D01*
X225317566Y-57458494D01*
X225461168Y-57111806D01*
X225534377Y-56743764D01*
X225534377Y-56368512D01*
X225461168Y-56000470D01*
X225317566Y-55653782D01*
X225109087Y-55341772D01*
X224843743Y-55076428D01*
X224531733Y-54867949D01*
X224185045Y-54724347D01*
X223823564Y-54652443D01*
X224100038Y-54652443D01*
X224468080Y-54579234D01*
X224814768Y-54435632D01*
X225126778Y-54227153D01*
X225392122Y-53961809D01*
X225600601Y-53649799D01*
X225744203Y-53303111D01*
X225817412Y-52935069D01*
X225817412Y-52559817D01*
X225744203Y-52191775D01*
X225600601Y-51845087D01*
X225392122Y-51533077D01*
X225126778Y-51267733D01*
X224814768Y-51059254D01*
X224468080Y-50915652D01*
X224100038Y-50842443D01*
X223724786Y-50842443D01*
X223356744Y-50915652D01*
X223010056Y-51059254D01*
X222698046Y-51267733D01*
X222432702Y-51533077D01*
X222224223Y-51845087D01*
X222080621Y-52191775D01*
X222007412Y-52559817D01*
X222007412Y-52935069D01*
X222080621Y-53303111D01*
X222224223Y-53649799D01*
X222432702Y-53961809D01*
X222698046Y-54227153D01*
X223010056Y-54435632D01*
X223356744Y-54579234D01*
X223718225Y-54651138D01*
X223441751Y-54651138D01*
X223073709Y-54724347D01*
X222727021Y-54867949D01*
X222415011Y-55076428D01*
X222149667Y-55341772D01*
X221941188Y-55653782D01*
X221797586Y-56000470D01*
X221724377Y-56368512D01*
X221724377Y-56743764D01*
X221797586Y-57111806D01*
X221941188Y-57458494D01*
X222149667Y-57770504D01*
X222415011Y-58035848D01*
X222669476Y-58205877D01*
X222348054Y-58072740D01*
X221980012Y-57999531D01*
X221604760Y-57999531D01*
X221236718Y-58072740D01*
X220890030Y-58216342D01*
X220578020Y-58424821D01*
X220312676Y-58690165D01*
X220104197Y-59002175D01*
X219960595Y-59348863D01*
X219887386Y-59716905D01*
X216219200Y-59716905D01*
X216219200Y-48976678D01*
X220685523Y-48976678D01*
X220685523Y-49351930D01*
X220758732Y-49719972D01*
X220902334Y-50066660D01*
X221110813Y-50378670D01*
X221376157Y-50644014D01*
X221688167Y-50852493D01*
X222034855Y-50996095D01*
X222402897Y-51069304D01*
X222778149Y-51069304D01*
X223146191Y-50996095D01*
X223492879Y-50852493D01*
X223804889Y-50644014D01*
X224070233Y-50378670D01*
X224278712Y-50066660D01*
X224422314Y-49719972D01*
X224495523Y-49351930D01*
X224495523Y-48976678D01*
X224422314Y-48608636D01*
X224278712Y-48261948D01*
X224070233Y-47949938D01*
X223804889Y-47684594D01*
X223492879Y-47476115D01*
X223146191Y-47332513D01*
X222778149Y-47259304D01*
X222402897Y-47259304D01*
X222034855Y-47332513D01*
X221688167Y-47476115D01*
X221376157Y-47684594D01*
X221110813Y-47949938D01*
X220902334Y-48261948D01*
X220758732Y-48608636D01*
X220685523Y-48976678D01*
X216219200Y-48976678D01*
X216219200Y-47889266D01*
X216225098Y-47829380D01*
X216219200Y-47769494D01*
X216219200Y-47769488D01*
X216201559Y-47590376D01*
X216131844Y-47360556D01*
X216018633Y-47148752D01*
X215866276Y-46963105D01*
X215843400Y-46944331D01*
X216142658Y-47003858D01*
X216517910Y-47003858D01*
X216885952Y-46930649D01*
X217232640Y-46787047D01*
X217544650Y-46578568D01*
X217809994Y-46313224D01*
X217842658Y-46264339D01*
X217996751Y-46264339D01*
X217996751Y-46639591D01*
X218069960Y-47007633D01*
X218213562Y-47354321D01*
X218422041Y-47666331D01*
X218687385Y-47931675D01*
X218999395Y-48140154D01*
X219346083Y-48283756D01*
X219714125Y-48356965D01*
X220089377Y-48356965D01*
X220457419Y-48283756D01*
X220804107Y-48140154D01*
X221116117Y-47931675D01*
X221381461Y-47666331D01*
X221589940Y-47354321D01*
X221733542Y-47007633D01*
X221806751Y-46639591D01*
X221806751Y-46264339D01*
X221733542Y-45896297D01*
X221589940Y-45549609D01*
X221381461Y-45237599D01*
X221116117Y-44972255D01*
X220804107Y-44763776D01*
X220457419Y-44620174D01*
X220089377Y-44546965D01*
X219714125Y-44546965D01*
X219346083Y-44620174D01*
X218999395Y-44763776D01*
X218687385Y-44972255D01*
X218422041Y-45237599D01*
X218213562Y-45549609D01*
X218069960Y-45896297D01*
X217996751Y-46264339D01*
X217842658Y-46264339D01*
X218018473Y-46001214D01*
X218162075Y-45654526D01*
X218235284Y-45286484D01*
X218235284Y-44911232D01*
X218162075Y-44543190D01*
X218018473Y-44196502D01*
X217809994Y-43884492D01*
X217544650Y-43619148D01*
X217232640Y-43410669D01*
X216885952Y-43267067D01*
X216517910Y-43193858D01*
X216142658Y-43193858D01*
X215774616Y-43267067D01*
X215427928Y-43410669D01*
X215115918Y-43619148D01*
X214850574Y-43884492D01*
X214642095Y-44196502D01*
X214498493Y-44543190D01*
X214425284Y-44911232D01*
X214425284Y-45286484D01*
X214485864Y-45591037D01*
X214424264Y-45529437D01*
X214424264Y-45161019D01*
X214351055Y-44792977D01*
X214207453Y-44446289D01*
X213998974Y-44134279D01*
X213733630Y-43868935D01*
X213421620Y-43660456D01*
X213074932Y-43516854D01*
X212706890Y-43443645D01*
X212331638Y-43443645D01*
X211963596Y-43516854D01*
X211616908Y-43660456D01*
X211304898Y-43868935D01*
X211039554Y-44134279D01*
X210831075Y-44446289D01*
X210687473Y-44792977D01*
X210614264Y-45161019D01*
X210614264Y-45536271D01*
X210687473Y-45904313D01*
X210814628Y-46211295D01*
X210634678Y-45941981D01*
X210369334Y-45676637D01*
X210057324Y-45468158D01*
X209710636Y-45324556D01*
X209342594Y-45251347D01*
X208967342Y-45251347D01*
X208599300Y-45324556D01*
X208252612Y-45468158D01*
X207940602Y-45676637D01*
X207675258Y-45941981D01*
X207466779Y-46253991D01*
X207323177Y-46600679D01*
X207249968Y-46968721D01*
X186741282Y-46968721D01*
X186806751Y-46639591D01*
X186806751Y-46264339D01*
X186733542Y-45896297D01*
X186589940Y-45549609D01*
X186381461Y-45237599D01*
X186116117Y-44972255D01*
X185804107Y-44763776D01*
X185457419Y-44620174D01*
X185089377Y-44546965D01*
X184714125Y-44546965D01*
X184346083Y-44620174D01*
X183999395Y-44763776D01*
X183687385Y-44972255D01*
X183422041Y-45237599D01*
X183213562Y-45549609D01*
X183069960Y-45896297D01*
X182996751Y-46264339D01*
X182842658Y-46264339D01*
X183018473Y-46001214D01*
X183162075Y-45654526D01*
X183235284Y-45286484D01*
X183235284Y-44911232D01*
X183162075Y-44543190D01*
X183018473Y-44196502D01*
X182809994Y-43884492D01*
X182544650Y-43619148D01*
X182232640Y-43410669D01*
X181885952Y-43267067D01*
X181517910Y-43193858D01*
X181142658Y-43193858D01*
X180774616Y-43267067D01*
X180427928Y-43410669D01*
X180115918Y-43619148D01*
X179850574Y-43884492D01*
X179642095Y-44196502D01*
X179498493Y-44543190D01*
X179425284Y-44911232D01*
X179425284Y-45286484D01*
X179485864Y-45591037D01*
X179424264Y-45529437D01*
X179424264Y-45161019D01*
X179351055Y-44792977D01*
X179207453Y-44446289D01*
X178998974Y-44134279D01*
X178733630Y-43868935D01*
X178421620Y-43660456D01*
X178074932Y-43516854D01*
X177706890Y-43443645D01*
X177331638Y-43443645D01*
X176963596Y-43516854D01*
X176616908Y-43660456D01*
X176304898Y-43868935D01*
X176044388Y-44129445D01*
X162471251Y-44129445D01*
X162411355Y-44123546D01*
X162172350Y-44147085D01*
X161942530Y-44216801D01*
X161730726Y-44330012D01*
X161545079Y-44482369D01*
X161506896Y-44528895D01*
X159554414Y-46481378D01*
X159230765Y-46417000D01*
X158769235Y-46417000D01*
X158316572Y-46507040D01*
X157890173Y-46683660D01*
X157506424Y-46940073D01*
X157180073Y-47266424D01*
X156923660Y-47650173D01*
X156747040Y-48076572D01*
X156657000Y-48529235D01*
X152343000Y-48529235D01*
X152252960Y-48076572D01*
X152076340Y-47650173D01*
X151819927Y-47266424D01*
X151493576Y-46940073D01*
X151109827Y-46683660D01*
X150683428Y-46507040D01*
X150230765Y-46417000D01*
X149769235Y-46417000D01*
X149445586Y-46481378D01*
X146144464Y-43180256D01*
X146106276Y-43133724D01*
X145920629Y-42981367D01*
X145708825Y-42868156D01*
X145479005Y-42798441D01*
X145299893Y-42780800D01*
X145240000Y-42774901D01*
X145180107Y-42780800D01*
X128927801Y-42780800D01*
X128867908Y-42774901D01*
X128628904Y-42798441D01*
X128399084Y-42868156D01*
X128187280Y-42981367D01*
X128001633Y-43133724D01*
X127963450Y-43180250D01*
X127700055Y-43443645D01*
X127331638Y-43443645D01*
X126963596Y-43516854D01*
X126616908Y-43660456D01*
X126304898Y-43868935D01*
X126039554Y-44134279D01*
X125831075Y-44446289D01*
X125687473Y-44792977D01*
X125614264Y-45161019D01*
X125614264Y-45536271D01*
X125687473Y-45904313D01*
X125814628Y-46211295D01*
X125634678Y-45941981D01*
X125369334Y-45676637D01*
X125057324Y-45468158D01*
X124710636Y-45324556D01*
X124342594Y-45251347D01*
X123967342Y-45251347D01*
X123599300Y-45324556D01*
X123252612Y-45468158D01*
X122940602Y-45676637D01*
X122675258Y-45941981D01*
X122466779Y-46253991D01*
X122323177Y-46600679D01*
X122249968Y-46968721D01*
X122249968Y-47343973D01*
X122323177Y-47712015D01*
X122466779Y-48058703D01*
X122675258Y-48370713D01*
X122940602Y-48636057D01*
X123252612Y-48844536D01*
X123599300Y-48988138D01*
X123967342Y-49061347D01*
X124342594Y-49061347D01*
X124710636Y-48988138D01*
X125057324Y-48844536D01*
X125369334Y-48636057D01*
X125634678Y-48370713D01*
X125843157Y-48058703D01*
X125986759Y-47712015D01*
X126059968Y-47343973D01*
X126059968Y-46968721D01*
X125986759Y-46600679D01*
X125859604Y-46293697D01*
X126039554Y-46563011D01*
X126304898Y-46828355D01*
X126616908Y-47036834D01*
X126963596Y-47180436D01*
X127331638Y-47253645D01*
X127700056Y-47253645D01*
X128780801Y-48334391D01*
X128780801Y-52081531D01*
X128607199Y-52047000D01*
X128332801Y-52047000D01*
X128063677Y-52100532D01*
X127810167Y-52205540D01*
X127787329Y-52220800D01*
X105749977Y-52220800D01*
X105744203Y-52191775D01*
X105600601Y-51845087D01*
X105392122Y-51533077D01*
X105274681Y-51415636D01*
X120368354Y-51415636D01*
X120628864Y-51676146D01*
X120940874Y-51884625D01*
X121287562Y-52028227D01*
X121655604Y-52101436D01*
X122030856Y-52101436D01*
X122398898Y-52028227D01*
X122745586Y-51884625D01*
X123057596Y-51676146D01*
X123322940Y-51410802D01*
X123531419Y-51098792D01*
X123675021Y-50752104D01*
X123748230Y-50384062D01*
X123748230Y-50008810D01*
X123675021Y-49640768D01*
X123531419Y-49294080D01*
X123322940Y-48982070D01*
X123057596Y-48716726D01*
X122745586Y-48508247D01*
X122398898Y-48364645D01*
X122030856Y-48291436D01*
X121655604Y-48291436D01*
X121287562Y-48364645D01*
X120940874Y-48508247D01*
X120628864Y-48716726D01*
X120368354Y-48977236D01*
X104495523Y-48977236D01*
X104495523Y-48976678D01*
X104422314Y-48608636D01*
X104278712Y-48261948D01*
X104070233Y-47949938D01*
X103804889Y-47684594D01*
X103492879Y-47476115D01*
X103146191Y-47332513D01*
X102778149Y-47259304D01*
X102402897Y-47259304D01*
X102034855Y-47332513D01*
X101688167Y-47476115D01*
X101376157Y-47684594D01*
X101110813Y-47949938D01*
X100902334Y-48261948D01*
X100758732Y-48608636D01*
X100685523Y-48976678D01*
X100685523Y-49351930D01*
X100758732Y-49719972D01*
X100848675Y-49937116D01*
X95457201Y-55328591D01*
X95457201Y-47127275D01*
X95463100Y-47067382D01*
X95439560Y-46828377D01*
X95426793Y-46786288D01*
X95427928Y-46787047D01*
X95774616Y-46930649D01*
X96142658Y-47003858D01*
X96517910Y-47003858D01*
X96885952Y-46930649D01*
X97232640Y-46787047D01*
X97544650Y-46578568D01*
X97809994Y-46313224D01*
X97842658Y-46264339D01*
X97996751Y-46264339D01*
X97996751Y-46639591D01*
X98069960Y-47007633D01*
X98213562Y-47354321D01*
X98422041Y-47666331D01*
X98687385Y-47931675D01*
X98999395Y-48140154D01*
X99346083Y-48283756D01*
X99714125Y-48356965D01*
X100089377Y-48356965D01*
X100457419Y-48283756D01*
X100804107Y-48140154D01*
X101116117Y-47931675D01*
X101381461Y-47666331D01*
X101589940Y-47354321D01*
X101733542Y-47007633D01*
X101806751Y-46639591D01*
X101806751Y-46264339D01*
X101733542Y-45896297D01*
X101589940Y-45549609D01*
X101381461Y-45237599D01*
X101116117Y-44972255D01*
X100804107Y-44763776D01*
X100457419Y-44620174D01*
X100089377Y-44546965D01*
X99714125Y-44546965D01*
X99346083Y-44620174D01*
X98999395Y-44763776D01*
X98687385Y-44972255D01*
X98422041Y-45237599D01*
X98213562Y-45549609D01*
X98069960Y-45896297D01*
X97996751Y-46264339D01*
X97842658Y-46264339D01*
X98018473Y-46001214D01*
X98162075Y-45654526D01*
X98235284Y-45286484D01*
X98235284Y-44911232D01*
X98162075Y-44543190D01*
X98018473Y-44196502D01*
X97809994Y-43884492D01*
X97544650Y-43619148D01*
X97232640Y-43410669D01*
X96885952Y-43267067D01*
X96517910Y-43193858D01*
X96142658Y-43193858D01*
X95774616Y-43267067D01*
X95427928Y-43410669D01*
X95115918Y-43619148D01*
X94850574Y-43884492D01*
X94642095Y-44196502D01*
X94498493Y-44543190D01*
X94425284Y-44911232D01*
X94425284Y-45286484D01*
X94485864Y-45591037D01*
X94424264Y-45529437D01*
X94424264Y-45161019D01*
X94351055Y-44792977D01*
X94207453Y-44446289D01*
X93998974Y-44134279D01*
X93733630Y-43868935D01*
X93421620Y-43660456D01*
X93074932Y-43516854D01*
X92706890Y-43443645D01*
X92338472Y-43443645D01*
X92075082Y-43180255D01*
X92036895Y-43133724D01*
X91851248Y-42981367D01*
X91639444Y-42868156D01*
X91409624Y-42798441D01*
X91230512Y-42780800D01*
X91170619Y-42774901D01*
X91110726Y-42780800D01*
X78819893Y-42780800D01*
X78760000Y-42774901D01*
X78520995Y-42798441D01*
X78291175Y-42868156D01*
X78079371Y-42981367D01*
X77893724Y-43133724D01*
X77855541Y-43180250D01*
X74554414Y-46481378D01*
X74230765Y-46417000D01*
X73769235Y-46417000D01*
X73316572Y-46507040D01*
X72890173Y-46683660D01*
X72506424Y-46940073D01*
X72180073Y-47266424D01*
X71923660Y-47650173D01*
X71747040Y-48076572D01*
X71657000Y-48529235D01*
X71657000Y-48990765D01*
X71747040Y-49443428D01*
X71923660Y-49869827D01*
X72180073Y-50253576D01*
X72506424Y-50579927D01*
X72890173Y-50836340D01*
X73316572Y-51012960D01*
X73769235Y-51103000D01*
X74058461Y-51103000D01*
X61180251Y-63981211D01*
X61133725Y-64019394D01*
X60981368Y-64205041D01*
X60949228Y-64265171D01*
X60868157Y-64416845D01*
X60798441Y-64646666D01*
X60774901Y-64885670D01*
X60780801Y-64945573D01*
X60780800Y-73067565D01*
X60710477Y-73088897D01*
X60511911Y-73195032D01*
X60337867Y-73337867D01*
X60195032Y-73511911D01*
X60088897Y-73710477D01*
X60023539Y-73925933D01*
X60001470Y-74150000D01*
X58153856Y-74150000D01*
X58135178Y-74118645D01*
X57940269Y-73902412D01*
X57706920Y-73728359D01*
X57444099Y-73603175D01*
X57296890Y-73558524D01*
X57067000Y-73679845D01*
X56813000Y-73679845D01*
X56583110Y-73558524D01*
X56435901Y-73603175D01*
X56173080Y-73728359D01*
X56022383Y-73840763D01*
X55948064Y-73729537D01*
X55670463Y-73451936D01*
X55344039Y-73233827D01*
X54981337Y-73083590D01*
X54596293Y-73007000D01*
X54203707Y-73007000D01*
X53818663Y-73083590D01*
X53455961Y-73233827D01*
X53130000Y-73451627D01*
X52804039Y-73233827D01*
X52441337Y-73083590D01*
X52056293Y-73007000D01*
X51663707Y-73007000D01*
X51278663Y-73083590D01*
X50915961Y-73233827D01*
X50590000Y-73451627D01*
X50264039Y-73233827D01*
X49901337Y-73083590D01*
X49516293Y-73007000D01*
X49123707Y-73007000D01*
X48738663Y-73083590D01*
X48375961Y-73233827D01*
X48050000Y-73451627D01*
X47724039Y-73233827D01*
X47361337Y-73083590D01*
X46976293Y-73007000D01*
X46583707Y-73007000D01*
X46198663Y-73083590D01*
X45835961Y-73233827D01*
X45510000Y-73451627D01*
X45184039Y-73233827D01*
X44821337Y-73083590D01*
X44436293Y-73007000D01*
X44043707Y-73007000D01*
X43658663Y-73083590D01*
X43295961Y-73233827D01*
X42970000Y-73451627D01*
X42644039Y-73233827D01*
X42281337Y-73083590D01*
X41896293Y-73007000D01*
X41503707Y-73007000D01*
X41118663Y-73083590D01*
X40755961Y-73233827D01*
X40430000Y-73451627D01*
X40107841Y-73236368D01*
X40785009Y-72559200D01*
X49520107Y-72559200D01*
X49580000Y-72565099D01*
X49639893Y-72559200D01*
X49819005Y-72541559D01*
X50048825Y-72471844D01*
X50260629Y-72358633D01*
X50446276Y-72206276D01*
X50484464Y-72159744D01*
X54449128Y-68195081D01*
X54495653Y-68156899D01*
X54648010Y-67971252D01*
X54761221Y-67759448D01*
X54830936Y-67529628D01*
X54848577Y-67350516D01*
X54848577Y-67350515D01*
X54854476Y-67290623D01*
X54848577Y-67230730D01*
X54848577Y-58031014D01*
X55109087Y-57770504D01*
X55317566Y-57458494D01*
X55461168Y-57111806D01*
X55534377Y-56743764D01*
X55534377Y-56368512D01*
X55461168Y-56000470D01*
X55317566Y-55653782D01*
X55109087Y-55341772D01*
X54843743Y-55076428D01*
X54531733Y-54867949D01*
X54185045Y-54724347D01*
X53823564Y-54652443D01*
X54100038Y-54652443D01*
X54468080Y-54579234D01*
X54814768Y-54435632D01*
X55126778Y-54227153D01*
X55392122Y-53961809D01*
X55600601Y-53649799D01*
X55744203Y-53303111D01*
X55817412Y-52935069D01*
X55817412Y-52559817D01*
X55744203Y-52191775D01*
X55600601Y-51845087D01*
X55392122Y-51533077D01*
X55126778Y-51267733D01*
X54814768Y-51059254D01*
X54468080Y-50915652D01*
X54100038Y-50842443D01*
X53724786Y-50842443D01*
X53356744Y-50915652D01*
X53010056Y-51059254D01*
X52698046Y-51267733D01*
X52432702Y-51533077D01*
X52224223Y-51845087D01*
X52080621Y-52191775D01*
X52007412Y-52559817D01*
X52007412Y-52935069D01*
X52080621Y-53303111D01*
X52224223Y-53649799D01*
X52432702Y-53961809D01*
X52698046Y-54227153D01*
X53010056Y-54435632D01*
X53356744Y-54579234D01*
X53718225Y-54651138D01*
X53441751Y-54651138D01*
X53073709Y-54724347D01*
X52727021Y-54867949D01*
X52415011Y-55076428D01*
X52149667Y-55341772D01*
X51941188Y-55653782D01*
X51797586Y-56000470D01*
X51724377Y-56368512D01*
X51724377Y-56743764D01*
X51797586Y-57111806D01*
X51941188Y-57458494D01*
X52149667Y-57770504D01*
X52410178Y-58031015D01*
X52410178Y-58098472D01*
X52348054Y-58072740D01*
X51980012Y-57999531D01*
X51604760Y-57999531D01*
X51236718Y-58072740D01*
X50890030Y-58216342D01*
X50578020Y-58424821D01*
X50312676Y-58690165D01*
X50104197Y-59002175D01*
X49960595Y-59348863D01*
X49887386Y-59716905D01*
X49887386Y-60092157D01*
X49902866Y-60169980D01*
X47609200Y-57876314D01*
X47609200Y-54152671D01*
X47624460Y-54129833D01*
X47729468Y-53876323D01*
X47783000Y-53607199D01*
X47783000Y-53332801D01*
X47729468Y-53063677D01*
X47624460Y-52810167D01*
X47472014Y-52582014D01*
X47277986Y-52387986D01*
X47049833Y-52235540D01*
X46796323Y-52130532D01*
X46527199Y-52077000D01*
X46252801Y-52077000D01*
X46219200Y-52083684D01*
X46219200Y-48976678D01*
X50685523Y-48976678D01*
X50685523Y-49351930D01*
X50758732Y-49719972D01*
X50902334Y-50066660D01*
X51110813Y-50378670D01*
X51376157Y-50644014D01*
X51688167Y-50852493D01*
X52034855Y-50996095D01*
X52402897Y-51069304D01*
X52778149Y-51069304D01*
X53146191Y-50996095D01*
X53492879Y-50852493D01*
X53804889Y-50644014D01*
X54070233Y-50378670D01*
X54278712Y-50066660D01*
X54422314Y-49719972D01*
X54495523Y-49351930D01*
X54495523Y-48976678D01*
X54422314Y-48608636D01*
X54278712Y-48261948D01*
X54070233Y-47949938D01*
X53804889Y-47684594D01*
X53492879Y-47476115D01*
X53146191Y-47332513D01*
X52778149Y-47259304D01*
X52402897Y-47259304D01*
X52034855Y-47332513D01*
X51688167Y-47476115D01*
X51376157Y-47684594D01*
X51110813Y-47949938D01*
X50902334Y-48261948D01*
X50758732Y-48608636D01*
X50685523Y-48976678D01*
X46219200Y-48976678D01*
X46219200Y-47889266D01*
X46225098Y-47829380D01*
X46219200Y-47769494D01*
X46219200Y-47769488D01*
X46201559Y-47590376D01*
X46131844Y-47360556D01*
X46018633Y-47148752D01*
X45866276Y-46963105D01*
X45843400Y-46944331D01*
X46142658Y-47003858D01*
X46517910Y-47003858D01*
X46885952Y-46930649D01*
X47232640Y-46787047D01*
X47544650Y-46578568D01*
X47809994Y-46313224D01*
X48018473Y-46001214D01*
X48162075Y-45654526D01*
X48235284Y-45286484D01*
X48235284Y-45219200D01*
X48440440Y-45219200D01*
X48422041Y-45237599D01*
X48213562Y-45549609D01*
X48069960Y-45896297D01*
X47996751Y-46264339D01*
X47996751Y-46639591D01*
X48069960Y-47007633D01*
X48213562Y-47354321D01*
X48422041Y-47666331D01*
X48687385Y-47931675D01*
X48999395Y-48140154D01*
X49346083Y-48283756D01*
X49714125Y-48356965D01*
X50089377Y-48356965D01*
X50457419Y-48283756D01*
X50804107Y-48140154D01*
X51116117Y-47931675D01*
X51381461Y-47666331D01*
X51589940Y-47354321D01*
X51733542Y-47007633D01*
X51806751Y-46639591D01*
X51806751Y-46264339D01*
X51733542Y-45896297D01*
X51589940Y-45549609D01*
X51381461Y-45237599D01*
X51363062Y-45219200D01*
X59734992Y-45219200D01*
X62721378Y-48205586D01*
X62657000Y-48529235D01*
X62657000Y-48990765D01*
X62747040Y-49443428D01*
X62923660Y-49869827D01*
X63180073Y-50253576D01*
X63506424Y-50579927D01*
X63890173Y-50836340D01*
X64316572Y-51012960D01*
X64769235Y-51103000D01*
X65230765Y-51103000D01*
X65683428Y-51012960D01*
X66109827Y-50836340D01*
X66493576Y-50579927D01*
X66819927Y-50253576D01*
X67076340Y-49869827D01*
X67252960Y-49443428D01*
X67343000Y-48990765D01*
X67343000Y-48529235D01*
X67252960Y-48076572D01*
X67076340Y-47650173D01*
X66819927Y-47266424D01*
X66493576Y-46940073D01*
X66109827Y-46683660D01*
X65683428Y-46507040D01*
X65230765Y-46417000D01*
X64769235Y-46417000D01*
X64445586Y-46481378D01*
X61144464Y-43180256D01*
X61106276Y-43133724D01*
X60920629Y-42981367D01*
X60708825Y-42868156D01*
X60479005Y-42798441D01*
X60299893Y-42780800D01*
X60240000Y-42774901D01*
X60180107Y-42780800D01*
X43927801Y-42780800D01*
X43867908Y-42774901D01*
X43628904Y-42798441D01*
X43399084Y-42868156D01*
X43187280Y-42981367D01*
X43001633Y-43133724D01*
X42963450Y-43180250D01*
X42700055Y-43443645D01*
X42331638Y-43443645D01*
X41963596Y-43516854D01*
X41616908Y-43660456D01*
X41304898Y-43868935D01*
X41039554Y-44134279D01*
X40831075Y-44446289D01*
X40687473Y-44792977D01*
X40614264Y-45161019D01*
X40614264Y-45536271D01*
X40687473Y-45904313D01*
X40814628Y-46211295D01*
X40634678Y-45941981D01*
X40369334Y-45676637D01*
X40057324Y-45468158D01*
X39710636Y-45324556D01*
X39342594Y-45251347D01*
X38967342Y-45251347D01*
X38599300Y-45324556D01*
X38252612Y-45468158D01*
X37940602Y-45676637D01*
X37675258Y-45941981D01*
X37466779Y-46253991D01*
X37375848Y-46473519D01*
X28180251Y-55669117D01*
X28133725Y-55707300D01*
X27981368Y-55892947D01*
X27961998Y-55929186D01*
X27868157Y-56104751D01*
X27798441Y-56334572D01*
X27774901Y-56573576D01*
X27780801Y-56633479D01*
X27780800Y-73067565D01*
X27710477Y-73088897D01*
X27511911Y-73195032D01*
X27337867Y-73337867D01*
X27195032Y-73511911D01*
X27088897Y-73710477D01*
X27023539Y-73925933D01*
X27001470Y-74150000D01*
X27001470Y-75850000D01*
X27023539Y-76074067D01*
X27088897Y-76289523D01*
X27195032Y-76488089D01*
X27204807Y-76500000D01*
X27195032Y-76511911D01*
X27088897Y-76710477D01*
X27053005Y-76828796D01*
X24404464Y-74180256D01*
X24366276Y-74133724D01*
X24180629Y-73981367D01*
X23968825Y-73868156D01*
X23739005Y-73798441D01*
X23559893Y-73780800D01*
X23500000Y-73774901D01*
X23440107Y-73780800D01*
X20003259Y-73780800D01*
X19819927Y-73506424D01*
X19493576Y-73180073D01*
X19109827Y-72923660D01*
X18683428Y-72747040D01*
X18230765Y-72657000D01*
X17769235Y-72657000D01*
X17316572Y-72747040D01*
X16890173Y-72923660D01*
X16506424Y-73180073D01*
X16180073Y-73506424D01*
X15923660Y-73890173D01*
X15747040Y-74316572D01*
X15657000Y-74769235D01*
X5103000Y-74769235D01*
X5012960Y-74316572D01*
X4836340Y-73890173D01*
X4579927Y-73506424D01*
X4253576Y-73180073D01*
X3979200Y-72996741D01*
X3979200Y-70745008D01*
X9819209Y-64905000D01*
X10187626Y-64905000D01*
X10555668Y-64831791D01*
X10902356Y-64688189D01*
X11214366Y-64479710D01*
X11479710Y-64214366D01*
X11688189Y-63902356D01*
X11831791Y-63555668D01*
X11905000Y-63187626D01*
X11905000Y-62812374D01*
X11831791Y-62444332D01*
X11688189Y-62097644D01*
X11624299Y-62002025D01*
X11827239Y-62002025D01*
X11827239Y-62377277D01*
X11900448Y-62745319D01*
X12044050Y-63092007D01*
X12252529Y-63404017D01*
X12517873Y-63669361D01*
X12829883Y-63877840D01*
X13176571Y-64021442D01*
X13544613Y-64094651D01*
X13919865Y-64094651D01*
X14287907Y-64021442D01*
X14634595Y-63877840D01*
X14946605Y-63669361D01*
X15211949Y-63404017D01*
X15420428Y-63092007D01*
X15564030Y-62745319D01*
X15637239Y-62377277D01*
X15637239Y-62002025D01*
X15564030Y-61633983D01*
X15420428Y-61287295D01*
X15211949Y-60975285D01*
X14946605Y-60709941D01*
X14634595Y-60501462D01*
X14287907Y-60357860D01*
X13919865Y-60284651D01*
X13544613Y-60284651D01*
X13176571Y-60357860D01*
X12829883Y-60501462D01*
X12517873Y-60709941D01*
X12252529Y-60975285D01*
X12044050Y-61287295D01*
X11900448Y-61633983D01*
X11827239Y-62002025D01*
X11624299Y-62002025D01*
X11479710Y-61785634D01*
X11219200Y-61525124D01*
X11219200Y-59716905D01*
X14887386Y-59716905D01*
X14887386Y-60092157D01*
X14960595Y-60460199D01*
X15104197Y-60806887D01*
X15312676Y-61118897D01*
X15578020Y-61384241D01*
X15890030Y-61592720D01*
X16236718Y-61736322D01*
X16604760Y-61809531D01*
X16980012Y-61809531D01*
X17348054Y-61736322D01*
X17694742Y-61592720D01*
X18006752Y-61384241D01*
X18272096Y-61118897D01*
X18480575Y-60806887D01*
X18624177Y-60460199D01*
X18697386Y-60092157D01*
X18697386Y-59716905D01*
X18624177Y-59348863D01*
X18480575Y-59002175D01*
X18272096Y-58690165D01*
X18006752Y-58424821D01*
X17752287Y-58254792D01*
X18073709Y-58387929D01*
X18441751Y-58461138D01*
X18817003Y-58461138D01*
X19185045Y-58387929D01*
X19531733Y-58244327D01*
X19843743Y-58035848D01*
X20109087Y-57770504D01*
X20317566Y-57458494D01*
X20461168Y-57111806D01*
X20534377Y-56743764D01*
X20534377Y-56368512D01*
X20461168Y-56000470D01*
X20317566Y-55653782D01*
X20109087Y-55341772D01*
X19843743Y-55076428D01*
X19531733Y-54867949D01*
X19185045Y-54724347D01*
X18823564Y-54652443D01*
X19100038Y-54652443D01*
X19468080Y-54579234D01*
X19814768Y-54435632D01*
X20126778Y-54227153D01*
X20392122Y-53961809D01*
X20600601Y-53649799D01*
X20744203Y-53303111D01*
X20817412Y-52935069D01*
X20817412Y-52559817D01*
X20744203Y-52191775D01*
X20600601Y-51845087D01*
X20392122Y-51533077D01*
X20126778Y-51267733D01*
X19814768Y-51059254D01*
X19468080Y-50915652D01*
X19100038Y-50842443D01*
X18724786Y-50842443D01*
X18356744Y-50915652D01*
X18010056Y-51059254D01*
X17698046Y-51267733D01*
X17432702Y-51533077D01*
X17224223Y-51845087D01*
X17080621Y-52191775D01*
X17007412Y-52559817D01*
X17007412Y-52935069D01*
X17080621Y-53303111D01*
X17224223Y-53649799D01*
X17432702Y-53961809D01*
X17698046Y-54227153D01*
X18010056Y-54435632D01*
X18356744Y-54579234D01*
X18718225Y-54651138D01*
X18441751Y-54651138D01*
X18073709Y-54724347D01*
X17727021Y-54867949D01*
X17415011Y-55076428D01*
X17149667Y-55341772D01*
X16941188Y-55653782D01*
X16797586Y-56000470D01*
X16724377Y-56368512D01*
X16724377Y-56743764D01*
X16797586Y-57111806D01*
X16941188Y-57458494D01*
X17149667Y-57770504D01*
X17415011Y-58035848D01*
X17669476Y-58205877D01*
X17348054Y-58072740D01*
X16980012Y-57999531D01*
X16604760Y-57999531D01*
X16236718Y-58072740D01*
X15890030Y-58216342D01*
X15578020Y-58424821D01*
X15312676Y-58690165D01*
X15104197Y-59002175D01*
X14960595Y-59348863D01*
X14887386Y-59716905D01*
X11219200Y-59716905D01*
X11219200Y-48976678D01*
X15685523Y-48976678D01*
X15685523Y-49351930D01*
X15758732Y-49719972D01*
X15902334Y-50066660D01*
X16110813Y-50378670D01*
X16376157Y-50644014D01*
X16688167Y-50852493D01*
X17034855Y-50996095D01*
X17402897Y-51069304D01*
X17778149Y-51069304D01*
X18146191Y-50996095D01*
X18492879Y-50852493D01*
X18804889Y-50644014D01*
X19070233Y-50378670D01*
X19278712Y-50066660D01*
X19422314Y-49719972D01*
X19495523Y-49351930D01*
X19495523Y-48976678D01*
X19422314Y-48608636D01*
X19278712Y-48261948D01*
X19070233Y-47949938D01*
X18804889Y-47684594D01*
X18492879Y-47476115D01*
X18146191Y-47332513D01*
X17778149Y-47259304D01*
X17402897Y-47259304D01*
X17034855Y-47332513D01*
X16688167Y-47476115D01*
X16376157Y-47684594D01*
X16110813Y-47949938D01*
X15902334Y-48261948D01*
X15758732Y-48608636D01*
X15685523Y-48976678D01*
X11219200Y-48976678D01*
X11219200Y-47889266D01*
X11225098Y-47829380D01*
X11219200Y-47769494D01*
X11219200Y-47769488D01*
X11201559Y-47590376D01*
X11131844Y-47360556D01*
X11018633Y-47148752D01*
X10866276Y-46963105D01*
X10843400Y-46944331D01*
X11142658Y-47003858D01*
X11517910Y-47003858D01*
X11885952Y-46930649D01*
X12232640Y-46787047D01*
X12544650Y-46578568D01*
X12809994Y-46313224D01*
X12842658Y-46264339D01*
X12996751Y-46264339D01*
X12996751Y-46639591D01*
X13069960Y-47007633D01*
X13213562Y-47354321D01*
X13422041Y-47666331D01*
X13687385Y-47931675D01*
X13999395Y-48140154D01*
X14346083Y-48283756D01*
X14714125Y-48356965D01*
X15089377Y-48356965D01*
X15457419Y-48283756D01*
X15804107Y-48140154D01*
X16116117Y-47931675D01*
X16381461Y-47666331D01*
X16589940Y-47354321D01*
X16733542Y-47007633D01*
X16806751Y-46639591D01*
X16806751Y-46264339D01*
X16733542Y-45896297D01*
X16589940Y-45549609D01*
X16381461Y-45237599D01*
X16116117Y-44972255D01*
X15804107Y-44763776D01*
X15457419Y-44620174D01*
X15089377Y-44546965D01*
X14714125Y-44546965D01*
X14346083Y-44620174D01*
X13999395Y-44763776D01*
X13687385Y-44972255D01*
X13422041Y-45237599D01*
X13213562Y-45549609D01*
X13069960Y-45896297D01*
X12996751Y-46264339D01*
X12842658Y-46264339D01*
X13018473Y-46001214D01*
X13162075Y-45654526D01*
X13235284Y-45286484D01*
X13235284Y-44911232D01*
X13162075Y-44543190D01*
X13018473Y-44196502D01*
X12809994Y-43884492D01*
X12544650Y-43619148D01*
X12232640Y-43410669D01*
X11885952Y-43267067D01*
X11517910Y-43193858D01*
X11142658Y-43193858D01*
X10774616Y-43267067D01*
X10427928Y-43410669D01*
X10115918Y-43619148D01*
X9850574Y-43884492D01*
X9642095Y-44196502D01*
X9498493Y-44543190D01*
X9425284Y-44911232D01*
X9425284Y-45286484D01*
X9485864Y-45591037D01*
X9424264Y-45529437D01*
X9424264Y-45161019D01*
X9351055Y-44792977D01*
X9207453Y-44446289D01*
X8998974Y-44134279D01*
X8733630Y-43868935D01*
X8421620Y-43660456D01*
X8074932Y-43516854D01*
X7706890Y-43443645D01*
X7331638Y-43443645D01*
X6963596Y-43516854D01*
X6616908Y-43660456D01*
X6304898Y-43868935D01*
X6039554Y-44134279D01*
X5831075Y-44446289D01*
X5687473Y-44792977D01*
X5614264Y-45161019D01*
X5614264Y-45536271D01*
X5687473Y-45904313D01*
X5814628Y-46211295D01*
X5634678Y-45941981D01*
X5369334Y-45676637D01*
X5057324Y-45468158D01*
X4710636Y-45324556D01*
X4342594Y-45251347D01*
X3967342Y-45251347D01*
X3599300Y-45324556D01*
X3252612Y-45468158D01*
X2940602Y-45676637D01*
X2675258Y-45941981D01*
X2466779Y-46253991D01*
X2323177Y-46600679D01*
X2249968Y-46968721D01*
X2249968Y-47343973D01*
X2323177Y-47712015D01*
X2466779Y-48058703D01*
X2675258Y-48370713D01*
X2940602Y-48636057D01*
X3252612Y-48844536D01*
X3599300Y-48988138D01*
X3967342Y-49061347D01*
X4342594Y-49061347D01*
X4710636Y-48988138D01*
X5057324Y-48844536D01*
X5369334Y-48636057D01*
X5634678Y-48370713D01*
X5843157Y-48058703D01*
X5986759Y-47712015D01*
X6059968Y-47343973D01*
X6059968Y-46968721D01*
X5986759Y-46600679D01*
X5859604Y-46293697D01*
X6039554Y-46563011D01*
X6304898Y-46828355D01*
X6616908Y-47036834D01*
X6963596Y-47180436D01*
X7331638Y-47253645D01*
X7700056Y-47253645D01*
X8780801Y-48334391D01*
X8780800Y-61525124D01*
X8520290Y-61785634D01*
X8311811Y-62097644D01*
X8168209Y-62444332D01*
X8095000Y-62812374D01*
X8095000Y-63180791D01*
X1940251Y-69335541D01*
X1893725Y-69373724D01*
X1741368Y-69559371D01*
X1661686Y-69708446D01*
X1628157Y-69771175D01*
X1558441Y-70000996D01*
X1534901Y-70240000D01*
X1540801Y-70299903D01*
X1540800Y-72996740D01*
X1266424Y-73180073D01*
X940073Y-73506424D01*
X683660Y-73890173D01*
X507040Y-74316572D01*
X417000Y-74769235D01*
X-8832000Y-74769235D01*
X-8832000Y-62002025D01*
X4362761Y-62002025D01*
X4362761Y-62377277D01*
X4435970Y-62745319D01*
X4579572Y-63092007D01*
X4788051Y-63404017D01*
X5053395Y-63669361D01*
X5365405Y-63877840D01*
X5712093Y-64021442D01*
X6080135Y-64094651D01*
X6455387Y-64094651D01*
X6823429Y-64021442D01*
X7170117Y-63877840D01*
X7482127Y-63669361D01*
X7747471Y-63404017D01*
X7955950Y-63092007D01*
X8099552Y-62745319D01*
X8172761Y-62377277D01*
X8172761Y-62002025D01*
X8099552Y-61633983D01*
X7955950Y-61287295D01*
X7747471Y-60975285D01*
X7482127Y-60709941D01*
X7170117Y-60501462D01*
X6823429Y-60357860D01*
X6455387Y-60284651D01*
X6080135Y-60284651D01*
X5712093Y-60357860D01*
X5365405Y-60501462D01*
X5053395Y-60709941D01*
X4788051Y-60975285D01*
X4579572Y-61287295D01*
X4435970Y-61633983D01*
X4362761Y-62002025D01*
X-8832000Y-62002025D01*
X-8832000Y-56368512D01*
X-534377Y-56368512D01*
X-534377Y-56743764D01*
X-461168Y-57111806D01*
X-317566Y-57458494D01*
X-109087Y-57770504D01*
X156257Y-58035848D01*
X468267Y-58244327D01*
X814955Y-58387929D01*
X1182997Y-58461138D01*
X1558249Y-58461138D01*
X1926291Y-58387929D01*
X2247713Y-58254792D01*
X1993248Y-58424821D01*
X1727904Y-58690165D01*
X1519425Y-59002175D01*
X1375823Y-59348863D01*
X1302614Y-59716905D01*
X1302614Y-60092157D01*
X1375823Y-60460199D01*
X1519425Y-60806887D01*
X1727904Y-61118897D01*
X1993248Y-61384241D01*
X2305258Y-61592720D01*
X2651946Y-61736322D01*
X3019988Y-61809531D01*
X3395240Y-61809531D01*
X3763282Y-61736322D01*
X4109970Y-61592720D01*
X4421980Y-61384241D01*
X4687324Y-61118897D01*
X4895803Y-60806887D01*
X5039405Y-60460199D01*
X5112614Y-60092157D01*
X5112614Y-59716905D01*
X5039405Y-59348863D01*
X4895803Y-59002175D01*
X4687324Y-58690165D01*
X4421980Y-58424821D01*
X4109970Y-58216342D01*
X3763282Y-58072740D01*
X3395240Y-57999531D01*
X3019988Y-57999531D01*
X2651946Y-58072740D01*
X2330524Y-58205877D01*
X2584989Y-58035848D01*
X2850333Y-57770504D01*
X3058812Y-57458494D01*
X3202414Y-57111806D01*
X3275623Y-56743764D01*
X3275623Y-56368512D01*
X3202414Y-56000470D01*
X3058812Y-55653782D01*
X2850333Y-55341772D01*
X2584989Y-55076428D01*
X2272979Y-54867949D01*
X1926291Y-54724347D01*
X1558249Y-54651138D01*
X1182997Y-54651138D01*
X814955Y-54724347D01*
X468267Y-54867949D01*
X156257Y-55076428D01*
X-109087Y-55341772D01*
X-317566Y-55653782D01*
X-461168Y-56000470D01*
X-534377Y-56368512D01*
X-8832000Y-56368512D01*
X-8832000Y-50008810D01*
X-61770Y-50008810D01*
X-61770Y-50384062D01*
X11439Y-50752104D01*
X155041Y-51098792D01*
X363520Y-51410802D01*
X628864Y-51676146D01*
X940874Y-51884625D01*
X1287562Y-52028227D01*
X1655604Y-52101436D01*
X2030856Y-52101436D01*
X2398898Y-52028227D01*
X2745586Y-51884625D01*
X3057596Y-51676146D01*
X3322940Y-51410802D01*
X3531419Y-51098792D01*
X3675021Y-50752104D01*
X3748230Y-50384062D01*
X3748230Y-50008810D01*
X3675021Y-49640768D01*
X3531419Y-49294080D01*
X3322940Y-48982070D01*
X3057596Y-48716726D01*
X2745586Y-48508247D01*
X2398898Y-48364645D01*
X2030856Y-48291436D01*
X1655604Y-48291436D01*
X1287562Y-48364645D01*
X940874Y-48508247D01*
X628864Y-48716726D01*
X363520Y-48982070D01*
X155041Y-49294080D01*
X11439Y-49640768D01*
X-61770Y-50008810D01*
X-8832000Y-50008810D01*
X-8832000Y-40736530D01*
X-6675057Y-40736530D01*
X-6675057Y-41263470D01*
X-6572256Y-41780285D01*
X-6370604Y-42267114D01*
X-6077852Y-42705249D01*
X-5705249Y-43077852D01*
X-5267114Y-43370604D01*
X-4780285Y-43572256D01*
X-4263470Y-43675057D01*
X-3736530Y-43675057D01*
X-3219715Y-43572256D01*
X-2732886Y-43370604D01*
X-2294751Y-43077852D01*
X-1953429Y-42736530D01*
X20324943Y-42736530D01*
X20324943Y-43263470D01*
X20427744Y-43780285D01*
X20629396Y-44267114D01*
X20922148Y-44705249D01*
X21294751Y-45077852D01*
X21732886Y-45370604D01*
X22219715Y-45572256D01*
X22736530Y-45675057D01*
X23263470Y-45675057D01*
X23780285Y-45572256D01*
X24267114Y-45370604D01*
X24705249Y-45077852D01*
X25077852Y-44705249D01*
X25370604Y-44267114D01*
X25572256Y-43780285D01*
X25675057Y-43263470D01*
X25675057Y-42736530D01*
X194324943Y-42736530D01*
X194324943Y-43263470D01*
X194427744Y-43780285D01*
X194629396Y-44267114D01*
X194922148Y-44705249D01*
X195294751Y-45077852D01*
X195732886Y-45370604D01*
X196219715Y-45572256D01*
X196736530Y-45675057D01*
X197263470Y-45675057D01*
X197780285Y-45572256D01*
X198267114Y-45370604D01*
X198705249Y-45077852D01*
X199077852Y-44705249D01*
X199370604Y-44267114D01*
X199572256Y-43780285D01*
X199675057Y-43263470D01*
X199675057Y-42736530D01*
X199572256Y-42219715D01*
X199370604Y-41732886D01*
X199077852Y-41294751D01*
X198705249Y-40922148D01*
X198427452Y-40736530D01*
X226324943Y-40736530D01*
X226324943Y-41263470D01*
X226427744Y-41780285D01*
X226629396Y-42267114D01*
X226922148Y-42705249D01*
X227294751Y-43077852D01*
X227732886Y-43370604D01*
X228219715Y-43572256D01*
X228736530Y-43675057D01*
X229263470Y-43675057D01*
X229780285Y-43572256D01*
X230267114Y-43370604D01*
X230705249Y-43077852D01*
X231077852Y-42705249D01*
X231370604Y-42267114D01*
X231572256Y-41780285D01*
X231675057Y-41263470D01*
X231675057Y-40736530D01*
X231572256Y-40219715D01*
X231370604Y-39732886D01*
X231077852Y-39294751D01*
X230705249Y-38922148D01*
X230267114Y-38629396D01*
X229780285Y-38427744D01*
X229263470Y-38324943D01*
X228736530Y-38324943D01*
X228219715Y-38427744D01*
X227732886Y-38629396D01*
X227294751Y-38922148D01*
X226922148Y-39294751D01*
X226629396Y-39732886D01*
X226427744Y-40219715D01*
X226324943Y-40736530D01*
X198427452Y-40736530D01*
X198267114Y-40629396D01*
X197780285Y-40427744D01*
X197263470Y-40324943D01*
X196736530Y-40324943D01*
X196219715Y-40427744D01*
X195732886Y-40629396D01*
X195294751Y-40922148D01*
X194922148Y-41294751D01*
X194629396Y-41732886D01*
X194427744Y-42219715D01*
X194324943Y-42736530D01*
X25675057Y-42736530D01*
X25572256Y-42219715D01*
X25370604Y-41732886D01*
X25077852Y-41294751D01*
X24705249Y-40922148D01*
X24267114Y-40629396D01*
X23780285Y-40427744D01*
X23263470Y-40324943D01*
X22736530Y-40324943D01*
X22219715Y-40427744D01*
X21732886Y-40629396D01*
X21294751Y-40922148D01*
X20922148Y-41294751D01*
X20629396Y-41732886D01*
X20427744Y-42219715D01*
X20324943Y-42736530D01*
X-1953429Y-42736530D01*
X-1922148Y-42705249D01*
X-1629396Y-42267114D01*
X-1427744Y-41780285D01*
X-1324943Y-41263470D01*
X-1324943Y-40736530D01*
X-1427744Y-40219715D01*
X-1629396Y-39732886D01*
X-1922148Y-39294751D01*
X-2294751Y-38922148D01*
X-2732886Y-38629396D01*
X-3219715Y-38427744D01*
X-3736530Y-38324943D01*
X-4263470Y-38324943D01*
X-4780285Y-38427744D01*
X-5267114Y-38629396D01*
X-5705249Y-38922148D01*
X-6077852Y-39294751D01*
X-6370604Y-39732886D01*
X-6572256Y-40219715D01*
X-6675057Y-40736530D01*
X-8832000Y-40736530D01*
X-8832000Y-38057129D01*
X-8791615Y-37645251D01*
X-8688590Y-37304012D01*
X-8521249Y-36989290D01*
X-8295958Y-36713056D01*
X-8021309Y-36485846D01*
X-7707760Y-36316311D01*
X-7367248Y-36210905D01*
X-6959033Y-36168000D01*
X231942871Y-36168000D01*
X232354749Y-36208385D01*
G36*
X138494992Y-73780800D02*
G01*
X128859893Y-73780800D01*
X128800000Y-73774901D01*
X128560995Y-73798441D01*
X128331174Y-73868156D01*
X128267086Y-73902412D01*
X128119371Y-73981367D01*
X127933724Y-74133724D01*
X127895541Y-74180250D01*
X124324915Y-77750877D01*
X124381481Y-77643109D01*
X124284157Y-77368748D01*
X124135178Y-77118645D01*
X123940269Y-76902412D01*
X123706920Y-76728359D01*
X123444099Y-76603175D01*
X123296890Y-76558524D01*
X123067000Y-76679845D01*
X123067000Y-77859401D01*
X122813000Y-77859401D01*
X122813000Y-76679845D01*
X122583110Y-76558524D01*
X122435901Y-76603175D01*
X122173080Y-76728359D01*
X122022383Y-76840763D01*
X121948064Y-76729537D01*
X121718527Y-76500000D01*
X121948064Y-76270463D01*
X122022383Y-76159237D01*
X122173080Y-76271641D01*
X122435901Y-76396825D01*
X122583110Y-76441476D01*
X122813000Y-76320155D01*
X122813000Y-75127000D01*
X123067000Y-75127000D01*
X123067000Y-76320155D01*
X123296890Y-76441476D01*
X123444099Y-76396825D01*
X123706920Y-76271641D01*
X123940269Y-76097588D01*
X124135178Y-75881355D01*
X124284157Y-75631252D01*
X124381481Y-75356891D01*
X124260814Y-75127000D01*
X123067000Y-75127000D01*
X122813000Y-75127000D01*
X122793000Y-75127000D01*
X122793000Y-74873000D01*
X122813000Y-74873000D01*
X122813000Y-74853000D01*
X123067000Y-74853000D01*
X123067000Y-74873000D01*
X124260814Y-74873000D01*
X124381481Y-74643109D01*
X124284157Y-74368748D01*
X124135178Y-74118645D01*
X123940269Y-73902412D01*
X123706920Y-73728359D01*
X123603712Y-73679200D01*
X138596592Y-73679200D01*
X138494992Y-73780800D01*
G37*
X138494992Y-73780800D02*
X128859893Y-73780800D01*
X128800000Y-73774901D01*
X128560995Y-73798441D01*
X128331174Y-73868156D01*
X128267086Y-73902412D01*
X128119371Y-73981367D01*
X127933724Y-74133724D01*
X127895541Y-74180250D01*
X124324915Y-77750877D01*
X124381481Y-77643109D01*
X124284157Y-77368748D01*
X124135178Y-77118645D01*
X123940269Y-76902412D01*
X123706920Y-76728359D01*
X123444099Y-76603175D01*
X123296890Y-76558524D01*
X123067000Y-76679845D01*
X123067000Y-77859401D01*
X122813000Y-77859401D01*
X122813000Y-76679845D01*
X122583110Y-76558524D01*
X122435901Y-76603175D01*
X122173080Y-76728359D01*
X122022383Y-76840763D01*
X121948064Y-76729537D01*
X121718527Y-76500000D01*
X121948064Y-76270463D01*
X122022383Y-76159237D01*
X122173080Y-76271641D01*
X122435901Y-76396825D01*
X122583110Y-76441476D01*
X122813000Y-76320155D01*
X122813000Y-75127000D01*
X123067000Y-75127000D01*
X123067000Y-76320155D01*
X123296890Y-76441476D01*
X123444099Y-76396825D01*
X123706920Y-76271641D01*
X123940269Y-76097588D01*
X124135178Y-75881355D01*
X124284157Y-75631252D01*
X124381481Y-75356891D01*
X124260814Y-75127000D01*
X123067000Y-75127000D01*
X122813000Y-75127000D01*
X122793000Y-75127000D01*
X122793000Y-74873000D01*
X122813000Y-74873000D01*
X122813000Y-74853000D01*
X123067000Y-74853000D01*
X123067000Y-74873000D01*
X124260814Y-74873000D01*
X124381481Y-74643109D01*
X124284157Y-74368748D01*
X124135178Y-74118645D01*
X123940269Y-73902412D01*
X123706920Y-73728359D01*
X123603712Y-73679200D01*
X138596592Y-73679200D01*
X138494992Y-73780800D01*
%TD*%
M02*
