%TF.GenerationSoftware,KiCad,Pcbnew,(5.1.5-131-g305ed0b65)-1*%
%TF.CreationDate,2020-05-01T20:04:55+08:00*%
%TF.ProjectId,NixieController,4e697869-6543-46f6-9e74-726f6c6c6572,rev?*%
%TF.SameCoordinates,Original*%
%TF.FileFunction,Legend,Top*%
%TF.FilePolarity,Positive*%
%FSLAX46Y46*%
G04 Gerber Fmt 4.6, Leading zero omitted, Abs format (unit mm)*
G04 Created by KiCad (PCBNEW (5.1.5-131-g305ed0b65)-1) date 2020-05-01 20:04:55*
%MOMM*%
%LPD*%
G01*
G04 APERTURE LIST*
%ADD10C,0.100000*%
%ADD11C,0.250000*%
%ADD12C,0.150000*%
%ADD13C,0.300000*%
%ADD14C,0.381000*%
%ADD15C,0.010000*%
%ADD16C,0.120000*%
G04 APERTURE END LIST*
D10*
X87255000Y-80073428D02*
X87219285Y-80144857D01*
X87219285Y-80252000D01*
X87255000Y-80359142D01*
X87326428Y-80430571D01*
X87397857Y-80466285D01*
X87540714Y-80502000D01*
X87647857Y-80502000D01*
X87790714Y-80466285D01*
X87862142Y-80430571D01*
X87933571Y-80359142D01*
X87969285Y-80252000D01*
X87969285Y-80180571D01*
X87933571Y-80073428D01*
X87897857Y-80037714D01*
X87647857Y-80037714D01*
X87647857Y-80180571D01*
X87969285Y-79716285D02*
X87219285Y-79716285D01*
X87969285Y-79287714D01*
X87219285Y-79287714D01*
X87969285Y-78930571D02*
X87219285Y-78930571D01*
X87219285Y-78752000D01*
X87255000Y-78644857D01*
X87326428Y-78573428D01*
X87397857Y-78537714D01*
X87540714Y-78502000D01*
X87647857Y-78502000D01*
X87790714Y-78537714D01*
X87862142Y-78573428D01*
X87933571Y-78644857D01*
X87969285Y-78752000D01*
X87969285Y-78930571D01*
X85429285Y-79912714D02*
X85072142Y-80162714D01*
X85429285Y-80341285D02*
X84679285Y-80341285D01*
X84679285Y-80055571D01*
X84715000Y-79984142D01*
X84750714Y-79948428D01*
X84822142Y-79912714D01*
X84929285Y-79912714D01*
X85000714Y-79948428D01*
X85036428Y-79984142D01*
X85072142Y-80055571D01*
X85072142Y-80341285D01*
X85393571Y-79627000D02*
X85429285Y-79519857D01*
X85429285Y-79341285D01*
X85393571Y-79269857D01*
X85357857Y-79234142D01*
X85286428Y-79198428D01*
X85215000Y-79198428D01*
X85143571Y-79234142D01*
X85107857Y-79269857D01*
X85072142Y-79341285D01*
X85036428Y-79484142D01*
X85000714Y-79555571D01*
X84965000Y-79591285D01*
X84893571Y-79627000D01*
X84822142Y-79627000D01*
X84750714Y-79591285D01*
X84715000Y-79555571D01*
X84679285Y-79484142D01*
X84679285Y-79305571D01*
X84715000Y-79198428D01*
X84679285Y-78984142D02*
X84679285Y-78555571D01*
X85429285Y-78769857D02*
X84679285Y-78769857D01*
X82853571Y-80466285D02*
X82889285Y-80359142D01*
X82889285Y-80180571D01*
X82853571Y-80109142D01*
X82817857Y-80073428D01*
X82746428Y-80037714D01*
X82675000Y-80037714D01*
X82603571Y-80073428D01*
X82567857Y-80109142D01*
X82532142Y-80180571D01*
X82496428Y-80323428D01*
X82460714Y-80394857D01*
X82425000Y-80430571D01*
X82353571Y-80466285D01*
X82282142Y-80466285D01*
X82210714Y-80430571D01*
X82175000Y-80394857D01*
X82139285Y-80323428D01*
X82139285Y-80144857D01*
X82175000Y-80037714D01*
X82817857Y-79287714D02*
X82853571Y-79323428D01*
X82889285Y-79430571D01*
X82889285Y-79502000D01*
X82853571Y-79609142D01*
X82782142Y-79680571D01*
X82710714Y-79716285D01*
X82567857Y-79752000D01*
X82460714Y-79752000D01*
X82317857Y-79716285D01*
X82246428Y-79680571D01*
X82175000Y-79609142D01*
X82139285Y-79502000D01*
X82139285Y-79430571D01*
X82175000Y-79323428D01*
X82210714Y-79287714D01*
X82889285Y-78966285D02*
X82139285Y-78966285D01*
X82889285Y-78537714D02*
X82460714Y-78859142D01*
X82139285Y-78537714D02*
X82567857Y-78966285D01*
X80349285Y-80934571D02*
X79599285Y-80934571D01*
X80135000Y-80684571D01*
X79599285Y-80434571D01*
X80349285Y-80434571D01*
X80349285Y-80077428D02*
X79599285Y-80077428D01*
X80313571Y-79756000D02*
X80349285Y-79648857D01*
X80349285Y-79470285D01*
X80313571Y-79398857D01*
X80277857Y-79363142D01*
X80206428Y-79327428D01*
X80135000Y-79327428D01*
X80063571Y-79363142D01*
X80027857Y-79398857D01*
X79992142Y-79470285D01*
X79956428Y-79613142D01*
X79920714Y-79684571D01*
X79885000Y-79720285D01*
X79813571Y-79756000D01*
X79742142Y-79756000D01*
X79670714Y-79720285D01*
X79635000Y-79684571D01*
X79599285Y-79613142D01*
X79599285Y-79434571D01*
X79635000Y-79327428D01*
X79599285Y-78863142D02*
X79599285Y-78720285D01*
X79635000Y-78648857D01*
X79706428Y-78577428D01*
X79849285Y-78541714D01*
X80099285Y-78541714D01*
X80242142Y-78577428D01*
X80313571Y-78648857D01*
X80349285Y-78720285D01*
X80349285Y-78863142D01*
X80313571Y-78934571D01*
X80242142Y-79006000D01*
X80099285Y-79041714D01*
X79849285Y-79041714D01*
X79706428Y-79006000D01*
X79635000Y-78934571D01*
X79599285Y-78863142D01*
X77839285Y-80934571D02*
X77089285Y-80934571D01*
X77625000Y-80684571D01*
X77089285Y-80434571D01*
X77839285Y-80434571D01*
X77089285Y-79934571D02*
X77089285Y-79791714D01*
X77125000Y-79720285D01*
X77196428Y-79648857D01*
X77339285Y-79613142D01*
X77589285Y-79613142D01*
X77732142Y-79648857D01*
X77803571Y-79720285D01*
X77839285Y-79791714D01*
X77839285Y-79934571D01*
X77803571Y-80006000D01*
X77732142Y-80077428D01*
X77589285Y-80113142D01*
X77339285Y-80113142D01*
X77196428Y-80077428D01*
X77125000Y-80006000D01*
X77089285Y-79934571D01*
X77803571Y-79327428D02*
X77839285Y-79220285D01*
X77839285Y-79041714D01*
X77803571Y-78970285D01*
X77767857Y-78934571D01*
X77696428Y-78898857D01*
X77625000Y-78898857D01*
X77553571Y-78934571D01*
X77517857Y-78970285D01*
X77482142Y-79041714D01*
X77446428Y-79184571D01*
X77410714Y-79256000D01*
X77375000Y-79291714D01*
X77303571Y-79327428D01*
X77232142Y-79327428D01*
X77160714Y-79291714D01*
X77125000Y-79256000D01*
X77089285Y-79184571D01*
X77089285Y-79006000D01*
X77125000Y-78898857D01*
X77839285Y-78577428D02*
X77089285Y-78577428D01*
X72755142Y-76589285D02*
X72398000Y-76589285D01*
X72362285Y-76946428D01*
X72398000Y-76910714D01*
X72469428Y-76875000D01*
X72648000Y-76875000D01*
X72719428Y-76910714D01*
X72755142Y-76946428D01*
X72790857Y-77017857D01*
X72790857Y-77196428D01*
X72755142Y-77267857D01*
X72719428Y-77303571D01*
X72648000Y-77339285D01*
X72469428Y-77339285D01*
X72398000Y-77303571D01*
X72362285Y-77267857D01*
X73005142Y-76589285D02*
X73255142Y-77339285D01*
X73505142Y-76589285D01*
D11*
X214428571Y-112678571D02*
X214428571Y-111178571D01*
X214428571Y-111892857D02*
X215285714Y-111892857D01*
X215285714Y-112678571D02*
X215285714Y-111178571D01*
X215785714Y-111178571D02*
X216285714Y-112678571D01*
X216785714Y-111178571D01*
D12*
X105322857Y-81468571D02*
X105465714Y-81516190D01*
X105513333Y-81563809D01*
X105560952Y-81659047D01*
X105560952Y-81801904D01*
X105513333Y-81897142D01*
X105465714Y-81944761D01*
X105370476Y-81992380D01*
X104989523Y-81992380D01*
X104989523Y-80992380D01*
X105322857Y-80992380D01*
X105418095Y-81040000D01*
X105465714Y-81087619D01*
X105513333Y-81182857D01*
X105513333Y-81278095D01*
X105465714Y-81373333D01*
X105418095Y-81420952D01*
X105322857Y-81468571D01*
X104989523Y-81468571D01*
X105941904Y-81706666D02*
X106418095Y-81706666D01*
X105846666Y-81992380D02*
X106180000Y-80992380D01*
X106513333Y-81992380D01*
X106703809Y-80992380D02*
X107275238Y-80992380D01*
X106989523Y-81992380D02*
X106989523Y-80992380D01*
X107608571Y-81611428D02*
X108370476Y-81611428D01*
X107989523Y-81992380D02*
X107989523Y-81230476D01*
D13*
X117476190Y-76254761D02*
X117095238Y-76254761D01*
X116904761Y-76350000D01*
X116809523Y-76445238D01*
X116619047Y-76730952D01*
X116523809Y-77111904D01*
X116523809Y-77873809D01*
X116619047Y-78064285D01*
X116714285Y-78159523D01*
X116904761Y-78254761D01*
X117285714Y-78254761D01*
X117476190Y-78159523D01*
X117571428Y-78064285D01*
X117666666Y-77873809D01*
X117666666Y-77397619D01*
X117571428Y-77207142D01*
X117476190Y-77111904D01*
X117285714Y-77016666D01*
X116904761Y-77016666D01*
X116714285Y-77111904D01*
X116619047Y-77207142D01*
X116523809Y-77397619D01*
X120047619Y-78254761D02*
X120047619Y-76254761D01*
X120523809Y-76254761D01*
X120809523Y-76350000D01*
X120999999Y-76540476D01*
X121095238Y-76730952D01*
X121190476Y-77111904D01*
X121190476Y-77397619D01*
X121095238Y-77778571D01*
X120999999Y-77969047D01*
X120809523Y-78159523D01*
X120523809Y-78254761D01*
X120047619Y-78254761D01*
X122047619Y-78254761D02*
X122047619Y-76254761D01*
X124047619Y-76350000D02*
X123857142Y-76254761D01*
X123571428Y-76254761D01*
X123285714Y-76350000D01*
X123095238Y-76540476D01*
X122999999Y-76730952D01*
X122904761Y-77111904D01*
X122904761Y-77397619D01*
X122999999Y-77778571D01*
X123095238Y-77969047D01*
X123285714Y-78159523D01*
X123571428Y-78254761D01*
X123761904Y-78254761D01*
X124047619Y-78159523D01*
X124142857Y-78064285D01*
X124142857Y-77397619D01*
X123761904Y-77397619D01*
X124999999Y-78254761D02*
X124999999Y-76254761D01*
X125666666Y-76254761D02*
X126809523Y-76254761D01*
X126238095Y-78254761D02*
X126238095Y-76254761D01*
X128999999Y-78254761D02*
X128999999Y-76254761D01*
X130142857Y-78254761D01*
X130142857Y-76254761D01*
X131095238Y-78254761D02*
X131095238Y-76254761D01*
X131857142Y-76254761D02*
X133190476Y-78254761D01*
X133190476Y-76254761D02*
X131857142Y-78254761D01*
X133952380Y-78254761D02*
X133952380Y-76254761D01*
X134904761Y-77207142D02*
X135571428Y-77207142D01*
X135857142Y-78254761D02*
X134904761Y-78254761D01*
X134904761Y-76254761D01*
X135857142Y-76254761D01*
X139380952Y-78064285D02*
X139285714Y-78159523D01*
X139000000Y-78254761D01*
X138809523Y-78254761D01*
X138523809Y-78159523D01*
X138333333Y-77969047D01*
X138238095Y-77778571D01*
X138142857Y-77397619D01*
X138142857Y-77111904D01*
X138238095Y-76730952D01*
X138333333Y-76540476D01*
X138523809Y-76350000D01*
X138809523Y-76254761D01*
X139000000Y-76254761D01*
X139285714Y-76350000D01*
X139380952Y-76445238D01*
X141190476Y-78254761D02*
X140238095Y-78254761D01*
X140238095Y-76254761D01*
X142238095Y-76254761D02*
X142619047Y-76254761D01*
X142809523Y-76350000D01*
X143000000Y-76540476D01*
X143095238Y-76921428D01*
X143095238Y-77588095D01*
X143000000Y-77969047D01*
X142809523Y-78159523D01*
X142619047Y-78254761D01*
X142238095Y-78254761D01*
X142047619Y-78159523D01*
X141857142Y-77969047D01*
X141761904Y-77588095D01*
X141761904Y-76921428D01*
X141857142Y-76540476D01*
X142047619Y-76350000D01*
X142238095Y-76254761D01*
X145095238Y-78064285D02*
X145000000Y-78159523D01*
X144714285Y-78254761D01*
X144523809Y-78254761D01*
X144238095Y-78159523D01*
X144047619Y-77969047D01*
X143952380Y-77778571D01*
X143857142Y-77397619D01*
X143857142Y-77111904D01*
X143952380Y-76730952D01*
X144047619Y-76540476D01*
X144238095Y-76350000D01*
X144523809Y-76254761D01*
X144714285Y-76254761D01*
X145000000Y-76350000D01*
X145095238Y-76445238D01*
X145952380Y-78254761D02*
X145952380Y-76254761D01*
X147095238Y-78254761D02*
X146238095Y-77111904D01*
X147095238Y-76254761D02*
X145952380Y-77397619D01*
X150619047Y-78064285D02*
X150523809Y-78159523D01*
X150238095Y-78254761D01*
X150047619Y-78254761D01*
X149761904Y-78159523D01*
X149571428Y-77969047D01*
X149476190Y-77778571D01*
X149380952Y-77397619D01*
X149380952Y-77111904D01*
X149476190Y-76730952D01*
X149571428Y-76540476D01*
X149761904Y-76350000D01*
X150047619Y-76254761D01*
X150238095Y-76254761D01*
X150523809Y-76350000D01*
X150619047Y-76445238D01*
X151857142Y-76254761D02*
X152238095Y-76254761D01*
X152428571Y-76350000D01*
X152619047Y-76540476D01*
X152714285Y-76921428D01*
X152714285Y-77588095D01*
X152619047Y-77969047D01*
X152428571Y-78159523D01*
X152238095Y-78254761D01*
X151857142Y-78254761D01*
X151666666Y-78159523D01*
X151476190Y-77969047D01*
X151380952Y-77588095D01*
X151380952Y-76921428D01*
X151476190Y-76540476D01*
X151666666Y-76350000D01*
X151857142Y-76254761D01*
X153571428Y-78254761D02*
X153571428Y-76254761D01*
X154714285Y-78254761D01*
X154714285Y-76254761D01*
X155380952Y-76254761D02*
X156523809Y-76254761D01*
X155952380Y-78254761D02*
X155952380Y-76254761D01*
X158333333Y-78254761D02*
X157666666Y-77302380D01*
X157190476Y-78254761D02*
X157190476Y-76254761D01*
X157952380Y-76254761D01*
X158142857Y-76350000D01*
X158238095Y-76445238D01*
X158333333Y-76635714D01*
X158333333Y-76921428D01*
X158238095Y-77111904D01*
X158142857Y-77207142D01*
X157952380Y-77302380D01*
X157190476Y-77302380D01*
X159571428Y-76254761D02*
X159952380Y-76254761D01*
X160142857Y-76350000D01*
X160333333Y-76540476D01*
X160428571Y-76921428D01*
X160428571Y-77588095D01*
X160333333Y-77969047D01*
X160142857Y-78159523D01*
X159952380Y-78254761D01*
X159571428Y-78254761D01*
X159380952Y-78159523D01*
X159190476Y-77969047D01*
X159095238Y-77588095D01*
X159095238Y-76921428D01*
X159190476Y-76540476D01*
X159380952Y-76350000D01*
X159571428Y-76254761D01*
X162238095Y-78254761D02*
X161285714Y-78254761D01*
X161285714Y-76254761D01*
X163857142Y-78254761D02*
X162904761Y-78254761D01*
X162904761Y-76254761D01*
X164523809Y-77207142D02*
X165190476Y-77207142D01*
X165476190Y-78254761D02*
X164523809Y-78254761D01*
X164523809Y-76254761D01*
X165476190Y-76254761D01*
X167476190Y-78254761D02*
X166809523Y-77302380D01*
X166333333Y-78254761D02*
X166333333Y-76254761D01*
X167095238Y-76254761D01*
X167285714Y-76350000D01*
X167380952Y-76445238D01*
X167476190Y-76635714D01*
X167476190Y-76921428D01*
X167380952Y-77111904D01*
X167285714Y-77207142D01*
X167095238Y-77302380D01*
X166333333Y-77302380D01*
X117809523Y-80507142D02*
X118095238Y-80602380D01*
X118190476Y-80697619D01*
X118285714Y-80888095D01*
X118285714Y-81173809D01*
X118190476Y-81364285D01*
X118095238Y-81459523D01*
X117904761Y-81554761D01*
X117142857Y-81554761D01*
X117142857Y-79554761D01*
X117809523Y-79554761D01*
X117999999Y-79650000D01*
X118095238Y-79745238D01*
X118190476Y-79935714D01*
X118190476Y-80126190D01*
X118095238Y-80316666D01*
X117999999Y-80411904D01*
X117809523Y-80507142D01*
X117142857Y-80507142D01*
X119142857Y-79554761D02*
X119142857Y-81173809D01*
X119238095Y-81364285D01*
X119333333Y-81459523D01*
X119523809Y-81554761D01*
X119904761Y-81554761D01*
X120095238Y-81459523D01*
X120190476Y-81364285D01*
X120285714Y-81173809D01*
X120285714Y-79554761D01*
X121238095Y-81554761D02*
X121238095Y-79554761D01*
X123142857Y-81554761D02*
X122190476Y-81554761D01*
X122190476Y-79554761D01*
X123523809Y-79554761D02*
X124666666Y-79554761D01*
X124095238Y-81554761D02*
X124095238Y-79554761D01*
X126857142Y-81554761D02*
X126857142Y-79554761D01*
X127809523Y-81554761D02*
X127809523Y-79554761D01*
X128952380Y-81554761D01*
X128952380Y-79554761D01*
X131428571Y-81554761D02*
X131428571Y-79554761D01*
X131428571Y-80507142D02*
X132571428Y-80507142D01*
X132571428Y-81554761D02*
X132571428Y-79554761D01*
X133238095Y-79554761D02*
X133904761Y-81554761D01*
X134571428Y-79554761D01*
X136761904Y-81554761D02*
X136761904Y-79554761D01*
X137523809Y-79554761D01*
X137714285Y-79650000D01*
X137809523Y-79745238D01*
X137904761Y-79935714D01*
X137904761Y-80221428D01*
X137809523Y-80411904D01*
X137714285Y-80507142D01*
X137523809Y-80602380D01*
X136761904Y-80602380D01*
X139142857Y-79554761D02*
X139523809Y-79554761D01*
X139714285Y-79650000D01*
X139904761Y-79840476D01*
X140000000Y-80221428D01*
X140000000Y-80888095D01*
X139904761Y-81269047D01*
X139714285Y-81459523D01*
X139523809Y-81554761D01*
X139142857Y-81554761D01*
X138952380Y-81459523D01*
X138761904Y-81269047D01*
X138666666Y-80888095D01*
X138666666Y-80221428D01*
X138761904Y-79840476D01*
X138952380Y-79650000D01*
X139142857Y-79554761D01*
X140666666Y-79554761D02*
X141142857Y-81554761D01*
X141523809Y-80126190D01*
X141904761Y-81554761D01*
X142380952Y-79554761D01*
X143142857Y-80507142D02*
X143809523Y-80507142D01*
X144095238Y-81554761D02*
X143142857Y-81554761D01*
X143142857Y-79554761D01*
X144095238Y-79554761D01*
X146095238Y-81554761D02*
X145428571Y-80602380D01*
X144952380Y-81554761D02*
X144952380Y-79554761D01*
X145714285Y-79554761D01*
X145904761Y-79650000D01*
X145999999Y-79745238D01*
X146095238Y-79935714D01*
X146095238Y-80221428D01*
X145999999Y-80411904D01*
X145904761Y-80507142D01*
X145714285Y-80602380D01*
X144952380Y-80602380D01*
X148380952Y-81459523D02*
X148666666Y-81554761D01*
X149142857Y-81554761D01*
X149333333Y-81459523D01*
X149428571Y-81364285D01*
X149523809Y-81173809D01*
X149523809Y-80983333D01*
X149428571Y-80792857D01*
X149333333Y-80697619D01*
X149142857Y-80602380D01*
X148761904Y-80507142D01*
X148571428Y-80411904D01*
X148476190Y-80316666D01*
X148380952Y-80126190D01*
X148380952Y-79935714D01*
X148476190Y-79745238D01*
X148571428Y-79650000D01*
X148761904Y-79554761D01*
X149238095Y-79554761D01*
X149523809Y-79650000D01*
X150380952Y-79554761D02*
X150380952Y-81173809D01*
X150476190Y-81364285D01*
X150571428Y-81459523D01*
X150761904Y-81554761D01*
X151142857Y-81554761D01*
X151333333Y-81459523D01*
X151428571Y-81364285D01*
X151523809Y-81173809D01*
X151523809Y-79554761D01*
X152476190Y-81554761D02*
X152476190Y-79554761D01*
X153238095Y-79554761D01*
X153428571Y-79650000D01*
X153523809Y-79745238D01*
X153619047Y-79935714D01*
X153619047Y-80221428D01*
X153523809Y-80411904D01*
X153428571Y-80507142D01*
X153238095Y-80602380D01*
X152476190Y-80602380D01*
X154476190Y-81554761D02*
X154476190Y-79554761D01*
X155238095Y-79554761D01*
X155428571Y-79650000D01*
X155523809Y-79745238D01*
X155619047Y-79935714D01*
X155619047Y-80221428D01*
X155523809Y-80411904D01*
X155428571Y-80507142D01*
X155238095Y-80602380D01*
X154476190Y-80602380D01*
X157428571Y-81554761D02*
X156476190Y-81554761D01*
X156476190Y-79554761D01*
X158476190Y-80602380D02*
X158476190Y-81554761D01*
X157809523Y-79554761D02*
X158476190Y-80602380D01*
X159142857Y-79554761D01*
X161047619Y-79554761D02*
X161714285Y-81554761D01*
X162380952Y-79554761D01*
X164095238Y-81554761D02*
X162952380Y-81554761D01*
X163523809Y-81554761D02*
X163523809Y-79554761D01*
X163333333Y-79840476D01*
X163142857Y-80030952D01*
X162952380Y-80126190D01*
X164952380Y-81364285D02*
X165047619Y-81459523D01*
X164952380Y-81554761D01*
X164857142Y-81459523D01*
X164952380Y-81364285D01*
X164952380Y-81554761D01*
X166285714Y-79554761D02*
X166476190Y-79554761D01*
X166666666Y-79650000D01*
X166761904Y-79745238D01*
X166857142Y-79935714D01*
X166952380Y-80316666D01*
X166952380Y-80792857D01*
X166857142Y-81173809D01*
X166761904Y-81364285D01*
X166666666Y-81459523D01*
X166476190Y-81554761D01*
X166285714Y-81554761D01*
X166095238Y-81459523D01*
X166000000Y-81364285D01*
X165904761Y-81173809D01*
X165809523Y-80792857D01*
X165809523Y-80316666D01*
X165904761Y-79935714D01*
X166000000Y-79745238D01*
X166095238Y-79650000D01*
X166285714Y-79554761D01*
D12*
X105322857Y-78928571D02*
X105465714Y-78976190D01*
X105513333Y-79023809D01*
X105560952Y-79119047D01*
X105560952Y-79261904D01*
X105513333Y-79357142D01*
X105465714Y-79404761D01*
X105370476Y-79452380D01*
X104989523Y-79452380D01*
X104989523Y-78452380D01*
X105322857Y-78452380D01*
X105418095Y-78500000D01*
X105465714Y-78547619D01*
X105513333Y-78642857D01*
X105513333Y-78738095D01*
X105465714Y-78833333D01*
X105418095Y-78880952D01*
X105322857Y-78928571D01*
X104989523Y-78928571D01*
X105941904Y-79166666D02*
X106418095Y-79166666D01*
X105846666Y-79452380D02*
X106180000Y-78452380D01*
X106513333Y-79452380D01*
X106703809Y-78452380D02*
X107275238Y-78452380D01*
X106989523Y-79452380D02*
X106989523Y-78452380D01*
X107608571Y-79071428D02*
X108370476Y-79071428D01*
D14*
%TO.C,REF\u002A\u002A*%
X204301000Y-114294000D02*
X209000000Y-107309000D01*
X213699000Y-114294000D02*
X204301000Y-114294000D01*
X209000000Y-107309000D02*
X213699000Y-114294000D01*
X208502160Y-113699640D02*
X208400560Y-112800480D01*
X209299720Y-110900560D02*
X208502160Y-113699640D01*
X208100840Y-111700660D02*
X209299720Y-110900560D01*
X208900940Y-108700920D02*
X208100840Y-111700660D01*
X208502160Y-113699640D02*
X209101600Y-113001140D01*
X208100840Y-111700660D02*
X209401320Y-108899040D01*
X209701040Y-110600840D02*
X209101600Y-110999620D01*
X208502160Y-113699640D02*
X209701040Y-110600840D01*
D15*
G36*
X113103910Y-76242348D02*
G01*
X113182454Y-76242778D01*
X113239298Y-76243942D01*
X113278105Y-76246207D01*
X113302538Y-76249940D01*
X113316262Y-76255506D01*
X113322940Y-76263273D01*
X113326236Y-76273605D01*
X113326556Y-76274943D01*
X113331562Y-76299079D01*
X113340829Y-76346701D01*
X113353392Y-76412741D01*
X113368287Y-76492128D01*
X113384551Y-76579796D01*
X113385119Y-76582875D01*
X113401410Y-76668789D01*
X113416652Y-76744696D01*
X113429861Y-76806045D01*
X113440054Y-76848282D01*
X113446248Y-76866855D01*
X113446543Y-76867184D01*
X113464788Y-76876253D01*
X113502405Y-76891367D01*
X113551271Y-76909262D01*
X113551543Y-76909358D01*
X113613093Y-76932493D01*
X113685657Y-76961965D01*
X113754057Y-76991597D01*
X113757294Y-76993062D01*
X113868702Y-77043626D01*
X114115399Y-76875160D01*
X114191077Y-76823803D01*
X114259631Y-76777889D01*
X114317088Y-76740030D01*
X114359476Y-76712837D01*
X114382825Y-76698921D01*
X114385042Y-76697889D01*
X114402010Y-76702484D01*
X114433701Y-76724655D01*
X114481352Y-76765447D01*
X114546198Y-76825905D01*
X114612397Y-76890227D01*
X114676214Y-76953612D01*
X114733329Y-77011451D01*
X114780305Y-77060175D01*
X114813703Y-77096210D01*
X114830085Y-77115984D01*
X114830694Y-77117002D01*
X114832505Y-77130572D01*
X114825683Y-77152733D01*
X114808540Y-77186478D01*
X114779393Y-77234800D01*
X114736555Y-77300692D01*
X114679448Y-77385517D01*
X114628766Y-77460177D01*
X114583461Y-77527140D01*
X114546150Y-77582516D01*
X114519452Y-77622420D01*
X114505985Y-77642962D01*
X114505137Y-77644356D01*
X114506781Y-77664038D01*
X114519245Y-77702293D01*
X114540048Y-77751889D01*
X114547462Y-77767728D01*
X114579814Y-77838290D01*
X114614328Y-77918353D01*
X114642365Y-77987629D01*
X114662568Y-78039045D01*
X114678615Y-78078119D01*
X114687888Y-78098541D01*
X114689041Y-78100114D01*
X114706096Y-78102721D01*
X114746298Y-78109863D01*
X114804302Y-78120523D01*
X114874763Y-78133685D01*
X114952335Y-78148333D01*
X115031672Y-78163449D01*
X115107431Y-78178018D01*
X115174264Y-78191022D01*
X115226828Y-78201445D01*
X115259776Y-78208270D01*
X115267857Y-78210199D01*
X115276205Y-78214962D01*
X115282506Y-78225718D01*
X115287045Y-78246098D01*
X115290104Y-78279734D01*
X115291967Y-78330255D01*
X115292918Y-78401292D01*
X115293240Y-78496476D01*
X115293257Y-78535492D01*
X115293257Y-78852799D01*
X115217057Y-78867839D01*
X115174663Y-78875995D01*
X115111400Y-78887899D01*
X115034962Y-78902116D01*
X114953043Y-78917210D01*
X114930400Y-78921355D01*
X114854806Y-78936053D01*
X114788953Y-78950505D01*
X114738366Y-78963375D01*
X114708574Y-78973322D01*
X114703612Y-78976287D01*
X114691426Y-78997283D01*
X114673953Y-79037967D01*
X114654577Y-79090322D01*
X114650734Y-79101600D01*
X114625339Y-79171523D01*
X114593817Y-79250418D01*
X114562969Y-79321266D01*
X114562817Y-79321595D01*
X114511447Y-79432733D01*
X114680399Y-79681253D01*
X114849352Y-79929772D01*
X114632429Y-80147058D01*
X114566819Y-80211726D01*
X114506979Y-80268733D01*
X114456267Y-80315033D01*
X114418046Y-80347584D01*
X114395675Y-80363343D01*
X114392466Y-80364343D01*
X114373626Y-80356469D01*
X114335180Y-80334578D01*
X114281330Y-80301267D01*
X114216276Y-80259131D01*
X114145940Y-80211943D01*
X114074555Y-80163810D01*
X114010908Y-80121928D01*
X113959041Y-80088871D01*
X113922995Y-80067218D01*
X113906867Y-80059543D01*
X113887189Y-80066037D01*
X113849875Y-80083150D01*
X113802621Y-80107326D01*
X113797612Y-80110013D01*
X113733977Y-80141927D01*
X113690341Y-80157579D01*
X113663202Y-80157745D01*
X113649057Y-80143204D01*
X113648975Y-80143000D01*
X113641905Y-80125779D01*
X113625042Y-80084899D01*
X113599695Y-80023525D01*
X113567171Y-79944819D01*
X113528778Y-79851947D01*
X113485822Y-79748072D01*
X113444222Y-79647502D01*
X113398504Y-79536516D01*
X113356526Y-79433703D01*
X113319548Y-79342215D01*
X113288827Y-79265201D01*
X113265622Y-79205815D01*
X113251190Y-79167209D01*
X113246743Y-79152800D01*
X113257896Y-79136272D01*
X113287069Y-79109930D01*
X113325971Y-79080887D01*
X113436757Y-78989039D01*
X113523351Y-78883759D01*
X113584716Y-78767266D01*
X113619815Y-78641776D01*
X113627608Y-78509507D01*
X113621943Y-78448457D01*
X113591078Y-78321795D01*
X113537920Y-78209941D01*
X113465767Y-78114001D01*
X113377917Y-78035076D01*
X113277665Y-77974270D01*
X113168310Y-77932687D01*
X113053147Y-77911428D01*
X112935475Y-77911599D01*
X112818590Y-77934301D01*
X112705789Y-77980638D01*
X112600369Y-78051713D01*
X112556368Y-78091911D01*
X112471979Y-78195129D01*
X112413222Y-78307925D01*
X112379704Y-78427010D01*
X112371035Y-78549095D01*
X112386823Y-78670893D01*
X112426678Y-78789116D01*
X112490207Y-78900475D01*
X112577021Y-79001684D01*
X112674029Y-79080887D01*
X112714437Y-79111162D01*
X112742982Y-79137219D01*
X112753257Y-79152825D01*
X112747877Y-79169843D01*
X112732575Y-79210500D01*
X112708612Y-79271642D01*
X112677244Y-79350119D01*
X112639732Y-79442780D01*
X112597333Y-79546472D01*
X112555663Y-79647526D01*
X112509690Y-79758607D01*
X112467107Y-79861541D01*
X112429221Y-79953165D01*
X112397340Y-80030316D01*
X112372771Y-80089831D01*
X112356820Y-80128544D01*
X112350910Y-80143000D01*
X112336948Y-80157685D01*
X112309940Y-80157642D01*
X112266413Y-80142099D01*
X112202890Y-80110284D01*
X112202388Y-80110013D01*
X112154560Y-80085323D01*
X112115897Y-80067338D01*
X112094095Y-80059614D01*
X112093133Y-80059543D01*
X112076721Y-80067378D01*
X112040487Y-80089165D01*
X111988474Y-80122328D01*
X111924725Y-80164291D01*
X111854060Y-80211943D01*
X111782116Y-80260191D01*
X111717274Y-80302151D01*
X111663735Y-80335227D01*
X111625697Y-80356821D01*
X111607533Y-80364343D01*
X111590808Y-80354457D01*
X111557180Y-80326826D01*
X111510010Y-80284495D01*
X111452658Y-80230505D01*
X111388484Y-80167899D01*
X111367497Y-80146983D01*
X111150499Y-79929623D01*
X111315668Y-79687220D01*
X111365864Y-79612781D01*
X111409919Y-79545972D01*
X111445362Y-79490665D01*
X111469719Y-79450729D01*
X111480522Y-79430036D01*
X111480838Y-79428563D01*
X111475143Y-79409058D01*
X111459826Y-79369822D01*
X111437537Y-79317430D01*
X111421893Y-79282355D01*
X111392641Y-79215201D01*
X111365094Y-79147358D01*
X111343737Y-79090034D01*
X111337935Y-79072572D01*
X111321452Y-79025938D01*
X111305340Y-78989905D01*
X111296490Y-78976287D01*
X111276960Y-78967952D01*
X111234334Y-78956137D01*
X111174145Y-78942181D01*
X111101922Y-78927422D01*
X111069600Y-78921355D01*
X110987522Y-78906273D01*
X110908795Y-78891669D01*
X110841109Y-78878980D01*
X110792160Y-78869642D01*
X110782943Y-78867839D01*
X110706743Y-78852799D01*
X110706743Y-78535492D01*
X110706914Y-78431154D01*
X110707616Y-78352213D01*
X110709134Y-78295038D01*
X110711749Y-78255999D01*
X110715746Y-78231465D01*
X110721409Y-78217805D01*
X110729020Y-78211389D01*
X110732143Y-78210199D01*
X110750978Y-78205980D01*
X110792588Y-78197562D01*
X110851630Y-78185961D01*
X110922757Y-78172195D01*
X111000625Y-78157280D01*
X111079887Y-78142232D01*
X111155198Y-78128069D01*
X111221213Y-78115806D01*
X111272587Y-78106461D01*
X111303975Y-78101050D01*
X111310959Y-78100114D01*
X111317285Y-78087596D01*
X111331290Y-78054246D01*
X111350355Y-78006377D01*
X111357634Y-77987629D01*
X111386996Y-77915195D01*
X111421571Y-77835170D01*
X111452537Y-77767728D01*
X111475323Y-77716159D01*
X111490482Y-77673785D01*
X111495542Y-77647834D01*
X111494736Y-77644356D01*
X111484041Y-77627936D01*
X111459620Y-77591417D01*
X111424095Y-77538687D01*
X111380087Y-77473635D01*
X111330217Y-77400151D01*
X111320356Y-77385645D01*
X111262492Y-77299704D01*
X111219956Y-77234261D01*
X111191054Y-77186304D01*
X111174090Y-77152820D01*
X111167367Y-77130795D01*
X111169190Y-77117217D01*
X111169236Y-77117131D01*
X111183586Y-77099297D01*
X111215323Y-77064817D01*
X111261010Y-77017268D01*
X111317204Y-76960222D01*
X111380468Y-76897255D01*
X111387602Y-76890227D01*
X111467330Y-76813020D01*
X111528857Y-76756330D01*
X111573421Y-76719110D01*
X111602257Y-76700315D01*
X111614958Y-76697889D01*
X111633494Y-76708471D01*
X111671961Y-76732916D01*
X111726386Y-76768612D01*
X111792798Y-76812947D01*
X111867225Y-76863311D01*
X111884601Y-76875160D01*
X112131297Y-77043626D01*
X112242706Y-76993062D01*
X112310457Y-76963595D01*
X112383183Y-76933959D01*
X112445703Y-76910330D01*
X112448457Y-76909358D01*
X112497360Y-76891457D01*
X112535057Y-76876320D01*
X112553425Y-76867210D01*
X112553456Y-76867184D01*
X112559285Y-76850717D01*
X112569192Y-76810219D01*
X112582195Y-76750242D01*
X112597309Y-76675340D01*
X112613552Y-76590064D01*
X112614881Y-76582875D01*
X112631175Y-76495014D01*
X112646133Y-76415260D01*
X112658791Y-76348681D01*
X112668186Y-76300347D01*
X112673354Y-76275325D01*
X112673444Y-76274943D01*
X112676589Y-76264299D01*
X112682704Y-76256262D01*
X112695453Y-76250467D01*
X112718500Y-76246547D01*
X112755509Y-76244135D01*
X112810144Y-76242865D01*
X112886067Y-76242371D01*
X112986944Y-76242286D01*
X113000000Y-76242286D01*
X113103910Y-76242348D01*
G37*
X113103910Y-76242348D02*
X113182454Y-76242778D01*
X113239298Y-76243942D01*
X113278105Y-76246207D01*
X113302538Y-76249940D01*
X113316262Y-76255506D01*
X113322940Y-76263273D01*
X113326236Y-76273605D01*
X113326556Y-76274943D01*
X113331562Y-76299079D01*
X113340829Y-76346701D01*
X113353392Y-76412741D01*
X113368287Y-76492128D01*
X113384551Y-76579796D01*
X113385119Y-76582875D01*
X113401410Y-76668789D01*
X113416652Y-76744696D01*
X113429861Y-76806045D01*
X113440054Y-76848282D01*
X113446248Y-76866855D01*
X113446543Y-76867184D01*
X113464788Y-76876253D01*
X113502405Y-76891367D01*
X113551271Y-76909262D01*
X113551543Y-76909358D01*
X113613093Y-76932493D01*
X113685657Y-76961965D01*
X113754057Y-76991597D01*
X113757294Y-76993062D01*
X113868702Y-77043626D01*
X114115399Y-76875160D01*
X114191077Y-76823803D01*
X114259631Y-76777889D01*
X114317088Y-76740030D01*
X114359476Y-76712837D01*
X114382825Y-76698921D01*
X114385042Y-76697889D01*
X114402010Y-76702484D01*
X114433701Y-76724655D01*
X114481352Y-76765447D01*
X114546198Y-76825905D01*
X114612397Y-76890227D01*
X114676214Y-76953612D01*
X114733329Y-77011451D01*
X114780305Y-77060175D01*
X114813703Y-77096210D01*
X114830085Y-77115984D01*
X114830694Y-77117002D01*
X114832505Y-77130572D01*
X114825683Y-77152733D01*
X114808540Y-77186478D01*
X114779393Y-77234800D01*
X114736555Y-77300692D01*
X114679448Y-77385517D01*
X114628766Y-77460177D01*
X114583461Y-77527140D01*
X114546150Y-77582516D01*
X114519452Y-77622420D01*
X114505985Y-77642962D01*
X114505137Y-77644356D01*
X114506781Y-77664038D01*
X114519245Y-77702293D01*
X114540048Y-77751889D01*
X114547462Y-77767728D01*
X114579814Y-77838290D01*
X114614328Y-77918353D01*
X114642365Y-77987629D01*
X114662568Y-78039045D01*
X114678615Y-78078119D01*
X114687888Y-78098541D01*
X114689041Y-78100114D01*
X114706096Y-78102721D01*
X114746298Y-78109863D01*
X114804302Y-78120523D01*
X114874763Y-78133685D01*
X114952335Y-78148333D01*
X115031672Y-78163449D01*
X115107431Y-78178018D01*
X115174264Y-78191022D01*
X115226828Y-78201445D01*
X115259776Y-78208270D01*
X115267857Y-78210199D01*
X115276205Y-78214962D01*
X115282506Y-78225718D01*
X115287045Y-78246098D01*
X115290104Y-78279734D01*
X115291967Y-78330255D01*
X115292918Y-78401292D01*
X115293240Y-78496476D01*
X115293257Y-78535492D01*
X115293257Y-78852799D01*
X115217057Y-78867839D01*
X115174663Y-78875995D01*
X115111400Y-78887899D01*
X115034962Y-78902116D01*
X114953043Y-78917210D01*
X114930400Y-78921355D01*
X114854806Y-78936053D01*
X114788953Y-78950505D01*
X114738366Y-78963375D01*
X114708574Y-78973322D01*
X114703612Y-78976287D01*
X114691426Y-78997283D01*
X114673953Y-79037967D01*
X114654577Y-79090322D01*
X114650734Y-79101600D01*
X114625339Y-79171523D01*
X114593817Y-79250418D01*
X114562969Y-79321266D01*
X114562817Y-79321595D01*
X114511447Y-79432733D01*
X114680399Y-79681253D01*
X114849352Y-79929772D01*
X114632429Y-80147058D01*
X114566819Y-80211726D01*
X114506979Y-80268733D01*
X114456267Y-80315033D01*
X114418046Y-80347584D01*
X114395675Y-80363343D01*
X114392466Y-80364343D01*
X114373626Y-80356469D01*
X114335180Y-80334578D01*
X114281330Y-80301267D01*
X114216276Y-80259131D01*
X114145940Y-80211943D01*
X114074555Y-80163810D01*
X114010908Y-80121928D01*
X113959041Y-80088871D01*
X113922995Y-80067218D01*
X113906867Y-80059543D01*
X113887189Y-80066037D01*
X113849875Y-80083150D01*
X113802621Y-80107326D01*
X113797612Y-80110013D01*
X113733977Y-80141927D01*
X113690341Y-80157579D01*
X113663202Y-80157745D01*
X113649057Y-80143204D01*
X113648975Y-80143000D01*
X113641905Y-80125779D01*
X113625042Y-80084899D01*
X113599695Y-80023525D01*
X113567171Y-79944819D01*
X113528778Y-79851947D01*
X113485822Y-79748072D01*
X113444222Y-79647502D01*
X113398504Y-79536516D01*
X113356526Y-79433703D01*
X113319548Y-79342215D01*
X113288827Y-79265201D01*
X113265622Y-79205815D01*
X113251190Y-79167209D01*
X113246743Y-79152800D01*
X113257896Y-79136272D01*
X113287069Y-79109930D01*
X113325971Y-79080887D01*
X113436757Y-78989039D01*
X113523351Y-78883759D01*
X113584716Y-78767266D01*
X113619815Y-78641776D01*
X113627608Y-78509507D01*
X113621943Y-78448457D01*
X113591078Y-78321795D01*
X113537920Y-78209941D01*
X113465767Y-78114001D01*
X113377917Y-78035076D01*
X113277665Y-77974270D01*
X113168310Y-77932687D01*
X113053147Y-77911428D01*
X112935475Y-77911599D01*
X112818590Y-77934301D01*
X112705789Y-77980638D01*
X112600369Y-78051713D01*
X112556368Y-78091911D01*
X112471979Y-78195129D01*
X112413222Y-78307925D01*
X112379704Y-78427010D01*
X112371035Y-78549095D01*
X112386823Y-78670893D01*
X112426678Y-78789116D01*
X112490207Y-78900475D01*
X112577021Y-79001684D01*
X112674029Y-79080887D01*
X112714437Y-79111162D01*
X112742982Y-79137219D01*
X112753257Y-79152825D01*
X112747877Y-79169843D01*
X112732575Y-79210500D01*
X112708612Y-79271642D01*
X112677244Y-79350119D01*
X112639732Y-79442780D01*
X112597333Y-79546472D01*
X112555663Y-79647526D01*
X112509690Y-79758607D01*
X112467107Y-79861541D01*
X112429221Y-79953165D01*
X112397340Y-80030316D01*
X112372771Y-80089831D01*
X112356820Y-80128544D01*
X112350910Y-80143000D01*
X112336948Y-80157685D01*
X112309940Y-80157642D01*
X112266413Y-80142099D01*
X112202890Y-80110284D01*
X112202388Y-80110013D01*
X112154560Y-80085323D01*
X112115897Y-80067338D01*
X112094095Y-80059614D01*
X112093133Y-80059543D01*
X112076721Y-80067378D01*
X112040487Y-80089165D01*
X111988474Y-80122328D01*
X111924725Y-80164291D01*
X111854060Y-80211943D01*
X111782116Y-80260191D01*
X111717274Y-80302151D01*
X111663735Y-80335227D01*
X111625697Y-80356821D01*
X111607533Y-80364343D01*
X111590808Y-80354457D01*
X111557180Y-80326826D01*
X111510010Y-80284495D01*
X111452658Y-80230505D01*
X111388484Y-80167899D01*
X111367497Y-80146983D01*
X111150499Y-79929623D01*
X111315668Y-79687220D01*
X111365864Y-79612781D01*
X111409919Y-79545972D01*
X111445362Y-79490665D01*
X111469719Y-79450729D01*
X111480522Y-79430036D01*
X111480838Y-79428563D01*
X111475143Y-79409058D01*
X111459826Y-79369822D01*
X111437537Y-79317430D01*
X111421893Y-79282355D01*
X111392641Y-79215201D01*
X111365094Y-79147358D01*
X111343737Y-79090034D01*
X111337935Y-79072572D01*
X111321452Y-79025938D01*
X111305340Y-78989905D01*
X111296490Y-78976287D01*
X111276960Y-78967952D01*
X111234334Y-78956137D01*
X111174145Y-78942181D01*
X111101922Y-78927422D01*
X111069600Y-78921355D01*
X110987522Y-78906273D01*
X110908795Y-78891669D01*
X110841109Y-78878980D01*
X110792160Y-78869642D01*
X110782943Y-78867839D01*
X110706743Y-78852799D01*
X110706743Y-78535492D01*
X110706914Y-78431154D01*
X110707616Y-78352213D01*
X110709134Y-78295038D01*
X110711749Y-78255999D01*
X110715746Y-78231465D01*
X110721409Y-78217805D01*
X110729020Y-78211389D01*
X110732143Y-78210199D01*
X110750978Y-78205980D01*
X110792588Y-78197562D01*
X110851630Y-78185961D01*
X110922757Y-78172195D01*
X111000625Y-78157280D01*
X111079887Y-78142232D01*
X111155198Y-78128069D01*
X111221213Y-78115806D01*
X111272587Y-78106461D01*
X111303975Y-78101050D01*
X111310959Y-78100114D01*
X111317285Y-78087596D01*
X111331290Y-78054246D01*
X111350355Y-78006377D01*
X111357634Y-77987629D01*
X111386996Y-77915195D01*
X111421571Y-77835170D01*
X111452537Y-77767728D01*
X111475323Y-77716159D01*
X111490482Y-77673785D01*
X111495542Y-77647834D01*
X111494736Y-77644356D01*
X111484041Y-77627936D01*
X111459620Y-77591417D01*
X111424095Y-77538687D01*
X111380087Y-77473635D01*
X111330217Y-77400151D01*
X111320356Y-77385645D01*
X111262492Y-77299704D01*
X111219956Y-77234261D01*
X111191054Y-77186304D01*
X111174090Y-77152820D01*
X111167367Y-77130795D01*
X111169190Y-77117217D01*
X111169236Y-77117131D01*
X111183586Y-77099297D01*
X111215323Y-77064817D01*
X111261010Y-77017268D01*
X111317204Y-76960222D01*
X111380468Y-76897255D01*
X111387602Y-76890227D01*
X111467330Y-76813020D01*
X111528857Y-76756330D01*
X111573421Y-76719110D01*
X111602257Y-76700315D01*
X111614958Y-76697889D01*
X111633494Y-76708471D01*
X111671961Y-76732916D01*
X111726386Y-76768612D01*
X111792798Y-76812947D01*
X111867225Y-76863311D01*
X111884601Y-76875160D01*
X112131297Y-77043626D01*
X112242706Y-76993062D01*
X112310457Y-76963595D01*
X112383183Y-76933959D01*
X112445703Y-76910330D01*
X112448457Y-76909358D01*
X112497360Y-76891457D01*
X112535057Y-76876320D01*
X112553425Y-76867210D01*
X112553456Y-76867184D01*
X112559285Y-76850717D01*
X112569192Y-76810219D01*
X112582195Y-76750242D01*
X112597309Y-76675340D01*
X112613552Y-76590064D01*
X112614881Y-76582875D01*
X112631175Y-76495014D01*
X112646133Y-76415260D01*
X112658791Y-76348681D01*
X112668186Y-76300347D01*
X112673354Y-76275325D01*
X112673444Y-76274943D01*
X112676589Y-76264299D01*
X112682704Y-76256262D01*
X112695453Y-76250467D01*
X112718500Y-76246547D01*
X112755509Y-76244135D01*
X112810144Y-76242865D01*
X112886067Y-76242371D01*
X112986944Y-76242286D01*
X113000000Y-76242286D01*
X113103910Y-76242348D01*
G36*
X116153595Y-80966966D02*
G01*
X116211021Y-81004497D01*
X116238719Y-81038096D01*
X116260662Y-81099064D01*
X116262405Y-81147308D01*
X116258457Y-81211816D01*
X116109686Y-81276934D01*
X116037349Y-81310202D01*
X115990084Y-81336964D01*
X115965507Y-81360144D01*
X115961237Y-81382667D01*
X115974889Y-81407455D01*
X115989943Y-81423886D01*
X116033746Y-81450235D01*
X116081389Y-81452081D01*
X116125145Y-81431546D01*
X116157289Y-81390752D01*
X116163038Y-81376347D01*
X116190576Y-81331356D01*
X116222258Y-81312182D01*
X116265714Y-81295779D01*
X116265714Y-81357966D01*
X116261872Y-81400283D01*
X116246823Y-81435969D01*
X116215280Y-81476943D01*
X116210592Y-81482267D01*
X116175506Y-81518720D01*
X116145347Y-81538283D01*
X116107615Y-81547283D01*
X116076335Y-81550230D01*
X116020385Y-81550965D01*
X115980555Y-81541660D01*
X115955708Y-81527846D01*
X115916656Y-81497467D01*
X115889625Y-81464613D01*
X115872517Y-81423294D01*
X115863238Y-81367521D01*
X115859693Y-81291305D01*
X115859410Y-81252622D01*
X115860372Y-81206247D01*
X115948007Y-81206247D01*
X115949023Y-81231126D01*
X115951556Y-81235200D01*
X115968274Y-81229665D01*
X116004249Y-81215017D01*
X116052331Y-81194190D01*
X116062386Y-81189714D01*
X116123152Y-81158814D01*
X116156632Y-81131657D01*
X116163990Y-81106220D01*
X116146391Y-81080481D01*
X116131856Y-81069109D01*
X116079410Y-81046364D01*
X116030322Y-81050122D01*
X115989227Y-81077884D01*
X115960758Y-81127152D01*
X115951631Y-81166257D01*
X115948007Y-81206247D01*
X115860372Y-81206247D01*
X115861285Y-81162249D01*
X115868196Y-81095384D01*
X115881884Y-81046695D01*
X115904096Y-81010849D01*
X115936574Y-80982513D01*
X115950733Y-80973355D01*
X116015053Y-80949507D01*
X116085473Y-80948006D01*
X116153595Y-80966966D01*
G37*
X116153595Y-80966966D02*
X116211021Y-81004497D01*
X116238719Y-81038096D01*
X116260662Y-81099064D01*
X116262405Y-81147308D01*
X116258457Y-81211816D01*
X116109686Y-81276934D01*
X116037349Y-81310202D01*
X115990084Y-81336964D01*
X115965507Y-81360144D01*
X115961237Y-81382667D01*
X115974889Y-81407455D01*
X115989943Y-81423886D01*
X116033746Y-81450235D01*
X116081389Y-81452081D01*
X116125145Y-81431546D01*
X116157289Y-81390752D01*
X116163038Y-81376347D01*
X116190576Y-81331356D01*
X116222258Y-81312182D01*
X116265714Y-81295779D01*
X116265714Y-81357966D01*
X116261872Y-81400283D01*
X116246823Y-81435969D01*
X116215280Y-81476943D01*
X116210592Y-81482267D01*
X116175506Y-81518720D01*
X116145347Y-81538283D01*
X116107615Y-81547283D01*
X116076335Y-81550230D01*
X116020385Y-81550965D01*
X115980555Y-81541660D01*
X115955708Y-81527846D01*
X115916656Y-81497467D01*
X115889625Y-81464613D01*
X115872517Y-81423294D01*
X115863238Y-81367521D01*
X115859693Y-81291305D01*
X115859410Y-81252622D01*
X115860372Y-81206247D01*
X115948007Y-81206247D01*
X115949023Y-81231126D01*
X115951556Y-81235200D01*
X115968274Y-81229665D01*
X116004249Y-81215017D01*
X116052331Y-81194190D01*
X116062386Y-81189714D01*
X116123152Y-81158814D01*
X116156632Y-81131657D01*
X116163990Y-81106220D01*
X116146391Y-81080481D01*
X116131856Y-81069109D01*
X116079410Y-81046364D01*
X116030322Y-81050122D01*
X115989227Y-81077884D01*
X115960758Y-81127152D01*
X115951631Y-81166257D01*
X115948007Y-81206247D01*
X115860372Y-81206247D01*
X115861285Y-81162249D01*
X115868196Y-81095384D01*
X115881884Y-81046695D01*
X115904096Y-81010849D01*
X115936574Y-80982513D01*
X115950733Y-80973355D01*
X116015053Y-80949507D01*
X116085473Y-80948006D01*
X116153595Y-80966966D01*
G36*
X115652600Y-80958752D02*
G01*
X115669948Y-80966334D01*
X115711356Y-80999128D01*
X115746765Y-81046547D01*
X115768664Y-81097151D01*
X115772229Y-81122098D01*
X115760279Y-81156927D01*
X115734067Y-81175357D01*
X115705964Y-81186516D01*
X115693095Y-81188572D01*
X115686829Y-81173649D01*
X115674456Y-81141175D01*
X115669028Y-81126502D01*
X115638590Y-81075744D01*
X115594520Y-81050427D01*
X115538010Y-81051206D01*
X115533825Y-81052203D01*
X115503655Y-81066507D01*
X115481476Y-81094393D01*
X115466327Y-81139287D01*
X115457250Y-81204615D01*
X115453286Y-81293804D01*
X115452914Y-81341261D01*
X115452730Y-81416071D01*
X115451522Y-81467069D01*
X115448309Y-81499471D01*
X115442109Y-81518495D01*
X115431940Y-81529356D01*
X115416819Y-81537272D01*
X115415946Y-81537670D01*
X115386828Y-81549981D01*
X115372403Y-81554514D01*
X115370186Y-81540809D01*
X115368289Y-81502925D01*
X115366847Y-81445715D01*
X115365998Y-81374027D01*
X115365829Y-81321565D01*
X115366692Y-81220047D01*
X115370070Y-81143032D01*
X115377142Y-81086023D01*
X115389088Y-81044526D01*
X115407090Y-81014043D01*
X115432327Y-80990080D01*
X115457247Y-80973355D01*
X115517171Y-80951097D01*
X115586911Y-80946076D01*
X115652600Y-80958752D01*
G37*
X115652600Y-80958752D02*
X115669948Y-80966334D01*
X115711356Y-80999128D01*
X115746765Y-81046547D01*
X115768664Y-81097151D01*
X115772229Y-81122098D01*
X115760279Y-81156927D01*
X115734067Y-81175357D01*
X115705964Y-81186516D01*
X115693095Y-81188572D01*
X115686829Y-81173649D01*
X115674456Y-81141175D01*
X115669028Y-81126502D01*
X115638590Y-81075744D01*
X115594520Y-81050427D01*
X115538010Y-81051206D01*
X115533825Y-81052203D01*
X115503655Y-81066507D01*
X115481476Y-81094393D01*
X115466327Y-81139287D01*
X115457250Y-81204615D01*
X115453286Y-81293804D01*
X115452914Y-81341261D01*
X115452730Y-81416071D01*
X115451522Y-81467069D01*
X115448309Y-81499471D01*
X115442109Y-81518495D01*
X115431940Y-81529356D01*
X115416819Y-81537272D01*
X115415946Y-81537670D01*
X115386828Y-81549981D01*
X115372403Y-81554514D01*
X115370186Y-81540809D01*
X115368289Y-81502925D01*
X115366847Y-81445715D01*
X115365998Y-81374027D01*
X115365829Y-81321565D01*
X115366692Y-81220047D01*
X115370070Y-81143032D01*
X115377142Y-81086023D01*
X115389088Y-81044526D01*
X115407090Y-81014043D01*
X115432327Y-80990080D01*
X115457247Y-80973355D01*
X115517171Y-80951097D01*
X115586911Y-80946076D01*
X115652600Y-80958752D01*
G36*
X115144876Y-80956335D02*
G01*
X115186667Y-80975344D01*
X115219469Y-80998378D01*
X115243503Y-81024133D01*
X115260097Y-81057358D01*
X115270577Y-81102800D01*
X115276271Y-81165207D01*
X115278507Y-81249327D01*
X115278743Y-81304721D01*
X115278743Y-81520826D01*
X115241774Y-81537670D01*
X115212656Y-81549981D01*
X115198231Y-81554514D01*
X115195472Y-81541025D01*
X115193282Y-81504653D01*
X115191942Y-81451542D01*
X115191657Y-81409372D01*
X115190434Y-81348447D01*
X115187136Y-81300115D01*
X115182321Y-81270518D01*
X115178496Y-81264229D01*
X115152783Y-81270652D01*
X115112418Y-81287125D01*
X115065679Y-81309458D01*
X115020845Y-81333457D01*
X114986193Y-81354930D01*
X114970002Y-81369685D01*
X114969938Y-81369845D01*
X114971330Y-81397152D01*
X114983818Y-81423219D01*
X115005743Y-81444392D01*
X115037743Y-81451474D01*
X115065092Y-81450649D01*
X115103826Y-81450042D01*
X115124158Y-81459116D01*
X115136369Y-81483092D01*
X115137909Y-81487613D01*
X115143203Y-81521806D01*
X115129047Y-81542568D01*
X115092148Y-81552462D01*
X115052289Y-81554292D01*
X114980562Y-81540727D01*
X114943432Y-81521355D01*
X114897576Y-81475845D01*
X114873256Y-81419983D01*
X114871073Y-81360957D01*
X114891629Y-81305953D01*
X114922549Y-81271486D01*
X114953420Y-81252189D01*
X115001942Y-81227759D01*
X115058485Y-81202985D01*
X115067910Y-81199199D01*
X115130019Y-81171791D01*
X115165822Y-81147634D01*
X115177337Y-81123619D01*
X115166580Y-81096635D01*
X115148114Y-81075543D01*
X115104469Y-81049572D01*
X115056446Y-81047624D01*
X115012406Y-81067637D01*
X114980709Y-81107551D01*
X114976549Y-81117848D01*
X114952327Y-81155724D01*
X114916965Y-81183842D01*
X114872343Y-81206917D01*
X114872343Y-81141485D01*
X114874969Y-81101506D01*
X114886230Y-81069997D01*
X114911199Y-81036378D01*
X114935169Y-81010484D01*
X114972441Y-80973817D01*
X115001401Y-80954121D01*
X115032505Y-80946220D01*
X115067713Y-80944914D01*
X115144876Y-80956335D01*
G37*
X115144876Y-80956335D02*
X115186667Y-80975344D01*
X115219469Y-80998378D01*
X115243503Y-81024133D01*
X115260097Y-81057358D01*
X115270577Y-81102800D01*
X115276271Y-81165207D01*
X115278507Y-81249327D01*
X115278743Y-81304721D01*
X115278743Y-81520826D01*
X115241774Y-81537670D01*
X115212656Y-81549981D01*
X115198231Y-81554514D01*
X115195472Y-81541025D01*
X115193282Y-81504653D01*
X115191942Y-81451542D01*
X115191657Y-81409372D01*
X115190434Y-81348447D01*
X115187136Y-81300115D01*
X115182321Y-81270518D01*
X115178496Y-81264229D01*
X115152783Y-81270652D01*
X115112418Y-81287125D01*
X115065679Y-81309458D01*
X115020845Y-81333457D01*
X114986193Y-81354930D01*
X114970002Y-81369685D01*
X114969938Y-81369845D01*
X114971330Y-81397152D01*
X114983818Y-81423219D01*
X115005743Y-81444392D01*
X115037743Y-81451474D01*
X115065092Y-81450649D01*
X115103826Y-81450042D01*
X115124158Y-81459116D01*
X115136369Y-81483092D01*
X115137909Y-81487613D01*
X115143203Y-81521806D01*
X115129047Y-81542568D01*
X115092148Y-81552462D01*
X115052289Y-81554292D01*
X114980562Y-81540727D01*
X114943432Y-81521355D01*
X114897576Y-81475845D01*
X114873256Y-81419983D01*
X114871073Y-81360957D01*
X114891629Y-81305953D01*
X114922549Y-81271486D01*
X114953420Y-81252189D01*
X115001942Y-81227759D01*
X115058485Y-81202985D01*
X115067910Y-81199199D01*
X115130019Y-81171791D01*
X115165822Y-81147634D01*
X115177337Y-81123619D01*
X115166580Y-81096635D01*
X115148114Y-81075543D01*
X115104469Y-81049572D01*
X115056446Y-81047624D01*
X115012406Y-81067637D01*
X114980709Y-81107551D01*
X114976549Y-81117848D01*
X114952327Y-81155724D01*
X114916965Y-81183842D01*
X114872343Y-81206917D01*
X114872343Y-81141485D01*
X114874969Y-81101506D01*
X114886230Y-81069997D01*
X114911199Y-81036378D01*
X114935169Y-81010484D01*
X114972441Y-80973817D01*
X115001401Y-80954121D01*
X115032505Y-80946220D01*
X115067713Y-80944914D01*
X115144876Y-80956335D01*
G36*
X114779833Y-80958663D02*
G01*
X114782048Y-80996850D01*
X114783784Y-81054886D01*
X114784899Y-81128180D01*
X114785257Y-81205055D01*
X114785257Y-81465196D01*
X114739326Y-81511127D01*
X114707675Y-81539429D01*
X114679890Y-81550893D01*
X114641915Y-81550168D01*
X114626840Y-81548321D01*
X114579726Y-81542948D01*
X114540756Y-81539869D01*
X114531257Y-81539585D01*
X114499233Y-81541445D01*
X114453432Y-81546114D01*
X114435674Y-81548321D01*
X114392057Y-81551735D01*
X114362745Y-81544320D01*
X114333680Y-81521427D01*
X114323188Y-81511127D01*
X114277257Y-81465196D01*
X114277257Y-80978602D01*
X114314226Y-80961758D01*
X114346059Y-80949282D01*
X114364683Y-80944914D01*
X114369458Y-80958718D01*
X114373921Y-80997286D01*
X114377775Y-81056356D01*
X114380722Y-81131663D01*
X114382143Y-81195286D01*
X114386114Y-81445657D01*
X114420759Y-81450556D01*
X114452268Y-81447131D01*
X114467708Y-81436041D01*
X114472023Y-81415308D01*
X114475708Y-81371145D01*
X114478469Y-81309146D01*
X114480012Y-81234909D01*
X114480235Y-81196706D01*
X114480457Y-80976783D01*
X114526166Y-80960849D01*
X114558518Y-80950015D01*
X114576115Y-80944962D01*
X114576623Y-80944914D01*
X114578388Y-80958648D01*
X114580329Y-80996730D01*
X114582282Y-81054482D01*
X114584084Y-81127227D01*
X114585343Y-81195286D01*
X114589314Y-81445657D01*
X114676400Y-81445657D01*
X114680396Y-81217240D01*
X114684392Y-80988822D01*
X114726847Y-80966868D01*
X114758192Y-80951793D01*
X114776744Y-80944951D01*
X114777279Y-80944914D01*
X114779833Y-80958663D01*
G37*
X114779833Y-80958663D02*
X114782048Y-80996850D01*
X114783784Y-81054886D01*
X114784899Y-81128180D01*
X114785257Y-81205055D01*
X114785257Y-81465196D01*
X114739326Y-81511127D01*
X114707675Y-81539429D01*
X114679890Y-81550893D01*
X114641915Y-81550168D01*
X114626840Y-81548321D01*
X114579726Y-81542948D01*
X114540756Y-81539869D01*
X114531257Y-81539585D01*
X114499233Y-81541445D01*
X114453432Y-81546114D01*
X114435674Y-81548321D01*
X114392057Y-81551735D01*
X114362745Y-81544320D01*
X114333680Y-81521427D01*
X114323188Y-81511127D01*
X114277257Y-81465196D01*
X114277257Y-80978602D01*
X114314226Y-80961758D01*
X114346059Y-80949282D01*
X114364683Y-80944914D01*
X114369458Y-80958718D01*
X114373921Y-80997286D01*
X114377775Y-81056356D01*
X114380722Y-81131663D01*
X114382143Y-81195286D01*
X114386114Y-81445657D01*
X114420759Y-81450556D01*
X114452268Y-81447131D01*
X114467708Y-81436041D01*
X114472023Y-81415308D01*
X114475708Y-81371145D01*
X114478469Y-81309146D01*
X114480012Y-81234909D01*
X114480235Y-81196706D01*
X114480457Y-80976783D01*
X114526166Y-80960849D01*
X114558518Y-80950015D01*
X114576115Y-80944962D01*
X114576623Y-80944914D01*
X114578388Y-80958648D01*
X114580329Y-80996730D01*
X114582282Y-81054482D01*
X114584084Y-81127227D01*
X114585343Y-81195286D01*
X114589314Y-81445657D01*
X114676400Y-81445657D01*
X114680396Y-81217240D01*
X114684392Y-80988822D01*
X114726847Y-80966868D01*
X114758192Y-80951793D01*
X114776744Y-80944951D01*
X114777279Y-80944914D01*
X114779833Y-80958663D01*
G36*
X114190117Y-81065358D02*
G01*
X114189933Y-81173837D01*
X114189219Y-81257287D01*
X114187675Y-81319704D01*
X114185001Y-81365085D01*
X114180894Y-81397429D01*
X114175055Y-81420733D01*
X114167182Y-81438995D01*
X114161221Y-81449418D01*
X114111855Y-81505945D01*
X114049264Y-81541377D01*
X113980013Y-81554090D01*
X113910668Y-81542463D01*
X113869375Y-81521568D01*
X113826025Y-81485422D01*
X113796481Y-81441276D01*
X113778655Y-81383462D01*
X113770463Y-81306313D01*
X113769302Y-81249714D01*
X113769458Y-81245647D01*
X113870857Y-81245647D01*
X113871476Y-81310550D01*
X113874314Y-81353514D01*
X113880840Y-81381622D01*
X113892523Y-81401953D01*
X113906483Y-81417288D01*
X113953365Y-81446890D01*
X114003701Y-81449419D01*
X114051276Y-81424705D01*
X114054979Y-81421356D01*
X114070783Y-81403935D01*
X114080693Y-81383209D01*
X114086058Y-81352362D01*
X114088228Y-81304577D01*
X114088571Y-81251748D01*
X114087827Y-81185381D01*
X114084748Y-81141106D01*
X114078061Y-81112009D01*
X114066496Y-81091173D01*
X114057013Y-81080107D01*
X114012960Y-81052198D01*
X113962224Y-81048843D01*
X113913796Y-81070159D01*
X113904450Y-81078073D01*
X113888540Y-81095647D01*
X113878610Y-81116587D01*
X113873278Y-81147782D01*
X113871163Y-81196122D01*
X113870857Y-81245647D01*
X113769458Y-81245647D01*
X113772810Y-81158568D01*
X113784726Y-81090086D01*
X113807135Y-81038600D01*
X113842124Y-80998443D01*
X113869375Y-80977861D01*
X113918907Y-80955625D01*
X113976316Y-80945304D01*
X114029682Y-80948067D01*
X114059543Y-80959212D01*
X114071261Y-80962383D01*
X114079037Y-80950557D01*
X114084465Y-80918866D01*
X114088571Y-80870593D01*
X114093067Y-80816829D01*
X114099313Y-80784482D01*
X114110676Y-80765985D01*
X114130528Y-80753770D01*
X114143000Y-80748362D01*
X114190171Y-80728601D01*
X114190117Y-81065358D01*
G37*
X114190117Y-81065358D02*
X114189933Y-81173837D01*
X114189219Y-81257287D01*
X114187675Y-81319704D01*
X114185001Y-81365085D01*
X114180894Y-81397429D01*
X114175055Y-81420733D01*
X114167182Y-81438995D01*
X114161221Y-81449418D01*
X114111855Y-81505945D01*
X114049264Y-81541377D01*
X113980013Y-81554090D01*
X113910668Y-81542463D01*
X113869375Y-81521568D01*
X113826025Y-81485422D01*
X113796481Y-81441276D01*
X113778655Y-81383462D01*
X113770463Y-81306313D01*
X113769302Y-81249714D01*
X113769458Y-81245647D01*
X113870857Y-81245647D01*
X113871476Y-81310550D01*
X113874314Y-81353514D01*
X113880840Y-81381622D01*
X113892523Y-81401953D01*
X113906483Y-81417288D01*
X113953365Y-81446890D01*
X114003701Y-81449419D01*
X114051276Y-81424705D01*
X114054979Y-81421356D01*
X114070783Y-81403935D01*
X114080693Y-81383209D01*
X114086058Y-81352362D01*
X114088228Y-81304577D01*
X114088571Y-81251748D01*
X114087827Y-81185381D01*
X114084748Y-81141106D01*
X114078061Y-81112009D01*
X114066496Y-81091173D01*
X114057013Y-81080107D01*
X114012960Y-81052198D01*
X113962224Y-81048843D01*
X113913796Y-81070159D01*
X113904450Y-81078073D01*
X113888540Y-81095647D01*
X113878610Y-81116587D01*
X113873278Y-81147782D01*
X113871163Y-81196122D01*
X113870857Y-81245647D01*
X113769458Y-81245647D01*
X113772810Y-81158568D01*
X113784726Y-81090086D01*
X113807135Y-81038600D01*
X113842124Y-80998443D01*
X113869375Y-80977861D01*
X113918907Y-80955625D01*
X113976316Y-80945304D01*
X114029682Y-80948067D01*
X114059543Y-80959212D01*
X114071261Y-80962383D01*
X114079037Y-80950557D01*
X114084465Y-80918866D01*
X114088571Y-80870593D01*
X114093067Y-80816829D01*
X114099313Y-80784482D01*
X114110676Y-80765985D01*
X114130528Y-80753770D01*
X114143000Y-80748362D01*
X114190171Y-80728601D01*
X114190117Y-81065358D01*
G36*
X113529926Y-80949755D02*
G01*
X113595858Y-80974084D01*
X113649273Y-81017117D01*
X113670164Y-81047409D01*
X113692939Y-81102994D01*
X113692466Y-81143186D01*
X113668562Y-81170217D01*
X113659717Y-81174813D01*
X113621530Y-81189144D01*
X113602028Y-81185472D01*
X113595422Y-81161407D01*
X113595086Y-81148114D01*
X113582992Y-81099210D01*
X113551471Y-81064999D01*
X113507659Y-81048476D01*
X113458695Y-81052634D01*
X113418894Y-81074227D01*
X113405450Y-81086544D01*
X113395921Y-81101487D01*
X113389485Y-81124075D01*
X113385317Y-81159328D01*
X113382597Y-81212266D01*
X113380502Y-81287907D01*
X113379960Y-81311857D01*
X113377981Y-81393790D01*
X113375731Y-81451455D01*
X113372357Y-81489608D01*
X113367006Y-81513004D01*
X113358824Y-81526398D01*
X113346959Y-81534545D01*
X113339362Y-81538144D01*
X113307102Y-81550452D01*
X113288111Y-81554514D01*
X113281836Y-81540948D01*
X113278006Y-81499934D01*
X113276600Y-81430999D01*
X113277598Y-81333669D01*
X113277908Y-81318657D01*
X113280101Y-81229859D01*
X113282693Y-81165019D01*
X113286382Y-81119067D01*
X113291864Y-81086935D01*
X113299835Y-81063553D01*
X113310993Y-81043852D01*
X113316830Y-81035410D01*
X113350296Y-80998057D01*
X113387727Y-80969003D01*
X113392309Y-80966467D01*
X113459426Y-80946443D01*
X113529926Y-80949755D01*
G37*
X113529926Y-80949755D02*
X113595858Y-80974084D01*
X113649273Y-81017117D01*
X113670164Y-81047409D01*
X113692939Y-81102994D01*
X113692466Y-81143186D01*
X113668562Y-81170217D01*
X113659717Y-81174813D01*
X113621530Y-81189144D01*
X113602028Y-81185472D01*
X113595422Y-81161407D01*
X113595086Y-81148114D01*
X113582992Y-81099210D01*
X113551471Y-81064999D01*
X113507659Y-81048476D01*
X113458695Y-81052634D01*
X113418894Y-81074227D01*
X113405450Y-81086544D01*
X113395921Y-81101487D01*
X113389485Y-81124075D01*
X113385317Y-81159328D01*
X113382597Y-81212266D01*
X113380502Y-81287907D01*
X113379960Y-81311857D01*
X113377981Y-81393790D01*
X113375731Y-81451455D01*
X113372357Y-81489608D01*
X113367006Y-81513004D01*
X113358824Y-81526398D01*
X113346959Y-81534545D01*
X113339362Y-81538144D01*
X113307102Y-81550452D01*
X113288111Y-81554514D01*
X113281836Y-81540948D01*
X113278006Y-81499934D01*
X113276600Y-81430999D01*
X113277598Y-81333669D01*
X113277908Y-81318657D01*
X113280101Y-81229859D01*
X113282693Y-81165019D01*
X113286382Y-81119067D01*
X113291864Y-81086935D01*
X113299835Y-81063553D01*
X113310993Y-81043852D01*
X113316830Y-81035410D01*
X113350296Y-80998057D01*
X113387727Y-80969003D01*
X113392309Y-80966467D01*
X113459426Y-80946443D01*
X113529926Y-80949755D01*
G36*
X113039744Y-80950968D02*
G01*
X113096616Y-80972087D01*
X113097267Y-80972493D01*
X113132440Y-80998380D01*
X113158407Y-81028633D01*
X113176670Y-81068058D01*
X113188732Y-81121462D01*
X113196096Y-81193651D01*
X113200264Y-81289432D01*
X113200629Y-81303078D01*
X113205876Y-81508842D01*
X113161716Y-81531678D01*
X113129763Y-81547110D01*
X113110470Y-81554423D01*
X113109578Y-81554514D01*
X113106239Y-81541022D01*
X113103587Y-81504626D01*
X113101956Y-81451452D01*
X113101600Y-81408393D01*
X113101592Y-81338641D01*
X113098403Y-81294837D01*
X113087288Y-81273944D01*
X113063501Y-81272925D01*
X113022296Y-81288741D01*
X112960086Y-81317815D01*
X112914341Y-81341963D01*
X112890813Y-81362913D01*
X112883896Y-81385747D01*
X112883886Y-81386877D01*
X112895299Y-81426212D01*
X112929092Y-81447462D01*
X112980809Y-81450539D01*
X113018061Y-81450006D01*
X113037703Y-81460735D01*
X113049952Y-81486505D01*
X113057002Y-81519337D01*
X113046842Y-81537966D01*
X113043017Y-81540632D01*
X113007001Y-81551340D01*
X112956566Y-81552856D01*
X112904626Y-81545759D01*
X112867822Y-81532788D01*
X112816938Y-81489585D01*
X112788014Y-81429446D01*
X112782286Y-81382462D01*
X112786657Y-81340082D01*
X112802475Y-81305488D01*
X112833797Y-81274763D01*
X112884678Y-81243990D01*
X112959176Y-81209252D01*
X112963714Y-81207288D01*
X113030821Y-81176287D01*
X113072232Y-81150862D01*
X113089981Y-81128014D01*
X113086107Y-81104745D01*
X113062643Y-81078056D01*
X113055627Y-81071914D01*
X113008630Y-81048100D01*
X112959933Y-81049103D01*
X112917522Y-81072451D01*
X112889384Y-81115675D01*
X112886769Y-81124160D01*
X112861308Y-81165308D01*
X112829001Y-81185128D01*
X112782286Y-81204770D01*
X112782286Y-81153950D01*
X112796496Y-81080082D01*
X112838675Y-81012327D01*
X112860624Y-80989661D01*
X112910517Y-80960569D01*
X112973967Y-80947400D01*
X113039744Y-80950968D01*
G37*
X113039744Y-80950968D02*
X113096616Y-80972087D01*
X113097267Y-80972493D01*
X113132440Y-80998380D01*
X113158407Y-81028633D01*
X113176670Y-81068058D01*
X113188732Y-81121462D01*
X113196096Y-81193651D01*
X113200264Y-81289432D01*
X113200629Y-81303078D01*
X113205876Y-81508842D01*
X113161716Y-81531678D01*
X113129763Y-81547110D01*
X113110470Y-81554423D01*
X113109578Y-81554514D01*
X113106239Y-81541022D01*
X113103587Y-81504626D01*
X113101956Y-81451452D01*
X113101600Y-81408393D01*
X113101592Y-81338641D01*
X113098403Y-81294837D01*
X113087288Y-81273944D01*
X113063501Y-81272925D01*
X113022296Y-81288741D01*
X112960086Y-81317815D01*
X112914341Y-81341963D01*
X112890813Y-81362913D01*
X112883896Y-81385747D01*
X112883886Y-81386877D01*
X112895299Y-81426212D01*
X112929092Y-81447462D01*
X112980809Y-81450539D01*
X113018061Y-81450006D01*
X113037703Y-81460735D01*
X113049952Y-81486505D01*
X113057002Y-81519337D01*
X113046842Y-81537966D01*
X113043017Y-81540632D01*
X113007001Y-81551340D01*
X112956566Y-81552856D01*
X112904626Y-81545759D01*
X112867822Y-81532788D01*
X112816938Y-81489585D01*
X112788014Y-81429446D01*
X112782286Y-81382462D01*
X112786657Y-81340082D01*
X112802475Y-81305488D01*
X112833797Y-81274763D01*
X112884678Y-81243990D01*
X112959176Y-81209252D01*
X112963714Y-81207288D01*
X113030821Y-81176287D01*
X113072232Y-81150862D01*
X113089981Y-81128014D01*
X113086107Y-81104745D01*
X113062643Y-81078056D01*
X113055627Y-81071914D01*
X113008630Y-81048100D01*
X112959933Y-81049103D01*
X112917522Y-81072451D01*
X112889384Y-81115675D01*
X112886769Y-81124160D01*
X112861308Y-81165308D01*
X112829001Y-81185128D01*
X112782286Y-81204770D01*
X112782286Y-81153950D01*
X112796496Y-81080082D01*
X112838675Y-81012327D01*
X112860624Y-80989661D01*
X112910517Y-80960569D01*
X112973967Y-80947400D01*
X113039744Y-80950968D01*
G36*
X112375886Y-80851289D02*
G01*
X112380139Y-80910613D01*
X112385025Y-80945572D01*
X112391795Y-80960820D01*
X112401702Y-80961015D01*
X112404914Y-80959195D01*
X112447644Y-80946015D01*
X112503227Y-80946785D01*
X112559737Y-80960333D01*
X112595082Y-80977861D01*
X112631321Y-81005861D01*
X112657813Y-81037549D01*
X112675999Y-81077813D01*
X112687322Y-81131543D01*
X112693222Y-81203626D01*
X112695143Y-81298951D01*
X112695177Y-81317237D01*
X112695200Y-81522646D01*
X112649491Y-81538580D01*
X112617027Y-81549420D01*
X112599215Y-81554468D01*
X112598691Y-81554514D01*
X112596937Y-81540828D01*
X112595444Y-81503076D01*
X112594326Y-81446224D01*
X112593697Y-81375234D01*
X112593600Y-81332073D01*
X112593398Y-81246973D01*
X112592358Y-81185981D01*
X112589831Y-81144177D01*
X112585164Y-81116642D01*
X112577707Y-81098456D01*
X112566811Y-81084698D01*
X112560007Y-81078073D01*
X112513272Y-81051375D01*
X112462272Y-81049375D01*
X112416001Y-81071955D01*
X112407444Y-81080107D01*
X112394893Y-81095436D01*
X112386188Y-81113618D01*
X112380631Y-81139909D01*
X112377526Y-81179562D01*
X112376176Y-81237832D01*
X112375886Y-81318173D01*
X112375886Y-81522646D01*
X112330177Y-81538580D01*
X112297713Y-81549420D01*
X112279901Y-81554468D01*
X112279377Y-81554514D01*
X112278037Y-81540623D01*
X112276828Y-81501439D01*
X112275801Y-81440700D01*
X112275002Y-81362141D01*
X112274481Y-81269498D01*
X112274286Y-81166509D01*
X112274286Y-80769342D01*
X112321457Y-80749444D01*
X112368629Y-80729547D01*
X112375886Y-80851289D01*
G37*
X112375886Y-80851289D02*
X112380139Y-80910613D01*
X112385025Y-80945572D01*
X112391795Y-80960820D01*
X112401702Y-80961015D01*
X112404914Y-80959195D01*
X112447644Y-80946015D01*
X112503227Y-80946785D01*
X112559737Y-80960333D01*
X112595082Y-80977861D01*
X112631321Y-81005861D01*
X112657813Y-81037549D01*
X112675999Y-81077813D01*
X112687322Y-81131543D01*
X112693222Y-81203626D01*
X112695143Y-81298951D01*
X112695177Y-81317237D01*
X112695200Y-81522646D01*
X112649491Y-81538580D01*
X112617027Y-81549420D01*
X112599215Y-81554468D01*
X112598691Y-81554514D01*
X112596937Y-81540828D01*
X112595444Y-81503076D01*
X112594326Y-81446224D01*
X112593697Y-81375234D01*
X112593600Y-81332073D01*
X112593398Y-81246973D01*
X112592358Y-81185981D01*
X112589831Y-81144177D01*
X112585164Y-81116642D01*
X112577707Y-81098456D01*
X112566811Y-81084698D01*
X112560007Y-81078073D01*
X112513272Y-81051375D01*
X112462272Y-81049375D01*
X112416001Y-81071955D01*
X112407444Y-81080107D01*
X112394893Y-81095436D01*
X112386188Y-81113618D01*
X112380631Y-81139909D01*
X112377526Y-81179562D01*
X112376176Y-81237832D01*
X112375886Y-81318173D01*
X112375886Y-81522646D01*
X112330177Y-81538580D01*
X112297713Y-81549420D01*
X112279901Y-81554468D01*
X112279377Y-81554514D01*
X112278037Y-81540623D01*
X112276828Y-81501439D01*
X112275801Y-81440700D01*
X112275002Y-81362141D01*
X112274481Y-81269498D01*
X112274286Y-81166509D01*
X112274286Y-80769342D01*
X112321457Y-80749444D01*
X112368629Y-80729547D01*
X112375886Y-80851289D01*
G36*
X111168303Y-80931239D02*
G01*
X111225527Y-80969735D01*
X111269749Y-81025335D01*
X111296167Y-81096086D01*
X111301510Y-81148162D01*
X111300903Y-81169893D01*
X111295822Y-81186531D01*
X111281855Y-81201437D01*
X111254589Y-81217973D01*
X111209612Y-81239498D01*
X111142511Y-81269374D01*
X111142171Y-81269524D01*
X111080407Y-81297813D01*
X111029759Y-81322933D01*
X110995404Y-81342179D01*
X110982518Y-81352848D01*
X110982514Y-81352934D01*
X110993872Y-81376166D01*
X111020431Y-81401774D01*
X111050923Y-81420221D01*
X111066370Y-81423886D01*
X111108515Y-81411212D01*
X111144808Y-81379471D01*
X111162517Y-81344572D01*
X111179552Y-81318845D01*
X111212922Y-81289546D01*
X111252149Y-81264235D01*
X111286756Y-81250471D01*
X111293993Y-81249714D01*
X111302139Y-81262160D01*
X111302630Y-81293972D01*
X111296643Y-81336866D01*
X111285357Y-81382558D01*
X111269950Y-81422761D01*
X111269171Y-81424322D01*
X111222804Y-81489062D01*
X111162711Y-81533097D01*
X111094465Y-81554711D01*
X111023638Y-81552185D01*
X110955804Y-81523804D01*
X110952788Y-81521808D01*
X110899427Y-81473448D01*
X110864340Y-81410352D01*
X110844922Y-81327387D01*
X110842316Y-81304078D01*
X110837701Y-81194055D01*
X110843233Y-81142748D01*
X110982514Y-81142748D01*
X110984324Y-81174753D01*
X110994222Y-81184093D01*
X111018898Y-81177105D01*
X111057795Y-81160587D01*
X111101275Y-81139881D01*
X111102356Y-81139333D01*
X111139209Y-81119949D01*
X111154000Y-81107013D01*
X111150353Y-81093451D01*
X111134995Y-81075632D01*
X111095923Y-81049845D01*
X111053846Y-81047950D01*
X111016103Y-81066717D01*
X110990034Y-81102915D01*
X110982514Y-81142748D01*
X110843233Y-81142748D01*
X110847194Y-81106027D01*
X110871550Y-81036212D01*
X110905456Y-80987302D01*
X110966653Y-80937878D01*
X111034063Y-80913359D01*
X111102880Y-80911797D01*
X111168303Y-80931239D01*
G37*
X111168303Y-80931239D02*
X111225527Y-80969735D01*
X111269749Y-81025335D01*
X111296167Y-81096086D01*
X111301510Y-81148162D01*
X111300903Y-81169893D01*
X111295822Y-81186531D01*
X111281855Y-81201437D01*
X111254589Y-81217973D01*
X111209612Y-81239498D01*
X111142511Y-81269374D01*
X111142171Y-81269524D01*
X111080407Y-81297813D01*
X111029759Y-81322933D01*
X110995404Y-81342179D01*
X110982518Y-81352848D01*
X110982514Y-81352934D01*
X110993872Y-81376166D01*
X111020431Y-81401774D01*
X111050923Y-81420221D01*
X111066370Y-81423886D01*
X111108515Y-81411212D01*
X111144808Y-81379471D01*
X111162517Y-81344572D01*
X111179552Y-81318845D01*
X111212922Y-81289546D01*
X111252149Y-81264235D01*
X111286756Y-81250471D01*
X111293993Y-81249714D01*
X111302139Y-81262160D01*
X111302630Y-81293972D01*
X111296643Y-81336866D01*
X111285357Y-81382558D01*
X111269950Y-81422761D01*
X111269171Y-81424322D01*
X111222804Y-81489062D01*
X111162711Y-81533097D01*
X111094465Y-81554711D01*
X111023638Y-81552185D01*
X110955804Y-81523804D01*
X110952788Y-81521808D01*
X110899427Y-81473448D01*
X110864340Y-81410352D01*
X110844922Y-81327387D01*
X110842316Y-81304078D01*
X110837701Y-81194055D01*
X110843233Y-81142748D01*
X110982514Y-81142748D01*
X110984324Y-81174753D01*
X110994222Y-81184093D01*
X111018898Y-81177105D01*
X111057795Y-81160587D01*
X111101275Y-81139881D01*
X111102356Y-81139333D01*
X111139209Y-81119949D01*
X111154000Y-81107013D01*
X111150353Y-81093451D01*
X111134995Y-81075632D01*
X111095923Y-81049845D01*
X111053846Y-81047950D01*
X111016103Y-81066717D01*
X110990034Y-81102915D01*
X110982514Y-81142748D01*
X110843233Y-81142748D01*
X110847194Y-81106027D01*
X110871550Y-81036212D01*
X110905456Y-80987302D01*
X110966653Y-80937878D01*
X111034063Y-80913359D01*
X111102880Y-80911797D01*
X111168303Y-80931239D01*
G36*
X110041115Y-80921962D02*
G01*
X110109145Y-80957733D01*
X110159351Y-81015301D01*
X110177185Y-81052312D01*
X110191063Y-81107882D01*
X110198167Y-81178096D01*
X110198840Y-81254727D01*
X110193427Y-81329552D01*
X110182270Y-81394342D01*
X110165714Y-81440873D01*
X110160626Y-81448887D01*
X110100355Y-81508707D01*
X110028769Y-81544535D01*
X109951092Y-81555020D01*
X109872548Y-81538810D01*
X109850689Y-81529092D01*
X109808122Y-81499143D01*
X109770763Y-81459433D01*
X109767232Y-81454397D01*
X109752881Y-81430124D01*
X109743394Y-81404178D01*
X109737790Y-81370022D01*
X109735086Y-81321119D01*
X109734299Y-81250935D01*
X109734286Y-81235200D01*
X109734322Y-81230192D01*
X109879429Y-81230192D01*
X109880273Y-81296430D01*
X109883596Y-81340386D01*
X109890583Y-81368779D01*
X109902416Y-81388325D01*
X109908457Y-81394857D01*
X109943186Y-81419680D01*
X109976903Y-81418548D01*
X110010995Y-81397016D01*
X110031329Y-81374029D01*
X110043371Y-81340478D01*
X110050134Y-81287569D01*
X110050598Y-81281399D01*
X110051752Y-81185513D01*
X110039688Y-81114299D01*
X110014570Y-81068194D01*
X109976560Y-81047635D01*
X109962992Y-81046514D01*
X109927364Y-81052152D01*
X109902994Y-81071686D01*
X109888093Y-81109042D01*
X109880875Y-81168150D01*
X109879429Y-81230192D01*
X109734322Y-81230192D01*
X109734826Y-81160413D01*
X109737096Y-81108159D01*
X109742068Y-81071949D01*
X109750713Y-81045299D01*
X109764005Y-81021722D01*
X109766943Y-81017338D01*
X109816313Y-80958249D01*
X109870109Y-80923947D01*
X109935602Y-80910331D01*
X109957842Y-80909665D01*
X110041115Y-80921962D01*
G37*
X110041115Y-80921962D02*
X110109145Y-80957733D01*
X110159351Y-81015301D01*
X110177185Y-81052312D01*
X110191063Y-81107882D01*
X110198167Y-81178096D01*
X110198840Y-81254727D01*
X110193427Y-81329552D01*
X110182270Y-81394342D01*
X110165714Y-81440873D01*
X110160626Y-81448887D01*
X110100355Y-81508707D01*
X110028769Y-81544535D01*
X109951092Y-81555020D01*
X109872548Y-81538810D01*
X109850689Y-81529092D01*
X109808122Y-81499143D01*
X109770763Y-81459433D01*
X109767232Y-81454397D01*
X109752881Y-81430124D01*
X109743394Y-81404178D01*
X109737790Y-81370022D01*
X109735086Y-81321119D01*
X109734299Y-81250935D01*
X109734286Y-81235200D01*
X109734322Y-81230192D01*
X109879429Y-81230192D01*
X109880273Y-81296430D01*
X109883596Y-81340386D01*
X109890583Y-81368779D01*
X109902416Y-81388325D01*
X109908457Y-81394857D01*
X109943186Y-81419680D01*
X109976903Y-81418548D01*
X110010995Y-81397016D01*
X110031329Y-81374029D01*
X110043371Y-81340478D01*
X110050134Y-81287569D01*
X110050598Y-81281399D01*
X110051752Y-81185513D01*
X110039688Y-81114299D01*
X110014570Y-81068194D01*
X109976560Y-81047635D01*
X109962992Y-81046514D01*
X109927364Y-81052152D01*
X109902994Y-81071686D01*
X109888093Y-81109042D01*
X109880875Y-81168150D01*
X109879429Y-81230192D01*
X109734322Y-81230192D01*
X109734826Y-81160413D01*
X109737096Y-81108159D01*
X109742068Y-81071949D01*
X109750713Y-81045299D01*
X109764005Y-81021722D01*
X109766943Y-81017338D01*
X109816313Y-80958249D01*
X109870109Y-80923947D01*
X109935602Y-80910331D01*
X109957842Y-80909665D01*
X110041115Y-80921962D01*
G36*
X111716093Y-80927780D02*
G01*
X111762672Y-80954723D01*
X111795057Y-80981466D01*
X111818742Y-81009484D01*
X111835059Y-81043748D01*
X111845339Y-81089227D01*
X111850914Y-81150892D01*
X111853116Y-81233711D01*
X111853371Y-81293246D01*
X111853371Y-81512391D01*
X111791686Y-81540044D01*
X111730000Y-81567697D01*
X111722743Y-81327670D01*
X111719744Y-81238028D01*
X111716598Y-81172962D01*
X111712701Y-81128026D01*
X111707447Y-81098770D01*
X111700231Y-81080748D01*
X111690450Y-81069511D01*
X111687312Y-81067079D01*
X111639761Y-81048083D01*
X111591697Y-81055600D01*
X111563086Y-81075543D01*
X111551447Y-81089675D01*
X111543391Y-81108220D01*
X111538271Y-81136334D01*
X111535441Y-81179173D01*
X111534256Y-81241895D01*
X111534057Y-81307261D01*
X111534018Y-81389268D01*
X111532614Y-81447316D01*
X111527914Y-81486465D01*
X111517987Y-81511780D01*
X111500903Y-81528323D01*
X111474732Y-81541156D01*
X111439775Y-81554491D01*
X111401596Y-81569007D01*
X111406141Y-81311389D01*
X111407971Y-81218519D01*
X111410112Y-81149889D01*
X111413181Y-81100711D01*
X111417794Y-81066198D01*
X111424568Y-81041562D01*
X111434119Y-81022016D01*
X111445634Y-81004770D01*
X111501190Y-80949680D01*
X111568980Y-80917822D01*
X111642713Y-80910191D01*
X111716093Y-80927780D01*
G37*
X111716093Y-80927780D02*
X111762672Y-80954723D01*
X111795057Y-80981466D01*
X111818742Y-81009484D01*
X111835059Y-81043748D01*
X111845339Y-81089227D01*
X111850914Y-81150892D01*
X111853116Y-81233711D01*
X111853371Y-81293246D01*
X111853371Y-81512391D01*
X111791686Y-81540044D01*
X111730000Y-81567697D01*
X111722743Y-81327670D01*
X111719744Y-81238028D01*
X111716598Y-81172962D01*
X111712701Y-81128026D01*
X111707447Y-81098770D01*
X111700231Y-81080748D01*
X111690450Y-81069511D01*
X111687312Y-81067079D01*
X111639761Y-81048083D01*
X111591697Y-81055600D01*
X111563086Y-81075543D01*
X111551447Y-81089675D01*
X111543391Y-81108220D01*
X111538271Y-81136334D01*
X111535441Y-81179173D01*
X111534256Y-81241895D01*
X111534057Y-81307261D01*
X111534018Y-81389268D01*
X111532614Y-81447316D01*
X111527914Y-81486465D01*
X111517987Y-81511780D01*
X111500903Y-81528323D01*
X111474732Y-81541156D01*
X111439775Y-81554491D01*
X111401596Y-81569007D01*
X111406141Y-81311389D01*
X111407971Y-81218519D01*
X111410112Y-81149889D01*
X111413181Y-81100711D01*
X111417794Y-81066198D01*
X111424568Y-81041562D01*
X111434119Y-81022016D01*
X111445634Y-81004770D01*
X111501190Y-80949680D01*
X111568980Y-80917822D01*
X111642713Y-80910191D01*
X111716093Y-80927780D01*
G36*
X110599744Y-80919918D02*
G01*
X110655201Y-80947568D01*
X110704148Y-80998480D01*
X110717629Y-81017338D01*
X110732314Y-81042015D01*
X110741842Y-81068816D01*
X110747293Y-81104587D01*
X110749747Y-81156169D01*
X110750286Y-81224267D01*
X110747852Y-81317588D01*
X110739394Y-81387657D01*
X110723174Y-81439931D01*
X110697454Y-81479869D01*
X110660497Y-81512929D01*
X110657782Y-81514886D01*
X110621360Y-81534908D01*
X110577502Y-81544815D01*
X110521724Y-81547257D01*
X110431048Y-81547257D01*
X110431010Y-81635283D01*
X110430166Y-81684308D01*
X110425024Y-81713065D01*
X110411587Y-81730311D01*
X110385858Y-81744808D01*
X110379679Y-81747769D01*
X110350764Y-81761648D01*
X110328376Y-81770414D01*
X110311729Y-81771171D01*
X110300036Y-81761023D01*
X110292510Y-81737073D01*
X110288366Y-81696426D01*
X110286815Y-81636186D01*
X110287071Y-81553455D01*
X110288349Y-81445339D01*
X110288748Y-81413000D01*
X110290185Y-81301524D01*
X110291472Y-81228603D01*
X110430971Y-81228603D01*
X110431755Y-81290499D01*
X110435240Y-81330997D01*
X110443124Y-81357708D01*
X110457105Y-81378244D01*
X110466597Y-81388260D01*
X110505404Y-81417567D01*
X110539763Y-81419952D01*
X110575216Y-81395750D01*
X110576114Y-81394857D01*
X110590539Y-81376153D01*
X110599313Y-81350732D01*
X110603739Y-81311584D01*
X110605118Y-81251697D01*
X110605143Y-81238430D01*
X110601812Y-81155901D01*
X110590969Y-81098691D01*
X110571340Y-81063766D01*
X110541650Y-81048094D01*
X110524491Y-81046514D01*
X110483766Y-81053926D01*
X110455832Y-81078330D01*
X110439017Y-81122980D01*
X110431650Y-81191130D01*
X110430971Y-81228603D01*
X110291472Y-81228603D01*
X110291708Y-81215245D01*
X110293677Y-81150333D01*
X110296450Y-81102958D01*
X110300388Y-81069290D01*
X110305849Y-81045498D01*
X110313192Y-81027753D01*
X110322777Y-81012224D01*
X110326887Y-81006381D01*
X110381405Y-80951185D01*
X110450336Y-80919890D01*
X110530072Y-80911165D01*
X110599744Y-80919918D01*
G37*
X110599744Y-80919918D02*
X110655201Y-80947568D01*
X110704148Y-80998480D01*
X110717629Y-81017338D01*
X110732314Y-81042015D01*
X110741842Y-81068816D01*
X110747293Y-81104587D01*
X110749747Y-81156169D01*
X110750286Y-81224267D01*
X110747852Y-81317588D01*
X110739394Y-81387657D01*
X110723174Y-81439931D01*
X110697454Y-81479869D01*
X110660497Y-81512929D01*
X110657782Y-81514886D01*
X110621360Y-81534908D01*
X110577502Y-81544815D01*
X110521724Y-81547257D01*
X110431048Y-81547257D01*
X110431010Y-81635283D01*
X110430166Y-81684308D01*
X110425024Y-81713065D01*
X110411587Y-81730311D01*
X110385858Y-81744808D01*
X110379679Y-81747769D01*
X110350764Y-81761648D01*
X110328376Y-81770414D01*
X110311729Y-81771171D01*
X110300036Y-81761023D01*
X110292510Y-81737073D01*
X110288366Y-81696426D01*
X110286815Y-81636186D01*
X110287071Y-81553455D01*
X110288349Y-81445339D01*
X110288748Y-81413000D01*
X110290185Y-81301524D01*
X110291472Y-81228603D01*
X110430971Y-81228603D01*
X110431755Y-81290499D01*
X110435240Y-81330997D01*
X110443124Y-81357708D01*
X110457105Y-81378244D01*
X110466597Y-81388260D01*
X110505404Y-81417567D01*
X110539763Y-81419952D01*
X110575216Y-81395750D01*
X110576114Y-81394857D01*
X110590539Y-81376153D01*
X110599313Y-81350732D01*
X110603739Y-81311584D01*
X110605118Y-81251697D01*
X110605143Y-81238430D01*
X110601812Y-81155901D01*
X110590969Y-81098691D01*
X110571340Y-81063766D01*
X110541650Y-81048094D01*
X110524491Y-81046514D01*
X110483766Y-81053926D01*
X110455832Y-81078330D01*
X110439017Y-81122980D01*
X110431650Y-81191130D01*
X110430971Y-81228603D01*
X110291472Y-81228603D01*
X110291708Y-81215245D01*
X110293677Y-81150333D01*
X110296450Y-81102958D01*
X110300388Y-81069290D01*
X110305849Y-81045498D01*
X110313192Y-81027753D01*
X110322777Y-81012224D01*
X110326887Y-81006381D01*
X110381405Y-80951185D01*
X110450336Y-80919890D01*
X110530072Y-80911165D01*
X110599744Y-80919918D01*
D16*
%TO.C,J2*%
X98270000Y-112330000D02*
X98270000Y-109670000D01*
X70270000Y-112330000D02*
X98270000Y-112330000D01*
X70270000Y-109670000D02*
X98270000Y-109670000D01*
X70270000Y-112330000D02*
X70270000Y-109670000D01*
X69000000Y-112330000D02*
X67670000Y-112330000D01*
X67670000Y-112330000D02*
X67670000Y-111000000D01*
%TO.C,C3*%
X205260000Y-97650000D02*
X205260000Y-89590000D01*
X205260000Y-89590000D02*
X200740000Y-89590000D01*
X200740000Y-89590000D02*
X200740000Y-97650000D01*
%TO.C,C4*%
X206290000Y-103741422D02*
X206290000Y-104258578D01*
X207710000Y-103741422D02*
X207710000Y-104258578D01*
%TO.C,C5*%
X213196078Y-107710000D02*
X212678922Y-107710000D01*
X213196078Y-106290000D02*
X212678922Y-106290000D01*
%TO.C,C6*%
X223740000Y-108260000D02*
X227490000Y-108260000D01*
X234260000Y-108260000D02*
X230510000Y-108260000D01*
X234260000Y-98804437D02*
X234260000Y-108260000D01*
X223740000Y-98804437D02*
X223740000Y-108260000D01*
X224804437Y-97740000D02*
X227490000Y-97740000D01*
X233195563Y-97740000D02*
X230510000Y-97740000D01*
X233195563Y-97740000D02*
X234260000Y-98804437D01*
X224804437Y-97740000D02*
X223740000Y-98804437D01*
X231760000Y-96250000D02*
X231760000Y-97500000D01*
X232385000Y-96875000D02*
X231135000Y-96875000D01*
%TO.C,D2*%
X230550000Y-95150000D02*
X230550000Y-90850000D01*
X230550000Y-90850000D02*
X224850000Y-90850000D01*
X230550000Y-95150000D02*
X224850000Y-95150000D01*
%TO.C,J7*%
X207250000Y-86100000D02*
X208300000Y-86100000D01*
X208300000Y-85050000D02*
X208300000Y-86100000D01*
X198900000Y-80000000D02*
X198900000Y-71200000D01*
X198900000Y-71200000D02*
X208100000Y-71200000D01*
X201600000Y-85900000D02*
X198900000Y-85900000D01*
X198900000Y-85900000D02*
X198900000Y-84000000D01*
X208100000Y-71200000D02*
X208100000Y-85900000D01*
X208100000Y-85900000D02*
X205500000Y-85900000D01*
%TO.C,L2*%
X221300000Y-96300000D02*
X221300000Y-99300000D01*
X221300000Y-99300000D02*
X208700000Y-99300000D01*
X208700000Y-99300000D02*
X208700000Y-96300000D01*
X208700000Y-89700000D02*
X208700000Y-86700000D01*
X208700000Y-86700000D02*
X221300000Y-86700000D01*
X221300000Y-86700000D02*
X221300000Y-89700000D01*
%TO.C,Q1*%
X224550000Y-76800000D02*
X223050000Y-76800000D01*
X223050000Y-76800000D02*
X223050000Y-78610000D01*
X223050000Y-78610000D02*
X217925000Y-78610000D01*
X224550000Y-87200000D02*
X223050000Y-87200000D01*
X223050000Y-87200000D02*
X223050000Y-85390000D01*
X223050000Y-85390000D02*
X221950000Y-85390000D01*
%TO.C,R3*%
X215052064Y-85710000D02*
X210947936Y-85710000D01*
X215052064Y-82290000D02*
X210947936Y-82290000D01*
%TO.C,R4*%
X222910000Y-102397936D02*
X222910000Y-103602064D01*
X221090000Y-102397936D02*
X221090000Y-103602064D01*
%TO.C,R5*%
X222710000Y-106803922D02*
X222710000Y-107321078D01*
X221290000Y-106803922D02*
X221290000Y-107321078D01*
%TO.C,U4*%
X213000000Y-105560000D02*
X214950000Y-105560000D01*
X213000000Y-105560000D02*
X211050000Y-105560000D01*
X213000000Y-100440000D02*
X214950000Y-100440000D01*
X213000000Y-100440000D02*
X209550000Y-100440000D01*
%TO.C,RV1*%
X205390000Y-104000000D02*
G75*
G03*
X205390000Y-104000000I-3930000J0D01*
G01*
%TO.C,D1*%
X175280000Y-88095000D02*
X180720000Y-88095000D01*
X175280000Y-87855000D02*
X180720000Y-87855000D01*
X175280000Y-87975000D02*
X180720000Y-87975000D01*
X180720000Y-79780000D02*
X179840000Y-79780000D01*
X180720000Y-89520000D02*
X180720000Y-79780000D01*
X179840000Y-89520000D02*
X180720000Y-89520000D01*
X175280000Y-79780000D02*
X176160000Y-79780000D01*
X175280000Y-89520000D02*
X175280000Y-79780000D01*
X176160000Y-89520000D02*
X175280000Y-89520000D01*
%TO.C,J1*%
X67670000Y-115330000D02*
X67670000Y-114000000D01*
X69000000Y-115330000D02*
X67670000Y-115330000D01*
X70270000Y-115330000D02*
X70270000Y-112670000D01*
X70270000Y-112670000D02*
X98270000Y-112670000D01*
X70270000Y-115330000D02*
X98270000Y-115330000D01*
X98270000Y-115330000D02*
X98270000Y-112670000D01*
%TO.C,J3*%
X131270000Y-115330000D02*
X131270000Y-112670000D01*
X103270000Y-115330000D02*
X131270000Y-115330000D01*
X103270000Y-112670000D02*
X131270000Y-112670000D01*
X103270000Y-115330000D02*
X103270000Y-112670000D01*
X102000000Y-115330000D02*
X100670000Y-115330000D01*
X100670000Y-115330000D02*
X100670000Y-114000000D01*
%TO.C,J4*%
X100670000Y-112330000D02*
X100670000Y-111000000D01*
X102000000Y-112330000D02*
X100670000Y-112330000D01*
X103270000Y-112330000D02*
X103270000Y-109670000D01*
X103270000Y-109670000D02*
X131270000Y-109670000D01*
X103270000Y-112330000D02*
X131270000Y-112330000D01*
X131270000Y-112330000D02*
X131270000Y-109670000D01*
%TO.C,J5*%
X133670000Y-115330000D02*
X133670000Y-114000000D01*
X135000000Y-115330000D02*
X133670000Y-115330000D01*
X136270000Y-115330000D02*
X136270000Y-112670000D01*
X136270000Y-112670000D02*
X164270000Y-112670000D01*
X136270000Y-115330000D02*
X164270000Y-115330000D01*
X164270000Y-115330000D02*
X164270000Y-112670000D01*
%TO.C,L1*%
X186300000Y-94700000D02*
X186300000Y-97700000D01*
X173700000Y-94700000D02*
X186300000Y-94700000D01*
X173700000Y-97700000D02*
X173700000Y-94700000D01*
X173700000Y-107300000D02*
X173700000Y-104300000D01*
X186300000Y-107300000D02*
X173700000Y-107300000D01*
X186300000Y-104300000D02*
X186300000Y-107300000D01*
%TO.C,Q2*%
X65420000Y-107760000D02*
X66350000Y-107760000D01*
X68580000Y-107760000D02*
X67650000Y-107760000D01*
X68580000Y-107760000D02*
X68580000Y-105600000D01*
X65420000Y-107760000D02*
X65420000Y-106300000D01*
%TO.C,Q3*%
X65420000Y-102760000D02*
X65420000Y-101300000D01*
X68580000Y-102760000D02*
X68580000Y-100600000D01*
X68580000Y-102760000D02*
X67650000Y-102760000D01*
X65420000Y-102760000D02*
X66350000Y-102760000D01*
%TO.C,Q4*%
X65420000Y-97760000D02*
X66350000Y-97760000D01*
X68580000Y-97760000D02*
X67650000Y-97760000D01*
X68580000Y-97760000D02*
X68580000Y-95600000D01*
X65420000Y-97760000D02*
X65420000Y-96300000D01*
%TO.C,Q5*%
X70420000Y-107760000D02*
X70420000Y-106300000D01*
X73580000Y-107760000D02*
X73580000Y-105600000D01*
X73580000Y-107760000D02*
X72650000Y-107760000D01*
X70420000Y-107760000D02*
X71350000Y-107760000D01*
%TO.C,Q6*%
X70420000Y-102760000D02*
X71350000Y-102760000D01*
X73580000Y-102760000D02*
X72650000Y-102760000D01*
X73580000Y-102760000D02*
X73580000Y-100600000D01*
X70420000Y-102760000D02*
X70420000Y-101300000D01*
%TO.C,Q7*%
X70420000Y-97760000D02*
X70420000Y-96300000D01*
X73580000Y-97760000D02*
X73580000Y-95600000D01*
X73580000Y-97760000D02*
X72650000Y-97760000D01*
X70420000Y-97760000D02*
X71350000Y-97760000D01*
%TO.C,Q8*%
X75420000Y-107760000D02*
X76350000Y-107760000D01*
X78580000Y-107760000D02*
X77650000Y-107760000D01*
X78580000Y-107760000D02*
X78580000Y-105600000D01*
X75420000Y-107760000D02*
X75420000Y-106300000D01*
%TO.C,Q9*%
X75420000Y-102760000D02*
X75420000Y-101300000D01*
X78580000Y-102760000D02*
X78580000Y-100600000D01*
X78580000Y-102760000D02*
X77650000Y-102760000D01*
X75420000Y-102760000D02*
X76350000Y-102760000D01*
%TO.C,Q10*%
X75420000Y-97760000D02*
X76350000Y-97760000D01*
X78580000Y-97760000D02*
X77650000Y-97760000D01*
X78580000Y-97760000D02*
X78580000Y-95600000D01*
X75420000Y-97760000D02*
X75420000Y-96300000D01*
%TO.C,Q11*%
X80420000Y-107760000D02*
X81350000Y-107760000D01*
X83580000Y-107760000D02*
X82650000Y-107760000D01*
X83580000Y-107760000D02*
X83580000Y-105600000D01*
X80420000Y-107760000D02*
X80420000Y-106300000D01*
%TO.C,Q12*%
X80420000Y-102760000D02*
X81350000Y-102760000D01*
X83580000Y-102760000D02*
X82650000Y-102760000D01*
X83580000Y-102760000D02*
X83580000Y-100600000D01*
X80420000Y-102760000D02*
X80420000Y-101300000D01*
%TO.C,Q13*%
X80420000Y-97760000D02*
X80420000Y-96300000D01*
X83580000Y-97760000D02*
X83580000Y-95600000D01*
X83580000Y-97760000D02*
X82650000Y-97760000D01*
X80420000Y-97760000D02*
X81350000Y-97760000D01*
%TO.C,Q14*%
X85420000Y-107760000D02*
X86350000Y-107760000D01*
X88580000Y-107760000D02*
X87650000Y-107760000D01*
X88580000Y-107760000D02*
X88580000Y-105600000D01*
X85420000Y-107760000D02*
X85420000Y-106300000D01*
%TO.C,Q15*%
X85420000Y-102760000D02*
X85420000Y-101300000D01*
X88580000Y-102760000D02*
X88580000Y-100600000D01*
X88580000Y-102760000D02*
X87650000Y-102760000D01*
X85420000Y-102760000D02*
X86350000Y-102760000D01*
%TO.C,Q16*%
X85420000Y-97760000D02*
X86350000Y-97760000D01*
X88580000Y-97760000D02*
X87650000Y-97760000D01*
X88580000Y-97760000D02*
X88580000Y-95600000D01*
X85420000Y-97760000D02*
X85420000Y-96300000D01*
%TO.C,Q17*%
X90420000Y-107760000D02*
X90420000Y-106300000D01*
X93580000Y-107760000D02*
X93580000Y-105600000D01*
X93580000Y-107760000D02*
X92650000Y-107760000D01*
X90420000Y-107760000D02*
X91350000Y-107760000D01*
%TO.C,Q18*%
X90420000Y-102760000D02*
X91350000Y-102760000D01*
X93580000Y-102760000D02*
X92650000Y-102760000D01*
X93580000Y-102760000D02*
X93580000Y-100600000D01*
X90420000Y-102760000D02*
X90420000Y-101300000D01*
%TO.C,Q19*%
X90420000Y-97760000D02*
X90420000Y-96300000D01*
X93580000Y-97760000D02*
X93580000Y-95600000D01*
X93580000Y-97760000D02*
X92650000Y-97760000D01*
X90420000Y-97760000D02*
X91350000Y-97760000D01*
%TO.C,Q20*%
X95420000Y-107760000D02*
X96350000Y-107760000D01*
X98580000Y-107760000D02*
X97650000Y-107760000D01*
X98580000Y-107760000D02*
X98580000Y-105600000D01*
X95420000Y-107760000D02*
X95420000Y-106300000D01*
%TO.C,Q21*%
X95420000Y-102760000D02*
X95420000Y-101300000D01*
X98580000Y-102760000D02*
X98580000Y-100600000D01*
X98580000Y-102760000D02*
X97650000Y-102760000D01*
X95420000Y-102760000D02*
X96350000Y-102760000D01*
%TO.C,Q22*%
X95420000Y-97760000D02*
X96350000Y-97760000D01*
X98580000Y-97760000D02*
X97650000Y-97760000D01*
X98580000Y-97760000D02*
X98580000Y-95600000D01*
X95420000Y-97760000D02*
X95420000Y-96300000D01*
%TO.C,Q23*%
X100420000Y-107760000D02*
X100420000Y-106300000D01*
X103580000Y-107760000D02*
X103580000Y-105600000D01*
X103580000Y-107760000D02*
X102650000Y-107760000D01*
X100420000Y-107760000D02*
X101350000Y-107760000D01*
%TO.C,Q24*%
X100420000Y-102760000D02*
X101350000Y-102760000D01*
X103580000Y-102760000D02*
X102650000Y-102760000D01*
X103580000Y-102760000D02*
X103580000Y-100600000D01*
X100420000Y-102760000D02*
X100420000Y-101300000D01*
%TO.C,Q25*%
X100420000Y-97760000D02*
X100420000Y-96300000D01*
X103580000Y-97760000D02*
X103580000Y-95600000D01*
X103580000Y-97760000D02*
X102650000Y-97760000D01*
X100420000Y-97760000D02*
X101350000Y-97760000D01*
%TO.C,Q26*%
X105420000Y-107760000D02*
X106350000Y-107760000D01*
X108580000Y-107760000D02*
X107650000Y-107760000D01*
X108580000Y-107760000D02*
X108580000Y-105600000D01*
X105420000Y-107760000D02*
X105420000Y-106300000D01*
%TO.C,Q27*%
X105420000Y-102760000D02*
X105420000Y-101300000D01*
X108580000Y-102760000D02*
X108580000Y-100600000D01*
X108580000Y-102760000D02*
X107650000Y-102760000D01*
X105420000Y-102760000D02*
X106350000Y-102760000D01*
%TO.C,Q28*%
X105420000Y-97760000D02*
X106350000Y-97760000D01*
X108580000Y-97760000D02*
X107650000Y-97760000D01*
X108580000Y-97760000D02*
X108580000Y-95600000D01*
X105420000Y-97760000D02*
X105420000Y-96300000D01*
%TO.C,Q29*%
X110420000Y-107760000D02*
X110420000Y-106300000D01*
X113580000Y-107760000D02*
X113580000Y-105600000D01*
X113580000Y-107760000D02*
X112650000Y-107760000D01*
X110420000Y-107760000D02*
X111350000Y-107760000D01*
%TO.C,Q30*%
X110420000Y-102760000D02*
X110420000Y-101300000D01*
X113580000Y-102760000D02*
X113580000Y-100600000D01*
X113580000Y-102760000D02*
X112650000Y-102760000D01*
X110420000Y-102760000D02*
X111350000Y-102760000D01*
%TO.C,Q31*%
X110420000Y-97760000D02*
X110420000Y-96300000D01*
X113580000Y-97760000D02*
X113580000Y-95600000D01*
X113580000Y-97760000D02*
X112650000Y-97760000D01*
X110420000Y-97760000D02*
X111350000Y-97760000D01*
%TO.C,Q32*%
X115420000Y-107760000D02*
X116350000Y-107760000D01*
X118580000Y-107760000D02*
X117650000Y-107760000D01*
X118580000Y-107760000D02*
X118580000Y-105600000D01*
X115420000Y-107760000D02*
X115420000Y-106300000D01*
%TO.C,Q33*%
X115420000Y-102760000D02*
X115420000Y-101300000D01*
X118580000Y-102760000D02*
X118580000Y-100600000D01*
X118580000Y-102760000D02*
X117650000Y-102760000D01*
X115420000Y-102760000D02*
X116350000Y-102760000D01*
%TO.C,Q34*%
X115420000Y-97760000D02*
X116350000Y-97760000D01*
X118580000Y-97760000D02*
X117650000Y-97760000D01*
X118580000Y-97760000D02*
X118580000Y-95600000D01*
X115420000Y-97760000D02*
X115420000Y-96300000D01*
%TO.C,Q35*%
X120420000Y-107760000D02*
X120420000Y-106300000D01*
X123580000Y-107760000D02*
X123580000Y-105600000D01*
X123580000Y-107760000D02*
X122650000Y-107760000D01*
X120420000Y-107760000D02*
X121350000Y-107760000D01*
%TO.C,Q36*%
X120420000Y-102760000D02*
X121350000Y-102760000D01*
X123580000Y-102760000D02*
X122650000Y-102760000D01*
X123580000Y-102760000D02*
X123580000Y-100600000D01*
X120420000Y-102760000D02*
X120420000Y-101300000D01*
%TO.C,Q37*%
X120420000Y-97760000D02*
X121350000Y-97760000D01*
X123580000Y-97760000D02*
X122650000Y-97760000D01*
X123580000Y-97760000D02*
X123580000Y-95600000D01*
X120420000Y-97760000D02*
X120420000Y-96300000D01*
%TO.C,Q38*%
X125420000Y-107760000D02*
X125420000Y-106300000D01*
X128580000Y-107760000D02*
X128580000Y-105600000D01*
X128580000Y-107760000D02*
X127650000Y-107760000D01*
X125420000Y-107760000D02*
X126350000Y-107760000D01*
%TO.C,Q39*%
X125420000Y-102760000D02*
X126350000Y-102760000D01*
X128580000Y-102760000D02*
X127650000Y-102760000D01*
X128580000Y-102760000D02*
X128580000Y-100600000D01*
X125420000Y-102760000D02*
X125420000Y-101300000D01*
%TO.C,Q40*%
X125420000Y-97760000D02*
X125420000Y-96300000D01*
X128580000Y-97760000D02*
X128580000Y-95600000D01*
X128580000Y-97760000D02*
X127650000Y-97760000D01*
X125420000Y-97760000D02*
X126350000Y-97760000D01*
%TO.C,Q41*%
X130420000Y-107760000D02*
X131350000Y-107760000D01*
X133580000Y-107760000D02*
X132650000Y-107760000D01*
X133580000Y-107760000D02*
X133580000Y-105600000D01*
X130420000Y-107760000D02*
X130420000Y-106300000D01*
%TO.C,Q42*%
X130420000Y-102760000D02*
X130420000Y-101300000D01*
X133580000Y-102760000D02*
X133580000Y-100600000D01*
X133580000Y-102760000D02*
X132650000Y-102760000D01*
X130420000Y-102760000D02*
X131350000Y-102760000D01*
%TO.C,Q43*%
X130420000Y-97760000D02*
X131350000Y-97760000D01*
X133580000Y-97760000D02*
X132650000Y-97760000D01*
X133580000Y-97760000D02*
X133580000Y-95600000D01*
X130420000Y-97760000D02*
X130420000Y-96300000D01*
%TO.C,Q44*%
X135420000Y-107760000D02*
X135420000Y-106300000D01*
X138580000Y-107760000D02*
X138580000Y-105600000D01*
X138580000Y-107760000D02*
X137650000Y-107760000D01*
X135420000Y-107760000D02*
X136350000Y-107760000D01*
%TO.C,Q45*%
X135420000Y-102760000D02*
X136350000Y-102760000D01*
X138580000Y-102760000D02*
X137650000Y-102760000D01*
X138580000Y-102760000D02*
X138580000Y-100600000D01*
X135420000Y-102760000D02*
X135420000Y-101300000D01*
%TO.C,Q46*%
X135420000Y-97760000D02*
X135420000Y-96300000D01*
X138580000Y-97760000D02*
X138580000Y-95600000D01*
X138580000Y-97760000D02*
X137650000Y-97760000D01*
X135420000Y-97760000D02*
X136350000Y-97760000D01*
%TO.C,Q47*%
X140420000Y-107760000D02*
X141350000Y-107760000D01*
X143580000Y-107760000D02*
X142650000Y-107760000D01*
X143580000Y-107760000D02*
X143580000Y-105600000D01*
X140420000Y-107760000D02*
X140420000Y-106300000D01*
%TO.C,Q48*%
X140420000Y-102760000D02*
X140420000Y-101300000D01*
X143580000Y-102760000D02*
X143580000Y-100600000D01*
X143580000Y-102760000D02*
X142650000Y-102760000D01*
X140420000Y-102760000D02*
X141350000Y-102760000D01*
%TO.C,Q49*%
X140420000Y-97760000D02*
X140420000Y-96300000D01*
X143580000Y-97760000D02*
X143580000Y-95600000D01*
X143580000Y-97760000D02*
X142650000Y-97760000D01*
X140420000Y-97760000D02*
X141350000Y-97760000D01*
%TO.C,Q50*%
X145420000Y-107760000D02*
X145420000Y-106300000D01*
X148580000Y-107760000D02*
X148580000Y-105600000D01*
X148580000Y-107760000D02*
X147650000Y-107760000D01*
X145420000Y-107760000D02*
X146350000Y-107760000D01*
%TO.C,Q51*%
X145420000Y-102760000D02*
X146350000Y-102760000D01*
X148580000Y-102760000D02*
X147650000Y-102760000D01*
X148580000Y-102760000D02*
X148580000Y-100600000D01*
X145420000Y-102760000D02*
X145420000Y-101300000D01*
%TO.C,Q52*%
X145420000Y-97760000D02*
X145420000Y-96300000D01*
X148580000Y-97760000D02*
X148580000Y-95600000D01*
X148580000Y-97760000D02*
X147650000Y-97760000D01*
X145420000Y-97760000D02*
X146350000Y-97760000D01*
%TO.C,Q53*%
X150420000Y-107760000D02*
X151350000Y-107760000D01*
X153580000Y-107760000D02*
X152650000Y-107760000D01*
X153580000Y-107760000D02*
X153580000Y-105600000D01*
X150420000Y-107760000D02*
X150420000Y-106300000D01*
%TO.C,Q54*%
X150420000Y-102760000D02*
X150420000Y-101300000D01*
X153580000Y-102760000D02*
X153580000Y-100600000D01*
X153580000Y-102760000D02*
X152650000Y-102760000D01*
X150420000Y-102760000D02*
X151350000Y-102760000D01*
%TO.C,Q55*%
X150370000Y-97760000D02*
X151300000Y-97760000D01*
X153530000Y-97760000D02*
X152600000Y-97760000D01*
X153530000Y-97760000D02*
X153530000Y-95600000D01*
X150370000Y-97760000D02*
X150370000Y-96300000D01*
%TO.C,Q56*%
X155420000Y-107760000D02*
X155420000Y-106300000D01*
X158580000Y-107760000D02*
X158580000Y-105600000D01*
X158580000Y-107760000D02*
X157650000Y-107760000D01*
X155420000Y-107760000D02*
X156350000Y-107760000D01*
%TO.C,Q57*%
X155420000Y-102760000D02*
X156350000Y-102760000D01*
X158580000Y-102760000D02*
X157650000Y-102760000D01*
X158580000Y-102760000D02*
X158580000Y-100600000D01*
X155420000Y-102760000D02*
X155420000Y-101300000D01*
%TO.C,Q58*%
X155420000Y-97760000D02*
X155420000Y-96300000D01*
X158580000Y-97760000D02*
X158580000Y-95600000D01*
X158580000Y-97760000D02*
X157650000Y-97760000D01*
X155420000Y-97760000D02*
X156350000Y-97760000D01*
%TO.C,Q59*%
X160420000Y-107760000D02*
X161350000Y-107760000D01*
X163580000Y-107760000D02*
X162650000Y-107760000D01*
X163580000Y-107760000D02*
X163580000Y-105600000D01*
X160420000Y-107760000D02*
X160420000Y-106300000D01*
%TO.C,Q60*%
X160420000Y-102760000D02*
X160420000Y-101300000D01*
X163580000Y-102760000D02*
X163580000Y-100600000D01*
X163580000Y-102760000D02*
X162650000Y-102760000D01*
X160420000Y-102760000D02*
X161350000Y-102760000D01*
%TO.C,Q61*%
X160420000Y-97760000D02*
X161350000Y-97760000D01*
X163580000Y-97760000D02*
X162650000Y-97760000D01*
X163580000Y-97760000D02*
X163580000Y-95600000D01*
X160420000Y-97760000D02*
X160420000Y-96300000D01*
%TO.C,R1*%
X85290000Y-81741422D02*
X85290000Y-82258578D01*
X86710000Y-81741422D02*
X86710000Y-82258578D01*
%TO.C,R2*%
X88710000Y-81741422D02*
X88710000Y-82258578D01*
X87290000Y-81741422D02*
X87290000Y-82258578D01*
%TO.C,U1*%
X69252500Y-79535000D02*
X67600000Y-79535000D01*
X69252500Y-79252500D02*
X69252500Y-79535000D01*
X72000000Y-79252500D02*
X69252500Y-79252500D01*
X74747500Y-79252500D02*
X74747500Y-79535000D01*
X72000000Y-79252500D02*
X74747500Y-79252500D01*
X69252500Y-84747500D02*
X69252500Y-84465000D01*
X72000000Y-84747500D02*
X69252500Y-84747500D01*
X74747500Y-84747500D02*
X74747500Y-84465000D01*
X72000000Y-84747500D02*
X74747500Y-84747500D01*
%TO.C,U2*%
X97000000Y-78440000D02*
X93550000Y-78440000D01*
X97000000Y-78440000D02*
X98950000Y-78440000D01*
X97000000Y-83560000D02*
X95050000Y-83560000D01*
X97000000Y-83560000D02*
X98950000Y-83560000D01*
%TO.C,U3*%
X192250000Y-86950000D02*
X192250000Y-88050000D01*
X193200000Y-86950000D02*
X192250000Y-86950000D01*
X193200000Y-85450000D02*
X193200000Y-86950000D01*
X183750000Y-86950000D02*
X183750000Y-92075000D01*
X182800000Y-86950000D02*
X183750000Y-86950000D01*
X182800000Y-85450000D02*
X182800000Y-86950000D01*
%TO.C,U5*%
X77060000Y-90000000D02*
X77060000Y-88050000D01*
X77060000Y-90000000D02*
X77060000Y-91950000D01*
X66940000Y-90000000D02*
X66940000Y-88050000D01*
X66940000Y-90000000D02*
X66940000Y-93450000D01*
%TO.C,U9*%
X125060000Y-90000000D02*
X125060000Y-88050000D01*
X125060000Y-90000000D02*
X125060000Y-91950000D01*
X114940000Y-90000000D02*
X114940000Y-88050000D01*
X114940000Y-90000000D02*
X114940000Y-93450000D01*
%TO.C,U6*%
X78940000Y-90000000D02*
X78940000Y-93450000D01*
X78940000Y-90000000D02*
X78940000Y-88050000D01*
X89060000Y-90000000D02*
X89060000Y-91950000D01*
X89060000Y-90000000D02*
X89060000Y-88050000D01*
%TO.C,U10*%
X137060000Y-90000000D02*
X137060000Y-88050000D01*
X137060000Y-90000000D02*
X137060000Y-91950000D01*
X126940000Y-90000000D02*
X126940000Y-88050000D01*
X126940000Y-90000000D02*
X126940000Y-93450000D01*
%TO.C,U7*%
X101060000Y-90000000D02*
X101060000Y-88050000D01*
X101060000Y-90000000D02*
X101060000Y-91950000D01*
X90940000Y-90000000D02*
X90940000Y-88050000D01*
X90940000Y-90000000D02*
X90940000Y-93450000D01*
%TO.C,U11*%
X138940000Y-90000000D02*
X138940000Y-93450000D01*
X138940000Y-90000000D02*
X138940000Y-88050000D01*
X149060000Y-90000000D02*
X149060000Y-91950000D01*
X149060000Y-90000000D02*
X149060000Y-88050000D01*
%TO.C,U8*%
X102940000Y-90000000D02*
X102940000Y-93450000D01*
X102940000Y-90000000D02*
X102940000Y-88050000D01*
X113060000Y-90000000D02*
X113060000Y-91950000D01*
X113060000Y-90000000D02*
X113060000Y-88050000D01*
%TO.C,U12*%
X150940000Y-90000000D02*
X150940000Y-93450000D01*
X150940000Y-90000000D02*
X150940000Y-88050000D01*
X161060000Y-90000000D02*
X161060000Y-91950000D01*
X161060000Y-90000000D02*
X161060000Y-88050000D01*
%TO.C,Y1*%
X91125000Y-79675000D02*
X91125000Y-78325000D01*
X92875000Y-79675000D02*
X92875000Y-78325000D01*
%TO.C,C1*%
X199241250Y-88956250D02*
X198453750Y-88956250D01*
X198847500Y-88562500D02*
X198847500Y-89350000D01*
X194654437Y-89590000D02*
X193590000Y-90654437D01*
X199345563Y-89590000D02*
X200410000Y-90654437D01*
X199345563Y-89590000D02*
X198060000Y-89590000D01*
X194654437Y-89590000D02*
X195940000Y-89590000D01*
X193590000Y-90654437D02*
X193590000Y-96410000D01*
X200410000Y-90654437D02*
X200410000Y-96410000D01*
X200410000Y-96410000D02*
X198060000Y-96410000D01*
X193590000Y-96410000D02*
X195940000Y-96410000D01*
%TO.C,C2*%
X195410000Y-104410000D02*
X195410000Y-102060000D01*
X195410000Y-97590000D02*
X195410000Y-99940000D01*
X189654437Y-97590000D02*
X195410000Y-97590000D01*
X189654437Y-104410000D02*
X195410000Y-104410000D01*
X188590000Y-103345563D02*
X188590000Y-102060000D01*
X188590000Y-98654437D02*
X188590000Y-99940000D01*
X188590000Y-98654437D02*
X189654437Y-97590000D01*
X188590000Y-103345563D02*
X189654437Y-104410000D01*
X187562500Y-99152500D02*
X188350000Y-99152500D01*
X187956250Y-98758750D02*
X187956250Y-99546250D01*
%TO.C,J6*%
X133670000Y-112330000D02*
X133670000Y-111000000D01*
X135000000Y-112330000D02*
X133670000Y-112330000D01*
X136270000Y-112330000D02*
X136270000Y-109670000D01*
X136270000Y-109670000D02*
X164270000Y-109670000D01*
X136270000Y-112330000D02*
X164270000Y-112330000D01*
X164270000Y-112330000D02*
X164270000Y-109670000D01*
%TO.C,J8*%
X104330000Y-82870000D02*
X103000000Y-82870000D01*
X104330000Y-81540000D02*
X104330000Y-82870000D01*
X104330000Y-80270000D02*
X101670000Y-80270000D01*
X101670000Y-80270000D02*
X101670000Y-77670000D01*
X104330000Y-80270000D02*
X104330000Y-77670000D01*
X104330000Y-77670000D02*
X101670000Y-77670000D01*
%TO.C,J9*%
X73670000Y-78330000D02*
X73670000Y-77000000D01*
X75000000Y-78330000D02*
X73670000Y-78330000D01*
X76270000Y-78330000D02*
X76270000Y-75670000D01*
X76270000Y-75670000D02*
X89030000Y-75670000D01*
X76270000Y-78330000D02*
X89030000Y-78330000D01*
X89030000Y-78330000D02*
X89030000Y-75670000D01*
%TO.C,J2*%
D12*
X66122380Y-111333333D02*
X66836666Y-111333333D01*
X66979523Y-111380952D01*
X67074761Y-111476190D01*
X67122380Y-111619047D01*
X67122380Y-111714285D01*
X66217619Y-110904761D02*
X66170000Y-110857142D01*
X66122380Y-110761904D01*
X66122380Y-110523809D01*
X66170000Y-110428571D01*
X66217619Y-110380952D01*
X66312857Y-110333333D01*
X66408095Y-110333333D01*
X66550952Y-110380952D01*
X67122380Y-110952380D01*
X67122380Y-110333333D01*
%TO.C,C3*%
X202833333Y-89357142D02*
X202785714Y-89404761D01*
X202642857Y-89452380D01*
X202547619Y-89452380D01*
X202404761Y-89404761D01*
X202309523Y-89309523D01*
X202261904Y-89214285D01*
X202214285Y-89023809D01*
X202214285Y-88880952D01*
X202261904Y-88690476D01*
X202309523Y-88595238D01*
X202404761Y-88500000D01*
X202547619Y-88452380D01*
X202642857Y-88452380D01*
X202785714Y-88500000D01*
X202833333Y-88547619D01*
X203166666Y-88452380D02*
X203785714Y-88452380D01*
X203452380Y-88833333D01*
X203595238Y-88833333D01*
X203690476Y-88880952D01*
X203738095Y-88928571D01*
X203785714Y-89023809D01*
X203785714Y-89261904D01*
X203738095Y-89357142D01*
X203690476Y-89404761D01*
X203595238Y-89452380D01*
X203309523Y-89452380D01*
X203214285Y-89404761D01*
X203166666Y-89357142D01*
%TO.C,C4*%
X206833333Y-101794642D02*
X206785714Y-101842261D01*
X206642857Y-101889880D01*
X206547619Y-101889880D01*
X206404761Y-101842261D01*
X206309523Y-101747023D01*
X206261904Y-101651785D01*
X206214285Y-101461309D01*
X206214285Y-101318452D01*
X206261904Y-101127976D01*
X206309523Y-101032738D01*
X206404761Y-100937500D01*
X206547619Y-100889880D01*
X206642857Y-100889880D01*
X206785714Y-100937500D01*
X206833333Y-100985119D01*
X207690476Y-101223214D02*
X207690476Y-101889880D01*
X207452380Y-100842261D02*
X207214285Y-101556547D01*
X207833333Y-101556547D01*
%TO.C,C5*%
X215367777Y-107398834D02*
X215320158Y-107446453D01*
X215177301Y-107494072D01*
X215082063Y-107494072D01*
X214939205Y-107446453D01*
X214843967Y-107351215D01*
X214796348Y-107255977D01*
X214748729Y-107065501D01*
X214748729Y-106922644D01*
X214796348Y-106732168D01*
X214843967Y-106636930D01*
X214939205Y-106541692D01*
X215082063Y-106494072D01*
X215177301Y-106494072D01*
X215320158Y-106541692D01*
X215367777Y-106589311D01*
X216272539Y-106494072D02*
X215796348Y-106494072D01*
X215748729Y-106970263D01*
X215796348Y-106922644D01*
X215891586Y-106875025D01*
X216129682Y-106875025D01*
X216224920Y-106922644D01*
X216272539Y-106970263D01*
X216320158Y-107065501D01*
X216320158Y-107303596D01*
X216272539Y-107398834D01*
X216224920Y-107446453D01*
X216129682Y-107494072D01*
X215891586Y-107494072D01*
X215796348Y-107446453D01*
X215748729Y-107398834D01*
%TO.C,C6*%
X225833333Y-97357142D02*
X225785714Y-97404761D01*
X225642857Y-97452380D01*
X225547619Y-97452380D01*
X225404761Y-97404761D01*
X225309523Y-97309523D01*
X225261904Y-97214285D01*
X225214285Y-97023809D01*
X225214285Y-96880952D01*
X225261904Y-96690476D01*
X225309523Y-96595238D01*
X225404761Y-96500000D01*
X225547619Y-96452380D01*
X225642857Y-96452380D01*
X225785714Y-96500000D01*
X225833333Y-96547619D01*
X226690476Y-96452380D02*
X226500000Y-96452380D01*
X226404761Y-96500000D01*
X226357142Y-96547619D01*
X226261904Y-96690476D01*
X226214285Y-96880952D01*
X226214285Y-97261904D01*
X226261904Y-97357142D01*
X226309523Y-97404761D01*
X226404761Y-97452380D01*
X226595238Y-97452380D01*
X226690476Y-97404761D01*
X226738095Y-97357142D01*
X226785714Y-97261904D01*
X226785714Y-97023809D01*
X226738095Y-96928571D01*
X226690476Y-96880952D01*
X226595238Y-96833333D01*
X226404761Y-96833333D01*
X226309523Y-96880952D01*
X226261904Y-96928571D01*
X226214285Y-97023809D01*
%TO.C,D2*%
X228261904Y-90452380D02*
X228261904Y-89452380D01*
X228500000Y-89452380D01*
X228642857Y-89500000D01*
X228738095Y-89595238D01*
X228785714Y-89690476D01*
X228833333Y-89880952D01*
X228833333Y-90023809D01*
X228785714Y-90214285D01*
X228738095Y-90309523D01*
X228642857Y-90404761D01*
X228500000Y-90452380D01*
X228261904Y-90452380D01*
X229214285Y-89547619D02*
X229261904Y-89500000D01*
X229357142Y-89452380D01*
X229595238Y-89452380D01*
X229690476Y-89500000D01*
X229738095Y-89547619D01*
X229785714Y-89642857D01*
X229785714Y-89738095D01*
X229738095Y-89880952D01*
X229166666Y-90452380D01*
X229785714Y-90452380D01*
%TO.C,J7*%
X197452380Y-77833333D02*
X198166666Y-77833333D01*
X198309523Y-77880952D01*
X198404761Y-77976190D01*
X198452380Y-78119047D01*
X198452380Y-78214285D01*
X197452380Y-77452380D02*
X197452380Y-76785714D01*
X198452380Y-77214285D01*
%TO.C,L2*%
X207295012Y-87452380D02*
X206818821Y-87452380D01*
X206818821Y-86452380D01*
X207580726Y-86547619D02*
X207628345Y-86500000D01*
X207723583Y-86452380D01*
X207961679Y-86452380D01*
X208056917Y-86500000D01*
X208104536Y-86547619D01*
X208152155Y-86642857D01*
X208152155Y-86738095D01*
X208104536Y-86880952D01*
X207533107Y-87452380D01*
X208152155Y-87452380D01*
%TO.C,Q1*%
X223904761Y-88547619D02*
X223809523Y-88500000D01*
X223714285Y-88404761D01*
X223571428Y-88261904D01*
X223476190Y-88214285D01*
X223380952Y-88214285D01*
X223428571Y-88452380D02*
X223333333Y-88404761D01*
X223238095Y-88309523D01*
X223190476Y-88119047D01*
X223190476Y-87785714D01*
X223238095Y-87595238D01*
X223333333Y-87500000D01*
X223428571Y-87452380D01*
X223619047Y-87452380D01*
X223714285Y-87500000D01*
X223809523Y-87595238D01*
X223857142Y-87785714D01*
X223857142Y-88119047D01*
X223809523Y-88309523D01*
X223714285Y-88404761D01*
X223619047Y-88452380D01*
X223428571Y-88452380D01*
X224809523Y-88452380D02*
X224238095Y-88452380D01*
X224523809Y-88452380D02*
X224523809Y-87452380D01*
X224428571Y-87595238D01*
X224333333Y-87690476D01*
X224238095Y-87738095D01*
%TO.C,R3*%
X214833333Y-81452380D02*
X214500000Y-80976190D01*
X214261904Y-81452380D02*
X214261904Y-80452380D01*
X214642857Y-80452380D01*
X214738095Y-80500000D01*
X214785714Y-80547619D01*
X214833333Y-80642857D01*
X214833333Y-80785714D01*
X214785714Y-80880952D01*
X214738095Y-80928571D01*
X214642857Y-80976190D01*
X214261904Y-80976190D01*
X215166666Y-80452380D02*
X215785714Y-80452380D01*
X215452380Y-80833333D01*
X215595238Y-80833333D01*
X215690476Y-80880952D01*
X215738095Y-80928571D01*
X215785714Y-81023809D01*
X215785714Y-81261904D01*
X215738095Y-81357142D01*
X215690476Y-81404761D01*
X215595238Y-81452380D01*
X215309523Y-81452380D01*
X215214285Y-81404761D01*
X215166666Y-81357142D01*
%TO.C,R4*%
X219833333Y-103452380D02*
X219500000Y-102976190D01*
X219261904Y-103452380D02*
X219261904Y-102452380D01*
X219642857Y-102452380D01*
X219738095Y-102500000D01*
X219785714Y-102547619D01*
X219833333Y-102642857D01*
X219833333Y-102785714D01*
X219785714Y-102880952D01*
X219738095Y-102928571D01*
X219642857Y-102976190D01*
X219261904Y-102976190D01*
X220690476Y-102785714D02*
X220690476Y-103452380D01*
X220452380Y-102404761D02*
X220214285Y-103119047D01*
X220833333Y-103119047D01*
%TO.C,R5*%
X221833333Y-109852380D02*
X221500000Y-109376190D01*
X221261904Y-109852380D02*
X221261904Y-108852380D01*
X221642857Y-108852380D01*
X221738095Y-108900000D01*
X221785714Y-108947619D01*
X221833333Y-109042857D01*
X221833333Y-109185714D01*
X221785714Y-109280952D01*
X221738095Y-109328571D01*
X221642857Y-109376190D01*
X221261904Y-109376190D01*
X222738095Y-108852380D02*
X222261904Y-108852380D01*
X222214285Y-109328571D01*
X222261904Y-109280952D01*
X222357142Y-109233333D01*
X222595238Y-109233333D01*
X222690476Y-109280952D01*
X222738095Y-109328571D01*
X222785714Y-109423809D01*
X222785714Y-109661904D01*
X222738095Y-109757142D01*
X222690476Y-109804761D01*
X222595238Y-109852380D01*
X222357142Y-109852380D01*
X222261904Y-109804761D01*
X222214285Y-109757142D01*
%TO.C,U4*%
X207238095Y-99452380D02*
X207238095Y-100261904D01*
X207285714Y-100357142D01*
X207333333Y-100404761D01*
X207428571Y-100452380D01*
X207619047Y-100452380D01*
X207714285Y-100404761D01*
X207761904Y-100357142D01*
X207809523Y-100261904D01*
X207809523Y-99452380D01*
X208714285Y-99785714D02*
X208714285Y-100452380D01*
X208476190Y-99404761D02*
X208238095Y-100119047D01*
X208857142Y-100119047D01*
%TO.C,RV1*%
X197404761Y-108952380D02*
X197071428Y-108476190D01*
X196833333Y-108952380D02*
X196833333Y-107952380D01*
X197214285Y-107952380D01*
X197309523Y-108000000D01*
X197357142Y-108047619D01*
X197404761Y-108142857D01*
X197404761Y-108285714D01*
X197357142Y-108380952D01*
X197309523Y-108428571D01*
X197214285Y-108476190D01*
X196833333Y-108476190D01*
X197690476Y-107952380D02*
X198023809Y-108952380D01*
X198357142Y-107952380D01*
X199214285Y-108952380D02*
X198642857Y-108952380D01*
X198928571Y-108952380D02*
X198928571Y-107952380D01*
X198833333Y-108095238D01*
X198738095Y-108190476D01*
X198642857Y-108238095D01*
%TO.C,D1*%
X174732380Y-85388095D02*
X173732380Y-85388095D01*
X173732380Y-85150000D01*
X173780000Y-85007142D01*
X173875238Y-84911904D01*
X173970476Y-84864285D01*
X174160952Y-84816666D01*
X174303809Y-84816666D01*
X174494285Y-84864285D01*
X174589523Y-84911904D01*
X174684761Y-85007142D01*
X174732380Y-85150000D01*
X174732380Y-85388095D01*
X174732380Y-83864285D02*
X174732380Y-84435714D01*
X174732380Y-84150000D02*
X173732380Y-84150000D01*
X173875238Y-84245238D01*
X173970476Y-84340476D01*
X174018095Y-84435714D01*
X175852380Y-91261904D02*
X174852380Y-91261904D01*
X175852380Y-90690476D02*
X175280952Y-91119047D01*
X174852380Y-90690476D02*
X175423809Y-91261904D01*
%TO.C,J1*%
X66122380Y-114333333D02*
X66836666Y-114333333D01*
X66979523Y-114380952D01*
X67074761Y-114476190D01*
X67122380Y-114619047D01*
X67122380Y-114714285D01*
X67122380Y-113333333D02*
X67122380Y-113904761D01*
X67122380Y-113619047D02*
X66122380Y-113619047D01*
X66265238Y-113714285D01*
X66360476Y-113809523D01*
X66408095Y-113904761D01*
%TO.C,J3*%
X99122380Y-114333333D02*
X99836666Y-114333333D01*
X99979523Y-114380952D01*
X100074761Y-114476190D01*
X100122380Y-114619047D01*
X100122380Y-114714285D01*
X99122380Y-113952380D02*
X99122380Y-113333333D01*
X99503333Y-113666666D01*
X99503333Y-113523809D01*
X99550952Y-113428571D01*
X99598571Y-113380952D01*
X99693809Y-113333333D01*
X99931904Y-113333333D01*
X100027142Y-113380952D01*
X100074761Y-113428571D01*
X100122380Y-113523809D01*
X100122380Y-113809523D01*
X100074761Y-113904761D01*
X100027142Y-113952380D01*
%TO.C,J4*%
X99122380Y-111333333D02*
X99836666Y-111333333D01*
X99979523Y-111380952D01*
X100074761Y-111476190D01*
X100122380Y-111619047D01*
X100122380Y-111714285D01*
X99455714Y-110428571D02*
X100122380Y-110428571D01*
X99074761Y-110666666D02*
X99789047Y-110904761D01*
X99789047Y-110285714D01*
%TO.C,J5*%
X132122380Y-114333333D02*
X132836666Y-114333333D01*
X132979523Y-114380952D01*
X133074761Y-114476190D01*
X133122380Y-114619047D01*
X133122380Y-114714285D01*
X132122380Y-113380952D02*
X132122380Y-113857142D01*
X132598571Y-113904761D01*
X132550952Y-113857142D01*
X132503333Y-113761904D01*
X132503333Y-113523809D01*
X132550952Y-113428571D01*
X132598571Y-113380952D01*
X132693809Y-113333333D01*
X132931904Y-113333333D01*
X133027142Y-113380952D01*
X133074761Y-113428571D01*
X133122380Y-113523809D01*
X133122380Y-113761904D01*
X133074761Y-113857142D01*
X133027142Y-113904761D01*
%TO.C,L1*%
X179833333Y-94452380D02*
X179357142Y-94452380D01*
X179357142Y-93452380D01*
X180690476Y-94452380D02*
X180119047Y-94452380D01*
X180404761Y-94452380D02*
X180404761Y-93452380D01*
X180309523Y-93595238D01*
X180214285Y-93690476D01*
X180119047Y-93738095D01*
%TO.C,Q2*%
X70047619Y-107095238D02*
X70000000Y-107190476D01*
X69904761Y-107285714D01*
X69761904Y-107428571D01*
X69714285Y-107523809D01*
X69714285Y-107619047D01*
X69952380Y-107571428D02*
X69904761Y-107666666D01*
X69809523Y-107761904D01*
X69619047Y-107809523D01*
X69285714Y-107809523D01*
X69095238Y-107761904D01*
X69000000Y-107666666D01*
X68952380Y-107571428D01*
X68952380Y-107380952D01*
X69000000Y-107285714D01*
X69095238Y-107190476D01*
X69285714Y-107142857D01*
X69619047Y-107142857D01*
X69809523Y-107190476D01*
X69904761Y-107285714D01*
X69952380Y-107380952D01*
X69952380Y-107571428D01*
X69047619Y-106761904D02*
X69000000Y-106714285D01*
X68952380Y-106619047D01*
X68952380Y-106380952D01*
X69000000Y-106285714D01*
X69047619Y-106238095D01*
X69142857Y-106190476D01*
X69238095Y-106190476D01*
X69380952Y-106238095D01*
X69952380Y-106809523D01*
X69952380Y-106190476D01*
%TO.C,Q3*%
X70047619Y-102095238D02*
X70000000Y-102190476D01*
X69904761Y-102285714D01*
X69761904Y-102428571D01*
X69714285Y-102523809D01*
X69714285Y-102619047D01*
X69952380Y-102571428D02*
X69904761Y-102666666D01*
X69809523Y-102761904D01*
X69619047Y-102809523D01*
X69285714Y-102809523D01*
X69095238Y-102761904D01*
X69000000Y-102666666D01*
X68952380Y-102571428D01*
X68952380Y-102380952D01*
X69000000Y-102285714D01*
X69095238Y-102190476D01*
X69285714Y-102142857D01*
X69619047Y-102142857D01*
X69809523Y-102190476D01*
X69904761Y-102285714D01*
X69952380Y-102380952D01*
X69952380Y-102571428D01*
X68952380Y-101809523D02*
X68952380Y-101190476D01*
X69333333Y-101523809D01*
X69333333Y-101380952D01*
X69380952Y-101285714D01*
X69428571Y-101238095D01*
X69523809Y-101190476D01*
X69761904Y-101190476D01*
X69857142Y-101238095D01*
X69904761Y-101285714D01*
X69952380Y-101380952D01*
X69952380Y-101666666D01*
X69904761Y-101761904D01*
X69857142Y-101809523D01*
%TO.C,Q4*%
X70047619Y-97095238D02*
X70000000Y-97190476D01*
X69904761Y-97285714D01*
X69761904Y-97428571D01*
X69714285Y-97523809D01*
X69714285Y-97619047D01*
X69952380Y-97571428D02*
X69904761Y-97666666D01*
X69809523Y-97761904D01*
X69619047Y-97809523D01*
X69285714Y-97809523D01*
X69095238Y-97761904D01*
X69000000Y-97666666D01*
X68952380Y-97571428D01*
X68952380Y-97380952D01*
X69000000Y-97285714D01*
X69095238Y-97190476D01*
X69285714Y-97142857D01*
X69619047Y-97142857D01*
X69809523Y-97190476D01*
X69904761Y-97285714D01*
X69952380Y-97380952D01*
X69952380Y-97571428D01*
X69285714Y-96285714D02*
X69952380Y-96285714D01*
X68904761Y-96523809D02*
X69619047Y-96761904D01*
X69619047Y-96142857D01*
%TO.C,Q5*%
X75047619Y-107095238D02*
X75000000Y-107190476D01*
X74904761Y-107285714D01*
X74761904Y-107428571D01*
X74714285Y-107523809D01*
X74714285Y-107619047D01*
X74952380Y-107571428D02*
X74904761Y-107666666D01*
X74809523Y-107761904D01*
X74619047Y-107809523D01*
X74285714Y-107809523D01*
X74095238Y-107761904D01*
X74000000Y-107666666D01*
X73952380Y-107571428D01*
X73952380Y-107380952D01*
X74000000Y-107285714D01*
X74095238Y-107190476D01*
X74285714Y-107142857D01*
X74619047Y-107142857D01*
X74809523Y-107190476D01*
X74904761Y-107285714D01*
X74952380Y-107380952D01*
X74952380Y-107571428D01*
X73952380Y-106238095D02*
X73952380Y-106714285D01*
X74428571Y-106761904D01*
X74380952Y-106714285D01*
X74333333Y-106619047D01*
X74333333Y-106380952D01*
X74380952Y-106285714D01*
X74428571Y-106238095D01*
X74523809Y-106190476D01*
X74761904Y-106190476D01*
X74857142Y-106238095D01*
X74904761Y-106285714D01*
X74952380Y-106380952D01*
X74952380Y-106619047D01*
X74904761Y-106714285D01*
X74857142Y-106761904D01*
%TO.C,Q6*%
X75047619Y-102095238D02*
X75000000Y-102190476D01*
X74904761Y-102285714D01*
X74761904Y-102428571D01*
X74714285Y-102523809D01*
X74714285Y-102619047D01*
X74952380Y-102571428D02*
X74904761Y-102666666D01*
X74809523Y-102761904D01*
X74619047Y-102809523D01*
X74285714Y-102809523D01*
X74095238Y-102761904D01*
X74000000Y-102666666D01*
X73952380Y-102571428D01*
X73952380Y-102380952D01*
X74000000Y-102285714D01*
X74095238Y-102190476D01*
X74285714Y-102142857D01*
X74619047Y-102142857D01*
X74809523Y-102190476D01*
X74904761Y-102285714D01*
X74952380Y-102380952D01*
X74952380Y-102571428D01*
X73952380Y-101285714D02*
X73952380Y-101476190D01*
X74000000Y-101571428D01*
X74047619Y-101619047D01*
X74190476Y-101714285D01*
X74380952Y-101761904D01*
X74761904Y-101761904D01*
X74857142Y-101714285D01*
X74904761Y-101666666D01*
X74952380Y-101571428D01*
X74952380Y-101380952D01*
X74904761Y-101285714D01*
X74857142Y-101238095D01*
X74761904Y-101190476D01*
X74523809Y-101190476D01*
X74428571Y-101238095D01*
X74380952Y-101285714D01*
X74333333Y-101380952D01*
X74333333Y-101571428D01*
X74380952Y-101666666D01*
X74428571Y-101714285D01*
X74523809Y-101761904D01*
%TO.C,Q7*%
X75047619Y-97095238D02*
X75000000Y-97190476D01*
X74904761Y-97285714D01*
X74761904Y-97428571D01*
X74714285Y-97523809D01*
X74714285Y-97619047D01*
X74952380Y-97571428D02*
X74904761Y-97666666D01*
X74809523Y-97761904D01*
X74619047Y-97809523D01*
X74285714Y-97809523D01*
X74095238Y-97761904D01*
X74000000Y-97666666D01*
X73952380Y-97571428D01*
X73952380Y-97380952D01*
X74000000Y-97285714D01*
X74095238Y-97190476D01*
X74285714Y-97142857D01*
X74619047Y-97142857D01*
X74809523Y-97190476D01*
X74904761Y-97285714D01*
X74952380Y-97380952D01*
X74952380Y-97571428D01*
X73952380Y-96809523D02*
X73952380Y-96142857D01*
X74952380Y-96571428D01*
%TO.C,Q8*%
X80047619Y-107095238D02*
X80000000Y-107190476D01*
X79904761Y-107285714D01*
X79761904Y-107428571D01*
X79714285Y-107523809D01*
X79714285Y-107619047D01*
X79952380Y-107571428D02*
X79904761Y-107666666D01*
X79809523Y-107761904D01*
X79619047Y-107809523D01*
X79285714Y-107809523D01*
X79095238Y-107761904D01*
X79000000Y-107666666D01*
X78952380Y-107571428D01*
X78952380Y-107380952D01*
X79000000Y-107285714D01*
X79095238Y-107190476D01*
X79285714Y-107142857D01*
X79619047Y-107142857D01*
X79809523Y-107190476D01*
X79904761Y-107285714D01*
X79952380Y-107380952D01*
X79952380Y-107571428D01*
X79380952Y-106571428D02*
X79333333Y-106666666D01*
X79285714Y-106714285D01*
X79190476Y-106761904D01*
X79142857Y-106761904D01*
X79047619Y-106714285D01*
X79000000Y-106666666D01*
X78952380Y-106571428D01*
X78952380Y-106380952D01*
X79000000Y-106285714D01*
X79047619Y-106238095D01*
X79142857Y-106190476D01*
X79190476Y-106190476D01*
X79285714Y-106238095D01*
X79333333Y-106285714D01*
X79380952Y-106380952D01*
X79380952Y-106571428D01*
X79428571Y-106666666D01*
X79476190Y-106714285D01*
X79571428Y-106761904D01*
X79761904Y-106761904D01*
X79857142Y-106714285D01*
X79904761Y-106666666D01*
X79952380Y-106571428D01*
X79952380Y-106380952D01*
X79904761Y-106285714D01*
X79857142Y-106238095D01*
X79761904Y-106190476D01*
X79571428Y-106190476D01*
X79476190Y-106238095D01*
X79428571Y-106285714D01*
X79380952Y-106380952D01*
%TO.C,Q9*%
X80047619Y-102095238D02*
X80000000Y-102190476D01*
X79904761Y-102285714D01*
X79761904Y-102428571D01*
X79714285Y-102523809D01*
X79714285Y-102619047D01*
X79952380Y-102571428D02*
X79904761Y-102666666D01*
X79809523Y-102761904D01*
X79619047Y-102809523D01*
X79285714Y-102809523D01*
X79095238Y-102761904D01*
X79000000Y-102666666D01*
X78952380Y-102571428D01*
X78952380Y-102380952D01*
X79000000Y-102285714D01*
X79095238Y-102190476D01*
X79285714Y-102142857D01*
X79619047Y-102142857D01*
X79809523Y-102190476D01*
X79904761Y-102285714D01*
X79952380Y-102380952D01*
X79952380Y-102571428D01*
X79952380Y-101666666D02*
X79952380Y-101476190D01*
X79904761Y-101380952D01*
X79857142Y-101333333D01*
X79714285Y-101238095D01*
X79523809Y-101190476D01*
X79142857Y-101190476D01*
X79047619Y-101238095D01*
X79000000Y-101285714D01*
X78952380Y-101380952D01*
X78952380Y-101571428D01*
X79000000Y-101666666D01*
X79047619Y-101714285D01*
X79142857Y-101761904D01*
X79380952Y-101761904D01*
X79476190Y-101714285D01*
X79523809Y-101666666D01*
X79571428Y-101571428D01*
X79571428Y-101380952D01*
X79523809Y-101285714D01*
X79476190Y-101238095D01*
X79380952Y-101190476D01*
%TO.C,Q10*%
X80047619Y-97571428D02*
X80000000Y-97666666D01*
X79904761Y-97761904D01*
X79761904Y-97904761D01*
X79714285Y-98000000D01*
X79714285Y-98095238D01*
X79952380Y-98047619D02*
X79904761Y-98142857D01*
X79809523Y-98238095D01*
X79619047Y-98285714D01*
X79285714Y-98285714D01*
X79095238Y-98238095D01*
X79000000Y-98142857D01*
X78952380Y-98047619D01*
X78952380Y-97857142D01*
X79000000Y-97761904D01*
X79095238Y-97666666D01*
X79285714Y-97619047D01*
X79619047Y-97619047D01*
X79809523Y-97666666D01*
X79904761Y-97761904D01*
X79952380Y-97857142D01*
X79952380Y-98047619D01*
X79952380Y-96666666D02*
X79952380Y-97238095D01*
X79952380Y-96952380D02*
X78952380Y-96952380D01*
X79095238Y-97047619D01*
X79190476Y-97142857D01*
X79238095Y-97238095D01*
X78952380Y-96047619D02*
X78952380Y-95952380D01*
X79000000Y-95857142D01*
X79047619Y-95809523D01*
X79142857Y-95761904D01*
X79333333Y-95714285D01*
X79571428Y-95714285D01*
X79761904Y-95761904D01*
X79857142Y-95809523D01*
X79904761Y-95857142D01*
X79952380Y-95952380D01*
X79952380Y-96047619D01*
X79904761Y-96142857D01*
X79857142Y-96190476D01*
X79761904Y-96238095D01*
X79571428Y-96285714D01*
X79333333Y-96285714D01*
X79142857Y-96238095D01*
X79047619Y-96190476D01*
X79000000Y-96142857D01*
X78952380Y-96047619D01*
%TO.C,Q11*%
X85047619Y-107571428D02*
X85000000Y-107666666D01*
X84904761Y-107761904D01*
X84761904Y-107904761D01*
X84714285Y-108000000D01*
X84714285Y-108095238D01*
X84952380Y-108047619D02*
X84904761Y-108142857D01*
X84809523Y-108238095D01*
X84619047Y-108285714D01*
X84285714Y-108285714D01*
X84095238Y-108238095D01*
X84000000Y-108142857D01*
X83952380Y-108047619D01*
X83952380Y-107857142D01*
X84000000Y-107761904D01*
X84095238Y-107666666D01*
X84285714Y-107619047D01*
X84619047Y-107619047D01*
X84809523Y-107666666D01*
X84904761Y-107761904D01*
X84952380Y-107857142D01*
X84952380Y-108047619D01*
X84952380Y-106666666D02*
X84952380Y-107238095D01*
X84952380Y-106952380D02*
X83952380Y-106952380D01*
X84095238Y-107047619D01*
X84190476Y-107142857D01*
X84238095Y-107238095D01*
X84952380Y-105714285D02*
X84952380Y-106285714D01*
X84952380Y-106000000D02*
X83952380Y-106000000D01*
X84095238Y-106095238D01*
X84190476Y-106190476D01*
X84238095Y-106285714D01*
%TO.C,Q12*%
X85047619Y-102571428D02*
X85000000Y-102666666D01*
X84904761Y-102761904D01*
X84761904Y-102904761D01*
X84714285Y-103000000D01*
X84714285Y-103095238D01*
X84952380Y-103047619D02*
X84904761Y-103142857D01*
X84809523Y-103238095D01*
X84619047Y-103285714D01*
X84285714Y-103285714D01*
X84095238Y-103238095D01*
X84000000Y-103142857D01*
X83952380Y-103047619D01*
X83952380Y-102857142D01*
X84000000Y-102761904D01*
X84095238Y-102666666D01*
X84285714Y-102619047D01*
X84619047Y-102619047D01*
X84809523Y-102666666D01*
X84904761Y-102761904D01*
X84952380Y-102857142D01*
X84952380Y-103047619D01*
X84952380Y-101666666D02*
X84952380Y-102238095D01*
X84952380Y-101952380D02*
X83952380Y-101952380D01*
X84095238Y-102047619D01*
X84190476Y-102142857D01*
X84238095Y-102238095D01*
X84047619Y-101285714D02*
X84000000Y-101238095D01*
X83952380Y-101142857D01*
X83952380Y-100904761D01*
X84000000Y-100809523D01*
X84047619Y-100761904D01*
X84142857Y-100714285D01*
X84238095Y-100714285D01*
X84380952Y-100761904D01*
X84952380Y-101333333D01*
X84952380Y-100714285D01*
%TO.C,Q13*%
X85047619Y-97571428D02*
X85000000Y-97666666D01*
X84904761Y-97761904D01*
X84761904Y-97904761D01*
X84714285Y-98000000D01*
X84714285Y-98095238D01*
X84952380Y-98047619D02*
X84904761Y-98142857D01*
X84809523Y-98238095D01*
X84619047Y-98285714D01*
X84285714Y-98285714D01*
X84095238Y-98238095D01*
X84000000Y-98142857D01*
X83952380Y-98047619D01*
X83952380Y-97857142D01*
X84000000Y-97761904D01*
X84095238Y-97666666D01*
X84285714Y-97619047D01*
X84619047Y-97619047D01*
X84809523Y-97666666D01*
X84904761Y-97761904D01*
X84952380Y-97857142D01*
X84952380Y-98047619D01*
X84952380Y-96666666D02*
X84952380Y-97238095D01*
X84952380Y-96952380D02*
X83952380Y-96952380D01*
X84095238Y-97047619D01*
X84190476Y-97142857D01*
X84238095Y-97238095D01*
X83952380Y-96333333D02*
X83952380Y-95714285D01*
X84333333Y-96047619D01*
X84333333Y-95904761D01*
X84380952Y-95809523D01*
X84428571Y-95761904D01*
X84523809Y-95714285D01*
X84761904Y-95714285D01*
X84857142Y-95761904D01*
X84904761Y-95809523D01*
X84952380Y-95904761D01*
X84952380Y-96190476D01*
X84904761Y-96285714D01*
X84857142Y-96333333D01*
%TO.C,Q14*%
X90047619Y-107571428D02*
X90000000Y-107666666D01*
X89904761Y-107761904D01*
X89761904Y-107904761D01*
X89714285Y-108000000D01*
X89714285Y-108095238D01*
X89952380Y-108047619D02*
X89904761Y-108142857D01*
X89809523Y-108238095D01*
X89619047Y-108285714D01*
X89285714Y-108285714D01*
X89095238Y-108238095D01*
X89000000Y-108142857D01*
X88952380Y-108047619D01*
X88952380Y-107857142D01*
X89000000Y-107761904D01*
X89095238Y-107666666D01*
X89285714Y-107619047D01*
X89619047Y-107619047D01*
X89809523Y-107666666D01*
X89904761Y-107761904D01*
X89952380Y-107857142D01*
X89952380Y-108047619D01*
X89952380Y-106666666D02*
X89952380Y-107238095D01*
X89952380Y-106952380D02*
X88952380Y-106952380D01*
X89095238Y-107047619D01*
X89190476Y-107142857D01*
X89238095Y-107238095D01*
X89285714Y-105809523D02*
X89952380Y-105809523D01*
X88904761Y-106047619D02*
X89619047Y-106285714D01*
X89619047Y-105666666D01*
%TO.C,Q15*%
X90047619Y-102571428D02*
X90000000Y-102666666D01*
X89904761Y-102761904D01*
X89761904Y-102904761D01*
X89714285Y-103000000D01*
X89714285Y-103095238D01*
X89952380Y-103047619D02*
X89904761Y-103142857D01*
X89809523Y-103238095D01*
X89619047Y-103285714D01*
X89285714Y-103285714D01*
X89095238Y-103238095D01*
X89000000Y-103142857D01*
X88952380Y-103047619D01*
X88952380Y-102857142D01*
X89000000Y-102761904D01*
X89095238Y-102666666D01*
X89285714Y-102619047D01*
X89619047Y-102619047D01*
X89809523Y-102666666D01*
X89904761Y-102761904D01*
X89952380Y-102857142D01*
X89952380Y-103047619D01*
X89952380Y-101666666D02*
X89952380Y-102238095D01*
X89952380Y-101952380D02*
X88952380Y-101952380D01*
X89095238Y-102047619D01*
X89190476Y-102142857D01*
X89238095Y-102238095D01*
X88952380Y-100761904D02*
X88952380Y-101238095D01*
X89428571Y-101285714D01*
X89380952Y-101238095D01*
X89333333Y-101142857D01*
X89333333Y-100904761D01*
X89380952Y-100809523D01*
X89428571Y-100761904D01*
X89523809Y-100714285D01*
X89761904Y-100714285D01*
X89857142Y-100761904D01*
X89904761Y-100809523D01*
X89952380Y-100904761D01*
X89952380Y-101142857D01*
X89904761Y-101238095D01*
X89857142Y-101285714D01*
%TO.C,Q16*%
X90047619Y-97571428D02*
X90000000Y-97666666D01*
X89904761Y-97761904D01*
X89761904Y-97904761D01*
X89714285Y-98000000D01*
X89714285Y-98095238D01*
X89952380Y-98047619D02*
X89904761Y-98142857D01*
X89809523Y-98238095D01*
X89619047Y-98285714D01*
X89285714Y-98285714D01*
X89095238Y-98238095D01*
X89000000Y-98142857D01*
X88952380Y-98047619D01*
X88952380Y-97857142D01*
X89000000Y-97761904D01*
X89095238Y-97666666D01*
X89285714Y-97619047D01*
X89619047Y-97619047D01*
X89809523Y-97666666D01*
X89904761Y-97761904D01*
X89952380Y-97857142D01*
X89952380Y-98047619D01*
X89952380Y-96666666D02*
X89952380Y-97238095D01*
X89952380Y-96952380D02*
X88952380Y-96952380D01*
X89095238Y-97047619D01*
X89190476Y-97142857D01*
X89238095Y-97238095D01*
X88952380Y-95809523D02*
X88952380Y-96000000D01*
X89000000Y-96095238D01*
X89047619Y-96142857D01*
X89190476Y-96238095D01*
X89380952Y-96285714D01*
X89761904Y-96285714D01*
X89857142Y-96238095D01*
X89904761Y-96190476D01*
X89952380Y-96095238D01*
X89952380Y-95904761D01*
X89904761Y-95809523D01*
X89857142Y-95761904D01*
X89761904Y-95714285D01*
X89523809Y-95714285D01*
X89428571Y-95761904D01*
X89380952Y-95809523D01*
X89333333Y-95904761D01*
X89333333Y-96095238D01*
X89380952Y-96190476D01*
X89428571Y-96238095D01*
X89523809Y-96285714D01*
%TO.C,Q17*%
X95047619Y-107571428D02*
X95000000Y-107666666D01*
X94904761Y-107761904D01*
X94761904Y-107904761D01*
X94714285Y-108000000D01*
X94714285Y-108095238D01*
X94952380Y-108047619D02*
X94904761Y-108142857D01*
X94809523Y-108238095D01*
X94619047Y-108285714D01*
X94285714Y-108285714D01*
X94095238Y-108238095D01*
X94000000Y-108142857D01*
X93952380Y-108047619D01*
X93952380Y-107857142D01*
X94000000Y-107761904D01*
X94095238Y-107666666D01*
X94285714Y-107619047D01*
X94619047Y-107619047D01*
X94809523Y-107666666D01*
X94904761Y-107761904D01*
X94952380Y-107857142D01*
X94952380Y-108047619D01*
X94952380Y-106666666D02*
X94952380Y-107238095D01*
X94952380Y-106952380D02*
X93952380Y-106952380D01*
X94095238Y-107047619D01*
X94190476Y-107142857D01*
X94238095Y-107238095D01*
X93952380Y-106333333D02*
X93952380Y-105666666D01*
X94952380Y-106095238D01*
%TO.C,Q18*%
X95047619Y-102571428D02*
X95000000Y-102666666D01*
X94904761Y-102761904D01*
X94761904Y-102904761D01*
X94714285Y-103000000D01*
X94714285Y-103095238D01*
X94952380Y-103047619D02*
X94904761Y-103142857D01*
X94809523Y-103238095D01*
X94619047Y-103285714D01*
X94285714Y-103285714D01*
X94095238Y-103238095D01*
X94000000Y-103142857D01*
X93952380Y-103047619D01*
X93952380Y-102857142D01*
X94000000Y-102761904D01*
X94095238Y-102666666D01*
X94285714Y-102619047D01*
X94619047Y-102619047D01*
X94809523Y-102666666D01*
X94904761Y-102761904D01*
X94952380Y-102857142D01*
X94952380Y-103047619D01*
X94952380Y-101666666D02*
X94952380Y-102238095D01*
X94952380Y-101952380D02*
X93952380Y-101952380D01*
X94095238Y-102047619D01*
X94190476Y-102142857D01*
X94238095Y-102238095D01*
X94380952Y-101095238D02*
X94333333Y-101190476D01*
X94285714Y-101238095D01*
X94190476Y-101285714D01*
X94142857Y-101285714D01*
X94047619Y-101238095D01*
X94000000Y-101190476D01*
X93952380Y-101095238D01*
X93952380Y-100904761D01*
X94000000Y-100809523D01*
X94047619Y-100761904D01*
X94142857Y-100714285D01*
X94190476Y-100714285D01*
X94285714Y-100761904D01*
X94333333Y-100809523D01*
X94380952Y-100904761D01*
X94380952Y-101095238D01*
X94428571Y-101190476D01*
X94476190Y-101238095D01*
X94571428Y-101285714D01*
X94761904Y-101285714D01*
X94857142Y-101238095D01*
X94904761Y-101190476D01*
X94952380Y-101095238D01*
X94952380Y-100904761D01*
X94904761Y-100809523D01*
X94857142Y-100761904D01*
X94761904Y-100714285D01*
X94571428Y-100714285D01*
X94476190Y-100761904D01*
X94428571Y-100809523D01*
X94380952Y-100904761D01*
%TO.C,Q19*%
X95047619Y-97571428D02*
X95000000Y-97666666D01*
X94904761Y-97761904D01*
X94761904Y-97904761D01*
X94714285Y-98000000D01*
X94714285Y-98095238D01*
X94952380Y-98047619D02*
X94904761Y-98142857D01*
X94809523Y-98238095D01*
X94619047Y-98285714D01*
X94285714Y-98285714D01*
X94095238Y-98238095D01*
X94000000Y-98142857D01*
X93952380Y-98047619D01*
X93952380Y-97857142D01*
X94000000Y-97761904D01*
X94095238Y-97666666D01*
X94285714Y-97619047D01*
X94619047Y-97619047D01*
X94809523Y-97666666D01*
X94904761Y-97761904D01*
X94952380Y-97857142D01*
X94952380Y-98047619D01*
X94952380Y-96666666D02*
X94952380Y-97238095D01*
X94952380Y-96952380D02*
X93952380Y-96952380D01*
X94095238Y-97047619D01*
X94190476Y-97142857D01*
X94238095Y-97238095D01*
X94952380Y-96190476D02*
X94952380Y-96000000D01*
X94904761Y-95904761D01*
X94857142Y-95857142D01*
X94714285Y-95761904D01*
X94523809Y-95714285D01*
X94142857Y-95714285D01*
X94047619Y-95761904D01*
X94000000Y-95809523D01*
X93952380Y-95904761D01*
X93952380Y-96095238D01*
X94000000Y-96190476D01*
X94047619Y-96238095D01*
X94142857Y-96285714D01*
X94380952Y-96285714D01*
X94476190Y-96238095D01*
X94523809Y-96190476D01*
X94571428Y-96095238D01*
X94571428Y-95904761D01*
X94523809Y-95809523D01*
X94476190Y-95761904D01*
X94380952Y-95714285D01*
%TO.C,Q20*%
X100047619Y-107571428D02*
X100000000Y-107666666D01*
X99904761Y-107761904D01*
X99761904Y-107904761D01*
X99714285Y-108000000D01*
X99714285Y-108095238D01*
X99952380Y-108047619D02*
X99904761Y-108142857D01*
X99809523Y-108238095D01*
X99619047Y-108285714D01*
X99285714Y-108285714D01*
X99095238Y-108238095D01*
X99000000Y-108142857D01*
X98952380Y-108047619D01*
X98952380Y-107857142D01*
X99000000Y-107761904D01*
X99095238Y-107666666D01*
X99285714Y-107619047D01*
X99619047Y-107619047D01*
X99809523Y-107666666D01*
X99904761Y-107761904D01*
X99952380Y-107857142D01*
X99952380Y-108047619D01*
X99047619Y-107238095D02*
X99000000Y-107190476D01*
X98952380Y-107095238D01*
X98952380Y-106857142D01*
X99000000Y-106761904D01*
X99047619Y-106714285D01*
X99142857Y-106666666D01*
X99238095Y-106666666D01*
X99380952Y-106714285D01*
X99952380Y-107285714D01*
X99952380Y-106666666D01*
X98952380Y-106047619D02*
X98952380Y-105952380D01*
X99000000Y-105857142D01*
X99047619Y-105809523D01*
X99142857Y-105761904D01*
X99333333Y-105714285D01*
X99571428Y-105714285D01*
X99761904Y-105761904D01*
X99857142Y-105809523D01*
X99904761Y-105857142D01*
X99952380Y-105952380D01*
X99952380Y-106047619D01*
X99904761Y-106142857D01*
X99857142Y-106190476D01*
X99761904Y-106238095D01*
X99571428Y-106285714D01*
X99333333Y-106285714D01*
X99142857Y-106238095D01*
X99047619Y-106190476D01*
X99000000Y-106142857D01*
X98952380Y-106047619D01*
%TO.C,Q21*%
X100047619Y-102571428D02*
X100000000Y-102666666D01*
X99904761Y-102761904D01*
X99761904Y-102904761D01*
X99714285Y-103000000D01*
X99714285Y-103095238D01*
X99952380Y-103047619D02*
X99904761Y-103142857D01*
X99809523Y-103238095D01*
X99619047Y-103285714D01*
X99285714Y-103285714D01*
X99095238Y-103238095D01*
X99000000Y-103142857D01*
X98952380Y-103047619D01*
X98952380Y-102857142D01*
X99000000Y-102761904D01*
X99095238Y-102666666D01*
X99285714Y-102619047D01*
X99619047Y-102619047D01*
X99809523Y-102666666D01*
X99904761Y-102761904D01*
X99952380Y-102857142D01*
X99952380Y-103047619D01*
X99047619Y-102238095D02*
X99000000Y-102190476D01*
X98952380Y-102095238D01*
X98952380Y-101857142D01*
X99000000Y-101761904D01*
X99047619Y-101714285D01*
X99142857Y-101666666D01*
X99238095Y-101666666D01*
X99380952Y-101714285D01*
X99952380Y-102285714D01*
X99952380Y-101666666D01*
X99952380Y-100714285D02*
X99952380Y-101285714D01*
X99952380Y-101000000D02*
X98952380Y-101000000D01*
X99095238Y-101095238D01*
X99190476Y-101190476D01*
X99238095Y-101285714D01*
%TO.C,Q22*%
X100047619Y-97571428D02*
X100000000Y-97666666D01*
X99904761Y-97761904D01*
X99761904Y-97904761D01*
X99714285Y-98000000D01*
X99714285Y-98095238D01*
X99952380Y-98047619D02*
X99904761Y-98142857D01*
X99809523Y-98238095D01*
X99619047Y-98285714D01*
X99285714Y-98285714D01*
X99095238Y-98238095D01*
X99000000Y-98142857D01*
X98952380Y-98047619D01*
X98952380Y-97857142D01*
X99000000Y-97761904D01*
X99095238Y-97666666D01*
X99285714Y-97619047D01*
X99619047Y-97619047D01*
X99809523Y-97666666D01*
X99904761Y-97761904D01*
X99952380Y-97857142D01*
X99952380Y-98047619D01*
X99047619Y-97238095D02*
X99000000Y-97190476D01*
X98952380Y-97095238D01*
X98952380Y-96857142D01*
X99000000Y-96761904D01*
X99047619Y-96714285D01*
X99142857Y-96666666D01*
X99238095Y-96666666D01*
X99380952Y-96714285D01*
X99952380Y-97285714D01*
X99952380Y-96666666D01*
X99047619Y-96285714D02*
X99000000Y-96238095D01*
X98952380Y-96142857D01*
X98952380Y-95904761D01*
X99000000Y-95809523D01*
X99047619Y-95761904D01*
X99142857Y-95714285D01*
X99238095Y-95714285D01*
X99380952Y-95761904D01*
X99952380Y-96333333D01*
X99952380Y-95714285D01*
%TO.C,Q23*%
X105047619Y-107571428D02*
X105000000Y-107666666D01*
X104904761Y-107761904D01*
X104761904Y-107904761D01*
X104714285Y-108000000D01*
X104714285Y-108095238D01*
X104952380Y-108047619D02*
X104904761Y-108142857D01*
X104809523Y-108238095D01*
X104619047Y-108285714D01*
X104285714Y-108285714D01*
X104095238Y-108238095D01*
X104000000Y-108142857D01*
X103952380Y-108047619D01*
X103952380Y-107857142D01*
X104000000Y-107761904D01*
X104095238Y-107666666D01*
X104285714Y-107619047D01*
X104619047Y-107619047D01*
X104809523Y-107666666D01*
X104904761Y-107761904D01*
X104952380Y-107857142D01*
X104952380Y-108047619D01*
X104047619Y-107238095D02*
X104000000Y-107190476D01*
X103952380Y-107095238D01*
X103952380Y-106857142D01*
X104000000Y-106761904D01*
X104047619Y-106714285D01*
X104142857Y-106666666D01*
X104238095Y-106666666D01*
X104380952Y-106714285D01*
X104952380Y-107285714D01*
X104952380Y-106666666D01*
X103952380Y-106333333D02*
X103952380Y-105714285D01*
X104333333Y-106047619D01*
X104333333Y-105904761D01*
X104380952Y-105809523D01*
X104428571Y-105761904D01*
X104523809Y-105714285D01*
X104761904Y-105714285D01*
X104857142Y-105761904D01*
X104904761Y-105809523D01*
X104952380Y-105904761D01*
X104952380Y-106190476D01*
X104904761Y-106285714D01*
X104857142Y-106333333D01*
%TO.C,Q24*%
X105047619Y-102571428D02*
X105000000Y-102666666D01*
X104904761Y-102761904D01*
X104761904Y-102904761D01*
X104714285Y-103000000D01*
X104714285Y-103095238D01*
X104952380Y-103047619D02*
X104904761Y-103142857D01*
X104809523Y-103238095D01*
X104619047Y-103285714D01*
X104285714Y-103285714D01*
X104095238Y-103238095D01*
X104000000Y-103142857D01*
X103952380Y-103047619D01*
X103952380Y-102857142D01*
X104000000Y-102761904D01*
X104095238Y-102666666D01*
X104285714Y-102619047D01*
X104619047Y-102619047D01*
X104809523Y-102666666D01*
X104904761Y-102761904D01*
X104952380Y-102857142D01*
X104952380Y-103047619D01*
X104047619Y-102238095D02*
X104000000Y-102190476D01*
X103952380Y-102095238D01*
X103952380Y-101857142D01*
X104000000Y-101761904D01*
X104047619Y-101714285D01*
X104142857Y-101666666D01*
X104238095Y-101666666D01*
X104380952Y-101714285D01*
X104952380Y-102285714D01*
X104952380Y-101666666D01*
X104285714Y-100809523D02*
X104952380Y-100809523D01*
X103904761Y-101047619D02*
X104619047Y-101285714D01*
X104619047Y-100666666D01*
%TO.C,Q25*%
X105047619Y-97571428D02*
X105000000Y-97666666D01*
X104904761Y-97761904D01*
X104761904Y-97904761D01*
X104714285Y-98000000D01*
X104714285Y-98095238D01*
X104952380Y-98047619D02*
X104904761Y-98142857D01*
X104809523Y-98238095D01*
X104619047Y-98285714D01*
X104285714Y-98285714D01*
X104095238Y-98238095D01*
X104000000Y-98142857D01*
X103952380Y-98047619D01*
X103952380Y-97857142D01*
X104000000Y-97761904D01*
X104095238Y-97666666D01*
X104285714Y-97619047D01*
X104619047Y-97619047D01*
X104809523Y-97666666D01*
X104904761Y-97761904D01*
X104952380Y-97857142D01*
X104952380Y-98047619D01*
X104047619Y-97238095D02*
X104000000Y-97190476D01*
X103952380Y-97095238D01*
X103952380Y-96857142D01*
X104000000Y-96761904D01*
X104047619Y-96714285D01*
X104142857Y-96666666D01*
X104238095Y-96666666D01*
X104380952Y-96714285D01*
X104952380Y-97285714D01*
X104952380Y-96666666D01*
X103952380Y-95761904D02*
X103952380Y-96238095D01*
X104428571Y-96285714D01*
X104380952Y-96238095D01*
X104333333Y-96142857D01*
X104333333Y-95904761D01*
X104380952Y-95809523D01*
X104428571Y-95761904D01*
X104523809Y-95714285D01*
X104761904Y-95714285D01*
X104857142Y-95761904D01*
X104904761Y-95809523D01*
X104952380Y-95904761D01*
X104952380Y-96142857D01*
X104904761Y-96238095D01*
X104857142Y-96285714D01*
%TO.C,Q26*%
X110047619Y-107571428D02*
X110000000Y-107666666D01*
X109904761Y-107761904D01*
X109761904Y-107904761D01*
X109714285Y-108000000D01*
X109714285Y-108095238D01*
X109952380Y-108047619D02*
X109904761Y-108142857D01*
X109809523Y-108238095D01*
X109619047Y-108285714D01*
X109285714Y-108285714D01*
X109095238Y-108238095D01*
X109000000Y-108142857D01*
X108952380Y-108047619D01*
X108952380Y-107857142D01*
X109000000Y-107761904D01*
X109095238Y-107666666D01*
X109285714Y-107619047D01*
X109619047Y-107619047D01*
X109809523Y-107666666D01*
X109904761Y-107761904D01*
X109952380Y-107857142D01*
X109952380Y-108047619D01*
X109047619Y-107238095D02*
X109000000Y-107190476D01*
X108952380Y-107095238D01*
X108952380Y-106857142D01*
X109000000Y-106761904D01*
X109047619Y-106714285D01*
X109142857Y-106666666D01*
X109238095Y-106666666D01*
X109380952Y-106714285D01*
X109952380Y-107285714D01*
X109952380Y-106666666D01*
X108952380Y-105809523D02*
X108952380Y-106000000D01*
X109000000Y-106095238D01*
X109047619Y-106142857D01*
X109190476Y-106238095D01*
X109380952Y-106285714D01*
X109761904Y-106285714D01*
X109857142Y-106238095D01*
X109904761Y-106190476D01*
X109952380Y-106095238D01*
X109952380Y-105904761D01*
X109904761Y-105809523D01*
X109857142Y-105761904D01*
X109761904Y-105714285D01*
X109523809Y-105714285D01*
X109428571Y-105761904D01*
X109380952Y-105809523D01*
X109333333Y-105904761D01*
X109333333Y-106095238D01*
X109380952Y-106190476D01*
X109428571Y-106238095D01*
X109523809Y-106285714D01*
%TO.C,Q27*%
X110047619Y-102571428D02*
X110000000Y-102666666D01*
X109904761Y-102761904D01*
X109761904Y-102904761D01*
X109714285Y-103000000D01*
X109714285Y-103095238D01*
X109952380Y-103047619D02*
X109904761Y-103142857D01*
X109809523Y-103238095D01*
X109619047Y-103285714D01*
X109285714Y-103285714D01*
X109095238Y-103238095D01*
X109000000Y-103142857D01*
X108952380Y-103047619D01*
X108952380Y-102857142D01*
X109000000Y-102761904D01*
X109095238Y-102666666D01*
X109285714Y-102619047D01*
X109619047Y-102619047D01*
X109809523Y-102666666D01*
X109904761Y-102761904D01*
X109952380Y-102857142D01*
X109952380Y-103047619D01*
X109047619Y-102238095D02*
X109000000Y-102190476D01*
X108952380Y-102095238D01*
X108952380Y-101857142D01*
X109000000Y-101761904D01*
X109047619Y-101714285D01*
X109142857Y-101666666D01*
X109238095Y-101666666D01*
X109380952Y-101714285D01*
X109952380Y-102285714D01*
X109952380Y-101666666D01*
X108952380Y-101333333D02*
X108952380Y-100666666D01*
X109952380Y-101095238D01*
%TO.C,Q28*%
X110047619Y-97571428D02*
X110000000Y-97666666D01*
X109904761Y-97761904D01*
X109761904Y-97904761D01*
X109714285Y-98000000D01*
X109714285Y-98095238D01*
X109952380Y-98047619D02*
X109904761Y-98142857D01*
X109809523Y-98238095D01*
X109619047Y-98285714D01*
X109285714Y-98285714D01*
X109095238Y-98238095D01*
X109000000Y-98142857D01*
X108952380Y-98047619D01*
X108952380Y-97857142D01*
X109000000Y-97761904D01*
X109095238Y-97666666D01*
X109285714Y-97619047D01*
X109619047Y-97619047D01*
X109809523Y-97666666D01*
X109904761Y-97761904D01*
X109952380Y-97857142D01*
X109952380Y-98047619D01*
X109047619Y-97238095D02*
X109000000Y-97190476D01*
X108952380Y-97095238D01*
X108952380Y-96857142D01*
X109000000Y-96761904D01*
X109047619Y-96714285D01*
X109142857Y-96666666D01*
X109238095Y-96666666D01*
X109380952Y-96714285D01*
X109952380Y-97285714D01*
X109952380Y-96666666D01*
X109380952Y-96095238D02*
X109333333Y-96190476D01*
X109285714Y-96238095D01*
X109190476Y-96285714D01*
X109142857Y-96285714D01*
X109047619Y-96238095D01*
X109000000Y-96190476D01*
X108952380Y-96095238D01*
X108952380Y-95904761D01*
X109000000Y-95809523D01*
X109047619Y-95761904D01*
X109142857Y-95714285D01*
X109190476Y-95714285D01*
X109285714Y-95761904D01*
X109333333Y-95809523D01*
X109380952Y-95904761D01*
X109380952Y-96095238D01*
X109428571Y-96190476D01*
X109476190Y-96238095D01*
X109571428Y-96285714D01*
X109761904Y-96285714D01*
X109857142Y-96238095D01*
X109904761Y-96190476D01*
X109952380Y-96095238D01*
X109952380Y-95904761D01*
X109904761Y-95809523D01*
X109857142Y-95761904D01*
X109761904Y-95714285D01*
X109571428Y-95714285D01*
X109476190Y-95761904D01*
X109428571Y-95809523D01*
X109380952Y-95904761D01*
%TO.C,Q29*%
X115047619Y-107571428D02*
X115000000Y-107666666D01*
X114904761Y-107761904D01*
X114761904Y-107904761D01*
X114714285Y-108000000D01*
X114714285Y-108095238D01*
X114952380Y-108047619D02*
X114904761Y-108142857D01*
X114809523Y-108238095D01*
X114619047Y-108285714D01*
X114285714Y-108285714D01*
X114095238Y-108238095D01*
X114000000Y-108142857D01*
X113952380Y-108047619D01*
X113952380Y-107857142D01*
X114000000Y-107761904D01*
X114095238Y-107666666D01*
X114285714Y-107619047D01*
X114619047Y-107619047D01*
X114809523Y-107666666D01*
X114904761Y-107761904D01*
X114952380Y-107857142D01*
X114952380Y-108047619D01*
X114047619Y-107238095D02*
X114000000Y-107190476D01*
X113952380Y-107095238D01*
X113952380Y-106857142D01*
X114000000Y-106761904D01*
X114047619Y-106714285D01*
X114142857Y-106666666D01*
X114238095Y-106666666D01*
X114380952Y-106714285D01*
X114952380Y-107285714D01*
X114952380Y-106666666D01*
X114952380Y-106190476D02*
X114952380Y-106000000D01*
X114904761Y-105904761D01*
X114857142Y-105857142D01*
X114714285Y-105761904D01*
X114523809Y-105714285D01*
X114142857Y-105714285D01*
X114047619Y-105761904D01*
X114000000Y-105809523D01*
X113952380Y-105904761D01*
X113952380Y-106095238D01*
X114000000Y-106190476D01*
X114047619Y-106238095D01*
X114142857Y-106285714D01*
X114380952Y-106285714D01*
X114476190Y-106238095D01*
X114523809Y-106190476D01*
X114571428Y-106095238D01*
X114571428Y-105904761D01*
X114523809Y-105809523D01*
X114476190Y-105761904D01*
X114380952Y-105714285D01*
%TO.C,Q30*%
X115047619Y-102571428D02*
X115000000Y-102666666D01*
X114904761Y-102761904D01*
X114761904Y-102904761D01*
X114714285Y-103000000D01*
X114714285Y-103095238D01*
X114952380Y-103047619D02*
X114904761Y-103142857D01*
X114809523Y-103238095D01*
X114619047Y-103285714D01*
X114285714Y-103285714D01*
X114095238Y-103238095D01*
X114000000Y-103142857D01*
X113952380Y-103047619D01*
X113952380Y-102857142D01*
X114000000Y-102761904D01*
X114095238Y-102666666D01*
X114285714Y-102619047D01*
X114619047Y-102619047D01*
X114809523Y-102666666D01*
X114904761Y-102761904D01*
X114952380Y-102857142D01*
X114952380Y-103047619D01*
X113952380Y-102285714D02*
X113952380Y-101666666D01*
X114333333Y-102000000D01*
X114333333Y-101857142D01*
X114380952Y-101761904D01*
X114428571Y-101714285D01*
X114523809Y-101666666D01*
X114761904Y-101666666D01*
X114857142Y-101714285D01*
X114904761Y-101761904D01*
X114952380Y-101857142D01*
X114952380Y-102142857D01*
X114904761Y-102238095D01*
X114857142Y-102285714D01*
X113952380Y-101047619D02*
X113952380Y-100952380D01*
X114000000Y-100857142D01*
X114047619Y-100809523D01*
X114142857Y-100761904D01*
X114333333Y-100714285D01*
X114571428Y-100714285D01*
X114761904Y-100761904D01*
X114857142Y-100809523D01*
X114904761Y-100857142D01*
X114952380Y-100952380D01*
X114952380Y-101047619D01*
X114904761Y-101142857D01*
X114857142Y-101190476D01*
X114761904Y-101238095D01*
X114571428Y-101285714D01*
X114333333Y-101285714D01*
X114142857Y-101238095D01*
X114047619Y-101190476D01*
X114000000Y-101142857D01*
X113952380Y-101047619D01*
%TO.C,Q31*%
X115047619Y-97571428D02*
X115000000Y-97666666D01*
X114904761Y-97761904D01*
X114761904Y-97904761D01*
X114714285Y-98000000D01*
X114714285Y-98095238D01*
X114952380Y-98047619D02*
X114904761Y-98142857D01*
X114809523Y-98238095D01*
X114619047Y-98285714D01*
X114285714Y-98285714D01*
X114095238Y-98238095D01*
X114000000Y-98142857D01*
X113952380Y-98047619D01*
X113952380Y-97857142D01*
X114000000Y-97761904D01*
X114095238Y-97666666D01*
X114285714Y-97619047D01*
X114619047Y-97619047D01*
X114809523Y-97666666D01*
X114904761Y-97761904D01*
X114952380Y-97857142D01*
X114952380Y-98047619D01*
X113952380Y-97285714D02*
X113952380Y-96666666D01*
X114333333Y-97000000D01*
X114333333Y-96857142D01*
X114380952Y-96761904D01*
X114428571Y-96714285D01*
X114523809Y-96666666D01*
X114761904Y-96666666D01*
X114857142Y-96714285D01*
X114904761Y-96761904D01*
X114952380Y-96857142D01*
X114952380Y-97142857D01*
X114904761Y-97238095D01*
X114857142Y-97285714D01*
X114952380Y-95714285D02*
X114952380Y-96285714D01*
X114952380Y-96000000D02*
X113952380Y-96000000D01*
X114095238Y-96095238D01*
X114190476Y-96190476D01*
X114238095Y-96285714D01*
%TO.C,Q32*%
X120047619Y-107571428D02*
X120000000Y-107666666D01*
X119904761Y-107761904D01*
X119761904Y-107904761D01*
X119714285Y-108000000D01*
X119714285Y-108095238D01*
X119952380Y-108047619D02*
X119904761Y-108142857D01*
X119809523Y-108238095D01*
X119619047Y-108285714D01*
X119285714Y-108285714D01*
X119095238Y-108238095D01*
X119000000Y-108142857D01*
X118952380Y-108047619D01*
X118952380Y-107857142D01*
X119000000Y-107761904D01*
X119095238Y-107666666D01*
X119285714Y-107619047D01*
X119619047Y-107619047D01*
X119809523Y-107666666D01*
X119904761Y-107761904D01*
X119952380Y-107857142D01*
X119952380Y-108047619D01*
X118952380Y-107285714D02*
X118952380Y-106666666D01*
X119333333Y-107000000D01*
X119333333Y-106857142D01*
X119380952Y-106761904D01*
X119428571Y-106714285D01*
X119523809Y-106666666D01*
X119761904Y-106666666D01*
X119857142Y-106714285D01*
X119904761Y-106761904D01*
X119952380Y-106857142D01*
X119952380Y-107142857D01*
X119904761Y-107238095D01*
X119857142Y-107285714D01*
X119047619Y-106285714D02*
X119000000Y-106238095D01*
X118952380Y-106142857D01*
X118952380Y-105904761D01*
X119000000Y-105809523D01*
X119047619Y-105761904D01*
X119142857Y-105714285D01*
X119238095Y-105714285D01*
X119380952Y-105761904D01*
X119952380Y-106333333D01*
X119952380Y-105714285D01*
%TO.C,Q33*%
X120047619Y-102571428D02*
X120000000Y-102666666D01*
X119904761Y-102761904D01*
X119761904Y-102904761D01*
X119714285Y-103000000D01*
X119714285Y-103095238D01*
X119952380Y-103047619D02*
X119904761Y-103142857D01*
X119809523Y-103238095D01*
X119619047Y-103285714D01*
X119285714Y-103285714D01*
X119095238Y-103238095D01*
X119000000Y-103142857D01*
X118952380Y-103047619D01*
X118952380Y-102857142D01*
X119000000Y-102761904D01*
X119095238Y-102666666D01*
X119285714Y-102619047D01*
X119619047Y-102619047D01*
X119809523Y-102666666D01*
X119904761Y-102761904D01*
X119952380Y-102857142D01*
X119952380Y-103047619D01*
X118952380Y-102285714D02*
X118952380Y-101666666D01*
X119333333Y-102000000D01*
X119333333Y-101857142D01*
X119380952Y-101761904D01*
X119428571Y-101714285D01*
X119523809Y-101666666D01*
X119761904Y-101666666D01*
X119857142Y-101714285D01*
X119904761Y-101761904D01*
X119952380Y-101857142D01*
X119952380Y-102142857D01*
X119904761Y-102238095D01*
X119857142Y-102285714D01*
X118952380Y-101333333D02*
X118952380Y-100714285D01*
X119333333Y-101047619D01*
X119333333Y-100904761D01*
X119380952Y-100809523D01*
X119428571Y-100761904D01*
X119523809Y-100714285D01*
X119761904Y-100714285D01*
X119857142Y-100761904D01*
X119904761Y-100809523D01*
X119952380Y-100904761D01*
X119952380Y-101190476D01*
X119904761Y-101285714D01*
X119857142Y-101333333D01*
%TO.C,Q34*%
X120047619Y-97571428D02*
X120000000Y-97666666D01*
X119904761Y-97761904D01*
X119761904Y-97904761D01*
X119714285Y-98000000D01*
X119714285Y-98095238D01*
X119952380Y-98047619D02*
X119904761Y-98142857D01*
X119809523Y-98238095D01*
X119619047Y-98285714D01*
X119285714Y-98285714D01*
X119095238Y-98238095D01*
X119000000Y-98142857D01*
X118952380Y-98047619D01*
X118952380Y-97857142D01*
X119000000Y-97761904D01*
X119095238Y-97666666D01*
X119285714Y-97619047D01*
X119619047Y-97619047D01*
X119809523Y-97666666D01*
X119904761Y-97761904D01*
X119952380Y-97857142D01*
X119952380Y-98047619D01*
X118952380Y-97285714D02*
X118952380Y-96666666D01*
X119333333Y-97000000D01*
X119333333Y-96857142D01*
X119380952Y-96761904D01*
X119428571Y-96714285D01*
X119523809Y-96666666D01*
X119761904Y-96666666D01*
X119857142Y-96714285D01*
X119904761Y-96761904D01*
X119952380Y-96857142D01*
X119952380Y-97142857D01*
X119904761Y-97238095D01*
X119857142Y-97285714D01*
X119285714Y-95809523D02*
X119952380Y-95809523D01*
X118904761Y-96047619D02*
X119619047Y-96285714D01*
X119619047Y-95666666D01*
%TO.C,Q35*%
X125047619Y-107571428D02*
X125000000Y-107666666D01*
X124904761Y-107761904D01*
X124761904Y-107904761D01*
X124714285Y-108000000D01*
X124714285Y-108095238D01*
X124952380Y-108047619D02*
X124904761Y-108142857D01*
X124809523Y-108238095D01*
X124619047Y-108285714D01*
X124285714Y-108285714D01*
X124095238Y-108238095D01*
X124000000Y-108142857D01*
X123952380Y-108047619D01*
X123952380Y-107857142D01*
X124000000Y-107761904D01*
X124095238Y-107666666D01*
X124285714Y-107619047D01*
X124619047Y-107619047D01*
X124809523Y-107666666D01*
X124904761Y-107761904D01*
X124952380Y-107857142D01*
X124952380Y-108047619D01*
X123952380Y-107285714D02*
X123952380Y-106666666D01*
X124333333Y-107000000D01*
X124333333Y-106857142D01*
X124380952Y-106761904D01*
X124428571Y-106714285D01*
X124523809Y-106666666D01*
X124761904Y-106666666D01*
X124857142Y-106714285D01*
X124904761Y-106761904D01*
X124952380Y-106857142D01*
X124952380Y-107142857D01*
X124904761Y-107238095D01*
X124857142Y-107285714D01*
X123952380Y-105761904D02*
X123952380Y-106238095D01*
X124428571Y-106285714D01*
X124380952Y-106238095D01*
X124333333Y-106142857D01*
X124333333Y-105904761D01*
X124380952Y-105809523D01*
X124428571Y-105761904D01*
X124523809Y-105714285D01*
X124761904Y-105714285D01*
X124857142Y-105761904D01*
X124904761Y-105809523D01*
X124952380Y-105904761D01*
X124952380Y-106142857D01*
X124904761Y-106238095D01*
X124857142Y-106285714D01*
%TO.C,Q36*%
X125047619Y-102571428D02*
X125000000Y-102666666D01*
X124904761Y-102761904D01*
X124761904Y-102904761D01*
X124714285Y-103000000D01*
X124714285Y-103095238D01*
X124952380Y-103047619D02*
X124904761Y-103142857D01*
X124809523Y-103238095D01*
X124619047Y-103285714D01*
X124285714Y-103285714D01*
X124095238Y-103238095D01*
X124000000Y-103142857D01*
X123952380Y-103047619D01*
X123952380Y-102857142D01*
X124000000Y-102761904D01*
X124095238Y-102666666D01*
X124285714Y-102619047D01*
X124619047Y-102619047D01*
X124809523Y-102666666D01*
X124904761Y-102761904D01*
X124952380Y-102857142D01*
X124952380Y-103047619D01*
X123952380Y-102285714D02*
X123952380Y-101666666D01*
X124333333Y-102000000D01*
X124333333Y-101857142D01*
X124380952Y-101761904D01*
X124428571Y-101714285D01*
X124523809Y-101666666D01*
X124761904Y-101666666D01*
X124857142Y-101714285D01*
X124904761Y-101761904D01*
X124952380Y-101857142D01*
X124952380Y-102142857D01*
X124904761Y-102238095D01*
X124857142Y-102285714D01*
X123952380Y-100809523D02*
X123952380Y-101000000D01*
X124000000Y-101095238D01*
X124047619Y-101142857D01*
X124190476Y-101238095D01*
X124380952Y-101285714D01*
X124761904Y-101285714D01*
X124857142Y-101238095D01*
X124904761Y-101190476D01*
X124952380Y-101095238D01*
X124952380Y-100904761D01*
X124904761Y-100809523D01*
X124857142Y-100761904D01*
X124761904Y-100714285D01*
X124523809Y-100714285D01*
X124428571Y-100761904D01*
X124380952Y-100809523D01*
X124333333Y-100904761D01*
X124333333Y-101095238D01*
X124380952Y-101190476D01*
X124428571Y-101238095D01*
X124523809Y-101285714D01*
%TO.C,Q37*%
X125047619Y-97571428D02*
X125000000Y-97666666D01*
X124904761Y-97761904D01*
X124761904Y-97904761D01*
X124714285Y-98000000D01*
X124714285Y-98095238D01*
X124952380Y-98047619D02*
X124904761Y-98142857D01*
X124809523Y-98238095D01*
X124619047Y-98285714D01*
X124285714Y-98285714D01*
X124095238Y-98238095D01*
X124000000Y-98142857D01*
X123952380Y-98047619D01*
X123952380Y-97857142D01*
X124000000Y-97761904D01*
X124095238Y-97666666D01*
X124285714Y-97619047D01*
X124619047Y-97619047D01*
X124809523Y-97666666D01*
X124904761Y-97761904D01*
X124952380Y-97857142D01*
X124952380Y-98047619D01*
X123952380Y-97285714D02*
X123952380Y-96666666D01*
X124333333Y-97000000D01*
X124333333Y-96857142D01*
X124380952Y-96761904D01*
X124428571Y-96714285D01*
X124523809Y-96666666D01*
X124761904Y-96666666D01*
X124857142Y-96714285D01*
X124904761Y-96761904D01*
X124952380Y-96857142D01*
X124952380Y-97142857D01*
X124904761Y-97238095D01*
X124857142Y-97285714D01*
X123952380Y-96333333D02*
X123952380Y-95666666D01*
X124952380Y-96095238D01*
%TO.C,Q38*%
X130047619Y-107571428D02*
X130000000Y-107666666D01*
X129904761Y-107761904D01*
X129761904Y-107904761D01*
X129714285Y-108000000D01*
X129714285Y-108095238D01*
X129952380Y-108047619D02*
X129904761Y-108142857D01*
X129809523Y-108238095D01*
X129619047Y-108285714D01*
X129285714Y-108285714D01*
X129095238Y-108238095D01*
X129000000Y-108142857D01*
X128952380Y-108047619D01*
X128952380Y-107857142D01*
X129000000Y-107761904D01*
X129095238Y-107666666D01*
X129285714Y-107619047D01*
X129619047Y-107619047D01*
X129809523Y-107666666D01*
X129904761Y-107761904D01*
X129952380Y-107857142D01*
X129952380Y-108047619D01*
X128952380Y-107285714D02*
X128952380Y-106666666D01*
X129333333Y-107000000D01*
X129333333Y-106857142D01*
X129380952Y-106761904D01*
X129428571Y-106714285D01*
X129523809Y-106666666D01*
X129761904Y-106666666D01*
X129857142Y-106714285D01*
X129904761Y-106761904D01*
X129952380Y-106857142D01*
X129952380Y-107142857D01*
X129904761Y-107238095D01*
X129857142Y-107285714D01*
X129380952Y-106095238D02*
X129333333Y-106190476D01*
X129285714Y-106238095D01*
X129190476Y-106285714D01*
X129142857Y-106285714D01*
X129047619Y-106238095D01*
X129000000Y-106190476D01*
X128952380Y-106095238D01*
X128952380Y-105904761D01*
X129000000Y-105809523D01*
X129047619Y-105761904D01*
X129142857Y-105714285D01*
X129190476Y-105714285D01*
X129285714Y-105761904D01*
X129333333Y-105809523D01*
X129380952Y-105904761D01*
X129380952Y-106095238D01*
X129428571Y-106190476D01*
X129476190Y-106238095D01*
X129571428Y-106285714D01*
X129761904Y-106285714D01*
X129857142Y-106238095D01*
X129904761Y-106190476D01*
X129952380Y-106095238D01*
X129952380Y-105904761D01*
X129904761Y-105809523D01*
X129857142Y-105761904D01*
X129761904Y-105714285D01*
X129571428Y-105714285D01*
X129476190Y-105761904D01*
X129428571Y-105809523D01*
X129380952Y-105904761D01*
%TO.C,Q39*%
X130047619Y-102571428D02*
X130000000Y-102666666D01*
X129904761Y-102761904D01*
X129761904Y-102904761D01*
X129714285Y-103000000D01*
X129714285Y-103095238D01*
X129952380Y-103047619D02*
X129904761Y-103142857D01*
X129809523Y-103238095D01*
X129619047Y-103285714D01*
X129285714Y-103285714D01*
X129095238Y-103238095D01*
X129000000Y-103142857D01*
X128952380Y-103047619D01*
X128952380Y-102857142D01*
X129000000Y-102761904D01*
X129095238Y-102666666D01*
X129285714Y-102619047D01*
X129619047Y-102619047D01*
X129809523Y-102666666D01*
X129904761Y-102761904D01*
X129952380Y-102857142D01*
X129952380Y-103047619D01*
X128952380Y-102285714D02*
X128952380Y-101666666D01*
X129333333Y-102000000D01*
X129333333Y-101857142D01*
X129380952Y-101761904D01*
X129428571Y-101714285D01*
X129523809Y-101666666D01*
X129761904Y-101666666D01*
X129857142Y-101714285D01*
X129904761Y-101761904D01*
X129952380Y-101857142D01*
X129952380Y-102142857D01*
X129904761Y-102238095D01*
X129857142Y-102285714D01*
X129952380Y-101190476D02*
X129952380Y-101000000D01*
X129904761Y-100904761D01*
X129857142Y-100857142D01*
X129714285Y-100761904D01*
X129523809Y-100714285D01*
X129142857Y-100714285D01*
X129047619Y-100761904D01*
X129000000Y-100809523D01*
X128952380Y-100904761D01*
X128952380Y-101095238D01*
X129000000Y-101190476D01*
X129047619Y-101238095D01*
X129142857Y-101285714D01*
X129380952Y-101285714D01*
X129476190Y-101238095D01*
X129523809Y-101190476D01*
X129571428Y-101095238D01*
X129571428Y-100904761D01*
X129523809Y-100809523D01*
X129476190Y-100761904D01*
X129380952Y-100714285D01*
%TO.C,Q40*%
X130047619Y-97571428D02*
X130000000Y-97666666D01*
X129904761Y-97761904D01*
X129761904Y-97904761D01*
X129714285Y-98000000D01*
X129714285Y-98095238D01*
X129952380Y-98047619D02*
X129904761Y-98142857D01*
X129809523Y-98238095D01*
X129619047Y-98285714D01*
X129285714Y-98285714D01*
X129095238Y-98238095D01*
X129000000Y-98142857D01*
X128952380Y-98047619D01*
X128952380Y-97857142D01*
X129000000Y-97761904D01*
X129095238Y-97666666D01*
X129285714Y-97619047D01*
X129619047Y-97619047D01*
X129809523Y-97666666D01*
X129904761Y-97761904D01*
X129952380Y-97857142D01*
X129952380Y-98047619D01*
X129285714Y-96761904D02*
X129952380Y-96761904D01*
X128904761Y-97000000D02*
X129619047Y-97238095D01*
X129619047Y-96619047D01*
X128952380Y-96047619D02*
X128952380Y-95952380D01*
X129000000Y-95857142D01*
X129047619Y-95809523D01*
X129142857Y-95761904D01*
X129333333Y-95714285D01*
X129571428Y-95714285D01*
X129761904Y-95761904D01*
X129857142Y-95809523D01*
X129904761Y-95857142D01*
X129952380Y-95952380D01*
X129952380Y-96047619D01*
X129904761Y-96142857D01*
X129857142Y-96190476D01*
X129761904Y-96238095D01*
X129571428Y-96285714D01*
X129333333Y-96285714D01*
X129142857Y-96238095D01*
X129047619Y-96190476D01*
X129000000Y-96142857D01*
X128952380Y-96047619D01*
%TO.C,Q41*%
X135047619Y-107571428D02*
X135000000Y-107666666D01*
X134904761Y-107761904D01*
X134761904Y-107904761D01*
X134714285Y-108000000D01*
X134714285Y-108095238D01*
X134952380Y-108047619D02*
X134904761Y-108142857D01*
X134809523Y-108238095D01*
X134619047Y-108285714D01*
X134285714Y-108285714D01*
X134095238Y-108238095D01*
X134000000Y-108142857D01*
X133952380Y-108047619D01*
X133952380Y-107857142D01*
X134000000Y-107761904D01*
X134095238Y-107666666D01*
X134285714Y-107619047D01*
X134619047Y-107619047D01*
X134809523Y-107666666D01*
X134904761Y-107761904D01*
X134952380Y-107857142D01*
X134952380Y-108047619D01*
X134285714Y-106761904D02*
X134952380Y-106761904D01*
X133904761Y-107000000D02*
X134619047Y-107238095D01*
X134619047Y-106619047D01*
X134952380Y-105714285D02*
X134952380Y-106285714D01*
X134952380Y-106000000D02*
X133952380Y-106000000D01*
X134095238Y-106095238D01*
X134190476Y-106190476D01*
X134238095Y-106285714D01*
%TO.C,Q42*%
X135047619Y-102571428D02*
X135000000Y-102666666D01*
X134904761Y-102761904D01*
X134761904Y-102904761D01*
X134714285Y-103000000D01*
X134714285Y-103095238D01*
X134952380Y-103047619D02*
X134904761Y-103142857D01*
X134809523Y-103238095D01*
X134619047Y-103285714D01*
X134285714Y-103285714D01*
X134095238Y-103238095D01*
X134000000Y-103142857D01*
X133952380Y-103047619D01*
X133952380Y-102857142D01*
X134000000Y-102761904D01*
X134095238Y-102666666D01*
X134285714Y-102619047D01*
X134619047Y-102619047D01*
X134809523Y-102666666D01*
X134904761Y-102761904D01*
X134952380Y-102857142D01*
X134952380Y-103047619D01*
X134285714Y-101761904D02*
X134952380Y-101761904D01*
X133904761Y-102000000D02*
X134619047Y-102238095D01*
X134619047Y-101619047D01*
X134047619Y-101285714D02*
X134000000Y-101238095D01*
X133952380Y-101142857D01*
X133952380Y-100904761D01*
X134000000Y-100809523D01*
X134047619Y-100761904D01*
X134142857Y-100714285D01*
X134238095Y-100714285D01*
X134380952Y-100761904D01*
X134952380Y-101333333D01*
X134952380Y-100714285D01*
%TO.C,Q43*%
X135047619Y-97571428D02*
X135000000Y-97666666D01*
X134904761Y-97761904D01*
X134761904Y-97904761D01*
X134714285Y-98000000D01*
X134714285Y-98095238D01*
X134952380Y-98047619D02*
X134904761Y-98142857D01*
X134809523Y-98238095D01*
X134619047Y-98285714D01*
X134285714Y-98285714D01*
X134095238Y-98238095D01*
X134000000Y-98142857D01*
X133952380Y-98047619D01*
X133952380Y-97857142D01*
X134000000Y-97761904D01*
X134095238Y-97666666D01*
X134285714Y-97619047D01*
X134619047Y-97619047D01*
X134809523Y-97666666D01*
X134904761Y-97761904D01*
X134952380Y-97857142D01*
X134952380Y-98047619D01*
X134285714Y-96761904D02*
X134952380Y-96761904D01*
X133904761Y-97000000D02*
X134619047Y-97238095D01*
X134619047Y-96619047D01*
X133952380Y-96333333D02*
X133952380Y-95714285D01*
X134333333Y-96047619D01*
X134333333Y-95904761D01*
X134380952Y-95809523D01*
X134428571Y-95761904D01*
X134523809Y-95714285D01*
X134761904Y-95714285D01*
X134857142Y-95761904D01*
X134904761Y-95809523D01*
X134952380Y-95904761D01*
X134952380Y-96190476D01*
X134904761Y-96285714D01*
X134857142Y-96333333D01*
%TO.C,Q44*%
X140047619Y-107571428D02*
X140000000Y-107666666D01*
X139904761Y-107761904D01*
X139761904Y-107904761D01*
X139714285Y-108000000D01*
X139714285Y-108095238D01*
X139952380Y-108047619D02*
X139904761Y-108142857D01*
X139809523Y-108238095D01*
X139619047Y-108285714D01*
X139285714Y-108285714D01*
X139095238Y-108238095D01*
X139000000Y-108142857D01*
X138952380Y-108047619D01*
X138952380Y-107857142D01*
X139000000Y-107761904D01*
X139095238Y-107666666D01*
X139285714Y-107619047D01*
X139619047Y-107619047D01*
X139809523Y-107666666D01*
X139904761Y-107761904D01*
X139952380Y-107857142D01*
X139952380Y-108047619D01*
X139285714Y-106761904D02*
X139952380Y-106761904D01*
X138904761Y-107000000D02*
X139619047Y-107238095D01*
X139619047Y-106619047D01*
X139285714Y-105809523D02*
X139952380Y-105809523D01*
X138904761Y-106047619D02*
X139619047Y-106285714D01*
X139619047Y-105666666D01*
%TO.C,Q45*%
X140047619Y-102571428D02*
X140000000Y-102666666D01*
X139904761Y-102761904D01*
X139761904Y-102904761D01*
X139714285Y-103000000D01*
X139714285Y-103095238D01*
X139952380Y-103047619D02*
X139904761Y-103142857D01*
X139809523Y-103238095D01*
X139619047Y-103285714D01*
X139285714Y-103285714D01*
X139095238Y-103238095D01*
X139000000Y-103142857D01*
X138952380Y-103047619D01*
X138952380Y-102857142D01*
X139000000Y-102761904D01*
X139095238Y-102666666D01*
X139285714Y-102619047D01*
X139619047Y-102619047D01*
X139809523Y-102666666D01*
X139904761Y-102761904D01*
X139952380Y-102857142D01*
X139952380Y-103047619D01*
X139285714Y-101761904D02*
X139952380Y-101761904D01*
X138904761Y-102000000D02*
X139619047Y-102238095D01*
X139619047Y-101619047D01*
X138952380Y-100761904D02*
X138952380Y-101238095D01*
X139428571Y-101285714D01*
X139380952Y-101238095D01*
X139333333Y-101142857D01*
X139333333Y-100904761D01*
X139380952Y-100809523D01*
X139428571Y-100761904D01*
X139523809Y-100714285D01*
X139761904Y-100714285D01*
X139857142Y-100761904D01*
X139904761Y-100809523D01*
X139952380Y-100904761D01*
X139952380Y-101142857D01*
X139904761Y-101238095D01*
X139857142Y-101285714D01*
%TO.C,Q46*%
X140047619Y-97571428D02*
X140000000Y-97666666D01*
X139904761Y-97761904D01*
X139761904Y-97904761D01*
X139714285Y-98000000D01*
X139714285Y-98095238D01*
X139952380Y-98047619D02*
X139904761Y-98142857D01*
X139809523Y-98238095D01*
X139619047Y-98285714D01*
X139285714Y-98285714D01*
X139095238Y-98238095D01*
X139000000Y-98142857D01*
X138952380Y-98047619D01*
X138952380Y-97857142D01*
X139000000Y-97761904D01*
X139095238Y-97666666D01*
X139285714Y-97619047D01*
X139619047Y-97619047D01*
X139809523Y-97666666D01*
X139904761Y-97761904D01*
X139952380Y-97857142D01*
X139952380Y-98047619D01*
X139285714Y-96761904D02*
X139952380Y-96761904D01*
X138904761Y-97000000D02*
X139619047Y-97238095D01*
X139619047Y-96619047D01*
X138952380Y-95809523D02*
X138952380Y-96000000D01*
X139000000Y-96095238D01*
X139047619Y-96142857D01*
X139190476Y-96238095D01*
X139380952Y-96285714D01*
X139761904Y-96285714D01*
X139857142Y-96238095D01*
X139904761Y-96190476D01*
X139952380Y-96095238D01*
X139952380Y-95904761D01*
X139904761Y-95809523D01*
X139857142Y-95761904D01*
X139761904Y-95714285D01*
X139523809Y-95714285D01*
X139428571Y-95761904D01*
X139380952Y-95809523D01*
X139333333Y-95904761D01*
X139333333Y-96095238D01*
X139380952Y-96190476D01*
X139428571Y-96238095D01*
X139523809Y-96285714D01*
%TO.C,Q47*%
X145047619Y-107571428D02*
X145000000Y-107666666D01*
X144904761Y-107761904D01*
X144761904Y-107904761D01*
X144714285Y-108000000D01*
X144714285Y-108095238D01*
X144952380Y-108047619D02*
X144904761Y-108142857D01*
X144809523Y-108238095D01*
X144619047Y-108285714D01*
X144285714Y-108285714D01*
X144095238Y-108238095D01*
X144000000Y-108142857D01*
X143952380Y-108047619D01*
X143952380Y-107857142D01*
X144000000Y-107761904D01*
X144095238Y-107666666D01*
X144285714Y-107619047D01*
X144619047Y-107619047D01*
X144809523Y-107666666D01*
X144904761Y-107761904D01*
X144952380Y-107857142D01*
X144952380Y-108047619D01*
X144285714Y-106761904D02*
X144952380Y-106761904D01*
X143904761Y-107000000D02*
X144619047Y-107238095D01*
X144619047Y-106619047D01*
X143952380Y-106333333D02*
X143952380Y-105666666D01*
X144952380Y-106095238D01*
%TO.C,Q48*%
X145047619Y-102571428D02*
X145000000Y-102666666D01*
X144904761Y-102761904D01*
X144761904Y-102904761D01*
X144714285Y-103000000D01*
X144714285Y-103095238D01*
X144952380Y-103047619D02*
X144904761Y-103142857D01*
X144809523Y-103238095D01*
X144619047Y-103285714D01*
X144285714Y-103285714D01*
X144095238Y-103238095D01*
X144000000Y-103142857D01*
X143952380Y-103047619D01*
X143952380Y-102857142D01*
X144000000Y-102761904D01*
X144095238Y-102666666D01*
X144285714Y-102619047D01*
X144619047Y-102619047D01*
X144809523Y-102666666D01*
X144904761Y-102761904D01*
X144952380Y-102857142D01*
X144952380Y-103047619D01*
X144285714Y-101761904D02*
X144952380Y-101761904D01*
X143904761Y-102000000D02*
X144619047Y-102238095D01*
X144619047Y-101619047D01*
X144380952Y-101095238D02*
X144333333Y-101190476D01*
X144285714Y-101238095D01*
X144190476Y-101285714D01*
X144142857Y-101285714D01*
X144047619Y-101238095D01*
X144000000Y-101190476D01*
X143952380Y-101095238D01*
X143952380Y-100904761D01*
X144000000Y-100809523D01*
X144047619Y-100761904D01*
X144142857Y-100714285D01*
X144190476Y-100714285D01*
X144285714Y-100761904D01*
X144333333Y-100809523D01*
X144380952Y-100904761D01*
X144380952Y-101095238D01*
X144428571Y-101190476D01*
X144476190Y-101238095D01*
X144571428Y-101285714D01*
X144761904Y-101285714D01*
X144857142Y-101238095D01*
X144904761Y-101190476D01*
X144952380Y-101095238D01*
X144952380Y-100904761D01*
X144904761Y-100809523D01*
X144857142Y-100761904D01*
X144761904Y-100714285D01*
X144571428Y-100714285D01*
X144476190Y-100761904D01*
X144428571Y-100809523D01*
X144380952Y-100904761D01*
%TO.C,Q49*%
X145047619Y-97571428D02*
X145000000Y-97666666D01*
X144904761Y-97761904D01*
X144761904Y-97904761D01*
X144714285Y-98000000D01*
X144714285Y-98095238D01*
X144952380Y-98047619D02*
X144904761Y-98142857D01*
X144809523Y-98238095D01*
X144619047Y-98285714D01*
X144285714Y-98285714D01*
X144095238Y-98238095D01*
X144000000Y-98142857D01*
X143952380Y-98047619D01*
X143952380Y-97857142D01*
X144000000Y-97761904D01*
X144095238Y-97666666D01*
X144285714Y-97619047D01*
X144619047Y-97619047D01*
X144809523Y-97666666D01*
X144904761Y-97761904D01*
X144952380Y-97857142D01*
X144952380Y-98047619D01*
X144285714Y-96761904D02*
X144952380Y-96761904D01*
X143904761Y-97000000D02*
X144619047Y-97238095D01*
X144619047Y-96619047D01*
X144952380Y-96190476D02*
X144952380Y-96000000D01*
X144904761Y-95904761D01*
X144857142Y-95857142D01*
X144714285Y-95761904D01*
X144523809Y-95714285D01*
X144142857Y-95714285D01*
X144047619Y-95761904D01*
X144000000Y-95809523D01*
X143952380Y-95904761D01*
X143952380Y-96095238D01*
X144000000Y-96190476D01*
X144047619Y-96238095D01*
X144142857Y-96285714D01*
X144380952Y-96285714D01*
X144476190Y-96238095D01*
X144523809Y-96190476D01*
X144571428Y-96095238D01*
X144571428Y-95904761D01*
X144523809Y-95809523D01*
X144476190Y-95761904D01*
X144380952Y-95714285D01*
%TO.C,Q50*%
X150047619Y-107571428D02*
X150000000Y-107666666D01*
X149904761Y-107761904D01*
X149761904Y-107904761D01*
X149714285Y-108000000D01*
X149714285Y-108095238D01*
X149952380Y-108047619D02*
X149904761Y-108142857D01*
X149809523Y-108238095D01*
X149619047Y-108285714D01*
X149285714Y-108285714D01*
X149095238Y-108238095D01*
X149000000Y-108142857D01*
X148952380Y-108047619D01*
X148952380Y-107857142D01*
X149000000Y-107761904D01*
X149095238Y-107666666D01*
X149285714Y-107619047D01*
X149619047Y-107619047D01*
X149809523Y-107666666D01*
X149904761Y-107761904D01*
X149952380Y-107857142D01*
X149952380Y-108047619D01*
X148952380Y-106714285D02*
X148952380Y-107190476D01*
X149428571Y-107238095D01*
X149380952Y-107190476D01*
X149333333Y-107095238D01*
X149333333Y-106857142D01*
X149380952Y-106761904D01*
X149428571Y-106714285D01*
X149523809Y-106666666D01*
X149761904Y-106666666D01*
X149857142Y-106714285D01*
X149904761Y-106761904D01*
X149952380Y-106857142D01*
X149952380Y-107095238D01*
X149904761Y-107190476D01*
X149857142Y-107238095D01*
X148952380Y-106047619D02*
X148952380Y-105952380D01*
X149000000Y-105857142D01*
X149047619Y-105809523D01*
X149142857Y-105761904D01*
X149333333Y-105714285D01*
X149571428Y-105714285D01*
X149761904Y-105761904D01*
X149857142Y-105809523D01*
X149904761Y-105857142D01*
X149952380Y-105952380D01*
X149952380Y-106047619D01*
X149904761Y-106142857D01*
X149857142Y-106190476D01*
X149761904Y-106238095D01*
X149571428Y-106285714D01*
X149333333Y-106285714D01*
X149142857Y-106238095D01*
X149047619Y-106190476D01*
X149000000Y-106142857D01*
X148952380Y-106047619D01*
%TO.C,Q51*%
X150047619Y-102571428D02*
X150000000Y-102666666D01*
X149904761Y-102761904D01*
X149761904Y-102904761D01*
X149714285Y-103000000D01*
X149714285Y-103095238D01*
X149952380Y-103047619D02*
X149904761Y-103142857D01*
X149809523Y-103238095D01*
X149619047Y-103285714D01*
X149285714Y-103285714D01*
X149095238Y-103238095D01*
X149000000Y-103142857D01*
X148952380Y-103047619D01*
X148952380Y-102857142D01*
X149000000Y-102761904D01*
X149095238Y-102666666D01*
X149285714Y-102619047D01*
X149619047Y-102619047D01*
X149809523Y-102666666D01*
X149904761Y-102761904D01*
X149952380Y-102857142D01*
X149952380Y-103047619D01*
X148952380Y-101714285D02*
X148952380Y-102190476D01*
X149428571Y-102238095D01*
X149380952Y-102190476D01*
X149333333Y-102095238D01*
X149333333Y-101857142D01*
X149380952Y-101761904D01*
X149428571Y-101714285D01*
X149523809Y-101666666D01*
X149761904Y-101666666D01*
X149857142Y-101714285D01*
X149904761Y-101761904D01*
X149952380Y-101857142D01*
X149952380Y-102095238D01*
X149904761Y-102190476D01*
X149857142Y-102238095D01*
X149952380Y-100714285D02*
X149952380Y-101285714D01*
X149952380Y-101000000D02*
X148952380Y-101000000D01*
X149095238Y-101095238D01*
X149190476Y-101190476D01*
X149238095Y-101285714D01*
%TO.C,Q52*%
X150047619Y-97571428D02*
X150000000Y-97666666D01*
X149904761Y-97761904D01*
X149761904Y-97904761D01*
X149714285Y-98000000D01*
X149714285Y-98095238D01*
X149952380Y-98047619D02*
X149904761Y-98142857D01*
X149809523Y-98238095D01*
X149619047Y-98285714D01*
X149285714Y-98285714D01*
X149095238Y-98238095D01*
X149000000Y-98142857D01*
X148952380Y-98047619D01*
X148952380Y-97857142D01*
X149000000Y-97761904D01*
X149095238Y-97666666D01*
X149285714Y-97619047D01*
X149619047Y-97619047D01*
X149809523Y-97666666D01*
X149904761Y-97761904D01*
X149952380Y-97857142D01*
X149952380Y-98047619D01*
X148952380Y-96714285D02*
X148952380Y-97190476D01*
X149428571Y-97238095D01*
X149380952Y-97190476D01*
X149333333Y-97095238D01*
X149333333Y-96857142D01*
X149380952Y-96761904D01*
X149428571Y-96714285D01*
X149523809Y-96666666D01*
X149761904Y-96666666D01*
X149857142Y-96714285D01*
X149904761Y-96761904D01*
X149952380Y-96857142D01*
X149952380Y-97095238D01*
X149904761Y-97190476D01*
X149857142Y-97238095D01*
X149047619Y-96285714D02*
X149000000Y-96238095D01*
X148952380Y-96142857D01*
X148952380Y-95904761D01*
X149000000Y-95809523D01*
X149047619Y-95761904D01*
X149142857Y-95714285D01*
X149238095Y-95714285D01*
X149380952Y-95761904D01*
X149952380Y-96333333D01*
X149952380Y-95714285D01*
%TO.C,Q53*%
X155047619Y-107571428D02*
X155000000Y-107666666D01*
X154904761Y-107761904D01*
X154761904Y-107904761D01*
X154714285Y-108000000D01*
X154714285Y-108095238D01*
X154952380Y-108047619D02*
X154904761Y-108142857D01*
X154809523Y-108238095D01*
X154619047Y-108285714D01*
X154285714Y-108285714D01*
X154095238Y-108238095D01*
X154000000Y-108142857D01*
X153952380Y-108047619D01*
X153952380Y-107857142D01*
X154000000Y-107761904D01*
X154095238Y-107666666D01*
X154285714Y-107619047D01*
X154619047Y-107619047D01*
X154809523Y-107666666D01*
X154904761Y-107761904D01*
X154952380Y-107857142D01*
X154952380Y-108047619D01*
X153952380Y-106714285D02*
X153952380Y-107190476D01*
X154428571Y-107238095D01*
X154380952Y-107190476D01*
X154333333Y-107095238D01*
X154333333Y-106857142D01*
X154380952Y-106761904D01*
X154428571Y-106714285D01*
X154523809Y-106666666D01*
X154761904Y-106666666D01*
X154857142Y-106714285D01*
X154904761Y-106761904D01*
X154952380Y-106857142D01*
X154952380Y-107095238D01*
X154904761Y-107190476D01*
X154857142Y-107238095D01*
X153952380Y-106333333D02*
X153952380Y-105714285D01*
X154333333Y-106047619D01*
X154333333Y-105904761D01*
X154380952Y-105809523D01*
X154428571Y-105761904D01*
X154523809Y-105714285D01*
X154761904Y-105714285D01*
X154857142Y-105761904D01*
X154904761Y-105809523D01*
X154952380Y-105904761D01*
X154952380Y-106190476D01*
X154904761Y-106285714D01*
X154857142Y-106333333D01*
%TO.C,Q54*%
X155047619Y-102571428D02*
X155000000Y-102666666D01*
X154904761Y-102761904D01*
X154761904Y-102904761D01*
X154714285Y-103000000D01*
X154714285Y-103095238D01*
X154952380Y-103047619D02*
X154904761Y-103142857D01*
X154809523Y-103238095D01*
X154619047Y-103285714D01*
X154285714Y-103285714D01*
X154095238Y-103238095D01*
X154000000Y-103142857D01*
X153952380Y-103047619D01*
X153952380Y-102857142D01*
X154000000Y-102761904D01*
X154095238Y-102666666D01*
X154285714Y-102619047D01*
X154619047Y-102619047D01*
X154809523Y-102666666D01*
X154904761Y-102761904D01*
X154952380Y-102857142D01*
X154952380Y-103047619D01*
X153952380Y-101714285D02*
X153952380Y-102190476D01*
X154428571Y-102238095D01*
X154380952Y-102190476D01*
X154333333Y-102095238D01*
X154333333Y-101857142D01*
X154380952Y-101761904D01*
X154428571Y-101714285D01*
X154523809Y-101666666D01*
X154761904Y-101666666D01*
X154857142Y-101714285D01*
X154904761Y-101761904D01*
X154952380Y-101857142D01*
X154952380Y-102095238D01*
X154904761Y-102190476D01*
X154857142Y-102238095D01*
X154285714Y-100809523D02*
X154952380Y-100809523D01*
X153904761Y-101047619D02*
X154619047Y-101285714D01*
X154619047Y-100666666D01*
%TO.C,Q55*%
X154997619Y-97571428D02*
X154950000Y-97666666D01*
X154854761Y-97761904D01*
X154711904Y-97904761D01*
X154664285Y-98000000D01*
X154664285Y-98095238D01*
X154902380Y-98047619D02*
X154854761Y-98142857D01*
X154759523Y-98238095D01*
X154569047Y-98285714D01*
X154235714Y-98285714D01*
X154045238Y-98238095D01*
X153950000Y-98142857D01*
X153902380Y-98047619D01*
X153902380Y-97857142D01*
X153950000Y-97761904D01*
X154045238Y-97666666D01*
X154235714Y-97619047D01*
X154569047Y-97619047D01*
X154759523Y-97666666D01*
X154854761Y-97761904D01*
X154902380Y-97857142D01*
X154902380Y-98047619D01*
X153902380Y-96714285D02*
X153902380Y-97190476D01*
X154378571Y-97238095D01*
X154330952Y-97190476D01*
X154283333Y-97095238D01*
X154283333Y-96857142D01*
X154330952Y-96761904D01*
X154378571Y-96714285D01*
X154473809Y-96666666D01*
X154711904Y-96666666D01*
X154807142Y-96714285D01*
X154854761Y-96761904D01*
X154902380Y-96857142D01*
X154902380Y-97095238D01*
X154854761Y-97190476D01*
X154807142Y-97238095D01*
X153902380Y-95761904D02*
X153902380Y-96238095D01*
X154378571Y-96285714D01*
X154330952Y-96238095D01*
X154283333Y-96142857D01*
X154283333Y-95904761D01*
X154330952Y-95809523D01*
X154378571Y-95761904D01*
X154473809Y-95714285D01*
X154711904Y-95714285D01*
X154807142Y-95761904D01*
X154854761Y-95809523D01*
X154902380Y-95904761D01*
X154902380Y-96142857D01*
X154854761Y-96238095D01*
X154807142Y-96285714D01*
%TO.C,Q56*%
X160047619Y-107571428D02*
X160000000Y-107666666D01*
X159904761Y-107761904D01*
X159761904Y-107904761D01*
X159714285Y-108000000D01*
X159714285Y-108095238D01*
X159952380Y-108047619D02*
X159904761Y-108142857D01*
X159809523Y-108238095D01*
X159619047Y-108285714D01*
X159285714Y-108285714D01*
X159095238Y-108238095D01*
X159000000Y-108142857D01*
X158952380Y-108047619D01*
X158952380Y-107857142D01*
X159000000Y-107761904D01*
X159095238Y-107666666D01*
X159285714Y-107619047D01*
X159619047Y-107619047D01*
X159809523Y-107666666D01*
X159904761Y-107761904D01*
X159952380Y-107857142D01*
X159952380Y-108047619D01*
X158952380Y-106714285D02*
X158952380Y-107190476D01*
X159428571Y-107238095D01*
X159380952Y-107190476D01*
X159333333Y-107095238D01*
X159333333Y-106857142D01*
X159380952Y-106761904D01*
X159428571Y-106714285D01*
X159523809Y-106666666D01*
X159761904Y-106666666D01*
X159857142Y-106714285D01*
X159904761Y-106761904D01*
X159952380Y-106857142D01*
X159952380Y-107095238D01*
X159904761Y-107190476D01*
X159857142Y-107238095D01*
X158952380Y-105809523D02*
X158952380Y-106000000D01*
X159000000Y-106095238D01*
X159047619Y-106142857D01*
X159190476Y-106238095D01*
X159380952Y-106285714D01*
X159761904Y-106285714D01*
X159857142Y-106238095D01*
X159904761Y-106190476D01*
X159952380Y-106095238D01*
X159952380Y-105904761D01*
X159904761Y-105809523D01*
X159857142Y-105761904D01*
X159761904Y-105714285D01*
X159523809Y-105714285D01*
X159428571Y-105761904D01*
X159380952Y-105809523D01*
X159333333Y-105904761D01*
X159333333Y-106095238D01*
X159380952Y-106190476D01*
X159428571Y-106238095D01*
X159523809Y-106285714D01*
%TO.C,Q57*%
X160047619Y-102571428D02*
X160000000Y-102666666D01*
X159904761Y-102761904D01*
X159761904Y-102904761D01*
X159714285Y-103000000D01*
X159714285Y-103095238D01*
X159952380Y-103047619D02*
X159904761Y-103142857D01*
X159809523Y-103238095D01*
X159619047Y-103285714D01*
X159285714Y-103285714D01*
X159095238Y-103238095D01*
X159000000Y-103142857D01*
X158952380Y-103047619D01*
X158952380Y-102857142D01*
X159000000Y-102761904D01*
X159095238Y-102666666D01*
X159285714Y-102619047D01*
X159619047Y-102619047D01*
X159809523Y-102666666D01*
X159904761Y-102761904D01*
X159952380Y-102857142D01*
X159952380Y-103047619D01*
X158952380Y-101714285D02*
X158952380Y-102190476D01*
X159428571Y-102238095D01*
X159380952Y-102190476D01*
X159333333Y-102095238D01*
X159333333Y-101857142D01*
X159380952Y-101761904D01*
X159428571Y-101714285D01*
X159523809Y-101666666D01*
X159761904Y-101666666D01*
X159857142Y-101714285D01*
X159904761Y-101761904D01*
X159952380Y-101857142D01*
X159952380Y-102095238D01*
X159904761Y-102190476D01*
X159857142Y-102238095D01*
X158952380Y-101333333D02*
X158952380Y-100666666D01*
X159952380Y-101095238D01*
%TO.C,Q58*%
X160047619Y-97571428D02*
X160000000Y-97666666D01*
X159904761Y-97761904D01*
X159761904Y-97904761D01*
X159714285Y-98000000D01*
X159714285Y-98095238D01*
X159952380Y-98047619D02*
X159904761Y-98142857D01*
X159809523Y-98238095D01*
X159619047Y-98285714D01*
X159285714Y-98285714D01*
X159095238Y-98238095D01*
X159000000Y-98142857D01*
X158952380Y-98047619D01*
X158952380Y-97857142D01*
X159000000Y-97761904D01*
X159095238Y-97666666D01*
X159285714Y-97619047D01*
X159619047Y-97619047D01*
X159809523Y-97666666D01*
X159904761Y-97761904D01*
X159952380Y-97857142D01*
X159952380Y-98047619D01*
X158952380Y-96714285D02*
X158952380Y-97190476D01*
X159428571Y-97238095D01*
X159380952Y-97190476D01*
X159333333Y-97095238D01*
X159333333Y-96857142D01*
X159380952Y-96761904D01*
X159428571Y-96714285D01*
X159523809Y-96666666D01*
X159761904Y-96666666D01*
X159857142Y-96714285D01*
X159904761Y-96761904D01*
X159952380Y-96857142D01*
X159952380Y-97095238D01*
X159904761Y-97190476D01*
X159857142Y-97238095D01*
X159380952Y-96095238D02*
X159333333Y-96190476D01*
X159285714Y-96238095D01*
X159190476Y-96285714D01*
X159142857Y-96285714D01*
X159047619Y-96238095D01*
X159000000Y-96190476D01*
X158952380Y-96095238D01*
X158952380Y-95904761D01*
X159000000Y-95809523D01*
X159047619Y-95761904D01*
X159142857Y-95714285D01*
X159190476Y-95714285D01*
X159285714Y-95761904D01*
X159333333Y-95809523D01*
X159380952Y-95904761D01*
X159380952Y-96095238D01*
X159428571Y-96190476D01*
X159476190Y-96238095D01*
X159571428Y-96285714D01*
X159761904Y-96285714D01*
X159857142Y-96238095D01*
X159904761Y-96190476D01*
X159952380Y-96095238D01*
X159952380Y-95904761D01*
X159904761Y-95809523D01*
X159857142Y-95761904D01*
X159761904Y-95714285D01*
X159571428Y-95714285D01*
X159476190Y-95761904D01*
X159428571Y-95809523D01*
X159380952Y-95904761D01*
%TO.C,Q59*%
X165047619Y-107571428D02*
X165000000Y-107666666D01*
X164904761Y-107761904D01*
X164761904Y-107904761D01*
X164714285Y-108000000D01*
X164714285Y-108095238D01*
X164952380Y-108047619D02*
X164904761Y-108142857D01*
X164809523Y-108238095D01*
X164619047Y-108285714D01*
X164285714Y-108285714D01*
X164095238Y-108238095D01*
X164000000Y-108142857D01*
X163952380Y-108047619D01*
X163952380Y-107857142D01*
X164000000Y-107761904D01*
X164095238Y-107666666D01*
X164285714Y-107619047D01*
X164619047Y-107619047D01*
X164809523Y-107666666D01*
X164904761Y-107761904D01*
X164952380Y-107857142D01*
X164952380Y-108047619D01*
X163952380Y-106714285D02*
X163952380Y-107190476D01*
X164428571Y-107238095D01*
X164380952Y-107190476D01*
X164333333Y-107095238D01*
X164333333Y-106857142D01*
X164380952Y-106761904D01*
X164428571Y-106714285D01*
X164523809Y-106666666D01*
X164761904Y-106666666D01*
X164857142Y-106714285D01*
X164904761Y-106761904D01*
X164952380Y-106857142D01*
X164952380Y-107095238D01*
X164904761Y-107190476D01*
X164857142Y-107238095D01*
X164952380Y-106190476D02*
X164952380Y-106000000D01*
X164904761Y-105904761D01*
X164857142Y-105857142D01*
X164714285Y-105761904D01*
X164523809Y-105714285D01*
X164142857Y-105714285D01*
X164047619Y-105761904D01*
X164000000Y-105809523D01*
X163952380Y-105904761D01*
X163952380Y-106095238D01*
X164000000Y-106190476D01*
X164047619Y-106238095D01*
X164142857Y-106285714D01*
X164380952Y-106285714D01*
X164476190Y-106238095D01*
X164523809Y-106190476D01*
X164571428Y-106095238D01*
X164571428Y-105904761D01*
X164523809Y-105809523D01*
X164476190Y-105761904D01*
X164380952Y-105714285D01*
%TO.C,Q60*%
X165047619Y-102571428D02*
X165000000Y-102666666D01*
X164904761Y-102761904D01*
X164761904Y-102904761D01*
X164714285Y-103000000D01*
X164714285Y-103095238D01*
X164952380Y-103047619D02*
X164904761Y-103142857D01*
X164809523Y-103238095D01*
X164619047Y-103285714D01*
X164285714Y-103285714D01*
X164095238Y-103238095D01*
X164000000Y-103142857D01*
X163952380Y-103047619D01*
X163952380Y-102857142D01*
X164000000Y-102761904D01*
X164095238Y-102666666D01*
X164285714Y-102619047D01*
X164619047Y-102619047D01*
X164809523Y-102666666D01*
X164904761Y-102761904D01*
X164952380Y-102857142D01*
X164952380Y-103047619D01*
X163952380Y-101761904D02*
X163952380Y-101952380D01*
X164000000Y-102047619D01*
X164047619Y-102095238D01*
X164190476Y-102190476D01*
X164380952Y-102238095D01*
X164761904Y-102238095D01*
X164857142Y-102190476D01*
X164904761Y-102142857D01*
X164952380Y-102047619D01*
X164952380Y-101857142D01*
X164904761Y-101761904D01*
X164857142Y-101714285D01*
X164761904Y-101666666D01*
X164523809Y-101666666D01*
X164428571Y-101714285D01*
X164380952Y-101761904D01*
X164333333Y-101857142D01*
X164333333Y-102047619D01*
X164380952Y-102142857D01*
X164428571Y-102190476D01*
X164523809Y-102238095D01*
X163952380Y-101047619D02*
X163952380Y-100952380D01*
X164000000Y-100857142D01*
X164047619Y-100809523D01*
X164142857Y-100761904D01*
X164333333Y-100714285D01*
X164571428Y-100714285D01*
X164761904Y-100761904D01*
X164857142Y-100809523D01*
X164904761Y-100857142D01*
X164952380Y-100952380D01*
X164952380Y-101047619D01*
X164904761Y-101142857D01*
X164857142Y-101190476D01*
X164761904Y-101238095D01*
X164571428Y-101285714D01*
X164333333Y-101285714D01*
X164142857Y-101238095D01*
X164047619Y-101190476D01*
X164000000Y-101142857D01*
X163952380Y-101047619D01*
%TO.C,Q61*%
X165047619Y-97571428D02*
X165000000Y-97666666D01*
X164904761Y-97761904D01*
X164761904Y-97904761D01*
X164714285Y-98000000D01*
X164714285Y-98095238D01*
X164952380Y-98047619D02*
X164904761Y-98142857D01*
X164809523Y-98238095D01*
X164619047Y-98285714D01*
X164285714Y-98285714D01*
X164095238Y-98238095D01*
X164000000Y-98142857D01*
X163952380Y-98047619D01*
X163952380Y-97857142D01*
X164000000Y-97761904D01*
X164095238Y-97666666D01*
X164285714Y-97619047D01*
X164619047Y-97619047D01*
X164809523Y-97666666D01*
X164904761Y-97761904D01*
X164952380Y-97857142D01*
X164952380Y-98047619D01*
X163952380Y-96761904D02*
X163952380Y-96952380D01*
X164000000Y-97047619D01*
X164047619Y-97095238D01*
X164190476Y-97190476D01*
X164380952Y-97238095D01*
X164761904Y-97238095D01*
X164857142Y-97190476D01*
X164904761Y-97142857D01*
X164952380Y-97047619D01*
X164952380Y-96857142D01*
X164904761Y-96761904D01*
X164857142Y-96714285D01*
X164761904Y-96666666D01*
X164523809Y-96666666D01*
X164428571Y-96714285D01*
X164380952Y-96761904D01*
X164333333Y-96857142D01*
X164333333Y-97047619D01*
X164380952Y-97142857D01*
X164428571Y-97190476D01*
X164523809Y-97238095D01*
X164952380Y-95714285D02*
X164952380Y-96285714D01*
X164952380Y-96000000D02*
X163952380Y-96000000D01*
X164095238Y-96095238D01*
X164190476Y-96190476D01*
X164238095Y-96285714D01*
%TO.C,R1*%
X84833333Y-85452380D02*
X84500000Y-84976190D01*
X84261904Y-85452380D02*
X84261904Y-84452380D01*
X84642857Y-84452380D01*
X84738095Y-84500000D01*
X84785714Y-84547619D01*
X84833333Y-84642857D01*
X84833333Y-84785714D01*
X84785714Y-84880952D01*
X84738095Y-84928571D01*
X84642857Y-84976190D01*
X84261904Y-84976190D01*
X85785714Y-85452380D02*
X85214285Y-85452380D01*
X85500000Y-85452380D02*
X85500000Y-84452380D01*
X85404761Y-84595238D01*
X85309523Y-84690476D01*
X85214285Y-84738095D01*
%TO.C,R2*%
X88833333Y-85452380D02*
X88500000Y-84976190D01*
X88261904Y-85452380D02*
X88261904Y-84452380D01*
X88642857Y-84452380D01*
X88738095Y-84500000D01*
X88785714Y-84547619D01*
X88833333Y-84642857D01*
X88833333Y-84785714D01*
X88785714Y-84880952D01*
X88738095Y-84928571D01*
X88642857Y-84976190D01*
X88261904Y-84976190D01*
X89214285Y-84547619D02*
X89261904Y-84500000D01*
X89357142Y-84452380D01*
X89595238Y-84452380D01*
X89690476Y-84500000D01*
X89738095Y-84547619D01*
X89785714Y-84642857D01*
X89785714Y-84738095D01*
X89738095Y-84880952D01*
X89166666Y-85452380D01*
X89785714Y-85452380D01*
%TO.C,U1*%
X71238095Y-77862380D02*
X71238095Y-78671904D01*
X71285714Y-78767142D01*
X71333333Y-78814761D01*
X71428571Y-78862380D01*
X71619047Y-78862380D01*
X71714285Y-78814761D01*
X71761904Y-78767142D01*
X71809523Y-78671904D01*
X71809523Y-77862380D01*
X72809523Y-78862380D02*
X72238095Y-78862380D01*
X72523809Y-78862380D02*
X72523809Y-77862380D01*
X72428571Y-78005238D01*
X72333333Y-78100476D01*
X72238095Y-78148095D01*
%TO.C,U2*%
X96238095Y-77052380D02*
X96238095Y-77861904D01*
X96285714Y-77957142D01*
X96333333Y-78004761D01*
X96428571Y-78052380D01*
X96619047Y-78052380D01*
X96714285Y-78004761D01*
X96761904Y-77957142D01*
X96809523Y-77861904D01*
X96809523Y-77052380D01*
X97238095Y-77147619D02*
X97285714Y-77100000D01*
X97380952Y-77052380D01*
X97619047Y-77052380D01*
X97714285Y-77100000D01*
X97761904Y-77147619D01*
X97809523Y-77242857D01*
X97809523Y-77338095D01*
X97761904Y-77480952D01*
X97190476Y-78052380D01*
X97809523Y-78052380D01*
%TO.C,U3*%
X180588095Y-75952380D02*
X180588095Y-76761904D01*
X180635714Y-76857142D01*
X180683333Y-76904761D01*
X180778571Y-76952380D01*
X180969047Y-76952380D01*
X181064285Y-76904761D01*
X181111904Y-76857142D01*
X181159523Y-76761904D01*
X181159523Y-75952380D01*
X181540476Y-75952380D02*
X182159523Y-75952380D01*
X181826190Y-76333333D01*
X181969047Y-76333333D01*
X182064285Y-76380952D01*
X182111904Y-76428571D01*
X182159523Y-76523809D01*
X182159523Y-76761904D01*
X182111904Y-76857142D01*
X182064285Y-76904761D01*
X181969047Y-76952380D01*
X181683333Y-76952380D01*
X181588095Y-76904761D01*
X181540476Y-76857142D01*
%TO.C,U5*%
X65552380Y-90761904D02*
X66361904Y-90761904D01*
X66457142Y-90714285D01*
X66504761Y-90666666D01*
X66552380Y-90571428D01*
X66552380Y-90380952D01*
X66504761Y-90285714D01*
X66457142Y-90238095D01*
X66361904Y-90190476D01*
X65552380Y-90190476D01*
X65552380Y-89238095D02*
X65552380Y-89714285D01*
X66028571Y-89761904D01*
X65980952Y-89714285D01*
X65933333Y-89619047D01*
X65933333Y-89380952D01*
X65980952Y-89285714D01*
X66028571Y-89238095D01*
X66123809Y-89190476D01*
X66361904Y-89190476D01*
X66457142Y-89238095D01*
X66504761Y-89285714D01*
X66552380Y-89380952D01*
X66552380Y-89619047D01*
X66504761Y-89714285D01*
X66457142Y-89761904D01*
%TO.C,U9*%
X113552380Y-90761904D02*
X114361904Y-90761904D01*
X114457142Y-90714285D01*
X114504761Y-90666666D01*
X114552380Y-90571428D01*
X114552380Y-90380952D01*
X114504761Y-90285714D01*
X114457142Y-90238095D01*
X114361904Y-90190476D01*
X113552380Y-90190476D01*
X114552380Y-89666666D02*
X114552380Y-89476190D01*
X114504761Y-89380952D01*
X114457142Y-89333333D01*
X114314285Y-89238095D01*
X114123809Y-89190476D01*
X113742857Y-89190476D01*
X113647619Y-89238095D01*
X113600000Y-89285714D01*
X113552380Y-89380952D01*
X113552380Y-89571428D01*
X113600000Y-89666666D01*
X113647619Y-89714285D01*
X113742857Y-89761904D01*
X113980952Y-89761904D01*
X114076190Y-89714285D01*
X114123809Y-89666666D01*
X114171428Y-89571428D01*
X114171428Y-89380952D01*
X114123809Y-89285714D01*
X114076190Y-89238095D01*
X113980952Y-89190476D01*
%TO.C,U6*%
X77552380Y-90761904D02*
X78361904Y-90761904D01*
X78457142Y-90714285D01*
X78504761Y-90666666D01*
X78552380Y-90571428D01*
X78552380Y-90380952D01*
X78504761Y-90285714D01*
X78457142Y-90238095D01*
X78361904Y-90190476D01*
X77552380Y-90190476D01*
X77552380Y-89285714D02*
X77552380Y-89476190D01*
X77600000Y-89571428D01*
X77647619Y-89619047D01*
X77790476Y-89714285D01*
X77980952Y-89761904D01*
X78361904Y-89761904D01*
X78457142Y-89714285D01*
X78504761Y-89666666D01*
X78552380Y-89571428D01*
X78552380Y-89380952D01*
X78504761Y-89285714D01*
X78457142Y-89238095D01*
X78361904Y-89190476D01*
X78123809Y-89190476D01*
X78028571Y-89238095D01*
X77980952Y-89285714D01*
X77933333Y-89380952D01*
X77933333Y-89571428D01*
X77980952Y-89666666D01*
X78028571Y-89714285D01*
X78123809Y-89761904D01*
%TO.C,U10*%
X125552380Y-91238095D02*
X126361904Y-91238095D01*
X126457142Y-91190476D01*
X126504761Y-91142857D01*
X126552380Y-91047619D01*
X126552380Y-90857142D01*
X126504761Y-90761904D01*
X126457142Y-90714285D01*
X126361904Y-90666666D01*
X125552380Y-90666666D01*
X126552380Y-89666666D02*
X126552380Y-90238095D01*
X126552380Y-89952380D02*
X125552380Y-89952380D01*
X125695238Y-90047619D01*
X125790476Y-90142857D01*
X125838095Y-90238095D01*
X125552380Y-89047619D02*
X125552380Y-88952380D01*
X125600000Y-88857142D01*
X125647619Y-88809523D01*
X125742857Y-88761904D01*
X125933333Y-88714285D01*
X126171428Y-88714285D01*
X126361904Y-88761904D01*
X126457142Y-88809523D01*
X126504761Y-88857142D01*
X126552380Y-88952380D01*
X126552380Y-89047619D01*
X126504761Y-89142857D01*
X126457142Y-89190476D01*
X126361904Y-89238095D01*
X126171428Y-89285714D01*
X125933333Y-89285714D01*
X125742857Y-89238095D01*
X125647619Y-89190476D01*
X125600000Y-89142857D01*
X125552380Y-89047619D01*
%TO.C,U7*%
X89552380Y-90761904D02*
X90361904Y-90761904D01*
X90457142Y-90714285D01*
X90504761Y-90666666D01*
X90552380Y-90571428D01*
X90552380Y-90380952D01*
X90504761Y-90285714D01*
X90457142Y-90238095D01*
X90361904Y-90190476D01*
X89552380Y-90190476D01*
X89552380Y-89809523D02*
X89552380Y-89142857D01*
X90552380Y-89571428D01*
%TO.C,U11*%
X137552380Y-91238095D02*
X138361904Y-91238095D01*
X138457142Y-91190476D01*
X138504761Y-91142857D01*
X138552380Y-91047619D01*
X138552380Y-90857142D01*
X138504761Y-90761904D01*
X138457142Y-90714285D01*
X138361904Y-90666666D01*
X137552380Y-90666666D01*
X138552380Y-89666666D02*
X138552380Y-90238095D01*
X138552380Y-89952380D02*
X137552380Y-89952380D01*
X137695238Y-90047619D01*
X137790476Y-90142857D01*
X137838095Y-90238095D01*
X138552380Y-88714285D02*
X138552380Y-89285714D01*
X138552380Y-89000000D02*
X137552380Y-89000000D01*
X137695238Y-89095238D01*
X137790476Y-89190476D01*
X137838095Y-89285714D01*
%TO.C,U8*%
X101552380Y-90761904D02*
X102361904Y-90761904D01*
X102457142Y-90714285D01*
X102504761Y-90666666D01*
X102552380Y-90571428D01*
X102552380Y-90380952D01*
X102504761Y-90285714D01*
X102457142Y-90238095D01*
X102361904Y-90190476D01*
X101552380Y-90190476D01*
X101980952Y-89571428D02*
X101933333Y-89666666D01*
X101885714Y-89714285D01*
X101790476Y-89761904D01*
X101742857Y-89761904D01*
X101647619Y-89714285D01*
X101600000Y-89666666D01*
X101552380Y-89571428D01*
X101552380Y-89380952D01*
X101600000Y-89285714D01*
X101647619Y-89238095D01*
X101742857Y-89190476D01*
X101790476Y-89190476D01*
X101885714Y-89238095D01*
X101933333Y-89285714D01*
X101980952Y-89380952D01*
X101980952Y-89571428D01*
X102028571Y-89666666D01*
X102076190Y-89714285D01*
X102171428Y-89761904D01*
X102361904Y-89761904D01*
X102457142Y-89714285D01*
X102504761Y-89666666D01*
X102552380Y-89571428D01*
X102552380Y-89380952D01*
X102504761Y-89285714D01*
X102457142Y-89238095D01*
X102361904Y-89190476D01*
X102171428Y-89190476D01*
X102076190Y-89238095D01*
X102028571Y-89285714D01*
X101980952Y-89380952D01*
%TO.C,U12*%
X149552380Y-91238095D02*
X150361904Y-91238095D01*
X150457142Y-91190476D01*
X150504761Y-91142857D01*
X150552380Y-91047619D01*
X150552380Y-90857142D01*
X150504761Y-90761904D01*
X150457142Y-90714285D01*
X150361904Y-90666666D01*
X149552380Y-90666666D01*
X150552380Y-89666666D02*
X150552380Y-90238095D01*
X150552380Y-89952380D02*
X149552380Y-89952380D01*
X149695238Y-90047619D01*
X149790476Y-90142857D01*
X149838095Y-90238095D01*
X149647619Y-89285714D02*
X149600000Y-89238095D01*
X149552380Y-89142857D01*
X149552380Y-88904761D01*
X149600000Y-88809523D01*
X149647619Y-88761904D01*
X149742857Y-88714285D01*
X149838095Y-88714285D01*
X149980952Y-88761904D01*
X150552380Y-89333333D01*
X150552380Y-88714285D01*
%TO.C,Y1*%
X89976190Y-79476190D02*
X90452380Y-79476190D01*
X89452380Y-79809523D02*
X89976190Y-79476190D01*
X89452380Y-79142857D01*
X90452380Y-78285714D02*
X90452380Y-78857142D01*
X90452380Y-78571428D02*
X89452380Y-78571428D01*
X89595238Y-78666666D01*
X89690476Y-78761904D01*
X89738095Y-78857142D01*
%TO.C,C1*%
X196833333Y-87357142D02*
X196785714Y-87404761D01*
X196642857Y-87452380D01*
X196547619Y-87452380D01*
X196404761Y-87404761D01*
X196309523Y-87309523D01*
X196261904Y-87214285D01*
X196214285Y-87023809D01*
X196214285Y-86880952D01*
X196261904Y-86690476D01*
X196309523Y-86595238D01*
X196404761Y-86500000D01*
X196547619Y-86452380D01*
X196642857Y-86452380D01*
X196785714Y-86500000D01*
X196833333Y-86547619D01*
X197785714Y-87452380D02*
X197214285Y-87452380D01*
X197500000Y-87452380D02*
X197500000Y-86452380D01*
X197404761Y-86595238D01*
X197309523Y-86690476D01*
X197214285Y-86738095D01*
%TO.C,C2*%
X191833333Y-97007142D02*
X191785714Y-97054761D01*
X191642857Y-97102380D01*
X191547619Y-97102380D01*
X191404761Y-97054761D01*
X191309523Y-96959523D01*
X191261904Y-96864285D01*
X191214285Y-96673809D01*
X191214285Y-96530952D01*
X191261904Y-96340476D01*
X191309523Y-96245238D01*
X191404761Y-96150000D01*
X191547619Y-96102380D01*
X191642857Y-96102380D01*
X191785714Y-96150000D01*
X191833333Y-96197619D01*
X192214285Y-96197619D02*
X192261904Y-96150000D01*
X192357142Y-96102380D01*
X192595238Y-96102380D01*
X192690476Y-96150000D01*
X192738095Y-96197619D01*
X192785714Y-96292857D01*
X192785714Y-96388095D01*
X192738095Y-96530952D01*
X192166666Y-97102380D01*
X192785714Y-97102380D01*
%TO.C,J6*%
X132122380Y-111333333D02*
X132836666Y-111333333D01*
X132979523Y-111380952D01*
X133074761Y-111476190D01*
X133122380Y-111619047D01*
X133122380Y-111714285D01*
X132122380Y-110428571D02*
X132122380Y-110619047D01*
X132170000Y-110714285D01*
X132217619Y-110761904D01*
X132360476Y-110857142D01*
X132550952Y-110904761D01*
X132931904Y-110904761D01*
X133027142Y-110857142D01*
X133074761Y-110809523D01*
X133122380Y-110714285D01*
X133122380Y-110523809D01*
X133074761Y-110428571D01*
X133027142Y-110380952D01*
X132931904Y-110333333D01*
X132693809Y-110333333D01*
X132598571Y-110380952D01*
X132550952Y-110428571D01*
X132503333Y-110523809D01*
X132503333Y-110714285D01*
X132550952Y-110809523D01*
X132598571Y-110857142D01*
X132693809Y-110904761D01*
%TO.C,J8*%
X102666666Y-76452380D02*
X102666666Y-77166666D01*
X102619047Y-77309523D01*
X102523809Y-77404761D01*
X102380952Y-77452380D01*
X102285714Y-77452380D01*
X103285714Y-76880952D02*
X103190476Y-76833333D01*
X103142857Y-76785714D01*
X103095238Y-76690476D01*
X103095238Y-76642857D01*
X103142857Y-76547619D01*
X103190476Y-76500000D01*
X103285714Y-76452380D01*
X103476190Y-76452380D01*
X103571428Y-76500000D01*
X103619047Y-76547619D01*
X103666666Y-76642857D01*
X103666666Y-76690476D01*
X103619047Y-76785714D01*
X103571428Y-76833333D01*
X103476190Y-76880952D01*
X103285714Y-76880952D01*
X103190476Y-76928571D01*
X103142857Y-76976190D01*
X103095238Y-77071428D01*
X103095238Y-77261904D01*
X103142857Y-77357142D01*
X103190476Y-77404761D01*
X103285714Y-77452380D01*
X103476190Y-77452380D01*
X103571428Y-77404761D01*
X103619047Y-77357142D01*
X103666666Y-77261904D01*
X103666666Y-77071428D01*
X103619047Y-76976190D01*
X103571428Y-76928571D01*
X103476190Y-76880952D01*
%TD*%
M02*
