%TF.GenerationSoftware,KiCad,Pcbnew,(5.1.5-131-g305ed0b65)-1*%
%TF.CreationDate,2020-05-05T20:00:19+08:00*%
%TF.ProjectId,NixieController,4e697869-6543-46f6-9e74-726f6c6c6572,rev?*%
%TF.SameCoordinates,Original*%
%TF.FileFunction,Legend,Bot*%
%TF.FilePolarity,Positive*%
%FSLAX46Y46*%
G04 Gerber Fmt 4.6, Leading zero omitted, Abs format (unit mm)*
G04 Created by KiCad (PCBNEW (5.1.5-131-g305ed0b65)-1) date 2020-05-05 20:00:19*
%MOMM*%
%LPD*%
G01*
G04 APERTURE LIST*
%ADD10C,0.120000*%
%ADD11C,0.150000*%
G04 APERTURE END LIST*
D10*
%TO.C,BT1*%
X115500000Y-90000000D02*
G75*
G03*
X115500000Y-90000000I-7500000J0D01*
G01*
X101000000Y-83000000D02*
X115000000Y-83000000D01*
X115000000Y-83000000D02*
X115000000Y-84000000D01*
X115000000Y-84000000D02*
X101000000Y-84000000D01*
X101000000Y-84000000D02*
X101000000Y-83000000D01*
D11*
X108785714Y-101928571D02*
X108642857Y-101976190D01*
X108595238Y-102023809D01*
X108547619Y-102119047D01*
X108547619Y-102261904D01*
X108595238Y-102357142D01*
X108642857Y-102404761D01*
X108738095Y-102452380D01*
X109119047Y-102452380D01*
X109119047Y-101452380D01*
X108785714Y-101452380D01*
X108690476Y-101500000D01*
X108642857Y-101547619D01*
X108595238Y-101642857D01*
X108595238Y-101738095D01*
X108642857Y-101833333D01*
X108690476Y-101880952D01*
X108785714Y-101928571D01*
X109119047Y-101928571D01*
X108261904Y-101452380D02*
X107690476Y-101452380D01*
X107976190Y-102452380D02*
X107976190Y-101452380D01*
X106833333Y-102452380D02*
X107404761Y-102452380D01*
X107119047Y-102452380D02*
X107119047Y-101452380D01*
X107214285Y-101595238D01*
X107309523Y-101690476D01*
X107404761Y-101738095D01*
%TD*%
M02*
