%TF.GenerationSoftware,KiCad,Pcbnew,(5.1.5-131-g305ed0b65)-1*%
%TF.CreationDate,2020-05-02T04:27:49+08:00*%
%TF.ProjectId,NixieController,4e697869-6543-46f6-9e74-726f6c6c6572,rev?*%
%TF.SameCoordinates,Original*%
%TF.FileFunction,Copper,L2,Bot*%
%TF.FilePolarity,Positive*%
%FSLAX46Y46*%
G04 Gerber Fmt 4.6, Leading zero omitted, Abs format (unit mm)*
G04 Created by KiCad (PCBNEW (5.1.5-131-g305ed0b65)-1) date 2020-05-02 04:27:49*
%MOMM*%
%LPD*%
G01*
G04 APERTURE LIST*
%TA.AperFunction,ComponentPad*%
%ADD10R,3.500000X3.500000*%
%TD*%
%TA.AperFunction,ComponentPad*%
%ADD11C,1.260000*%
%TD*%
%TA.AperFunction,ComponentPad*%
%ADD12R,3.200000X3.200000*%
%TD*%
%TA.AperFunction,ComponentPad*%
%ADD13O,3.200000X3.200000*%
%TD*%
%TA.AperFunction,ComponentPad*%
%ADD14O,1.700000X1.700000*%
%TD*%
%TA.AperFunction,ComponentPad*%
%ADD15R,1.700000X1.700000*%
%TD*%
%TA.AperFunction,ViaPad*%
%ADD16C,0.800000*%
%TD*%
%TA.AperFunction,ViaPad*%
%ADD17C,0.500000*%
%TD*%
%TA.AperFunction,Conductor*%
%ADD18C,1.000000*%
%TD*%
%TA.AperFunction,Conductor*%
%ADD19C,0.254000*%
%TD*%
%TA.AperFunction,Conductor*%
%ADD20C,0.250000*%
%TD*%
%TA.AperFunction,Conductor*%
%ADD21C,0.152400*%
%TD*%
%TA.AperFunction,Conductor*%
%ADD22C,0.400000*%
%TD*%
G04 APERTURE END LIST*
D10*
%TO.P,J7,1*%
%TO.N,+12V*%
X203500000Y-85000000D03*
%TO.P,J7,2*%
%TO.N,GND*%
%TA.AperFunction,ComponentPad*%
G36*
G01*
X202500000Y-77500000D02*
X204500000Y-77500000D01*
G75*
G02*
X205250000Y-78250000I0J-750000D01*
G01*
X205250000Y-79750000D01*
G75*
G02*
X204500000Y-80500000I-750000J0D01*
G01*
X202500000Y-80500000D01*
G75*
G02*
X201750000Y-79750000I0J750000D01*
G01*
X201750000Y-78250000D01*
G75*
G02*
X202500000Y-77500000I750000J0D01*
G01*
G37*
%TD.AperFunction*%
%TO.P,J7,3*%
%TO.N,N/C*%
%TA.AperFunction,ComponentPad*%
G36*
G01*
X197925000Y-80250000D02*
X199675000Y-80250000D01*
G75*
G02*
X200550000Y-81125000I0J-875000D01*
G01*
X200550000Y-82875000D01*
G75*
G02*
X199675000Y-83750000I-875000J0D01*
G01*
X197925000Y-83750000D01*
G75*
G02*
X197050000Y-82875000I0J875000D01*
G01*
X197050000Y-81125000D01*
G75*
G02*
X197925000Y-80250000I875000J0D01*
G01*
G37*
%TD.AperFunction*%
%TD*%
D11*
%TO.P,RV1,3*%
%TO.N,GND*%
X198920000Y-104000000D03*
%TO.P,RV1,2*%
%TO.N,Net-(R5-Pad2)*%
X201460000Y-106540000D03*
%TO.P,RV1,1*%
%TO.N,Net-(RV1-Pad1)*%
X204000000Y-104000000D03*
%TD*%
D12*
%TO.P,D1,1*%
%TO.N,Net-(D1-Pad1)*%
X178000000Y-91000000D03*
D13*
%TO.P,D1,2*%
%TO.N,GND*%
X178000000Y-78300000D03*
%TD*%
D14*
%TO.P,J8,2*%
%TO.N,GND*%
X103000000Y-79000000D03*
D15*
%TO.P,J8,1*%
%TO.N,Net-(J8-Pad1)*%
X103000000Y-81540000D03*
%TD*%
%TO.P,J9,1*%
%TO.N,+5V*%
X75000000Y-77000000D03*
D14*
%TO.P,J9,2*%
%TO.N,/MOSI*%
X77540000Y-77000000D03*
%TO.P,J9,3*%
%TO.N,/MISO*%
X80080000Y-77000000D03*
%TO.P,J9,4*%
%TO.N,/SCK*%
X82620000Y-77000000D03*
%TO.P,J9,5*%
%TO.N,/RST*%
X85160000Y-77000000D03*
%TO.P,J9,6*%
%TO.N,GND*%
X87700000Y-77000000D03*
%TD*%
%TO.P,J1,12*%
%TO.N,GND*%
X96940000Y-114000000D03*
%TO.P,J1,11*%
%TO.N,+180V*%
X94400000Y-114000000D03*
%TO.P,J1,10*%
%TO.N,/D9*%
X91860000Y-114000000D03*
%TO.P,J1,9*%
%TO.N,/D8*%
X89320000Y-114000000D03*
%TO.P,J1,8*%
%TO.N,/D7*%
X86780000Y-114000000D03*
%TO.P,J1,7*%
%TO.N,/D6*%
X84240000Y-114000000D03*
%TO.P,J1,6*%
%TO.N,/D5*%
X81700000Y-114000000D03*
%TO.P,J1,5*%
%TO.N,/D4*%
X79160000Y-114000000D03*
%TO.P,J1,4*%
%TO.N,/D3*%
X76620000Y-114000000D03*
%TO.P,J1,3*%
%TO.N,/D2*%
X74080000Y-114000000D03*
%TO.P,J1,2*%
%TO.N,/D1*%
X71540000Y-114000000D03*
D15*
%TO.P,J1,1*%
%TO.N,/D0*%
X69000000Y-114000000D03*
%TD*%
D14*
%TO.P,J2,12*%
%TO.N,GND*%
X96940000Y-111000000D03*
%TO.P,J2,11*%
%TO.N,+180V*%
X94400000Y-111000000D03*
%TO.P,J2,10*%
%TO.N,/D19*%
X91860000Y-111000000D03*
%TO.P,J2,9*%
%TO.N,/D18*%
X89320000Y-111000000D03*
%TO.P,J2,8*%
%TO.N,/D17*%
X86780000Y-111000000D03*
%TO.P,J2,7*%
%TO.N,/D16*%
X84240000Y-111000000D03*
%TO.P,J2,6*%
%TO.N,/D15*%
X81700000Y-111000000D03*
%TO.P,J2,5*%
%TO.N,/D14*%
X79160000Y-111000000D03*
%TO.P,J2,4*%
%TO.N,/D13*%
X76620000Y-111000000D03*
%TO.P,J2,3*%
%TO.N,/D12*%
X74080000Y-111000000D03*
%TO.P,J2,2*%
%TO.N,/D11*%
X71540000Y-111000000D03*
D15*
%TO.P,J2,1*%
%TO.N,/D10*%
X69000000Y-111000000D03*
%TD*%
%TO.P,J3,1*%
%TO.N,/D20*%
X102000000Y-114000000D03*
D14*
%TO.P,J3,2*%
%TO.N,/D21*%
X104540000Y-114000000D03*
%TO.P,J3,3*%
%TO.N,/D22*%
X107080000Y-114000000D03*
%TO.P,J3,4*%
%TO.N,/D23*%
X109620000Y-114000000D03*
%TO.P,J3,5*%
%TO.N,/D24*%
X112160000Y-114000000D03*
%TO.P,J3,6*%
%TO.N,/D25*%
X114700000Y-114000000D03*
%TO.P,J3,7*%
%TO.N,/D26*%
X117240000Y-114000000D03*
%TO.P,J3,8*%
%TO.N,/D27*%
X119780000Y-114000000D03*
%TO.P,J3,9*%
%TO.N,/D28*%
X122320000Y-114000000D03*
%TO.P,J3,10*%
%TO.N,/D29*%
X124860000Y-114000000D03*
%TO.P,J3,11*%
%TO.N,+180V*%
X127400000Y-114000000D03*
%TO.P,J3,12*%
%TO.N,GND*%
X129940000Y-114000000D03*
%TD*%
D15*
%TO.P,J4,1*%
%TO.N,/D30*%
X102000000Y-111000000D03*
D14*
%TO.P,J4,2*%
%TO.N,/D31*%
X104540000Y-111000000D03*
%TO.P,J4,3*%
%TO.N,/D32*%
X107080000Y-111000000D03*
%TO.P,J4,4*%
%TO.N,/D33*%
X109620000Y-111000000D03*
%TO.P,J4,5*%
%TO.N,/D34*%
X112160000Y-111000000D03*
%TO.P,J4,6*%
%TO.N,/D35*%
X114700000Y-111000000D03*
%TO.P,J4,7*%
%TO.N,/D36*%
X117240000Y-111000000D03*
%TO.P,J4,8*%
%TO.N,/D37*%
X119780000Y-111000000D03*
%TO.P,J4,9*%
%TO.N,/D38*%
X122320000Y-111000000D03*
%TO.P,J4,10*%
%TO.N,/D39*%
X124860000Y-111000000D03*
%TO.P,J4,11*%
%TO.N,+180V*%
X127400000Y-111000000D03*
%TO.P,J4,12*%
%TO.N,GND*%
X129940000Y-111000000D03*
%TD*%
D15*
%TO.P,J5,1*%
%TO.N,/D40*%
X135000000Y-114000000D03*
D14*
%TO.P,J5,2*%
%TO.N,/D41*%
X137540000Y-114000000D03*
%TO.P,J5,3*%
%TO.N,/D42*%
X140080000Y-114000000D03*
%TO.P,J5,4*%
%TO.N,/D43*%
X142620000Y-114000000D03*
%TO.P,J5,5*%
%TO.N,/D44*%
X145160000Y-114000000D03*
%TO.P,J5,6*%
%TO.N,/D45*%
X147700000Y-114000000D03*
%TO.P,J5,7*%
%TO.N,/D46*%
X150240000Y-114000000D03*
%TO.P,J5,8*%
%TO.N,/D47*%
X152780000Y-114000000D03*
%TO.P,J5,9*%
%TO.N,/D48*%
X155320000Y-114000000D03*
%TO.P,J5,10*%
%TO.N,/D49*%
X157860000Y-114000000D03*
%TO.P,J5,11*%
%TO.N,+180V*%
X160400000Y-114000000D03*
%TO.P,J5,12*%
%TO.N,GND*%
X162940000Y-114000000D03*
%TD*%
%TO.P,J6,12*%
%TO.N,GND*%
X162940000Y-111000000D03*
%TO.P,J6,11*%
%TO.N,+180V*%
X160400000Y-111000000D03*
%TO.P,J6,10*%
%TO.N,/D59*%
X157860000Y-111000000D03*
%TO.P,J6,9*%
%TO.N,/D58*%
X155320000Y-111000000D03*
%TO.P,J6,8*%
%TO.N,/D57*%
X152780000Y-111000000D03*
%TO.P,J6,7*%
%TO.N,/D56*%
X150240000Y-111000000D03*
%TO.P,J6,6*%
%TO.N,/D55*%
X147700000Y-111000000D03*
%TO.P,J6,5*%
%TO.N,/D54*%
X145160000Y-111000000D03*
%TO.P,J6,4*%
%TO.N,/D53*%
X142620000Y-111000000D03*
%TO.P,J6,3*%
%TO.N,/D52*%
X140080000Y-111000000D03*
%TO.P,J6,2*%
%TO.N,/D51*%
X137540000Y-111000000D03*
D15*
%TO.P,J6,1*%
%TO.N,/D50*%
X135000000Y-111000000D03*
%TD*%
D16*
%TO.N,+12V*%
X182500000Y-89000000D03*
X197500000Y-86500000D03*
D17*
%TO.N,GND*%
X146000000Y-105000000D03*
X161000000Y-105000000D03*
X151000000Y-105000000D03*
X131000000Y-105000000D03*
X116000000Y-105000000D03*
X136000000Y-105000000D03*
X126000000Y-105000000D03*
X121000000Y-105000000D03*
X66000000Y-105000000D03*
X71000000Y-105000000D03*
X106000000Y-105000000D03*
X91000000Y-105000000D03*
X96000000Y-105000000D03*
X111000000Y-105000000D03*
X101000000Y-105000000D03*
X156000000Y-105000000D03*
X141000000Y-105000000D03*
X146000000Y-100000000D03*
X161000000Y-100000000D03*
X151000000Y-100000000D03*
X131000000Y-100000000D03*
X116000000Y-100000000D03*
X136000000Y-100000000D03*
X126000000Y-100000000D03*
X121000000Y-100000000D03*
X81000000Y-100000000D03*
X66000000Y-100000000D03*
X71000000Y-100000000D03*
X86000000Y-100000000D03*
X106000000Y-100000000D03*
X91000000Y-100000000D03*
X96000000Y-100000000D03*
X111000000Y-100000000D03*
X101000000Y-100000000D03*
X76000000Y-100000000D03*
X156000000Y-100000000D03*
X156000000Y-95000000D03*
X146000000Y-95000000D03*
X161000000Y-95000000D03*
X151000000Y-95000000D03*
X131000000Y-95000000D03*
X116000000Y-95000000D03*
X121000000Y-95000000D03*
X136000000Y-95000000D03*
X126000000Y-95000000D03*
X106000000Y-95000000D03*
X91000000Y-95000000D03*
X96000000Y-95000000D03*
X111000000Y-95000000D03*
X101000000Y-95000000D03*
X155500000Y-86000000D03*
X160500000Y-94000000D03*
X143500000Y-86000000D03*
X148500000Y-94000000D03*
X131500000Y-86000000D03*
X136500000Y-94000000D03*
X119500000Y-86000000D03*
X124500000Y-94000000D03*
X107500000Y-86000000D03*
X112500000Y-94000000D03*
X95500000Y-86000000D03*
X100500000Y-94000000D03*
X83500000Y-86000000D03*
X88500000Y-94000000D03*
D16*
X212500000Y-101500000D03*
X213500000Y-101500000D03*
X213500000Y-102500000D03*
X212500000Y-102500000D03*
X212500000Y-103500000D03*
X213500000Y-103500000D03*
X212500000Y-104500000D03*
X213500000Y-104500000D03*
D17*
X94500000Y-77000000D03*
X95500000Y-77000000D03*
X96500000Y-77000000D03*
X96000000Y-77500000D03*
X95000000Y-77500000D03*
X95500000Y-78000000D03*
X96500000Y-78000000D03*
X92500000Y-82000000D03*
X91500000Y-82000000D03*
X90500000Y-82000000D03*
X90000000Y-82500000D03*
X91000000Y-82500000D03*
X92000000Y-82500000D03*
X93000000Y-82500000D03*
X93500000Y-83000000D03*
X92500000Y-83000000D03*
X91500000Y-83000000D03*
X90500000Y-83000000D03*
X71500000Y-86000000D03*
X76500000Y-94000000D03*
X67000000Y-84000000D03*
X66000000Y-95000000D03*
X71000000Y-95000000D03*
X76000000Y-95000000D03*
X81000000Y-95000000D03*
X86000000Y-95000000D03*
X86000000Y-105000000D03*
X144500000Y-102500000D03*
X79000000Y-103000000D03*
X138500000Y-104000000D03*
X138500000Y-104000000D03*
X139500000Y-106000000D03*
X90000000Y-81500000D03*
X90500000Y-81000000D03*
X90000000Y-80500000D03*
X90500000Y-80000000D03*
X90000000Y-79500000D03*
X90500000Y-79000000D03*
X90000000Y-78500000D03*
X90500000Y-78000000D03*
X90000000Y-77500000D03*
X90500000Y-77000000D03*
X141000000Y-100000000D03*
X76000000Y-107500000D03*
X140033600Y-96000000D03*
%TO.N,+180V*%
X229000000Y-101500000D03*
D16*
%TO.N,Net-(Q1-Pad3)*%
X215480000Y-99950000D03*
X215739964Y-86229968D03*
D17*
%TO.N,+5V*%
X151500000Y-85000000D03*
X147000000Y-85000000D03*
X139500000Y-85000000D03*
X135000000Y-85000000D03*
X127500000Y-85000000D03*
X123000000Y-85000000D03*
X115500000Y-85000000D03*
X111000000Y-85000000D03*
X103500000Y-85000000D03*
X99000000Y-85000000D03*
X91500000Y-85000000D03*
X87000000Y-85000000D03*
X79500000Y-85000000D03*
X67500000Y-85000000D03*
X75000000Y-85000000D03*
X159000000Y-85000000D03*
X86000000Y-82000000D03*
X188700000Y-94000000D03*
%TO.N,/D19*%
X97000000Y-104000000D03*
%TO.N,/D18*%
X96000000Y-108000000D03*
%TO.N,/D17*%
X92000000Y-99000000D03*
%TO.N,/D16*%
X92000000Y-104000000D03*
%TO.N,/D15*%
X91000000Y-108000000D03*
%TO.N,/D14*%
X87000000Y-99000000D03*
%TO.N,/D13*%
X87000000Y-104000000D03*
%TO.N,/D12*%
X87000000Y-107000000D03*
%TO.N,/D11*%
X82000000Y-99000000D03*
%TO.N,/D10*%
X82000000Y-104000000D03*
%TO.N,/D30*%
X117000000Y-107000000D03*
%TO.N,/D31*%
X117000000Y-104000000D03*
%TO.N,/D32*%
X117000000Y-99000000D03*
%TO.N,/D33*%
X122000000Y-107000000D03*
%TO.N,/D34*%
X122000000Y-104000000D03*
%TO.N,/D35*%
X122000000Y-99000000D03*
%TO.N,/D36*%
X126000000Y-108000000D03*
%TO.N,/D37*%
X127000000Y-104000000D03*
%TO.N,/D38*%
X127000000Y-99000000D03*
%TO.N,/D39*%
X131000000Y-108000000D03*
%TO.N,/D59*%
X162000000Y-99000000D03*
%TO.N,/D58*%
X162000000Y-104000000D03*
%TO.N,/D57*%
X162000000Y-107000000D03*
%TO.N,/D56*%
X157000000Y-99000000D03*
%TO.N,/D55*%
X157000000Y-104000000D03*
%TO.N,/D54*%
X157000000Y-106500000D03*
%TO.N,/D53*%
X152000000Y-99000000D03*
%TO.N,/D52*%
X152000000Y-104000000D03*
%TO.N,/D51*%
X152000000Y-106000000D03*
%TO.N,/D50*%
X146000000Y-98000000D03*
%TO.N,/C0*%
X69500000Y-103500000D03*
X68000000Y-105000000D03*
%TO.N,/C3*%
X71000000Y-104000000D03*
X73000000Y-104500000D03*
%TO.N,/C6*%
X76500000Y-104500000D03*
X78000000Y-105000000D03*
%TO.N,/C21*%
X101500000Y-104500000D03*
X103000000Y-105000000D03*
%TO.N,/C24*%
X106000000Y-104000000D03*
X108000000Y-104500000D03*
%TO.N,/C27*%
X111500000Y-104500000D03*
X113000000Y-105000000D03*
%TO.N,/C39*%
X131000000Y-104000000D03*
X133000000Y-105000000D03*
%TO.N,/C40*%
X130000000Y-95000000D03*
X133000000Y-100000000D03*
%TO.N,/C42*%
X136500000Y-104500000D03*
X138000000Y-105000000D03*
%TO.N,/C43*%
X136500000Y-99500000D03*
X138000000Y-100000000D03*
%TO.N,/C45*%
X141500000Y-104500000D03*
X143000000Y-105000000D03*
%TO.N,/C46*%
X138500000Y-99000000D03*
X143000000Y-100000000D03*
%TO.N,/C47*%
X138000000Y-94500000D03*
X143000000Y-95000000D03*
%TO.N,/C48*%
X141176844Y-103500000D03*
X148000000Y-105000000D03*
%TO.N,/C49*%
X140500000Y-97500000D03*
X148000000Y-100000000D03*
%TO.N,/C50*%
X141000000Y-94000000D03*
X148000000Y-95000000D03*
%TO.N,/C54*%
X150500000Y-92000000D03*
X155000000Y-104000000D03*
%TO.N,/C58*%
X152875010Y-90470600D03*
X163000000Y-99000000D03*
D16*
%TO.N,Net-(R5-Pad2)*%
X220500000Y-108000000D03*
D17*
%TO.N,/SRCLK*%
X158000000Y-89000000D03*
X146000000Y-89000000D03*
X134000000Y-89000000D03*
X122000000Y-89000000D03*
X110000000Y-89000000D03*
X98000000Y-89000000D03*
X86000000Y-89000000D03*
X74000000Y-89000000D03*
%TO.N,/RCLK*%
X156500000Y-91000000D03*
X144500000Y-91000000D03*
X132500000Y-91000000D03*
X120500000Y-91000000D03*
X108500000Y-91000000D03*
X96500000Y-91000000D03*
X84500000Y-91000000D03*
X72500000Y-91000000D03*
D16*
%TO.N,Net-(R4-Pad2)*%
X208900000Y-103600000D03*
X220500000Y-106200000D03*
D17*
%TO.N,Net-(J8-Pad1)*%
X96000000Y-81500000D03*
%TO.N,/MISO*%
X74250000Y-82750000D03*
X70000000Y-84470600D03*
%TD*%
D18*
%TO.N,+12V*%
X182500000Y-89000000D02*
X185000000Y-86500000D01*
X185000000Y-86500000D02*
X197500000Y-86500000D01*
D19*
%TO.N,+180V*%
X94500000Y-111100000D02*
X94400000Y-111000000D01*
X94500000Y-112500000D02*
X94500000Y-111100000D01*
X94500000Y-113900000D02*
X94400000Y-114000000D01*
X94500000Y-112500000D02*
X94500000Y-113900000D01*
X127500000Y-111100000D02*
X127400000Y-111000000D01*
X127500000Y-112500000D02*
X94500000Y-112500000D01*
X127500000Y-112500000D02*
X127500000Y-111100000D01*
X127500000Y-113900000D02*
X127400000Y-114000000D01*
X127500000Y-112500000D02*
X127500000Y-113900000D01*
X160500000Y-112500000D02*
X160500000Y-111100000D01*
X160500000Y-111100000D02*
X160400000Y-111000000D01*
X160500000Y-112500000D02*
X127500000Y-112500000D01*
X160500000Y-113900000D02*
X160400000Y-114000000D01*
X160500000Y-112500000D02*
X160500000Y-113900000D01*
X229000000Y-101500000D02*
X229000000Y-108500000D01*
X229000000Y-108500000D02*
X228000000Y-109500000D01*
X228000000Y-109500000D02*
X167000000Y-109500000D01*
X164000000Y-112500000D02*
X160500000Y-112500000D01*
X167000000Y-109500000D02*
X164000000Y-112500000D01*
D20*
%TO.N,Net-(Q1-Pad3)*%
X215480000Y-99950000D02*
X215480000Y-86489932D01*
X215480000Y-86489932D02*
X215739964Y-86229968D01*
D19*
%TO.N,+5V*%
X67500000Y-85000000D02*
X75000000Y-85000000D01*
X75000000Y-85000000D02*
X79500000Y-85000000D01*
X87000000Y-85000000D02*
X91500000Y-85000000D01*
X99000000Y-85000000D02*
X103500000Y-85000000D01*
X111000000Y-85000000D02*
X115500000Y-85000000D01*
X123000000Y-85000000D02*
X127500000Y-85000000D01*
X135000000Y-85000000D02*
X139500000Y-85000000D01*
X147000000Y-85000000D02*
X151500000Y-85000000D01*
X151500000Y-85000000D02*
X159000000Y-85000000D01*
X139500000Y-85000000D02*
X147000000Y-85000000D01*
X127500000Y-85000000D02*
X135000000Y-85000000D01*
X115500000Y-85000000D02*
X123000000Y-85000000D01*
X91500000Y-85000000D02*
X99000000Y-85000000D01*
X103500000Y-85000000D02*
X111000000Y-85000000D01*
X79500000Y-85000000D02*
X84000000Y-85000000D01*
X84000000Y-85000000D02*
X84750000Y-85000000D01*
D21*
X75000000Y-85000000D02*
X75000000Y-77000000D01*
D19*
X84750000Y-85000000D02*
X86000000Y-85000000D01*
X86000000Y-85000000D02*
X87000000Y-85000000D01*
D21*
X86000000Y-82000000D02*
X86000000Y-85000000D01*
D19*
X164600000Y-85000000D02*
X159000000Y-85000000D01*
X188700000Y-94000000D02*
X173600000Y-94000000D01*
X173600000Y-94000000D02*
X164600000Y-85000000D01*
D21*
%TO.N,/D19*%
X92938601Y-109921399D02*
X91860000Y-111000000D01*
X94786931Y-109921399D02*
X92938601Y-109921399D01*
X97000000Y-107708330D02*
X94786931Y-109921399D01*
X97000000Y-104000000D02*
X97000000Y-107708330D01*
%TO.N,/D18*%
X96000000Y-108000000D02*
X94695190Y-109304810D01*
X91015190Y-109304810D02*
X89320000Y-111000000D01*
X94695190Y-109304810D02*
X91015190Y-109304810D01*
%TO.N,/D17*%
X92478601Y-107660795D02*
X91139396Y-109000000D01*
X92000000Y-99000000D02*
X92478601Y-99478601D01*
X92478601Y-99478601D02*
X92478601Y-107660795D01*
X88780000Y-109000000D02*
X86780000Y-111000000D01*
X91139396Y-109000000D02*
X88780000Y-109000000D01*
%TO.N,/D16*%
X92000000Y-107708330D02*
X91098710Y-108609620D01*
X92000000Y-104000000D02*
X92000000Y-107708330D01*
X86630380Y-108609620D02*
X84240000Y-111000000D01*
X91098710Y-108609620D02*
X86630380Y-108609620D01*
%TO.N,/D15*%
X84395190Y-108304810D02*
X81700000Y-111000000D01*
X90695190Y-108304810D02*
X84395190Y-108304810D01*
X91000000Y-108000000D02*
X90695190Y-108304810D01*
%TO.N,/D14*%
X87783410Y-107355986D02*
X87139396Y-108000000D01*
X87000000Y-99000000D02*
X87783410Y-99783410D01*
X87783410Y-99783410D02*
X87783410Y-107355986D01*
X82160000Y-108000000D02*
X79160000Y-111000000D01*
X87139396Y-108000000D02*
X82160000Y-108000000D01*
%TO.N,/D13*%
X87478601Y-107229729D02*
X87208330Y-107500000D01*
X87000000Y-104000000D02*
X87478601Y-104478601D01*
X87478601Y-104478601D02*
X87478601Y-107229729D01*
X80120000Y-107500000D02*
X76620000Y-111000000D01*
X87208330Y-107500000D02*
X80120000Y-107500000D01*
%TO.N,/D12*%
X78080000Y-107000000D02*
X74080000Y-111000000D01*
X87000000Y-107000000D02*
X78080000Y-107000000D01*
%TO.N,/D11*%
X82478601Y-104229729D02*
X81208330Y-105500000D01*
X82000000Y-99000000D02*
X82478601Y-99478601D01*
X82478601Y-99478601D02*
X82478601Y-104229729D01*
X77040000Y-105500000D02*
X71540000Y-111000000D01*
X81208330Y-105500000D02*
X77040000Y-105500000D01*
%TO.N,/D10*%
X76000000Y-104000000D02*
X69000000Y-111000000D01*
X82000000Y-104000000D02*
X76000000Y-104000000D01*
%TO.N,/D30*%
X106000000Y-107000000D02*
X102000000Y-111000000D01*
X117000000Y-107000000D02*
X106000000Y-107000000D01*
%TO.N,/D31*%
X117478601Y-107229729D02*
X117208330Y-107500000D01*
X117000000Y-104000000D02*
X117478601Y-104478601D01*
X117478601Y-104478601D02*
X117478601Y-107229729D01*
X108040000Y-107500000D02*
X104540000Y-111000000D01*
X117208330Y-107500000D02*
X108040000Y-107500000D01*
%TO.N,/D32*%
X117783410Y-107355986D02*
X117334586Y-107804810D01*
X117000000Y-99000000D02*
X117783410Y-99783410D01*
X117783410Y-99783410D02*
X117783410Y-107355986D01*
X110275190Y-107804810D02*
X107080000Y-111000000D01*
X117334586Y-107804810D02*
X110275190Y-107804810D01*
%TO.N,/D33*%
X112510380Y-108109620D02*
X109620000Y-111000000D01*
X122000000Y-107000000D02*
X120890380Y-108109620D01*
X120890380Y-108109620D02*
X112510380Y-108109620D01*
%TO.N,/D34*%
X122000000Y-104000000D02*
X122478601Y-104478601D01*
X122478601Y-107229729D02*
X121208330Y-108500000D01*
X122478601Y-104478601D02*
X122478601Y-107229729D01*
X114660000Y-108500000D02*
X112160000Y-111000000D01*
X121208330Y-108500000D02*
X114660000Y-108500000D01*
%TO.N,/D35*%
X122783410Y-107355986D02*
X121334586Y-108804810D01*
X122000000Y-99000000D02*
X122783410Y-99783410D01*
X122783410Y-99783410D02*
X122783410Y-107355986D01*
X116895190Y-108804810D02*
X114700000Y-111000000D01*
X121334586Y-108804810D02*
X116895190Y-108804810D01*
%TO.N,/D36*%
X126000000Y-108000000D02*
X124879657Y-109120343D01*
X119119657Y-109120343D02*
X117240000Y-111000000D01*
X124879657Y-109120343D02*
X119119657Y-109120343D01*
%TO.N,/D37*%
X127000000Y-107708330D02*
X125208330Y-109500000D01*
X127000000Y-104000000D02*
X127000000Y-107708330D01*
X121280000Y-109500000D02*
X119780000Y-111000000D01*
X125208330Y-109500000D02*
X121280000Y-109500000D01*
%TO.N,/D38*%
X127478601Y-107660795D02*
X125334586Y-109804810D01*
X127000000Y-99000000D02*
X127478601Y-99478601D01*
X127478601Y-99478601D02*
X127478601Y-107660795D01*
X123515190Y-109804810D02*
X122320000Y-111000000D01*
X125334586Y-109804810D02*
X123515190Y-109804810D01*
%TO.N,/D39*%
X127860000Y-108000000D02*
X124860000Y-111000000D01*
X131000000Y-108000000D02*
X127860000Y-108000000D01*
%TO.N,/D59*%
X162783410Y-107355986D02*
X161139396Y-109000000D01*
X162000000Y-99000000D02*
X162783410Y-99783410D01*
X162783410Y-99783410D02*
X162783410Y-107355986D01*
X159860000Y-109000000D02*
X157860000Y-111000000D01*
X161139396Y-109000000D02*
X159860000Y-109000000D01*
%TO.N,/D58*%
X162478601Y-107229729D02*
X161098710Y-108609620D01*
X162000000Y-104000000D02*
X162478601Y-104478601D01*
X162478601Y-104478601D02*
X162478601Y-107229729D01*
X157710380Y-108609620D02*
X155320000Y-111000000D01*
X161098710Y-108609620D02*
X157710380Y-108609620D01*
%TO.N,/D57*%
X155475190Y-108304810D02*
X152780000Y-111000000D01*
X162000000Y-107000000D02*
X160695190Y-108304810D01*
X160695190Y-108304810D02*
X155475190Y-108304810D01*
%TO.N,/D56*%
X157783410Y-106855986D02*
X156639396Y-108000000D01*
X157000000Y-99000000D02*
X157783410Y-99783410D01*
X157783410Y-99783410D02*
X157783410Y-106855986D01*
X153240000Y-108000000D02*
X150240000Y-111000000D01*
X156639396Y-108000000D02*
X153240000Y-108000000D01*
%TO.N,/D55*%
X157478601Y-106729729D02*
X156708330Y-107500000D01*
X157000000Y-104000000D02*
X157478601Y-104478601D01*
X157478601Y-104478601D02*
X157478601Y-106729729D01*
X151200000Y-107500000D02*
X147700000Y-111000000D01*
X156708330Y-107500000D02*
X151200000Y-107500000D01*
%TO.N,/D54*%
X157000000Y-106500000D02*
X156390380Y-107109620D01*
X149050380Y-107109620D02*
X145160000Y-111000000D01*
X156390380Y-107109620D02*
X149050380Y-107109620D01*
%TO.N,/D53*%
X152783410Y-106355986D02*
X152334586Y-106804810D01*
X152000000Y-99000000D02*
X152783410Y-99783410D01*
X152783410Y-99783410D02*
X152783410Y-106355986D01*
X146815190Y-106804810D02*
X142620000Y-111000000D01*
X152334586Y-106804810D02*
X146815190Y-106804810D01*
%TO.N,/D52*%
X152000000Y-104000000D02*
X152478601Y-104478601D01*
X152478601Y-106229729D02*
X152208330Y-106500000D01*
X152478601Y-104478601D02*
X152478601Y-106229729D01*
X144580000Y-106500000D02*
X140080000Y-111000000D01*
X152208330Y-106500000D02*
X144580000Y-106500000D01*
%TO.N,/D51*%
X142540000Y-106000000D02*
X137540000Y-111000000D01*
X152000000Y-106000000D02*
X142540000Y-106000000D01*
%TO.N,/D50*%
X135000000Y-109000000D02*
X135000000Y-111000000D01*
X146000000Y-98000000D02*
X135000000Y-109000000D01*
%TO.N,/C0*%
X69500000Y-103500000D02*
X68000000Y-105000000D01*
%TO.N,/C3*%
X71000000Y-104000000D02*
X71500000Y-104500000D01*
X71500000Y-104500000D02*
X73000000Y-104500000D01*
%TO.N,/C6*%
X76500000Y-104500000D02*
X77000000Y-105000000D01*
X77000000Y-105000000D02*
X78000000Y-105000000D01*
%TO.N,/C21*%
X101500000Y-104500000D02*
X102000000Y-105000000D01*
X102000000Y-105000000D02*
X103000000Y-105000000D01*
%TO.N,/C24*%
X106000000Y-104000000D02*
X106500000Y-104500000D01*
X106500000Y-104500000D02*
X108000000Y-104500000D01*
%TO.N,/C27*%
X111500000Y-104500000D02*
X112000000Y-105000000D01*
X112000000Y-105000000D02*
X113000000Y-105000000D01*
%TO.N,/C39*%
X131000000Y-104000000D02*
X132000000Y-105000000D01*
X132000000Y-105000000D02*
X133000000Y-105000000D01*
%TO.N,/C40*%
X130000000Y-95000000D02*
X130000000Y-97000000D01*
X130000000Y-97000000D02*
X133000000Y-100000000D01*
%TO.N,/C42*%
X136500000Y-104500000D02*
X137000000Y-105000000D01*
X137000000Y-105000000D02*
X138000000Y-105000000D01*
%TO.N,/C43*%
X136500000Y-99500000D02*
X137000000Y-100000000D01*
X137000000Y-100000000D02*
X138000000Y-100000000D01*
%TO.N,/C45*%
X141500000Y-104500000D02*
X142000000Y-105000000D01*
X142000000Y-105000000D02*
X143000000Y-105000000D01*
%TO.N,/C46*%
X138500000Y-99000000D02*
X142000000Y-99000000D01*
X142000000Y-99000000D02*
X143000000Y-100000000D01*
%TO.N,/C47*%
X138000000Y-94500000D02*
X142500000Y-94500000D01*
X142500000Y-94500000D02*
X143000000Y-95000000D01*
%TO.N,/C48*%
X141176844Y-103500000D02*
X146500000Y-103500000D01*
X146500000Y-103500000D02*
X148000000Y-105000000D01*
%TO.N,/C49*%
X148000000Y-99291670D02*
X148000000Y-100000000D01*
X140500000Y-97500000D02*
X146208330Y-97500000D01*
X146208330Y-97500000D02*
X148000000Y-99291670D01*
%TO.N,/C50*%
X141000000Y-94000000D02*
X147000000Y-94000000D01*
X147000000Y-94000000D02*
X148000000Y-95000000D01*
%TO.N,/C54*%
X150500000Y-92000000D02*
X155000000Y-96500000D01*
X155000000Y-96500000D02*
X155000000Y-104000000D01*
%TO.N,/C58*%
X156978601Y-92978601D02*
X163000000Y-99000000D01*
X156978601Y-90770271D02*
X156978601Y-92978601D01*
X152875010Y-90470600D02*
X156678930Y-90470600D01*
X156678930Y-90470600D02*
X156978601Y-90770271D01*
D20*
%TO.N,Net-(R5-Pad2)*%
X202920000Y-108000000D02*
X201460000Y-106540000D01*
X220500000Y-108000000D02*
X202920000Y-108000000D01*
D19*
%TO.N,/SRCLK*%
X158000000Y-89000000D02*
X146000000Y-89000000D01*
X146000000Y-89000000D02*
X134000000Y-89000000D01*
X134000000Y-89000000D02*
X122000000Y-89000000D01*
X122000000Y-89000000D02*
X110000000Y-89000000D01*
X110000000Y-89000000D02*
X98000000Y-89000000D01*
X98000000Y-89000000D02*
X86000000Y-89000000D01*
X86000000Y-89000000D02*
X74000000Y-89000000D01*
%TO.N,/RCLK*%
X72500000Y-91000000D02*
X84500000Y-91000000D01*
X84500000Y-91000000D02*
X96500000Y-91000000D01*
X96500000Y-91000000D02*
X108500000Y-91000000D01*
X108500000Y-91000000D02*
X120500000Y-91000000D01*
X120500000Y-91000000D02*
X132500000Y-91000000D01*
X132500000Y-91000000D02*
X144500000Y-91000000D01*
X144500000Y-91000000D02*
X156500000Y-91000000D01*
D21*
%TO.N,Net-(R4-Pad2)*%
X211500000Y-106200000D02*
X208900000Y-103600000D01*
X220500000Y-106200000D02*
X211500000Y-106200000D01*
%TO.N,Net-(J8-Pad1)*%
X102960000Y-81500000D02*
X103000000Y-81540000D01*
X96000000Y-81500000D02*
X102960000Y-81500000D01*
%TO.N,/MISO*%
X74250000Y-82750000D02*
X72529400Y-84470600D01*
X72529400Y-84470600D02*
X70000000Y-84470600D01*
%TD*%
D22*
%TO.N,GND*%
G36*
X73815045Y-75648704D02*
G01*
X73723683Y-75723683D01*
X73648704Y-75815045D01*
X73592990Y-75919279D01*
X73558682Y-76032379D01*
X73547097Y-76150000D01*
X73547097Y-77850000D01*
X73558682Y-77967621D01*
X73592990Y-78080721D01*
X73648704Y-78184955D01*
X73723683Y-78276317D01*
X73815045Y-78351296D01*
X73919279Y-78407010D01*
X74032379Y-78441318D01*
X74150000Y-78452903D01*
X74323801Y-78452903D01*
X74323800Y-81900000D01*
X74166282Y-81900000D01*
X74002064Y-81932665D01*
X73847374Y-81996740D01*
X73708156Y-82089762D01*
X73589762Y-82208156D01*
X73496740Y-82347374D01*
X73432665Y-82502064D01*
X73405605Y-82638104D01*
X72249310Y-83794400D01*
X70517955Y-83794400D01*
X70402626Y-83717340D01*
X70247936Y-83653265D01*
X70083718Y-83620600D01*
X69916282Y-83620600D01*
X69752064Y-83653265D01*
X69597374Y-83717340D01*
X69458156Y-83810362D01*
X69339762Y-83928756D01*
X69246740Y-84067974D01*
X69182665Y-84222664D01*
X69172653Y-84273000D01*
X67941927Y-84273000D01*
X67902626Y-84246740D01*
X67747936Y-84182665D01*
X67583718Y-84150000D01*
X67416282Y-84150000D01*
X67252064Y-84182665D01*
X67097374Y-84246740D01*
X66958156Y-84339762D01*
X66839762Y-84458156D01*
X66746740Y-84597374D01*
X66682665Y-84752064D01*
X66650000Y-84916282D01*
X66650000Y-85083718D01*
X66682665Y-85247936D01*
X66746740Y-85402626D01*
X66839762Y-85541844D01*
X66958156Y-85660238D01*
X67097374Y-85753260D01*
X67252064Y-85817335D01*
X67416282Y-85850000D01*
X67583718Y-85850000D01*
X67747936Y-85817335D01*
X67902626Y-85753260D01*
X67941927Y-85727000D01*
X74558073Y-85727000D01*
X74597374Y-85753260D01*
X74752064Y-85817335D01*
X74916282Y-85850000D01*
X75083718Y-85850000D01*
X75247936Y-85817335D01*
X75402626Y-85753260D01*
X75441927Y-85727000D01*
X79058073Y-85727000D01*
X79097374Y-85753260D01*
X79252064Y-85817335D01*
X79416282Y-85850000D01*
X79583718Y-85850000D01*
X79747936Y-85817335D01*
X79902626Y-85753260D01*
X79941927Y-85727000D01*
X86558073Y-85727000D01*
X86597374Y-85753260D01*
X86752064Y-85817335D01*
X86916282Y-85850000D01*
X87083718Y-85850000D01*
X87247936Y-85817335D01*
X87402626Y-85753260D01*
X87441927Y-85727000D01*
X91058073Y-85727000D01*
X91097374Y-85753260D01*
X91252064Y-85817335D01*
X91416282Y-85850000D01*
X91583718Y-85850000D01*
X91747936Y-85817335D01*
X91902626Y-85753260D01*
X91941927Y-85727000D01*
X98558073Y-85727000D01*
X98597374Y-85753260D01*
X98752064Y-85817335D01*
X98916282Y-85850000D01*
X99083718Y-85850000D01*
X99247936Y-85817335D01*
X99402626Y-85753260D01*
X99441927Y-85727000D01*
X103058073Y-85727000D01*
X103097374Y-85753260D01*
X103252064Y-85817335D01*
X103416282Y-85850000D01*
X103583718Y-85850000D01*
X103747936Y-85817335D01*
X103902626Y-85753260D01*
X103941927Y-85727000D01*
X110558073Y-85727000D01*
X110597374Y-85753260D01*
X110752064Y-85817335D01*
X110916282Y-85850000D01*
X111083718Y-85850000D01*
X111247936Y-85817335D01*
X111402626Y-85753260D01*
X111441927Y-85727000D01*
X115058073Y-85727000D01*
X115097374Y-85753260D01*
X115252064Y-85817335D01*
X115416282Y-85850000D01*
X115583718Y-85850000D01*
X115747936Y-85817335D01*
X115902626Y-85753260D01*
X115941927Y-85727000D01*
X122558073Y-85727000D01*
X122597374Y-85753260D01*
X122752064Y-85817335D01*
X122916282Y-85850000D01*
X123083718Y-85850000D01*
X123247936Y-85817335D01*
X123402626Y-85753260D01*
X123441927Y-85727000D01*
X127058073Y-85727000D01*
X127097374Y-85753260D01*
X127252064Y-85817335D01*
X127416282Y-85850000D01*
X127583718Y-85850000D01*
X127747936Y-85817335D01*
X127902626Y-85753260D01*
X127941927Y-85727000D01*
X134558073Y-85727000D01*
X134597374Y-85753260D01*
X134752064Y-85817335D01*
X134916282Y-85850000D01*
X135083718Y-85850000D01*
X135247936Y-85817335D01*
X135402626Y-85753260D01*
X135441927Y-85727000D01*
X139058073Y-85727000D01*
X139097374Y-85753260D01*
X139252064Y-85817335D01*
X139416282Y-85850000D01*
X139583718Y-85850000D01*
X139747936Y-85817335D01*
X139902626Y-85753260D01*
X139941927Y-85727000D01*
X146558073Y-85727000D01*
X146597374Y-85753260D01*
X146752064Y-85817335D01*
X146916282Y-85850000D01*
X147083718Y-85850000D01*
X147247936Y-85817335D01*
X147402626Y-85753260D01*
X147441927Y-85727000D01*
X151058073Y-85727000D01*
X151097374Y-85753260D01*
X151252064Y-85817335D01*
X151416282Y-85850000D01*
X151583718Y-85850000D01*
X151747936Y-85817335D01*
X151902626Y-85753260D01*
X151941927Y-85727000D01*
X158558073Y-85727000D01*
X158597374Y-85753260D01*
X158752064Y-85817335D01*
X158916282Y-85850000D01*
X159083718Y-85850000D01*
X159247936Y-85817335D01*
X159402626Y-85753260D01*
X159441927Y-85727000D01*
X164298868Y-85727000D01*
X173060679Y-94488812D01*
X173083446Y-94516554D01*
X173194147Y-94607403D01*
X173292994Y-94660238D01*
X173320443Y-94674910D01*
X173457482Y-94716480D01*
X173599999Y-94730517D01*
X173635707Y-94727000D01*
X188258073Y-94727000D01*
X188297374Y-94753260D01*
X188452064Y-94817335D01*
X188616282Y-94850000D01*
X188783718Y-94850000D01*
X188947936Y-94817335D01*
X189102626Y-94753260D01*
X189241844Y-94660238D01*
X189360238Y-94541844D01*
X189453260Y-94402626D01*
X189517335Y-94247936D01*
X189550000Y-94083718D01*
X189550000Y-93916282D01*
X189517335Y-93752064D01*
X189453260Y-93597374D01*
X189360238Y-93458156D01*
X189241844Y-93339762D01*
X189102626Y-93246740D01*
X188947936Y-93182665D01*
X188783718Y-93150000D01*
X188616282Y-93150000D01*
X188452064Y-93182665D01*
X188297374Y-93246740D01*
X188258073Y-93273000D01*
X173901133Y-93273000D01*
X170028133Y-89400000D01*
X175797097Y-89400000D01*
X175797097Y-92600000D01*
X175808682Y-92717621D01*
X175842990Y-92830721D01*
X175898704Y-92934955D01*
X175973683Y-93026317D01*
X176065045Y-93101296D01*
X176169279Y-93157010D01*
X176282379Y-93191318D01*
X176400000Y-93202903D01*
X179600000Y-93202903D01*
X179717621Y-93191318D01*
X179830721Y-93157010D01*
X179934955Y-93101296D01*
X180026317Y-93026317D01*
X180101296Y-92934955D01*
X180157010Y-92830721D01*
X180191318Y-92717621D01*
X180202903Y-92600000D01*
X180202903Y-89400000D01*
X180191318Y-89282379D01*
X180157010Y-89169279D01*
X180101296Y-89065045D01*
X180047915Y-89000000D01*
X181394678Y-89000000D01*
X181415917Y-89215637D01*
X181478817Y-89422988D01*
X181580958Y-89614084D01*
X181718420Y-89781580D01*
X181885916Y-89919042D01*
X182077012Y-90021183D01*
X182284363Y-90084083D01*
X182500000Y-90105322D01*
X182715637Y-90084083D01*
X182922988Y-90021183D01*
X183114084Y-89919042D01*
X183239608Y-89816026D01*
X185455635Y-87600000D01*
X197554036Y-87600000D01*
X197715638Y-87584084D01*
X197922988Y-87521184D01*
X198114084Y-87419042D01*
X198281581Y-87281581D01*
X198419042Y-87114084D01*
X198521184Y-86922988D01*
X198584084Y-86715638D01*
X198605322Y-86500000D01*
X198584084Y-86284362D01*
X198521184Y-86077012D01*
X198419042Y-85885916D01*
X198281581Y-85718419D01*
X198114084Y-85580958D01*
X197922988Y-85478816D01*
X197715638Y-85415916D01*
X197554036Y-85400000D01*
X185054034Y-85400000D01*
X185000000Y-85394678D01*
X184945966Y-85400000D01*
X184945964Y-85400000D01*
X184784362Y-85415916D01*
X184577012Y-85478816D01*
X184385916Y-85580958D01*
X184218419Y-85718419D01*
X184183971Y-85760394D01*
X181683974Y-88260392D01*
X181580958Y-88385916D01*
X181478817Y-88577012D01*
X181415917Y-88784363D01*
X181394678Y-89000000D01*
X180047915Y-89000000D01*
X180026317Y-88973683D01*
X179934955Y-88898704D01*
X179830721Y-88842990D01*
X179717621Y-88808682D01*
X179600000Y-88797097D01*
X176400000Y-88797097D01*
X176282379Y-88808682D01*
X176169279Y-88842990D01*
X176065045Y-88898704D01*
X175973683Y-88973683D01*
X175898704Y-89065045D01*
X175842990Y-89169279D01*
X175808682Y-89282379D01*
X175797097Y-89400000D01*
X170028133Y-89400000D01*
X165139326Y-84511194D01*
X165116554Y-84483446D01*
X165005853Y-84392597D01*
X164879557Y-84325090D01*
X164742517Y-84283520D01*
X164635708Y-84273000D01*
X164600000Y-84269483D01*
X164564292Y-84273000D01*
X159441927Y-84273000D01*
X159402626Y-84246740D01*
X159247936Y-84182665D01*
X159083718Y-84150000D01*
X158916282Y-84150000D01*
X158752064Y-84182665D01*
X158597374Y-84246740D01*
X158558073Y-84273000D01*
X151941927Y-84273000D01*
X151902626Y-84246740D01*
X151747936Y-84182665D01*
X151583718Y-84150000D01*
X151416282Y-84150000D01*
X151252064Y-84182665D01*
X151097374Y-84246740D01*
X151058073Y-84273000D01*
X147441927Y-84273000D01*
X147402626Y-84246740D01*
X147247936Y-84182665D01*
X147083718Y-84150000D01*
X146916282Y-84150000D01*
X146752064Y-84182665D01*
X146597374Y-84246740D01*
X146558073Y-84273000D01*
X139941927Y-84273000D01*
X139902626Y-84246740D01*
X139747936Y-84182665D01*
X139583718Y-84150000D01*
X139416282Y-84150000D01*
X139252064Y-84182665D01*
X139097374Y-84246740D01*
X139058073Y-84273000D01*
X135441927Y-84273000D01*
X135402626Y-84246740D01*
X135247936Y-84182665D01*
X135083718Y-84150000D01*
X134916282Y-84150000D01*
X134752064Y-84182665D01*
X134597374Y-84246740D01*
X134558073Y-84273000D01*
X127941927Y-84273000D01*
X127902626Y-84246740D01*
X127747936Y-84182665D01*
X127583718Y-84150000D01*
X127416282Y-84150000D01*
X127252064Y-84182665D01*
X127097374Y-84246740D01*
X127058073Y-84273000D01*
X123441927Y-84273000D01*
X123402626Y-84246740D01*
X123247936Y-84182665D01*
X123083718Y-84150000D01*
X122916282Y-84150000D01*
X122752064Y-84182665D01*
X122597374Y-84246740D01*
X122558073Y-84273000D01*
X115941927Y-84273000D01*
X115902626Y-84246740D01*
X115747936Y-84182665D01*
X115583718Y-84150000D01*
X115416282Y-84150000D01*
X115252064Y-84182665D01*
X115097374Y-84246740D01*
X115058073Y-84273000D01*
X111441927Y-84273000D01*
X111402626Y-84246740D01*
X111247936Y-84182665D01*
X111083718Y-84150000D01*
X110916282Y-84150000D01*
X110752064Y-84182665D01*
X110597374Y-84246740D01*
X110558073Y-84273000D01*
X103941927Y-84273000D01*
X103902626Y-84246740D01*
X103747936Y-84182665D01*
X103583718Y-84150000D01*
X103416282Y-84150000D01*
X103252064Y-84182665D01*
X103097374Y-84246740D01*
X103058073Y-84273000D01*
X99441927Y-84273000D01*
X99402626Y-84246740D01*
X99247936Y-84182665D01*
X99083718Y-84150000D01*
X98916282Y-84150000D01*
X98752064Y-84182665D01*
X98597374Y-84246740D01*
X98558073Y-84273000D01*
X91941927Y-84273000D01*
X91902626Y-84246740D01*
X91747936Y-84182665D01*
X91583718Y-84150000D01*
X91416282Y-84150000D01*
X91252064Y-84182665D01*
X91097374Y-84246740D01*
X91058073Y-84273000D01*
X87441927Y-84273000D01*
X87402626Y-84246740D01*
X87247936Y-84182665D01*
X87083718Y-84150000D01*
X86916282Y-84150000D01*
X86752064Y-84182665D01*
X86676200Y-84214089D01*
X86676200Y-82517955D01*
X86753260Y-82402626D01*
X86817335Y-82247936D01*
X86850000Y-82083718D01*
X86850000Y-81916282D01*
X86817335Y-81752064D01*
X86753260Y-81597374D01*
X86660238Y-81458156D01*
X86618364Y-81416282D01*
X95150000Y-81416282D01*
X95150000Y-81583718D01*
X95182665Y-81747936D01*
X95246740Y-81902626D01*
X95339762Y-82041844D01*
X95458156Y-82160238D01*
X95597374Y-82253260D01*
X95752064Y-82317335D01*
X95916282Y-82350000D01*
X96083718Y-82350000D01*
X96247936Y-82317335D01*
X96402626Y-82253260D01*
X96517955Y-82176200D01*
X101547097Y-82176200D01*
X101547097Y-82390000D01*
X101558682Y-82507621D01*
X101592990Y-82620721D01*
X101648704Y-82724955D01*
X101723683Y-82816317D01*
X101815045Y-82891296D01*
X101919279Y-82947010D01*
X102032379Y-82981318D01*
X102150000Y-82992903D01*
X103850000Y-82992903D01*
X103967621Y-82981318D01*
X104080721Y-82947010D01*
X104184955Y-82891296D01*
X104276317Y-82816317D01*
X104351296Y-82724955D01*
X104407010Y-82620721D01*
X104441318Y-82507621D01*
X104452903Y-82390000D01*
X104452903Y-81125000D01*
X196447097Y-81125000D01*
X196447097Y-82875000D01*
X196475494Y-83163325D01*
X196559596Y-83440569D01*
X196696169Y-83696079D01*
X196879965Y-83920035D01*
X197103921Y-84103831D01*
X197359431Y-84240404D01*
X197636675Y-84324506D01*
X197925000Y-84352903D01*
X199675000Y-84352903D01*
X199963325Y-84324506D01*
X200240569Y-84240404D01*
X200496079Y-84103831D01*
X200720035Y-83920035D01*
X200903831Y-83696079D01*
X201040404Y-83440569D01*
X201098213Y-83250000D01*
X201147097Y-83250000D01*
X201147097Y-86750000D01*
X201158682Y-86867621D01*
X201192990Y-86980721D01*
X201248704Y-87084955D01*
X201323683Y-87176317D01*
X201415045Y-87251296D01*
X201519279Y-87307010D01*
X201632379Y-87341318D01*
X201750000Y-87352903D01*
X205250000Y-87352903D01*
X205367621Y-87341318D01*
X205480721Y-87307010D01*
X205584955Y-87251296D01*
X205676317Y-87176317D01*
X205751296Y-87084955D01*
X205807010Y-86980721D01*
X205841318Y-86867621D01*
X205852903Y-86750000D01*
X205852903Y-83250000D01*
X205841318Y-83132379D01*
X205807010Y-83019279D01*
X205751296Y-82915045D01*
X205676317Y-82823683D01*
X205584955Y-82748704D01*
X205480721Y-82692990D01*
X205367621Y-82658682D01*
X205250000Y-82647097D01*
X201750000Y-82647097D01*
X201632379Y-82658682D01*
X201519279Y-82692990D01*
X201415045Y-82748704D01*
X201323683Y-82823683D01*
X201248704Y-82915045D01*
X201192990Y-83019279D01*
X201158682Y-83132379D01*
X201147097Y-83250000D01*
X201098213Y-83250000D01*
X201124506Y-83163325D01*
X201152903Y-82875000D01*
X201152903Y-81125000D01*
X201124506Y-80836675D01*
X201040404Y-80559431D01*
X200903831Y-80303921D01*
X200720035Y-80079965D01*
X200496079Y-79896169D01*
X200240569Y-79759596D01*
X199963325Y-79675494D01*
X199675000Y-79647097D01*
X197925000Y-79647097D01*
X197636675Y-79675494D01*
X197359431Y-79759596D01*
X197103921Y-79896169D01*
X196879965Y-80079965D01*
X196696169Y-80303921D01*
X196559596Y-80559431D01*
X196475494Y-80836675D01*
X196447097Y-81125000D01*
X104452903Y-81125000D01*
X104452903Y-80690000D01*
X104441318Y-80572379D01*
X104407010Y-80459279D01*
X104351296Y-80355045D01*
X104276317Y-80263683D01*
X104184955Y-80188704D01*
X104080721Y-80132990D01*
X103967621Y-80098682D01*
X103850000Y-80087097D01*
X102150000Y-80087097D01*
X102032379Y-80098682D01*
X101919279Y-80132990D01*
X101815045Y-80188704D01*
X101723683Y-80263683D01*
X101648704Y-80355045D01*
X101592990Y-80459279D01*
X101558682Y-80572379D01*
X101547097Y-80690000D01*
X101547097Y-80823800D01*
X96517955Y-80823800D01*
X96402626Y-80746740D01*
X96247936Y-80682665D01*
X96083718Y-80650000D01*
X95916282Y-80650000D01*
X95752064Y-80682665D01*
X95597374Y-80746740D01*
X95458156Y-80839762D01*
X95339762Y-80958156D01*
X95246740Y-81097374D01*
X95182665Y-81252064D01*
X95150000Y-81416282D01*
X86618364Y-81416282D01*
X86541844Y-81339762D01*
X86402626Y-81246740D01*
X86247936Y-81182665D01*
X86083718Y-81150000D01*
X85916282Y-81150000D01*
X85752064Y-81182665D01*
X85597374Y-81246740D01*
X85458156Y-81339762D01*
X85339762Y-81458156D01*
X85246740Y-81597374D01*
X85182665Y-81752064D01*
X85150000Y-81916282D01*
X85150000Y-82083718D01*
X85182665Y-82247936D01*
X85246740Y-82402626D01*
X85323800Y-82517955D01*
X85323801Y-84273000D01*
X79941927Y-84273000D01*
X79902626Y-84246740D01*
X79747936Y-84182665D01*
X79583718Y-84150000D01*
X79416282Y-84150000D01*
X79252064Y-84182665D01*
X79097374Y-84246740D01*
X79058073Y-84273000D01*
X75676200Y-84273000D01*
X75676200Y-78452903D01*
X75850000Y-78452903D01*
X75967621Y-78441318D01*
X76080721Y-78407010D01*
X76184955Y-78351296D01*
X76276317Y-78276317D01*
X76351296Y-78184955D01*
X76407010Y-78080721D01*
X76441318Y-77967621D01*
X76442725Y-77953335D01*
X76615679Y-78126289D01*
X76853167Y-78284973D01*
X77117051Y-78394277D01*
X77397187Y-78450000D01*
X77682813Y-78450000D01*
X77962949Y-78394277D01*
X78226833Y-78284973D01*
X78464321Y-78126289D01*
X78666289Y-77924321D01*
X78810000Y-77709242D01*
X78953711Y-77924321D01*
X79155679Y-78126289D01*
X79393167Y-78284973D01*
X79657051Y-78394277D01*
X79937187Y-78450000D01*
X80222813Y-78450000D01*
X80502949Y-78394277D01*
X80766833Y-78284973D01*
X81004321Y-78126289D01*
X81206289Y-77924321D01*
X81350000Y-77709242D01*
X81493711Y-77924321D01*
X81695679Y-78126289D01*
X81933167Y-78284973D01*
X82197051Y-78394277D01*
X82477187Y-78450000D01*
X82762813Y-78450000D01*
X83042949Y-78394277D01*
X83306833Y-78284973D01*
X83544321Y-78126289D01*
X83746289Y-77924321D01*
X83890000Y-77709242D01*
X84033711Y-77924321D01*
X84235679Y-78126289D01*
X84473167Y-78284973D01*
X84737051Y-78394277D01*
X85017187Y-78450000D01*
X85302813Y-78450000D01*
X85582949Y-78394277D01*
X85846833Y-78284973D01*
X86084321Y-78126289D01*
X86286289Y-77924321D01*
X86376204Y-77789753D01*
X167865329Y-77789753D01*
X167865329Y-78210247D01*
X167947363Y-78622661D01*
X168108279Y-79011146D01*
X168341893Y-79360774D01*
X168639226Y-79658107D01*
X168988854Y-79891721D01*
X169377339Y-80052637D01*
X169789753Y-80134671D01*
X170210247Y-80134671D01*
X170622661Y-80052637D01*
X171011146Y-79891721D01*
X171360774Y-79658107D01*
X171658107Y-79360774D01*
X171891721Y-79011146D01*
X172052637Y-78622661D01*
X172134671Y-78210247D01*
X172134671Y-77789753D01*
X234865329Y-77789753D01*
X234865329Y-78210247D01*
X234947363Y-78622661D01*
X235108279Y-79011146D01*
X235341893Y-79360774D01*
X235639226Y-79658107D01*
X235988854Y-79891721D01*
X236377339Y-80052637D01*
X236789753Y-80134671D01*
X237210247Y-80134671D01*
X237622661Y-80052637D01*
X238011146Y-79891721D01*
X238360774Y-79658107D01*
X238658107Y-79360774D01*
X238891721Y-79011146D01*
X239052637Y-78622661D01*
X239134671Y-78210247D01*
X239134671Y-77789753D01*
X239052637Y-77377339D01*
X238891721Y-76988854D01*
X238658107Y-76639226D01*
X238360774Y-76341893D01*
X238011146Y-76108279D01*
X237622661Y-75947363D01*
X237210247Y-75865329D01*
X236789753Y-75865329D01*
X236377339Y-75947363D01*
X235988854Y-76108279D01*
X235639226Y-76341893D01*
X235341893Y-76639226D01*
X235108279Y-76988854D01*
X234947363Y-77377339D01*
X234865329Y-77789753D01*
X172134671Y-77789753D01*
X172052637Y-77377339D01*
X171891721Y-76988854D01*
X171658107Y-76639226D01*
X171360774Y-76341893D01*
X171011146Y-76108279D01*
X170622661Y-75947363D01*
X170210247Y-75865329D01*
X169789753Y-75865329D01*
X169377339Y-75947363D01*
X168988854Y-76108279D01*
X168639226Y-76341893D01*
X168341893Y-76639226D01*
X168108279Y-76988854D01*
X167947363Y-77377339D01*
X167865329Y-77789753D01*
X86376204Y-77789753D01*
X86444973Y-77686833D01*
X86554277Y-77422949D01*
X86610000Y-77142813D01*
X86610000Y-76857187D01*
X86554277Y-76577051D01*
X86444973Y-76313167D01*
X86286289Y-76075679D01*
X86084321Y-75873711D01*
X85846833Y-75715027D01*
X85629488Y-75625000D01*
X236969433Y-75625000D01*
X237460722Y-75673172D01*
X237903900Y-75806975D01*
X238312647Y-76024309D01*
X238671393Y-76316894D01*
X238966480Y-76673593D01*
X239186661Y-77080811D01*
X239323556Y-77523046D01*
X239375001Y-78012513D01*
X239375000Y-112969434D01*
X239326828Y-113460724D01*
X239193025Y-113903902D01*
X238975691Y-114312647D01*
X238683103Y-114671395D01*
X238326409Y-114966479D01*
X237919189Y-115186661D01*
X237476956Y-115323556D01*
X236987497Y-115375000D01*
X160869488Y-115375000D01*
X161086833Y-115284973D01*
X161324321Y-115126289D01*
X161526289Y-114924321D01*
X161684973Y-114686833D01*
X161794277Y-114422949D01*
X161850000Y-114142813D01*
X161850000Y-113857187D01*
X161794277Y-113577051D01*
X161684973Y-113313167D01*
X161627398Y-113227000D01*
X163964292Y-113227000D01*
X164000000Y-113230517D01*
X164142517Y-113216480D01*
X164180876Y-113204844D01*
X164279557Y-113174910D01*
X164405853Y-113107403D01*
X164516554Y-113016554D01*
X164539326Y-112988806D01*
X164738379Y-112789753D01*
X167865329Y-112789753D01*
X167865329Y-113210247D01*
X167947363Y-113622661D01*
X168108279Y-114011146D01*
X168341893Y-114360774D01*
X168639226Y-114658107D01*
X168988854Y-114891721D01*
X169377339Y-115052637D01*
X169789753Y-115134671D01*
X170210247Y-115134671D01*
X170622661Y-115052637D01*
X171011146Y-114891721D01*
X171360774Y-114658107D01*
X171658107Y-114360774D01*
X171891721Y-114011146D01*
X172052637Y-113622661D01*
X172134671Y-113210247D01*
X172134671Y-112789753D01*
X234865329Y-112789753D01*
X234865329Y-113210247D01*
X234947363Y-113622661D01*
X235108279Y-114011146D01*
X235341893Y-114360774D01*
X235639226Y-114658107D01*
X235988854Y-114891721D01*
X236377339Y-115052637D01*
X236789753Y-115134671D01*
X237210247Y-115134671D01*
X237622661Y-115052637D01*
X238011146Y-114891721D01*
X238360774Y-114658107D01*
X238658107Y-114360774D01*
X238891721Y-114011146D01*
X239052637Y-113622661D01*
X239134671Y-113210247D01*
X239134671Y-112789753D01*
X239052637Y-112377339D01*
X238891721Y-111988854D01*
X238658107Y-111639226D01*
X238360774Y-111341893D01*
X238011146Y-111108279D01*
X237622661Y-110947363D01*
X237210247Y-110865329D01*
X236789753Y-110865329D01*
X236377339Y-110947363D01*
X235988854Y-111108279D01*
X235639226Y-111341893D01*
X235341893Y-111639226D01*
X235108279Y-111988854D01*
X234947363Y-112377339D01*
X234865329Y-112789753D01*
X172134671Y-112789753D01*
X172052637Y-112377339D01*
X171891721Y-111988854D01*
X171658107Y-111639226D01*
X171360774Y-111341893D01*
X171011146Y-111108279D01*
X170622661Y-110947363D01*
X170210247Y-110865329D01*
X169789753Y-110865329D01*
X169377339Y-110947363D01*
X168988854Y-111108279D01*
X168639226Y-111341893D01*
X168341893Y-111639226D01*
X168108279Y-111988854D01*
X167947363Y-112377339D01*
X167865329Y-112789753D01*
X164738379Y-112789753D01*
X167301134Y-110227000D01*
X227964292Y-110227000D01*
X228000000Y-110230517D01*
X228142517Y-110216480D01*
X228279557Y-110174910D01*
X228405853Y-110107403D01*
X228516554Y-110016554D01*
X228539326Y-109988807D01*
X229488812Y-109039321D01*
X229516554Y-109016554D01*
X229607403Y-108905853D01*
X229674910Y-108779557D01*
X229677966Y-108769483D01*
X229716480Y-108642518D01*
X229730517Y-108500000D01*
X229727000Y-108464292D01*
X229727000Y-101941927D01*
X229753260Y-101902626D01*
X229817335Y-101747936D01*
X229850000Y-101583718D01*
X229850000Y-101416282D01*
X229817335Y-101252064D01*
X229753260Y-101097374D01*
X229660238Y-100958156D01*
X229541844Y-100839762D01*
X229402626Y-100746740D01*
X229247936Y-100682665D01*
X229083718Y-100650000D01*
X228916282Y-100650000D01*
X228752064Y-100682665D01*
X228597374Y-100746740D01*
X228458156Y-100839762D01*
X228339762Y-100958156D01*
X228246740Y-101097374D01*
X228182665Y-101252064D01*
X228150000Y-101416282D01*
X228150000Y-101583718D01*
X228182665Y-101747936D01*
X228246740Y-101902626D01*
X228273000Y-101941927D01*
X228273001Y-108198866D01*
X227698868Y-108773000D01*
X221141214Y-108773000D01*
X221276751Y-108637463D01*
X221386189Y-108473678D01*
X221461571Y-108291689D01*
X221500000Y-108098491D01*
X221500000Y-107901509D01*
X221461571Y-107708311D01*
X221386189Y-107526322D01*
X221276751Y-107362537D01*
X221137463Y-107223249D01*
X220973678Y-107113811D01*
X220940335Y-107100000D01*
X220973678Y-107086189D01*
X221137463Y-106976751D01*
X221276751Y-106837463D01*
X221386189Y-106673678D01*
X221461571Y-106491689D01*
X221500000Y-106298491D01*
X221500000Y-106101509D01*
X221461571Y-105908311D01*
X221386189Y-105726322D01*
X221276751Y-105562537D01*
X221137463Y-105423249D01*
X220973678Y-105313811D01*
X220791689Y-105238429D01*
X220598491Y-105200000D01*
X220401509Y-105200000D01*
X220208311Y-105238429D01*
X220026322Y-105313811D01*
X219862537Y-105423249D01*
X219761986Y-105523800D01*
X211780092Y-105523800D01*
X209900000Y-103643710D01*
X209900000Y-103501509D01*
X209861571Y-103308311D01*
X209786189Y-103126322D01*
X209676751Y-102962537D01*
X209537463Y-102823249D01*
X209373678Y-102713811D01*
X209191689Y-102638429D01*
X208998491Y-102600000D01*
X208801509Y-102600000D01*
X208608311Y-102638429D01*
X208426322Y-102713811D01*
X208262537Y-102823249D01*
X208123249Y-102962537D01*
X208013811Y-103126322D01*
X207938429Y-103308311D01*
X207900000Y-103501509D01*
X207900000Y-103698491D01*
X207938429Y-103891689D01*
X208013811Y-104073678D01*
X208123249Y-104237463D01*
X208262537Y-104376751D01*
X208426322Y-104486189D01*
X208608311Y-104561571D01*
X208801509Y-104600000D01*
X208943710Y-104600000D01*
X210998371Y-106654663D01*
X211019541Y-106680459D01*
X211045337Y-106701629D01*
X211122505Y-106764959D01*
X211171276Y-106791027D01*
X211239978Y-106827749D01*
X211367442Y-106866415D01*
X211466789Y-106876200D01*
X211466791Y-106876200D01*
X211499999Y-106879471D01*
X211533207Y-106876200D01*
X219761986Y-106876200D01*
X219862537Y-106976751D01*
X220026322Y-107086189D01*
X220059665Y-107100000D01*
X220026322Y-107113811D01*
X219862537Y-107223249D01*
X219810786Y-107275000D01*
X203220305Y-107275000D01*
X202676138Y-106730833D01*
X202690000Y-106661144D01*
X202690000Y-106418856D01*
X202642731Y-106181222D01*
X202550011Y-105957377D01*
X202415403Y-105755921D01*
X202244079Y-105584597D01*
X202042623Y-105449989D01*
X201818778Y-105357269D01*
X201581144Y-105310000D01*
X201338856Y-105310000D01*
X201101222Y-105357269D01*
X200877377Y-105449989D01*
X200675921Y-105584597D01*
X200504597Y-105755921D01*
X200369989Y-105957377D01*
X200277269Y-106181222D01*
X200230000Y-106418856D01*
X200230000Y-106661144D01*
X200277269Y-106898778D01*
X200369989Y-107122623D01*
X200504597Y-107324079D01*
X200675921Y-107495403D01*
X200877377Y-107630011D01*
X201101222Y-107722731D01*
X201338856Y-107770000D01*
X201581144Y-107770000D01*
X201650833Y-107756138D01*
X202382172Y-108487477D01*
X202404868Y-108515132D01*
X202432523Y-108537828D01*
X202432525Y-108537830D01*
X202465582Y-108564959D01*
X202515263Y-108605731D01*
X202641212Y-108673053D01*
X202777875Y-108714509D01*
X202884393Y-108725000D01*
X202884403Y-108725000D01*
X202920000Y-108728506D01*
X202955597Y-108725000D01*
X219810786Y-108725000D01*
X219858786Y-108773000D01*
X167035708Y-108773000D01*
X167000000Y-108769483D01*
X166857482Y-108783520D01*
X166781928Y-108806439D01*
X166720443Y-108825090D01*
X166594147Y-108892597D01*
X166483446Y-108983446D01*
X166460683Y-109011183D01*
X163698868Y-111773000D01*
X161627398Y-111773000D01*
X161684973Y-111686833D01*
X161794277Y-111422949D01*
X161850000Y-111142813D01*
X161850000Y-110857187D01*
X161794277Y-110577051D01*
X161684973Y-110313167D01*
X161526289Y-110075679D01*
X161324321Y-109873711D01*
X161086833Y-109715027D01*
X160993096Y-109676200D01*
X161106188Y-109676200D01*
X161139396Y-109679471D01*
X161172604Y-109676200D01*
X161172607Y-109676200D01*
X161271954Y-109666415D01*
X161399418Y-109627749D01*
X161516890Y-109564959D01*
X161619855Y-109480459D01*
X161641034Y-109454652D01*
X163238068Y-107857619D01*
X163263869Y-107836445D01*
X163348369Y-107733480D01*
X163411159Y-107616008D01*
X163449825Y-107488544D01*
X163459610Y-107389197D01*
X163459610Y-107389194D01*
X163462881Y-107355986D01*
X163459610Y-107322778D01*
X163459610Y-103878856D01*
X202770000Y-103878856D01*
X202770000Y-104121144D01*
X202817269Y-104358778D01*
X202909989Y-104582623D01*
X203044597Y-104784079D01*
X203215921Y-104955403D01*
X203417377Y-105090011D01*
X203641222Y-105182731D01*
X203878856Y-105230000D01*
X204121144Y-105230000D01*
X204358778Y-105182731D01*
X204582623Y-105090011D01*
X204784079Y-104955403D01*
X204955403Y-104784079D01*
X205090011Y-104582623D01*
X205182731Y-104358778D01*
X205230000Y-104121144D01*
X205230000Y-103878856D01*
X205182731Y-103641222D01*
X205090011Y-103417377D01*
X204955403Y-103215921D01*
X204784079Y-103044597D01*
X204582623Y-102909989D01*
X204358778Y-102817269D01*
X204121144Y-102770000D01*
X203878856Y-102770000D01*
X203641222Y-102817269D01*
X203417377Y-102909989D01*
X203215921Y-103044597D01*
X203044597Y-103215921D01*
X202909989Y-103417377D01*
X202817269Y-103641222D01*
X202770000Y-103878856D01*
X163459610Y-103878856D01*
X163459610Y-99851509D01*
X214480000Y-99851509D01*
X214480000Y-100048491D01*
X214518429Y-100241689D01*
X214593811Y-100423678D01*
X214703249Y-100587463D01*
X214842537Y-100726751D01*
X215006322Y-100836189D01*
X215188311Y-100911571D01*
X215381509Y-100950000D01*
X215578491Y-100950000D01*
X215771689Y-100911571D01*
X215953678Y-100836189D01*
X216117463Y-100726751D01*
X216256751Y-100587463D01*
X216366189Y-100423678D01*
X216441571Y-100241689D01*
X216480000Y-100048491D01*
X216480000Y-99851509D01*
X216441571Y-99658311D01*
X216366189Y-99476322D01*
X216256751Y-99312537D01*
X216205000Y-99260786D01*
X216205000Y-87119737D01*
X216213642Y-87116157D01*
X216377427Y-87006719D01*
X216516715Y-86867431D01*
X216626153Y-86703646D01*
X216701535Y-86521657D01*
X216739964Y-86328459D01*
X216739964Y-86131477D01*
X216701535Y-85938279D01*
X216626153Y-85756290D01*
X216516715Y-85592505D01*
X216377427Y-85453217D01*
X216213642Y-85343779D01*
X216031653Y-85268397D01*
X215838455Y-85229968D01*
X215641473Y-85229968D01*
X215448275Y-85268397D01*
X215266286Y-85343779D01*
X215102501Y-85453217D01*
X214963213Y-85592505D01*
X214853775Y-85756290D01*
X214778393Y-85938279D01*
X214739964Y-86131477D01*
X214739964Y-86328459D01*
X214758312Y-86420704D01*
X214751494Y-86489932D01*
X214755001Y-86525539D01*
X214755000Y-99260786D01*
X214703249Y-99312537D01*
X214593811Y-99476322D01*
X214518429Y-99658311D01*
X214480000Y-99851509D01*
X163459610Y-99851509D01*
X163459610Y-99816617D01*
X163462881Y-99783409D01*
X163458470Y-99738623D01*
X163456374Y-99717347D01*
X163541844Y-99660238D01*
X163660238Y-99541844D01*
X163753260Y-99402626D01*
X163817335Y-99247936D01*
X163850000Y-99083718D01*
X163850000Y-98916282D01*
X163817335Y-98752064D01*
X163753260Y-98597374D01*
X163660238Y-98458156D01*
X163541844Y-98339762D01*
X163402626Y-98246740D01*
X163247936Y-98182665D01*
X163111896Y-98155605D01*
X157654801Y-92698511D01*
X157654801Y-90803481D01*
X157658072Y-90770271D01*
X157652977Y-90718536D01*
X157645016Y-90637713D01*
X157634534Y-90603158D01*
X157606350Y-90510248D01*
X157574955Y-90451513D01*
X157543560Y-90392777D01*
X157459059Y-90289812D01*
X157433258Y-90268638D01*
X157180568Y-90015948D01*
X157159389Y-89990141D01*
X157056424Y-89905641D01*
X156938952Y-89842851D01*
X156811488Y-89804185D01*
X156712141Y-89794400D01*
X156712138Y-89794400D01*
X156678930Y-89791129D01*
X156645722Y-89794400D01*
X153392965Y-89794400D01*
X153292093Y-89727000D01*
X157558073Y-89727000D01*
X157597374Y-89753260D01*
X157752064Y-89817335D01*
X157916282Y-89850000D01*
X158083718Y-89850000D01*
X158247936Y-89817335D01*
X158402626Y-89753260D01*
X158541844Y-89660238D01*
X158660238Y-89541844D01*
X158753260Y-89402626D01*
X158817335Y-89247936D01*
X158850000Y-89083718D01*
X158850000Y-88916282D01*
X158817335Y-88752064D01*
X158753260Y-88597374D01*
X158660238Y-88458156D01*
X158541844Y-88339762D01*
X158402626Y-88246740D01*
X158247936Y-88182665D01*
X158083718Y-88150000D01*
X157916282Y-88150000D01*
X157752064Y-88182665D01*
X157597374Y-88246740D01*
X157558073Y-88273000D01*
X146441927Y-88273000D01*
X146402626Y-88246740D01*
X146247936Y-88182665D01*
X146083718Y-88150000D01*
X145916282Y-88150000D01*
X145752064Y-88182665D01*
X145597374Y-88246740D01*
X145558073Y-88273000D01*
X134441927Y-88273000D01*
X134402626Y-88246740D01*
X134247936Y-88182665D01*
X134083718Y-88150000D01*
X133916282Y-88150000D01*
X133752064Y-88182665D01*
X133597374Y-88246740D01*
X133558073Y-88273000D01*
X122441927Y-88273000D01*
X122402626Y-88246740D01*
X122247936Y-88182665D01*
X122083718Y-88150000D01*
X121916282Y-88150000D01*
X121752064Y-88182665D01*
X121597374Y-88246740D01*
X121558073Y-88273000D01*
X110441927Y-88273000D01*
X110402626Y-88246740D01*
X110247936Y-88182665D01*
X110083718Y-88150000D01*
X109916282Y-88150000D01*
X109752064Y-88182665D01*
X109597374Y-88246740D01*
X109558073Y-88273000D01*
X98441927Y-88273000D01*
X98402626Y-88246740D01*
X98247936Y-88182665D01*
X98083718Y-88150000D01*
X97916282Y-88150000D01*
X97752064Y-88182665D01*
X97597374Y-88246740D01*
X97558073Y-88273000D01*
X86441927Y-88273000D01*
X86402626Y-88246740D01*
X86247936Y-88182665D01*
X86083718Y-88150000D01*
X85916282Y-88150000D01*
X85752064Y-88182665D01*
X85597374Y-88246740D01*
X85558073Y-88273000D01*
X74441927Y-88273000D01*
X74402626Y-88246740D01*
X74247936Y-88182665D01*
X74083718Y-88150000D01*
X73916282Y-88150000D01*
X73752064Y-88182665D01*
X73597374Y-88246740D01*
X73458156Y-88339762D01*
X73339762Y-88458156D01*
X73246740Y-88597374D01*
X73182665Y-88752064D01*
X73150000Y-88916282D01*
X73150000Y-89083718D01*
X73182665Y-89247936D01*
X73246740Y-89402626D01*
X73339762Y-89541844D01*
X73458156Y-89660238D01*
X73597374Y-89753260D01*
X73752064Y-89817335D01*
X73916282Y-89850000D01*
X74083718Y-89850000D01*
X74247936Y-89817335D01*
X74402626Y-89753260D01*
X74441927Y-89727000D01*
X85558073Y-89727000D01*
X85597374Y-89753260D01*
X85752064Y-89817335D01*
X85916282Y-89850000D01*
X86083718Y-89850000D01*
X86247936Y-89817335D01*
X86402626Y-89753260D01*
X86441927Y-89727000D01*
X97558073Y-89727000D01*
X97597374Y-89753260D01*
X97752064Y-89817335D01*
X97916282Y-89850000D01*
X98083718Y-89850000D01*
X98247936Y-89817335D01*
X98402626Y-89753260D01*
X98441927Y-89727000D01*
X109558073Y-89727000D01*
X109597374Y-89753260D01*
X109752064Y-89817335D01*
X109916282Y-89850000D01*
X110083718Y-89850000D01*
X110247936Y-89817335D01*
X110402626Y-89753260D01*
X110441927Y-89727000D01*
X121558073Y-89727000D01*
X121597374Y-89753260D01*
X121752064Y-89817335D01*
X121916282Y-89850000D01*
X122083718Y-89850000D01*
X122247936Y-89817335D01*
X122402626Y-89753260D01*
X122441927Y-89727000D01*
X133558073Y-89727000D01*
X133597374Y-89753260D01*
X133752064Y-89817335D01*
X133916282Y-89850000D01*
X134083718Y-89850000D01*
X134247936Y-89817335D01*
X134402626Y-89753260D01*
X134441927Y-89727000D01*
X145558073Y-89727000D01*
X145597374Y-89753260D01*
X145752064Y-89817335D01*
X145916282Y-89850000D01*
X146083718Y-89850000D01*
X146247936Y-89817335D01*
X146402626Y-89753260D01*
X146441927Y-89727000D01*
X152457927Y-89727000D01*
X152333166Y-89810362D01*
X152214772Y-89928756D01*
X152121750Y-90067974D01*
X152057675Y-90222664D01*
X152047663Y-90273000D01*
X144941927Y-90273000D01*
X144902626Y-90246740D01*
X144747936Y-90182665D01*
X144583718Y-90150000D01*
X144416282Y-90150000D01*
X144252064Y-90182665D01*
X144097374Y-90246740D01*
X144058073Y-90273000D01*
X132941927Y-90273000D01*
X132902626Y-90246740D01*
X132747936Y-90182665D01*
X132583718Y-90150000D01*
X132416282Y-90150000D01*
X132252064Y-90182665D01*
X132097374Y-90246740D01*
X132058073Y-90273000D01*
X120941927Y-90273000D01*
X120902626Y-90246740D01*
X120747936Y-90182665D01*
X120583718Y-90150000D01*
X120416282Y-90150000D01*
X120252064Y-90182665D01*
X120097374Y-90246740D01*
X120058073Y-90273000D01*
X108941927Y-90273000D01*
X108902626Y-90246740D01*
X108747936Y-90182665D01*
X108583718Y-90150000D01*
X108416282Y-90150000D01*
X108252064Y-90182665D01*
X108097374Y-90246740D01*
X108058073Y-90273000D01*
X96941927Y-90273000D01*
X96902626Y-90246740D01*
X96747936Y-90182665D01*
X96583718Y-90150000D01*
X96416282Y-90150000D01*
X96252064Y-90182665D01*
X96097374Y-90246740D01*
X96058073Y-90273000D01*
X84941927Y-90273000D01*
X84902626Y-90246740D01*
X84747936Y-90182665D01*
X84583718Y-90150000D01*
X84416282Y-90150000D01*
X84252064Y-90182665D01*
X84097374Y-90246740D01*
X84058073Y-90273000D01*
X72941927Y-90273000D01*
X72902626Y-90246740D01*
X72747936Y-90182665D01*
X72583718Y-90150000D01*
X72416282Y-90150000D01*
X72252064Y-90182665D01*
X72097374Y-90246740D01*
X71958156Y-90339762D01*
X71839762Y-90458156D01*
X71746740Y-90597374D01*
X71682665Y-90752064D01*
X71650000Y-90916282D01*
X71650000Y-91083718D01*
X71682665Y-91247936D01*
X71746740Y-91402626D01*
X71839762Y-91541844D01*
X71958156Y-91660238D01*
X72097374Y-91753260D01*
X72252064Y-91817335D01*
X72416282Y-91850000D01*
X72583718Y-91850000D01*
X72747936Y-91817335D01*
X72902626Y-91753260D01*
X72941927Y-91727000D01*
X84058073Y-91727000D01*
X84097374Y-91753260D01*
X84252064Y-91817335D01*
X84416282Y-91850000D01*
X84583718Y-91850000D01*
X84747936Y-91817335D01*
X84902626Y-91753260D01*
X84941927Y-91727000D01*
X96058073Y-91727000D01*
X96097374Y-91753260D01*
X96252064Y-91817335D01*
X96416282Y-91850000D01*
X96583718Y-91850000D01*
X96747936Y-91817335D01*
X96902626Y-91753260D01*
X96941927Y-91727000D01*
X108058073Y-91727000D01*
X108097374Y-91753260D01*
X108252064Y-91817335D01*
X108416282Y-91850000D01*
X108583718Y-91850000D01*
X108747936Y-91817335D01*
X108902626Y-91753260D01*
X108941927Y-91727000D01*
X120058073Y-91727000D01*
X120097374Y-91753260D01*
X120252064Y-91817335D01*
X120416282Y-91850000D01*
X120583718Y-91850000D01*
X120747936Y-91817335D01*
X120902626Y-91753260D01*
X120941927Y-91727000D01*
X132058073Y-91727000D01*
X132097374Y-91753260D01*
X132252064Y-91817335D01*
X132416282Y-91850000D01*
X132583718Y-91850000D01*
X132747936Y-91817335D01*
X132902626Y-91753260D01*
X132941927Y-91727000D01*
X144058073Y-91727000D01*
X144097374Y-91753260D01*
X144252064Y-91817335D01*
X144416282Y-91850000D01*
X144583718Y-91850000D01*
X144747936Y-91817335D01*
X144902626Y-91753260D01*
X144941927Y-91727000D01*
X149693047Y-91727000D01*
X149682665Y-91752064D01*
X149650000Y-91916282D01*
X149650000Y-92083718D01*
X149682665Y-92247936D01*
X149746740Y-92402626D01*
X149839762Y-92541844D01*
X149958156Y-92660238D01*
X150097374Y-92753260D01*
X150252064Y-92817335D01*
X150388105Y-92844395D01*
X154323800Y-96780091D01*
X154323801Y-103482044D01*
X154246740Y-103597374D01*
X154182665Y-103752064D01*
X154150000Y-103916282D01*
X154150000Y-104083718D01*
X154182665Y-104247936D01*
X154246740Y-104402626D01*
X154339762Y-104541844D01*
X154458156Y-104660238D01*
X154597374Y-104753260D01*
X154752064Y-104817335D01*
X154916282Y-104850000D01*
X155083718Y-104850000D01*
X155247936Y-104817335D01*
X155402626Y-104753260D01*
X155541844Y-104660238D01*
X155660238Y-104541844D01*
X155753260Y-104402626D01*
X155817335Y-104247936D01*
X155850000Y-104083718D01*
X155850000Y-103916282D01*
X155817335Y-103752064D01*
X155753260Y-103597374D01*
X155676200Y-103482045D01*
X155676200Y-96533207D01*
X155679471Y-96499999D01*
X155673073Y-96435041D01*
X155666415Y-96367442D01*
X155627749Y-96239978D01*
X155564959Y-96122506D01*
X155480458Y-96019541D01*
X155454662Y-95998371D01*
X151344395Y-91888105D01*
X151317335Y-91752064D01*
X151306953Y-91727000D01*
X156058073Y-91727000D01*
X156097374Y-91753260D01*
X156252064Y-91817335D01*
X156302401Y-91827348D01*
X156302402Y-92945383D01*
X156299130Y-92978601D01*
X156310953Y-93098630D01*
X156312187Y-93111159D01*
X156326096Y-93157010D01*
X156350853Y-93238623D01*
X156413642Y-93356094D01*
X156428741Y-93374492D01*
X156498143Y-93459060D01*
X156523944Y-93480234D01*
X161420814Y-98377104D01*
X161339762Y-98458156D01*
X161246740Y-98597374D01*
X161182665Y-98752064D01*
X161150000Y-98916282D01*
X161150000Y-99083718D01*
X161182665Y-99247936D01*
X161246740Y-99402626D01*
X161339762Y-99541844D01*
X161458156Y-99660238D01*
X161597374Y-99753260D01*
X161752064Y-99817335D01*
X161888105Y-99844395D01*
X162107210Y-100063501D01*
X162107210Y-103154673D01*
X162083718Y-103150000D01*
X161916282Y-103150000D01*
X161752064Y-103182665D01*
X161597374Y-103246740D01*
X161458156Y-103339762D01*
X161339762Y-103458156D01*
X161246740Y-103597374D01*
X161182665Y-103752064D01*
X161150000Y-103916282D01*
X161150000Y-104083718D01*
X161182665Y-104247936D01*
X161246740Y-104402626D01*
X161339762Y-104541844D01*
X161458156Y-104660238D01*
X161597374Y-104753260D01*
X161752064Y-104817335D01*
X161802401Y-104827348D01*
X161802402Y-106172652D01*
X161752064Y-106182665D01*
X161597374Y-106246740D01*
X161458156Y-106339762D01*
X161339762Y-106458156D01*
X161246740Y-106597374D01*
X161182665Y-106752064D01*
X161155605Y-106888104D01*
X160415100Y-107628610D01*
X157967077Y-107628610D01*
X158238068Y-107357619D01*
X158263869Y-107336445D01*
X158348369Y-107233480D01*
X158411159Y-107116008D01*
X158449825Y-106988544D01*
X158459610Y-106889197D01*
X158459610Y-106889195D01*
X158462881Y-106855987D01*
X158459610Y-106822779D01*
X158459610Y-99816617D01*
X158462881Y-99783409D01*
X158458470Y-99738623D01*
X158449825Y-99650852D01*
X158411159Y-99523388D01*
X158348369Y-99405916D01*
X158263868Y-99302951D01*
X158238072Y-99281781D01*
X157844395Y-98888105D01*
X157817335Y-98752064D01*
X157753260Y-98597374D01*
X157660238Y-98458156D01*
X157541844Y-98339762D01*
X157402626Y-98246740D01*
X157247936Y-98182665D01*
X157083718Y-98150000D01*
X156916282Y-98150000D01*
X156752064Y-98182665D01*
X156597374Y-98246740D01*
X156458156Y-98339762D01*
X156339762Y-98458156D01*
X156246740Y-98597374D01*
X156182665Y-98752064D01*
X156150000Y-98916282D01*
X156150000Y-99083718D01*
X156182665Y-99247936D01*
X156246740Y-99402626D01*
X156339762Y-99541844D01*
X156458156Y-99660238D01*
X156597374Y-99753260D01*
X156752064Y-99817335D01*
X156888105Y-99844395D01*
X157107210Y-100063501D01*
X157107210Y-103154673D01*
X157083718Y-103150000D01*
X156916282Y-103150000D01*
X156752064Y-103182665D01*
X156597374Y-103246740D01*
X156458156Y-103339762D01*
X156339762Y-103458156D01*
X156246740Y-103597374D01*
X156182665Y-103752064D01*
X156150000Y-103916282D01*
X156150000Y-104083718D01*
X156182665Y-104247936D01*
X156246740Y-104402626D01*
X156339762Y-104541844D01*
X156458156Y-104660238D01*
X156597374Y-104753260D01*
X156752064Y-104817335D01*
X156802401Y-104827348D01*
X156802402Y-105672652D01*
X156752064Y-105682665D01*
X156597374Y-105746740D01*
X156458156Y-105839762D01*
X156339762Y-105958156D01*
X156246740Y-106097374D01*
X156182665Y-106252064D01*
X156155605Y-106388105D01*
X156110290Y-106433420D01*
X153455254Y-106433420D01*
X153459610Y-106389197D01*
X153459610Y-106389194D01*
X153462881Y-106355986D01*
X153459610Y-106322778D01*
X153459610Y-99816617D01*
X153462881Y-99783409D01*
X153458470Y-99738623D01*
X153449825Y-99650852D01*
X153411159Y-99523388D01*
X153348369Y-99405916D01*
X153263868Y-99302951D01*
X153238072Y-99281781D01*
X152844395Y-98888105D01*
X152817335Y-98752064D01*
X152753260Y-98597374D01*
X152660238Y-98458156D01*
X152541844Y-98339762D01*
X152402626Y-98246740D01*
X152247936Y-98182665D01*
X152083718Y-98150000D01*
X151916282Y-98150000D01*
X151752064Y-98182665D01*
X151597374Y-98246740D01*
X151458156Y-98339762D01*
X151339762Y-98458156D01*
X151246740Y-98597374D01*
X151182665Y-98752064D01*
X151150000Y-98916282D01*
X151150000Y-99083718D01*
X151182665Y-99247936D01*
X151246740Y-99402626D01*
X151339762Y-99541844D01*
X151458156Y-99660238D01*
X151597374Y-99753260D01*
X151752064Y-99817335D01*
X151888105Y-99844395D01*
X152107210Y-100063501D01*
X152107211Y-103154673D01*
X152083718Y-103150000D01*
X151916282Y-103150000D01*
X151752064Y-103182665D01*
X151597374Y-103246740D01*
X151458156Y-103339762D01*
X151339762Y-103458156D01*
X151246740Y-103597374D01*
X151182665Y-103752064D01*
X151150000Y-103916282D01*
X151150000Y-104083718D01*
X151182665Y-104247936D01*
X151246740Y-104402626D01*
X151339762Y-104541844D01*
X151458156Y-104660238D01*
X151597374Y-104753260D01*
X151752064Y-104817335D01*
X151802401Y-104827348D01*
X151802401Y-105172652D01*
X151752064Y-105182665D01*
X151597374Y-105246740D01*
X151482045Y-105323800D01*
X148785911Y-105323800D01*
X148817335Y-105247936D01*
X148850000Y-105083718D01*
X148850000Y-104916282D01*
X148817335Y-104752064D01*
X148753260Y-104597374D01*
X148660238Y-104458156D01*
X148541844Y-104339762D01*
X148402626Y-104246740D01*
X148247936Y-104182665D01*
X148111897Y-104155605D01*
X147001637Y-103045347D01*
X146980459Y-103019541D01*
X146877494Y-102935041D01*
X146760022Y-102872251D01*
X146632558Y-102833585D01*
X146533211Y-102823800D01*
X146533208Y-102823800D01*
X146500000Y-102820529D01*
X146466792Y-102823800D01*
X142132491Y-102823800D01*
X146111897Y-98844395D01*
X146247936Y-98817335D01*
X146402626Y-98753260D01*
X146464174Y-98712135D01*
X147287865Y-99535826D01*
X147246740Y-99597374D01*
X147182665Y-99752064D01*
X147150000Y-99916282D01*
X147150000Y-100083718D01*
X147182665Y-100247936D01*
X147246740Y-100402626D01*
X147339762Y-100541844D01*
X147458156Y-100660238D01*
X147597374Y-100753260D01*
X147752064Y-100817335D01*
X147916282Y-100850000D01*
X148083718Y-100850000D01*
X148247936Y-100817335D01*
X148402626Y-100753260D01*
X148541844Y-100660238D01*
X148660238Y-100541844D01*
X148753260Y-100402626D01*
X148817335Y-100247936D01*
X148850000Y-100083718D01*
X148850000Y-99916282D01*
X148817335Y-99752064D01*
X148753260Y-99597374D01*
X148676200Y-99482045D01*
X148676200Y-99324877D01*
X148679471Y-99291669D01*
X148675570Y-99252064D01*
X148666415Y-99159112D01*
X148627749Y-99031648D01*
X148564959Y-98914176D01*
X148480458Y-98811211D01*
X148454662Y-98790041D01*
X146709968Y-97045348D01*
X146688789Y-97019541D01*
X146585824Y-96935041D01*
X146468352Y-96872251D01*
X146340888Y-96833585D01*
X146241541Y-96823800D01*
X146241538Y-96823800D01*
X146208330Y-96820529D01*
X146175122Y-96823800D01*
X141017955Y-96823800D01*
X140902626Y-96746740D01*
X140747936Y-96682665D01*
X140583718Y-96650000D01*
X140416282Y-96650000D01*
X140252064Y-96682665D01*
X140097374Y-96746740D01*
X139958156Y-96839762D01*
X139839762Y-96958156D01*
X139746740Y-97097374D01*
X139682665Y-97252064D01*
X139650000Y-97416282D01*
X139650000Y-97583718D01*
X139682665Y-97747936D01*
X139746740Y-97902626D01*
X139839762Y-98041844D01*
X139958156Y-98160238D01*
X140097374Y-98253260D01*
X140252064Y-98317335D01*
X140284566Y-98323800D01*
X139017955Y-98323800D01*
X138902626Y-98246740D01*
X138747936Y-98182665D01*
X138583718Y-98150000D01*
X138416282Y-98150000D01*
X138252064Y-98182665D01*
X138097374Y-98246740D01*
X137958156Y-98339762D01*
X137839762Y-98458156D01*
X137746740Y-98597374D01*
X137682665Y-98752064D01*
X137650000Y-98916282D01*
X137650000Y-99083718D01*
X137675953Y-99214191D01*
X137597374Y-99246740D01*
X137482045Y-99323800D01*
X137331604Y-99323800D01*
X137317335Y-99252064D01*
X137253260Y-99097374D01*
X137160238Y-98958156D01*
X137041844Y-98839762D01*
X136902626Y-98746740D01*
X136747936Y-98682665D01*
X136583718Y-98650000D01*
X136416282Y-98650000D01*
X136252064Y-98682665D01*
X136097374Y-98746740D01*
X135958156Y-98839762D01*
X135839762Y-98958156D01*
X135746740Y-99097374D01*
X135682665Y-99252064D01*
X135650000Y-99416282D01*
X135650000Y-99583718D01*
X135682665Y-99747936D01*
X135746740Y-99902626D01*
X135839762Y-100041844D01*
X135958156Y-100160238D01*
X136097374Y-100253260D01*
X136252064Y-100317335D01*
X136388104Y-100344395D01*
X136498366Y-100454657D01*
X136519541Y-100480459D01*
X136622506Y-100564959D01*
X136739977Y-100627749D01*
X136867442Y-100666415D01*
X137000000Y-100679471D01*
X137033210Y-100676200D01*
X137482045Y-100676200D01*
X137597374Y-100753260D01*
X137752064Y-100817335D01*
X137916282Y-100850000D01*
X138083718Y-100850000D01*
X138247936Y-100817335D01*
X138402626Y-100753260D01*
X138541844Y-100660238D01*
X138660238Y-100541844D01*
X138753260Y-100402626D01*
X138817335Y-100247936D01*
X138850000Y-100083718D01*
X138850000Y-99916282D01*
X138824047Y-99785809D01*
X138902626Y-99753260D01*
X139017955Y-99676200D01*
X141719910Y-99676200D01*
X142155605Y-100111895D01*
X142182665Y-100247936D01*
X142246740Y-100402626D01*
X142339762Y-100541844D01*
X142420813Y-100622895D01*
X138622896Y-104420814D01*
X138541844Y-104339762D01*
X138402626Y-104246740D01*
X138247936Y-104182665D01*
X138083718Y-104150000D01*
X137916282Y-104150000D01*
X137752064Y-104182665D01*
X137597374Y-104246740D01*
X137482045Y-104323800D01*
X137331604Y-104323800D01*
X137317335Y-104252064D01*
X137253260Y-104097374D01*
X137160238Y-103958156D01*
X137041844Y-103839762D01*
X136902626Y-103746740D01*
X136747936Y-103682665D01*
X136583718Y-103650000D01*
X136416282Y-103650000D01*
X136252064Y-103682665D01*
X136097374Y-103746740D01*
X135958156Y-103839762D01*
X135839762Y-103958156D01*
X135746740Y-104097374D01*
X135682665Y-104252064D01*
X135650000Y-104416282D01*
X135650000Y-104583718D01*
X135682665Y-104747936D01*
X135746740Y-104902626D01*
X135839762Y-105041844D01*
X135958156Y-105160238D01*
X136097374Y-105253260D01*
X136252064Y-105317335D01*
X136388104Y-105344395D01*
X136498366Y-105454657D01*
X136519541Y-105480459D01*
X136594340Y-105541844D01*
X136622506Y-105564959D01*
X136739977Y-105627749D01*
X136867442Y-105666415D01*
X137000000Y-105679471D01*
X137033210Y-105676200D01*
X137367509Y-105676200D01*
X134545344Y-108498366D01*
X134519541Y-108519542D01*
X134435041Y-108622507D01*
X134372251Y-108739979D01*
X134333585Y-108867443D01*
X134324314Y-108961571D01*
X134320529Y-109000000D01*
X134323800Y-109033208D01*
X134323800Y-109547097D01*
X134150000Y-109547097D01*
X134032379Y-109558682D01*
X133919279Y-109592990D01*
X133815045Y-109648704D01*
X133723683Y-109723683D01*
X133648704Y-109815045D01*
X133592990Y-109919279D01*
X133558682Y-110032379D01*
X133547097Y-110150000D01*
X133547097Y-111773000D01*
X128627398Y-111773000D01*
X128684973Y-111686833D01*
X128794277Y-111422949D01*
X128850000Y-111142813D01*
X128850000Y-110857187D01*
X128794277Y-110577051D01*
X128684973Y-110313167D01*
X128526289Y-110075679D01*
X128324321Y-109873711D01*
X128086833Y-109715027D01*
X127822949Y-109605723D01*
X127542813Y-109550000D01*
X127266291Y-109550000D01*
X128140091Y-108676200D01*
X130482045Y-108676200D01*
X130597374Y-108753260D01*
X130752064Y-108817335D01*
X130916282Y-108850000D01*
X131083718Y-108850000D01*
X131247936Y-108817335D01*
X131402626Y-108753260D01*
X131541844Y-108660238D01*
X131660238Y-108541844D01*
X131753260Y-108402626D01*
X131817335Y-108247936D01*
X131850000Y-108083718D01*
X131850000Y-107916282D01*
X131817335Y-107752064D01*
X131753260Y-107597374D01*
X131660238Y-107458156D01*
X131541844Y-107339762D01*
X131402626Y-107246740D01*
X131247936Y-107182665D01*
X131083718Y-107150000D01*
X130916282Y-107150000D01*
X130752064Y-107182665D01*
X130597374Y-107246740D01*
X130482045Y-107323800D01*
X128154801Y-107323800D01*
X128154801Y-103916282D01*
X130150000Y-103916282D01*
X130150000Y-104083718D01*
X130182665Y-104247936D01*
X130246740Y-104402626D01*
X130339762Y-104541844D01*
X130458156Y-104660238D01*
X130597374Y-104753260D01*
X130752064Y-104817335D01*
X130888105Y-104844395D01*
X131498367Y-105454658D01*
X131519541Y-105480459D01*
X131594340Y-105541844D01*
X131622506Y-105564959D01*
X131739978Y-105627749D01*
X131867442Y-105666415D01*
X132000000Y-105679471D01*
X132033211Y-105676200D01*
X132482045Y-105676200D01*
X132597374Y-105753260D01*
X132752064Y-105817335D01*
X132916282Y-105850000D01*
X133083718Y-105850000D01*
X133247936Y-105817335D01*
X133402626Y-105753260D01*
X133541844Y-105660238D01*
X133660238Y-105541844D01*
X133753260Y-105402626D01*
X133817335Y-105247936D01*
X133850000Y-105083718D01*
X133850000Y-104916282D01*
X133817335Y-104752064D01*
X133753260Y-104597374D01*
X133660238Y-104458156D01*
X133541844Y-104339762D01*
X133402626Y-104246740D01*
X133247936Y-104182665D01*
X133083718Y-104150000D01*
X132916282Y-104150000D01*
X132752064Y-104182665D01*
X132597374Y-104246740D01*
X132482045Y-104323800D01*
X132280091Y-104323800D01*
X131844395Y-103888105D01*
X131817335Y-103752064D01*
X131753260Y-103597374D01*
X131660238Y-103458156D01*
X131541844Y-103339762D01*
X131402626Y-103246740D01*
X131247936Y-103182665D01*
X131083718Y-103150000D01*
X130916282Y-103150000D01*
X130752064Y-103182665D01*
X130597374Y-103246740D01*
X130458156Y-103339762D01*
X130339762Y-103458156D01*
X130246740Y-103597374D01*
X130182665Y-103752064D01*
X130150000Y-103916282D01*
X128154801Y-103916282D01*
X128154801Y-99511808D01*
X128158072Y-99478600D01*
X128154801Y-99445390D01*
X128145016Y-99346043D01*
X128106350Y-99218579D01*
X128043560Y-99101107D01*
X127959059Y-98998142D01*
X127933263Y-98976972D01*
X127844395Y-98888104D01*
X127817335Y-98752064D01*
X127753260Y-98597374D01*
X127660238Y-98458156D01*
X127541844Y-98339762D01*
X127402626Y-98246740D01*
X127247936Y-98182665D01*
X127083718Y-98150000D01*
X126916282Y-98150000D01*
X126752064Y-98182665D01*
X126597374Y-98246740D01*
X126458156Y-98339762D01*
X126339762Y-98458156D01*
X126246740Y-98597374D01*
X126182665Y-98752064D01*
X126150000Y-98916282D01*
X126150000Y-99083718D01*
X126182665Y-99247936D01*
X126246740Y-99402626D01*
X126339762Y-99541844D01*
X126458156Y-99660238D01*
X126597374Y-99753260D01*
X126752064Y-99817335D01*
X126802401Y-99827348D01*
X126802401Y-103172652D01*
X126752064Y-103182665D01*
X126597374Y-103246740D01*
X126458156Y-103339762D01*
X126339762Y-103458156D01*
X126246740Y-103597374D01*
X126182665Y-103752064D01*
X126150000Y-103916282D01*
X126150000Y-104083718D01*
X126182665Y-104247936D01*
X126246740Y-104402626D01*
X126323800Y-104517955D01*
X126323801Y-107214089D01*
X126247936Y-107182665D01*
X126083718Y-107150000D01*
X125916282Y-107150000D01*
X125752064Y-107182665D01*
X125597374Y-107246740D01*
X125458156Y-107339762D01*
X125339762Y-107458156D01*
X125246740Y-107597374D01*
X125182665Y-107752064D01*
X125155605Y-107888104D01*
X124599567Y-108444143D01*
X122651544Y-108444143D01*
X123238068Y-107857619D01*
X123263869Y-107836445D01*
X123348369Y-107733480D01*
X123411159Y-107616008D01*
X123449825Y-107488544D01*
X123459610Y-107389197D01*
X123462881Y-107355986D01*
X123459610Y-107322775D01*
X123459610Y-99816617D01*
X123462881Y-99783409D01*
X123458470Y-99738623D01*
X123449825Y-99650852D01*
X123411159Y-99523388D01*
X123348369Y-99405916D01*
X123263868Y-99302951D01*
X123238072Y-99281781D01*
X122844395Y-98888105D01*
X122817335Y-98752064D01*
X122753260Y-98597374D01*
X122660238Y-98458156D01*
X122541844Y-98339762D01*
X122402626Y-98246740D01*
X122247936Y-98182665D01*
X122083718Y-98150000D01*
X121916282Y-98150000D01*
X121752064Y-98182665D01*
X121597374Y-98246740D01*
X121458156Y-98339762D01*
X121339762Y-98458156D01*
X121246740Y-98597374D01*
X121182665Y-98752064D01*
X121150000Y-98916282D01*
X121150000Y-99083718D01*
X121182665Y-99247936D01*
X121246740Y-99402626D01*
X121339762Y-99541844D01*
X121458156Y-99660238D01*
X121597374Y-99753260D01*
X121752064Y-99817335D01*
X121888105Y-99844395D01*
X122107210Y-100063501D01*
X122107210Y-103154673D01*
X122083718Y-103150000D01*
X121916282Y-103150000D01*
X121752064Y-103182665D01*
X121597374Y-103246740D01*
X121458156Y-103339762D01*
X121339762Y-103458156D01*
X121246740Y-103597374D01*
X121182665Y-103752064D01*
X121150000Y-103916282D01*
X121150000Y-104083718D01*
X121182665Y-104247936D01*
X121246740Y-104402626D01*
X121339762Y-104541844D01*
X121458156Y-104660238D01*
X121597374Y-104753260D01*
X121752064Y-104817335D01*
X121802401Y-104827348D01*
X121802402Y-106172652D01*
X121752064Y-106182665D01*
X121597374Y-106246740D01*
X121458156Y-106339762D01*
X121339762Y-106458156D01*
X121246740Y-106597374D01*
X121182665Y-106752064D01*
X121155605Y-106888104D01*
X120610290Y-107433420D01*
X118455254Y-107433420D01*
X118459610Y-107389197D01*
X118459610Y-107389194D01*
X118462881Y-107355986D01*
X118459610Y-107322778D01*
X118459610Y-99816617D01*
X118462881Y-99783409D01*
X118458470Y-99738623D01*
X118449825Y-99650852D01*
X118411159Y-99523388D01*
X118348369Y-99405916D01*
X118263868Y-99302951D01*
X118238072Y-99281781D01*
X117844395Y-98888105D01*
X117817335Y-98752064D01*
X117753260Y-98597374D01*
X117660238Y-98458156D01*
X117541844Y-98339762D01*
X117402626Y-98246740D01*
X117247936Y-98182665D01*
X117083718Y-98150000D01*
X116916282Y-98150000D01*
X116752064Y-98182665D01*
X116597374Y-98246740D01*
X116458156Y-98339762D01*
X116339762Y-98458156D01*
X116246740Y-98597374D01*
X116182665Y-98752064D01*
X116150000Y-98916282D01*
X116150000Y-99083718D01*
X116182665Y-99247936D01*
X116246740Y-99402626D01*
X116339762Y-99541844D01*
X116458156Y-99660238D01*
X116597374Y-99753260D01*
X116752064Y-99817335D01*
X116888105Y-99844395D01*
X117107210Y-100063501D01*
X117107210Y-103154673D01*
X117083718Y-103150000D01*
X116916282Y-103150000D01*
X116752064Y-103182665D01*
X116597374Y-103246740D01*
X116458156Y-103339762D01*
X116339762Y-103458156D01*
X116246740Y-103597374D01*
X116182665Y-103752064D01*
X116150000Y-103916282D01*
X116150000Y-104083718D01*
X116182665Y-104247936D01*
X116246740Y-104402626D01*
X116339762Y-104541844D01*
X116458156Y-104660238D01*
X116597374Y-104753260D01*
X116752064Y-104817335D01*
X116802401Y-104827348D01*
X116802402Y-106172652D01*
X116752064Y-106182665D01*
X116597374Y-106246740D01*
X116482045Y-106323800D01*
X106033207Y-106323800D01*
X105999999Y-106320529D01*
X105966791Y-106323800D01*
X105966789Y-106323800D01*
X105867442Y-106333585D01*
X105739978Y-106372251D01*
X105692037Y-106397876D01*
X105622505Y-106435041D01*
X105553479Y-106491689D01*
X105519541Y-106519541D01*
X105498371Y-106545337D01*
X102496613Y-109547097D01*
X101150000Y-109547097D01*
X101032379Y-109558682D01*
X100919279Y-109592990D01*
X100815045Y-109648704D01*
X100723683Y-109723683D01*
X100648704Y-109815045D01*
X100592990Y-109919279D01*
X100558682Y-110032379D01*
X100547097Y-110150000D01*
X100547097Y-111773000D01*
X95627398Y-111773000D01*
X95684973Y-111686833D01*
X95794277Y-111422949D01*
X95850000Y-111142813D01*
X95850000Y-110857187D01*
X95794277Y-110577051D01*
X95684973Y-110313167D01*
X95551384Y-110113236D01*
X97454663Y-108209959D01*
X97480459Y-108188789D01*
X97518755Y-108142125D01*
X97564959Y-108085825D01*
X97610833Y-108000000D01*
X97627749Y-107968352D01*
X97666415Y-107840888D01*
X97676200Y-107741541D01*
X97676200Y-107741539D01*
X97679471Y-107708331D01*
X97676200Y-107675123D01*
X97676200Y-104517955D01*
X97744135Y-104416282D01*
X100650000Y-104416282D01*
X100650000Y-104583718D01*
X100682665Y-104747936D01*
X100746740Y-104902626D01*
X100839762Y-105041844D01*
X100958156Y-105160238D01*
X101097374Y-105253260D01*
X101252064Y-105317335D01*
X101388104Y-105344395D01*
X101498366Y-105454657D01*
X101519541Y-105480459D01*
X101594340Y-105541844D01*
X101622506Y-105564959D01*
X101739977Y-105627749D01*
X101867442Y-105666415D01*
X102000000Y-105679471D01*
X102033210Y-105676200D01*
X102482045Y-105676200D01*
X102597374Y-105753260D01*
X102752064Y-105817335D01*
X102916282Y-105850000D01*
X103083718Y-105850000D01*
X103247936Y-105817335D01*
X103402626Y-105753260D01*
X103541844Y-105660238D01*
X103660238Y-105541844D01*
X103753260Y-105402626D01*
X103817335Y-105247936D01*
X103850000Y-105083718D01*
X103850000Y-104916282D01*
X103817335Y-104752064D01*
X103753260Y-104597374D01*
X103660238Y-104458156D01*
X103541844Y-104339762D01*
X103402626Y-104246740D01*
X103247936Y-104182665D01*
X103083718Y-104150000D01*
X102916282Y-104150000D01*
X102752064Y-104182665D01*
X102597374Y-104246740D01*
X102482045Y-104323800D01*
X102331604Y-104323800D01*
X102317335Y-104252064D01*
X102253260Y-104097374D01*
X102160238Y-103958156D01*
X102118364Y-103916282D01*
X105150000Y-103916282D01*
X105150000Y-104083718D01*
X105182665Y-104247936D01*
X105246740Y-104402626D01*
X105339762Y-104541844D01*
X105458156Y-104660238D01*
X105597374Y-104753260D01*
X105752064Y-104817335D01*
X105888104Y-104844395D01*
X105998366Y-104954657D01*
X106019541Y-104980459D01*
X106094340Y-105041844D01*
X106122506Y-105064959D01*
X106239977Y-105127749D01*
X106367442Y-105166415D01*
X106500000Y-105179471D01*
X106533210Y-105176200D01*
X107482045Y-105176200D01*
X107597374Y-105253260D01*
X107752064Y-105317335D01*
X107916282Y-105350000D01*
X108083718Y-105350000D01*
X108247936Y-105317335D01*
X108402626Y-105253260D01*
X108541844Y-105160238D01*
X108660238Y-105041844D01*
X108753260Y-104902626D01*
X108817335Y-104747936D01*
X108850000Y-104583718D01*
X108850000Y-104416282D01*
X110650000Y-104416282D01*
X110650000Y-104583718D01*
X110682665Y-104747936D01*
X110746740Y-104902626D01*
X110839762Y-105041844D01*
X110958156Y-105160238D01*
X111097374Y-105253260D01*
X111252064Y-105317335D01*
X111388104Y-105344395D01*
X111498366Y-105454657D01*
X111519541Y-105480459D01*
X111594340Y-105541844D01*
X111622506Y-105564959D01*
X111739977Y-105627749D01*
X111867442Y-105666415D01*
X112000000Y-105679471D01*
X112033210Y-105676200D01*
X112482045Y-105676200D01*
X112597374Y-105753260D01*
X112752064Y-105817335D01*
X112916282Y-105850000D01*
X113083718Y-105850000D01*
X113247936Y-105817335D01*
X113402626Y-105753260D01*
X113541844Y-105660238D01*
X113660238Y-105541844D01*
X113753260Y-105402626D01*
X113817335Y-105247936D01*
X113850000Y-105083718D01*
X113850000Y-104916282D01*
X113817335Y-104752064D01*
X113753260Y-104597374D01*
X113660238Y-104458156D01*
X113541844Y-104339762D01*
X113402626Y-104246740D01*
X113247936Y-104182665D01*
X113083718Y-104150000D01*
X112916282Y-104150000D01*
X112752064Y-104182665D01*
X112597374Y-104246740D01*
X112482045Y-104323800D01*
X112331604Y-104323800D01*
X112317335Y-104252064D01*
X112253260Y-104097374D01*
X112160238Y-103958156D01*
X112041844Y-103839762D01*
X111902626Y-103746740D01*
X111747936Y-103682665D01*
X111583718Y-103650000D01*
X111416282Y-103650000D01*
X111252064Y-103682665D01*
X111097374Y-103746740D01*
X110958156Y-103839762D01*
X110839762Y-103958156D01*
X110746740Y-104097374D01*
X110682665Y-104252064D01*
X110650000Y-104416282D01*
X108850000Y-104416282D01*
X108817335Y-104252064D01*
X108753260Y-104097374D01*
X108660238Y-103958156D01*
X108541844Y-103839762D01*
X108402626Y-103746740D01*
X108247936Y-103682665D01*
X108083718Y-103650000D01*
X107916282Y-103650000D01*
X107752064Y-103682665D01*
X107597374Y-103746740D01*
X107482045Y-103823800D01*
X106831604Y-103823800D01*
X106817335Y-103752064D01*
X106753260Y-103597374D01*
X106660238Y-103458156D01*
X106541844Y-103339762D01*
X106402626Y-103246740D01*
X106247936Y-103182665D01*
X106083718Y-103150000D01*
X105916282Y-103150000D01*
X105752064Y-103182665D01*
X105597374Y-103246740D01*
X105458156Y-103339762D01*
X105339762Y-103458156D01*
X105246740Y-103597374D01*
X105182665Y-103752064D01*
X105150000Y-103916282D01*
X102118364Y-103916282D01*
X102041844Y-103839762D01*
X101902626Y-103746740D01*
X101747936Y-103682665D01*
X101583718Y-103650000D01*
X101416282Y-103650000D01*
X101252064Y-103682665D01*
X101097374Y-103746740D01*
X100958156Y-103839762D01*
X100839762Y-103958156D01*
X100746740Y-104097374D01*
X100682665Y-104252064D01*
X100650000Y-104416282D01*
X97744135Y-104416282D01*
X97753260Y-104402626D01*
X97817335Y-104247936D01*
X97850000Y-104083718D01*
X97850000Y-103916282D01*
X97817335Y-103752064D01*
X97753260Y-103597374D01*
X97660238Y-103458156D01*
X97541844Y-103339762D01*
X97402626Y-103246740D01*
X97247936Y-103182665D01*
X97083718Y-103150000D01*
X96916282Y-103150000D01*
X96752064Y-103182665D01*
X96597374Y-103246740D01*
X96458156Y-103339762D01*
X96339762Y-103458156D01*
X96246740Y-103597374D01*
X96182665Y-103752064D01*
X96150000Y-103916282D01*
X96150000Y-104083718D01*
X96182665Y-104247936D01*
X96246740Y-104402626D01*
X96323800Y-104517955D01*
X96323801Y-107214089D01*
X96247936Y-107182665D01*
X96083718Y-107150000D01*
X95916282Y-107150000D01*
X95752064Y-107182665D01*
X95597374Y-107246740D01*
X95458156Y-107339762D01*
X95339762Y-107458156D01*
X95246740Y-107597374D01*
X95182665Y-107752064D01*
X95155605Y-107888104D01*
X94415100Y-108628610D01*
X92467077Y-108628610D01*
X92933259Y-108162428D01*
X92959060Y-108141254D01*
X93043560Y-108038289D01*
X93106350Y-107920817D01*
X93145016Y-107793353D01*
X93154801Y-107694006D01*
X93154801Y-107694003D01*
X93158072Y-107660795D01*
X93154801Y-107627587D01*
X93154801Y-99511808D01*
X93158072Y-99478600D01*
X93154801Y-99445390D01*
X93145016Y-99346043D01*
X93106350Y-99218579D01*
X93043560Y-99101107D01*
X92959059Y-98998142D01*
X92933263Y-98976972D01*
X92844395Y-98888104D01*
X92817335Y-98752064D01*
X92753260Y-98597374D01*
X92660238Y-98458156D01*
X92541844Y-98339762D01*
X92402626Y-98246740D01*
X92247936Y-98182665D01*
X92083718Y-98150000D01*
X91916282Y-98150000D01*
X91752064Y-98182665D01*
X91597374Y-98246740D01*
X91458156Y-98339762D01*
X91339762Y-98458156D01*
X91246740Y-98597374D01*
X91182665Y-98752064D01*
X91150000Y-98916282D01*
X91150000Y-99083718D01*
X91182665Y-99247936D01*
X91246740Y-99402626D01*
X91339762Y-99541844D01*
X91458156Y-99660238D01*
X91597374Y-99753260D01*
X91752064Y-99817335D01*
X91802401Y-99827348D01*
X91802401Y-103172652D01*
X91752064Y-103182665D01*
X91597374Y-103246740D01*
X91458156Y-103339762D01*
X91339762Y-103458156D01*
X91246740Y-103597374D01*
X91182665Y-103752064D01*
X91150000Y-103916282D01*
X91150000Y-104083718D01*
X91182665Y-104247936D01*
X91246740Y-104402626D01*
X91323800Y-104517955D01*
X91323801Y-107214089D01*
X91247936Y-107182665D01*
X91083718Y-107150000D01*
X90916282Y-107150000D01*
X90752064Y-107182665D01*
X90597374Y-107246740D01*
X90458156Y-107339762D01*
X90339762Y-107458156D01*
X90246740Y-107597374D01*
X90233802Y-107628610D01*
X88404423Y-107628610D01*
X88411159Y-107616008D01*
X88449825Y-107488544D01*
X88459610Y-107389197D01*
X88459610Y-107389195D01*
X88462881Y-107355987D01*
X88459610Y-107322779D01*
X88459610Y-99816617D01*
X88462881Y-99783409D01*
X88458470Y-99738623D01*
X88449825Y-99650852D01*
X88411159Y-99523388D01*
X88348369Y-99405916D01*
X88263868Y-99302951D01*
X88238072Y-99281781D01*
X87844395Y-98888105D01*
X87817335Y-98752064D01*
X87753260Y-98597374D01*
X87660238Y-98458156D01*
X87541844Y-98339762D01*
X87402626Y-98246740D01*
X87247936Y-98182665D01*
X87083718Y-98150000D01*
X86916282Y-98150000D01*
X86752064Y-98182665D01*
X86597374Y-98246740D01*
X86458156Y-98339762D01*
X86339762Y-98458156D01*
X86246740Y-98597374D01*
X86182665Y-98752064D01*
X86150000Y-98916282D01*
X86150000Y-99083718D01*
X86182665Y-99247936D01*
X86246740Y-99402626D01*
X86339762Y-99541844D01*
X86458156Y-99660238D01*
X86597374Y-99753260D01*
X86752064Y-99817335D01*
X86888105Y-99844395D01*
X87107210Y-100063501D01*
X87107210Y-103154673D01*
X87083718Y-103150000D01*
X86916282Y-103150000D01*
X86752064Y-103182665D01*
X86597374Y-103246740D01*
X86458156Y-103339762D01*
X86339762Y-103458156D01*
X86246740Y-103597374D01*
X86182665Y-103752064D01*
X86150000Y-103916282D01*
X86150000Y-104083718D01*
X86182665Y-104247936D01*
X86246740Y-104402626D01*
X86339762Y-104541844D01*
X86458156Y-104660238D01*
X86597374Y-104753260D01*
X86752064Y-104817335D01*
X86802401Y-104827348D01*
X86802402Y-106172652D01*
X86752064Y-106182665D01*
X86597374Y-106246740D01*
X86482045Y-106323800D01*
X78113207Y-106323800D01*
X78079999Y-106320529D01*
X78046791Y-106323800D01*
X78046789Y-106323800D01*
X77947442Y-106333585D01*
X77819978Y-106372251D01*
X77772037Y-106397876D01*
X77702505Y-106435041D01*
X77633479Y-106491689D01*
X77599541Y-106519541D01*
X77578371Y-106545337D01*
X74513582Y-109610127D01*
X74502949Y-109605723D01*
X74222813Y-109550000D01*
X73946290Y-109550000D01*
X77320091Y-106176200D01*
X81175122Y-106176200D01*
X81208330Y-106179471D01*
X81241538Y-106176200D01*
X81241541Y-106176200D01*
X81340888Y-106166415D01*
X81468352Y-106127749D01*
X81585824Y-106064959D01*
X81688789Y-105980459D01*
X81709968Y-105954652D01*
X82933259Y-104731362D01*
X82959060Y-104710188D01*
X83043560Y-104607223D01*
X83106350Y-104489751D01*
X83145016Y-104362287D01*
X83154801Y-104262940D01*
X83154801Y-104262938D01*
X83158072Y-104229730D01*
X83154801Y-104196522D01*
X83154801Y-99511808D01*
X83158072Y-99478600D01*
X83154801Y-99445390D01*
X83145016Y-99346043D01*
X83106350Y-99218579D01*
X83043560Y-99101107D01*
X82959059Y-98998142D01*
X82933263Y-98976972D01*
X82844395Y-98888104D01*
X82817335Y-98752064D01*
X82753260Y-98597374D01*
X82660238Y-98458156D01*
X82541844Y-98339762D01*
X82402626Y-98246740D01*
X82247936Y-98182665D01*
X82083718Y-98150000D01*
X81916282Y-98150000D01*
X81752064Y-98182665D01*
X81597374Y-98246740D01*
X81458156Y-98339762D01*
X81339762Y-98458156D01*
X81246740Y-98597374D01*
X81182665Y-98752064D01*
X81150000Y-98916282D01*
X81150000Y-99083718D01*
X81182665Y-99247936D01*
X81246740Y-99402626D01*
X81339762Y-99541844D01*
X81458156Y-99660238D01*
X81597374Y-99753260D01*
X81752064Y-99817335D01*
X81802401Y-99827348D01*
X81802402Y-103172652D01*
X81752064Y-103182665D01*
X81597374Y-103246740D01*
X81482045Y-103323800D01*
X76033208Y-103323800D01*
X76000000Y-103320529D01*
X75966792Y-103323800D01*
X75966789Y-103323800D01*
X75867442Y-103333585D01*
X75739978Y-103372251D01*
X75622506Y-103435041D01*
X75519541Y-103519541D01*
X75498367Y-103545342D01*
X69496613Y-109547097D01*
X68150000Y-109547097D01*
X68032379Y-109558682D01*
X67919279Y-109592990D01*
X67815045Y-109648704D01*
X67723683Y-109723683D01*
X67648704Y-109815045D01*
X67592990Y-109919279D01*
X67558682Y-110032379D01*
X67547097Y-110150000D01*
X67547097Y-111850000D01*
X67558682Y-111967621D01*
X67592990Y-112080721D01*
X67648704Y-112184955D01*
X67723683Y-112276317D01*
X67815045Y-112351296D01*
X67919279Y-112407010D01*
X68032379Y-112441318D01*
X68150000Y-112452903D01*
X69850000Y-112452903D01*
X69967621Y-112441318D01*
X70080721Y-112407010D01*
X70184955Y-112351296D01*
X70276317Y-112276317D01*
X70351296Y-112184955D01*
X70407010Y-112080721D01*
X70441318Y-111967621D01*
X70442725Y-111953335D01*
X70615679Y-112126289D01*
X70853167Y-112284973D01*
X71117051Y-112394277D01*
X71397187Y-112450000D01*
X71682813Y-112450000D01*
X71962949Y-112394277D01*
X72226833Y-112284973D01*
X72464321Y-112126289D01*
X72666289Y-111924321D01*
X72810000Y-111709242D01*
X72953711Y-111924321D01*
X73155679Y-112126289D01*
X73393167Y-112284973D01*
X73657051Y-112394277D01*
X73937187Y-112450000D01*
X74222813Y-112450000D01*
X74502949Y-112394277D01*
X74766833Y-112284973D01*
X75004321Y-112126289D01*
X75206289Y-111924321D01*
X75350000Y-111709242D01*
X75493711Y-111924321D01*
X75695679Y-112126289D01*
X75933167Y-112284973D01*
X76197051Y-112394277D01*
X76477187Y-112450000D01*
X76762813Y-112450000D01*
X77042949Y-112394277D01*
X77306833Y-112284973D01*
X77544321Y-112126289D01*
X77746289Y-111924321D01*
X77890000Y-111709242D01*
X78033711Y-111924321D01*
X78235679Y-112126289D01*
X78473167Y-112284973D01*
X78737051Y-112394277D01*
X79017187Y-112450000D01*
X79302813Y-112450000D01*
X79582949Y-112394277D01*
X79846833Y-112284973D01*
X80084321Y-112126289D01*
X80286289Y-111924321D01*
X80430000Y-111709242D01*
X80573711Y-111924321D01*
X80775679Y-112126289D01*
X81013167Y-112284973D01*
X81277051Y-112394277D01*
X81557187Y-112450000D01*
X81842813Y-112450000D01*
X82122949Y-112394277D01*
X82386833Y-112284973D01*
X82624321Y-112126289D01*
X82826289Y-111924321D01*
X82970000Y-111709242D01*
X83113711Y-111924321D01*
X83315679Y-112126289D01*
X83553167Y-112284973D01*
X83817051Y-112394277D01*
X84097187Y-112450000D01*
X84382813Y-112450000D01*
X84662949Y-112394277D01*
X84926833Y-112284973D01*
X85164321Y-112126289D01*
X85366289Y-111924321D01*
X85510000Y-111709242D01*
X85653711Y-111924321D01*
X85855679Y-112126289D01*
X86093167Y-112284973D01*
X86357051Y-112394277D01*
X86637187Y-112450000D01*
X86922813Y-112450000D01*
X87202949Y-112394277D01*
X87466833Y-112284973D01*
X87704321Y-112126289D01*
X87906289Y-111924321D01*
X88050000Y-111709242D01*
X88193711Y-111924321D01*
X88395679Y-112126289D01*
X88633167Y-112284973D01*
X88897051Y-112394277D01*
X89177187Y-112450000D01*
X89462813Y-112450000D01*
X89742949Y-112394277D01*
X90006833Y-112284973D01*
X90244321Y-112126289D01*
X90446289Y-111924321D01*
X90590000Y-111709242D01*
X90733711Y-111924321D01*
X90935679Y-112126289D01*
X91173167Y-112284973D01*
X91437051Y-112394277D01*
X91717187Y-112450000D01*
X92002813Y-112450000D01*
X92282949Y-112394277D01*
X92546833Y-112284973D01*
X92784321Y-112126289D01*
X92986289Y-111924321D01*
X93130000Y-111709242D01*
X93273711Y-111924321D01*
X93475679Y-112126289D01*
X93713167Y-112284973D01*
X93773000Y-112309757D01*
X93773000Y-112464292D01*
X93769483Y-112500000D01*
X93773000Y-112535707D01*
X93773000Y-112690243D01*
X93713167Y-112715027D01*
X93475679Y-112873711D01*
X93273711Y-113075679D01*
X93130000Y-113290758D01*
X92986289Y-113075679D01*
X92784321Y-112873711D01*
X92546833Y-112715027D01*
X92282949Y-112605723D01*
X92002813Y-112550000D01*
X91717187Y-112550000D01*
X91437051Y-112605723D01*
X91173167Y-112715027D01*
X90935679Y-112873711D01*
X90733711Y-113075679D01*
X90590000Y-113290758D01*
X90446289Y-113075679D01*
X90244321Y-112873711D01*
X90006833Y-112715027D01*
X89742949Y-112605723D01*
X89462813Y-112550000D01*
X89177187Y-112550000D01*
X88897051Y-112605723D01*
X88633167Y-112715027D01*
X88395679Y-112873711D01*
X88193711Y-113075679D01*
X88050000Y-113290758D01*
X87906289Y-113075679D01*
X87704321Y-112873711D01*
X87466833Y-112715027D01*
X87202949Y-112605723D01*
X86922813Y-112550000D01*
X86637187Y-112550000D01*
X86357051Y-112605723D01*
X86093167Y-112715027D01*
X85855679Y-112873711D01*
X85653711Y-113075679D01*
X85510000Y-113290758D01*
X85366289Y-113075679D01*
X85164321Y-112873711D01*
X84926833Y-112715027D01*
X84662949Y-112605723D01*
X84382813Y-112550000D01*
X84097187Y-112550000D01*
X83817051Y-112605723D01*
X83553167Y-112715027D01*
X83315679Y-112873711D01*
X83113711Y-113075679D01*
X82970000Y-113290758D01*
X82826289Y-113075679D01*
X82624321Y-112873711D01*
X82386833Y-112715027D01*
X82122949Y-112605723D01*
X81842813Y-112550000D01*
X81557187Y-112550000D01*
X81277051Y-112605723D01*
X81013167Y-112715027D01*
X80775679Y-112873711D01*
X80573711Y-113075679D01*
X80430000Y-113290758D01*
X80286289Y-113075679D01*
X80084321Y-112873711D01*
X79846833Y-112715027D01*
X79582949Y-112605723D01*
X79302813Y-112550000D01*
X79017187Y-112550000D01*
X78737051Y-112605723D01*
X78473167Y-112715027D01*
X78235679Y-112873711D01*
X78033711Y-113075679D01*
X77890000Y-113290758D01*
X77746289Y-113075679D01*
X77544321Y-112873711D01*
X77306833Y-112715027D01*
X77042949Y-112605723D01*
X76762813Y-112550000D01*
X76477187Y-112550000D01*
X76197051Y-112605723D01*
X75933167Y-112715027D01*
X75695679Y-112873711D01*
X75493711Y-113075679D01*
X75350000Y-113290758D01*
X75206289Y-113075679D01*
X75004321Y-112873711D01*
X74766833Y-112715027D01*
X74502949Y-112605723D01*
X74222813Y-112550000D01*
X73937187Y-112550000D01*
X73657051Y-112605723D01*
X73393167Y-112715027D01*
X73155679Y-112873711D01*
X72953711Y-113075679D01*
X72810000Y-113290758D01*
X72666289Y-113075679D01*
X72464321Y-112873711D01*
X72226833Y-112715027D01*
X71962949Y-112605723D01*
X71682813Y-112550000D01*
X71397187Y-112550000D01*
X71117051Y-112605723D01*
X70853167Y-112715027D01*
X70615679Y-112873711D01*
X70442725Y-113046665D01*
X70441318Y-113032379D01*
X70407010Y-112919279D01*
X70351296Y-112815045D01*
X70276317Y-112723683D01*
X70184955Y-112648704D01*
X70080721Y-112592990D01*
X69967621Y-112558682D01*
X69850000Y-112547097D01*
X68150000Y-112547097D01*
X68032379Y-112558682D01*
X67919279Y-112592990D01*
X67815045Y-112648704D01*
X67723683Y-112723683D01*
X67648704Y-112815045D01*
X67592990Y-112919279D01*
X67558682Y-113032379D01*
X67547097Y-113150000D01*
X67547097Y-114850000D01*
X67558682Y-114967621D01*
X67592990Y-115080721D01*
X67648704Y-115184955D01*
X67723683Y-115276317D01*
X67815045Y-115351296D01*
X67859392Y-115375000D01*
X63030566Y-115375000D01*
X62539276Y-115326828D01*
X62096098Y-115193025D01*
X61687353Y-114975691D01*
X61328605Y-114683103D01*
X61033521Y-114326409D01*
X60813339Y-113919189D01*
X60676444Y-113476956D01*
X60625000Y-112987497D01*
X60625000Y-112789753D01*
X60865329Y-112789753D01*
X60865329Y-113210247D01*
X60947363Y-113622661D01*
X61108279Y-114011146D01*
X61341893Y-114360774D01*
X61639226Y-114658107D01*
X61988854Y-114891721D01*
X62377339Y-115052637D01*
X62789753Y-115134671D01*
X63210247Y-115134671D01*
X63622661Y-115052637D01*
X64011146Y-114891721D01*
X64360774Y-114658107D01*
X64658107Y-114360774D01*
X64891721Y-114011146D01*
X65052637Y-113622661D01*
X65134671Y-113210247D01*
X65134671Y-112789753D01*
X65052637Y-112377339D01*
X64891721Y-111988854D01*
X64658107Y-111639226D01*
X64360774Y-111341893D01*
X64011146Y-111108279D01*
X63622661Y-110947363D01*
X63210247Y-110865329D01*
X62789753Y-110865329D01*
X62377339Y-110947363D01*
X61988854Y-111108279D01*
X61639226Y-111341893D01*
X61341893Y-111639226D01*
X61108279Y-111988854D01*
X60947363Y-112377339D01*
X60865329Y-112789753D01*
X60625000Y-112789753D01*
X60625000Y-104916282D01*
X67150000Y-104916282D01*
X67150000Y-105083718D01*
X67182665Y-105247936D01*
X67246740Y-105402626D01*
X67339762Y-105541844D01*
X67458156Y-105660238D01*
X67597374Y-105753260D01*
X67752064Y-105817335D01*
X67916282Y-105850000D01*
X68083718Y-105850000D01*
X68247936Y-105817335D01*
X68402626Y-105753260D01*
X68541844Y-105660238D01*
X68660238Y-105541844D01*
X68753260Y-105402626D01*
X68817335Y-105247936D01*
X68844395Y-105111895D01*
X69611897Y-104344395D01*
X69747936Y-104317335D01*
X69902626Y-104253260D01*
X70041844Y-104160238D01*
X70150000Y-104052082D01*
X70150000Y-104083718D01*
X70182665Y-104247936D01*
X70246740Y-104402626D01*
X70339762Y-104541844D01*
X70458156Y-104660238D01*
X70597374Y-104753260D01*
X70752064Y-104817335D01*
X70888104Y-104844395D01*
X70998366Y-104954657D01*
X71019541Y-104980459D01*
X71094340Y-105041844D01*
X71122506Y-105064959D01*
X71239977Y-105127749D01*
X71367442Y-105166415D01*
X71500000Y-105179471D01*
X71533210Y-105176200D01*
X72482045Y-105176200D01*
X72597374Y-105253260D01*
X72752064Y-105317335D01*
X72916282Y-105350000D01*
X73083718Y-105350000D01*
X73247936Y-105317335D01*
X73402626Y-105253260D01*
X73541844Y-105160238D01*
X73660238Y-105041844D01*
X73753260Y-104902626D01*
X73817335Y-104747936D01*
X73850000Y-104583718D01*
X73850000Y-104416282D01*
X73817335Y-104252064D01*
X73753260Y-104097374D01*
X73660238Y-103958156D01*
X73541844Y-103839762D01*
X73402626Y-103746740D01*
X73247936Y-103682665D01*
X73083718Y-103650000D01*
X72916282Y-103650000D01*
X72752064Y-103682665D01*
X72597374Y-103746740D01*
X72482045Y-103823800D01*
X71831604Y-103823800D01*
X71817335Y-103752064D01*
X71753260Y-103597374D01*
X71660238Y-103458156D01*
X71541844Y-103339762D01*
X71402626Y-103246740D01*
X71247936Y-103182665D01*
X71083718Y-103150000D01*
X70916282Y-103150000D01*
X70752064Y-103182665D01*
X70597374Y-103246740D01*
X70458156Y-103339762D01*
X70350000Y-103447918D01*
X70350000Y-103416282D01*
X70317335Y-103252064D01*
X70253260Y-103097374D01*
X70160238Y-102958156D01*
X70041844Y-102839762D01*
X69902626Y-102746740D01*
X69747936Y-102682665D01*
X69583718Y-102650000D01*
X69416282Y-102650000D01*
X69252064Y-102682665D01*
X69097374Y-102746740D01*
X68958156Y-102839762D01*
X68839762Y-102958156D01*
X68746740Y-103097374D01*
X68682665Y-103252064D01*
X68655605Y-103388103D01*
X67888105Y-104155605D01*
X67752064Y-104182665D01*
X67597374Y-104246740D01*
X67458156Y-104339762D01*
X67339762Y-104458156D01*
X67246740Y-104597374D01*
X67182665Y-104752064D01*
X67150000Y-104916282D01*
X60625000Y-104916282D01*
X60625000Y-94916282D01*
X129150000Y-94916282D01*
X129150000Y-95083718D01*
X129182665Y-95247936D01*
X129246740Y-95402626D01*
X129323800Y-95517955D01*
X129323801Y-96966782D01*
X129320529Y-97000000D01*
X129333586Y-97132557D01*
X129372252Y-97260022D01*
X129429670Y-97367443D01*
X129435042Y-97377494D01*
X129519542Y-97480459D01*
X129545343Y-97501633D01*
X132155605Y-100111896D01*
X132182665Y-100247936D01*
X132246740Y-100402626D01*
X132339762Y-100541844D01*
X132458156Y-100660238D01*
X132597374Y-100753260D01*
X132752064Y-100817335D01*
X132916282Y-100850000D01*
X133083718Y-100850000D01*
X133247936Y-100817335D01*
X133402626Y-100753260D01*
X133541844Y-100660238D01*
X133660238Y-100541844D01*
X133753260Y-100402626D01*
X133817335Y-100247936D01*
X133850000Y-100083718D01*
X133850000Y-99916282D01*
X133817335Y-99752064D01*
X133753260Y-99597374D01*
X133660238Y-99458156D01*
X133541844Y-99339762D01*
X133402626Y-99246740D01*
X133247936Y-99182665D01*
X133111896Y-99155605D01*
X130676200Y-96719910D01*
X130676200Y-95517955D01*
X130753260Y-95402626D01*
X130817335Y-95247936D01*
X130850000Y-95083718D01*
X130850000Y-94916282D01*
X130817335Y-94752064D01*
X130753260Y-94597374D01*
X130660238Y-94458156D01*
X130618364Y-94416282D01*
X137150000Y-94416282D01*
X137150000Y-94583718D01*
X137182665Y-94747936D01*
X137246740Y-94902626D01*
X137339762Y-95041844D01*
X137458156Y-95160238D01*
X137597374Y-95253260D01*
X137752064Y-95317335D01*
X137916282Y-95350000D01*
X138083718Y-95350000D01*
X138247936Y-95317335D01*
X138402626Y-95253260D01*
X138517955Y-95176200D01*
X142168396Y-95176200D01*
X142182665Y-95247936D01*
X142246740Y-95402626D01*
X142339762Y-95541844D01*
X142458156Y-95660238D01*
X142597374Y-95753260D01*
X142752064Y-95817335D01*
X142916282Y-95850000D01*
X143083718Y-95850000D01*
X143247936Y-95817335D01*
X143402626Y-95753260D01*
X143541844Y-95660238D01*
X143660238Y-95541844D01*
X143753260Y-95402626D01*
X143817335Y-95247936D01*
X143850000Y-95083718D01*
X143850000Y-94916282D01*
X143817335Y-94752064D01*
X143785911Y-94676200D01*
X146719910Y-94676200D01*
X147155605Y-95111895D01*
X147182665Y-95247936D01*
X147246740Y-95402626D01*
X147339762Y-95541844D01*
X147458156Y-95660238D01*
X147597374Y-95753260D01*
X147752064Y-95817335D01*
X147916282Y-95850000D01*
X148083718Y-95850000D01*
X148247936Y-95817335D01*
X148402626Y-95753260D01*
X148541844Y-95660238D01*
X148660238Y-95541844D01*
X148753260Y-95402626D01*
X148817335Y-95247936D01*
X148850000Y-95083718D01*
X148850000Y-94916282D01*
X148817335Y-94752064D01*
X148753260Y-94597374D01*
X148660238Y-94458156D01*
X148541844Y-94339762D01*
X148402626Y-94246740D01*
X148247936Y-94182665D01*
X148111895Y-94155605D01*
X147501638Y-93545348D01*
X147480459Y-93519541D01*
X147377494Y-93435041D01*
X147260022Y-93372251D01*
X147132558Y-93333585D01*
X147033211Y-93323800D01*
X147033208Y-93323800D01*
X147000000Y-93320529D01*
X146966792Y-93323800D01*
X141517955Y-93323800D01*
X141402626Y-93246740D01*
X141247936Y-93182665D01*
X141083718Y-93150000D01*
X140916282Y-93150000D01*
X140752064Y-93182665D01*
X140597374Y-93246740D01*
X140458156Y-93339762D01*
X140339762Y-93458156D01*
X140246740Y-93597374D01*
X140182665Y-93752064D01*
X140168396Y-93823800D01*
X138517955Y-93823800D01*
X138402626Y-93746740D01*
X138247936Y-93682665D01*
X138083718Y-93650000D01*
X137916282Y-93650000D01*
X137752064Y-93682665D01*
X137597374Y-93746740D01*
X137458156Y-93839762D01*
X137339762Y-93958156D01*
X137246740Y-94097374D01*
X137182665Y-94252064D01*
X137150000Y-94416282D01*
X130618364Y-94416282D01*
X130541844Y-94339762D01*
X130402626Y-94246740D01*
X130247936Y-94182665D01*
X130083718Y-94150000D01*
X129916282Y-94150000D01*
X129752064Y-94182665D01*
X129597374Y-94246740D01*
X129458156Y-94339762D01*
X129339762Y-94458156D01*
X129246740Y-94597374D01*
X129182665Y-94752064D01*
X129150000Y-94916282D01*
X60625000Y-94916282D01*
X60625000Y-78030567D01*
X60648612Y-77789753D01*
X60865329Y-77789753D01*
X60865329Y-78210247D01*
X60947363Y-78622661D01*
X61108279Y-79011146D01*
X61341893Y-79360774D01*
X61639226Y-79658107D01*
X61988854Y-79891721D01*
X62377339Y-80052637D01*
X62789753Y-80134671D01*
X63210247Y-80134671D01*
X63622661Y-80052637D01*
X64011146Y-79891721D01*
X64360774Y-79658107D01*
X64658107Y-79360774D01*
X64891721Y-79011146D01*
X65052637Y-78622661D01*
X65134671Y-78210247D01*
X65134671Y-77789753D01*
X65052637Y-77377339D01*
X64891721Y-76988854D01*
X64658107Y-76639226D01*
X64360774Y-76341893D01*
X64011146Y-76108279D01*
X63622661Y-75947363D01*
X63210247Y-75865329D01*
X62789753Y-75865329D01*
X62377339Y-75947363D01*
X61988854Y-76108279D01*
X61639226Y-76341893D01*
X61341893Y-76639226D01*
X61108279Y-76988854D01*
X60947363Y-77377339D01*
X60865329Y-77789753D01*
X60648612Y-77789753D01*
X60673172Y-77539278D01*
X60806975Y-77096100D01*
X61024309Y-76687353D01*
X61316894Y-76328607D01*
X61673593Y-76033520D01*
X62080811Y-75813339D01*
X62523046Y-75676444D01*
X63012503Y-75625000D01*
X73859392Y-75625000D01*
X73815045Y-75648704D01*
G37*
X73815045Y-75648704D02*
X73723683Y-75723683D01*
X73648704Y-75815045D01*
X73592990Y-75919279D01*
X73558682Y-76032379D01*
X73547097Y-76150000D01*
X73547097Y-77850000D01*
X73558682Y-77967621D01*
X73592990Y-78080721D01*
X73648704Y-78184955D01*
X73723683Y-78276317D01*
X73815045Y-78351296D01*
X73919279Y-78407010D01*
X74032379Y-78441318D01*
X74150000Y-78452903D01*
X74323801Y-78452903D01*
X74323800Y-81900000D01*
X74166282Y-81900000D01*
X74002064Y-81932665D01*
X73847374Y-81996740D01*
X73708156Y-82089762D01*
X73589762Y-82208156D01*
X73496740Y-82347374D01*
X73432665Y-82502064D01*
X73405605Y-82638104D01*
X72249310Y-83794400D01*
X70517955Y-83794400D01*
X70402626Y-83717340D01*
X70247936Y-83653265D01*
X70083718Y-83620600D01*
X69916282Y-83620600D01*
X69752064Y-83653265D01*
X69597374Y-83717340D01*
X69458156Y-83810362D01*
X69339762Y-83928756D01*
X69246740Y-84067974D01*
X69182665Y-84222664D01*
X69172653Y-84273000D01*
X67941927Y-84273000D01*
X67902626Y-84246740D01*
X67747936Y-84182665D01*
X67583718Y-84150000D01*
X67416282Y-84150000D01*
X67252064Y-84182665D01*
X67097374Y-84246740D01*
X66958156Y-84339762D01*
X66839762Y-84458156D01*
X66746740Y-84597374D01*
X66682665Y-84752064D01*
X66650000Y-84916282D01*
X66650000Y-85083718D01*
X66682665Y-85247936D01*
X66746740Y-85402626D01*
X66839762Y-85541844D01*
X66958156Y-85660238D01*
X67097374Y-85753260D01*
X67252064Y-85817335D01*
X67416282Y-85850000D01*
X67583718Y-85850000D01*
X67747936Y-85817335D01*
X67902626Y-85753260D01*
X67941927Y-85727000D01*
X74558073Y-85727000D01*
X74597374Y-85753260D01*
X74752064Y-85817335D01*
X74916282Y-85850000D01*
X75083718Y-85850000D01*
X75247936Y-85817335D01*
X75402626Y-85753260D01*
X75441927Y-85727000D01*
X79058073Y-85727000D01*
X79097374Y-85753260D01*
X79252064Y-85817335D01*
X79416282Y-85850000D01*
X79583718Y-85850000D01*
X79747936Y-85817335D01*
X79902626Y-85753260D01*
X79941927Y-85727000D01*
X86558073Y-85727000D01*
X86597374Y-85753260D01*
X86752064Y-85817335D01*
X86916282Y-85850000D01*
X87083718Y-85850000D01*
X87247936Y-85817335D01*
X87402626Y-85753260D01*
X87441927Y-85727000D01*
X91058073Y-85727000D01*
X91097374Y-85753260D01*
X91252064Y-85817335D01*
X91416282Y-85850000D01*
X91583718Y-85850000D01*
X91747936Y-85817335D01*
X91902626Y-85753260D01*
X91941927Y-85727000D01*
X98558073Y-85727000D01*
X98597374Y-85753260D01*
X98752064Y-85817335D01*
X98916282Y-85850000D01*
X99083718Y-85850000D01*
X99247936Y-85817335D01*
X99402626Y-85753260D01*
X99441927Y-85727000D01*
X103058073Y-85727000D01*
X103097374Y-85753260D01*
X103252064Y-85817335D01*
X103416282Y-85850000D01*
X103583718Y-85850000D01*
X103747936Y-85817335D01*
X103902626Y-85753260D01*
X103941927Y-85727000D01*
X110558073Y-85727000D01*
X110597374Y-85753260D01*
X110752064Y-85817335D01*
X110916282Y-85850000D01*
X111083718Y-85850000D01*
X111247936Y-85817335D01*
X111402626Y-85753260D01*
X111441927Y-85727000D01*
X115058073Y-85727000D01*
X115097374Y-85753260D01*
X115252064Y-85817335D01*
X115416282Y-85850000D01*
X115583718Y-85850000D01*
X115747936Y-85817335D01*
X115902626Y-85753260D01*
X115941927Y-85727000D01*
X122558073Y-85727000D01*
X122597374Y-85753260D01*
X122752064Y-85817335D01*
X122916282Y-85850000D01*
X123083718Y-85850000D01*
X123247936Y-85817335D01*
X123402626Y-85753260D01*
X123441927Y-85727000D01*
X127058073Y-85727000D01*
X127097374Y-85753260D01*
X127252064Y-85817335D01*
X127416282Y-85850000D01*
X127583718Y-85850000D01*
X127747936Y-85817335D01*
X127902626Y-85753260D01*
X127941927Y-85727000D01*
X134558073Y-85727000D01*
X134597374Y-85753260D01*
X134752064Y-85817335D01*
X134916282Y-85850000D01*
X135083718Y-85850000D01*
X135247936Y-85817335D01*
X135402626Y-85753260D01*
X135441927Y-85727000D01*
X139058073Y-85727000D01*
X139097374Y-85753260D01*
X139252064Y-85817335D01*
X139416282Y-85850000D01*
X139583718Y-85850000D01*
X139747936Y-85817335D01*
X139902626Y-85753260D01*
X139941927Y-85727000D01*
X146558073Y-85727000D01*
X146597374Y-85753260D01*
X146752064Y-85817335D01*
X146916282Y-85850000D01*
X147083718Y-85850000D01*
X147247936Y-85817335D01*
X147402626Y-85753260D01*
X147441927Y-85727000D01*
X151058073Y-85727000D01*
X151097374Y-85753260D01*
X151252064Y-85817335D01*
X151416282Y-85850000D01*
X151583718Y-85850000D01*
X151747936Y-85817335D01*
X151902626Y-85753260D01*
X151941927Y-85727000D01*
X158558073Y-85727000D01*
X158597374Y-85753260D01*
X158752064Y-85817335D01*
X158916282Y-85850000D01*
X159083718Y-85850000D01*
X159247936Y-85817335D01*
X159402626Y-85753260D01*
X159441927Y-85727000D01*
X164298868Y-85727000D01*
X173060679Y-94488812D01*
X173083446Y-94516554D01*
X173194147Y-94607403D01*
X173292994Y-94660238D01*
X173320443Y-94674910D01*
X173457482Y-94716480D01*
X173599999Y-94730517D01*
X173635707Y-94727000D01*
X188258073Y-94727000D01*
X188297374Y-94753260D01*
X188452064Y-94817335D01*
X188616282Y-94850000D01*
X188783718Y-94850000D01*
X188947936Y-94817335D01*
X189102626Y-94753260D01*
X189241844Y-94660238D01*
X189360238Y-94541844D01*
X189453260Y-94402626D01*
X189517335Y-94247936D01*
X189550000Y-94083718D01*
X189550000Y-93916282D01*
X189517335Y-93752064D01*
X189453260Y-93597374D01*
X189360238Y-93458156D01*
X189241844Y-93339762D01*
X189102626Y-93246740D01*
X188947936Y-93182665D01*
X188783718Y-93150000D01*
X188616282Y-93150000D01*
X188452064Y-93182665D01*
X188297374Y-93246740D01*
X188258073Y-93273000D01*
X173901133Y-93273000D01*
X170028133Y-89400000D01*
X175797097Y-89400000D01*
X175797097Y-92600000D01*
X175808682Y-92717621D01*
X175842990Y-92830721D01*
X175898704Y-92934955D01*
X175973683Y-93026317D01*
X176065045Y-93101296D01*
X176169279Y-93157010D01*
X176282379Y-93191318D01*
X176400000Y-93202903D01*
X179600000Y-93202903D01*
X179717621Y-93191318D01*
X179830721Y-93157010D01*
X179934955Y-93101296D01*
X180026317Y-93026317D01*
X180101296Y-92934955D01*
X180157010Y-92830721D01*
X180191318Y-92717621D01*
X180202903Y-92600000D01*
X180202903Y-89400000D01*
X180191318Y-89282379D01*
X180157010Y-89169279D01*
X180101296Y-89065045D01*
X180047915Y-89000000D01*
X181394678Y-89000000D01*
X181415917Y-89215637D01*
X181478817Y-89422988D01*
X181580958Y-89614084D01*
X181718420Y-89781580D01*
X181885916Y-89919042D01*
X182077012Y-90021183D01*
X182284363Y-90084083D01*
X182500000Y-90105322D01*
X182715637Y-90084083D01*
X182922988Y-90021183D01*
X183114084Y-89919042D01*
X183239608Y-89816026D01*
X185455635Y-87600000D01*
X197554036Y-87600000D01*
X197715638Y-87584084D01*
X197922988Y-87521184D01*
X198114084Y-87419042D01*
X198281581Y-87281581D01*
X198419042Y-87114084D01*
X198521184Y-86922988D01*
X198584084Y-86715638D01*
X198605322Y-86500000D01*
X198584084Y-86284362D01*
X198521184Y-86077012D01*
X198419042Y-85885916D01*
X198281581Y-85718419D01*
X198114084Y-85580958D01*
X197922988Y-85478816D01*
X197715638Y-85415916D01*
X197554036Y-85400000D01*
X185054034Y-85400000D01*
X185000000Y-85394678D01*
X184945966Y-85400000D01*
X184945964Y-85400000D01*
X184784362Y-85415916D01*
X184577012Y-85478816D01*
X184385916Y-85580958D01*
X184218419Y-85718419D01*
X184183971Y-85760394D01*
X181683974Y-88260392D01*
X181580958Y-88385916D01*
X181478817Y-88577012D01*
X181415917Y-88784363D01*
X181394678Y-89000000D01*
X180047915Y-89000000D01*
X180026317Y-88973683D01*
X179934955Y-88898704D01*
X179830721Y-88842990D01*
X179717621Y-88808682D01*
X179600000Y-88797097D01*
X176400000Y-88797097D01*
X176282379Y-88808682D01*
X176169279Y-88842990D01*
X176065045Y-88898704D01*
X175973683Y-88973683D01*
X175898704Y-89065045D01*
X175842990Y-89169279D01*
X175808682Y-89282379D01*
X175797097Y-89400000D01*
X170028133Y-89400000D01*
X165139326Y-84511194D01*
X165116554Y-84483446D01*
X165005853Y-84392597D01*
X164879557Y-84325090D01*
X164742517Y-84283520D01*
X164635708Y-84273000D01*
X164600000Y-84269483D01*
X164564292Y-84273000D01*
X159441927Y-84273000D01*
X159402626Y-84246740D01*
X159247936Y-84182665D01*
X159083718Y-84150000D01*
X158916282Y-84150000D01*
X158752064Y-84182665D01*
X158597374Y-84246740D01*
X158558073Y-84273000D01*
X151941927Y-84273000D01*
X151902626Y-84246740D01*
X151747936Y-84182665D01*
X151583718Y-84150000D01*
X151416282Y-84150000D01*
X151252064Y-84182665D01*
X151097374Y-84246740D01*
X151058073Y-84273000D01*
X147441927Y-84273000D01*
X147402626Y-84246740D01*
X147247936Y-84182665D01*
X147083718Y-84150000D01*
X146916282Y-84150000D01*
X146752064Y-84182665D01*
X146597374Y-84246740D01*
X146558073Y-84273000D01*
X139941927Y-84273000D01*
X139902626Y-84246740D01*
X139747936Y-84182665D01*
X139583718Y-84150000D01*
X139416282Y-84150000D01*
X139252064Y-84182665D01*
X139097374Y-84246740D01*
X139058073Y-84273000D01*
X135441927Y-84273000D01*
X135402626Y-84246740D01*
X135247936Y-84182665D01*
X135083718Y-84150000D01*
X134916282Y-84150000D01*
X134752064Y-84182665D01*
X134597374Y-84246740D01*
X134558073Y-84273000D01*
X127941927Y-84273000D01*
X127902626Y-84246740D01*
X127747936Y-84182665D01*
X127583718Y-84150000D01*
X127416282Y-84150000D01*
X127252064Y-84182665D01*
X127097374Y-84246740D01*
X127058073Y-84273000D01*
X123441927Y-84273000D01*
X123402626Y-84246740D01*
X123247936Y-84182665D01*
X123083718Y-84150000D01*
X122916282Y-84150000D01*
X122752064Y-84182665D01*
X122597374Y-84246740D01*
X122558073Y-84273000D01*
X115941927Y-84273000D01*
X115902626Y-84246740D01*
X115747936Y-84182665D01*
X115583718Y-84150000D01*
X115416282Y-84150000D01*
X115252064Y-84182665D01*
X115097374Y-84246740D01*
X115058073Y-84273000D01*
X111441927Y-84273000D01*
X111402626Y-84246740D01*
X111247936Y-84182665D01*
X111083718Y-84150000D01*
X110916282Y-84150000D01*
X110752064Y-84182665D01*
X110597374Y-84246740D01*
X110558073Y-84273000D01*
X103941927Y-84273000D01*
X103902626Y-84246740D01*
X103747936Y-84182665D01*
X103583718Y-84150000D01*
X103416282Y-84150000D01*
X103252064Y-84182665D01*
X103097374Y-84246740D01*
X103058073Y-84273000D01*
X99441927Y-84273000D01*
X99402626Y-84246740D01*
X99247936Y-84182665D01*
X99083718Y-84150000D01*
X98916282Y-84150000D01*
X98752064Y-84182665D01*
X98597374Y-84246740D01*
X98558073Y-84273000D01*
X91941927Y-84273000D01*
X91902626Y-84246740D01*
X91747936Y-84182665D01*
X91583718Y-84150000D01*
X91416282Y-84150000D01*
X91252064Y-84182665D01*
X91097374Y-84246740D01*
X91058073Y-84273000D01*
X87441927Y-84273000D01*
X87402626Y-84246740D01*
X87247936Y-84182665D01*
X87083718Y-84150000D01*
X86916282Y-84150000D01*
X86752064Y-84182665D01*
X86676200Y-84214089D01*
X86676200Y-82517955D01*
X86753260Y-82402626D01*
X86817335Y-82247936D01*
X86850000Y-82083718D01*
X86850000Y-81916282D01*
X86817335Y-81752064D01*
X86753260Y-81597374D01*
X86660238Y-81458156D01*
X86618364Y-81416282D01*
X95150000Y-81416282D01*
X95150000Y-81583718D01*
X95182665Y-81747936D01*
X95246740Y-81902626D01*
X95339762Y-82041844D01*
X95458156Y-82160238D01*
X95597374Y-82253260D01*
X95752064Y-82317335D01*
X95916282Y-82350000D01*
X96083718Y-82350000D01*
X96247936Y-82317335D01*
X96402626Y-82253260D01*
X96517955Y-82176200D01*
X101547097Y-82176200D01*
X101547097Y-82390000D01*
X101558682Y-82507621D01*
X101592990Y-82620721D01*
X101648704Y-82724955D01*
X101723683Y-82816317D01*
X101815045Y-82891296D01*
X101919279Y-82947010D01*
X102032379Y-82981318D01*
X102150000Y-82992903D01*
X103850000Y-82992903D01*
X103967621Y-82981318D01*
X104080721Y-82947010D01*
X104184955Y-82891296D01*
X104276317Y-82816317D01*
X104351296Y-82724955D01*
X104407010Y-82620721D01*
X104441318Y-82507621D01*
X104452903Y-82390000D01*
X104452903Y-81125000D01*
X196447097Y-81125000D01*
X196447097Y-82875000D01*
X196475494Y-83163325D01*
X196559596Y-83440569D01*
X196696169Y-83696079D01*
X196879965Y-83920035D01*
X197103921Y-84103831D01*
X197359431Y-84240404D01*
X197636675Y-84324506D01*
X197925000Y-84352903D01*
X199675000Y-84352903D01*
X199963325Y-84324506D01*
X200240569Y-84240404D01*
X200496079Y-84103831D01*
X200720035Y-83920035D01*
X200903831Y-83696079D01*
X201040404Y-83440569D01*
X201098213Y-83250000D01*
X201147097Y-83250000D01*
X201147097Y-86750000D01*
X201158682Y-86867621D01*
X201192990Y-86980721D01*
X201248704Y-87084955D01*
X201323683Y-87176317D01*
X201415045Y-87251296D01*
X201519279Y-87307010D01*
X201632379Y-87341318D01*
X201750000Y-87352903D01*
X205250000Y-87352903D01*
X205367621Y-87341318D01*
X205480721Y-87307010D01*
X205584955Y-87251296D01*
X205676317Y-87176317D01*
X205751296Y-87084955D01*
X205807010Y-86980721D01*
X205841318Y-86867621D01*
X205852903Y-86750000D01*
X205852903Y-83250000D01*
X205841318Y-83132379D01*
X205807010Y-83019279D01*
X205751296Y-82915045D01*
X205676317Y-82823683D01*
X205584955Y-82748704D01*
X205480721Y-82692990D01*
X205367621Y-82658682D01*
X205250000Y-82647097D01*
X201750000Y-82647097D01*
X201632379Y-82658682D01*
X201519279Y-82692990D01*
X201415045Y-82748704D01*
X201323683Y-82823683D01*
X201248704Y-82915045D01*
X201192990Y-83019279D01*
X201158682Y-83132379D01*
X201147097Y-83250000D01*
X201098213Y-83250000D01*
X201124506Y-83163325D01*
X201152903Y-82875000D01*
X201152903Y-81125000D01*
X201124506Y-80836675D01*
X201040404Y-80559431D01*
X200903831Y-80303921D01*
X200720035Y-80079965D01*
X200496079Y-79896169D01*
X200240569Y-79759596D01*
X199963325Y-79675494D01*
X199675000Y-79647097D01*
X197925000Y-79647097D01*
X197636675Y-79675494D01*
X197359431Y-79759596D01*
X197103921Y-79896169D01*
X196879965Y-80079965D01*
X196696169Y-80303921D01*
X196559596Y-80559431D01*
X196475494Y-80836675D01*
X196447097Y-81125000D01*
X104452903Y-81125000D01*
X104452903Y-80690000D01*
X104441318Y-80572379D01*
X104407010Y-80459279D01*
X104351296Y-80355045D01*
X104276317Y-80263683D01*
X104184955Y-80188704D01*
X104080721Y-80132990D01*
X103967621Y-80098682D01*
X103850000Y-80087097D01*
X102150000Y-80087097D01*
X102032379Y-80098682D01*
X101919279Y-80132990D01*
X101815045Y-80188704D01*
X101723683Y-80263683D01*
X101648704Y-80355045D01*
X101592990Y-80459279D01*
X101558682Y-80572379D01*
X101547097Y-80690000D01*
X101547097Y-80823800D01*
X96517955Y-80823800D01*
X96402626Y-80746740D01*
X96247936Y-80682665D01*
X96083718Y-80650000D01*
X95916282Y-80650000D01*
X95752064Y-80682665D01*
X95597374Y-80746740D01*
X95458156Y-80839762D01*
X95339762Y-80958156D01*
X95246740Y-81097374D01*
X95182665Y-81252064D01*
X95150000Y-81416282D01*
X86618364Y-81416282D01*
X86541844Y-81339762D01*
X86402626Y-81246740D01*
X86247936Y-81182665D01*
X86083718Y-81150000D01*
X85916282Y-81150000D01*
X85752064Y-81182665D01*
X85597374Y-81246740D01*
X85458156Y-81339762D01*
X85339762Y-81458156D01*
X85246740Y-81597374D01*
X85182665Y-81752064D01*
X85150000Y-81916282D01*
X85150000Y-82083718D01*
X85182665Y-82247936D01*
X85246740Y-82402626D01*
X85323800Y-82517955D01*
X85323801Y-84273000D01*
X79941927Y-84273000D01*
X79902626Y-84246740D01*
X79747936Y-84182665D01*
X79583718Y-84150000D01*
X79416282Y-84150000D01*
X79252064Y-84182665D01*
X79097374Y-84246740D01*
X79058073Y-84273000D01*
X75676200Y-84273000D01*
X75676200Y-78452903D01*
X75850000Y-78452903D01*
X75967621Y-78441318D01*
X76080721Y-78407010D01*
X76184955Y-78351296D01*
X76276317Y-78276317D01*
X76351296Y-78184955D01*
X76407010Y-78080721D01*
X76441318Y-77967621D01*
X76442725Y-77953335D01*
X76615679Y-78126289D01*
X76853167Y-78284973D01*
X77117051Y-78394277D01*
X77397187Y-78450000D01*
X77682813Y-78450000D01*
X77962949Y-78394277D01*
X78226833Y-78284973D01*
X78464321Y-78126289D01*
X78666289Y-77924321D01*
X78810000Y-77709242D01*
X78953711Y-77924321D01*
X79155679Y-78126289D01*
X79393167Y-78284973D01*
X79657051Y-78394277D01*
X79937187Y-78450000D01*
X80222813Y-78450000D01*
X80502949Y-78394277D01*
X80766833Y-78284973D01*
X81004321Y-78126289D01*
X81206289Y-77924321D01*
X81350000Y-77709242D01*
X81493711Y-77924321D01*
X81695679Y-78126289D01*
X81933167Y-78284973D01*
X82197051Y-78394277D01*
X82477187Y-78450000D01*
X82762813Y-78450000D01*
X83042949Y-78394277D01*
X83306833Y-78284973D01*
X83544321Y-78126289D01*
X83746289Y-77924321D01*
X83890000Y-77709242D01*
X84033711Y-77924321D01*
X84235679Y-78126289D01*
X84473167Y-78284973D01*
X84737051Y-78394277D01*
X85017187Y-78450000D01*
X85302813Y-78450000D01*
X85582949Y-78394277D01*
X85846833Y-78284973D01*
X86084321Y-78126289D01*
X86286289Y-77924321D01*
X86376204Y-77789753D01*
X167865329Y-77789753D01*
X167865329Y-78210247D01*
X167947363Y-78622661D01*
X168108279Y-79011146D01*
X168341893Y-79360774D01*
X168639226Y-79658107D01*
X168988854Y-79891721D01*
X169377339Y-80052637D01*
X169789753Y-80134671D01*
X170210247Y-80134671D01*
X170622661Y-80052637D01*
X171011146Y-79891721D01*
X171360774Y-79658107D01*
X171658107Y-79360774D01*
X171891721Y-79011146D01*
X172052637Y-78622661D01*
X172134671Y-78210247D01*
X172134671Y-77789753D01*
X234865329Y-77789753D01*
X234865329Y-78210247D01*
X234947363Y-78622661D01*
X235108279Y-79011146D01*
X235341893Y-79360774D01*
X235639226Y-79658107D01*
X235988854Y-79891721D01*
X236377339Y-80052637D01*
X236789753Y-80134671D01*
X237210247Y-80134671D01*
X237622661Y-80052637D01*
X238011146Y-79891721D01*
X238360774Y-79658107D01*
X238658107Y-79360774D01*
X238891721Y-79011146D01*
X239052637Y-78622661D01*
X239134671Y-78210247D01*
X239134671Y-77789753D01*
X239052637Y-77377339D01*
X238891721Y-76988854D01*
X238658107Y-76639226D01*
X238360774Y-76341893D01*
X238011146Y-76108279D01*
X237622661Y-75947363D01*
X237210247Y-75865329D01*
X236789753Y-75865329D01*
X236377339Y-75947363D01*
X235988854Y-76108279D01*
X235639226Y-76341893D01*
X235341893Y-76639226D01*
X235108279Y-76988854D01*
X234947363Y-77377339D01*
X234865329Y-77789753D01*
X172134671Y-77789753D01*
X172052637Y-77377339D01*
X171891721Y-76988854D01*
X171658107Y-76639226D01*
X171360774Y-76341893D01*
X171011146Y-76108279D01*
X170622661Y-75947363D01*
X170210247Y-75865329D01*
X169789753Y-75865329D01*
X169377339Y-75947363D01*
X168988854Y-76108279D01*
X168639226Y-76341893D01*
X168341893Y-76639226D01*
X168108279Y-76988854D01*
X167947363Y-77377339D01*
X167865329Y-77789753D01*
X86376204Y-77789753D01*
X86444973Y-77686833D01*
X86554277Y-77422949D01*
X86610000Y-77142813D01*
X86610000Y-76857187D01*
X86554277Y-76577051D01*
X86444973Y-76313167D01*
X86286289Y-76075679D01*
X86084321Y-75873711D01*
X85846833Y-75715027D01*
X85629488Y-75625000D01*
X236969433Y-75625000D01*
X237460722Y-75673172D01*
X237903900Y-75806975D01*
X238312647Y-76024309D01*
X238671393Y-76316894D01*
X238966480Y-76673593D01*
X239186661Y-77080811D01*
X239323556Y-77523046D01*
X239375001Y-78012513D01*
X239375000Y-112969434D01*
X239326828Y-113460724D01*
X239193025Y-113903902D01*
X238975691Y-114312647D01*
X238683103Y-114671395D01*
X238326409Y-114966479D01*
X237919189Y-115186661D01*
X237476956Y-115323556D01*
X236987497Y-115375000D01*
X160869488Y-115375000D01*
X161086833Y-115284973D01*
X161324321Y-115126289D01*
X161526289Y-114924321D01*
X161684973Y-114686833D01*
X161794277Y-114422949D01*
X161850000Y-114142813D01*
X161850000Y-113857187D01*
X161794277Y-113577051D01*
X161684973Y-113313167D01*
X161627398Y-113227000D01*
X163964292Y-113227000D01*
X164000000Y-113230517D01*
X164142517Y-113216480D01*
X164180876Y-113204844D01*
X164279557Y-113174910D01*
X164405853Y-113107403D01*
X164516554Y-113016554D01*
X164539326Y-112988806D01*
X164738379Y-112789753D01*
X167865329Y-112789753D01*
X167865329Y-113210247D01*
X167947363Y-113622661D01*
X168108279Y-114011146D01*
X168341893Y-114360774D01*
X168639226Y-114658107D01*
X168988854Y-114891721D01*
X169377339Y-115052637D01*
X169789753Y-115134671D01*
X170210247Y-115134671D01*
X170622661Y-115052637D01*
X171011146Y-114891721D01*
X171360774Y-114658107D01*
X171658107Y-114360774D01*
X171891721Y-114011146D01*
X172052637Y-113622661D01*
X172134671Y-113210247D01*
X172134671Y-112789753D01*
X234865329Y-112789753D01*
X234865329Y-113210247D01*
X234947363Y-113622661D01*
X235108279Y-114011146D01*
X235341893Y-114360774D01*
X235639226Y-114658107D01*
X235988854Y-114891721D01*
X236377339Y-115052637D01*
X236789753Y-115134671D01*
X237210247Y-115134671D01*
X237622661Y-115052637D01*
X238011146Y-114891721D01*
X238360774Y-114658107D01*
X238658107Y-114360774D01*
X238891721Y-114011146D01*
X239052637Y-113622661D01*
X239134671Y-113210247D01*
X239134671Y-112789753D01*
X239052637Y-112377339D01*
X238891721Y-111988854D01*
X238658107Y-111639226D01*
X238360774Y-111341893D01*
X238011146Y-111108279D01*
X237622661Y-110947363D01*
X237210247Y-110865329D01*
X236789753Y-110865329D01*
X236377339Y-110947363D01*
X235988854Y-111108279D01*
X235639226Y-111341893D01*
X235341893Y-111639226D01*
X235108279Y-111988854D01*
X234947363Y-112377339D01*
X234865329Y-112789753D01*
X172134671Y-112789753D01*
X172052637Y-112377339D01*
X171891721Y-111988854D01*
X171658107Y-111639226D01*
X171360774Y-111341893D01*
X171011146Y-111108279D01*
X170622661Y-110947363D01*
X170210247Y-110865329D01*
X169789753Y-110865329D01*
X169377339Y-110947363D01*
X168988854Y-111108279D01*
X168639226Y-111341893D01*
X168341893Y-111639226D01*
X168108279Y-111988854D01*
X167947363Y-112377339D01*
X167865329Y-112789753D01*
X164738379Y-112789753D01*
X167301134Y-110227000D01*
X227964292Y-110227000D01*
X228000000Y-110230517D01*
X228142517Y-110216480D01*
X228279557Y-110174910D01*
X228405853Y-110107403D01*
X228516554Y-110016554D01*
X228539326Y-109988807D01*
X229488812Y-109039321D01*
X229516554Y-109016554D01*
X229607403Y-108905853D01*
X229674910Y-108779557D01*
X229677966Y-108769483D01*
X229716480Y-108642518D01*
X229730517Y-108500000D01*
X229727000Y-108464292D01*
X229727000Y-101941927D01*
X229753260Y-101902626D01*
X229817335Y-101747936D01*
X229850000Y-101583718D01*
X229850000Y-101416282D01*
X229817335Y-101252064D01*
X229753260Y-101097374D01*
X229660238Y-100958156D01*
X229541844Y-100839762D01*
X229402626Y-100746740D01*
X229247936Y-100682665D01*
X229083718Y-100650000D01*
X228916282Y-100650000D01*
X228752064Y-100682665D01*
X228597374Y-100746740D01*
X228458156Y-100839762D01*
X228339762Y-100958156D01*
X228246740Y-101097374D01*
X228182665Y-101252064D01*
X228150000Y-101416282D01*
X228150000Y-101583718D01*
X228182665Y-101747936D01*
X228246740Y-101902626D01*
X228273000Y-101941927D01*
X228273001Y-108198866D01*
X227698868Y-108773000D01*
X221141214Y-108773000D01*
X221276751Y-108637463D01*
X221386189Y-108473678D01*
X221461571Y-108291689D01*
X221500000Y-108098491D01*
X221500000Y-107901509D01*
X221461571Y-107708311D01*
X221386189Y-107526322D01*
X221276751Y-107362537D01*
X221137463Y-107223249D01*
X220973678Y-107113811D01*
X220940335Y-107100000D01*
X220973678Y-107086189D01*
X221137463Y-106976751D01*
X221276751Y-106837463D01*
X221386189Y-106673678D01*
X221461571Y-106491689D01*
X221500000Y-106298491D01*
X221500000Y-106101509D01*
X221461571Y-105908311D01*
X221386189Y-105726322D01*
X221276751Y-105562537D01*
X221137463Y-105423249D01*
X220973678Y-105313811D01*
X220791689Y-105238429D01*
X220598491Y-105200000D01*
X220401509Y-105200000D01*
X220208311Y-105238429D01*
X220026322Y-105313811D01*
X219862537Y-105423249D01*
X219761986Y-105523800D01*
X211780092Y-105523800D01*
X209900000Y-103643710D01*
X209900000Y-103501509D01*
X209861571Y-103308311D01*
X209786189Y-103126322D01*
X209676751Y-102962537D01*
X209537463Y-102823249D01*
X209373678Y-102713811D01*
X209191689Y-102638429D01*
X208998491Y-102600000D01*
X208801509Y-102600000D01*
X208608311Y-102638429D01*
X208426322Y-102713811D01*
X208262537Y-102823249D01*
X208123249Y-102962537D01*
X208013811Y-103126322D01*
X207938429Y-103308311D01*
X207900000Y-103501509D01*
X207900000Y-103698491D01*
X207938429Y-103891689D01*
X208013811Y-104073678D01*
X208123249Y-104237463D01*
X208262537Y-104376751D01*
X208426322Y-104486189D01*
X208608311Y-104561571D01*
X208801509Y-104600000D01*
X208943710Y-104600000D01*
X210998371Y-106654663D01*
X211019541Y-106680459D01*
X211045337Y-106701629D01*
X211122505Y-106764959D01*
X211171276Y-106791027D01*
X211239978Y-106827749D01*
X211367442Y-106866415D01*
X211466789Y-106876200D01*
X211466791Y-106876200D01*
X211499999Y-106879471D01*
X211533207Y-106876200D01*
X219761986Y-106876200D01*
X219862537Y-106976751D01*
X220026322Y-107086189D01*
X220059665Y-107100000D01*
X220026322Y-107113811D01*
X219862537Y-107223249D01*
X219810786Y-107275000D01*
X203220305Y-107275000D01*
X202676138Y-106730833D01*
X202690000Y-106661144D01*
X202690000Y-106418856D01*
X202642731Y-106181222D01*
X202550011Y-105957377D01*
X202415403Y-105755921D01*
X202244079Y-105584597D01*
X202042623Y-105449989D01*
X201818778Y-105357269D01*
X201581144Y-105310000D01*
X201338856Y-105310000D01*
X201101222Y-105357269D01*
X200877377Y-105449989D01*
X200675921Y-105584597D01*
X200504597Y-105755921D01*
X200369989Y-105957377D01*
X200277269Y-106181222D01*
X200230000Y-106418856D01*
X200230000Y-106661144D01*
X200277269Y-106898778D01*
X200369989Y-107122623D01*
X200504597Y-107324079D01*
X200675921Y-107495403D01*
X200877377Y-107630011D01*
X201101222Y-107722731D01*
X201338856Y-107770000D01*
X201581144Y-107770000D01*
X201650833Y-107756138D01*
X202382172Y-108487477D01*
X202404868Y-108515132D01*
X202432523Y-108537828D01*
X202432525Y-108537830D01*
X202465582Y-108564959D01*
X202515263Y-108605731D01*
X202641212Y-108673053D01*
X202777875Y-108714509D01*
X202884393Y-108725000D01*
X202884403Y-108725000D01*
X202920000Y-108728506D01*
X202955597Y-108725000D01*
X219810786Y-108725000D01*
X219858786Y-108773000D01*
X167035708Y-108773000D01*
X167000000Y-108769483D01*
X166857482Y-108783520D01*
X166781928Y-108806439D01*
X166720443Y-108825090D01*
X166594147Y-108892597D01*
X166483446Y-108983446D01*
X166460683Y-109011183D01*
X163698868Y-111773000D01*
X161627398Y-111773000D01*
X161684973Y-111686833D01*
X161794277Y-111422949D01*
X161850000Y-111142813D01*
X161850000Y-110857187D01*
X161794277Y-110577051D01*
X161684973Y-110313167D01*
X161526289Y-110075679D01*
X161324321Y-109873711D01*
X161086833Y-109715027D01*
X160993096Y-109676200D01*
X161106188Y-109676200D01*
X161139396Y-109679471D01*
X161172604Y-109676200D01*
X161172607Y-109676200D01*
X161271954Y-109666415D01*
X161399418Y-109627749D01*
X161516890Y-109564959D01*
X161619855Y-109480459D01*
X161641034Y-109454652D01*
X163238068Y-107857619D01*
X163263869Y-107836445D01*
X163348369Y-107733480D01*
X163411159Y-107616008D01*
X163449825Y-107488544D01*
X163459610Y-107389197D01*
X163459610Y-107389194D01*
X163462881Y-107355986D01*
X163459610Y-107322778D01*
X163459610Y-103878856D01*
X202770000Y-103878856D01*
X202770000Y-104121144D01*
X202817269Y-104358778D01*
X202909989Y-104582623D01*
X203044597Y-104784079D01*
X203215921Y-104955403D01*
X203417377Y-105090011D01*
X203641222Y-105182731D01*
X203878856Y-105230000D01*
X204121144Y-105230000D01*
X204358778Y-105182731D01*
X204582623Y-105090011D01*
X204784079Y-104955403D01*
X204955403Y-104784079D01*
X205090011Y-104582623D01*
X205182731Y-104358778D01*
X205230000Y-104121144D01*
X205230000Y-103878856D01*
X205182731Y-103641222D01*
X205090011Y-103417377D01*
X204955403Y-103215921D01*
X204784079Y-103044597D01*
X204582623Y-102909989D01*
X204358778Y-102817269D01*
X204121144Y-102770000D01*
X203878856Y-102770000D01*
X203641222Y-102817269D01*
X203417377Y-102909989D01*
X203215921Y-103044597D01*
X203044597Y-103215921D01*
X202909989Y-103417377D01*
X202817269Y-103641222D01*
X202770000Y-103878856D01*
X163459610Y-103878856D01*
X163459610Y-99851509D01*
X214480000Y-99851509D01*
X214480000Y-100048491D01*
X214518429Y-100241689D01*
X214593811Y-100423678D01*
X214703249Y-100587463D01*
X214842537Y-100726751D01*
X215006322Y-100836189D01*
X215188311Y-100911571D01*
X215381509Y-100950000D01*
X215578491Y-100950000D01*
X215771689Y-100911571D01*
X215953678Y-100836189D01*
X216117463Y-100726751D01*
X216256751Y-100587463D01*
X216366189Y-100423678D01*
X216441571Y-100241689D01*
X216480000Y-100048491D01*
X216480000Y-99851509D01*
X216441571Y-99658311D01*
X216366189Y-99476322D01*
X216256751Y-99312537D01*
X216205000Y-99260786D01*
X216205000Y-87119737D01*
X216213642Y-87116157D01*
X216377427Y-87006719D01*
X216516715Y-86867431D01*
X216626153Y-86703646D01*
X216701535Y-86521657D01*
X216739964Y-86328459D01*
X216739964Y-86131477D01*
X216701535Y-85938279D01*
X216626153Y-85756290D01*
X216516715Y-85592505D01*
X216377427Y-85453217D01*
X216213642Y-85343779D01*
X216031653Y-85268397D01*
X215838455Y-85229968D01*
X215641473Y-85229968D01*
X215448275Y-85268397D01*
X215266286Y-85343779D01*
X215102501Y-85453217D01*
X214963213Y-85592505D01*
X214853775Y-85756290D01*
X214778393Y-85938279D01*
X214739964Y-86131477D01*
X214739964Y-86328459D01*
X214758312Y-86420704D01*
X214751494Y-86489932D01*
X214755001Y-86525539D01*
X214755000Y-99260786D01*
X214703249Y-99312537D01*
X214593811Y-99476322D01*
X214518429Y-99658311D01*
X214480000Y-99851509D01*
X163459610Y-99851509D01*
X163459610Y-99816617D01*
X163462881Y-99783409D01*
X163458470Y-99738623D01*
X163456374Y-99717347D01*
X163541844Y-99660238D01*
X163660238Y-99541844D01*
X163753260Y-99402626D01*
X163817335Y-99247936D01*
X163850000Y-99083718D01*
X163850000Y-98916282D01*
X163817335Y-98752064D01*
X163753260Y-98597374D01*
X163660238Y-98458156D01*
X163541844Y-98339762D01*
X163402626Y-98246740D01*
X163247936Y-98182665D01*
X163111896Y-98155605D01*
X157654801Y-92698511D01*
X157654801Y-90803481D01*
X157658072Y-90770271D01*
X157652977Y-90718536D01*
X157645016Y-90637713D01*
X157634534Y-90603158D01*
X157606350Y-90510248D01*
X157574955Y-90451513D01*
X157543560Y-90392777D01*
X157459059Y-90289812D01*
X157433258Y-90268638D01*
X157180568Y-90015948D01*
X157159389Y-89990141D01*
X157056424Y-89905641D01*
X156938952Y-89842851D01*
X156811488Y-89804185D01*
X156712141Y-89794400D01*
X156712138Y-89794400D01*
X156678930Y-89791129D01*
X156645722Y-89794400D01*
X153392965Y-89794400D01*
X153292093Y-89727000D01*
X157558073Y-89727000D01*
X157597374Y-89753260D01*
X157752064Y-89817335D01*
X157916282Y-89850000D01*
X158083718Y-89850000D01*
X158247936Y-89817335D01*
X158402626Y-89753260D01*
X158541844Y-89660238D01*
X158660238Y-89541844D01*
X158753260Y-89402626D01*
X158817335Y-89247936D01*
X158850000Y-89083718D01*
X158850000Y-88916282D01*
X158817335Y-88752064D01*
X158753260Y-88597374D01*
X158660238Y-88458156D01*
X158541844Y-88339762D01*
X158402626Y-88246740D01*
X158247936Y-88182665D01*
X158083718Y-88150000D01*
X157916282Y-88150000D01*
X157752064Y-88182665D01*
X157597374Y-88246740D01*
X157558073Y-88273000D01*
X146441927Y-88273000D01*
X146402626Y-88246740D01*
X146247936Y-88182665D01*
X146083718Y-88150000D01*
X145916282Y-88150000D01*
X145752064Y-88182665D01*
X145597374Y-88246740D01*
X145558073Y-88273000D01*
X134441927Y-88273000D01*
X134402626Y-88246740D01*
X134247936Y-88182665D01*
X134083718Y-88150000D01*
X133916282Y-88150000D01*
X133752064Y-88182665D01*
X133597374Y-88246740D01*
X133558073Y-88273000D01*
X122441927Y-88273000D01*
X122402626Y-88246740D01*
X122247936Y-88182665D01*
X122083718Y-88150000D01*
X121916282Y-88150000D01*
X121752064Y-88182665D01*
X121597374Y-88246740D01*
X121558073Y-88273000D01*
X110441927Y-88273000D01*
X110402626Y-88246740D01*
X110247936Y-88182665D01*
X110083718Y-88150000D01*
X109916282Y-88150000D01*
X109752064Y-88182665D01*
X109597374Y-88246740D01*
X109558073Y-88273000D01*
X98441927Y-88273000D01*
X98402626Y-88246740D01*
X98247936Y-88182665D01*
X98083718Y-88150000D01*
X97916282Y-88150000D01*
X97752064Y-88182665D01*
X97597374Y-88246740D01*
X97558073Y-88273000D01*
X86441927Y-88273000D01*
X86402626Y-88246740D01*
X86247936Y-88182665D01*
X86083718Y-88150000D01*
X85916282Y-88150000D01*
X85752064Y-88182665D01*
X85597374Y-88246740D01*
X85558073Y-88273000D01*
X74441927Y-88273000D01*
X74402626Y-88246740D01*
X74247936Y-88182665D01*
X74083718Y-88150000D01*
X73916282Y-88150000D01*
X73752064Y-88182665D01*
X73597374Y-88246740D01*
X73458156Y-88339762D01*
X73339762Y-88458156D01*
X73246740Y-88597374D01*
X73182665Y-88752064D01*
X73150000Y-88916282D01*
X73150000Y-89083718D01*
X73182665Y-89247936D01*
X73246740Y-89402626D01*
X73339762Y-89541844D01*
X73458156Y-89660238D01*
X73597374Y-89753260D01*
X73752064Y-89817335D01*
X73916282Y-89850000D01*
X74083718Y-89850000D01*
X74247936Y-89817335D01*
X74402626Y-89753260D01*
X74441927Y-89727000D01*
X85558073Y-89727000D01*
X85597374Y-89753260D01*
X85752064Y-89817335D01*
X85916282Y-89850000D01*
X86083718Y-89850000D01*
X86247936Y-89817335D01*
X86402626Y-89753260D01*
X86441927Y-89727000D01*
X97558073Y-89727000D01*
X97597374Y-89753260D01*
X97752064Y-89817335D01*
X97916282Y-89850000D01*
X98083718Y-89850000D01*
X98247936Y-89817335D01*
X98402626Y-89753260D01*
X98441927Y-89727000D01*
X109558073Y-89727000D01*
X109597374Y-89753260D01*
X109752064Y-89817335D01*
X109916282Y-89850000D01*
X110083718Y-89850000D01*
X110247936Y-89817335D01*
X110402626Y-89753260D01*
X110441927Y-89727000D01*
X121558073Y-89727000D01*
X121597374Y-89753260D01*
X121752064Y-89817335D01*
X121916282Y-89850000D01*
X122083718Y-89850000D01*
X122247936Y-89817335D01*
X122402626Y-89753260D01*
X122441927Y-89727000D01*
X133558073Y-89727000D01*
X133597374Y-89753260D01*
X133752064Y-89817335D01*
X133916282Y-89850000D01*
X134083718Y-89850000D01*
X134247936Y-89817335D01*
X134402626Y-89753260D01*
X134441927Y-89727000D01*
X145558073Y-89727000D01*
X145597374Y-89753260D01*
X145752064Y-89817335D01*
X145916282Y-89850000D01*
X146083718Y-89850000D01*
X146247936Y-89817335D01*
X146402626Y-89753260D01*
X146441927Y-89727000D01*
X152457927Y-89727000D01*
X152333166Y-89810362D01*
X152214772Y-89928756D01*
X152121750Y-90067974D01*
X152057675Y-90222664D01*
X152047663Y-90273000D01*
X144941927Y-90273000D01*
X144902626Y-90246740D01*
X144747936Y-90182665D01*
X144583718Y-90150000D01*
X144416282Y-90150000D01*
X144252064Y-90182665D01*
X144097374Y-90246740D01*
X144058073Y-90273000D01*
X132941927Y-90273000D01*
X132902626Y-90246740D01*
X132747936Y-90182665D01*
X132583718Y-90150000D01*
X132416282Y-90150000D01*
X132252064Y-90182665D01*
X132097374Y-90246740D01*
X132058073Y-90273000D01*
X120941927Y-90273000D01*
X120902626Y-90246740D01*
X120747936Y-90182665D01*
X120583718Y-90150000D01*
X120416282Y-90150000D01*
X120252064Y-90182665D01*
X120097374Y-90246740D01*
X120058073Y-90273000D01*
X108941927Y-90273000D01*
X108902626Y-90246740D01*
X108747936Y-90182665D01*
X108583718Y-90150000D01*
X108416282Y-90150000D01*
X108252064Y-90182665D01*
X108097374Y-90246740D01*
X108058073Y-90273000D01*
X96941927Y-90273000D01*
X96902626Y-90246740D01*
X96747936Y-90182665D01*
X96583718Y-90150000D01*
X96416282Y-90150000D01*
X96252064Y-90182665D01*
X96097374Y-90246740D01*
X96058073Y-90273000D01*
X84941927Y-90273000D01*
X84902626Y-90246740D01*
X84747936Y-90182665D01*
X84583718Y-90150000D01*
X84416282Y-90150000D01*
X84252064Y-90182665D01*
X84097374Y-90246740D01*
X84058073Y-90273000D01*
X72941927Y-90273000D01*
X72902626Y-90246740D01*
X72747936Y-90182665D01*
X72583718Y-90150000D01*
X72416282Y-90150000D01*
X72252064Y-90182665D01*
X72097374Y-90246740D01*
X71958156Y-90339762D01*
X71839762Y-90458156D01*
X71746740Y-90597374D01*
X71682665Y-90752064D01*
X71650000Y-90916282D01*
X71650000Y-91083718D01*
X71682665Y-91247936D01*
X71746740Y-91402626D01*
X71839762Y-91541844D01*
X71958156Y-91660238D01*
X72097374Y-91753260D01*
X72252064Y-91817335D01*
X72416282Y-91850000D01*
X72583718Y-91850000D01*
X72747936Y-91817335D01*
X72902626Y-91753260D01*
X72941927Y-91727000D01*
X84058073Y-91727000D01*
X84097374Y-91753260D01*
X84252064Y-91817335D01*
X84416282Y-91850000D01*
X84583718Y-91850000D01*
X84747936Y-91817335D01*
X84902626Y-91753260D01*
X84941927Y-91727000D01*
X96058073Y-91727000D01*
X96097374Y-91753260D01*
X96252064Y-91817335D01*
X96416282Y-91850000D01*
X96583718Y-91850000D01*
X96747936Y-91817335D01*
X96902626Y-91753260D01*
X96941927Y-91727000D01*
X108058073Y-91727000D01*
X108097374Y-91753260D01*
X108252064Y-91817335D01*
X108416282Y-91850000D01*
X108583718Y-91850000D01*
X108747936Y-91817335D01*
X108902626Y-91753260D01*
X108941927Y-91727000D01*
X120058073Y-91727000D01*
X120097374Y-91753260D01*
X120252064Y-91817335D01*
X120416282Y-91850000D01*
X120583718Y-91850000D01*
X120747936Y-91817335D01*
X120902626Y-91753260D01*
X120941927Y-91727000D01*
X132058073Y-91727000D01*
X132097374Y-91753260D01*
X132252064Y-91817335D01*
X132416282Y-91850000D01*
X132583718Y-91850000D01*
X132747936Y-91817335D01*
X132902626Y-91753260D01*
X132941927Y-91727000D01*
X144058073Y-91727000D01*
X144097374Y-91753260D01*
X144252064Y-91817335D01*
X144416282Y-91850000D01*
X144583718Y-91850000D01*
X144747936Y-91817335D01*
X144902626Y-91753260D01*
X144941927Y-91727000D01*
X149693047Y-91727000D01*
X149682665Y-91752064D01*
X149650000Y-91916282D01*
X149650000Y-92083718D01*
X149682665Y-92247936D01*
X149746740Y-92402626D01*
X149839762Y-92541844D01*
X149958156Y-92660238D01*
X150097374Y-92753260D01*
X150252064Y-92817335D01*
X150388105Y-92844395D01*
X154323800Y-96780091D01*
X154323801Y-103482044D01*
X154246740Y-103597374D01*
X154182665Y-103752064D01*
X154150000Y-103916282D01*
X154150000Y-104083718D01*
X154182665Y-104247936D01*
X154246740Y-104402626D01*
X154339762Y-104541844D01*
X154458156Y-104660238D01*
X154597374Y-104753260D01*
X154752064Y-104817335D01*
X154916282Y-104850000D01*
X155083718Y-104850000D01*
X155247936Y-104817335D01*
X155402626Y-104753260D01*
X155541844Y-104660238D01*
X155660238Y-104541844D01*
X155753260Y-104402626D01*
X155817335Y-104247936D01*
X155850000Y-104083718D01*
X155850000Y-103916282D01*
X155817335Y-103752064D01*
X155753260Y-103597374D01*
X155676200Y-103482045D01*
X155676200Y-96533207D01*
X155679471Y-96499999D01*
X155673073Y-96435041D01*
X155666415Y-96367442D01*
X155627749Y-96239978D01*
X155564959Y-96122506D01*
X155480458Y-96019541D01*
X155454662Y-95998371D01*
X151344395Y-91888105D01*
X151317335Y-91752064D01*
X151306953Y-91727000D01*
X156058073Y-91727000D01*
X156097374Y-91753260D01*
X156252064Y-91817335D01*
X156302401Y-91827348D01*
X156302402Y-92945383D01*
X156299130Y-92978601D01*
X156310953Y-93098630D01*
X156312187Y-93111159D01*
X156326096Y-93157010D01*
X156350853Y-93238623D01*
X156413642Y-93356094D01*
X156428741Y-93374492D01*
X156498143Y-93459060D01*
X156523944Y-93480234D01*
X161420814Y-98377104D01*
X161339762Y-98458156D01*
X161246740Y-98597374D01*
X161182665Y-98752064D01*
X161150000Y-98916282D01*
X161150000Y-99083718D01*
X161182665Y-99247936D01*
X161246740Y-99402626D01*
X161339762Y-99541844D01*
X161458156Y-99660238D01*
X161597374Y-99753260D01*
X161752064Y-99817335D01*
X161888105Y-99844395D01*
X162107210Y-100063501D01*
X162107210Y-103154673D01*
X162083718Y-103150000D01*
X161916282Y-103150000D01*
X161752064Y-103182665D01*
X161597374Y-103246740D01*
X161458156Y-103339762D01*
X161339762Y-103458156D01*
X161246740Y-103597374D01*
X161182665Y-103752064D01*
X161150000Y-103916282D01*
X161150000Y-104083718D01*
X161182665Y-104247936D01*
X161246740Y-104402626D01*
X161339762Y-104541844D01*
X161458156Y-104660238D01*
X161597374Y-104753260D01*
X161752064Y-104817335D01*
X161802401Y-104827348D01*
X161802402Y-106172652D01*
X161752064Y-106182665D01*
X161597374Y-106246740D01*
X161458156Y-106339762D01*
X161339762Y-106458156D01*
X161246740Y-106597374D01*
X161182665Y-106752064D01*
X161155605Y-106888104D01*
X160415100Y-107628610D01*
X157967077Y-107628610D01*
X158238068Y-107357619D01*
X158263869Y-107336445D01*
X158348369Y-107233480D01*
X158411159Y-107116008D01*
X158449825Y-106988544D01*
X158459610Y-106889197D01*
X158459610Y-106889195D01*
X158462881Y-106855987D01*
X158459610Y-106822779D01*
X158459610Y-99816617D01*
X158462881Y-99783409D01*
X158458470Y-99738623D01*
X158449825Y-99650852D01*
X158411159Y-99523388D01*
X158348369Y-99405916D01*
X158263868Y-99302951D01*
X158238072Y-99281781D01*
X157844395Y-98888105D01*
X157817335Y-98752064D01*
X157753260Y-98597374D01*
X157660238Y-98458156D01*
X157541844Y-98339762D01*
X157402626Y-98246740D01*
X157247936Y-98182665D01*
X157083718Y-98150000D01*
X156916282Y-98150000D01*
X156752064Y-98182665D01*
X156597374Y-98246740D01*
X156458156Y-98339762D01*
X156339762Y-98458156D01*
X156246740Y-98597374D01*
X156182665Y-98752064D01*
X156150000Y-98916282D01*
X156150000Y-99083718D01*
X156182665Y-99247936D01*
X156246740Y-99402626D01*
X156339762Y-99541844D01*
X156458156Y-99660238D01*
X156597374Y-99753260D01*
X156752064Y-99817335D01*
X156888105Y-99844395D01*
X157107210Y-100063501D01*
X157107210Y-103154673D01*
X157083718Y-103150000D01*
X156916282Y-103150000D01*
X156752064Y-103182665D01*
X156597374Y-103246740D01*
X156458156Y-103339762D01*
X156339762Y-103458156D01*
X156246740Y-103597374D01*
X156182665Y-103752064D01*
X156150000Y-103916282D01*
X156150000Y-104083718D01*
X156182665Y-104247936D01*
X156246740Y-104402626D01*
X156339762Y-104541844D01*
X156458156Y-104660238D01*
X156597374Y-104753260D01*
X156752064Y-104817335D01*
X156802401Y-104827348D01*
X156802402Y-105672652D01*
X156752064Y-105682665D01*
X156597374Y-105746740D01*
X156458156Y-105839762D01*
X156339762Y-105958156D01*
X156246740Y-106097374D01*
X156182665Y-106252064D01*
X156155605Y-106388105D01*
X156110290Y-106433420D01*
X153455254Y-106433420D01*
X153459610Y-106389197D01*
X153459610Y-106389194D01*
X153462881Y-106355986D01*
X153459610Y-106322778D01*
X153459610Y-99816617D01*
X153462881Y-99783409D01*
X153458470Y-99738623D01*
X153449825Y-99650852D01*
X153411159Y-99523388D01*
X153348369Y-99405916D01*
X153263868Y-99302951D01*
X153238072Y-99281781D01*
X152844395Y-98888105D01*
X152817335Y-98752064D01*
X152753260Y-98597374D01*
X152660238Y-98458156D01*
X152541844Y-98339762D01*
X152402626Y-98246740D01*
X152247936Y-98182665D01*
X152083718Y-98150000D01*
X151916282Y-98150000D01*
X151752064Y-98182665D01*
X151597374Y-98246740D01*
X151458156Y-98339762D01*
X151339762Y-98458156D01*
X151246740Y-98597374D01*
X151182665Y-98752064D01*
X151150000Y-98916282D01*
X151150000Y-99083718D01*
X151182665Y-99247936D01*
X151246740Y-99402626D01*
X151339762Y-99541844D01*
X151458156Y-99660238D01*
X151597374Y-99753260D01*
X151752064Y-99817335D01*
X151888105Y-99844395D01*
X152107210Y-100063501D01*
X152107211Y-103154673D01*
X152083718Y-103150000D01*
X151916282Y-103150000D01*
X151752064Y-103182665D01*
X151597374Y-103246740D01*
X151458156Y-103339762D01*
X151339762Y-103458156D01*
X151246740Y-103597374D01*
X151182665Y-103752064D01*
X151150000Y-103916282D01*
X151150000Y-104083718D01*
X151182665Y-104247936D01*
X151246740Y-104402626D01*
X151339762Y-104541844D01*
X151458156Y-104660238D01*
X151597374Y-104753260D01*
X151752064Y-104817335D01*
X151802401Y-104827348D01*
X151802401Y-105172652D01*
X151752064Y-105182665D01*
X151597374Y-105246740D01*
X151482045Y-105323800D01*
X148785911Y-105323800D01*
X148817335Y-105247936D01*
X148850000Y-105083718D01*
X148850000Y-104916282D01*
X148817335Y-104752064D01*
X148753260Y-104597374D01*
X148660238Y-104458156D01*
X148541844Y-104339762D01*
X148402626Y-104246740D01*
X148247936Y-104182665D01*
X148111897Y-104155605D01*
X147001637Y-103045347D01*
X146980459Y-103019541D01*
X146877494Y-102935041D01*
X146760022Y-102872251D01*
X146632558Y-102833585D01*
X146533211Y-102823800D01*
X146533208Y-102823800D01*
X146500000Y-102820529D01*
X146466792Y-102823800D01*
X142132491Y-102823800D01*
X146111897Y-98844395D01*
X146247936Y-98817335D01*
X146402626Y-98753260D01*
X146464174Y-98712135D01*
X147287865Y-99535826D01*
X147246740Y-99597374D01*
X147182665Y-99752064D01*
X147150000Y-99916282D01*
X147150000Y-100083718D01*
X147182665Y-100247936D01*
X147246740Y-100402626D01*
X147339762Y-100541844D01*
X147458156Y-100660238D01*
X147597374Y-100753260D01*
X147752064Y-100817335D01*
X147916282Y-100850000D01*
X148083718Y-100850000D01*
X148247936Y-100817335D01*
X148402626Y-100753260D01*
X148541844Y-100660238D01*
X148660238Y-100541844D01*
X148753260Y-100402626D01*
X148817335Y-100247936D01*
X148850000Y-100083718D01*
X148850000Y-99916282D01*
X148817335Y-99752064D01*
X148753260Y-99597374D01*
X148676200Y-99482045D01*
X148676200Y-99324877D01*
X148679471Y-99291669D01*
X148675570Y-99252064D01*
X148666415Y-99159112D01*
X148627749Y-99031648D01*
X148564959Y-98914176D01*
X148480458Y-98811211D01*
X148454662Y-98790041D01*
X146709968Y-97045348D01*
X146688789Y-97019541D01*
X146585824Y-96935041D01*
X146468352Y-96872251D01*
X146340888Y-96833585D01*
X146241541Y-96823800D01*
X146241538Y-96823800D01*
X146208330Y-96820529D01*
X146175122Y-96823800D01*
X141017955Y-96823800D01*
X140902626Y-96746740D01*
X140747936Y-96682665D01*
X140583718Y-96650000D01*
X140416282Y-96650000D01*
X140252064Y-96682665D01*
X140097374Y-96746740D01*
X139958156Y-96839762D01*
X139839762Y-96958156D01*
X139746740Y-97097374D01*
X139682665Y-97252064D01*
X139650000Y-97416282D01*
X139650000Y-97583718D01*
X139682665Y-97747936D01*
X139746740Y-97902626D01*
X139839762Y-98041844D01*
X139958156Y-98160238D01*
X140097374Y-98253260D01*
X140252064Y-98317335D01*
X140284566Y-98323800D01*
X139017955Y-98323800D01*
X138902626Y-98246740D01*
X138747936Y-98182665D01*
X138583718Y-98150000D01*
X138416282Y-98150000D01*
X138252064Y-98182665D01*
X138097374Y-98246740D01*
X137958156Y-98339762D01*
X137839762Y-98458156D01*
X137746740Y-98597374D01*
X137682665Y-98752064D01*
X137650000Y-98916282D01*
X137650000Y-99083718D01*
X137675953Y-99214191D01*
X137597374Y-99246740D01*
X137482045Y-99323800D01*
X137331604Y-99323800D01*
X137317335Y-99252064D01*
X137253260Y-99097374D01*
X137160238Y-98958156D01*
X137041844Y-98839762D01*
X136902626Y-98746740D01*
X136747936Y-98682665D01*
X136583718Y-98650000D01*
X136416282Y-98650000D01*
X136252064Y-98682665D01*
X136097374Y-98746740D01*
X135958156Y-98839762D01*
X135839762Y-98958156D01*
X135746740Y-99097374D01*
X135682665Y-99252064D01*
X135650000Y-99416282D01*
X135650000Y-99583718D01*
X135682665Y-99747936D01*
X135746740Y-99902626D01*
X135839762Y-100041844D01*
X135958156Y-100160238D01*
X136097374Y-100253260D01*
X136252064Y-100317335D01*
X136388104Y-100344395D01*
X136498366Y-100454657D01*
X136519541Y-100480459D01*
X136622506Y-100564959D01*
X136739977Y-100627749D01*
X136867442Y-100666415D01*
X137000000Y-100679471D01*
X137033210Y-100676200D01*
X137482045Y-100676200D01*
X137597374Y-100753260D01*
X137752064Y-100817335D01*
X137916282Y-100850000D01*
X138083718Y-100850000D01*
X138247936Y-100817335D01*
X138402626Y-100753260D01*
X138541844Y-100660238D01*
X138660238Y-100541844D01*
X138753260Y-100402626D01*
X138817335Y-100247936D01*
X138850000Y-100083718D01*
X138850000Y-99916282D01*
X138824047Y-99785809D01*
X138902626Y-99753260D01*
X139017955Y-99676200D01*
X141719910Y-99676200D01*
X142155605Y-100111895D01*
X142182665Y-100247936D01*
X142246740Y-100402626D01*
X142339762Y-100541844D01*
X142420813Y-100622895D01*
X138622896Y-104420814D01*
X138541844Y-104339762D01*
X138402626Y-104246740D01*
X138247936Y-104182665D01*
X138083718Y-104150000D01*
X137916282Y-104150000D01*
X137752064Y-104182665D01*
X137597374Y-104246740D01*
X137482045Y-104323800D01*
X137331604Y-104323800D01*
X137317335Y-104252064D01*
X137253260Y-104097374D01*
X137160238Y-103958156D01*
X137041844Y-103839762D01*
X136902626Y-103746740D01*
X136747936Y-103682665D01*
X136583718Y-103650000D01*
X136416282Y-103650000D01*
X136252064Y-103682665D01*
X136097374Y-103746740D01*
X135958156Y-103839762D01*
X135839762Y-103958156D01*
X135746740Y-104097374D01*
X135682665Y-104252064D01*
X135650000Y-104416282D01*
X135650000Y-104583718D01*
X135682665Y-104747936D01*
X135746740Y-104902626D01*
X135839762Y-105041844D01*
X135958156Y-105160238D01*
X136097374Y-105253260D01*
X136252064Y-105317335D01*
X136388104Y-105344395D01*
X136498366Y-105454657D01*
X136519541Y-105480459D01*
X136594340Y-105541844D01*
X136622506Y-105564959D01*
X136739977Y-105627749D01*
X136867442Y-105666415D01*
X137000000Y-105679471D01*
X137033210Y-105676200D01*
X137367509Y-105676200D01*
X134545344Y-108498366D01*
X134519541Y-108519542D01*
X134435041Y-108622507D01*
X134372251Y-108739979D01*
X134333585Y-108867443D01*
X134324314Y-108961571D01*
X134320529Y-109000000D01*
X134323800Y-109033208D01*
X134323800Y-109547097D01*
X134150000Y-109547097D01*
X134032379Y-109558682D01*
X133919279Y-109592990D01*
X133815045Y-109648704D01*
X133723683Y-109723683D01*
X133648704Y-109815045D01*
X133592990Y-109919279D01*
X133558682Y-110032379D01*
X133547097Y-110150000D01*
X133547097Y-111773000D01*
X128627398Y-111773000D01*
X128684973Y-111686833D01*
X128794277Y-111422949D01*
X128850000Y-111142813D01*
X128850000Y-110857187D01*
X128794277Y-110577051D01*
X128684973Y-110313167D01*
X128526289Y-110075679D01*
X128324321Y-109873711D01*
X128086833Y-109715027D01*
X127822949Y-109605723D01*
X127542813Y-109550000D01*
X127266291Y-109550000D01*
X128140091Y-108676200D01*
X130482045Y-108676200D01*
X130597374Y-108753260D01*
X130752064Y-108817335D01*
X130916282Y-108850000D01*
X131083718Y-108850000D01*
X131247936Y-108817335D01*
X131402626Y-108753260D01*
X131541844Y-108660238D01*
X131660238Y-108541844D01*
X131753260Y-108402626D01*
X131817335Y-108247936D01*
X131850000Y-108083718D01*
X131850000Y-107916282D01*
X131817335Y-107752064D01*
X131753260Y-107597374D01*
X131660238Y-107458156D01*
X131541844Y-107339762D01*
X131402626Y-107246740D01*
X131247936Y-107182665D01*
X131083718Y-107150000D01*
X130916282Y-107150000D01*
X130752064Y-107182665D01*
X130597374Y-107246740D01*
X130482045Y-107323800D01*
X128154801Y-107323800D01*
X128154801Y-103916282D01*
X130150000Y-103916282D01*
X130150000Y-104083718D01*
X130182665Y-104247936D01*
X130246740Y-104402626D01*
X130339762Y-104541844D01*
X130458156Y-104660238D01*
X130597374Y-104753260D01*
X130752064Y-104817335D01*
X130888105Y-104844395D01*
X131498367Y-105454658D01*
X131519541Y-105480459D01*
X131594340Y-105541844D01*
X131622506Y-105564959D01*
X131739978Y-105627749D01*
X131867442Y-105666415D01*
X132000000Y-105679471D01*
X132033211Y-105676200D01*
X132482045Y-105676200D01*
X132597374Y-105753260D01*
X132752064Y-105817335D01*
X132916282Y-105850000D01*
X133083718Y-105850000D01*
X133247936Y-105817335D01*
X133402626Y-105753260D01*
X133541844Y-105660238D01*
X133660238Y-105541844D01*
X133753260Y-105402626D01*
X133817335Y-105247936D01*
X133850000Y-105083718D01*
X133850000Y-104916282D01*
X133817335Y-104752064D01*
X133753260Y-104597374D01*
X133660238Y-104458156D01*
X133541844Y-104339762D01*
X133402626Y-104246740D01*
X133247936Y-104182665D01*
X133083718Y-104150000D01*
X132916282Y-104150000D01*
X132752064Y-104182665D01*
X132597374Y-104246740D01*
X132482045Y-104323800D01*
X132280091Y-104323800D01*
X131844395Y-103888105D01*
X131817335Y-103752064D01*
X131753260Y-103597374D01*
X131660238Y-103458156D01*
X131541844Y-103339762D01*
X131402626Y-103246740D01*
X131247936Y-103182665D01*
X131083718Y-103150000D01*
X130916282Y-103150000D01*
X130752064Y-103182665D01*
X130597374Y-103246740D01*
X130458156Y-103339762D01*
X130339762Y-103458156D01*
X130246740Y-103597374D01*
X130182665Y-103752064D01*
X130150000Y-103916282D01*
X128154801Y-103916282D01*
X128154801Y-99511808D01*
X128158072Y-99478600D01*
X128154801Y-99445390D01*
X128145016Y-99346043D01*
X128106350Y-99218579D01*
X128043560Y-99101107D01*
X127959059Y-98998142D01*
X127933263Y-98976972D01*
X127844395Y-98888104D01*
X127817335Y-98752064D01*
X127753260Y-98597374D01*
X127660238Y-98458156D01*
X127541844Y-98339762D01*
X127402626Y-98246740D01*
X127247936Y-98182665D01*
X127083718Y-98150000D01*
X126916282Y-98150000D01*
X126752064Y-98182665D01*
X126597374Y-98246740D01*
X126458156Y-98339762D01*
X126339762Y-98458156D01*
X126246740Y-98597374D01*
X126182665Y-98752064D01*
X126150000Y-98916282D01*
X126150000Y-99083718D01*
X126182665Y-99247936D01*
X126246740Y-99402626D01*
X126339762Y-99541844D01*
X126458156Y-99660238D01*
X126597374Y-99753260D01*
X126752064Y-99817335D01*
X126802401Y-99827348D01*
X126802401Y-103172652D01*
X126752064Y-103182665D01*
X126597374Y-103246740D01*
X126458156Y-103339762D01*
X126339762Y-103458156D01*
X126246740Y-103597374D01*
X126182665Y-103752064D01*
X126150000Y-103916282D01*
X126150000Y-104083718D01*
X126182665Y-104247936D01*
X126246740Y-104402626D01*
X126323800Y-104517955D01*
X126323801Y-107214089D01*
X126247936Y-107182665D01*
X126083718Y-107150000D01*
X125916282Y-107150000D01*
X125752064Y-107182665D01*
X125597374Y-107246740D01*
X125458156Y-107339762D01*
X125339762Y-107458156D01*
X125246740Y-107597374D01*
X125182665Y-107752064D01*
X125155605Y-107888104D01*
X124599567Y-108444143D01*
X122651544Y-108444143D01*
X123238068Y-107857619D01*
X123263869Y-107836445D01*
X123348369Y-107733480D01*
X123411159Y-107616008D01*
X123449825Y-107488544D01*
X123459610Y-107389197D01*
X123462881Y-107355986D01*
X123459610Y-107322775D01*
X123459610Y-99816617D01*
X123462881Y-99783409D01*
X123458470Y-99738623D01*
X123449825Y-99650852D01*
X123411159Y-99523388D01*
X123348369Y-99405916D01*
X123263868Y-99302951D01*
X123238072Y-99281781D01*
X122844395Y-98888105D01*
X122817335Y-98752064D01*
X122753260Y-98597374D01*
X122660238Y-98458156D01*
X122541844Y-98339762D01*
X122402626Y-98246740D01*
X122247936Y-98182665D01*
X122083718Y-98150000D01*
X121916282Y-98150000D01*
X121752064Y-98182665D01*
X121597374Y-98246740D01*
X121458156Y-98339762D01*
X121339762Y-98458156D01*
X121246740Y-98597374D01*
X121182665Y-98752064D01*
X121150000Y-98916282D01*
X121150000Y-99083718D01*
X121182665Y-99247936D01*
X121246740Y-99402626D01*
X121339762Y-99541844D01*
X121458156Y-99660238D01*
X121597374Y-99753260D01*
X121752064Y-99817335D01*
X121888105Y-99844395D01*
X122107210Y-100063501D01*
X122107210Y-103154673D01*
X122083718Y-103150000D01*
X121916282Y-103150000D01*
X121752064Y-103182665D01*
X121597374Y-103246740D01*
X121458156Y-103339762D01*
X121339762Y-103458156D01*
X121246740Y-103597374D01*
X121182665Y-103752064D01*
X121150000Y-103916282D01*
X121150000Y-104083718D01*
X121182665Y-104247936D01*
X121246740Y-104402626D01*
X121339762Y-104541844D01*
X121458156Y-104660238D01*
X121597374Y-104753260D01*
X121752064Y-104817335D01*
X121802401Y-104827348D01*
X121802402Y-106172652D01*
X121752064Y-106182665D01*
X121597374Y-106246740D01*
X121458156Y-106339762D01*
X121339762Y-106458156D01*
X121246740Y-106597374D01*
X121182665Y-106752064D01*
X121155605Y-106888104D01*
X120610290Y-107433420D01*
X118455254Y-107433420D01*
X118459610Y-107389197D01*
X118459610Y-107389194D01*
X118462881Y-107355986D01*
X118459610Y-107322778D01*
X118459610Y-99816617D01*
X118462881Y-99783409D01*
X118458470Y-99738623D01*
X118449825Y-99650852D01*
X118411159Y-99523388D01*
X118348369Y-99405916D01*
X118263868Y-99302951D01*
X118238072Y-99281781D01*
X117844395Y-98888105D01*
X117817335Y-98752064D01*
X117753260Y-98597374D01*
X117660238Y-98458156D01*
X117541844Y-98339762D01*
X117402626Y-98246740D01*
X117247936Y-98182665D01*
X117083718Y-98150000D01*
X116916282Y-98150000D01*
X116752064Y-98182665D01*
X116597374Y-98246740D01*
X116458156Y-98339762D01*
X116339762Y-98458156D01*
X116246740Y-98597374D01*
X116182665Y-98752064D01*
X116150000Y-98916282D01*
X116150000Y-99083718D01*
X116182665Y-99247936D01*
X116246740Y-99402626D01*
X116339762Y-99541844D01*
X116458156Y-99660238D01*
X116597374Y-99753260D01*
X116752064Y-99817335D01*
X116888105Y-99844395D01*
X117107210Y-100063501D01*
X117107210Y-103154673D01*
X117083718Y-103150000D01*
X116916282Y-103150000D01*
X116752064Y-103182665D01*
X116597374Y-103246740D01*
X116458156Y-103339762D01*
X116339762Y-103458156D01*
X116246740Y-103597374D01*
X116182665Y-103752064D01*
X116150000Y-103916282D01*
X116150000Y-104083718D01*
X116182665Y-104247936D01*
X116246740Y-104402626D01*
X116339762Y-104541844D01*
X116458156Y-104660238D01*
X116597374Y-104753260D01*
X116752064Y-104817335D01*
X116802401Y-104827348D01*
X116802402Y-106172652D01*
X116752064Y-106182665D01*
X116597374Y-106246740D01*
X116482045Y-106323800D01*
X106033207Y-106323800D01*
X105999999Y-106320529D01*
X105966791Y-106323800D01*
X105966789Y-106323800D01*
X105867442Y-106333585D01*
X105739978Y-106372251D01*
X105692037Y-106397876D01*
X105622505Y-106435041D01*
X105553479Y-106491689D01*
X105519541Y-106519541D01*
X105498371Y-106545337D01*
X102496613Y-109547097D01*
X101150000Y-109547097D01*
X101032379Y-109558682D01*
X100919279Y-109592990D01*
X100815045Y-109648704D01*
X100723683Y-109723683D01*
X100648704Y-109815045D01*
X100592990Y-109919279D01*
X100558682Y-110032379D01*
X100547097Y-110150000D01*
X100547097Y-111773000D01*
X95627398Y-111773000D01*
X95684973Y-111686833D01*
X95794277Y-111422949D01*
X95850000Y-111142813D01*
X95850000Y-110857187D01*
X95794277Y-110577051D01*
X95684973Y-110313167D01*
X95551384Y-110113236D01*
X97454663Y-108209959D01*
X97480459Y-108188789D01*
X97518755Y-108142125D01*
X97564959Y-108085825D01*
X97610833Y-108000000D01*
X97627749Y-107968352D01*
X97666415Y-107840888D01*
X97676200Y-107741541D01*
X97676200Y-107741539D01*
X97679471Y-107708331D01*
X97676200Y-107675123D01*
X97676200Y-104517955D01*
X97744135Y-104416282D01*
X100650000Y-104416282D01*
X100650000Y-104583718D01*
X100682665Y-104747936D01*
X100746740Y-104902626D01*
X100839762Y-105041844D01*
X100958156Y-105160238D01*
X101097374Y-105253260D01*
X101252064Y-105317335D01*
X101388104Y-105344395D01*
X101498366Y-105454657D01*
X101519541Y-105480459D01*
X101594340Y-105541844D01*
X101622506Y-105564959D01*
X101739977Y-105627749D01*
X101867442Y-105666415D01*
X102000000Y-105679471D01*
X102033210Y-105676200D01*
X102482045Y-105676200D01*
X102597374Y-105753260D01*
X102752064Y-105817335D01*
X102916282Y-105850000D01*
X103083718Y-105850000D01*
X103247936Y-105817335D01*
X103402626Y-105753260D01*
X103541844Y-105660238D01*
X103660238Y-105541844D01*
X103753260Y-105402626D01*
X103817335Y-105247936D01*
X103850000Y-105083718D01*
X103850000Y-104916282D01*
X103817335Y-104752064D01*
X103753260Y-104597374D01*
X103660238Y-104458156D01*
X103541844Y-104339762D01*
X103402626Y-104246740D01*
X103247936Y-104182665D01*
X103083718Y-104150000D01*
X102916282Y-104150000D01*
X102752064Y-104182665D01*
X102597374Y-104246740D01*
X102482045Y-104323800D01*
X102331604Y-104323800D01*
X102317335Y-104252064D01*
X102253260Y-104097374D01*
X102160238Y-103958156D01*
X102118364Y-103916282D01*
X105150000Y-103916282D01*
X105150000Y-104083718D01*
X105182665Y-104247936D01*
X105246740Y-104402626D01*
X105339762Y-104541844D01*
X105458156Y-104660238D01*
X105597374Y-104753260D01*
X105752064Y-104817335D01*
X105888104Y-104844395D01*
X105998366Y-104954657D01*
X106019541Y-104980459D01*
X106094340Y-105041844D01*
X106122506Y-105064959D01*
X106239977Y-105127749D01*
X106367442Y-105166415D01*
X106500000Y-105179471D01*
X106533210Y-105176200D01*
X107482045Y-105176200D01*
X107597374Y-105253260D01*
X107752064Y-105317335D01*
X107916282Y-105350000D01*
X108083718Y-105350000D01*
X108247936Y-105317335D01*
X108402626Y-105253260D01*
X108541844Y-105160238D01*
X108660238Y-105041844D01*
X108753260Y-104902626D01*
X108817335Y-104747936D01*
X108850000Y-104583718D01*
X108850000Y-104416282D01*
X110650000Y-104416282D01*
X110650000Y-104583718D01*
X110682665Y-104747936D01*
X110746740Y-104902626D01*
X110839762Y-105041844D01*
X110958156Y-105160238D01*
X111097374Y-105253260D01*
X111252064Y-105317335D01*
X111388104Y-105344395D01*
X111498366Y-105454657D01*
X111519541Y-105480459D01*
X111594340Y-105541844D01*
X111622506Y-105564959D01*
X111739977Y-105627749D01*
X111867442Y-105666415D01*
X112000000Y-105679471D01*
X112033210Y-105676200D01*
X112482045Y-105676200D01*
X112597374Y-105753260D01*
X112752064Y-105817335D01*
X112916282Y-105850000D01*
X113083718Y-105850000D01*
X113247936Y-105817335D01*
X113402626Y-105753260D01*
X113541844Y-105660238D01*
X113660238Y-105541844D01*
X113753260Y-105402626D01*
X113817335Y-105247936D01*
X113850000Y-105083718D01*
X113850000Y-104916282D01*
X113817335Y-104752064D01*
X113753260Y-104597374D01*
X113660238Y-104458156D01*
X113541844Y-104339762D01*
X113402626Y-104246740D01*
X113247936Y-104182665D01*
X113083718Y-104150000D01*
X112916282Y-104150000D01*
X112752064Y-104182665D01*
X112597374Y-104246740D01*
X112482045Y-104323800D01*
X112331604Y-104323800D01*
X112317335Y-104252064D01*
X112253260Y-104097374D01*
X112160238Y-103958156D01*
X112041844Y-103839762D01*
X111902626Y-103746740D01*
X111747936Y-103682665D01*
X111583718Y-103650000D01*
X111416282Y-103650000D01*
X111252064Y-103682665D01*
X111097374Y-103746740D01*
X110958156Y-103839762D01*
X110839762Y-103958156D01*
X110746740Y-104097374D01*
X110682665Y-104252064D01*
X110650000Y-104416282D01*
X108850000Y-104416282D01*
X108817335Y-104252064D01*
X108753260Y-104097374D01*
X108660238Y-103958156D01*
X108541844Y-103839762D01*
X108402626Y-103746740D01*
X108247936Y-103682665D01*
X108083718Y-103650000D01*
X107916282Y-103650000D01*
X107752064Y-103682665D01*
X107597374Y-103746740D01*
X107482045Y-103823800D01*
X106831604Y-103823800D01*
X106817335Y-103752064D01*
X106753260Y-103597374D01*
X106660238Y-103458156D01*
X106541844Y-103339762D01*
X106402626Y-103246740D01*
X106247936Y-103182665D01*
X106083718Y-103150000D01*
X105916282Y-103150000D01*
X105752064Y-103182665D01*
X105597374Y-103246740D01*
X105458156Y-103339762D01*
X105339762Y-103458156D01*
X105246740Y-103597374D01*
X105182665Y-103752064D01*
X105150000Y-103916282D01*
X102118364Y-103916282D01*
X102041844Y-103839762D01*
X101902626Y-103746740D01*
X101747936Y-103682665D01*
X101583718Y-103650000D01*
X101416282Y-103650000D01*
X101252064Y-103682665D01*
X101097374Y-103746740D01*
X100958156Y-103839762D01*
X100839762Y-103958156D01*
X100746740Y-104097374D01*
X100682665Y-104252064D01*
X100650000Y-104416282D01*
X97744135Y-104416282D01*
X97753260Y-104402626D01*
X97817335Y-104247936D01*
X97850000Y-104083718D01*
X97850000Y-103916282D01*
X97817335Y-103752064D01*
X97753260Y-103597374D01*
X97660238Y-103458156D01*
X97541844Y-103339762D01*
X97402626Y-103246740D01*
X97247936Y-103182665D01*
X97083718Y-103150000D01*
X96916282Y-103150000D01*
X96752064Y-103182665D01*
X96597374Y-103246740D01*
X96458156Y-103339762D01*
X96339762Y-103458156D01*
X96246740Y-103597374D01*
X96182665Y-103752064D01*
X96150000Y-103916282D01*
X96150000Y-104083718D01*
X96182665Y-104247936D01*
X96246740Y-104402626D01*
X96323800Y-104517955D01*
X96323801Y-107214089D01*
X96247936Y-107182665D01*
X96083718Y-107150000D01*
X95916282Y-107150000D01*
X95752064Y-107182665D01*
X95597374Y-107246740D01*
X95458156Y-107339762D01*
X95339762Y-107458156D01*
X95246740Y-107597374D01*
X95182665Y-107752064D01*
X95155605Y-107888104D01*
X94415100Y-108628610D01*
X92467077Y-108628610D01*
X92933259Y-108162428D01*
X92959060Y-108141254D01*
X93043560Y-108038289D01*
X93106350Y-107920817D01*
X93145016Y-107793353D01*
X93154801Y-107694006D01*
X93154801Y-107694003D01*
X93158072Y-107660795D01*
X93154801Y-107627587D01*
X93154801Y-99511808D01*
X93158072Y-99478600D01*
X93154801Y-99445390D01*
X93145016Y-99346043D01*
X93106350Y-99218579D01*
X93043560Y-99101107D01*
X92959059Y-98998142D01*
X92933263Y-98976972D01*
X92844395Y-98888104D01*
X92817335Y-98752064D01*
X92753260Y-98597374D01*
X92660238Y-98458156D01*
X92541844Y-98339762D01*
X92402626Y-98246740D01*
X92247936Y-98182665D01*
X92083718Y-98150000D01*
X91916282Y-98150000D01*
X91752064Y-98182665D01*
X91597374Y-98246740D01*
X91458156Y-98339762D01*
X91339762Y-98458156D01*
X91246740Y-98597374D01*
X91182665Y-98752064D01*
X91150000Y-98916282D01*
X91150000Y-99083718D01*
X91182665Y-99247936D01*
X91246740Y-99402626D01*
X91339762Y-99541844D01*
X91458156Y-99660238D01*
X91597374Y-99753260D01*
X91752064Y-99817335D01*
X91802401Y-99827348D01*
X91802401Y-103172652D01*
X91752064Y-103182665D01*
X91597374Y-103246740D01*
X91458156Y-103339762D01*
X91339762Y-103458156D01*
X91246740Y-103597374D01*
X91182665Y-103752064D01*
X91150000Y-103916282D01*
X91150000Y-104083718D01*
X91182665Y-104247936D01*
X91246740Y-104402626D01*
X91323800Y-104517955D01*
X91323801Y-107214089D01*
X91247936Y-107182665D01*
X91083718Y-107150000D01*
X90916282Y-107150000D01*
X90752064Y-107182665D01*
X90597374Y-107246740D01*
X90458156Y-107339762D01*
X90339762Y-107458156D01*
X90246740Y-107597374D01*
X90233802Y-107628610D01*
X88404423Y-107628610D01*
X88411159Y-107616008D01*
X88449825Y-107488544D01*
X88459610Y-107389197D01*
X88459610Y-107389195D01*
X88462881Y-107355987D01*
X88459610Y-107322779D01*
X88459610Y-99816617D01*
X88462881Y-99783409D01*
X88458470Y-99738623D01*
X88449825Y-99650852D01*
X88411159Y-99523388D01*
X88348369Y-99405916D01*
X88263868Y-99302951D01*
X88238072Y-99281781D01*
X87844395Y-98888105D01*
X87817335Y-98752064D01*
X87753260Y-98597374D01*
X87660238Y-98458156D01*
X87541844Y-98339762D01*
X87402626Y-98246740D01*
X87247936Y-98182665D01*
X87083718Y-98150000D01*
X86916282Y-98150000D01*
X86752064Y-98182665D01*
X86597374Y-98246740D01*
X86458156Y-98339762D01*
X86339762Y-98458156D01*
X86246740Y-98597374D01*
X86182665Y-98752064D01*
X86150000Y-98916282D01*
X86150000Y-99083718D01*
X86182665Y-99247936D01*
X86246740Y-99402626D01*
X86339762Y-99541844D01*
X86458156Y-99660238D01*
X86597374Y-99753260D01*
X86752064Y-99817335D01*
X86888105Y-99844395D01*
X87107210Y-100063501D01*
X87107210Y-103154673D01*
X87083718Y-103150000D01*
X86916282Y-103150000D01*
X86752064Y-103182665D01*
X86597374Y-103246740D01*
X86458156Y-103339762D01*
X86339762Y-103458156D01*
X86246740Y-103597374D01*
X86182665Y-103752064D01*
X86150000Y-103916282D01*
X86150000Y-104083718D01*
X86182665Y-104247936D01*
X86246740Y-104402626D01*
X86339762Y-104541844D01*
X86458156Y-104660238D01*
X86597374Y-104753260D01*
X86752064Y-104817335D01*
X86802401Y-104827348D01*
X86802402Y-106172652D01*
X86752064Y-106182665D01*
X86597374Y-106246740D01*
X86482045Y-106323800D01*
X78113207Y-106323800D01*
X78079999Y-106320529D01*
X78046791Y-106323800D01*
X78046789Y-106323800D01*
X77947442Y-106333585D01*
X77819978Y-106372251D01*
X77772037Y-106397876D01*
X77702505Y-106435041D01*
X77633479Y-106491689D01*
X77599541Y-106519541D01*
X77578371Y-106545337D01*
X74513582Y-109610127D01*
X74502949Y-109605723D01*
X74222813Y-109550000D01*
X73946290Y-109550000D01*
X77320091Y-106176200D01*
X81175122Y-106176200D01*
X81208330Y-106179471D01*
X81241538Y-106176200D01*
X81241541Y-106176200D01*
X81340888Y-106166415D01*
X81468352Y-106127749D01*
X81585824Y-106064959D01*
X81688789Y-105980459D01*
X81709968Y-105954652D01*
X82933259Y-104731362D01*
X82959060Y-104710188D01*
X83043560Y-104607223D01*
X83106350Y-104489751D01*
X83145016Y-104362287D01*
X83154801Y-104262940D01*
X83154801Y-104262938D01*
X83158072Y-104229730D01*
X83154801Y-104196522D01*
X83154801Y-99511808D01*
X83158072Y-99478600D01*
X83154801Y-99445390D01*
X83145016Y-99346043D01*
X83106350Y-99218579D01*
X83043560Y-99101107D01*
X82959059Y-98998142D01*
X82933263Y-98976972D01*
X82844395Y-98888104D01*
X82817335Y-98752064D01*
X82753260Y-98597374D01*
X82660238Y-98458156D01*
X82541844Y-98339762D01*
X82402626Y-98246740D01*
X82247936Y-98182665D01*
X82083718Y-98150000D01*
X81916282Y-98150000D01*
X81752064Y-98182665D01*
X81597374Y-98246740D01*
X81458156Y-98339762D01*
X81339762Y-98458156D01*
X81246740Y-98597374D01*
X81182665Y-98752064D01*
X81150000Y-98916282D01*
X81150000Y-99083718D01*
X81182665Y-99247936D01*
X81246740Y-99402626D01*
X81339762Y-99541844D01*
X81458156Y-99660238D01*
X81597374Y-99753260D01*
X81752064Y-99817335D01*
X81802401Y-99827348D01*
X81802402Y-103172652D01*
X81752064Y-103182665D01*
X81597374Y-103246740D01*
X81482045Y-103323800D01*
X76033208Y-103323800D01*
X76000000Y-103320529D01*
X75966792Y-103323800D01*
X75966789Y-103323800D01*
X75867442Y-103333585D01*
X75739978Y-103372251D01*
X75622506Y-103435041D01*
X75519541Y-103519541D01*
X75498367Y-103545342D01*
X69496613Y-109547097D01*
X68150000Y-109547097D01*
X68032379Y-109558682D01*
X67919279Y-109592990D01*
X67815045Y-109648704D01*
X67723683Y-109723683D01*
X67648704Y-109815045D01*
X67592990Y-109919279D01*
X67558682Y-110032379D01*
X67547097Y-110150000D01*
X67547097Y-111850000D01*
X67558682Y-111967621D01*
X67592990Y-112080721D01*
X67648704Y-112184955D01*
X67723683Y-112276317D01*
X67815045Y-112351296D01*
X67919279Y-112407010D01*
X68032379Y-112441318D01*
X68150000Y-112452903D01*
X69850000Y-112452903D01*
X69967621Y-112441318D01*
X70080721Y-112407010D01*
X70184955Y-112351296D01*
X70276317Y-112276317D01*
X70351296Y-112184955D01*
X70407010Y-112080721D01*
X70441318Y-111967621D01*
X70442725Y-111953335D01*
X70615679Y-112126289D01*
X70853167Y-112284973D01*
X71117051Y-112394277D01*
X71397187Y-112450000D01*
X71682813Y-112450000D01*
X71962949Y-112394277D01*
X72226833Y-112284973D01*
X72464321Y-112126289D01*
X72666289Y-111924321D01*
X72810000Y-111709242D01*
X72953711Y-111924321D01*
X73155679Y-112126289D01*
X73393167Y-112284973D01*
X73657051Y-112394277D01*
X73937187Y-112450000D01*
X74222813Y-112450000D01*
X74502949Y-112394277D01*
X74766833Y-112284973D01*
X75004321Y-112126289D01*
X75206289Y-111924321D01*
X75350000Y-111709242D01*
X75493711Y-111924321D01*
X75695679Y-112126289D01*
X75933167Y-112284973D01*
X76197051Y-112394277D01*
X76477187Y-112450000D01*
X76762813Y-112450000D01*
X77042949Y-112394277D01*
X77306833Y-112284973D01*
X77544321Y-112126289D01*
X77746289Y-111924321D01*
X77890000Y-111709242D01*
X78033711Y-111924321D01*
X78235679Y-112126289D01*
X78473167Y-112284973D01*
X78737051Y-112394277D01*
X79017187Y-112450000D01*
X79302813Y-112450000D01*
X79582949Y-112394277D01*
X79846833Y-112284973D01*
X80084321Y-112126289D01*
X80286289Y-111924321D01*
X80430000Y-111709242D01*
X80573711Y-111924321D01*
X80775679Y-112126289D01*
X81013167Y-112284973D01*
X81277051Y-112394277D01*
X81557187Y-112450000D01*
X81842813Y-112450000D01*
X82122949Y-112394277D01*
X82386833Y-112284973D01*
X82624321Y-112126289D01*
X82826289Y-111924321D01*
X82970000Y-111709242D01*
X83113711Y-111924321D01*
X83315679Y-112126289D01*
X83553167Y-112284973D01*
X83817051Y-112394277D01*
X84097187Y-112450000D01*
X84382813Y-112450000D01*
X84662949Y-112394277D01*
X84926833Y-112284973D01*
X85164321Y-112126289D01*
X85366289Y-111924321D01*
X85510000Y-111709242D01*
X85653711Y-111924321D01*
X85855679Y-112126289D01*
X86093167Y-112284973D01*
X86357051Y-112394277D01*
X86637187Y-112450000D01*
X86922813Y-112450000D01*
X87202949Y-112394277D01*
X87466833Y-112284973D01*
X87704321Y-112126289D01*
X87906289Y-111924321D01*
X88050000Y-111709242D01*
X88193711Y-111924321D01*
X88395679Y-112126289D01*
X88633167Y-112284973D01*
X88897051Y-112394277D01*
X89177187Y-112450000D01*
X89462813Y-112450000D01*
X89742949Y-112394277D01*
X90006833Y-112284973D01*
X90244321Y-112126289D01*
X90446289Y-111924321D01*
X90590000Y-111709242D01*
X90733711Y-111924321D01*
X90935679Y-112126289D01*
X91173167Y-112284973D01*
X91437051Y-112394277D01*
X91717187Y-112450000D01*
X92002813Y-112450000D01*
X92282949Y-112394277D01*
X92546833Y-112284973D01*
X92784321Y-112126289D01*
X92986289Y-111924321D01*
X93130000Y-111709242D01*
X93273711Y-111924321D01*
X93475679Y-112126289D01*
X93713167Y-112284973D01*
X93773000Y-112309757D01*
X93773000Y-112464292D01*
X93769483Y-112500000D01*
X93773000Y-112535707D01*
X93773000Y-112690243D01*
X93713167Y-112715027D01*
X93475679Y-112873711D01*
X93273711Y-113075679D01*
X93130000Y-113290758D01*
X92986289Y-113075679D01*
X92784321Y-112873711D01*
X92546833Y-112715027D01*
X92282949Y-112605723D01*
X92002813Y-112550000D01*
X91717187Y-112550000D01*
X91437051Y-112605723D01*
X91173167Y-112715027D01*
X90935679Y-112873711D01*
X90733711Y-113075679D01*
X90590000Y-113290758D01*
X90446289Y-113075679D01*
X90244321Y-112873711D01*
X90006833Y-112715027D01*
X89742949Y-112605723D01*
X89462813Y-112550000D01*
X89177187Y-112550000D01*
X88897051Y-112605723D01*
X88633167Y-112715027D01*
X88395679Y-112873711D01*
X88193711Y-113075679D01*
X88050000Y-113290758D01*
X87906289Y-113075679D01*
X87704321Y-112873711D01*
X87466833Y-112715027D01*
X87202949Y-112605723D01*
X86922813Y-112550000D01*
X86637187Y-112550000D01*
X86357051Y-112605723D01*
X86093167Y-112715027D01*
X85855679Y-112873711D01*
X85653711Y-113075679D01*
X85510000Y-113290758D01*
X85366289Y-113075679D01*
X85164321Y-112873711D01*
X84926833Y-112715027D01*
X84662949Y-112605723D01*
X84382813Y-112550000D01*
X84097187Y-112550000D01*
X83817051Y-112605723D01*
X83553167Y-112715027D01*
X83315679Y-112873711D01*
X83113711Y-113075679D01*
X82970000Y-113290758D01*
X82826289Y-113075679D01*
X82624321Y-112873711D01*
X82386833Y-112715027D01*
X82122949Y-112605723D01*
X81842813Y-112550000D01*
X81557187Y-112550000D01*
X81277051Y-112605723D01*
X81013167Y-112715027D01*
X80775679Y-112873711D01*
X80573711Y-113075679D01*
X80430000Y-113290758D01*
X80286289Y-113075679D01*
X80084321Y-112873711D01*
X79846833Y-112715027D01*
X79582949Y-112605723D01*
X79302813Y-112550000D01*
X79017187Y-112550000D01*
X78737051Y-112605723D01*
X78473167Y-112715027D01*
X78235679Y-112873711D01*
X78033711Y-113075679D01*
X77890000Y-113290758D01*
X77746289Y-113075679D01*
X77544321Y-112873711D01*
X77306833Y-112715027D01*
X77042949Y-112605723D01*
X76762813Y-112550000D01*
X76477187Y-112550000D01*
X76197051Y-112605723D01*
X75933167Y-112715027D01*
X75695679Y-112873711D01*
X75493711Y-113075679D01*
X75350000Y-113290758D01*
X75206289Y-113075679D01*
X75004321Y-112873711D01*
X74766833Y-112715027D01*
X74502949Y-112605723D01*
X74222813Y-112550000D01*
X73937187Y-112550000D01*
X73657051Y-112605723D01*
X73393167Y-112715027D01*
X73155679Y-112873711D01*
X72953711Y-113075679D01*
X72810000Y-113290758D01*
X72666289Y-113075679D01*
X72464321Y-112873711D01*
X72226833Y-112715027D01*
X71962949Y-112605723D01*
X71682813Y-112550000D01*
X71397187Y-112550000D01*
X71117051Y-112605723D01*
X70853167Y-112715027D01*
X70615679Y-112873711D01*
X70442725Y-113046665D01*
X70441318Y-113032379D01*
X70407010Y-112919279D01*
X70351296Y-112815045D01*
X70276317Y-112723683D01*
X70184955Y-112648704D01*
X70080721Y-112592990D01*
X69967621Y-112558682D01*
X69850000Y-112547097D01*
X68150000Y-112547097D01*
X68032379Y-112558682D01*
X67919279Y-112592990D01*
X67815045Y-112648704D01*
X67723683Y-112723683D01*
X67648704Y-112815045D01*
X67592990Y-112919279D01*
X67558682Y-113032379D01*
X67547097Y-113150000D01*
X67547097Y-114850000D01*
X67558682Y-114967621D01*
X67592990Y-115080721D01*
X67648704Y-115184955D01*
X67723683Y-115276317D01*
X67815045Y-115351296D01*
X67859392Y-115375000D01*
X63030566Y-115375000D01*
X62539276Y-115326828D01*
X62096098Y-115193025D01*
X61687353Y-114975691D01*
X61328605Y-114683103D01*
X61033521Y-114326409D01*
X60813339Y-113919189D01*
X60676444Y-113476956D01*
X60625000Y-112987497D01*
X60625000Y-112789753D01*
X60865329Y-112789753D01*
X60865329Y-113210247D01*
X60947363Y-113622661D01*
X61108279Y-114011146D01*
X61341893Y-114360774D01*
X61639226Y-114658107D01*
X61988854Y-114891721D01*
X62377339Y-115052637D01*
X62789753Y-115134671D01*
X63210247Y-115134671D01*
X63622661Y-115052637D01*
X64011146Y-114891721D01*
X64360774Y-114658107D01*
X64658107Y-114360774D01*
X64891721Y-114011146D01*
X65052637Y-113622661D01*
X65134671Y-113210247D01*
X65134671Y-112789753D01*
X65052637Y-112377339D01*
X64891721Y-111988854D01*
X64658107Y-111639226D01*
X64360774Y-111341893D01*
X64011146Y-111108279D01*
X63622661Y-110947363D01*
X63210247Y-110865329D01*
X62789753Y-110865329D01*
X62377339Y-110947363D01*
X61988854Y-111108279D01*
X61639226Y-111341893D01*
X61341893Y-111639226D01*
X61108279Y-111988854D01*
X60947363Y-112377339D01*
X60865329Y-112789753D01*
X60625000Y-112789753D01*
X60625000Y-104916282D01*
X67150000Y-104916282D01*
X67150000Y-105083718D01*
X67182665Y-105247936D01*
X67246740Y-105402626D01*
X67339762Y-105541844D01*
X67458156Y-105660238D01*
X67597374Y-105753260D01*
X67752064Y-105817335D01*
X67916282Y-105850000D01*
X68083718Y-105850000D01*
X68247936Y-105817335D01*
X68402626Y-105753260D01*
X68541844Y-105660238D01*
X68660238Y-105541844D01*
X68753260Y-105402626D01*
X68817335Y-105247936D01*
X68844395Y-105111895D01*
X69611897Y-104344395D01*
X69747936Y-104317335D01*
X69902626Y-104253260D01*
X70041844Y-104160238D01*
X70150000Y-104052082D01*
X70150000Y-104083718D01*
X70182665Y-104247936D01*
X70246740Y-104402626D01*
X70339762Y-104541844D01*
X70458156Y-104660238D01*
X70597374Y-104753260D01*
X70752064Y-104817335D01*
X70888104Y-104844395D01*
X70998366Y-104954657D01*
X71019541Y-104980459D01*
X71094340Y-105041844D01*
X71122506Y-105064959D01*
X71239977Y-105127749D01*
X71367442Y-105166415D01*
X71500000Y-105179471D01*
X71533210Y-105176200D01*
X72482045Y-105176200D01*
X72597374Y-105253260D01*
X72752064Y-105317335D01*
X72916282Y-105350000D01*
X73083718Y-105350000D01*
X73247936Y-105317335D01*
X73402626Y-105253260D01*
X73541844Y-105160238D01*
X73660238Y-105041844D01*
X73753260Y-104902626D01*
X73817335Y-104747936D01*
X73850000Y-104583718D01*
X73850000Y-104416282D01*
X73817335Y-104252064D01*
X73753260Y-104097374D01*
X73660238Y-103958156D01*
X73541844Y-103839762D01*
X73402626Y-103746740D01*
X73247936Y-103682665D01*
X73083718Y-103650000D01*
X72916282Y-103650000D01*
X72752064Y-103682665D01*
X72597374Y-103746740D01*
X72482045Y-103823800D01*
X71831604Y-103823800D01*
X71817335Y-103752064D01*
X71753260Y-103597374D01*
X71660238Y-103458156D01*
X71541844Y-103339762D01*
X71402626Y-103246740D01*
X71247936Y-103182665D01*
X71083718Y-103150000D01*
X70916282Y-103150000D01*
X70752064Y-103182665D01*
X70597374Y-103246740D01*
X70458156Y-103339762D01*
X70350000Y-103447918D01*
X70350000Y-103416282D01*
X70317335Y-103252064D01*
X70253260Y-103097374D01*
X70160238Y-102958156D01*
X70041844Y-102839762D01*
X69902626Y-102746740D01*
X69747936Y-102682665D01*
X69583718Y-102650000D01*
X69416282Y-102650000D01*
X69252064Y-102682665D01*
X69097374Y-102746740D01*
X68958156Y-102839762D01*
X68839762Y-102958156D01*
X68746740Y-103097374D01*
X68682665Y-103252064D01*
X68655605Y-103388103D01*
X67888105Y-104155605D01*
X67752064Y-104182665D01*
X67597374Y-104246740D01*
X67458156Y-104339762D01*
X67339762Y-104458156D01*
X67246740Y-104597374D01*
X67182665Y-104752064D01*
X67150000Y-104916282D01*
X60625000Y-104916282D01*
X60625000Y-94916282D01*
X129150000Y-94916282D01*
X129150000Y-95083718D01*
X129182665Y-95247936D01*
X129246740Y-95402626D01*
X129323800Y-95517955D01*
X129323801Y-96966782D01*
X129320529Y-97000000D01*
X129333586Y-97132557D01*
X129372252Y-97260022D01*
X129429670Y-97367443D01*
X129435042Y-97377494D01*
X129519542Y-97480459D01*
X129545343Y-97501633D01*
X132155605Y-100111896D01*
X132182665Y-100247936D01*
X132246740Y-100402626D01*
X132339762Y-100541844D01*
X132458156Y-100660238D01*
X132597374Y-100753260D01*
X132752064Y-100817335D01*
X132916282Y-100850000D01*
X133083718Y-100850000D01*
X133247936Y-100817335D01*
X133402626Y-100753260D01*
X133541844Y-100660238D01*
X133660238Y-100541844D01*
X133753260Y-100402626D01*
X133817335Y-100247936D01*
X133850000Y-100083718D01*
X133850000Y-99916282D01*
X133817335Y-99752064D01*
X133753260Y-99597374D01*
X133660238Y-99458156D01*
X133541844Y-99339762D01*
X133402626Y-99246740D01*
X133247936Y-99182665D01*
X133111896Y-99155605D01*
X130676200Y-96719910D01*
X130676200Y-95517955D01*
X130753260Y-95402626D01*
X130817335Y-95247936D01*
X130850000Y-95083718D01*
X130850000Y-94916282D01*
X130817335Y-94752064D01*
X130753260Y-94597374D01*
X130660238Y-94458156D01*
X130618364Y-94416282D01*
X137150000Y-94416282D01*
X137150000Y-94583718D01*
X137182665Y-94747936D01*
X137246740Y-94902626D01*
X137339762Y-95041844D01*
X137458156Y-95160238D01*
X137597374Y-95253260D01*
X137752064Y-95317335D01*
X137916282Y-95350000D01*
X138083718Y-95350000D01*
X138247936Y-95317335D01*
X138402626Y-95253260D01*
X138517955Y-95176200D01*
X142168396Y-95176200D01*
X142182665Y-95247936D01*
X142246740Y-95402626D01*
X142339762Y-95541844D01*
X142458156Y-95660238D01*
X142597374Y-95753260D01*
X142752064Y-95817335D01*
X142916282Y-95850000D01*
X143083718Y-95850000D01*
X143247936Y-95817335D01*
X143402626Y-95753260D01*
X143541844Y-95660238D01*
X143660238Y-95541844D01*
X143753260Y-95402626D01*
X143817335Y-95247936D01*
X143850000Y-95083718D01*
X143850000Y-94916282D01*
X143817335Y-94752064D01*
X143785911Y-94676200D01*
X146719910Y-94676200D01*
X147155605Y-95111895D01*
X147182665Y-95247936D01*
X147246740Y-95402626D01*
X147339762Y-95541844D01*
X147458156Y-95660238D01*
X147597374Y-95753260D01*
X147752064Y-95817335D01*
X147916282Y-95850000D01*
X148083718Y-95850000D01*
X148247936Y-95817335D01*
X148402626Y-95753260D01*
X148541844Y-95660238D01*
X148660238Y-95541844D01*
X148753260Y-95402626D01*
X148817335Y-95247936D01*
X148850000Y-95083718D01*
X148850000Y-94916282D01*
X148817335Y-94752064D01*
X148753260Y-94597374D01*
X148660238Y-94458156D01*
X148541844Y-94339762D01*
X148402626Y-94246740D01*
X148247936Y-94182665D01*
X148111895Y-94155605D01*
X147501638Y-93545348D01*
X147480459Y-93519541D01*
X147377494Y-93435041D01*
X147260022Y-93372251D01*
X147132558Y-93333585D01*
X147033211Y-93323800D01*
X147033208Y-93323800D01*
X147000000Y-93320529D01*
X146966792Y-93323800D01*
X141517955Y-93323800D01*
X141402626Y-93246740D01*
X141247936Y-93182665D01*
X141083718Y-93150000D01*
X140916282Y-93150000D01*
X140752064Y-93182665D01*
X140597374Y-93246740D01*
X140458156Y-93339762D01*
X140339762Y-93458156D01*
X140246740Y-93597374D01*
X140182665Y-93752064D01*
X140168396Y-93823800D01*
X138517955Y-93823800D01*
X138402626Y-93746740D01*
X138247936Y-93682665D01*
X138083718Y-93650000D01*
X137916282Y-93650000D01*
X137752064Y-93682665D01*
X137597374Y-93746740D01*
X137458156Y-93839762D01*
X137339762Y-93958156D01*
X137246740Y-94097374D01*
X137182665Y-94252064D01*
X137150000Y-94416282D01*
X130618364Y-94416282D01*
X130541844Y-94339762D01*
X130402626Y-94246740D01*
X130247936Y-94182665D01*
X130083718Y-94150000D01*
X129916282Y-94150000D01*
X129752064Y-94182665D01*
X129597374Y-94246740D01*
X129458156Y-94339762D01*
X129339762Y-94458156D01*
X129246740Y-94597374D01*
X129182665Y-94752064D01*
X129150000Y-94916282D01*
X60625000Y-94916282D01*
X60625000Y-78030567D01*
X60648612Y-77789753D01*
X60865329Y-77789753D01*
X60865329Y-78210247D01*
X60947363Y-78622661D01*
X61108279Y-79011146D01*
X61341893Y-79360774D01*
X61639226Y-79658107D01*
X61988854Y-79891721D01*
X62377339Y-80052637D01*
X62789753Y-80134671D01*
X63210247Y-80134671D01*
X63622661Y-80052637D01*
X64011146Y-79891721D01*
X64360774Y-79658107D01*
X64658107Y-79360774D01*
X64891721Y-79011146D01*
X65052637Y-78622661D01*
X65134671Y-78210247D01*
X65134671Y-77789753D01*
X65052637Y-77377339D01*
X64891721Y-76988854D01*
X64658107Y-76639226D01*
X64360774Y-76341893D01*
X64011146Y-76108279D01*
X63622661Y-75947363D01*
X63210247Y-75865329D01*
X62789753Y-75865329D01*
X62377339Y-75947363D01*
X61988854Y-76108279D01*
X61639226Y-76341893D01*
X61341893Y-76639226D01*
X61108279Y-76988854D01*
X60947363Y-77377339D01*
X60865329Y-77789753D01*
X60648612Y-77789753D01*
X60673172Y-77539278D01*
X60806975Y-77096100D01*
X61024309Y-76687353D01*
X61316894Y-76328607D01*
X61673593Y-76033520D01*
X62080811Y-75813339D01*
X62523046Y-75676444D01*
X63012503Y-75625000D01*
X73859392Y-75625000D01*
X73815045Y-75648704D01*
G36*
X100547097Y-114850000D02*
G01*
X100558682Y-114967621D01*
X100592990Y-115080721D01*
X100648704Y-115184955D01*
X100723683Y-115276317D01*
X100815045Y-115351296D01*
X100859392Y-115375000D01*
X94869488Y-115375000D01*
X95086833Y-115284973D01*
X95324321Y-115126289D01*
X95526289Y-114924321D01*
X95684973Y-114686833D01*
X95794277Y-114422949D01*
X95850000Y-114142813D01*
X95850000Y-113857187D01*
X95794277Y-113577051D01*
X95684973Y-113313167D01*
X95627398Y-113227000D01*
X100547097Y-113227000D01*
X100547097Y-114850000D01*
G37*
X100547097Y-114850000D02*
X100558682Y-114967621D01*
X100592990Y-115080721D01*
X100648704Y-115184955D01*
X100723683Y-115276317D01*
X100815045Y-115351296D01*
X100859392Y-115375000D01*
X94869488Y-115375000D01*
X95086833Y-115284973D01*
X95324321Y-115126289D01*
X95526289Y-114924321D01*
X95684973Y-114686833D01*
X95794277Y-114422949D01*
X95850000Y-114142813D01*
X95850000Y-113857187D01*
X95794277Y-113577051D01*
X95684973Y-113313167D01*
X95627398Y-113227000D01*
X100547097Y-113227000D01*
X100547097Y-114850000D01*
G36*
X133547097Y-114850000D02*
G01*
X133558682Y-114967621D01*
X133592990Y-115080721D01*
X133648704Y-115184955D01*
X133723683Y-115276317D01*
X133815045Y-115351296D01*
X133859392Y-115375000D01*
X127869488Y-115375000D01*
X128086833Y-115284973D01*
X128324321Y-115126289D01*
X128526289Y-114924321D01*
X128684973Y-114686833D01*
X128794277Y-114422949D01*
X128850000Y-114142813D01*
X128850000Y-113857187D01*
X128794277Y-113577051D01*
X128684973Y-113313167D01*
X128627398Y-113227000D01*
X133547097Y-113227000D01*
X133547097Y-114850000D01*
G37*
X133547097Y-114850000D02*
X133558682Y-114967621D01*
X133592990Y-115080721D01*
X133648704Y-115184955D01*
X133723683Y-115276317D01*
X133815045Y-115351296D01*
X133859392Y-115375000D01*
X127869488Y-115375000D01*
X128086833Y-115284973D01*
X128324321Y-115126289D01*
X128526289Y-114924321D01*
X128684973Y-114686833D01*
X128794277Y-114422949D01*
X128850000Y-114142813D01*
X128850000Y-113857187D01*
X128794277Y-113577051D01*
X128684973Y-113313167D01*
X128627398Y-113227000D01*
X133547097Y-113227000D01*
X133547097Y-114850000D01*
G36*
X140650000Y-104416282D02*
G01*
X140650000Y-104583718D01*
X140682665Y-104747936D01*
X140746740Y-104902626D01*
X140839762Y-105041844D01*
X140958156Y-105160238D01*
X141097374Y-105253260D01*
X141252064Y-105317335D01*
X141388104Y-105344395D01*
X141498366Y-105454657D01*
X141519541Y-105480459D01*
X141594340Y-105541844D01*
X141622506Y-105564959D01*
X141739977Y-105627749D01*
X141867442Y-105666415D01*
X141912824Y-105670885D01*
X137973582Y-109610127D01*
X137962949Y-109605723D01*
X137682813Y-109550000D01*
X137397187Y-109550000D01*
X137117051Y-109605723D01*
X136853167Y-109715027D01*
X136615679Y-109873711D01*
X136442725Y-110046665D01*
X136441318Y-110032379D01*
X136407010Y-109919279D01*
X136351296Y-109815045D01*
X136276317Y-109723683D01*
X136184955Y-109648704D01*
X136080721Y-109592990D01*
X135967621Y-109558682D01*
X135850000Y-109547097D01*
X135676200Y-109547097D01*
X135676200Y-109280090D01*
X140677311Y-104278980D01*
X140650000Y-104416282D01*
G37*
X140650000Y-104416282D02*
X140650000Y-104583718D01*
X140682665Y-104747936D01*
X140746740Y-104902626D01*
X140839762Y-105041844D01*
X140958156Y-105160238D01*
X141097374Y-105253260D01*
X141252064Y-105317335D01*
X141388104Y-105344395D01*
X141498366Y-105454657D01*
X141519541Y-105480459D01*
X141594340Y-105541844D01*
X141622506Y-105564959D01*
X141739977Y-105627749D01*
X141867442Y-105666415D01*
X141912824Y-105670885D01*
X137973582Y-109610127D01*
X137962949Y-109605723D01*
X137682813Y-109550000D01*
X137397187Y-109550000D01*
X137117051Y-109605723D01*
X136853167Y-109715027D01*
X136615679Y-109873711D01*
X136442725Y-110046665D01*
X136441318Y-110032379D01*
X136407010Y-109919279D01*
X136351296Y-109815045D01*
X136276317Y-109723683D01*
X136184955Y-109648704D01*
X136080721Y-109592990D01*
X135967621Y-109558682D01*
X135850000Y-109547097D01*
X135676200Y-109547097D01*
X135676200Y-109280090D01*
X140677311Y-104278980D01*
X140650000Y-104416282D01*
G36*
X147155605Y-105111897D02*
G01*
X147182665Y-105247936D01*
X147214089Y-105323800D01*
X143785911Y-105323800D01*
X143817335Y-105247936D01*
X143850000Y-105083718D01*
X143850000Y-104916282D01*
X143817335Y-104752064D01*
X143753260Y-104597374D01*
X143660238Y-104458156D01*
X143541844Y-104339762D01*
X143402626Y-104246740D01*
X143247936Y-104182665D01*
X143215434Y-104176200D01*
X146219910Y-104176200D01*
X147155605Y-105111897D01*
G37*
X147155605Y-105111897D02*
X147182665Y-105247936D01*
X147214089Y-105323800D01*
X143785911Y-105323800D01*
X143817335Y-105247936D01*
X143850000Y-105083718D01*
X143850000Y-104916282D01*
X143817335Y-104752064D01*
X143753260Y-104597374D01*
X143660238Y-104458156D01*
X143541844Y-104339762D01*
X143402626Y-104246740D01*
X143247936Y-104182665D01*
X143215434Y-104176200D01*
X146219910Y-104176200D01*
X147155605Y-105111897D01*
%TD*%
M02*
