M48
; DRILL file {KiCad (5.1.5-131-g305ed0b65)-1} date 05/10/20 18:35:48
; FORMAT={-:-/ absolute / inch / decimal}
; #@! TF.CreationDate,2020-05-10T18:35:48+08:00
; #@! TF.GenerationSoftware,Kicad,Pcbnew,(5.1.5-131-g305ed0b65)-1
FMAT,2
INCH
T1C0.0118
T2C0.0157
T3C0.0276
T4C0.0394
T5C0.0630
%
G90
G05
T1
X2.5984Y-3.7402
X2.5984Y-3.937
X2.5984Y-4.1339
X2.6378Y-3.3071
X2.6575Y-3.3465
X2.6772Y-4.1339
X2.7362Y-4.0748
X2.7559Y-3.3256
X2.762Y-3.0769
X2.7953Y-3.7402
X2.7953Y-3.937
X2.7953Y-4.0945
X2.7953Y-4.1339
X2.815Y-3.3858
X2.8543Y-3.5827
X2.874Y-4.1142
X2.9134Y-3.5039
X2.9232Y-3.2579
X2.9528Y-3.3465
X2.9921Y-3.7402
X2.9921Y-3.937
X2.9921Y-4.2323
X3.0118Y-3.7008
X3.0118Y-4.1142
X3.0709Y-4.1339
X3.1102Y-4.0551
X3.1299Y-3.3465
X3.189Y-3.7402
X3.189Y-3.937
X3.2283Y-3.8976
X3.2283Y-4.0945
X3.2874Y-3.3858
X3.3268Y-3.5827
X3.3858Y-3.2283
X3.3858Y-3.5039
X3.3858Y-3.7402
X3.3858Y-3.937
X3.3858Y-4.1339
X3.4252Y-3.3465
X3.4252Y-3.8976
X3.4252Y-4.0945
X3.4252Y-4.2126
X3.4843Y-3.7008
X3.5433Y-3.0512
X3.5433Y-3.0906
X3.5433Y-3.1299
X3.5433Y-3.1693
X3.5433Y-3.2087
X3.5433Y-3.248
X3.563Y-3.0315
X3.563Y-3.0709
X3.563Y-3.1102
X3.563Y-3.1496
X3.563Y-3.189
X3.563Y-3.2283
X3.563Y-3.2677
X3.5827Y-3.248
X3.5827Y-3.7402
X3.5827Y-3.937
X3.5827Y-4.1339
X3.5827Y-4.252
X3.6024Y-3.2283
X3.6024Y-3.2677
X3.6024Y-3.3465
X3.622Y-3.248
X3.622Y-3.8976
X3.622Y-4.0945
X3.6417Y-3.2283
X3.6417Y-3.2677
X3.6614Y-3.248
X3.6811Y-3.2677
X3.7205Y-3.0315
X3.7402Y-3.0512
X3.7598Y-3.0315
X3.7598Y-3.0709
X3.7598Y-3.3858
X3.7795Y-3.0512
X3.7795Y-3.2087
X3.7795Y-3.7402
X3.7795Y-3.937
X3.7795Y-4.1339
X3.7795Y-4.252
X3.7992Y-3.0315
X3.7992Y-3.0709
X3.7992Y-3.5827
X3.8189Y-4.0945
X3.8583Y-3.5039
X3.8976Y-3.3465
X3.9567Y-3.7008
X3.9764Y-3.7402
X3.9764Y-3.937
X3.9764Y-4.1339
X3.9961Y-3.0315
X3.9961Y-4.1142
X4.0551Y-4.1339
X4.0748Y-3.3465
X4.1732Y-3.7402
X4.1732Y-3.937
X4.1732Y-4.0945
X4.1732Y-4.1339
X4.2323Y-3.3858
X4.252Y-4.1142
X4.2717Y-3.5827
X4.3307Y-3.5039
X4.3701Y-3.3465
X4.3701Y-3.7402
X4.3701Y-3.937
X4.3701Y-4.1339
X4.3898Y-4.1142
X4.4291Y-3.7008
X4.4488Y-4.1339
X4.5472Y-3.3465
X4.5669Y-3.7402
X4.5669Y-3.937
X4.5669Y-4.1339
X4.6063Y-3.8976
X4.6063Y-4.0945
X4.6063Y-4.2126
X4.7047Y-3.3858
X4.7441Y-3.5827
X4.7638Y-3.7402
X4.7638Y-3.937
X4.7638Y-4.1339
X4.8031Y-3.5039
X4.8031Y-3.8976
X4.8031Y-4.0945
X4.8031Y-4.2126
X4.8425Y-3.3465
X4.9016Y-3.7008
X4.9606Y-3.7402
X4.9606Y-3.937
X4.9606Y-4.1339
X4.9606Y-4.252
X5.0Y-3.8976
X5.0Y-4.0945
X5.0197Y-3.3465
X5.1181Y-3.7402
X5.1575Y-3.7402
X5.1575Y-3.937
X5.1575Y-4.0945
X5.1575Y-4.1339
X5.1575Y-4.252
X5.1772Y-3.3858
X5.2165Y-3.5827
X5.2362Y-3.937
X5.2362Y-4.1339
X5.2756Y-3.5039
X5.315Y-3.3465
X5.3543Y-3.7402
X5.3543Y-3.937
X5.3543Y-4.1339
X5.374Y-3.7008
X5.374Y-3.9173
X5.374Y-4.1142
X5.4331Y-3.7205
X5.4331Y-3.937
X5.4331Y-4.1339
X5.4528Y-3.8976
X5.4528Y-4.0945
X5.4528Y-4.0945
X5.4921Y-3.3465
X5.4921Y-4.1732
X5.5131Y-3.7795
X5.5315Y-3.8386
X5.5512Y-3.7008
X5.5512Y-3.937
X5.5512Y-4.1339
X5.5581Y-4.0748
X5.5709Y-4.1142
X5.6299Y-3.7402
X5.6299Y-3.937
X5.6299Y-4.1339
X5.6496Y-3.3858
X5.689Y-3.5827
X5.689Y-4.0354
X5.748Y-3.5039
X5.748Y-3.7402
X5.748Y-3.8583
X5.748Y-3.937
X5.748Y-4.1339
X5.7874Y-3.3465
X5.8268Y-3.7402
X5.8268Y-3.937
X5.8268Y-4.1339
X5.8465Y-3.7008
X5.9252Y-3.622
X5.9449Y-3.7402
X5.9449Y-3.937
X5.9449Y-4.1339
X5.9646Y-3.3465
X5.9843Y-3.8976
X5.9843Y-4.0945
X5.9843Y-4.1732
X6.0187Y-3.5618
X6.1024Y-4.0945
X6.122Y-3.3858
X6.1417Y-3.7402
X6.1417Y-3.937
X6.1417Y-4.1339
X6.1614Y-3.5827
X6.1811Y-3.8976
X6.1811Y-4.0945
X6.1811Y-4.1929
X6.2205Y-3.5039
X6.2598Y-3.3465
X6.3189Y-3.7008
X6.3386Y-3.7402
X6.3386Y-3.937
X6.3386Y-4.1339
X6.378Y-3.8976
X6.378Y-4.0945
X6.378Y-4.2126
X6.4173Y-3.8976
X7.4291Y-3.7008
X9.0157Y-3.9961
T2
X7.185Y-3.5039
X7.7756Y-3.4055
X8.2244Y-4.0787
X8.3661Y-3.9961
X8.3661Y-4.0354
X8.3661Y-4.0748
X8.3661Y-4.1142
X8.4055Y-3.9961
X8.4055Y-4.0354
X8.4055Y-4.0748
X8.4055Y-4.1142
X8.4835Y-3.935
X8.4937Y-3.3949
X8.6811Y-4.1811
X8.6811Y-4.252
T3
X7.8315Y-4.0945
X7.9315Y-4.1945
X8.0315Y-4.0945
T4
X2.9528Y-3.0315
X3.0528Y-3.0315
X3.1528Y-3.0315
X3.2528Y-3.0315
X3.3528Y-3.0315
X3.4528Y-3.0315
X5.315Y-4.3701
X5.415Y-4.3701
X5.515Y-4.3701
X5.615Y-4.3701
X5.715Y-4.3701
X5.815Y-4.3701
X5.915Y-4.3701
X6.015Y-4.3701
X6.115Y-4.3701
X6.215Y-4.3701
X6.315Y-4.3701
X6.415Y-4.3701
X4.0157Y-4.3701
X4.1157Y-4.3701
X4.2157Y-4.3701
X4.3157Y-4.3701
X4.4157Y-4.3701
X4.5157Y-4.3701
X4.6157Y-4.3701
X4.7157Y-4.3701
X4.8157Y-4.3701
X4.9157Y-4.3701
X5.0157Y-4.3701
X5.1157Y-4.3701
X5.315Y-4.4882
X5.415Y-4.4882
X5.515Y-4.4882
X5.615Y-4.4882
X5.715Y-4.4882
X5.815Y-4.4882
X5.915Y-4.4882
X6.015Y-4.4882
X6.115Y-4.4882
X6.215Y-4.4882
X6.315Y-4.4882
X6.415Y-4.4882
X4.0157Y-4.4882
X4.1157Y-4.4882
X4.2157Y-4.4882
X4.3157Y-4.4882
X4.4157Y-4.4882
X4.5157Y-4.4882
X4.6157Y-4.4882
X4.7157Y-4.4882
X4.8157Y-4.4882
X4.9157Y-4.4882
X5.0157Y-4.4882
X5.1157Y-4.4882
X4.0551Y-3.1102
X4.0551Y-3.2102
X2.7165Y-4.3701
X2.8165Y-4.3701
X2.9165Y-4.3701
X3.0165Y-4.3701
X3.1165Y-4.3701
X3.2165Y-4.3701
X3.3165Y-4.3701
X3.4165Y-4.3701
X3.5165Y-4.3701
X3.6165Y-4.3701
X3.7165Y-4.3701
X3.8165Y-4.3701
X2.7165Y-4.4882
X2.8165Y-4.4882
X2.9165Y-4.4882
X3.0165Y-4.4882
X3.1165Y-4.4882
X3.2165Y-4.4882
X3.3165Y-4.4882
X3.4165Y-4.4882
X3.5165Y-4.4882
X3.6165Y-4.4882
X3.7165Y-4.4882
X3.8165Y-4.4882
T5
X7.0079Y-3.0827
X7.0079Y-3.5827
T4
G00X7.8268Y-3.189
M15
G01X7.8268Y-3.2677
M16
G05
G00X8.0512Y-3.1102
M15
G01X7.9724Y-3.1102
M16
G05
G00X8.0512Y-3.3465
M15
G01X7.9724Y-3.3465
M16
G05
T0
M30
