M48
; DRILL file {KiCad (5.1.5-131-g305ed0b65)-1} date 05/01/20 23:59:18
; FORMAT={-:-/ absolute / inch / decimal}
; #@! TF.CreationDate,2020-05-01T23:59:18+08:00
; #@! TF.GenerationSoftware,Kicad,Pcbnew,(5.1.5-131-g305ed0b65)-1
FMAT,2
INCH
T1C0.0118
T2C0.0157
T3C0.0276
T4C0.0394
%
G90
G05
T1
X4.124Y-2.2343
X4.5079Y-1.3976
X4.5079Y-2.126
X4.5866Y-2.3819
T2
X3.8189Y-1.2106
X3.8189Y-1.25
X3.8189Y-1.2992
X3.8189Y-1.3386
X3.8189Y-1.9587
X3.8189Y-1.998
X3.8189Y-2.0374
X3.8189Y-2.0768
X3.8189Y-2.1161
X3.8583Y-1.2106
X3.8583Y-1.25
X3.8583Y-1.2992
X3.8583Y-1.3386
X3.8583Y-1.9587
X3.8583Y-1.998
X3.8583Y-2.0374
X3.8583Y-2.0768
X3.8583Y-2.1161
X3.8976Y-1.2106
X3.8976Y-1.25
X3.8976Y-1.2992
X3.8976Y-1.3386
X3.937Y-1.2106
X3.937Y-1.25
X3.937Y-1.2992
X3.937Y-1.3386
X3.9764Y-1.2106
X3.9764Y-1.25
X3.9764Y-1.2992
X3.9764Y-1.3386
X4.0157Y-1.2106
X4.0157Y-1.25
X4.0157Y-1.2992
X4.0157Y-1.3386
X4.0551Y-1.2106
X4.0551Y-1.25
X4.0551Y-1.2992
X4.0551Y-1.3386
X4.0945Y-1.2106
X4.0945Y-1.25
X4.0945Y-1.2992
X4.0945Y-1.3386
X4.1339Y-1.2106
X4.1339Y-1.25
X4.1732Y-1.2106
X4.1732Y-1.25
X4.2126Y-1.2106
X4.2126Y-1.25
X4.252Y-1.2106
X4.252Y-1.25
X4.2913Y-1.2106
X4.2913Y-1.25
X4.3406Y-2.1654
X4.3406Y-2.2047
X4.3406Y-2.2441
X4.3799Y-2.1654
X4.3799Y-2.2047
X4.3799Y-2.2441
X5.0Y-1.998
X5.0Y-2.0374
X5.0Y-2.0768
X5.0Y-2.1161
X5.0394Y-1.998
X5.0394Y-2.0374
X5.0394Y-2.0768
X5.0394Y-2.1161
X5.0787Y-2.0374
X5.0787Y-2.0768
X5.0787Y-2.1161
T3
X3.8551Y-2.2638
X3.9551Y-2.3638
X4.0551Y-2.2638
T4
X5.0984Y-1.752
X5.0984Y-1.852
T4
G00X3.8583Y-1.4173
M15
G01X3.8583Y-1.4961
M16
G05
G00X3.937Y-1.6417
M15
G01X4.0157Y-1.6417
M16
G05
G00X4.0945Y-1.4173
M15
G01X4.0945Y-1.4961
M16
G05
T0
M30
