%TF.GenerationSoftware,KiCad,Pcbnew,(5.1.5-131-g305ed0b65)-1*%
%TF.CreationDate,2020-09-08T16:09:36+08:00*%
%TF.ProjectId,PowerSupply,506f7765-7253-4757-9070-6c792e6b6963,rev?*%
%TF.SameCoordinates,Original*%
%TF.FileFunction,Copper,L1,Top*%
%TF.FilePolarity,Positive*%
%FSLAX46Y46*%
G04 Gerber Fmt 4.6, Leading zero omitted, Abs format (unit mm)*
G04 Created by KiCad (PCBNEW (5.1.5-131-g305ed0b65)-1) date 2020-09-08 16:09:36*
%MOMM*%
%LPD*%
G01*
G04 APERTURE LIST*
%TA.AperFunction,ComponentPad*%
%ADD10R,1.700000X1.700000*%
%TD*%
%TA.AperFunction,ComponentPad*%
%ADD11O,1.700000X1.700000*%
%TD*%
%TA.AperFunction,ComponentPad*%
%ADD12R,3.500000X3.500000*%
%TD*%
%TA.AperFunction,SMDPad,CuDef*%
%ADD13R,2.500000X2.300000*%
%TD*%
%TA.AperFunction,SMDPad,CuDef*%
%ADD14R,2.900000X5.400000*%
%TD*%
%TA.AperFunction,SMDPad,CuDef*%
%ADD15R,4.600000X1.100000*%
%TD*%
%TA.AperFunction,SMDPad,CuDef*%
%ADD16R,9.400000X10.800000*%
%TD*%
%TA.AperFunction,ComponentPad*%
%ADD17C,1.260000*%
%TD*%
%TA.AperFunction,ViaPad*%
%ADD18C,0.800000*%
%TD*%
%TA.AperFunction,ViaPad*%
%ADD19C,0.600000*%
%TD*%
%TA.AperFunction,Conductor*%
%ADD20C,0.203200*%
%TD*%
%TA.AperFunction,Conductor*%
%ADD21C,0.508000*%
%TD*%
%TA.AperFunction,Conductor*%
%ADD22C,0.300000*%
%TD*%
G04 APERTURE END LIST*
%TO.P,C4,1*%
%TO.N,+180V*%
%TA.AperFunction,SMDPad,CuDef*%
G36*
G01*
X157500000Y-91250000D02*
X159500000Y-91250000D01*
G75*
G02*
X159750000Y-91500000I0J-250000D01*
G01*
X159750000Y-95000000D01*
G75*
G02*
X159500000Y-95250000I-250000J0D01*
G01*
X157500000Y-95250000D01*
G75*
G02*
X157250000Y-95000000I0J250000D01*
G01*
X157250000Y-91500000D01*
G75*
G02*
X157500000Y-91250000I250000J0D01*
G01*
G37*
%TD.AperFunction*%
%TO.P,C4,2*%
%TO.N,GND*%
%TA.AperFunction,SMDPad,CuDef*%
G36*
G01*
X157500000Y-99250000D02*
X159500000Y-99250000D01*
G75*
G02*
X159750000Y-99500000I0J-250000D01*
G01*
X159750000Y-103000000D01*
G75*
G02*
X159500000Y-103250000I-250000J0D01*
G01*
X157500000Y-103250000D01*
G75*
G02*
X157250000Y-103000000I0J250000D01*
G01*
X157250000Y-99500000D01*
G75*
G02*
X157500000Y-99250000I250000J0D01*
G01*
G37*
%TD.AperFunction*%
%TD*%
D10*
%TO.P,J2,1*%
%TO.N,+180V*%
X163500000Y-86500000D03*
D11*
%TO.P,J2,2*%
%TO.N,GND*%
X163500000Y-89040000D03*
%TD*%
D12*
%TO.P,J1,1*%
%TO.N,+12V*%
X138000000Y-79000000D03*
%TO.P,J1,2*%
%TO.N,GND*%
%TA.AperFunction,ComponentPad*%
G36*
G01*
X130500000Y-80000000D02*
X130500000Y-78000000D01*
G75*
G02*
X131250000Y-77250000I750000J0D01*
G01*
X132750000Y-77250000D01*
G75*
G02*
X133500000Y-78000000I0J-750000D01*
G01*
X133500000Y-80000000D01*
G75*
G02*
X132750000Y-80750000I-750000J0D01*
G01*
X131250000Y-80750000D01*
G75*
G02*
X130500000Y-80000000I0J750000D01*
G01*
G37*
%TD.AperFunction*%
%TO.P,J1,3*%
%TO.N,N/C*%
%TA.AperFunction,ComponentPad*%
G36*
G01*
X133250000Y-84575000D02*
X133250000Y-82825000D01*
G75*
G02*
X134125000Y-81950000I875000J0D01*
G01*
X135875000Y-81950000D01*
G75*
G02*
X136750000Y-82825000I0J-875000D01*
G01*
X136750000Y-84575000D01*
G75*
G02*
X135875000Y-85450000I-875000J0D01*
G01*
X134125000Y-85450000D01*
G75*
G02*
X133250000Y-84575000I0J875000D01*
G01*
G37*
%TD.AperFunction*%
%TD*%
%TO.P,C1,1*%
%TO.N,+12V*%
%TA.AperFunction,SMDPad,CuDef*%
G36*
G01*
X133975000Y-86350000D02*
X136025000Y-86350000D01*
G75*
G02*
X136275000Y-86600000I0J-250000D01*
G01*
X136275000Y-88175000D01*
G75*
G02*
X136025000Y-88425000I-250000J0D01*
G01*
X133975000Y-88425000D01*
G75*
G02*
X133725000Y-88175000I0J250000D01*
G01*
X133725000Y-86600000D01*
G75*
G02*
X133975000Y-86350000I250000J0D01*
G01*
G37*
%TD.AperFunction*%
%TO.P,C1,2*%
%TO.N,GND*%
%TA.AperFunction,SMDPad,CuDef*%
G36*
G01*
X133975000Y-92575000D02*
X136025000Y-92575000D01*
G75*
G02*
X136275000Y-92825000I0J-250000D01*
G01*
X136275000Y-94400000D01*
G75*
G02*
X136025000Y-94650000I-250000J0D01*
G01*
X133975000Y-94650000D01*
G75*
G02*
X133725000Y-94400000I0J250000D01*
G01*
X133725000Y-92825000D01*
G75*
G02*
X133975000Y-92575000I250000J0D01*
G01*
G37*
%TD.AperFunction*%
%TD*%
%TO.P,C2,2*%
%TO.N,GND*%
%TA.AperFunction,SMDPad,CuDef*%
G36*
G01*
X139543750Y-99262500D02*
X140456250Y-99262500D01*
G75*
G02*
X140700000Y-99506250I0J-243750D01*
G01*
X140700000Y-99993750D01*
G75*
G02*
X140456250Y-100237500I-243750J0D01*
G01*
X139543750Y-100237500D01*
G75*
G02*
X139300000Y-99993750I0J243750D01*
G01*
X139300000Y-99506250D01*
G75*
G02*
X139543750Y-99262500I243750J0D01*
G01*
G37*
%TD.AperFunction*%
%TO.P,C2,1*%
%TO.N,+12V*%
%TA.AperFunction,SMDPad,CuDef*%
G36*
G01*
X139543750Y-97387500D02*
X140456250Y-97387500D01*
G75*
G02*
X140700000Y-97631250I0J-243750D01*
G01*
X140700000Y-98118750D01*
G75*
G02*
X140456250Y-98362500I-243750J0D01*
G01*
X139543750Y-98362500D01*
G75*
G02*
X139300000Y-98118750I0J243750D01*
G01*
X139300000Y-97631250D01*
G75*
G02*
X139543750Y-97387500I243750J0D01*
G01*
G37*
%TD.AperFunction*%
%TD*%
%TO.P,C3,1*%
%TO.N,Net-(C3-Pad1)*%
%TA.AperFunction,SMDPad,CuDef*%
G36*
G01*
X147487500Y-101043750D02*
X147487500Y-101956250D01*
G75*
G02*
X147243750Y-102200000I-243750J0D01*
G01*
X146756250Y-102200000D01*
G75*
G02*
X146512500Y-101956250I0J243750D01*
G01*
X146512500Y-101043750D01*
G75*
G02*
X146756250Y-100800000I243750J0D01*
G01*
X147243750Y-100800000D01*
G75*
G02*
X147487500Y-101043750I0J-243750D01*
G01*
G37*
%TD.AperFunction*%
%TO.P,C3,2*%
%TO.N,GND*%
%TA.AperFunction,SMDPad,CuDef*%
G36*
G01*
X145612500Y-101043750D02*
X145612500Y-101956250D01*
G75*
G02*
X145368750Y-102200000I-243750J0D01*
G01*
X144881250Y-102200000D01*
G75*
G02*
X144637500Y-101956250I0J243750D01*
G01*
X144637500Y-101043750D01*
G75*
G02*
X144881250Y-100800000I243750J0D01*
G01*
X145368750Y-100800000D01*
G75*
G02*
X145612500Y-101043750I0J-243750D01*
G01*
G37*
%TD.AperFunction*%
%TD*%
D13*
%TO.P,D1,1*%
%TO.N,+180V*%
X158650000Y-86500000D03*
%TO.P,D1,2*%
%TO.N,Net-(D1-Pad2)*%
X154350000Y-86500000D03*
%TD*%
D14*
%TO.P,L1,1*%
%TO.N,+12V*%
X141050000Y-88500000D03*
%TO.P,L1,2*%
%TO.N,Net-(D1-Pad2)*%
X150950000Y-88500000D03*
%TD*%
D15*
%TO.P,Q1,1*%
%TO.N,Net-(Q1-Pad1)*%
X150225000Y-75460000D03*
%TO.P,Q1,3*%
%TO.N,Net-(Q1-Pad3)*%
X150225000Y-80540000D03*
D16*
%TO.P,Q1,2*%
%TO.N,Net-(D1-Pad2)*%
X159375000Y-78000000D03*
%TD*%
%TO.P,R1,1*%
%TO.N,Net-(Q1-Pad3)*%
%TA.AperFunction,SMDPad,CuDef*%
G36*
G01*
X147575000Y-78574999D02*
X147575000Y-81425001D01*
G75*
G02*
X147325001Y-81675000I-249999J0D01*
G01*
X146474999Y-81675000D01*
G75*
G02*
X146225000Y-81425001I0J249999D01*
G01*
X146225000Y-78574999D01*
G75*
G02*
X146474999Y-78325000I249999J0D01*
G01*
X147325001Y-78325000D01*
G75*
G02*
X147575000Y-78574999I0J-249999D01*
G01*
G37*
%TD.AperFunction*%
%TO.P,R1,2*%
%TO.N,GND*%
%TA.AperFunction,SMDPad,CuDef*%
G36*
G01*
X141775000Y-78574999D02*
X141775000Y-81425001D01*
G75*
G02*
X141525001Y-81675000I-249999J0D01*
G01*
X140674999Y-81675000D01*
G75*
G02*
X140425000Y-81425001I0J249999D01*
G01*
X140425000Y-78574999D01*
G75*
G02*
X140674999Y-78325000I249999J0D01*
G01*
X141525001Y-78325000D01*
G75*
G02*
X141775000Y-78574999I0J-249999D01*
G01*
G37*
%TD.AperFunction*%
%TD*%
%TO.P,R2,1*%
%TO.N,+180V*%
%TA.AperFunction,SMDPad,CuDef*%
G36*
G01*
X150375000Y-95475000D02*
X151625000Y-95475000D01*
G75*
G02*
X151875000Y-95725000I0J-250000D01*
G01*
X151875000Y-96475000D01*
G75*
G02*
X151625000Y-96725000I-250000J0D01*
G01*
X150375000Y-96725000D01*
G75*
G02*
X150125000Y-96475000I0J250000D01*
G01*
X150125000Y-95725000D01*
G75*
G02*
X150375000Y-95475000I250000J0D01*
G01*
G37*
%TD.AperFunction*%
%TO.P,R2,2*%
%TO.N,Net-(R2-Pad2)*%
%TA.AperFunction,SMDPad,CuDef*%
G36*
G01*
X150375000Y-98275000D02*
X151625000Y-98275000D01*
G75*
G02*
X151875000Y-98525000I0J-250000D01*
G01*
X151875000Y-99275000D01*
G75*
G02*
X151625000Y-99525000I-250000J0D01*
G01*
X150375000Y-99525000D01*
G75*
G02*
X150125000Y-99275000I0J250000D01*
G01*
X150125000Y-98525000D01*
G75*
G02*
X150375000Y-98275000I250000J0D01*
G01*
G37*
%TD.AperFunction*%
%TD*%
%TO.P,R3,1*%
%TO.N,Net-(R2-Pad2)*%
%TA.AperFunction,SMDPad,CuDef*%
G36*
G01*
X151425000Y-100543750D02*
X151425000Y-101456250D01*
G75*
G02*
X151181250Y-101700000I-243750J0D01*
G01*
X150693750Y-101700000D01*
G75*
G02*
X150450000Y-101456250I0J243750D01*
G01*
X150450000Y-100543750D01*
G75*
G02*
X150693750Y-100300000I243750J0D01*
G01*
X151181250Y-100300000D01*
G75*
G02*
X151425000Y-100543750I0J-243750D01*
G01*
G37*
%TD.AperFunction*%
%TO.P,R3,2*%
%TO.N,Net-(R3-Pad2)*%
%TA.AperFunction,SMDPad,CuDef*%
G36*
G01*
X149550000Y-100543750D02*
X149550000Y-101456250D01*
G75*
G02*
X149306250Y-101700000I-243750J0D01*
G01*
X148818750Y-101700000D01*
G75*
G02*
X148575000Y-101456250I0J243750D01*
G01*
X148575000Y-100543750D01*
G75*
G02*
X148818750Y-100300000I243750J0D01*
G01*
X149306250Y-100300000D01*
G75*
G02*
X149550000Y-100543750I0J-243750D01*
G01*
G37*
%TD.AperFunction*%
%TD*%
D17*
%TO.P,RV1,3*%
%TO.N,GND*%
X131920000Y-99500000D03*
%TO.P,RV1,2*%
%TO.N,Net-(R3-Pad2)*%
X134460000Y-102040000D03*
%TO.P,RV1,1*%
%TO.N,Net-(RV1-Pad1)*%
X137000000Y-99500000D03*
%TD*%
%TO.P,U1,1*%
%TO.N,Net-(Q1-Pad1)*%
%TA.AperFunction,SMDPad,CuDef*%
G36*
G01*
X141050000Y-96245000D02*
X141050000Y-95945000D01*
G75*
G02*
X141200000Y-95795000I150000J0D01*
G01*
X142850000Y-95795000D01*
G75*
G02*
X143000000Y-95945000I0J-150000D01*
G01*
X143000000Y-96245000D01*
G75*
G02*
X142850000Y-96395000I-150000J0D01*
G01*
X141200000Y-96395000D01*
G75*
G02*
X141050000Y-96245000I0J150000D01*
G01*
G37*
%TD.AperFunction*%
%TO.P,U1,2*%
%TO.N,+12V*%
%TA.AperFunction,SMDPad,CuDef*%
G36*
G01*
X141050000Y-97515000D02*
X141050000Y-97215000D01*
G75*
G02*
X141200000Y-97065000I150000J0D01*
G01*
X142850000Y-97065000D01*
G75*
G02*
X143000000Y-97215000I0J-150000D01*
G01*
X143000000Y-97515000D01*
G75*
G02*
X142850000Y-97665000I-150000J0D01*
G01*
X141200000Y-97665000D01*
G75*
G02*
X141050000Y-97515000I0J150000D01*
G01*
G37*
%TD.AperFunction*%
%TO.P,U1,3*%
%TO.N,Net-(R2-Pad2)*%
%TA.AperFunction,SMDPad,CuDef*%
G36*
G01*
X141050000Y-98785000D02*
X141050000Y-98485000D01*
G75*
G02*
X141200000Y-98335000I150000J0D01*
G01*
X142850000Y-98335000D01*
G75*
G02*
X143000000Y-98485000I0J-150000D01*
G01*
X143000000Y-98785000D01*
G75*
G02*
X142850000Y-98935000I-150000J0D01*
G01*
X141200000Y-98935000D01*
G75*
G02*
X141050000Y-98785000I0J150000D01*
G01*
G37*
%TD.AperFunction*%
%TO.P,U1,4*%
%TO.N,GND*%
%TA.AperFunction,SMDPad,CuDef*%
G36*
G01*
X141050000Y-100055000D02*
X141050000Y-99755000D01*
G75*
G02*
X141200000Y-99605000I150000J0D01*
G01*
X142850000Y-99605000D01*
G75*
G02*
X143000000Y-99755000I0J-150000D01*
G01*
X143000000Y-100055000D01*
G75*
G02*
X142850000Y-100205000I-150000J0D01*
G01*
X141200000Y-100205000D01*
G75*
G02*
X141050000Y-100055000I0J150000D01*
G01*
G37*
%TD.AperFunction*%
%TO.P,U1,5*%
%TO.N,Net-(C3-Pad1)*%
%TA.AperFunction,SMDPad,CuDef*%
G36*
G01*
X146000000Y-100055000D02*
X146000000Y-99755000D01*
G75*
G02*
X146150000Y-99605000I150000J0D01*
G01*
X147800000Y-99605000D01*
G75*
G02*
X147950000Y-99755000I0J-150000D01*
G01*
X147950000Y-100055000D01*
G75*
G02*
X147800000Y-100205000I-150000J0D01*
G01*
X146150000Y-100205000D01*
G75*
G02*
X146000000Y-100055000I0J150000D01*
G01*
G37*
%TD.AperFunction*%
%TO.P,U1,6*%
%TO.N,GND*%
%TA.AperFunction,SMDPad,CuDef*%
G36*
G01*
X146000000Y-98785000D02*
X146000000Y-98485000D01*
G75*
G02*
X146150000Y-98335000I150000J0D01*
G01*
X147800000Y-98335000D01*
G75*
G02*
X147950000Y-98485000I0J-150000D01*
G01*
X147950000Y-98785000D01*
G75*
G02*
X147800000Y-98935000I-150000J0D01*
G01*
X146150000Y-98935000D01*
G75*
G02*
X146000000Y-98785000I0J150000D01*
G01*
G37*
%TD.AperFunction*%
%TO.P,U1,7*%
%TA.AperFunction,SMDPad,CuDef*%
G36*
G01*
X146000000Y-97515000D02*
X146000000Y-97215000D01*
G75*
G02*
X146150000Y-97065000I150000J0D01*
G01*
X147800000Y-97065000D01*
G75*
G02*
X147950000Y-97215000I0J-150000D01*
G01*
X147950000Y-97515000D01*
G75*
G02*
X147800000Y-97665000I-150000J0D01*
G01*
X146150000Y-97665000D01*
G75*
G02*
X146000000Y-97515000I0J150000D01*
G01*
G37*
%TD.AperFunction*%
%TO.P,U1,8*%
%TO.N,Net-(Q1-Pad3)*%
%TA.AperFunction,SMDPad,CuDef*%
G36*
G01*
X146000000Y-96245000D02*
X146000000Y-95945000D01*
G75*
G02*
X146150000Y-95795000I150000J0D01*
G01*
X147800000Y-95795000D01*
G75*
G02*
X147950000Y-95945000I0J-150000D01*
G01*
X147950000Y-96245000D01*
G75*
G02*
X147800000Y-96395000I-150000J0D01*
G01*
X146150000Y-96395000D01*
G75*
G02*
X146000000Y-96245000I0J150000D01*
G01*
G37*
%TD.AperFunction*%
%TD*%
D18*
%TO.N,GND*%
X144250000Y-97000000D03*
X145250000Y-97000000D03*
X145250000Y-98000000D03*
X144250000Y-98000000D03*
X145250000Y-99000000D03*
X144250000Y-99000000D03*
X140000000Y-73750000D03*
X139000000Y-73750000D03*
X138000000Y-73750000D03*
X137000000Y-73750000D03*
X136000000Y-73750000D03*
X135000000Y-73750000D03*
X134000000Y-73750000D03*
X133000000Y-73750000D03*
X132000000Y-73750000D03*
X131000000Y-73750000D03*
X131000000Y-72750000D03*
X132000000Y-72750000D03*
X133000000Y-72750000D03*
X134000000Y-72750000D03*
X135000000Y-72750000D03*
X136000000Y-72750000D03*
X137000000Y-72750000D03*
X138000000Y-72750000D03*
X139000000Y-72750000D03*
X140000000Y-72750000D03*
X131000000Y-91750000D03*
X132000000Y-91750000D03*
X132000000Y-92750000D03*
X131000000Y-92750000D03*
X131000000Y-93750000D03*
X132000000Y-93750000D03*
X132000000Y-94750000D03*
X131000000Y-94750000D03*
X131000000Y-95750000D03*
X132000000Y-95750000D03*
X131000000Y-75000000D03*
X132000000Y-75000000D03*
X133000000Y-75000000D03*
X134000000Y-75000000D03*
X135000000Y-75000000D03*
X136000000Y-75000000D03*
X137000000Y-75000000D03*
X138000000Y-75000000D03*
X138000000Y-76000000D03*
X137000000Y-76000000D03*
X136000000Y-76000000D03*
X135000000Y-76000000D03*
X134000000Y-76000000D03*
X133000000Y-76000000D03*
X132000000Y-76000000D03*
X131000000Y-76000000D03*
X161000000Y-92750000D03*
X162000000Y-92750000D03*
X162000000Y-93750000D03*
X163000000Y-93750000D03*
X161000000Y-93750000D03*
X161000000Y-94750000D03*
X162000000Y-94750000D03*
X163000000Y-94750000D03*
X163000000Y-95750000D03*
X162000000Y-95750000D03*
X161000000Y-95750000D03*
X141000000Y-73750000D03*
X141000000Y-72750000D03*
X142000000Y-72750000D03*
X142000000Y-73750000D03*
X143000000Y-72750000D03*
X143000000Y-73750000D03*
D19*
%TO.N,Net-(Q1-Pad3)*%
X148500000Y-96000000D03*
X148500000Y-77500000D03*
%TO.N,Net-(R2-Pad2)*%
X150500000Y-102500000D03*
X138750000Y-98750000D03*
%TD*%
D20*
%TO.N,Net-(C3-Pad1)*%
X147000000Y-99930000D02*
X146975000Y-99905000D01*
X147000000Y-101500000D02*
X147000000Y-99930000D01*
%TO.N,+180V*%
X158500000Y-93250000D02*
X158500000Y-95250000D01*
X153850000Y-93250000D02*
X151000000Y-96100000D01*
X158500000Y-93250000D02*
X153850000Y-93250000D01*
D21*
%TO.N,Net-(Q1-Pad1)*%
X142025000Y-96095000D02*
X143405000Y-96095000D01*
X143405000Y-96095000D02*
X145500000Y-94000000D01*
X145500000Y-94000000D02*
X145500000Y-77000000D01*
X147040000Y-75460000D02*
X150225000Y-75460000D01*
X145500000Y-77000000D02*
X147040000Y-75460000D01*
D20*
%TO.N,Net-(Q1-Pad3)*%
X146975000Y-96095000D02*
X148405000Y-96095000D01*
X148405000Y-96095000D02*
X148500000Y-96000000D01*
X148500000Y-78400000D02*
X146900000Y-80000000D01*
X148500000Y-77500000D02*
X148500000Y-78400000D01*
%TO.N,Net-(R2-Pad2)*%
X151000000Y-100937500D02*
X150937500Y-101000000D01*
X151000000Y-98900000D02*
X151000000Y-100937500D01*
X150937500Y-101000000D02*
X150937500Y-102062500D01*
X150937500Y-102062500D02*
X150500000Y-102500000D01*
X141910000Y-98750000D02*
X142025000Y-98635000D01*
X138750000Y-98750000D02*
X141910000Y-98750000D01*
%TO.N,Net-(R3-Pad2)*%
X134924810Y-102504810D02*
X134460000Y-102040000D01*
X147557690Y-102504810D02*
X134924810Y-102504810D01*
X149062500Y-101000000D02*
X147557690Y-102504810D01*
%TD*%
D22*
%TO.N,Net-(Q1-Pad3)*%
G36*
X152756278Y-78164133D02*
G01*
X152803988Y-78196012D01*
X152835867Y-78243722D01*
X152850000Y-78314774D01*
X152850000Y-81685226D01*
X152835867Y-81756278D01*
X152803988Y-81803988D01*
X152756278Y-81835867D01*
X152685226Y-81850000D01*
X146314774Y-81850000D01*
X146243722Y-81835867D01*
X146204000Y-81809325D01*
X146204000Y-78190675D01*
X146243722Y-78164133D01*
X146314774Y-78150000D01*
X152685226Y-78150000D01*
X152756278Y-78164133D01*
G37*
X152756278Y-78164133D02*
X152803988Y-78196012D01*
X152835867Y-78243722D01*
X152850000Y-78314774D01*
X152850000Y-81685226D01*
X152835867Y-81756278D01*
X152803988Y-81803988D01*
X152756278Y-81835867D01*
X152685226Y-81850000D01*
X146314774Y-81850000D01*
X146243722Y-81835867D01*
X146204000Y-81809325D01*
X146204000Y-78190675D01*
X146243722Y-78164133D01*
X146314774Y-78150000D01*
X152685226Y-78150000D01*
X152756278Y-78164133D01*
%TO.N,+180V*%
G36*
X164500000Y-87350000D02*
G01*
X160300000Y-87350000D01*
X160270737Y-87352882D01*
X160155932Y-87375718D01*
X160127793Y-87384254D01*
X160101859Y-87398116D01*
X160004532Y-87463148D01*
X159981802Y-87481802D01*
X159963148Y-87504532D01*
X159898116Y-87601859D01*
X159884254Y-87627792D01*
X159875718Y-87655932D01*
X159852882Y-87770737D01*
X159850000Y-87800000D01*
X159850000Y-94935226D01*
X159835867Y-95006278D01*
X159803988Y-95053988D01*
X159756278Y-95085867D01*
X159685226Y-95100000D01*
X157314774Y-95100000D01*
X157243722Y-95085867D01*
X157196012Y-95053988D01*
X157164133Y-95006278D01*
X157150000Y-94935226D01*
X157150000Y-85314774D01*
X157164133Y-85243722D01*
X157196012Y-85196012D01*
X157243722Y-85164133D01*
X157314774Y-85150000D01*
X164500000Y-85150000D01*
X164500000Y-87350000D01*
G37*
X164500000Y-87350000D02*
X160300000Y-87350000D01*
X160270737Y-87352882D01*
X160155932Y-87375718D01*
X160127793Y-87384254D01*
X160101859Y-87398116D01*
X160004532Y-87463148D01*
X159981802Y-87481802D01*
X159963148Y-87504532D01*
X159898116Y-87601859D01*
X159884254Y-87627792D01*
X159875718Y-87655932D01*
X159852882Y-87770737D01*
X159850000Y-87800000D01*
X159850000Y-94935226D01*
X159835867Y-95006278D01*
X159803988Y-95053988D01*
X159756278Y-95085867D01*
X159685226Y-95100000D01*
X157314774Y-95100000D01*
X157243722Y-95085867D01*
X157196012Y-95053988D01*
X157164133Y-95006278D01*
X157150000Y-94935226D01*
X157150000Y-85314774D01*
X157164133Y-85243722D01*
X157196012Y-85196012D01*
X157243722Y-85164133D01*
X157314774Y-85150000D01*
X164500000Y-85150000D01*
X164500000Y-87350000D01*
%TO.N,Net-(D1-Pad2)*%
G36*
X164500001Y-84350000D02*
G01*
X156800000Y-84350000D01*
X156770737Y-84352882D01*
X156655932Y-84375718D01*
X156627793Y-84384254D01*
X156601859Y-84398116D01*
X156504532Y-84463148D01*
X156481802Y-84481802D01*
X156463148Y-84504532D01*
X156398116Y-84601859D01*
X156384254Y-84627792D01*
X156375718Y-84655932D01*
X156352882Y-84770737D01*
X156350000Y-84800000D01*
X156350000Y-91185226D01*
X156335867Y-91256278D01*
X156303988Y-91303988D01*
X156256278Y-91335867D01*
X156185226Y-91350000D01*
X149814774Y-91350000D01*
X149743722Y-91335867D01*
X149696012Y-91303988D01*
X149664133Y-91256278D01*
X149650000Y-91185226D01*
X149650000Y-82814774D01*
X149664133Y-82743722D01*
X149696012Y-82696012D01*
X149743722Y-82664133D01*
X149814774Y-82650000D01*
X153200000Y-82650000D01*
X153229263Y-82647118D01*
X153344068Y-82624282D01*
X153372207Y-82615746D01*
X153398141Y-82601884D01*
X153495468Y-82536852D01*
X153518198Y-82518198D01*
X153536852Y-82495468D01*
X153601884Y-82398141D01*
X153615746Y-82372208D01*
X153624282Y-82344068D01*
X153647118Y-82229263D01*
X153650000Y-82200000D01*
X153650000Y-72500000D01*
X164500001Y-72500000D01*
X164500001Y-84350000D01*
G37*
X164500001Y-84350000D02*
X156800000Y-84350000D01*
X156770737Y-84352882D01*
X156655932Y-84375718D01*
X156627793Y-84384254D01*
X156601859Y-84398116D01*
X156504532Y-84463148D01*
X156481802Y-84481802D01*
X156463148Y-84504532D01*
X156398116Y-84601859D01*
X156384254Y-84627792D01*
X156375718Y-84655932D01*
X156352882Y-84770737D01*
X156350000Y-84800000D01*
X156350000Y-91185226D01*
X156335867Y-91256278D01*
X156303988Y-91303988D01*
X156256278Y-91335867D01*
X156185226Y-91350000D01*
X149814774Y-91350000D01*
X149743722Y-91335867D01*
X149696012Y-91303988D01*
X149664133Y-91256278D01*
X149650000Y-91185226D01*
X149650000Y-82814774D01*
X149664133Y-82743722D01*
X149696012Y-82696012D01*
X149743722Y-82664133D01*
X149814774Y-82650000D01*
X153200000Y-82650000D01*
X153229263Y-82647118D01*
X153344068Y-82624282D01*
X153372207Y-82615746D01*
X153398141Y-82601884D01*
X153495468Y-82536852D01*
X153518198Y-82518198D01*
X153536852Y-82495468D01*
X153601884Y-82398141D01*
X153615746Y-82372208D01*
X153624282Y-82344068D01*
X153647118Y-82229263D01*
X153650000Y-82200000D01*
X153650000Y-72500000D01*
X164500001Y-72500000D01*
X164500001Y-84350000D01*
%TO.N,GND*%
G36*
X144850000Y-76722632D02*
G01*
X144846442Y-76729288D01*
X144806187Y-76861992D01*
X144792594Y-77000000D01*
X144796001Y-77034591D01*
X144796001Y-84309325D01*
X144756278Y-84335867D01*
X144685226Y-84350000D01*
X140814774Y-84350000D01*
X140743722Y-84335867D01*
X140696012Y-84303988D01*
X140664133Y-84256278D01*
X140650000Y-84185226D01*
X140650000Y-76800000D01*
X140647118Y-76770737D01*
X140624282Y-76655932D01*
X140615746Y-76627793D01*
X140601884Y-76601859D01*
X140536852Y-76504532D01*
X140518198Y-76481802D01*
X140495468Y-76463148D01*
X140398141Y-76398116D01*
X140372208Y-76384254D01*
X140344068Y-76375718D01*
X140229263Y-76352882D01*
X140200000Y-76350000D01*
X134800000Y-76350000D01*
X134770737Y-76352882D01*
X134655932Y-76375718D01*
X134627793Y-76384254D01*
X134601859Y-76398116D01*
X134504532Y-76463148D01*
X134481802Y-76481802D01*
X134463148Y-76504532D01*
X134398116Y-76601859D01*
X134384254Y-76627792D01*
X134375718Y-76655932D01*
X134352882Y-76770737D01*
X134350000Y-76800000D01*
X134350000Y-80685226D01*
X134335867Y-80756278D01*
X134303988Y-80803988D01*
X134256278Y-80835867D01*
X134185226Y-80850000D01*
X130500000Y-80850000D01*
X130500000Y-72500000D01*
X144850000Y-72500000D01*
X144850000Y-76722632D01*
G37*
X144850000Y-76722632D02*
X144846442Y-76729288D01*
X144806187Y-76861992D01*
X144792594Y-77000000D01*
X144796001Y-77034591D01*
X144796001Y-84309325D01*
X144756278Y-84335867D01*
X144685226Y-84350000D01*
X140814774Y-84350000D01*
X140743722Y-84335867D01*
X140696012Y-84303988D01*
X140664133Y-84256278D01*
X140650000Y-84185226D01*
X140650000Y-76800000D01*
X140647118Y-76770737D01*
X140624282Y-76655932D01*
X140615746Y-76627793D01*
X140601884Y-76601859D01*
X140536852Y-76504532D01*
X140518198Y-76481802D01*
X140495468Y-76463148D01*
X140398141Y-76398116D01*
X140372208Y-76384254D01*
X140344068Y-76375718D01*
X140229263Y-76352882D01*
X140200000Y-76350000D01*
X134800000Y-76350000D01*
X134770737Y-76352882D01*
X134655932Y-76375718D01*
X134627793Y-76384254D01*
X134601859Y-76398116D01*
X134504532Y-76463148D01*
X134481802Y-76481802D01*
X134463148Y-76504532D01*
X134398116Y-76601859D01*
X134384254Y-76627792D01*
X134375718Y-76655932D01*
X134352882Y-76770737D01*
X134350000Y-76800000D01*
X134350000Y-80685226D01*
X134335867Y-80756278D01*
X134303988Y-80803988D01*
X134256278Y-80835867D01*
X134185226Y-80850000D01*
X130500000Y-80850000D01*
X130500000Y-72500000D01*
X144850000Y-72500000D01*
X144850000Y-76722632D01*
%TO.N,+12V*%
G36*
X139756278Y-77164133D02*
G01*
X139803988Y-77196012D01*
X139835867Y-77243722D01*
X139850000Y-77314774D01*
X139850000Y-84700000D01*
X139852882Y-84729263D01*
X139875718Y-84844068D01*
X139884254Y-84872207D01*
X139898116Y-84898141D01*
X139963148Y-84995468D01*
X139981802Y-85018198D01*
X140004532Y-85036852D01*
X140101859Y-85101884D01*
X140127792Y-85115746D01*
X140155932Y-85124282D01*
X140270737Y-85147118D01*
X140300000Y-85150000D01*
X144685226Y-85150000D01*
X144756278Y-85164133D01*
X144796001Y-85190675D01*
X144796000Y-93708393D01*
X143154395Y-95350000D01*
X142922867Y-95350000D01*
X142850000Y-95342823D01*
X141200000Y-95342823D01*
X141082521Y-95354394D01*
X140969557Y-95388661D01*
X140865448Y-95444308D01*
X140774197Y-95519197D01*
X140699308Y-95610448D01*
X140643661Y-95714557D01*
X140609394Y-95827521D01*
X140597823Y-95945000D01*
X140597823Y-96245000D01*
X140609394Y-96362479D01*
X140643661Y-96475443D01*
X140699308Y-96579552D01*
X140774197Y-96670803D01*
X140865448Y-96745692D01*
X140969557Y-96801339D01*
X141082521Y-96835606D01*
X141200000Y-96847177D01*
X142850000Y-96847177D01*
X142850000Y-97685226D01*
X142835867Y-97756278D01*
X142803988Y-97803988D01*
X142756278Y-97835867D01*
X142685226Y-97850000D01*
X141250000Y-97850000D01*
X141220737Y-97852882D01*
X141125066Y-97871912D01*
X141096927Y-97880448D01*
X141070994Y-97894309D01*
X141061177Y-97900869D01*
X140969557Y-97928661D01*
X140865448Y-97984308D01*
X140774197Y-98059197D01*
X140699308Y-98150448D01*
X140673677Y-98198400D01*
X139259060Y-98198400D01*
X139228097Y-98167437D01*
X139105258Y-98085359D01*
X138968767Y-98028822D01*
X138823869Y-98000000D01*
X138676131Y-98000000D01*
X138531233Y-98028822D01*
X138394742Y-98085359D01*
X138271903Y-98167437D01*
X138171715Y-98267625D01*
X138164133Y-98256278D01*
X138150000Y-98185226D01*
X138150000Y-90800000D01*
X138147118Y-90770737D01*
X138124282Y-90655932D01*
X138115746Y-90627793D01*
X138101884Y-90601859D01*
X138036852Y-90504532D01*
X138018198Y-90481802D01*
X137995468Y-90463148D01*
X137898141Y-90398116D01*
X137872208Y-90384254D01*
X137844068Y-90375718D01*
X137729263Y-90352882D01*
X137700000Y-90350000D01*
X130500000Y-90350000D01*
X130500000Y-81650000D01*
X133521413Y-81650000D01*
X133387660Y-81721493D01*
X133186544Y-81886544D01*
X133021493Y-82087660D01*
X132898848Y-82317111D01*
X132823324Y-82566081D01*
X132797823Y-82825000D01*
X132797823Y-84575000D01*
X132823324Y-84833919D01*
X132898848Y-85082889D01*
X133021493Y-85312340D01*
X133186544Y-85513456D01*
X133387660Y-85678507D01*
X133617111Y-85801152D01*
X133866081Y-85876676D01*
X134125000Y-85902177D01*
X135875000Y-85902177D01*
X136133919Y-85876676D01*
X136382889Y-85801152D01*
X136612340Y-85678507D01*
X136813456Y-85513456D01*
X136978507Y-85312340D01*
X137101152Y-85082889D01*
X137176676Y-84833919D01*
X137202177Y-84575000D01*
X137202177Y-82825000D01*
X137176676Y-82566081D01*
X137101152Y-82317111D01*
X136978507Y-82087660D01*
X136813456Y-81886544D01*
X136612340Y-81721493D01*
X136382889Y-81598848D01*
X136133919Y-81523324D01*
X135875000Y-81497823D01*
X135034919Y-81497823D01*
X135036852Y-81495468D01*
X135101884Y-81398141D01*
X135115746Y-81372208D01*
X135124282Y-81344068D01*
X135147118Y-81229263D01*
X135150000Y-81200000D01*
X135150000Y-77314774D01*
X135164133Y-77243722D01*
X135196012Y-77196012D01*
X135243722Y-77164133D01*
X135314774Y-77150000D01*
X139685226Y-77150000D01*
X139756278Y-77164133D01*
G37*
X139756278Y-77164133D02*
X139803988Y-77196012D01*
X139835867Y-77243722D01*
X139850000Y-77314774D01*
X139850000Y-84700000D01*
X139852882Y-84729263D01*
X139875718Y-84844068D01*
X139884254Y-84872207D01*
X139898116Y-84898141D01*
X139963148Y-84995468D01*
X139981802Y-85018198D01*
X140004532Y-85036852D01*
X140101859Y-85101884D01*
X140127792Y-85115746D01*
X140155932Y-85124282D01*
X140270737Y-85147118D01*
X140300000Y-85150000D01*
X144685226Y-85150000D01*
X144756278Y-85164133D01*
X144796001Y-85190675D01*
X144796000Y-93708393D01*
X143154395Y-95350000D01*
X142922867Y-95350000D01*
X142850000Y-95342823D01*
X141200000Y-95342823D01*
X141082521Y-95354394D01*
X140969557Y-95388661D01*
X140865448Y-95444308D01*
X140774197Y-95519197D01*
X140699308Y-95610448D01*
X140643661Y-95714557D01*
X140609394Y-95827521D01*
X140597823Y-95945000D01*
X140597823Y-96245000D01*
X140609394Y-96362479D01*
X140643661Y-96475443D01*
X140699308Y-96579552D01*
X140774197Y-96670803D01*
X140865448Y-96745692D01*
X140969557Y-96801339D01*
X141082521Y-96835606D01*
X141200000Y-96847177D01*
X142850000Y-96847177D01*
X142850000Y-97685226D01*
X142835867Y-97756278D01*
X142803988Y-97803988D01*
X142756278Y-97835867D01*
X142685226Y-97850000D01*
X141250000Y-97850000D01*
X141220737Y-97852882D01*
X141125066Y-97871912D01*
X141096927Y-97880448D01*
X141070994Y-97894309D01*
X141061177Y-97900869D01*
X140969557Y-97928661D01*
X140865448Y-97984308D01*
X140774197Y-98059197D01*
X140699308Y-98150448D01*
X140673677Y-98198400D01*
X139259060Y-98198400D01*
X139228097Y-98167437D01*
X139105258Y-98085359D01*
X138968767Y-98028822D01*
X138823869Y-98000000D01*
X138676131Y-98000000D01*
X138531233Y-98028822D01*
X138394742Y-98085359D01*
X138271903Y-98167437D01*
X138171715Y-98267625D01*
X138164133Y-98256278D01*
X138150000Y-98185226D01*
X138150000Y-90800000D01*
X138147118Y-90770737D01*
X138124282Y-90655932D01*
X138115746Y-90627793D01*
X138101884Y-90601859D01*
X138036852Y-90504532D01*
X138018198Y-90481802D01*
X137995468Y-90463148D01*
X137898141Y-90398116D01*
X137872208Y-90384254D01*
X137844068Y-90375718D01*
X137729263Y-90352882D01*
X137700000Y-90350000D01*
X130500000Y-90350000D01*
X130500000Y-81650000D01*
X133521413Y-81650000D01*
X133387660Y-81721493D01*
X133186544Y-81886544D01*
X133021493Y-82087660D01*
X132898848Y-82317111D01*
X132823324Y-82566081D01*
X132797823Y-82825000D01*
X132797823Y-84575000D01*
X132823324Y-84833919D01*
X132898848Y-85082889D01*
X133021493Y-85312340D01*
X133186544Y-85513456D01*
X133387660Y-85678507D01*
X133617111Y-85801152D01*
X133866081Y-85876676D01*
X134125000Y-85902177D01*
X135875000Y-85902177D01*
X136133919Y-85876676D01*
X136382889Y-85801152D01*
X136612340Y-85678507D01*
X136813456Y-85513456D01*
X136978507Y-85312340D01*
X137101152Y-85082889D01*
X137176676Y-84833919D01*
X137202177Y-84575000D01*
X137202177Y-82825000D01*
X137176676Y-82566081D01*
X137101152Y-82317111D01*
X136978507Y-82087660D01*
X136813456Y-81886544D01*
X136612340Y-81721493D01*
X136382889Y-81598848D01*
X136133919Y-81523324D01*
X135875000Y-81497823D01*
X135034919Y-81497823D01*
X135036852Y-81495468D01*
X135101884Y-81398141D01*
X135115746Y-81372208D01*
X135124282Y-81344068D01*
X135147118Y-81229263D01*
X135150000Y-81200000D01*
X135150000Y-77314774D01*
X135164133Y-77243722D01*
X135196012Y-77196012D01*
X135243722Y-77164133D01*
X135314774Y-77150000D01*
X139685226Y-77150000D01*
X139756278Y-77164133D01*
%TO.N,GND*%
G36*
X148756278Y-82664133D02*
G01*
X148803988Y-82696012D01*
X148835867Y-82743722D01*
X148850000Y-82814774D01*
X148850000Y-91700000D01*
X148852882Y-91729263D01*
X148875718Y-91844068D01*
X148884254Y-91872207D01*
X148898116Y-91898141D01*
X148963148Y-91995468D01*
X148981802Y-92018198D01*
X149004532Y-92036852D01*
X149101859Y-92101884D01*
X149127792Y-92115746D01*
X149155932Y-92124282D01*
X149270737Y-92147118D01*
X149300000Y-92150000D01*
X156185226Y-92150000D01*
X156256278Y-92164133D01*
X156303988Y-92196012D01*
X156335867Y-92243722D01*
X156350000Y-92314774D01*
X156350000Y-92698400D01*
X153877089Y-92698400D01*
X153850000Y-92695732D01*
X153741868Y-92706382D01*
X153637890Y-92737923D01*
X153542065Y-92789143D01*
X153458073Y-92858073D01*
X153440806Y-92879113D01*
X151297098Y-95022823D01*
X150375000Y-95022823D01*
X150238012Y-95036315D01*
X150106288Y-95076273D01*
X149984891Y-95141161D01*
X149878486Y-95228486D01*
X149791161Y-95334891D01*
X149726273Y-95456288D01*
X149686315Y-95588012D01*
X149672823Y-95725000D01*
X149672823Y-96475000D01*
X149686315Y-96611988D01*
X149726273Y-96743712D01*
X149791161Y-96865109D01*
X149878486Y-96971514D01*
X149984891Y-97058839D01*
X150106288Y-97123727D01*
X150238012Y-97163685D01*
X150375000Y-97177177D01*
X151625000Y-97177177D01*
X151761988Y-97163685D01*
X151893712Y-97123727D01*
X152015109Y-97058839D01*
X152121514Y-96971514D01*
X152208839Y-96865109D01*
X152273727Y-96743712D01*
X152313685Y-96611988D01*
X152327177Y-96475000D01*
X152327177Y-95725000D01*
X152313685Y-95588012D01*
X152308654Y-95571426D01*
X154078481Y-93801600D01*
X156350000Y-93801600D01*
X156350000Y-95450000D01*
X156352882Y-95479263D01*
X156375718Y-95594068D01*
X156384254Y-95622207D01*
X156398116Y-95648141D01*
X156463148Y-95745468D01*
X156481802Y-95768198D01*
X156504532Y-95786852D01*
X156601859Y-95851884D01*
X156627792Y-95865746D01*
X156655932Y-95874282D01*
X156770737Y-95897118D01*
X156800000Y-95900000D01*
X160200000Y-95900000D01*
X160229263Y-95897118D01*
X160344068Y-95874282D01*
X160372207Y-95865746D01*
X160398141Y-95851884D01*
X160495468Y-95786852D01*
X160518198Y-95768198D01*
X160536852Y-95745468D01*
X160601884Y-95648141D01*
X160615746Y-95622208D01*
X160624282Y-95594068D01*
X160647118Y-95479263D01*
X160650000Y-95450000D01*
X160650000Y-88314774D01*
X160664133Y-88243722D01*
X160696012Y-88196012D01*
X160743722Y-88164133D01*
X160814774Y-88150000D01*
X164500001Y-88150000D01*
X164500000Y-103500000D01*
X130500000Y-103500000D01*
X130500000Y-101933629D01*
X133380000Y-101933629D01*
X133380000Y-102146371D01*
X133421503Y-102355024D01*
X133502916Y-102551572D01*
X133621109Y-102728460D01*
X133771540Y-102878891D01*
X133948428Y-102997084D01*
X134144976Y-103078497D01*
X134353629Y-103120000D01*
X134566371Y-103120000D01*
X134775024Y-103078497D01*
X134841673Y-103050890D01*
X134924810Y-103059078D01*
X134951899Y-103056410D01*
X147530601Y-103056410D01*
X147557690Y-103059078D01*
X147665822Y-103048428D01*
X147681678Y-103043618D01*
X147769799Y-103016887D01*
X147865625Y-102965667D01*
X147949617Y-102896737D01*
X147966893Y-102875686D01*
X148701911Y-102140669D01*
X148818750Y-102152177D01*
X149306250Y-102152177D01*
X149442019Y-102138805D01*
X149572570Y-102099203D01*
X149692886Y-102034892D01*
X149798345Y-101948345D01*
X149884892Y-101842886D01*
X149949203Y-101722570D01*
X149988805Y-101592019D01*
X150000000Y-101478354D01*
X150011195Y-101592019D01*
X150050797Y-101722570D01*
X150115108Y-101842886D01*
X150121613Y-101850813D01*
X150021903Y-101917437D01*
X149917437Y-102021903D01*
X149835359Y-102144742D01*
X149778822Y-102281233D01*
X149750000Y-102426131D01*
X149750000Y-102573869D01*
X149778822Y-102718767D01*
X149835359Y-102855258D01*
X149917437Y-102978097D01*
X150021903Y-103082563D01*
X150144742Y-103164641D01*
X150281233Y-103221178D01*
X150426131Y-103250000D01*
X150573869Y-103250000D01*
X150718767Y-103221178D01*
X150855258Y-103164641D01*
X150978097Y-103082563D01*
X151082563Y-102978097D01*
X151164641Y-102855258D01*
X151221178Y-102718767D01*
X151250000Y-102573869D01*
X151250000Y-102530080D01*
X151308381Y-102471699D01*
X151329427Y-102454427D01*
X151398357Y-102370435D01*
X151449577Y-102274609D01*
X151481118Y-102170632D01*
X151489100Y-102089589D01*
X151489100Y-102089587D01*
X151490408Y-102076305D01*
X151567886Y-102034892D01*
X151673345Y-101948345D01*
X151759892Y-101842886D01*
X151824203Y-101722570D01*
X151863805Y-101592019D01*
X151877177Y-101456250D01*
X151877177Y-100543750D01*
X151863805Y-100407981D01*
X151824203Y-100277430D01*
X151759892Y-100157114D01*
X151673345Y-100051655D01*
X151582592Y-99977177D01*
X151625000Y-99977177D01*
X151761988Y-99963685D01*
X151893712Y-99923727D01*
X152015109Y-99858839D01*
X152121514Y-99771514D01*
X152208839Y-99665109D01*
X152273727Y-99543712D01*
X152313685Y-99411988D01*
X152327177Y-99275000D01*
X152327177Y-98525000D01*
X152313685Y-98388012D01*
X152273727Y-98256288D01*
X152208839Y-98134891D01*
X152121514Y-98028486D01*
X152015109Y-97941161D01*
X151893712Y-97876273D01*
X151761988Y-97836315D01*
X151625000Y-97822823D01*
X150375000Y-97822823D01*
X150238012Y-97836315D01*
X150106288Y-97876273D01*
X149984891Y-97941161D01*
X149878486Y-98028486D01*
X149791161Y-98134891D01*
X149726273Y-98256288D01*
X149686315Y-98388012D01*
X149672823Y-98525000D01*
X149672823Y-99275000D01*
X149686315Y-99411988D01*
X149726273Y-99543712D01*
X149791161Y-99665109D01*
X149878486Y-99771514D01*
X149984891Y-99858839D01*
X150106288Y-99923727D01*
X150238012Y-99963685D01*
X150301258Y-99969914D01*
X150201655Y-100051655D01*
X150115108Y-100157114D01*
X150050797Y-100277430D01*
X150011195Y-100407981D01*
X150000000Y-100521646D01*
X149988805Y-100407981D01*
X149949203Y-100277430D01*
X149884892Y-100157114D01*
X149798345Y-100051655D01*
X149692886Y-99965108D01*
X149572570Y-99900797D01*
X149442019Y-99861195D01*
X149306250Y-99847823D01*
X148818750Y-99847823D01*
X148682981Y-99861195D01*
X148552430Y-99900797D01*
X148432114Y-99965108D01*
X148402177Y-99989676D01*
X148402177Y-99755000D01*
X148390606Y-99637521D01*
X148356339Y-99524557D01*
X148300692Y-99420448D01*
X148225803Y-99329197D01*
X148134552Y-99254308D01*
X148030443Y-99198661D01*
X147917479Y-99164394D01*
X147800000Y-99152823D01*
X146150000Y-99152823D01*
X146032521Y-99164394D01*
X145919557Y-99198661D01*
X145815448Y-99254308D01*
X145724197Y-99329197D01*
X145649308Y-99420448D01*
X145593661Y-99524557D01*
X145559394Y-99637521D01*
X145547823Y-99755000D01*
X145547823Y-100055000D01*
X145559394Y-100172479D01*
X145593661Y-100285443D01*
X145649308Y-100389552D01*
X145724197Y-100480803D01*
X145815448Y-100555692D01*
X145919557Y-100611339D01*
X146032521Y-100645606D01*
X146150000Y-100657177D01*
X146177574Y-100657177D01*
X146113297Y-100777430D01*
X146073695Y-100907981D01*
X146060323Y-101043750D01*
X146060323Y-101953210D01*
X135540000Y-101953210D01*
X135540000Y-101933629D01*
X135498497Y-101724976D01*
X135417084Y-101528428D01*
X135298891Y-101351540D01*
X135148460Y-101201109D01*
X134971572Y-101082916D01*
X134775024Y-101001503D01*
X134566371Y-100960000D01*
X134353629Y-100960000D01*
X134144976Y-101001503D01*
X133948428Y-101082916D01*
X133771540Y-101201109D01*
X133621109Y-101351540D01*
X133502916Y-101528428D01*
X133421503Y-101724976D01*
X133380000Y-101933629D01*
X130500000Y-101933629D01*
X130500000Y-91150000D01*
X137185226Y-91150000D01*
X137256278Y-91164133D01*
X137303988Y-91196012D01*
X137335867Y-91243722D01*
X137350000Y-91314774D01*
X137350000Y-98475991D01*
X137315024Y-98461503D01*
X137106371Y-98420000D01*
X136893629Y-98420000D01*
X136684976Y-98461503D01*
X136488428Y-98542916D01*
X136311540Y-98661109D01*
X136161109Y-98811540D01*
X136042916Y-98988428D01*
X135961503Y-99184976D01*
X135920000Y-99393629D01*
X135920000Y-99606371D01*
X135961503Y-99815024D01*
X136042916Y-100011572D01*
X136161109Y-100188460D01*
X136311540Y-100338891D01*
X136488428Y-100457084D01*
X136684976Y-100538497D01*
X136893629Y-100580000D01*
X137106371Y-100580000D01*
X137315024Y-100538497D01*
X137511572Y-100457084D01*
X137688460Y-100338891D01*
X137838891Y-100188460D01*
X137957084Y-100011572D01*
X138038497Y-99815024D01*
X138080000Y-99606371D01*
X138080000Y-99393629D01*
X138038497Y-99184976D01*
X138024009Y-99150000D01*
X138115255Y-99150000D01*
X138167437Y-99228097D01*
X138271903Y-99332563D01*
X138394742Y-99414641D01*
X138531233Y-99471178D01*
X138676131Y-99500000D01*
X138823869Y-99500000D01*
X138968767Y-99471178D01*
X139105258Y-99414641D01*
X139228097Y-99332563D01*
X139259060Y-99301600D01*
X140895210Y-99301600D01*
X140969557Y-99341339D01*
X141082521Y-99375606D01*
X141200000Y-99387177D01*
X142850000Y-99387177D01*
X142967479Y-99375606D01*
X143080443Y-99341339D01*
X143184552Y-99285692D01*
X143275803Y-99210803D01*
X143347719Y-99123174D01*
X143372207Y-99115746D01*
X143398141Y-99101884D01*
X143495468Y-99036852D01*
X143518198Y-99018198D01*
X143536852Y-98995468D01*
X143601884Y-98898141D01*
X143615746Y-98872208D01*
X143624282Y-98844068D01*
X143647118Y-98729263D01*
X143650000Y-98700000D01*
X143650000Y-96756358D01*
X143675713Y-96748558D01*
X143798014Y-96683187D01*
X143905212Y-96595212D01*
X143927266Y-96568339D01*
X144550605Y-95945000D01*
X145547823Y-95945000D01*
X145547823Y-96245000D01*
X145559394Y-96362479D01*
X145593661Y-96475443D01*
X145649308Y-96579552D01*
X145724197Y-96670803D01*
X145815448Y-96745692D01*
X145919557Y-96801339D01*
X146032521Y-96835606D01*
X146150000Y-96847177D01*
X147800000Y-96847177D01*
X147917479Y-96835606D01*
X148030443Y-96801339D01*
X148134552Y-96745692D01*
X148203603Y-96689022D01*
X148281233Y-96721178D01*
X148426131Y-96750000D01*
X148573869Y-96750000D01*
X148718767Y-96721178D01*
X148855258Y-96664641D01*
X148978097Y-96582563D01*
X149082563Y-96478097D01*
X149164641Y-96355258D01*
X149221178Y-96218767D01*
X149250000Y-96073869D01*
X149250000Y-95926131D01*
X149221178Y-95781233D01*
X149164641Y-95644742D01*
X149082563Y-95521903D01*
X148978097Y-95417437D01*
X148855258Y-95335359D01*
X148718767Y-95278822D01*
X148573869Y-95250000D01*
X148426131Y-95250000D01*
X148281233Y-95278822D01*
X148144742Y-95335359D01*
X148049625Y-95398914D01*
X148030443Y-95388661D01*
X147917479Y-95354394D01*
X147800000Y-95342823D01*
X146150000Y-95342823D01*
X146032521Y-95354394D01*
X145919557Y-95388661D01*
X145815448Y-95444308D01*
X145724197Y-95519197D01*
X145649308Y-95610448D01*
X145593661Y-95714557D01*
X145559394Y-95827521D01*
X145547823Y-95945000D01*
X144550605Y-95945000D01*
X145973354Y-94522253D01*
X146000211Y-94500212D01*
X146088187Y-94393014D01*
X146153558Y-94270713D01*
X146193813Y-94138008D01*
X146204000Y-94034581D01*
X146204000Y-94034580D01*
X146207406Y-94000001D01*
X146204000Y-93965420D01*
X146204000Y-82690675D01*
X146243722Y-82664133D01*
X146314774Y-82650000D01*
X148685226Y-82650000D01*
X148756278Y-82664133D01*
G37*
X148756278Y-82664133D02*
X148803988Y-82696012D01*
X148835867Y-82743722D01*
X148850000Y-82814774D01*
X148850000Y-91700000D01*
X148852882Y-91729263D01*
X148875718Y-91844068D01*
X148884254Y-91872207D01*
X148898116Y-91898141D01*
X148963148Y-91995468D01*
X148981802Y-92018198D01*
X149004532Y-92036852D01*
X149101859Y-92101884D01*
X149127792Y-92115746D01*
X149155932Y-92124282D01*
X149270737Y-92147118D01*
X149300000Y-92150000D01*
X156185226Y-92150000D01*
X156256278Y-92164133D01*
X156303988Y-92196012D01*
X156335867Y-92243722D01*
X156350000Y-92314774D01*
X156350000Y-92698400D01*
X153877089Y-92698400D01*
X153850000Y-92695732D01*
X153741868Y-92706382D01*
X153637890Y-92737923D01*
X153542065Y-92789143D01*
X153458073Y-92858073D01*
X153440806Y-92879113D01*
X151297098Y-95022823D01*
X150375000Y-95022823D01*
X150238012Y-95036315D01*
X150106288Y-95076273D01*
X149984891Y-95141161D01*
X149878486Y-95228486D01*
X149791161Y-95334891D01*
X149726273Y-95456288D01*
X149686315Y-95588012D01*
X149672823Y-95725000D01*
X149672823Y-96475000D01*
X149686315Y-96611988D01*
X149726273Y-96743712D01*
X149791161Y-96865109D01*
X149878486Y-96971514D01*
X149984891Y-97058839D01*
X150106288Y-97123727D01*
X150238012Y-97163685D01*
X150375000Y-97177177D01*
X151625000Y-97177177D01*
X151761988Y-97163685D01*
X151893712Y-97123727D01*
X152015109Y-97058839D01*
X152121514Y-96971514D01*
X152208839Y-96865109D01*
X152273727Y-96743712D01*
X152313685Y-96611988D01*
X152327177Y-96475000D01*
X152327177Y-95725000D01*
X152313685Y-95588012D01*
X152308654Y-95571426D01*
X154078481Y-93801600D01*
X156350000Y-93801600D01*
X156350000Y-95450000D01*
X156352882Y-95479263D01*
X156375718Y-95594068D01*
X156384254Y-95622207D01*
X156398116Y-95648141D01*
X156463148Y-95745468D01*
X156481802Y-95768198D01*
X156504532Y-95786852D01*
X156601859Y-95851884D01*
X156627792Y-95865746D01*
X156655932Y-95874282D01*
X156770737Y-95897118D01*
X156800000Y-95900000D01*
X160200000Y-95900000D01*
X160229263Y-95897118D01*
X160344068Y-95874282D01*
X160372207Y-95865746D01*
X160398141Y-95851884D01*
X160495468Y-95786852D01*
X160518198Y-95768198D01*
X160536852Y-95745468D01*
X160601884Y-95648141D01*
X160615746Y-95622208D01*
X160624282Y-95594068D01*
X160647118Y-95479263D01*
X160650000Y-95450000D01*
X160650000Y-88314774D01*
X160664133Y-88243722D01*
X160696012Y-88196012D01*
X160743722Y-88164133D01*
X160814774Y-88150000D01*
X164500001Y-88150000D01*
X164500000Y-103500000D01*
X130500000Y-103500000D01*
X130500000Y-101933629D01*
X133380000Y-101933629D01*
X133380000Y-102146371D01*
X133421503Y-102355024D01*
X133502916Y-102551572D01*
X133621109Y-102728460D01*
X133771540Y-102878891D01*
X133948428Y-102997084D01*
X134144976Y-103078497D01*
X134353629Y-103120000D01*
X134566371Y-103120000D01*
X134775024Y-103078497D01*
X134841673Y-103050890D01*
X134924810Y-103059078D01*
X134951899Y-103056410D01*
X147530601Y-103056410D01*
X147557690Y-103059078D01*
X147665822Y-103048428D01*
X147681678Y-103043618D01*
X147769799Y-103016887D01*
X147865625Y-102965667D01*
X147949617Y-102896737D01*
X147966893Y-102875686D01*
X148701911Y-102140669D01*
X148818750Y-102152177D01*
X149306250Y-102152177D01*
X149442019Y-102138805D01*
X149572570Y-102099203D01*
X149692886Y-102034892D01*
X149798345Y-101948345D01*
X149884892Y-101842886D01*
X149949203Y-101722570D01*
X149988805Y-101592019D01*
X150000000Y-101478354D01*
X150011195Y-101592019D01*
X150050797Y-101722570D01*
X150115108Y-101842886D01*
X150121613Y-101850813D01*
X150021903Y-101917437D01*
X149917437Y-102021903D01*
X149835359Y-102144742D01*
X149778822Y-102281233D01*
X149750000Y-102426131D01*
X149750000Y-102573869D01*
X149778822Y-102718767D01*
X149835359Y-102855258D01*
X149917437Y-102978097D01*
X150021903Y-103082563D01*
X150144742Y-103164641D01*
X150281233Y-103221178D01*
X150426131Y-103250000D01*
X150573869Y-103250000D01*
X150718767Y-103221178D01*
X150855258Y-103164641D01*
X150978097Y-103082563D01*
X151082563Y-102978097D01*
X151164641Y-102855258D01*
X151221178Y-102718767D01*
X151250000Y-102573869D01*
X151250000Y-102530080D01*
X151308381Y-102471699D01*
X151329427Y-102454427D01*
X151398357Y-102370435D01*
X151449577Y-102274609D01*
X151481118Y-102170632D01*
X151489100Y-102089589D01*
X151489100Y-102089587D01*
X151490408Y-102076305D01*
X151567886Y-102034892D01*
X151673345Y-101948345D01*
X151759892Y-101842886D01*
X151824203Y-101722570D01*
X151863805Y-101592019D01*
X151877177Y-101456250D01*
X151877177Y-100543750D01*
X151863805Y-100407981D01*
X151824203Y-100277430D01*
X151759892Y-100157114D01*
X151673345Y-100051655D01*
X151582592Y-99977177D01*
X151625000Y-99977177D01*
X151761988Y-99963685D01*
X151893712Y-99923727D01*
X152015109Y-99858839D01*
X152121514Y-99771514D01*
X152208839Y-99665109D01*
X152273727Y-99543712D01*
X152313685Y-99411988D01*
X152327177Y-99275000D01*
X152327177Y-98525000D01*
X152313685Y-98388012D01*
X152273727Y-98256288D01*
X152208839Y-98134891D01*
X152121514Y-98028486D01*
X152015109Y-97941161D01*
X151893712Y-97876273D01*
X151761988Y-97836315D01*
X151625000Y-97822823D01*
X150375000Y-97822823D01*
X150238012Y-97836315D01*
X150106288Y-97876273D01*
X149984891Y-97941161D01*
X149878486Y-98028486D01*
X149791161Y-98134891D01*
X149726273Y-98256288D01*
X149686315Y-98388012D01*
X149672823Y-98525000D01*
X149672823Y-99275000D01*
X149686315Y-99411988D01*
X149726273Y-99543712D01*
X149791161Y-99665109D01*
X149878486Y-99771514D01*
X149984891Y-99858839D01*
X150106288Y-99923727D01*
X150238012Y-99963685D01*
X150301258Y-99969914D01*
X150201655Y-100051655D01*
X150115108Y-100157114D01*
X150050797Y-100277430D01*
X150011195Y-100407981D01*
X150000000Y-100521646D01*
X149988805Y-100407981D01*
X149949203Y-100277430D01*
X149884892Y-100157114D01*
X149798345Y-100051655D01*
X149692886Y-99965108D01*
X149572570Y-99900797D01*
X149442019Y-99861195D01*
X149306250Y-99847823D01*
X148818750Y-99847823D01*
X148682981Y-99861195D01*
X148552430Y-99900797D01*
X148432114Y-99965108D01*
X148402177Y-99989676D01*
X148402177Y-99755000D01*
X148390606Y-99637521D01*
X148356339Y-99524557D01*
X148300692Y-99420448D01*
X148225803Y-99329197D01*
X148134552Y-99254308D01*
X148030443Y-99198661D01*
X147917479Y-99164394D01*
X147800000Y-99152823D01*
X146150000Y-99152823D01*
X146032521Y-99164394D01*
X145919557Y-99198661D01*
X145815448Y-99254308D01*
X145724197Y-99329197D01*
X145649308Y-99420448D01*
X145593661Y-99524557D01*
X145559394Y-99637521D01*
X145547823Y-99755000D01*
X145547823Y-100055000D01*
X145559394Y-100172479D01*
X145593661Y-100285443D01*
X145649308Y-100389552D01*
X145724197Y-100480803D01*
X145815448Y-100555692D01*
X145919557Y-100611339D01*
X146032521Y-100645606D01*
X146150000Y-100657177D01*
X146177574Y-100657177D01*
X146113297Y-100777430D01*
X146073695Y-100907981D01*
X146060323Y-101043750D01*
X146060323Y-101953210D01*
X135540000Y-101953210D01*
X135540000Y-101933629D01*
X135498497Y-101724976D01*
X135417084Y-101528428D01*
X135298891Y-101351540D01*
X135148460Y-101201109D01*
X134971572Y-101082916D01*
X134775024Y-101001503D01*
X134566371Y-100960000D01*
X134353629Y-100960000D01*
X134144976Y-101001503D01*
X133948428Y-101082916D01*
X133771540Y-101201109D01*
X133621109Y-101351540D01*
X133502916Y-101528428D01*
X133421503Y-101724976D01*
X133380000Y-101933629D01*
X130500000Y-101933629D01*
X130500000Y-91150000D01*
X137185226Y-91150000D01*
X137256278Y-91164133D01*
X137303988Y-91196012D01*
X137335867Y-91243722D01*
X137350000Y-91314774D01*
X137350000Y-98475991D01*
X137315024Y-98461503D01*
X137106371Y-98420000D01*
X136893629Y-98420000D01*
X136684976Y-98461503D01*
X136488428Y-98542916D01*
X136311540Y-98661109D01*
X136161109Y-98811540D01*
X136042916Y-98988428D01*
X135961503Y-99184976D01*
X135920000Y-99393629D01*
X135920000Y-99606371D01*
X135961503Y-99815024D01*
X136042916Y-100011572D01*
X136161109Y-100188460D01*
X136311540Y-100338891D01*
X136488428Y-100457084D01*
X136684976Y-100538497D01*
X136893629Y-100580000D01*
X137106371Y-100580000D01*
X137315024Y-100538497D01*
X137511572Y-100457084D01*
X137688460Y-100338891D01*
X137838891Y-100188460D01*
X137957084Y-100011572D01*
X138038497Y-99815024D01*
X138080000Y-99606371D01*
X138080000Y-99393629D01*
X138038497Y-99184976D01*
X138024009Y-99150000D01*
X138115255Y-99150000D01*
X138167437Y-99228097D01*
X138271903Y-99332563D01*
X138394742Y-99414641D01*
X138531233Y-99471178D01*
X138676131Y-99500000D01*
X138823869Y-99500000D01*
X138968767Y-99471178D01*
X139105258Y-99414641D01*
X139228097Y-99332563D01*
X139259060Y-99301600D01*
X140895210Y-99301600D01*
X140969557Y-99341339D01*
X141082521Y-99375606D01*
X141200000Y-99387177D01*
X142850000Y-99387177D01*
X142967479Y-99375606D01*
X143080443Y-99341339D01*
X143184552Y-99285692D01*
X143275803Y-99210803D01*
X143347719Y-99123174D01*
X143372207Y-99115746D01*
X143398141Y-99101884D01*
X143495468Y-99036852D01*
X143518198Y-99018198D01*
X143536852Y-98995468D01*
X143601884Y-98898141D01*
X143615746Y-98872208D01*
X143624282Y-98844068D01*
X143647118Y-98729263D01*
X143650000Y-98700000D01*
X143650000Y-96756358D01*
X143675713Y-96748558D01*
X143798014Y-96683187D01*
X143905212Y-96595212D01*
X143927266Y-96568339D01*
X144550605Y-95945000D01*
X145547823Y-95945000D01*
X145547823Y-96245000D01*
X145559394Y-96362479D01*
X145593661Y-96475443D01*
X145649308Y-96579552D01*
X145724197Y-96670803D01*
X145815448Y-96745692D01*
X145919557Y-96801339D01*
X146032521Y-96835606D01*
X146150000Y-96847177D01*
X147800000Y-96847177D01*
X147917479Y-96835606D01*
X148030443Y-96801339D01*
X148134552Y-96745692D01*
X148203603Y-96689022D01*
X148281233Y-96721178D01*
X148426131Y-96750000D01*
X148573869Y-96750000D01*
X148718767Y-96721178D01*
X148855258Y-96664641D01*
X148978097Y-96582563D01*
X149082563Y-96478097D01*
X149164641Y-96355258D01*
X149221178Y-96218767D01*
X149250000Y-96073869D01*
X149250000Y-95926131D01*
X149221178Y-95781233D01*
X149164641Y-95644742D01*
X149082563Y-95521903D01*
X148978097Y-95417437D01*
X148855258Y-95335359D01*
X148718767Y-95278822D01*
X148573869Y-95250000D01*
X148426131Y-95250000D01*
X148281233Y-95278822D01*
X148144742Y-95335359D01*
X148049625Y-95398914D01*
X148030443Y-95388661D01*
X147917479Y-95354394D01*
X147800000Y-95342823D01*
X146150000Y-95342823D01*
X146032521Y-95354394D01*
X145919557Y-95388661D01*
X145815448Y-95444308D01*
X145724197Y-95519197D01*
X145649308Y-95610448D01*
X145593661Y-95714557D01*
X145559394Y-95827521D01*
X145547823Y-95945000D01*
X144550605Y-95945000D01*
X145973354Y-94522253D01*
X146000211Y-94500212D01*
X146088187Y-94393014D01*
X146153558Y-94270713D01*
X146193813Y-94138008D01*
X146204000Y-94034581D01*
X146204000Y-94034580D01*
X146207406Y-94000001D01*
X146204000Y-93965420D01*
X146204000Y-82690675D01*
X146243722Y-82664133D01*
X146314774Y-82650000D01*
X148685226Y-82650000D01*
X148756278Y-82664133D01*
%TD*%
M02*
