%TF.GenerationSoftware,KiCad,Pcbnew,(5.1.5-131-g305ed0b65)-1*%
%TF.CreationDate,2020-09-08T16:09:36+08:00*%
%TF.ProjectId,PowerSupply,506f7765-7253-4757-9070-6c792e6b6963,rev?*%
%TF.SameCoordinates,Original*%
%TF.FileFunction,Legend,Bot*%
%TF.FilePolarity,Positive*%
%FSLAX46Y46*%
G04 Gerber Fmt 4.6, Leading zero omitted, Abs format (unit mm)*
G04 Created by KiCad (PCBNEW (5.1.5-131-g305ed0b65)-1) date 2020-09-08 16:09:36*
%MOMM*%
%LPD*%
G01*
G04 APERTURE LIST*
%ADD10C,0.150000*%
%ADD11C,0.381000*%
%ADD12C,0.010000*%
G04 APERTURE END LIST*
D10*
X150696428Y-92064285D02*
X150696428Y-91314285D01*
X150267857Y-92064285D01*
X150267857Y-91314285D01*
X149910714Y-92064285D02*
X149910714Y-91564285D01*
X149910714Y-91314285D02*
X149946428Y-91350000D01*
X149910714Y-91385714D01*
X149875000Y-91350000D01*
X149910714Y-91314285D01*
X149910714Y-91385714D01*
X149625000Y-92064285D02*
X149232142Y-91564285D01*
X149625000Y-91564285D02*
X149232142Y-92064285D01*
X148946428Y-92064285D02*
X148946428Y-91564285D01*
X148946428Y-91314285D02*
X148982142Y-91350000D01*
X148946428Y-91385714D01*
X148910714Y-91350000D01*
X148946428Y-91314285D01*
X148946428Y-91385714D01*
X148303571Y-92028571D02*
X148375000Y-92064285D01*
X148517857Y-92064285D01*
X148589285Y-92028571D01*
X148625000Y-91957142D01*
X148625000Y-91671428D01*
X148589285Y-91600000D01*
X148517857Y-91564285D01*
X148375000Y-91564285D01*
X148303571Y-91600000D01*
X148267857Y-91671428D01*
X148267857Y-91742857D01*
X148625000Y-91814285D01*
X147375000Y-92064285D02*
X147375000Y-91314285D01*
X147089285Y-91314285D01*
X147017857Y-91350000D01*
X146982142Y-91385714D01*
X146946428Y-91457142D01*
X146946428Y-91564285D01*
X146982142Y-91635714D01*
X147017857Y-91671428D01*
X147089285Y-91707142D01*
X147375000Y-91707142D01*
X146517857Y-92064285D02*
X146589285Y-92028571D01*
X146625000Y-91992857D01*
X146660714Y-91921428D01*
X146660714Y-91707142D01*
X146625000Y-91635714D01*
X146589285Y-91600000D01*
X146517857Y-91564285D01*
X146410714Y-91564285D01*
X146339285Y-91600000D01*
X146303571Y-91635714D01*
X146267857Y-91707142D01*
X146267857Y-91921428D01*
X146303571Y-91992857D01*
X146339285Y-92028571D01*
X146410714Y-92064285D01*
X146517857Y-92064285D01*
X146017857Y-91564285D02*
X145875000Y-92064285D01*
X145732142Y-91707142D01*
X145589285Y-92064285D01*
X145446428Y-91564285D01*
X144875000Y-92028571D02*
X144946428Y-92064285D01*
X145089285Y-92064285D01*
X145160714Y-92028571D01*
X145196428Y-91957142D01*
X145196428Y-91671428D01*
X145160714Y-91600000D01*
X145089285Y-91564285D01*
X144946428Y-91564285D01*
X144875000Y-91600000D01*
X144839285Y-91671428D01*
X144839285Y-91742857D01*
X145196428Y-91814285D01*
X144517857Y-92064285D02*
X144517857Y-91564285D01*
X144517857Y-91707142D02*
X144482142Y-91635714D01*
X144446428Y-91600000D01*
X144375000Y-91564285D01*
X144303571Y-91564285D01*
X143517857Y-92028571D02*
X143410714Y-92064285D01*
X143232142Y-92064285D01*
X143160714Y-92028571D01*
X143125000Y-91992857D01*
X143089285Y-91921428D01*
X143089285Y-91850000D01*
X143125000Y-91778571D01*
X143160714Y-91742857D01*
X143232142Y-91707142D01*
X143375000Y-91671428D01*
X143446428Y-91635714D01*
X143482142Y-91600000D01*
X143517857Y-91528571D01*
X143517857Y-91457142D01*
X143482142Y-91385714D01*
X143446428Y-91350000D01*
X143375000Y-91314285D01*
X143196428Y-91314285D01*
X143089285Y-91350000D01*
X142446428Y-91564285D02*
X142446428Y-92064285D01*
X142767857Y-91564285D02*
X142767857Y-91957142D01*
X142732142Y-92028571D01*
X142660714Y-92064285D01*
X142553571Y-92064285D01*
X142482142Y-92028571D01*
X142446428Y-91992857D01*
X142089285Y-91564285D02*
X142089285Y-92314285D01*
X142089285Y-91600000D02*
X142017857Y-91564285D01*
X141875000Y-91564285D01*
X141803571Y-91600000D01*
X141767857Y-91635714D01*
X141732142Y-91707142D01*
X141732142Y-91921428D01*
X141767857Y-91992857D01*
X141803571Y-92028571D01*
X141875000Y-92064285D01*
X142017857Y-92064285D01*
X142089285Y-92028571D01*
X141410714Y-91564285D02*
X141410714Y-92314285D01*
X141410714Y-91600000D02*
X141339285Y-91564285D01*
X141196428Y-91564285D01*
X141125000Y-91600000D01*
X141089285Y-91635714D01*
X141053571Y-91707142D01*
X141053571Y-91921428D01*
X141089285Y-91992857D01*
X141125000Y-92028571D01*
X141196428Y-92064285D01*
X141339285Y-92064285D01*
X141410714Y-92028571D01*
X140625000Y-92064285D02*
X140696428Y-92028571D01*
X140732142Y-91957142D01*
X140732142Y-91314285D01*
X140410714Y-91564285D02*
X140232142Y-92064285D01*
X140053571Y-91564285D02*
X140232142Y-92064285D01*
X140303571Y-92242857D01*
X140339285Y-92278571D01*
X140410714Y-92314285D01*
X139196428Y-92064285D02*
X139196428Y-91314285D01*
X138910714Y-91314285D01*
X138839285Y-91350000D01*
X138803571Y-91385714D01*
X138767857Y-91457142D01*
X138767857Y-91564285D01*
X138803571Y-91635714D01*
X138839285Y-91671428D01*
X138910714Y-91707142D01*
X139196428Y-91707142D01*
X138017857Y-91992857D02*
X138053571Y-92028571D01*
X138160714Y-92064285D01*
X138232142Y-92064285D01*
X138339285Y-92028571D01*
X138410714Y-91957142D01*
X138446428Y-91885714D01*
X138482142Y-91742857D01*
X138482142Y-91635714D01*
X138446428Y-91492857D01*
X138410714Y-91421428D01*
X138339285Y-91350000D01*
X138232142Y-91314285D01*
X138160714Y-91314285D01*
X138053571Y-91350000D01*
X138017857Y-91385714D01*
X137446428Y-91671428D02*
X137339285Y-91707142D01*
X137303571Y-91742857D01*
X137267857Y-91814285D01*
X137267857Y-91921428D01*
X137303571Y-91992857D01*
X137339285Y-92028571D01*
X137410714Y-92064285D01*
X137696428Y-92064285D01*
X137696428Y-91314285D01*
X137446428Y-91314285D01*
X137375000Y-91350000D01*
X137339285Y-91385714D01*
X137303571Y-91457142D01*
X137303571Y-91528571D01*
X137339285Y-91600000D01*
X137375000Y-91635714D01*
X137446428Y-91671428D01*
X137696428Y-91671428D01*
X151946428Y-93267857D02*
X151982142Y-93303571D01*
X152089285Y-93339285D01*
X152160714Y-93339285D01*
X152267857Y-93303571D01*
X152339285Y-93232142D01*
X152375000Y-93160714D01*
X152410714Y-93017857D01*
X152410714Y-92910714D01*
X152375000Y-92767857D01*
X152339285Y-92696428D01*
X152267857Y-92625000D01*
X152160714Y-92589285D01*
X152089285Y-92589285D01*
X151982142Y-92625000D01*
X151946428Y-92660714D01*
X151517857Y-93339285D02*
X151589285Y-93303571D01*
X151625000Y-93267857D01*
X151660714Y-93196428D01*
X151660714Y-92982142D01*
X151625000Y-92910714D01*
X151589285Y-92875000D01*
X151517857Y-92839285D01*
X151410714Y-92839285D01*
X151339285Y-92875000D01*
X151303571Y-92910714D01*
X151267857Y-92982142D01*
X151267857Y-93196428D01*
X151303571Y-93267857D01*
X151339285Y-93303571D01*
X151410714Y-93339285D01*
X151517857Y-93339285D01*
X150946428Y-92839285D02*
X150946428Y-93589285D01*
X150946428Y-92875000D02*
X150875000Y-92839285D01*
X150732142Y-92839285D01*
X150660714Y-92875000D01*
X150625000Y-92910714D01*
X150589285Y-92982142D01*
X150589285Y-93196428D01*
X150625000Y-93267857D01*
X150660714Y-93303571D01*
X150732142Y-93339285D01*
X150875000Y-93339285D01*
X150946428Y-93303571D01*
X150339285Y-92839285D02*
X150160714Y-93339285D01*
X149982142Y-92839285D02*
X150160714Y-93339285D01*
X150232142Y-93517857D01*
X150267857Y-93553571D01*
X150339285Y-93589285D01*
X149696428Y-93339285D02*
X149696428Y-92839285D01*
X149696428Y-92982142D02*
X149660714Y-92910714D01*
X149625000Y-92875000D01*
X149553571Y-92839285D01*
X149482142Y-92839285D01*
X149232142Y-93339285D02*
X149232142Y-92839285D01*
X149232142Y-92589285D02*
X149267857Y-92625000D01*
X149232142Y-92660714D01*
X149196428Y-92625000D01*
X149232142Y-92589285D01*
X149232142Y-92660714D01*
X148553571Y-92839285D02*
X148553571Y-93446428D01*
X148589285Y-93517857D01*
X148625000Y-93553571D01*
X148696428Y-93589285D01*
X148803571Y-93589285D01*
X148875000Y-93553571D01*
X148553571Y-93303571D02*
X148625000Y-93339285D01*
X148767857Y-93339285D01*
X148839285Y-93303571D01*
X148875000Y-93267857D01*
X148910714Y-93196428D01*
X148910714Y-92982142D01*
X148875000Y-92910714D01*
X148839285Y-92875000D01*
X148767857Y-92839285D01*
X148625000Y-92839285D01*
X148553571Y-92875000D01*
X148196428Y-93339285D02*
X148196428Y-92589285D01*
X147875000Y-93339285D02*
X147875000Y-92946428D01*
X147910714Y-92875000D01*
X147982142Y-92839285D01*
X148089285Y-92839285D01*
X148160714Y-92875000D01*
X148196428Y-92910714D01*
X147625000Y-92839285D02*
X147339285Y-92839285D01*
X147517857Y-92589285D02*
X147517857Y-93232142D01*
X147482142Y-93303571D01*
X147410714Y-93339285D01*
X147339285Y-93339285D01*
X146303571Y-93625000D02*
X146339285Y-93589285D01*
X146410714Y-93482142D01*
X146446428Y-93410714D01*
X146482142Y-93303571D01*
X146517857Y-93125000D01*
X146517857Y-92982142D01*
X146482142Y-92803571D01*
X146446428Y-92696428D01*
X146410714Y-92625000D01*
X146339285Y-92517857D01*
X146303571Y-92482142D01*
X145589285Y-93267857D02*
X145625000Y-93303571D01*
X145732142Y-93339285D01*
X145803571Y-93339285D01*
X145910714Y-93303571D01*
X145982142Y-93232142D01*
X146017857Y-93160714D01*
X146053571Y-93017857D01*
X146053571Y-92910714D01*
X146017857Y-92767857D01*
X145982142Y-92696428D01*
X145910714Y-92625000D01*
X145803571Y-92589285D01*
X145732142Y-92589285D01*
X145625000Y-92625000D01*
X145589285Y-92660714D01*
X145339285Y-93625000D02*
X145303571Y-93589285D01*
X145232142Y-93482142D01*
X145196428Y-93410714D01*
X145160714Y-93303571D01*
X145125000Y-93125000D01*
X145125000Y-92982142D01*
X145160714Y-92803571D01*
X145196428Y-92696428D01*
X145232142Y-92625000D01*
X145303571Y-92517857D01*
X145339285Y-92482142D01*
X144232142Y-92660714D02*
X144196428Y-92625000D01*
X144125000Y-92589285D01*
X143946428Y-92589285D01*
X143875000Y-92625000D01*
X143839285Y-92660714D01*
X143803571Y-92732142D01*
X143803571Y-92803571D01*
X143839285Y-92910714D01*
X144267857Y-93339285D01*
X143803571Y-93339285D01*
X143339285Y-92589285D02*
X143267857Y-92589285D01*
X143196428Y-92625000D01*
X143160714Y-92660714D01*
X143125000Y-92732142D01*
X143089285Y-92875000D01*
X143089285Y-93053571D01*
X143125000Y-93196428D01*
X143160714Y-93267857D01*
X143196428Y-93303571D01*
X143267857Y-93339285D01*
X143339285Y-93339285D01*
X143410714Y-93303571D01*
X143446428Y-93267857D01*
X143482142Y-93196428D01*
X143517857Y-93053571D01*
X143517857Y-92875000D01*
X143482142Y-92732142D01*
X143446428Y-92660714D01*
X143410714Y-92625000D01*
X143339285Y-92589285D01*
X142803571Y-92660714D02*
X142767857Y-92625000D01*
X142696428Y-92589285D01*
X142517857Y-92589285D01*
X142446428Y-92625000D01*
X142410714Y-92660714D01*
X142375000Y-92732142D01*
X142375000Y-92803571D01*
X142410714Y-92910714D01*
X142839285Y-93339285D01*
X142375000Y-93339285D01*
X141910714Y-92589285D02*
X141839285Y-92589285D01*
X141767857Y-92625000D01*
X141732142Y-92660714D01*
X141696428Y-92732142D01*
X141660714Y-92875000D01*
X141660714Y-93053571D01*
X141696428Y-93196428D01*
X141732142Y-93267857D01*
X141767857Y-93303571D01*
X141839285Y-93339285D01*
X141910714Y-93339285D01*
X141982142Y-93303571D01*
X142017857Y-93267857D01*
X142053571Y-93196428D01*
X142089285Y-93053571D01*
X142089285Y-92875000D01*
X142053571Y-92732142D01*
X142017857Y-92660714D01*
X141982142Y-92625000D01*
X141910714Y-92589285D01*
X140767857Y-93339285D02*
X140767857Y-92589285D01*
X140589285Y-92589285D01*
X140482142Y-92625000D01*
X140410714Y-92696428D01*
X140375000Y-92767857D01*
X140339285Y-92910714D01*
X140339285Y-93017857D01*
X140375000Y-93160714D01*
X140410714Y-93232142D01*
X140482142Y-93303571D01*
X140589285Y-93339285D01*
X140767857Y-93339285D01*
X139696428Y-93339285D02*
X139696428Y-92946428D01*
X139732142Y-92875000D01*
X139803571Y-92839285D01*
X139946428Y-92839285D01*
X140017857Y-92875000D01*
X139696428Y-93303571D02*
X139767857Y-93339285D01*
X139946428Y-93339285D01*
X140017857Y-93303571D01*
X140053571Y-93232142D01*
X140053571Y-93160714D01*
X140017857Y-93089285D01*
X139946428Y-93053571D01*
X139767857Y-93053571D01*
X139696428Y-93017857D01*
X139339285Y-92839285D02*
X139339285Y-93339285D01*
X139339285Y-92910714D02*
X139303571Y-92875000D01*
X139232142Y-92839285D01*
X139125000Y-92839285D01*
X139053571Y-92875000D01*
X139017857Y-92946428D01*
X139017857Y-93339285D01*
X138660714Y-93339285D02*
X138660714Y-92839285D01*
X138660714Y-92589285D02*
X138696428Y-92625000D01*
X138660714Y-92660714D01*
X138625000Y-92625000D01*
X138660714Y-92589285D01*
X138660714Y-92660714D01*
X138017857Y-93303571D02*
X138089285Y-93339285D01*
X138232142Y-93339285D01*
X138303571Y-93303571D01*
X138339285Y-93232142D01*
X138339285Y-92946428D01*
X138303571Y-92875000D01*
X138232142Y-92839285D01*
X138089285Y-92839285D01*
X138017857Y-92875000D01*
X137982142Y-92946428D01*
X137982142Y-93017857D01*
X138339285Y-93089285D01*
X137553571Y-93339285D02*
X137625000Y-93303571D01*
X137660714Y-93232142D01*
X137660714Y-92589285D01*
X136696428Y-93339285D02*
X136696428Y-92589285D01*
X136696428Y-92946428D02*
X136267857Y-92946428D01*
X136267857Y-93339285D02*
X136267857Y-92589285D01*
X135625000Y-93303571D02*
X135696428Y-93339285D01*
X135839285Y-93339285D01*
X135910714Y-93303571D01*
X135946428Y-93232142D01*
X135946428Y-92946428D01*
X135910714Y-92875000D01*
X135839285Y-92839285D01*
X135696428Y-92839285D01*
X135625000Y-92875000D01*
X135589285Y-92946428D01*
X135589285Y-93017857D01*
X135946428Y-93089285D01*
X155160714Y-94578571D02*
X155053571Y-94614285D01*
X154875000Y-94614285D01*
X154803571Y-94578571D01*
X154767857Y-94542857D01*
X154732142Y-94471428D01*
X154732142Y-94400000D01*
X154767857Y-94328571D01*
X154803571Y-94292857D01*
X154875000Y-94257142D01*
X155017857Y-94221428D01*
X155089285Y-94185714D01*
X155125000Y-94150000D01*
X155160714Y-94078571D01*
X155160714Y-94007142D01*
X155125000Y-93935714D01*
X155089285Y-93900000D01*
X155017857Y-93864285D01*
X154839285Y-93864285D01*
X154732142Y-93900000D01*
X154125000Y-94578571D02*
X154196428Y-94614285D01*
X154339285Y-94614285D01*
X154410714Y-94578571D01*
X154446428Y-94507142D01*
X154446428Y-94221428D01*
X154410714Y-94150000D01*
X154339285Y-94114285D01*
X154196428Y-94114285D01*
X154125000Y-94150000D01*
X154089285Y-94221428D01*
X154089285Y-94292857D01*
X154446428Y-94364285D01*
X153482142Y-94578571D02*
X153553571Y-94614285D01*
X153696428Y-94614285D01*
X153767857Y-94578571D01*
X153803571Y-94507142D01*
X153803571Y-94221428D01*
X153767857Y-94150000D01*
X153696428Y-94114285D01*
X153553571Y-94114285D01*
X153482142Y-94150000D01*
X153446428Y-94221428D01*
X153446428Y-94292857D01*
X153803571Y-94364285D01*
X151982142Y-94114285D02*
X152553571Y-94328571D01*
X151982142Y-94542857D01*
X151625000Y-94614285D02*
X151625000Y-93864285D01*
X151303571Y-94614285D02*
X151303571Y-94221428D01*
X151339285Y-94150000D01*
X151410714Y-94114285D01*
X151517857Y-94114285D01*
X151589285Y-94150000D01*
X151625000Y-94185714D01*
X151053571Y-94114285D02*
X150767857Y-94114285D01*
X150946428Y-93864285D02*
X150946428Y-94507142D01*
X150910714Y-94578571D01*
X150839285Y-94614285D01*
X150767857Y-94614285D01*
X150625000Y-94114285D02*
X150339285Y-94114285D01*
X150517857Y-93864285D02*
X150517857Y-94507142D01*
X150482142Y-94578571D01*
X150410714Y-94614285D01*
X150339285Y-94614285D01*
X150089285Y-94114285D02*
X150089285Y-94864285D01*
X150089285Y-94150000D02*
X150017857Y-94114285D01*
X149875000Y-94114285D01*
X149803571Y-94150000D01*
X149767857Y-94185714D01*
X149732142Y-94257142D01*
X149732142Y-94471428D01*
X149767857Y-94542857D01*
X149803571Y-94578571D01*
X149875000Y-94614285D01*
X150017857Y-94614285D01*
X150089285Y-94578571D01*
X149446428Y-94578571D02*
X149375000Y-94614285D01*
X149232142Y-94614285D01*
X149160714Y-94578571D01*
X149125000Y-94507142D01*
X149125000Y-94471428D01*
X149160714Y-94400000D01*
X149232142Y-94364285D01*
X149339285Y-94364285D01*
X149410714Y-94328571D01*
X149446428Y-94257142D01*
X149446428Y-94221428D01*
X149410714Y-94150000D01*
X149339285Y-94114285D01*
X149232142Y-94114285D01*
X149160714Y-94150000D01*
X148803571Y-94542857D02*
X148767857Y-94578571D01*
X148803571Y-94614285D01*
X148839285Y-94578571D01*
X148803571Y-94542857D01*
X148803571Y-94614285D01*
X148803571Y-94150000D02*
X148767857Y-94185714D01*
X148803571Y-94221428D01*
X148839285Y-94185714D01*
X148803571Y-94150000D01*
X148803571Y-94221428D01*
X147910714Y-93828571D02*
X148553571Y-94792857D01*
X147125000Y-93828571D02*
X147767857Y-94792857D01*
X146946428Y-94114285D02*
X146803571Y-94614285D01*
X146660714Y-94257142D01*
X146517857Y-94614285D01*
X146375000Y-94114285D01*
X146160714Y-94114285D02*
X146017857Y-94614285D01*
X145875000Y-94257142D01*
X145732142Y-94614285D01*
X145589285Y-94114285D01*
X145375000Y-94114285D02*
X145232142Y-94614285D01*
X145089285Y-94257142D01*
X144946428Y-94614285D01*
X144803571Y-94114285D01*
X144517857Y-94542857D02*
X144482142Y-94578571D01*
X144517857Y-94614285D01*
X144553571Y-94578571D01*
X144517857Y-94542857D01*
X144517857Y-94614285D01*
X143839285Y-94114285D02*
X143839285Y-94721428D01*
X143875000Y-94792857D01*
X143910714Y-94828571D01*
X143982142Y-94864285D01*
X144089285Y-94864285D01*
X144160714Y-94828571D01*
X143839285Y-94578571D02*
X143910714Y-94614285D01*
X144053571Y-94614285D01*
X144125000Y-94578571D01*
X144160714Y-94542857D01*
X144196428Y-94471428D01*
X144196428Y-94257142D01*
X144160714Y-94185714D01*
X144125000Y-94150000D01*
X144053571Y-94114285D01*
X143910714Y-94114285D01*
X143839285Y-94150000D01*
X143482142Y-94114285D02*
X143482142Y-94614285D01*
X143482142Y-94185714D02*
X143446428Y-94150000D01*
X143375000Y-94114285D01*
X143267857Y-94114285D01*
X143196428Y-94150000D01*
X143160714Y-94221428D01*
X143160714Y-94614285D01*
X142482142Y-94114285D02*
X142482142Y-94614285D01*
X142803571Y-94114285D02*
X142803571Y-94507142D01*
X142767857Y-94578571D01*
X142696428Y-94614285D01*
X142589285Y-94614285D01*
X142517857Y-94578571D01*
X142482142Y-94542857D01*
X142125000Y-94542857D02*
X142089285Y-94578571D01*
X142125000Y-94614285D01*
X142160714Y-94578571D01*
X142125000Y-94542857D01*
X142125000Y-94614285D01*
X141660714Y-94614285D02*
X141732142Y-94578571D01*
X141767857Y-94542857D01*
X141803571Y-94471428D01*
X141803571Y-94257142D01*
X141767857Y-94185714D01*
X141732142Y-94150000D01*
X141660714Y-94114285D01*
X141553571Y-94114285D01*
X141482142Y-94150000D01*
X141446428Y-94185714D01*
X141410714Y-94257142D01*
X141410714Y-94471428D01*
X141446428Y-94542857D01*
X141482142Y-94578571D01*
X141553571Y-94614285D01*
X141660714Y-94614285D01*
X141089285Y-94614285D02*
X141089285Y-94114285D01*
X141089285Y-94257142D02*
X141053571Y-94185714D01*
X141017857Y-94150000D01*
X140946428Y-94114285D01*
X140875000Y-94114285D01*
X140303571Y-94114285D02*
X140303571Y-94721428D01*
X140339285Y-94792857D01*
X140375000Y-94828571D01*
X140446428Y-94864285D01*
X140553571Y-94864285D01*
X140625000Y-94828571D01*
X140303571Y-94578571D02*
X140375000Y-94614285D01*
X140517857Y-94614285D01*
X140589285Y-94578571D01*
X140625000Y-94542857D01*
X140660714Y-94471428D01*
X140660714Y-94257142D01*
X140625000Y-94185714D01*
X140589285Y-94150000D01*
X140517857Y-94114285D01*
X140375000Y-94114285D01*
X140303571Y-94150000D01*
X139410714Y-93828571D02*
X140053571Y-94792857D01*
X139053571Y-94614285D02*
X139125000Y-94578571D01*
X139160714Y-94507142D01*
X139160714Y-93864285D01*
X138767857Y-94614285D02*
X138767857Y-94114285D01*
X138767857Y-93864285D02*
X138803571Y-93900000D01*
X138767857Y-93935714D01*
X138732142Y-93900000D01*
X138767857Y-93864285D01*
X138767857Y-93935714D01*
X138089285Y-94578571D02*
X138160714Y-94614285D01*
X138303571Y-94614285D01*
X138375000Y-94578571D01*
X138410714Y-94542857D01*
X138446428Y-94471428D01*
X138446428Y-94257142D01*
X138410714Y-94185714D01*
X138375000Y-94150000D01*
X138303571Y-94114285D01*
X138160714Y-94114285D01*
X138089285Y-94150000D01*
X137482142Y-94578571D02*
X137553571Y-94614285D01*
X137696428Y-94614285D01*
X137767857Y-94578571D01*
X137803571Y-94507142D01*
X137803571Y-94221428D01*
X137767857Y-94150000D01*
X137696428Y-94114285D01*
X137553571Y-94114285D01*
X137482142Y-94150000D01*
X137446428Y-94221428D01*
X137446428Y-94292857D01*
X137803571Y-94364285D01*
X137125000Y-94114285D02*
X137125000Y-94614285D01*
X137125000Y-94185714D02*
X137089285Y-94150000D01*
X137017857Y-94114285D01*
X136910714Y-94114285D01*
X136839285Y-94150000D01*
X136803571Y-94221428D01*
X136803571Y-94614285D01*
X136482142Y-94578571D02*
X136410714Y-94614285D01*
X136267857Y-94614285D01*
X136196428Y-94578571D01*
X136160714Y-94507142D01*
X136160714Y-94471428D01*
X136196428Y-94400000D01*
X136267857Y-94364285D01*
X136375000Y-94364285D01*
X136446428Y-94328571D01*
X136482142Y-94257142D01*
X136482142Y-94221428D01*
X136446428Y-94150000D01*
X136375000Y-94114285D01*
X136267857Y-94114285D01*
X136196428Y-94150000D01*
X135553571Y-94578571D02*
X135625000Y-94614285D01*
X135767857Y-94614285D01*
X135839285Y-94578571D01*
X135875000Y-94507142D01*
X135875000Y-94221428D01*
X135839285Y-94150000D01*
X135767857Y-94114285D01*
X135625000Y-94114285D01*
X135553571Y-94150000D01*
X135517857Y-94221428D01*
X135517857Y-94292857D01*
X135875000Y-94364285D01*
X135232142Y-94578571D02*
X135160714Y-94614285D01*
X135017857Y-94614285D01*
X134946428Y-94578571D01*
X134910714Y-94507142D01*
X134910714Y-94471428D01*
X134946428Y-94400000D01*
X135017857Y-94364285D01*
X135125000Y-94364285D01*
X135196428Y-94328571D01*
X135232142Y-94257142D01*
X135232142Y-94221428D01*
X135196428Y-94150000D01*
X135125000Y-94114285D01*
X135017857Y-94114285D01*
X134946428Y-94150000D01*
X134053571Y-93828571D02*
X134696428Y-94792857D01*
X133803571Y-94114285D02*
X133232142Y-94328571D01*
X133803571Y-94542857D01*
X132875000Y-94542857D02*
X132839285Y-94578571D01*
X132875000Y-94614285D01*
X132910714Y-94578571D01*
X132875000Y-94542857D01*
X132875000Y-94614285D01*
X160750000Y-88488095D02*
X160702380Y-88392857D01*
X160702380Y-88250000D01*
X160750000Y-88107142D01*
X160845238Y-88011904D01*
X160940476Y-87964285D01*
X161130952Y-87916666D01*
X161273809Y-87916666D01*
X161464285Y-87964285D01*
X161559523Y-88011904D01*
X161654761Y-88107142D01*
X161702380Y-88250000D01*
X161702380Y-88345238D01*
X161654761Y-88488095D01*
X161607142Y-88535714D01*
X161273809Y-88535714D01*
X161273809Y-88345238D01*
X161702380Y-88964285D02*
X160702380Y-88964285D01*
X161702380Y-89535714D01*
X160702380Y-89535714D01*
X161702380Y-90011904D02*
X160702380Y-90011904D01*
X160702380Y-90250000D01*
X160750000Y-90392857D01*
X160845238Y-90488095D01*
X160940476Y-90535714D01*
X161130952Y-90583333D01*
X161273809Y-90583333D01*
X161464285Y-90535714D01*
X161559523Y-90488095D01*
X161654761Y-90392857D01*
X161702380Y-90250000D01*
X161702380Y-90011904D01*
X161702380Y-85535714D02*
X160702380Y-85535714D01*
X161178571Y-85535714D02*
X161178571Y-86107142D01*
X161702380Y-86107142D02*
X160702380Y-86107142D01*
X160702380Y-86440476D02*
X161702380Y-86773809D01*
X160702380Y-87107142D01*
X159267857Y-73701785D02*
X159267857Y-72951785D01*
X159267857Y-73308928D02*
X158839285Y-73308928D01*
X158839285Y-73701785D02*
X158839285Y-72951785D01*
X158482142Y-73701785D02*
X158482142Y-73201785D01*
X158482142Y-72951785D02*
X158517857Y-72987500D01*
X158482142Y-73023214D01*
X158446428Y-72987500D01*
X158482142Y-72951785D01*
X158482142Y-73023214D01*
X157803571Y-73201785D02*
X157803571Y-73808928D01*
X157839285Y-73880357D01*
X157875000Y-73916071D01*
X157946428Y-73951785D01*
X158053571Y-73951785D01*
X158125000Y-73916071D01*
X157803571Y-73666071D02*
X157875000Y-73701785D01*
X158017857Y-73701785D01*
X158089285Y-73666071D01*
X158125000Y-73630357D01*
X158160714Y-73558928D01*
X158160714Y-73344642D01*
X158125000Y-73273214D01*
X158089285Y-73237500D01*
X158017857Y-73201785D01*
X157875000Y-73201785D01*
X157803571Y-73237500D01*
X157446428Y-73701785D02*
X157446428Y-72951785D01*
X157125000Y-73701785D02*
X157125000Y-73308928D01*
X157160714Y-73237500D01*
X157232142Y-73201785D01*
X157339285Y-73201785D01*
X157410714Y-73237500D01*
X157446428Y-73273214D01*
X156303571Y-72951785D02*
X156053571Y-73701785D01*
X155803571Y-72951785D01*
X155446428Y-73701785D02*
X155517857Y-73666071D01*
X155553571Y-73630357D01*
X155589285Y-73558928D01*
X155589285Y-73344642D01*
X155553571Y-73273214D01*
X155517857Y-73237500D01*
X155446428Y-73201785D01*
X155339285Y-73201785D01*
X155267857Y-73237500D01*
X155232142Y-73273214D01*
X155196428Y-73344642D01*
X155196428Y-73558928D01*
X155232142Y-73630357D01*
X155267857Y-73666071D01*
X155339285Y-73701785D01*
X155446428Y-73701785D01*
X154767857Y-73701785D02*
X154839285Y-73666071D01*
X154875000Y-73594642D01*
X154875000Y-72951785D01*
X154589285Y-73201785D02*
X154303571Y-73201785D01*
X154482142Y-72951785D02*
X154482142Y-73594642D01*
X154446428Y-73666071D01*
X154375000Y-73701785D01*
X154303571Y-73701785D01*
X153732142Y-73701785D02*
X153732142Y-73308928D01*
X153767857Y-73237500D01*
X153839285Y-73201785D01*
X153982142Y-73201785D01*
X154053571Y-73237500D01*
X153732142Y-73666071D02*
X153803571Y-73701785D01*
X153982142Y-73701785D01*
X154053571Y-73666071D01*
X154089285Y-73594642D01*
X154089285Y-73523214D01*
X154053571Y-73451785D01*
X153982142Y-73416071D01*
X153803571Y-73416071D01*
X153732142Y-73380357D01*
X153053571Y-73201785D02*
X153053571Y-73808928D01*
X153089285Y-73880357D01*
X153125000Y-73916071D01*
X153196428Y-73951785D01*
X153303571Y-73951785D01*
X153375000Y-73916071D01*
X153053571Y-73666071D02*
X153125000Y-73701785D01*
X153267857Y-73701785D01*
X153339285Y-73666071D01*
X153375000Y-73630357D01*
X153410714Y-73558928D01*
X153410714Y-73344642D01*
X153375000Y-73273214D01*
X153339285Y-73237500D01*
X153267857Y-73201785D01*
X153125000Y-73201785D01*
X153053571Y-73237500D01*
X152410714Y-73666071D02*
X152482142Y-73701785D01*
X152625000Y-73701785D01*
X152696428Y-73666071D01*
X152732142Y-73594642D01*
X152732142Y-73308928D01*
X152696428Y-73237500D01*
X152625000Y-73201785D01*
X152482142Y-73201785D01*
X152410714Y-73237500D01*
X152375000Y-73308928D01*
X152375000Y-73380357D01*
X152732142Y-73451785D01*
X151482142Y-73701785D02*
X151482142Y-72951785D01*
X151196428Y-72951785D01*
X151125000Y-72987500D01*
X151089285Y-73023214D01*
X151053571Y-73094642D01*
X151053571Y-73201785D01*
X151089285Y-73273214D01*
X151125000Y-73308928D01*
X151196428Y-73344642D01*
X151482142Y-73344642D01*
X150625000Y-73701785D02*
X150696428Y-73666071D01*
X150732142Y-73630357D01*
X150767857Y-73558928D01*
X150767857Y-73344642D01*
X150732142Y-73273214D01*
X150696428Y-73237500D01*
X150625000Y-73201785D01*
X150517857Y-73201785D01*
X150446428Y-73237500D01*
X150410714Y-73273214D01*
X150375000Y-73344642D01*
X150375000Y-73558928D01*
X150410714Y-73630357D01*
X150446428Y-73666071D01*
X150517857Y-73701785D01*
X150625000Y-73701785D01*
X150125000Y-73201785D02*
X149982142Y-73701785D01*
X149839285Y-73344642D01*
X149696428Y-73701785D01*
X149553571Y-73201785D01*
X148982142Y-73666071D02*
X149053571Y-73701785D01*
X149196428Y-73701785D01*
X149267857Y-73666071D01*
X149303571Y-73594642D01*
X149303571Y-73308928D01*
X149267857Y-73237500D01*
X149196428Y-73201785D01*
X149053571Y-73201785D01*
X148982142Y-73237500D01*
X148946428Y-73308928D01*
X148946428Y-73380357D01*
X149303571Y-73451785D01*
X148625000Y-73701785D02*
X148625000Y-73201785D01*
X148625000Y-73344642D02*
X148589285Y-73273214D01*
X148553571Y-73237500D01*
X148482142Y-73201785D01*
X148410714Y-73201785D01*
X147625000Y-73666071D02*
X147517857Y-73701785D01*
X147339285Y-73701785D01*
X147267857Y-73666071D01*
X147232142Y-73630357D01*
X147196428Y-73558928D01*
X147196428Y-73487500D01*
X147232142Y-73416071D01*
X147267857Y-73380357D01*
X147339285Y-73344642D01*
X147482142Y-73308928D01*
X147553571Y-73273214D01*
X147589285Y-73237500D01*
X147625000Y-73166071D01*
X147625000Y-73094642D01*
X147589285Y-73023214D01*
X147553571Y-72987500D01*
X147482142Y-72951785D01*
X147303571Y-72951785D01*
X147196428Y-72987500D01*
X146553571Y-73201785D02*
X146553571Y-73701785D01*
X146875000Y-73201785D02*
X146875000Y-73594642D01*
X146839285Y-73666071D01*
X146767857Y-73701785D01*
X146660714Y-73701785D01*
X146589285Y-73666071D01*
X146553571Y-73630357D01*
X146196428Y-73201785D02*
X146196428Y-73951785D01*
X146196428Y-73237500D02*
X146125000Y-73201785D01*
X145982142Y-73201785D01*
X145910714Y-73237500D01*
X145875000Y-73273214D01*
X145839285Y-73344642D01*
X145839285Y-73558928D01*
X145875000Y-73630357D01*
X145910714Y-73666071D01*
X145982142Y-73701785D01*
X146125000Y-73701785D01*
X146196428Y-73666071D01*
X145517857Y-73201785D02*
X145517857Y-73951785D01*
X145517857Y-73237500D02*
X145446428Y-73201785D01*
X145303571Y-73201785D01*
X145232142Y-73237500D01*
X145196428Y-73273214D01*
X145160714Y-73344642D01*
X145160714Y-73558928D01*
X145196428Y-73630357D01*
X145232142Y-73666071D01*
X145303571Y-73701785D01*
X145446428Y-73701785D01*
X145517857Y-73666071D01*
X144732142Y-73701785D02*
X144803571Y-73666071D01*
X144839285Y-73594642D01*
X144839285Y-72951785D01*
X144517857Y-73201785D02*
X144339285Y-73701785D01*
X144160714Y-73201785D02*
X144339285Y-73701785D01*
X144410714Y-73880357D01*
X144446428Y-73916071D01*
X144517857Y-73951785D01*
X163303571Y-74476785D02*
X163303571Y-75083928D01*
X163339285Y-75155357D01*
X163375000Y-75191071D01*
X163446428Y-75226785D01*
X163553571Y-75226785D01*
X163625000Y-75191071D01*
X163303571Y-74941071D02*
X163375000Y-74976785D01*
X163517857Y-74976785D01*
X163589285Y-74941071D01*
X163625000Y-74905357D01*
X163660714Y-74833928D01*
X163660714Y-74619642D01*
X163625000Y-74548214D01*
X163589285Y-74512500D01*
X163517857Y-74476785D01*
X163375000Y-74476785D01*
X163303571Y-74512500D01*
X162946428Y-74976785D02*
X162946428Y-74476785D01*
X162946428Y-74226785D02*
X162982142Y-74262500D01*
X162946428Y-74298214D01*
X162910714Y-74262500D01*
X162946428Y-74226785D01*
X162946428Y-74298214D01*
X162696428Y-74476785D02*
X162410714Y-74476785D01*
X162589285Y-74226785D02*
X162589285Y-74869642D01*
X162553571Y-74941071D01*
X162482142Y-74976785D01*
X162410714Y-74976785D01*
X162160714Y-74976785D02*
X162160714Y-74226785D01*
X161839285Y-74976785D02*
X161839285Y-74583928D01*
X161875000Y-74512500D01*
X161946428Y-74476785D01*
X162053571Y-74476785D01*
X162125000Y-74512500D01*
X162160714Y-74548214D01*
X161160714Y-74476785D02*
X161160714Y-74976785D01*
X161482142Y-74476785D02*
X161482142Y-74869642D01*
X161446428Y-74941071D01*
X161375000Y-74976785D01*
X161267857Y-74976785D01*
X161196428Y-74941071D01*
X161160714Y-74905357D01*
X160803571Y-74976785D02*
X160803571Y-74226785D01*
X160803571Y-74512500D02*
X160732142Y-74476785D01*
X160589285Y-74476785D01*
X160517857Y-74512500D01*
X160482142Y-74548214D01*
X160446428Y-74619642D01*
X160446428Y-74833928D01*
X160482142Y-74905357D01*
X160517857Y-74941071D01*
X160589285Y-74976785D01*
X160732142Y-74976785D01*
X160803571Y-74941071D01*
X160125000Y-74905357D02*
X160089285Y-74941071D01*
X160125000Y-74976785D01*
X160160714Y-74941071D01*
X160125000Y-74905357D01*
X160125000Y-74976785D01*
X159446428Y-74941071D02*
X159517857Y-74976785D01*
X159660714Y-74976785D01*
X159732142Y-74941071D01*
X159767857Y-74905357D01*
X159803571Y-74833928D01*
X159803571Y-74619642D01*
X159767857Y-74548214D01*
X159732142Y-74512500D01*
X159660714Y-74476785D01*
X159517857Y-74476785D01*
X159446428Y-74512500D01*
X159017857Y-74976785D02*
X159089285Y-74941071D01*
X159125000Y-74905357D01*
X159160714Y-74833928D01*
X159160714Y-74619642D01*
X159125000Y-74548214D01*
X159089285Y-74512500D01*
X159017857Y-74476785D01*
X158910714Y-74476785D01*
X158839285Y-74512500D01*
X158803571Y-74548214D01*
X158767857Y-74619642D01*
X158767857Y-74833928D01*
X158803571Y-74905357D01*
X158839285Y-74941071D01*
X158910714Y-74976785D01*
X159017857Y-74976785D01*
X158446428Y-74976785D02*
X158446428Y-74476785D01*
X158446428Y-74548214D02*
X158410714Y-74512500D01*
X158339285Y-74476785D01*
X158232142Y-74476785D01*
X158160714Y-74512500D01*
X158125000Y-74583928D01*
X158125000Y-74976785D01*
X158125000Y-74583928D02*
X158089285Y-74512500D01*
X158017857Y-74476785D01*
X157910714Y-74476785D01*
X157839285Y-74512500D01*
X157803571Y-74583928D01*
X157803571Y-74976785D01*
X156910714Y-74191071D02*
X157553571Y-75155357D01*
X156660714Y-74976785D02*
X156660714Y-74226785D01*
X156482142Y-74226785D01*
X156375000Y-74262500D01*
X156303571Y-74333928D01*
X156267857Y-74405357D01*
X156232142Y-74548214D01*
X156232142Y-74655357D01*
X156267857Y-74798214D01*
X156303571Y-74869642D01*
X156375000Y-74941071D01*
X156482142Y-74976785D01*
X156660714Y-74976785D01*
X155589285Y-74976785D02*
X155589285Y-74583928D01*
X155625000Y-74512500D01*
X155696428Y-74476785D01*
X155839285Y-74476785D01*
X155910714Y-74512500D01*
X155589285Y-74941071D02*
X155660714Y-74976785D01*
X155839285Y-74976785D01*
X155910714Y-74941071D01*
X155946428Y-74869642D01*
X155946428Y-74798214D01*
X155910714Y-74726785D01*
X155839285Y-74691071D01*
X155660714Y-74691071D01*
X155589285Y-74655357D01*
X155232142Y-74476785D02*
X155232142Y-74976785D01*
X155232142Y-74548214D02*
X155196428Y-74512500D01*
X155125000Y-74476785D01*
X155017857Y-74476785D01*
X154946428Y-74512500D01*
X154910714Y-74583928D01*
X154910714Y-74976785D01*
X154553571Y-74976785D02*
X154553571Y-74476785D01*
X154553571Y-74226785D02*
X154589285Y-74262500D01*
X154553571Y-74298214D01*
X154517857Y-74262500D01*
X154553571Y-74226785D01*
X154553571Y-74298214D01*
X153910714Y-74941071D02*
X153982142Y-74976785D01*
X154125000Y-74976785D01*
X154196428Y-74941071D01*
X154232142Y-74869642D01*
X154232142Y-74583928D01*
X154196428Y-74512500D01*
X154125000Y-74476785D01*
X153982142Y-74476785D01*
X153910714Y-74512500D01*
X153875000Y-74583928D01*
X153875000Y-74655357D01*
X154232142Y-74726785D01*
X153446428Y-74976785D02*
X153517857Y-74941071D01*
X153553571Y-74869642D01*
X153553571Y-74226785D01*
X153160714Y-74976785D02*
X153160714Y-74226785D01*
X153160714Y-74583928D02*
X152732142Y-74583928D01*
X152732142Y-74976785D02*
X152732142Y-74226785D01*
X152089285Y-74941071D02*
X152160714Y-74976785D01*
X152303571Y-74976785D01*
X152375000Y-74941071D01*
X152410714Y-74869642D01*
X152410714Y-74583928D01*
X152375000Y-74512500D01*
X152303571Y-74476785D01*
X152160714Y-74476785D01*
X152089285Y-74512500D01*
X152053571Y-74583928D01*
X152053571Y-74655357D01*
X152410714Y-74726785D01*
X151732142Y-74583928D02*
X151482142Y-74583928D01*
X151375000Y-74976785D02*
X151732142Y-74976785D01*
X151732142Y-74226785D01*
X151375000Y-74226785D01*
X150660714Y-74262500D02*
X150732142Y-74226785D01*
X150839285Y-74226785D01*
X150946428Y-74262500D01*
X151017857Y-74333928D01*
X151053571Y-74405357D01*
X151089285Y-74548214D01*
X151089285Y-74655357D01*
X151053571Y-74798214D01*
X151017857Y-74869642D01*
X150946428Y-74941071D01*
X150839285Y-74976785D01*
X150767857Y-74976785D01*
X150660714Y-74941071D01*
X150625000Y-74905357D01*
X150625000Y-74655357D01*
X150767857Y-74655357D01*
X149910714Y-74262500D02*
X149982142Y-74226785D01*
X150089285Y-74226785D01*
X150196428Y-74262500D01*
X150267857Y-74333928D01*
X150303571Y-74405357D01*
X150339285Y-74548214D01*
X150339285Y-74655357D01*
X150303571Y-74798214D01*
X150267857Y-74869642D01*
X150196428Y-74941071D01*
X150089285Y-74976785D01*
X150017857Y-74976785D01*
X149910714Y-74941071D01*
X149875000Y-74905357D01*
X149875000Y-74655357D01*
X150017857Y-74655357D01*
X149017857Y-74191071D02*
X149660714Y-75155357D01*
X148767857Y-74976785D02*
X148767857Y-74226785D01*
X148339285Y-74976785D01*
X148339285Y-74226785D01*
X147982142Y-74976785D02*
X147982142Y-74476785D01*
X147982142Y-74226785D02*
X148017857Y-74262500D01*
X147982142Y-74298214D01*
X147946428Y-74262500D01*
X147982142Y-74226785D01*
X147982142Y-74298214D01*
X147696428Y-74976785D02*
X147303571Y-74476785D01*
X147696428Y-74476785D02*
X147303571Y-74976785D01*
X147017857Y-74976785D02*
X147017857Y-74476785D01*
X147017857Y-74226785D02*
X147053571Y-74262500D01*
X147017857Y-74298214D01*
X146982142Y-74262500D01*
X147017857Y-74226785D01*
X147017857Y-74298214D01*
X146375000Y-74941071D02*
X146446428Y-74976785D01*
X146589285Y-74976785D01*
X146660714Y-74941071D01*
X146696428Y-74869642D01*
X146696428Y-74583928D01*
X146660714Y-74512500D01*
X146589285Y-74476785D01*
X146446428Y-74476785D01*
X146375000Y-74512500D01*
X146339285Y-74583928D01*
X146339285Y-74655357D01*
X146696428Y-74726785D01*
X146017857Y-74691071D02*
X145446428Y-74691071D01*
X144660714Y-74905357D02*
X144696428Y-74941071D01*
X144803571Y-74976785D01*
X144875000Y-74976785D01*
X144982142Y-74941071D01*
X145053571Y-74869642D01*
X145089285Y-74798214D01*
X145125000Y-74655357D01*
X145125000Y-74548214D01*
X145089285Y-74405357D01*
X145053571Y-74333928D01*
X144982142Y-74262500D01*
X144875000Y-74226785D01*
X144803571Y-74226785D01*
X144696428Y-74262500D01*
X144660714Y-74298214D01*
X144232142Y-74976785D02*
X144303571Y-74941071D01*
X144339285Y-74905357D01*
X144375000Y-74833928D01*
X144375000Y-74619642D01*
X144339285Y-74548214D01*
X144303571Y-74512500D01*
X144232142Y-74476785D01*
X144125000Y-74476785D01*
X144053571Y-74512500D01*
X144017857Y-74548214D01*
X143982142Y-74619642D01*
X143982142Y-74833928D01*
X144017857Y-74905357D01*
X144053571Y-74941071D01*
X144125000Y-74976785D01*
X144232142Y-74976785D01*
X143660714Y-74476785D02*
X143660714Y-74976785D01*
X143660714Y-74548214D02*
X143625000Y-74512500D01*
X143553571Y-74476785D01*
X143446428Y-74476785D01*
X143375000Y-74512500D01*
X143339285Y-74583928D01*
X143339285Y-74976785D01*
X143089285Y-74476785D02*
X142803571Y-74476785D01*
X142982142Y-74226785D02*
X142982142Y-74869642D01*
X142946428Y-74941071D01*
X142875000Y-74976785D01*
X142803571Y-74976785D01*
X142553571Y-74976785D02*
X142553571Y-74476785D01*
X142553571Y-74619642D02*
X142517857Y-74548214D01*
X142482142Y-74512500D01*
X142410714Y-74476785D01*
X142339285Y-74476785D01*
X141982142Y-74976785D02*
X142053571Y-74941071D01*
X142089285Y-74905357D01*
X142125000Y-74833928D01*
X142125000Y-74619642D01*
X142089285Y-74548214D01*
X142053571Y-74512500D01*
X141982142Y-74476785D01*
X141875000Y-74476785D01*
X141803571Y-74512500D01*
X141767857Y-74548214D01*
X141732142Y-74619642D01*
X141732142Y-74833928D01*
X141767857Y-74905357D01*
X141803571Y-74941071D01*
X141875000Y-74976785D01*
X141982142Y-74976785D01*
X141303571Y-74976785D02*
X141375000Y-74941071D01*
X141410714Y-74869642D01*
X141410714Y-74226785D01*
X140910714Y-74976785D02*
X140982142Y-74941071D01*
X141017857Y-74869642D01*
X141017857Y-74226785D01*
X140339285Y-74941071D02*
X140410714Y-74976785D01*
X140553571Y-74976785D01*
X140625000Y-74941071D01*
X140660714Y-74869642D01*
X140660714Y-74583928D01*
X140625000Y-74512500D01*
X140553571Y-74476785D01*
X140410714Y-74476785D01*
X140339285Y-74512500D01*
X140303571Y-74583928D01*
X140303571Y-74655357D01*
X140660714Y-74726785D01*
X139982142Y-74976785D02*
X139982142Y-74476785D01*
X139982142Y-74619642D02*
X139946428Y-74548214D01*
X139910714Y-74512500D01*
X139839285Y-74476785D01*
X139767857Y-74476785D01*
D11*
%TO.C,CAUTION*%
X159449640Y-87252160D02*
X156350840Y-88451040D01*
X156350840Y-88451040D02*
X156749620Y-87851600D01*
X157450660Y-86850840D02*
X154649040Y-88151320D01*
X159449640Y-87252160D02*
X158751140Y-87851600D01*
X154450920Y-87650940D02*
X157450660Y-86850840D01*
X157450660Y-86850840D02*
X156650560Y-88049720D01*
X156650560Y-88049720D02*
X159449640Y-87252160D01*
X159449640Y-87252160D02*
X158550480Y-87150560D01*
X153059000Y-87750000D02*
X160044000Y-92449000D01*
X160044000Y-92449000D02*
X160044000Y-83051000D01*
X160044000Y-83051000D02*
X153059000Y-87750000D01*
D12*
%TO.C,REF\u002A\u002A*%
G36*
X150900256Y-79919918D02*
G01*
X150844799Y-79947568D01*
X150795852Y-79998480D01*
X150782371Y-80017338D01*
X150767686Y-80042015D01*
X150758158Y-80068816D01*
X150752707Y-80104587D01*
X150750253Y-80156169D01*
X150749714Y-80224267D01*
X150752148Y-80317588D01*
X150760606Y-80387657D01*
X150776826Y-80439931D01*
X150802546Y-80479869D01*
X150839503Y-80512929D01*
X150842218Y-80514886D01*
X150878640Y-80534908D01*
X150922498Y-80544815D01*
X150978276Y-80547257D01*
X151068952Y-80547257D01*
X151068990Y-80635283D01*
X151069834Y-80684308D01*
X151074976Y-80713065D01*
X151088413Y-80730311D01*
X151114142Y-80744808D01*
X151120321Y-80747769D01*
X151149236Y-80761648D01*
X151171624Y-80770414D01*
X151188271Y-80771171D01*
X151199964Y-80761023D01*
X151207490Y-80737073D01*
X151211634Y-80696426D01*
X151213185Y-80636186D01*
X151212929Y-80553455D01*
X151211651Y-80445339D01*
X151211252Y-80413000D01*
X151209815Y-80301524D01*
X151208528Y-80228603D01*
X151069029Y-80228603D01*
X151068245Y-80290499D01*
X151064760Y-80330997D01*
X151056876Y-80357708D01*
X151042895Y-80378244D01*
X151033403Y-80388260D01*
X150994596Y-80417567D01*
X150960237Y-80419952D01*
X150924784Y-80395750D01*
X150923886Y-80394857D01*
X150909461Y-80376153D01*
X150900687Y-80350732D01*
X150896261Y-80311584D01*
X150894882Y-80251697D01*
X150894857Y-80238430D01*
X150898188Y-80155901D01*
X150909031Y-80098691D01*
X150928660Y-80063766D01*
X150958350Y-80048094D01*
X150975509Y-80046514D01*
X151016234Y-80053926D01*
X151044168Y-80078330D01*
X151060983Y-80122980D01*
X151068350Y-80191130D01*
X151069029Y-80228603D01*
X151208528Y-80228603D01*
X151208292Y-80215245D01*
X151206323Y-80150333D01*
X151203550Y-80102958D01*
X151199612Y-80069290D01*
X151194151Y-80045498D01*
X151186808Y-80027753D01*
X151177223Y-80012224D01*
X151173113Y-80006381D01*
X151118595Y-79951185D01*
X151049664Y-79919890D01*
X150969928Y-79911165D01*
X150900256Y-79919918D01*
G37*
X150900256Y-79919918D02*
X150844799Y-79947568D01*
X150795852Y-79998480D01*
X150782371Y-80017338D01*
X150767686Y-80042015D01*
X150758158Y-80068816D01*
X150752707Y-80104587D01*
X150750253Y-80156169D01*
X150749714Y-80224267D01*
X150752148Y-80317588D01*
X150760606Y-80387657D01*
X150776826Y-80439931D01*
X150802546Y-80479869D01*
X150839503Y-80512929D01*
X150842218Y-80514886D01*
X150878640Y-80534908D01*
X150922498Y-80544815D01*
X150978276Y-80547257D01*
X151068952Y-80547257D01*
X151068990Y-80635283D01*
X151069834Y-80684308D01*
X151074976Y-80713065D01*
X151088413Y-80730311D01*
X151114142Y-80744808D01*
X151120321Y-80747769D01*
X151149236Y-80761648D01*
X151171624Y-80770414D01*
X151188271Y-80771171D01*
X151199964Y-80761023D01*
X151207490Y-80737073D01*
X151211634Y-80696426D01*
X151213185Y-80636186D01*
X151212929Y-80553455D01*
X151211651Y-80445339D01*
X151211252Y-80413000D01*
X151209815Y-80301524D01*
X151208528Y-80228603D01*
X151069029Y-80228603D01*
X151068245Y-80290499D01*
X151064760Y-80330997D01*
X151056876Y-80357708D01*
X151042895Y-80378244D01*
X151033403Y-80388260D01*
X150994596Y-80417567D01*
X150960237Y-80419952D01*
X150924784Y-80395750D01*
X150923886Y-80394857D01*
X150909461Y-80376153D01*
X150900687Y-80350732D01*
X150896261Y-80311584D01*
X150894882Y-80251697D01*
X150894857Y-80238430D01*
X150898188Y-80155901D01*
X150909031Y-80098691D01*
X150928660Y-80063766D01*
X150958350Y-80048094D01*
X150975509Y-80046514D01*
X151016234Y-80053926D01*
X151044168Y-80078330D01*
X151060983Y-80122980D01*
X151068350Y-80191130D01*
X151069029Y-80228603D01*
X151208528Y-80228603D01*
X151208292Y-80215245D01*
X151206323Y-80150333D01*
X151203550Y-80102958D01*
X151199612Y-80069290D01*
X151194151Y-80045498D01*
X151186808Y-80027753D01*
X151177223Y-80012224D01*
X151173113Y-80006381D01*
X151118595Y-79951185D01*
X151049664Y-79919890D01*
X150969928Y-79911165D01*
X150900256Y-79919918D01*
G36*
X149783907Y-79927780D02*
G01*
X149737328Y-79954723D01*
X149704943Y-79981466D01*
X149681258Y-80009484D01*
X149664941Y-80043748D01*
X149654661Y-80089227D01*
X149649086Y-80150892D01*
X149646884Y-80233711D01*
X149646629Y-80293246D01*
X149646629Y-80512391D01*
X149708314Y-80540044D01*
X149770000Y-80567697D01*
X149777257Y-80327670D01*
X149780256Y-80238028D01*
X149783402Y-80172962D01*
X149787299Y-80128026D01*
X149792553Y-80098770D01*
X149799769Y-80080748D01*
X149809550Y-80069511D01*
X149812688Y-80067079D01*
X149860239Y-80048083D01*
X149908303Y-80055600D01*
X149936914Y-80075543D01*
X149948553Y-80089675D01*
X149956609Y-80108220D01*
X149961729Y-80136334D01*
X149964559Y-80179173D01*
X149965744Y-80241895D01*
X149965943Y-80307261D01*
X149965982Y-80389268D01*
X149967386Y-80447316D01*
X149972086Y-80486465D01*
X149982013Y-80511780D01*
X149999097Y-80528323D01*
X150025268Y-80541156D01*
X150060225Y-80554491D01*
X150098404Y-80569007D01*
X150093859Y-80311389D01*
X150092029Y-80218519D01*
X150089888Y-80149889D01*
X150086819Y-80100711D01*
X150082206Y-80066198D01*
X150075432Y-80041562D01*
X150065881Y-80022016D01*
X150054366Y-80004770D01*
X149998810Y-79949680D01*
X149931020Y-79917822D01*
X149857287Y-79910191D01*
X149783907Y-79927780D01*
G37*
X149783907Y-79927780D02*
X149737328Y-79954723D01*
X149704943Y-79981466D01*
X149681258Y-80009484D01*
X149664941Y-80043748D01*
X149654661Y-80089227D01*
X149649086Y-80150892D01*
X149646884Y-80233711D01*
X149646629Y-80293246D01*
X149646629Y-80512391D01*
X149708314Y-80540044D01*
X149770000Y-80567697D01*
X149777257Y-80327670D01*
X149780256Y-80238028D01*
X149783402Y-80172962D01*
X149787299Y-80128026D01*
X149792553Y-80098770D01*
X149799769Y-80080748D01*
X149809550Y-80069511D01*
X149812688Y-80067079D01*
X149860239Y-80048083D01*
X149908303Y-80055600D01*
X149936914Y-80075543D01*
X149948553Y-80089675D01*
X149956609Y-80108220D01*
X149961729Y-80136334D01*
X149964559Y-80179173D01*
X149965744Y-80241895D01*
X149965943Y-80307261D01*
X149965982Y-80389268D01*
X149967386Y-80447316D01*
X149972086Y-80486465D01*
X149982013Y-80511780D01*
X149999097Y-80528323D01*
X150025268Y-80541156D01*
X150060225Y-80554491D01*
X150098404Y-80569007D01*
X150093859Y-80311389D01*
X150092029Y-80218519D01*
X150089888Y-80149889D01*
X150086819Y-80100711D01*
X150082206Y-80066198D01*
X150075432Y-80041562D01*
X150065881Y-80022016D01*
X150054366Y-80004770D01*
X149998810Y-79949680D01*
X149931020Y-79917822D01*
X149857287Y-79910191D01*
X149783907Y-79927780D01*
G36*
X151458885Y-79921962D02*
G01*
X151390855Y-79957733D01*
X151340649Y-80015301D01*
X151322815Y-80052312D01*
X151308937Y-80107882D01*
X151301833Y-80178096D01*
X151301160Y-80254727D01*
X151306573Y-80329552D01*
X151317730Y-80394342D01*
X151334286Y-80440873D01*
X151339374Y-80448887D01*
X151399645Y-80508707D01*
X151471231Y-80544535D01*
X151548908Y-80555020D01*
X151627452Y-80538810D01*
X151649311Y-80529092D01*
X151691878Y-80499143D01*
X151729237Y-80459433D01*
X151732768Y-80454397D01*
X151747119Y-80430124D01*
X151756606Y-80404178D01*
X151762210Y-80370022D01*
X151764914Y-80321119D01*
X151765701Y-80250935D01*
X151765714Y-80235200D01*
X151765678Y-80230192D01*
X151620571Y-80230192D01*
X151619727Y-80296430D01*
X151616404Y-80340386D01*
X151609417Y-80368779D01*
X151597584Y-80388325D01*
X151591543Y-80394857D01*
X151556814Y-80419680D01*
X151523097Y-80418548D01*
X151489005Y-80397016D01*
X151468671Y-80374029D01*
X151456629Y-80340478D01*
X151449866Y-80287569D01*
X151449402Y-80281399D01*
X151448248Y-80185513D01*
X151460312Y-80114299D01*
X151485430Y-80068194D01*
X151523440Y-80047635D01*
X151537008Y-80046514D01*
X151572636Y-80052152D01*
X151597006Y-80071686D01*
X151611907Y-80109042D01*
X151619125Y-80168150D01*
X151620571Y-80230192D01*
X151765678Y-80230192D01*
X151765174Y-80160413D01*
X151762904Y-80108159D01*
X151757932Y-80071949D01*
X151749287Y-80045299D01*
X151735995Y-80021722D01*
X151733057Y-80017338D01*
X151683687Y-79958249D01*
X151629891Y-79923947D01*
X151564398Y-79910331D01*
X151542158Y-79909665D01*
X151458885Y-79921962D01*
G37*
X151458885Y-79921962D02*
X151390855Y-79957733D01*
X151340649Y-80015301D01*
X151322815Y-80052312D01*
X151308937Y-80107882D01*
X151301833Y-80178096D01*
X151301160Y-80254727D01*
X151306573Y-80329552D01*
X151317730Y-80394342D01*
X151334286Y-80440873D01*
X151339374Y-80448887D01*
X151399645Y-80508707D01*
X151471231Y-80544535D01*
X151548908Y-80555020D01*
X151627452Y-80538810D01*
X151649311Y-80529092D01*
X151691878Y-80499143D01*
X151729237Y-80459433D01*
X151732768Y-80454397D01*
X151747119Y-80430124D01*
X151756606Y-80404178D01*
X151762210Y-80370022D01*
X151764914Y-80321119D01*
X151765701Y-80250935D01*
X151765714Y-80235200D01*
X151765678Y-80230192D01*
X151620571Y-80230192D01*
X151619727Y-80296430D01*
X151616404Y-80340386D01*
X151609417Y-80368779D01*
X151597584Y-80388325D01*
X151591543Y-80394857D01*
X151556814Y-80419680D01*
X151523097Y-80418548D01*
X151489005Y-80397016D01*
X151468671Y-80374029D01*
X151456629Y-80340478D01*
X151449866Y-80287569D01*
X151449402Y-80281399D01*
X151448248Y-80185513D01*
X151460312Y-80114299D01*
X151485430Y-80068194D01*
X151523440Y-80047635D01*
X151537008Y-80046514D01*
X151572636Y-80052152D01*
X151597006Y-80071686D01*
X151611907Y-80109042D01*
X151619125Y-80168150D01*
X151620571Y-80230192D01*
X151765678Y-80230192D01*
X151765174Y-80160413D01*
X151762904Y-80108159D01*
X151757932Y-80071949D01*
X151749287Y-80045299D01*
X151735995Y-80021722D01*
X151733057Y-80017338D01*
X151683687Y-79958249D01*
X151629891Y-79923947D01*
X151564398Y-79910331D01*
X151542158Y-79909665D01*
X151458885Y-79921962D01*
G36*
X150331697Y-79931239D02*
G01*
X150274473Y-79969735D01*
X150230251Y-80025335D01*
X150203833Y-80096086D01*
X150198490Y-80148162D01*
X150199097Y-80169893D01*
X150204178Y-80186531D01*
X150218145Y-80201437D01*
X150245411Y-80217973D01*
X150290388Y-80239498D01*
X150357489Y-80269374D01*
X150357829Y-80269524D01*
X150419593Y-80297813D01*
X150470241Y-80322933D01*
X150504596Y-80342179D01*
X150517482Y-80352848D01*
X150517486Y-80352934D01*
X150506128Y-80376166D01*
X150479569Y-80401774D01*
X150449077Y-80420221D01*
X150433630Y-80423886D01*
X150391485Y-80411212D01*
X150355192Y-80379471D01*
X150337483Y-80344572D01*
X150320448Y-80318845D01*
X150287078Y-80289546D01*
X150247851Y-80264235D01*
X150213244Y-80250471D01*
X150206007Y-80249714D01*
X150197861Y-80262160D01*
X150197370Y-80293972D01*
X150203357Y-80336866D01*
X150214643Y-80382558D01*
X150230050Y-80422761D01*
X150230829Y-80424322D01*
X150277196Y-80489062D01*
X150337289Y-80533097D01*
X150405535Y-80554711D01*
X150476362Y-80552185D01*
X150544196Y-80523804D01*
X150547212Y-80521808D01*
X150600573Y-80473448D01*
X150635660Y-80410352D01*
X150655078Y-80327387D01*
X150657684Y-80304078D01*
X150662299Y-80194055D01*
X150656767Y-80142748D01*
X150517486Y-80142748D01*
X150515676Y-80174753D01*
X150505778Y-80184093D01*
X150481102Y-80177105D01*
X150442205Y-80160587D01*
X150398725Y-80139881D01*
X150397644Y-80139333D01*
X150360791Y-80119949D01*
X150346000Y-80107013D01*
X150349647Y-80093451D01*
X150365005Y-80075632D01*
X150404077Y-80049845D01*
X150446154Y-80047950D01*
X150483897Y-80066717D01*
X150509966Y-80102915D01*
X150517486Y-80142748D01*
X150656767Y-80142748D01*
X150652806Y-80106027D01*
X150628450Y-80036212D01*
X150594544Y-79987302D01*
X150533347Y-79937878D01*
X150465937Y-79913359D01*
X150397120Y-79911797D01*
X150331697Y-79931239D01*
G37*
X150331697Y-79931239D02*
X150274473Y-79969735D01*
X150230251Y-80025335D01*
X150203833Y-80096086D01*
X150198490Y-80148162D01*
X150199097Y-80169893D01*
X150204178Y-80186531D01*
X150218145Y-80201437D01*
X150245411Y-80217973D01*
X150290388Y-80239498D01*
X150357489Y-80269374D01*
X150357829Y-80269524D01*
X150419593Y-80297813D01*
X150470241Y-80322933D01*
X150504596Y-80342179D01*
X150517482Y-80352848D01*
X150517486Y-80352934D01*
X150506128Y-80376166D01*
X150479569Y-80401774D01*
X150449077Y-80420221D01*
X150433630Y-80423886D01*
X150391485Y-80411212D01*
X150355192Y-80379471D01*
X150337483Y-80344572D01*
X150320448Y-80318845D01*
X150287078Y-80289546D01*
X150247851Y-80264235D01*
X150213244Y-80250471D01*
X150206007Y-80249714D01*
X150197861Y-80262160D01*
X150197370Y-80293972D01*
X150203357Y-80336866D01*
X150214643Y-80382558D01*
X150230050Y-80422761D01*
X150230829Y-80424322D01*
X150277196Y-80489062D01*
X150337289Y-80533097D01*
X150405535Y-80554711D01*
X150476362Y-80552185D01*
X150544196Y-80523804D01*
X150547212Y-80521808D01*
X150600573Y-80473448D01*
X150635660Y-80410352D01*
X150655078Y-80327387D01*
X150657684Y-80304078D01*
X150662299Y-80194055D01*
X150656767Y-80142748D01*
X150517486Y-80142748D01*
X150515676Y-80174753D01*
X150505778Y-80184093D01*
X150481102Y-80177105D01*
X150442205Y-80160587D01*
X150398725Y-80139881D01*
X150397644Y-80139333D01*
X150360791Y-80119949D01*
X150346000Y-80107013D01*
X150349647Y-80093451D01*
X150365005Y-80075632D01*
X150404077Y-80049845D01*
X150446154Y-80047950D01*
X150483897Y-80066717D01*
X150509966Y-80102915D01*
X150517486Y-80142748D01*
X150656767Y-80142748D01*
X150652806Y-80106027D01*
X150628450Y-80036212D01*
X150594544Y-79987302D01*
X150533347Y-79937878D01*
X150465937Y-79913359D01*
X150397120Y-79911797D01*
X150331697Y-79931239D01*
G36*
X149124114Y-79851289D02*
G01*
X149119861Y-79910613D01*
X149114975Y-79945572D01*
X149108205Y-79960820D01*
X149098298Y-79961015D01*
X149095086Y-79959195D01*
X149052356Y-79946015D01*
X148996773Y-79946785D01*
X148940263Y-79960333D01*
X148904918Y-79977861D01*
X148868679Y-80005861D01*
X148842187Y-80037549D01*
X148824001Y-80077813D01*
X148812678Y-80131543D01*
X148806778Y-80203626D01*
X148804857Y-80298951D01*
X148804823Y-80317237D01*
X148804800Y-80522646D01*
X148850509Y-80538580D01*
X148882973Y-80549420D01*
X148900785Y-80554468D01*
X148901309Y-80554514D01*
X148903063Y-80540828D01*
X148904556Y-80503076D01*
X148905674Y-80446224D01*
X148906303Y-80375234D01*
X148906400Y-80332073D01*
X148906602Y-80246973D01*
X148907642Y-80185981D01*
X148910169Y-80144177D01*
X148914836Y-80116642D01*
X148922293Y-80098456D01*
X148933189Y-80084698D01*
X148939993Y-80078073D01*
X148986728Y-80051375D01*
X149037728Y-80049375D01*
X149083999Y-80071955D01*
X149092556Y-80080107D01*
X149105107Y-80095436D01*
X149113812Y-80113618D01*
X149119369Y-80139909D01*
X149122474Y-80179562D01*
X149123824Y-80237832D01*
X149124114Y-80318173D01*
X149124114Y-80522646D01*
X149169823Y-80538580D01*
X149202287Y-80549420D01*
X149220099Y-80554468D01*
X149220623Y-80554514D01*
X149221963Y-80540623D01*
X149223172Y-80501439D01*
X149224199Y-80440700D01*
X149224998Y-80362141D01*
X149225519Y-80269498D01*
X149225714Y-80166509D01*
X149225714Y-79769342D01*
X149178543Y-79749444D01*
X149131371Y-79729547D01*
X149124114Y-79851289D01*
G37*
X149124114Y-79851289D02*
X149119861Y-79910613D01*
X149114975Y-79945572D01*
X149108205Y-79960820D01*
X149098298Y-79961015D01*
X149095086Y-79959195D01*
X149052356Y-79946015D01*
X148996773Y-79946785D01*
X148940263Y-79960333D01*
X148904918Y-79977861D01*
X148868679Y-80005861D01*
X148842187Y-80037549D01*
X148824001Y-80077813D01*
X148812678Y-80131543D01*
X148806778Y-80203626D01*
X148804857Y-80298951D01*
X148804823Y-80317237D01*
X148804800Y-80522646D01*
X148850509Y-80538580D01*
X148882973Y-80549420D01*
X148900785Y-80554468D01*
X148901309Y-80554514D01*
X148903063Y-80540828D01*
X148904556Y-80503076D01*
X148905674Y-80446224D01*
X148906303Y-80375234D01*
X148906400Y-80332073D01*
X148906602Y-80246973D01*
X148907642Y-80185981D01*
X148910169Y-80144177D01*
X148914836Y-80116642D01*
X148922293Y-80098456D01*
X148933189Y-80084698D01*
X148939993Y-80078073D01*
X148986728Y-80051375D01*
X149037728Y-80049375D01*
X149083999Y-80071955D01*
X149092556Y-80080107D01*
X149105107Y-80095436D01*
X149113812Y-80113618D01*
X149119369Y-80139909D01*
X149122474Y-80179562D01*
X149123824Y-80237832D01*
X149124114Y-80318173D01*
X149124114Y-80522646D01*
X149169823Y-80538580D01*
X149202287Y-80549420D01*
X149220099Y-80554468D01*
X149220623Y-80554514D01*
X149221963Y-80540623D01*
X149223172Y-80501439D01*
X149224199Y-80440700D01*
X149224998Y-80362141D01*
X149225519Y-80269498D01*
X149225714Y-80166509D01*
X149225714Y-79769342D01*
X149178543Y-79749444D01*
X149131371Y-79729547D01*
X149124114Y-79851289D01*
G36*
X148460256Y-79950968D02*
G01*
X148403384Y-79972087D01*
X148402733Y-79972493D01*
X148367560Y-79998380D01*
X148341593Y-80028633D01*
X148323330Y-80068058D01*
X148311268Y-80121462D01*
X148303904Y-80193651D01*
X148299736Y-80289432D01*
X148299371Y-80303078D01*
X148294124Y-80508842D01*
X148338284Y-80531678D01*
X148370237Y-80547110D01*
X148389530Y-80554423D01*
X148390422Y-80554514D01*
X148393761Y-80541022D01*
X148396413Y-80504626D01*
X148398044Y-80451452D01*
X148398400Y-80408393D01*
X148398408Y-80338641D01*
X148401597Y-80294837D01*
X148412712Y-80273944D01*
X148436499Y-80272925D01*
X148477704Y-80288741D01*
X148539914Y-80317815D01*
X148585659Y-80341963D01*
X148609187Y-80362913D01*
X148616104Y-80385747D01*
X148616114Y-80386877D01*
X148604701Y-80426212D01*
X148570908Y-80447462D01*
X148519191Y-80450539D01*
X148481939Y-80450006D01*
X148462297Y-80460735D01*
X148450048Y-80486505D01*
X148442998Y-80519337D01*
X148453158Y-80537966D01*
X148456983Y-80540632D01*
X148492999Y-80551340D01*
X148543434Y-80552856D01*
X148595374Y-80545759D01*
X148632178Y-80532788D01*
X148683062Y-80489585D01*
X148711986Y-80429446D01*
X148717714Y-80382462D01*
X148713343Y-80340082D01*
X148697525Y-80305488D01*
X148666203Y-80274763D01*
X148615322Y-80243990D01*
X148540824Y-80209252D01*
X148536286Y-80207288D01*
X148469179Y-80176287D01*
X148427768Y-80150862D01*
X148410019Y-80128014D01*
X148413893Y-80104745D01*
X148437357Y-80078056D01*
X148444373Y-80071914D01*
X148491370Y-80048100D01*
X148540067Y-80049103D01*
X148582478Y-80072451D01*
X148610616Y-80115675D01*
X148613231Y-80124160D01*
X148638692Y-80165308D01*
X148670999Y-80185128D01*
X148717714Y-80204770D01*
X148717714Y-80153950D01*
X148703504Y-80080082D01*
X148661325Y-80012327D01*
X148639376Y-79989661D01*
X148589483Y-79960569D01*
X148526033Y-79947400D01*
X148460256Y-79950968D01*
G37*
X148460256Y-79950968D02*
X148403384Y-79972087D01*
X148402733Y-79972493D01*
X148367560Y-79998380D01*
X148341593Y-80028633D01*
X148323330Y-80068058D01*
X148311268Y-80121462D01*
X148303904Y-80193651D01*
X148299736Y-80289432D01*
X148299371Y-80303078D01*
X148294124Y-80508842D01*
X148338284Y-80531678D01*
X148370237Y-80547110D01*
X148389530Y-80554423D01*
X148390422Y-80554514D01*
X148393761Y-80541022D01*
X148396413Y-80504626D01*
X148398044Y-80451452D01*
X148398400Y-80408393D01*
X148398408Y-80338641D01*
X148401597Y-80294837D01*
X148412712Y-80273944D01*
X148436499Y-80272925D01*
X148477704Y-80288741D01*
X148539914Y-80317815D01*
X148585659Y-80341963D01*
X148609187Y-80362913D01*
X148616104Y-80385747D01*
X148616114Y-80386877D01*
X148604701Y-80426212D01*
X148570908Y-80447462D01*
X148519191Y-80450539D01*
X148481939Y-80450006D01*
X148462297Y-80460735D01*
X148450048Y-80486505D01*
X148442998Y-80519337D01*
X148453158Y-80537966D01*
X148456983Y-80540632D01*
X148492999Y-80551340D01*
X148543434Y-80552856D01*
X148595374Y-80545759D01*
X148632178Y-80532788D01*
X148683062Y-80489585D01*
X148711986Y-80429446D01*
X148717714Y-80382462D01*
X148713343Y-80340082D01*
X148697525Y-80305488D01*
X148666203Y-80274763D01*
X148615322Y-80243990D01*
X148540824Y-80209252D01*
X148536286Y-80207288D01*
X148469179Y-80176287D01*
X148427768Y-80150862D01*
X148410019Y-80128014D01*
X148413893Y-80104745D01*
X148437357Y-80078056D01*
X148444373Y-80071914D01*
X148491370Y-80048100D01*
X148540067Y-80049103D01*
X148582478Y-80072451D01*
X148610616Y-80115675D01*
X148613231Y-80124160D01*
X148638692Y-80165308D01*
X148670999Y-80185128D01*
X148717714Y-80204770D01*
X148717714Y-80153950D01*
X148703504Y-80080082D01*
X148661325Y-80012327D01*
X148639376Y-79989661D01*
X148589483Y-79960569D01*
X148526033Y-79947400D01*
X148460256Y-79950968D01*
G36*
X147970074Y-79949755D02*
G01*
X147904142Y-79974084D01*
X147850727Y-80017117D01*
X147829836Y-80047409D01*
X147807061Y-80102994D01*
X147807534Y-80143186D01*
X147831438Y-80170217D01*
X147840283Y-80174813D01*
X147878470Y-80189144D01*
X147897972Y-80185472D01*
X147904578Y-80161407D01*
X147904914Y-80148114D01*
X147917008Y-80099210D01*
X147948529Y-80064999D01*
X147992341Y-80048476D01*
X148041305Y-80052634D01*
X148081106Y-80074227D01*
X148094550Y-80086544D01*
X148104079Y-80101487D01*
X148110515Y-80124075D01*
X148114683Y-80159328D01*
X148117403Y-80212266D01*
X148119498Y-80287907D01*
X148120040Y-80311857D01*
X148122019Y-80393790D01*
X148124269Y-80451455D01*
X148127643Y-80489608D01*
X148132994Y-80513004D01*
X148141176Y-80526398D01*
X148153041Y-80534545D01*
X148160638Y-80538144D01*
X148192898Y-80550452D01*
X148211889Y-80554514D01*
X148218164Y-80540948D01*
X148221994Y-80499934D01*
X148223400Y-80430999D01*
X148222402Y-80333669D01*
X148222092Y-80318657D01*
X148219899Y-80229859D01*
X148217307Y-80165019D01*
X148213618Y-80119067D01*
X148208136Y-80086935D01*
X148200165Y-80063553D01*
X148189007Y-80043852D01*
X148183170Y-80035410D01*
X148149704Y-79998057D01*
X148112273Y-79969003D01*
X148107691Y-79966467D01*
X148040574Y-79946443D01*
X147970074Y-79949755D01*
G37*
X147970074Y-79949755D02*
X147904142Y-79974084D01*
X147850727Y-80017117D01*
X147829836Y-80047409D01*
X147807061Y-80102994D01*
X147807534Y-80143186D01*
X147831438Y-80170217D01*
X147840283Y-80174813D01*
X147878470Y-80189144D01*
X147897972Y-80185472D01*
X147904578Y-80161407D01*
X147904914Y-80148114D01*
X147917008Y-80099210D01*
X147948529Y-80064999D01*
X147992341Y-80048476D01*
X148041305Y-80052634D01*
X148081106Y-80074227D01*
X148094550Y-80086544D01*
X148104079Y-80101487D01*
X148110515Y-80124075D01*
X148114683Y-80159328D01*
X148117403Y-80212266D01*
X148119498Y-80287907D01*
X148120040Y-80311857D01*
X148122019Y-80393790D01*
X148124269Y-80451455D01*
X148127643Y-80489608D01*
X148132994Y-80513004D01*
X148141176Y-80526398D01*
X148153041Y-80534545D01*
X148160638Y-80538144D01*
X148192898Y-80550452D01*
X148211889Y-80554514D01*
X148218164Y-80540948D01*
X148221994Y-80499934D01*
X148223400Y-80430999D01*
X148222402Y-80333669D01*
X148222092Y-80318657D01*
X148219899Y-80229859D01*
X148217307Y-80165019D01*
X148213618Y-80119067D01*
X148208136Y-80086935D01*
X148200165Y-80063553D01*
X148189007Y-80043852D01*
X148183170Y-80035410D01*
X148149704Y-79998057D01*
X148112273Y-79969003D01*
X148107691Y-79966467D01*
X148040574Y-79946443D01*
X147970074Y-79949755D01*
G36*
X147309883Y-80065358D02*
G01*
X147310067Y-80173837D01*
X147310781Y-80257287D01*
X147312325Y-80319704D01*
X147314999Y-80365085D01*
X147319106Y-80397429D01*
X147324945Y-80420733D01*
X147332818Y-80438995D01*
X147338779Y-80449418D01*
X147388145Y-80505945D01*
X147450736Y-80541377D01*
X147519987Y-80554090D01*
X147589332Y-80542463D01*
X147630625Y-80521568D01*
X147673975Y-80485422D01*
X147703519Y-80441276D01*
X147721345Y-80383462D01*
X147729537Y-80306313D01*
X147730698Y-80249714D01*
X147730542Y-80245647D01*
X147629143Y-80245647D01*
X147628524Y-80310550D01*
X147625686Y-80353514D01*
X147619160Y-80381622D01*
X147607477Y-80401953D01*
X147593517Y-80417288D01*
X147546635Y-80446890D01*
X147496299Y-80449419D01*
X147448724Y-80424705D01*
X147445021Y-80421356D01*
X147429217Y-80403935D01*
X147419307Y-80383209D01*
X147413942Y-80352362D01*
X147411772Y-80304577D01*
X147411429Y-80251748D01*
X147412173Y-80185381D01*
X147415252Y-80141106D01*
X147421939Y-80112009D01*
X147433504Y-80091173D01*
X147442987Y-80080107D01*
X147487040Y-80052198D01*
X147537776Y-80048843D01*
X147586204Y-80070159D01*
X147595550Y-80078073D01*
X147611460Y-80095647D01*
X147621390Y-80116587D01*
X147626722Y-80147782D01*
X147628837Y-80196122D01*
X147629143Y-80245647D01*
X147730542Y-80245647D01*
X147727190Y-80158568D01*
X147715274Y-80090086D01*
X147692865Y-80038600D01*
X147657876Y-79998443D01*
X147630625Y-79977861D01*
X147581093Y-79955625D01*
X147523684Y-79945304D01*
X147470318Y-79948067D01*
X147440457Y-79959212D01*
X147428739Y-79962383D01*
X147420963Y-79950557D01*
X147415535Y-79918866D01*
X147411429Y-79870593D01*
X147406933Y-79816829D01*
X147400687Y-79784482D01*
X147389324Y-79765985D01*
X147369472Y-79753770D01*
X147357000Y-79748362D01*
X147309829Y-79728601D01*
X147309883Y-80065358D01*
G37*
X147309883Y-80065358D02*
X147310067Y-80173837D01*
X147310781Y-80257287D01*
X147312325Y-80319704D01*
X147314999Y-80365085D01*
X147319106Y-80397429D01*
X147324945Y-80420733D01*
X147332818Y-80438995D01*
X147338779Y-80449418D01*
X147388145Y-80505945D01*
X147450736Y-80541377D01*
X147519987Y-80554090D01*
X147589332Y-80542463D01*
X147630625Y-80521568D01*
X147673975Y-80485422D01*
X147703519Y-80441276D01*
X147721345Y-80383462D01*
X147729537Y-80306313D01*
X147730698Y-80249714D01*
X147730542Y-80245647D01*
X147629143Y-80245647D01*
X147628524Y-80310550D01*
X147625686Y-80353514D01*
X147619160Y-80381622D01*
X147607477Y-80401953D01*
X147593517Y-80417288D01*
X147546635Y-80446890D01*
X147496299Y-80449419D01*
X147448724Y-80424705D01*
X147445021Y-80421356D01*
X147429217Y-80403935D01*
X147419307Y-80383209D01*
X147413942Y-80352362D01*
X147411772Y-80304577D01*
X147411429Y-80251748D01*
X147412173Y-80185381D01*
X147415252Y-80141106D01*
X147421939Y-80112009D01*
X147433504Y-80091173D01*
X147442987Y-80080107D01*
X147487040Y-80052198D01*
X147537776Y-80048843D01*
X147586204Y-80070159D01*
X147595550Y-80078073D01*
X147611460Y-80095647D01*
X147621390Y-80116587D01*
X147626722Y-80147782D01*
X147628837Y-80196122D01*
X147629143Y-80245647D01*
X147730542Y-80245647D01*
X147727190Y-80158568D01*
X147715274Y-80090086D01*
X147692865Y-80038600D01*
X147657876Y-79998443D01*
X147630625Y-79977861D01*
X147581093Y-79955625D01*
X147523684Y-79945304D01*
X147470318Y-79948067D01*
X147440457Y-79959212D01*
X147428739Y-79962383D01*
X147420963Y-79950557D01*
X147415535Y-79918866D01*
X147411429Y-79870593D01*
X147406933Y-79816829D01*
X147400687Y-79784482D01*
X147389324Y-79765985D01*
X147369472Y-79753770D01*
X147357000Y-79748362D01*
X147309829Y-79728601D01*
X147309883Y-80065358D01*
G36*
X146720167Y-79958663D02*
G01*
X146717952Y-79996850D01*
X146716216Y-80054886D01*
X146715101Y-80128180D01*
X146714743Y-80205055D01*
X146714743Y-80465196D01*
X146760674Y-80511127D01*
X146792325Y-80539429D01*
X146820110Y-80550893D01*
X146858085Y-80550168D01*
X146873160Y-80548321D01*
X146920274Y-80542948D01*
X146959244Y-80539869D01*
X146968743Y-80539585D01*
X147000767Y-80541445D01*
X147046568Y-80546114D01*
X147064326Y-80548321D01*
X147107943Y-80551735D01*
X147137255Y-80544320D01*
X147166320Y-80521427D01*
X147176812Y-80511127D01*
X147222743Y-80465196D01*
X147222743Y-79978602D01*
X147185774Y-79961758D01*
X147153941Y-79949282D01*
X147135317Y-79944914D01*
X147130542Y-79958718D01*
X147126079Y-79997286D01*
X147122225Y-80056356D01*
X147119278Y-80131663D01*
X147117857Y-80195286D01*
X147113886Y-80445657D01*
X147079241Y-80450556D01*
X147047732Y-80447131D01*
X147032292Y-80436041D01*
X147027977Y-80415308D01*
X147024292Y-80371145D01*
X147021531Y-80309146D01*
X147019988Y-80234909D01*
X147019765Y-80196706D01*
X147019543Y-79976783D01*
X146973834Y-79960849D01*
X146941482Y-79950015D01*
X146923885Y-79944962D01*
X146923377Y-79944914D01*
X146921612Y-79958648D01*
X146919671Y-79996730D01*
X146917718Y-80054482D01*
X146915916Y-80127227D01*
X146914657Y-80195286D01*
X146910686Y-80445657D01*
X146823600Y-80445657D01*
X146819604Y-80217240D01*
X146815608Y-79988822D01*
X146773153Y-79966868D01*
X146741808Y-79951793D01*
X146723256Y-79944951D01*
X146722721Y-79944914D01*
X146720167Y-79958663D01*
G37*
X146720167Y-79958663D02*
X146717952Y-79996850D01*
X146716216Y-80054886D01*
X146715101Y-80128180D01*
X146714743Y-80205055D01*
X146714743Y-80465196D01*
X146760674Y-80511127D01*
X146792325Y-80539429D01*
X146820110Y-80550893D01*
X146858085Y-80550168D01*
X146873160Y-80548321D01*
X146920274Y-80542948D01*
X146959244Y-80539869D01*
X146968743Y-80539585D01*
X147000767Y-80541445D01*
X147046568Y-80546114D01*
X147064326Y-80548321D01*
X147107943Y-80551735D01*
X147137255Y-80544320D01*
X147166320Y-80521427D01*
X147176812Y-80511127D01*
X147222743Y-80465196D01*
X147222743Y-79978602D01*
X147185774Y-79961758D01*
X147153941Y-79949282D01*
X147135317Y-79944914D01*
X147130542Y-79958718D01*
X147126079Y-79997286D01*
X147122225Y-80056356D01*
X147119278Y-80131663D01*
X147117857Y-80195286D01*
X147113886Y-80445657D01*
X147079241Y-80450556D01*
X147047732Y-80447131D01*
X147032292Y-80436041D01*
X147027977Y-80415308D01*
X147024292Y-80371145D01*
X147021531Y-80309146D01*
X147019988Y-80234909D01*
X147019765Y-80196706D01*
X147019543Y-79976783D01*
X146973834Y-79960849D01*
X146941482Y-79950015D01*
X146923885Y-79944962D01*
X146923377Y-79944914D01*
X146921612Y-79958648D01*
X146919671Y-79996730D01*
X146917718Y-80054482D01*
X146915916Y-80127227D01*
X146914657Y-80195286D01*
X146910686Y-80445657D01*
X146823600Y-80445657D01*
X146819604Y-80217240D01*
X146815608Y-79988822D01*
X146773153Y-79966868D01*
X146741808Y-79951793D01*
X146723256Y-79944951D01*
X146722721Y-79944914D01*
X146720167Y-79958663D01*
G36*
X146355124Y-79956335D02*
G01*
X146313333Y-79975344D01*
X146280531Y-79998378D01*
X146256497Y-80024133D01*
X146239903Y-80057358D01*
X146229423Y-80102800D01*
X146223729Y-80165207D01*
X146221493Y-80249327D01*
X146221257Y-80304721D01*
X146221257Y-80520826D01*
X146258226Y-80537670D01*
X146287344Y-80549981D01*
X146301769Y-80554514D01*
X146304528Y-80541025D01*
X146306718Y-80504653D01*
X146308058Y-80451542D01*
X146308343Y-80409372D01*
X146309566Y-80348447D01*
X146312864Y-80300115D01*
X146317679Y-80270518D01*
X146321504Y-80264229D01*
X146347217Y-80270652D01*
X146387582Y-80287125D01*
X146434321Y-80309458D01*
X146479155Y-80333457D01*
X146513807Y-80354930D01*
X146529998Y-80369685D01*
X146530062Y-80369845D01*
X146528670Y-80397152D01*
X146516182Y-80423219D01*
X146494257Y-80444392D01*
X146462257Y-80451474D01*
X146434908Y-80450649D01*
X146396174Y-80450042D01*
X146375842Y-80459116D01*
X146363631Y-80483092D01*
X146362091Y-80487613D01*
X146356797Y-80521806D01*
X146370953Y-80542568D01*
X146407852Y-80552462D01*
X146447711Y-80554292D01*
X146519438Y-80540727D01*
X146556568Y-80521355D01*
X146602424Y-80475845D01*
X146626744Y-80419983D01*
X146628927Y-80360957D01*
X146608371Y-80305953D01*
X146577451Y-80271486D01*
X146546580Y-80252189D01*
X146498058Y-80227759D01*
X146441515Y-80202985D01*
X146432090Y-80199199D01*
X146369981Y-80171791D01*
X146334178Y-80147634D01*
X146322663Y-80123619D01*
X146333420Y-80096635D01*
X146351886Y-80075543D01*
X146395531Y-80049572D01*
X146443554Y-80047624D01*
X146487594Y-80067637D01*
X146519291Y-80107551D01*
X146523451Y-80117848D01*
X146547673Y-80155724D01*
X146583035Y-80183842D01*
X146627657Y-80206917D01*
X146627657Y-80141485D01*
X146625031Y-80101506D01*
X146613770Y-80069997D01*
X146588801Y-80036378D01*
X146564831Y-80010484D01*
X146527559Y-79973817D01*
X146498599Y-79954121D01*
X146467495Y-79946220D01*
X146432287Y-79944914D01*
X146355124Y-79956335D01*
G37*
X146355124Y-79956335D02*
X146313333Y-79975344D01*
X146280531Y-79998378D01*
X146256497Y-80024133D01*
X146239903Y-80057358D01*
X146229423Y-80102800D01*
X146223729Y-80165207D01*
X146221493Y-80249327D01*
X146221257Y-80304721D01*
X146221257Y-80520826D01*
X146258226Y-80537670D01*
X146287344Y-80549981D01*
X146301769Y-80554514D01*
X146304528Y-80541025D01*
X146306718Y-80504653D01*
X146308058Y-80451542D01*
X146308343Y-80409372D01*
X146309566Y-80348447D01*
X146312864Y-80300115D01*
X146317679Y-80270518D01*
X146321504Y-80264229D01*
X146347217Y-80270652D01*
X146387582Y-80287125D01*
X146434321Y-80309458D01*
X146479155Y-80333457D01*
X146513807Y-80354930D01*
X146529998Y-80369685D01*
X146530062Y-80369845D01*
X146528670Y-80397152D01*
X146516182Y-80423219D01*
X146494257Y-80444392D01*
X146462257Y-80451474D01*
X146434908Y-80450649D01*
X146396174Y-80450042D01*
X146375842Y-80459116D01*
X146363631Y-80483092D01*
X146362091Y-80487613D01*
X146356797Y-80521806D01*
X146370953Y-80542568D01*
X146407852Y-80552462D01*
X146447711Y-80554292D01*
X146519438Y-80540727D01*
X146556568Y-80521355D01*
X146602424Y-80475845D01*
X146626744Y-80419983D01*
X146628927Y-80360957D01*
X146608371Y-80305953D01*
X146577451Y-80271486D01*
X146546580Y-80252189D01*
X146498058Y-80227759D01*
X146441515Y-80202985D01*
X146432090Y-80199199D01*
X146369981Y-80171791D01*
X146334178Y-80147634D01*
X146322663Y-80123619D01*
X146333420Y-80096635D01*
X146351886Y-80075543D01*
X146395531Y-80049572D01*
X146443554Y-80047624D01*
X146487594Y-80067637D01*
X146519291Y-80107551D01*
X146523451Y-80117848D01*
X146547673Y-80155724D01*
X146583035Y-80183842D01*
X146627657Y-80206917D01*
X146627657Y-80141485D01*
X146625031Y-80101506D01*
X146613770Y-80069997D01*
X146588801Y-80036378D01*
X146564831Y-80010484D01*
X146527559Y-79973817D01*
X146498599Y-79954121D01*
X146467495Y-79946220D01*
X146432287Y-79944914D01*
X146355124Y-79956335D01*
G36*
X145847400Y-79958752D02*
G01*
X145830052Y-79966334D01*
X145788644Y-79999128D01*
X145753235Y-80046547D01*
X145731336Y-80097151D01*
X145727771Y-80122098D01*
X145739721Y-80156927D01*
X145765933Y-80175357D01*
X145794036Y-80186516D01*
X145806905Y-80188572D01*
X145813171Y-80173649D01*
X145825544Y-80141175D01*
X145830972Y-80126502D01*
X145861410Y-80075744D01*
X145905480Y-80050427D01*
X145961990Y-80051206D01*
X145966175Y-80052203D01*
X145996345Y-80066507D01*
X146018524Y-80094393D01*
X146033673Y-80139287D01*
X146042750Y-80204615D01*
X146046714Y-80293804D01*
X146047086Y-80341261D01*
X146047270Y-80416071D01*
X146048478Y-80467069D01*
X146051691Y-80499471D01*
X146057891Y-80518495D01*
X146068060Y-80529356D01*
X146083181Y-80537272D01*
X146084054Y-80537670D01*
X146113172Y-80549981D01*
X146127597Y-80554514D01*
X146129814Y-80540809D01*
X146131711Y-80502925D01*
X146133153Y-80445715D01*
X146134002Y-80374027D01*
X146134171Y-80321565D01*
X146133308Y-80220047D01*
X146129930Y-80143032D01*
X146122858Y-80086023D01*
X146110912Y-80044526D01*
X146092910Y-80014043D01*
X146067673Y-79990080D01*
X146042753Y-79973355D01*
X145982829Y-79951097D01*
X145913089Y-79946076D01*
X145847400Y-79958752D01*
G37*
X145847400Y-79958752D02*
X145830052Y-79966334D01*
X145788644Y-79999128D01*
X145753235Y-80046547D01*
X145731336Y-80097151D01*
X145727771Y-80122098D01*
X145739721Y-80156927D01*
X145765933Y-80175357D01*
X145794036Y-80186516D01*
X145806905Y-80188572D01*
X145813171Y-80173649D01*
X145825544Y-80141175D01*
X145830972Y-80126502D01*
X145861410Y-80075744D01*
X145905480Y-80050427D01*
X145961990Y-80051206D01*
X145966175Y-80052203D01*
X145996345Y-80066507D01*
X146018524Y-80094393D01*
X146033673Y-80139287D01*
X146042750Y-80204615D01*
X146046714Y-80293804D01*
X146047086Y-80341261D01*
X146047270Y-80416071D01*
X146048478Y-80467069D01*
X146051691Y-80499471D01*
X146057891Y-80518495D01*
X146068060Y-80529356D01*
X146083181Y-80537272D01*
X146084054Y-80537670D01*
X146113172Y-80549981D01*
X146127597Y-80554514D01*
X146129814Y-80540809D01*
X146131711Y-80502925D01*
X146133153Y-80445715D01*
X146134002Y-80374027D01*
X146134171Y-80321565D01*
X146133308Y-80220047D01*
X146129930Y-80143032D01*
X146122858Y-80086023D01*
X146110912Y-80044526D01*
X146092910Y-80014043D01*
X146067673Y-79990080D01*
X146042753Y-79973355D01*
X145982829Y-79951097D01*
X145913089Y-79946076D01*
X145847400Y-79958752D01*
G36*
X145346405Y-79966966D02*
G01*
X145288979Y-80004497D01*
X145261281Y-80038096D01*
X145239338Y-80099064D01*
X145237595Y-80147308D01*
X145241543Y-80211816D01*
X145390314Y-80276934D01*
X145462651Y-80310202D01*
X145509916Y-80336964D01*
X145534493Y-80360144D01*
X145538763Y-80382667D01*
X145525111Y-80407455D01*
X145510057Y-80423886D01*
X145466254Y-80450235D01*
X145418611Y-80452081D01*
X145374855Y-80431546D01*
X145342711Y-80390752D01*
X145336962Y-80376347D01*
X145309424Y-80331356D01*
X145277742Y-80312182D01*
X145234286Y-80295779D01*
X145234286Y-80357966D01*
X145238128Y-80400283D01*
X145253177Y-80435969D01*
X145284720Y-80476943D01*
X145289408Y-80482267D01*
X145324494Y-80518720D01*
X145354653Y-80538283D01*
X145392385Y-80547283D01*
X145423665Y-80550230D01*
X145479615Y-80550965D01*
X145519445Y-80541660D01*
X145544292Y-80527846D01*
X145583344Y-80497467D01*
X145610375Y-80464613D01*
X145627483Y-80423294D01*
X145636762Y-80367521D01*
X145640307Y-80291305D01*
X145640590Y-80252622D01*
X145639628Y-80206247D01*
X145551993Y-80206247D01*
X145550977Y-80231126D01*
X145548444Y-80235200D01*
X145531726Y-80229665D01*
X145495751Y-80215017D01*
X145447669Y-80194190D01*
X145437614Y-80189714D01*
X145376848Y-80158814D01*
X145343368Y-80131657D01*
X145336010Y-80106220D01*
X145353609Y-80080481D01*
X145368144Y-80069109D01*
X145420590Y-80046364D01*
X145469678Y-80050122D01*
X145510773Y-80077884D01*
X145539242Y-80127152D01*
X145548369Y-80166257D01*
X145551993Y-80206247D01*
X145639628Y-80206247D01*
X145638715Y-80162249D01*
X145631804Y-80095384D01*
X145618116Y-80046695D01*
X145595904Y-80010849D01*
X145563426Y-79982513D01*
X145549267Y-79973355D01*
X145484947Y-79949507D01*
X145414527Y-79948006D01*
X145346405Y-79966966D01*
G37*
X145346405Y-79966966D02*
X145288979Y-80004497D01*
X145261281Y-80038096D01*
X145239338Y-80099064D01*
X145237595Y-80147308D01*
X145241543Y-80211816D01*
X145390314Y-80276934D01*
X145462651Y-80310202D01*
X145509916Y-80336964D01*
X145534493Y-80360144D01*
X145538763Y-80382667D01*
X145525111Y-80407455D01*
X145510057Y-80423886D01*
X145466254Y-80450235D01*
X145418611Y-80452081D01*
X145374855Y-80431546D01*
X145342711Y-80390752D01*
X145336962Y-80376347D01*
X145309424Y-80331356D01*
X145277742Y-80312182D01*
X145234286Y-80295779D01*
X145234286Y-80357966D01*
X145238128Y-80400283D01*
X145253177Y-80435969D01*
X145284720Y-80476943D01*
X145289408Y-80482267D01*
X145324494Y-80518720D01*
X145354653Y-80538283D01*
X145392385Y-80547283D01*
X145423665Y-80550230D01*
X145479615Y-80550965D01*
X145519445Y-80541660D01*
X145544292Y-80527846D01*
X145583344Y-80497467D01*
X145610375Y-80464613D01*
X145627483Y-80423294D01*
X145636762Y-80367521D01*
X145640307Y-80291305D01*
X145640590Y-80252622D01*
X145639628Y-80206247D01*
X145551993Y-80206247D01*
X145550977Y-80231126D01*
X145548444Y-80235200D01*
X145531726Y-80229665D01*
X145495751Y-80215017D01*
X145447669Y-80194190D01*
X145437614Y-80189714D01*
X145376848Y-80158814D01*
X145343368Y-80131657D01*
X145336010Y-80106220D01*
X145353609Y-80080481D01*
X145368144Y-80069109D01*
X145420590Y-80046364D01*
X145469678Y-80050122D01*
X145510773Y-80077884D01*
X145539242Y-80127152D01*
X145548369Y-80166257D01*
X145551993Y-80206247D01*
X145639628Y-80206247D01*
X145638715Y-80162249D01*
X145631804Y-80095384D01*
X145618116Y-80046695D01*
X145595904Y-80010849D01*
X145563426Y-79982513D01*
X145549267Y-79973355D01*
X145484947Y-79949507D01*
X145414527Y-79948006D01*
X145346405Y-79966966D01*
G36*
X148396090Y-75242348D02*
G01*
X148317546Y-75242778D01*
X148260702Y-75243942D01*
X148221895Y-75246207D01*
X148197462Y-75249940D01*
X148183738Y-75255506D01*
X148177060Y-75263273D01*
X148173764Y-75273605D01*
X148173444Y-75274943D01*
X148168438Y-75299079D01*
X148159171Y-75346701D01*
X148146608Y-75412741D01*
X148131713Y-75492128D01*
X148115449Y-75579796D01*
X148114881Y-75582875D01*
X148098590Y-75668789D01*
X148083348Y-75744696D01*
X148070139Y-75806045D01*
X148059946Y-75848282D01*
X148053752Y-75866855D01*
X148053457Y-75867184D01*
X148035212Y-75876253D01*
X147997595Y-75891367D01*
X147948729Y-75909262D01*
X147948457Y-75909358D01*
X147886907Y-75932493D01*
X147814343Y-75961965D01*
X147745943Y-75991597D01*
X147742706Y-75993062D01*
X147631298Y-76043626D01*
X147384601Y-75875160D01*
X147308923Y-75823803D01*
X147240369Y-75777889D01*
X147182912Y-75740030D01*
X147140524Y-75712837D01*
X147117175Y-75698921D01*
X147114958Y-75697889D01*
X147097990Y-75702484D01*
X147066299Y-75724655D01*
X147018648Y-75765447D01*
X146953802Y-75825905D01*
X146887603Y-75890227D01*
X146823786Y-75953612D01*
X146766671Y-76011451D01*
X146719695Y-76060175D01*
X146686297Y-76096210D01*
X146669915Y-76115984D01*
X146669306Y-76117002D01*
X146667495Y-76130572D01*
X146674317Y-76152733D01*
X146691460Y-76186478D01*
X146720607Y-76234800D01*
X146763445Y-76300692D01*
X146820552Y-76385517D01*
X146871234Y-76460177D01*
X146916539Y-76527140D01*
X146953850Y-76582516D01*
X146980548Y-76622420D01*
X146994015Y-76642962D01*
X146994863Y-76644356D01*
X146993219Y-76664038D01*
X146980755Y-76702293D01*
X146959952Y-76751889D01*
X146952538Y-76767728D01*
X146920186Y-76838290D01*
X146885672Y-76918353D01*
X146857635Y-76987629D01*
X146837432Y-77039045D01*
X146821385Y-77078119D01*
X146812112Y-77098541D01*
X146810959Y-77100114D01*
X146793904Y-77102721D01*
X146753702Y-77109863D01*
X146695698Y-77120523D01*
X146625237Y-77133685D01*
X146547665Y-77148333D01*
X146468328Y-77163449D01*
X146392569Y-77178018D01*
X146325736Y-77191022D01*
X146273172Y-77201445D01*
X146240224Y-77208270D01*
X146232143Y-77210199D01*
X146223795Y-77214962D01*
X146217494Y-77225718D01*
X146212955Y-77246098D01*
X146209896Y-77279734D01*
X146208033Y-77330255D01*
X146207082Y-77401292D01*
X146206760Y-77496476D01*
X146206743Y-77535492D01*
X146206743Y-77852799D01*
X146282943Y-77867839D01*
X146325337Y-77875995D01*
X146388600Y-77887899D01*
X146465038Y-77902116D01*
X146546957Y-77917210D01*
X146569600Y-77921355D01*
X146645194Y-77936053D01*
X146711047Y-77950505D01*
X146761634Y-77963375D01*
X146791426Y-77973322D01*
X146796388Y-77976287D01*
X146808574Y-77997283D01*
X146826047Y-78037967D01*
X146845423Y-78090322D01*
X146849266Y-78101600D01*
X146874661Y-78171523D01*
X146906183Y-78250418D01*
X146937031Y-78321266D01*
X146937183Y-78321595D01*
X146988553Y-78432733D01*
X146819601Y-78681253D01*
X146650648Y-78929772D01*
X146867571Y-79147058D01*
X146933181Y-79211726D01*
X146993021Y-79268733D01*
X147043733Y-79315033D01*
X147081954Y-79347584D01*
X147104325Y-79363343D01*
X147107534Y-79364343D01*
X147126374Y-79356469D01*
X147164820Y-79334578D01*
X147218670Y-79301267D01*
X147283724Y-79259131D01*
X147354060Y-79211943D01*
X147425445Y-79163810D01*
X147489092Y-79121928D01*
X147540959Y-79088871D01*
X147577005Y-79067218D01*
X147593133Y-79059543D01*
X147612811Y-79066037D01*
X147650125Y-79083150D01*
X147697379Y-79107326D01*
X147702388Y-79110013D01*
X147766023Y-79141927D01*
X147809659Y-79157579D01*
X147836798Y-79157745D01*
X147850943Y-79143204D01*
X147851025Y-79143000D01*
X147858095Y-79125779D01*
X147874958Y-79084899D01*
X147900305Y-79023525D01*
X147932829Y-78944819D01*
X147971222Y-78851947D01*
X148014178Y-78748072D01*
X148055778Y-78647502D01*
X148101496Y-78536516D01*
X148143474Y-78433703D01*
X148180452Y-78342215D01*
X148211173Y-78265201D01*
X148234378Y-78205815D01*
X148248810Y-78167209D01*
X148253257Y-78152800D01*
X148242104Y-78136272D01*
X148212931Y-78109930D01*
X148174029Y-78080887D01*
X148063243Y-77989039D01*
X147976649Y-77883759D01*
X147915284Y-77767266D01*
X147880185Y-77641776D01*
X147872392Y-77509507D01*
X147878057Y-77448457D01*
X147908922Y-77321795D01*
X147962080Y-77209941D01*
X148034233Y-77114001D01*
X148122083Y-77035076D01*
X148222335Y-76974270D01*
X148331690Y-76932687D01*
X148446853Y-76911428D01*
X148564525Y-76911599D01*
X148681410Y-76934301D01*
X148794211Y-76980638D01*
X148899631Y-77051713D01*
X148943632Y-77091911D01*
X149028021Y-77195129D01*
X149086778Y-77307925D01*
X149120296Y-77427010D01*
X149128965Y-77549095D01*
X149113177Y-77670893D01*
X149073322Y-77789116D01*
X149009793Y-77900475D01*
X148922979Y-78001684D01*
X148825971Y-78080887D01*
X148785563Y-78111162D01*
X148757018Y-78137219D01*
X148746743Y-78152825D01*
X148752123Y-78169843D01*
X148767425Y-78210500D01*
X148791388Y-78271642D01*
X148822756Y-78350119D01*
X148860268Y-78442780D01*
X148902667Y-78546472D01*
X148944337Y-78647526D01*
X148990310Y-78758607D01*
X149032893Y-78861541D01*
X149070779Y-78953165D01*
X149102660Y-79030316D01*
X149127229Y-79089831D01*
X149143180Y-79128544D01*
X149149090Y-79143000D01*
X149163052Y-79157685D01*
X149190060Y-79157642D01*
X149233587Y-79142099D01*
X149297110Y-79110284D01*
X149297612Y-79110013D01*
X149345440Y-79085323D01*
X149384103Y-79067338D01*
X149405905Y-79059614D01*
X149406867Y-79059543D01*
X149423279Y-79067378D01*
X149459513Y-79089165D01*
X149511526Y-79122328D01*
X149575275Y-79164291D01*
X149645940Y-79211943D01*
X149717884Y-79260191D01*
X149782726Y-79302151D01*
X149836265Y-79335227D01*
X149874303Y-79356821D01*
X149892467Y-79364343D01*
X149909192Y-79354457D01*
X149942820Y-79326826D01*
X149989990Y-79284495D01*
X150047342Y-79230505D01*
X150111516Y-79167899D01*
X150132503Y-79146983D01*
X150349501Y-78929623D01*
X150184332Y-78687220D01*
X150134136Y-78612781D01*
X150090081Y-78545972D01*
X150054638Y-78490665D01*
X150030281Y-78450729D01*
X150019478Y-78430036D01*
X150019162Y-78428563D01*
X150024857Y-78409058D01*
X150040174Y-78369822D01*
X150062463Y-78317430D01*
X150078107Y-78282355D01*
X150107359Y-78215201D01*
X150134906Y-78147358D01*
X150156263Y-78090034D01*
X150162065Y-78072572D01*
X150178548Y-78025938D01*
X150194660Y-77989905D01*
X150203510Y-77976287D01*
X150223040Y-77967952D01*
X150265666Y-77956137D01*
X150325855Y-77942181D01*
X150398078Y-77927422D01*
X150430400Y-77921355D01*
X150512478Y-77906273D01*
X150591205Y-77891669D01*
X150658891Y-77878980D01*
X150707840Y-77869642D01*
X150717057Y-77867839D01*
X150793257Y-77852799D01*
X150793257Y-77535492D01*
X150793086Y-77431154D01*
X150792384Y-77352213D01*
X150790866Y-77295038D01*
X150788251Y-77255999D01*
X150784254Y-77231465D01*
X150778591Y-77217805D01*
X150770980Y-77211389D01*
X150767857Y-77210199D01*
X150749022Y-77205980D01*
X150707412Y-77197562D01*
X150648370Y-77185961D01*
X150577243Y-77172195D01*
X150499375Y-77157280D01*
X150420113Y-77142232D01*
X150344802Y-77128069D01*
X150278787Y-77115806D01*
X150227413Y-77106461D01*
X150196025Y-77101050D01*
X150189041Y-77100114D01*
X150182715Y-77087596D01*
X150168710Y-77054246D01*
X150149645Y-77006377D01*
X150142366Y-76987629D01*
X150113004Y-76915195D01*
X150078429Y-76835170D01*
X150047463Y-76767728D01*
X150024677Y-76716159D01*
X150009518Y-76673785D01*
X150004458Y-76647834D01*
X150005264Y-76644356D01*
X150015959Y-76627936D01*
X150040380Y-76591417D01*
X150075905Y-76538687D01*
X150119913Y-76473635D01*
X150169783Y-76400151D01*
X150179644Y-76385645D01*
X150237508Y-76299704D01*
X150280044Y-76234261D01*
X150308946Y-76186304D01*
X150325910Y-76152820D01*
X150332633Y-76130795D01*
X150330810Y-76117217D01*
X150330764Y-76117131D01*
X150316414Y-76099297D01*
X150284677Y-76064817D01*
X150238990Y-76017268D01*
X150182796Y-75960222D01*
X150119532Y-75897255D01*
X150112398Y-75890227D01*
X150032670Y-75813020D01*
X149971143Y-75756330D01*
X149926579Y-75719110D01*
X149897743Y-75700315D01*
X149885042Y-75697889D01*
X149866506Y-75708471D01*
X149828039Y-75732916D01*
X149773614Y-75768612D01*
X149707202Y-75812947D01*
X149632775Y-75863311D01*
X149615399Y-75875160D01*
X149368703Y-76043626D01*
X149257294Y-75993062D01*
X149189543Y-75963595D01*
X149116817Y-75933959D01*
X149054297Y-75910330D01*
X149051543Y-75909358D01*
X149002640Y-75891457D01*
X148964943Y-75876320D01*
X148946575Y-75867210D01*
X148946544Y-75867184D01*
X148940715Y-75850717D01*
X148930808Y-75810219D01*
X148917805Y-75750242D01*
X148902691Y-75675340D01*
X148886448Y-75590064D01*
X148885119Y-75582875D01*
X148868825Y-75495014D01*
X148853867Y-75415260D01*
X148841209Y-75348681D01*
X148831814Y-75300347D01*
X148826646Y-75275325D01*
X148826556Y-75274943D01*
X148823411Y-75264299D01*
X148817296Y-75256262D01*
X148804547Y-75250467D01*
X148781500Y-75246547D01*
X148744491Y-75244135D01*
X148689856Y-75242865D01*
X148613933Y-75242371D01*
X148513056Y-75242286D01*
X148500000Y-75242286D01*
X148396090Y-75242348D01*
G37*
X148396090Y-75242348D02*
X148317546Y-75242778D01*
X148260702Y-75243942D01*
X148221895Y-75246207D01*
X148197462Y-75249940D01*
X148183738Y-75255506D01*
X148177060Y-75263273D01*
X148173764Y-75273605D01*
X148173444Y-75274943D01*
X148168438Y-75299079D01*
X148159171Y-75346701D01*
X148146608Y-75412741D01*
X148131713Y-75492128D01*
X148115449Y-75579796D01*
X148114881Y-75582875D01*
X148098590Y-75668789D01*
X148083348Y-75744696D01*
X148070139Y-75806045D01*
X148059946Y-75848282D01*
X148053752Y-75866855D01*
X148053457Y-75867184D01*
X148035212Y-75876253D01*
X147997595Y-75891367D01*
X147948729Y-75909262D01*
X147948457Y-75909358D01*
X147886907Y-75932493D01*
X147814343Y-75961965D01*
X147745943Y-75991597D01*
X147742706Y-75993062D01*
X147631298Y-76043626D01*
X147384601Y-75875160D01*
X147308923Y-75823803D01*
X147240369Y-75777889D01*
X147182912Y-75740030D01*
X147140524Y-75712837D01*
X147117175Y-75698921D01*
X147114958Y-75697889D01*
X147097990Y-75702484D01*
X147066299Y-75724655D01*
X147018648Y-75765447D01*
X146953802Y-75825905D01*
X146887603Y-75890227D01*
X146823786Y-75953612D01*
X146766671Y-76011451D01*
X146719695Y-76060175D01*
X146686297Y-76096210D01*
X146669915Y-76115984D01*
X146669306Y-76117002D01*
X146667495Y-76130572D01*
X146674317Y-76152733D01*
X146691460Y-76186478D01*
X146720607Y-76234800D01*
X146763445Y-76300692D01*
X146820552Y-76385517D01*
X146871234Y-76460177D01*
X146916539Y-76527140D01*
X146953850Y-76582516D01*
X146980548Y-76622420D01*
X146994015Y-76642962D01*
X146994863Y-76644356D01*
X146993219Y-76664038D01*
X146980755Y-76702293D01*
X146959952Y-76751889D01*
X146952538Y-76767728D01*
X146920186Y-76838290D01*
X146885672Y-76918353D01*
X146857635Y-76987629D01*
X146837432Y-77039045D01*
X146821385Y-77078119D01*
X146812112Y-77098541D01*
X146810959Y-77100114D01*
X146793904Y-77102721D01*
X146753702Y-77109863D01*
X146695698Y-77120523D01*
X146625237Y-77133685D01*
X146547665Y-77148333D01*
X146468328Y-77163449D01*
X146392569Y-77178018D01*
X146325736Y-77191022D01*
X146273172Y-77201445D01*
X146240224Y-77208270D01*
X146232143Y-77210199D01*
X146223795Y-77214962D01*
X146217494Y-77225718D01*
X146212955Y-77246098D01*
X146209896Y-77279734D01*
X146208033Y-77330255D01*
X146207082Y-77401292D01*
X146206760Y-77496476D01*
X146206743Y-77535492D01*
X146206743Y-77852799D01*
X146282943Y-77867839D01*
X146325337Y-77875995D01*
X146388600Y-77887899D01*
X146465038Y-77902116D01*
X146546957Y-77917210D01*
X146569600Y-77921355D01*
X146645194Y-77936053D01*
X146711047Y-77950505D01*
X146761634Y-77963375D01*
X146791426Y-77973322D01*
X146796388Y-77976287D01*
X146808574Y-77997283D01*
X146826047Y-78037967D01*
X146845423Y-78090322D01*
X146849266Y-78101600D01*
X146874661Y-78171523D01*
X146906183Y-78250418D01*
X146937031Y-78321266D01*
X146937183Y-78321595D01*
X146988553Y-78432733D01*
X146819601Y-78681253D01*
X146650648Y-78929772D01*
X146867571Y-79147058D01*
X146933181Y-79211726D01*
X146993021Y-79268733D01*
X147043733Y-79315033D01*
X147081954Y-79347584D01*
X147104325Y-79363343D01*
X147107534Y-79364343D01*
X147126374Y-79356469D01*
X147164820Y-79334578D01*
X147218670Y-79301267D01*
X147283724Y-79259131D01*
X147354060Y-79211943D01*
X147425445Y-79163810D01*
X147489092Y-79121928D01*
X147540959Y-79088871D01*
X147577005Y-79067218D01*
X147593133Y-79059543D01*
X147612811Y-79066037D01*
X147650125Y-79083150D01*
X147697379Y-79107326D01*
X147702388Y-79110013D01*
X147766023Y-79141927D01*
X147809659Y-79157579D01*
X147836798Y-79157745D01*
X147850943Y-79143204D01*
X147851025Y-79143000D01*
X147858095Y-79125779D01*
X147874958Y-79084899D01*
X147900305Y-79023525D01*
X147932829Y-78944819D01*
X147971222Y-78851947D01*
X148014178Y-78748072D01*
X148055778Y-78647502D01*
X148101496Y-78536516D01*
X148143474Y-78433703D01*
X148180452Y-78342215D01*
X148211173Y-78265201D01*
X148234378Y-78205815D01*
X148248810Y-78167209D01*
X148253257Y-78152800D01*
X148242104Y-78136272D01*
X148212931Y-78109930D01*
X148174029Y-78080887D01*
X148063243Y-77989039D01*
X147976649Y-77883759D01*
X147915284Y-77767266D01*
X147880185Y-77641776D01*
X147872392Y-77509507D01*
X147878057Y-77448457D01*
X147908922Y-77321795D01*
X147962080Y-77209941D01*
X148034233Y-77114001D01*
X148122083Y-77035076D01*
X148222335Y-76974270D01*
X148331690Y-76932687D01*
X148446853Y-76911428D01*
X148564525Y-76911599D01*
X148681410Y-76934301D01*
X148794211Y-76980638D01*
X148899631Y-77051713D01*
X148943632Y-77091911D01*
X149028021Y-77195129D01*
X149086778Y-77307925D01*
X149120296Y-77427010D01*
X149128965Y-77549095D01*
X149113177Y-77670893D01*
X149073322Y-77789116D01*
X149009793Y-77900475D01*
X148922979Y-78001684D01*
X148825971Y-78080887D01*
X148785563Y-78111162D01*
X148757018Y-78137219D01*
X148746743Y-78152825D01*
X148752123Y-78169843D01*
X148767425Y-78210500D01*
X148791388Y-78271642D01*
X148822756Y-78350119D01*
X148860268Y-78442780D01*
X148902667Y-78546472D01*
X148944337Y-78647526D01*
X148990310Y-78758607D01*
X149032893Y-78861541D01*
X149070779Y-78953165D01*
X149102660Y-79030316D01*
X149127229Y-79089831D01*
X149143180Y-79128544D01*
X149149090Y-79143000D01*
X149163052Y-79157685D01*
X149190060Y-79157642D01*
X149233587Y-79142099D01*
X149297110Y-79110284D01*
X149297612Y-79110013D01*
X149345440Y-79085323D01*
X149384103Y-79067338D01*
X149405905Y-79059614D01*
X149406867Y-79059543D01*
X149423279Y-79067378D01*
X149459513Y-79089165D01*
X149511526Y-79122328D01*
X149575275Y-79164291D01*
X149645940Y-79211943D01*
X149717884Y-79260191D01*
X149782726Y-79302151D01*
X149836265Y-79335227D01*
X149874303Y-79356821D01*
X149892467Y-79364343D01*
X149909192Y-79354457D01*
X149942820Y-79326826D01*
X149989990Y-79284495D01*
X150047342Y-79230505D01*
X150111516Y-79167899D01*
X150132503Y-79146983D01*
X150349501Y-78929623D01*
X150184332Y-78687220D01*
X150134136Y-78612781D01*
X150090081Y-78545972D01*
X150054638Y-78490665D01*
X150030281Y-78450729D01*
X150019478Y-78430036D01*
X150019162Y-78428563D01*
X150024857Y-78409058D01*
X150040174Y-78369822D01*
X150062463Y-78317430D01*
X150078107Y-78282355D01*
X150107359Y-78215201D01*
X150134906Y-78147358D01*
X150156263Y-78090034D01*
X150162065Y-78072572D01*
X150178548Y-78025938D01*
X150194660Y-77989905D01*
X150203510Y-77976287D01*
X150223040Y-77967952D01*
X150265666Y-77956137D01*
X150325855Y-77942181D01*
X150398078Y-77927422D01*
X150430400Y-77921355D01*
X150512478Y-77906273D01*
X150591205Y-77891669D01*
X150658891Y-77878980D01*
X150707840Y-77869642D01*
X150717057Y-77867839D01*
X150793257Y-77852799D01*
X150793257Y-77535492D01*
X150793086Y-77431154D01*
X150792384Y-77352213D01*
X150790866Y-77295038D01*
X150788251Y-77255999D01*
X150784254Y-77231465D01*
X150778591Y-77217805D01*
X150770980Y-77211389D01*
X150767857Y-77210199D01*
X150749022Y-77205980D01*
X150707412Y-77197562D01*
X150648370Y-77185961D01*
X150577243Y-77172195D01*
X150499375Y-77157280D01*
X150420113Y-77142232D01*
X150344802Y-77128069D01*
X150278787Y-77115806D01*
X150227413Y-77106461D01*
X150196025Y-77101050D01*
X150189041Y-77100114D01*
X150182715Y-77087596D01*
X150168710Y-77054246D01*
X150149645Y-77006377D01*
X150142366Y-76987629D01*
X150113004Y-76915195D01*
X150078429Y-76835170D01*
X150047463Y-76767728D01*
X150024677Y-76716159D01*
X150009518Y-76673785D01*
X150004458Y-76647834D01*
X150005264Y-76644356D01*
X150015959Y-76627936D01*
X150040380Y-76591417D01*
X150075905Y-76538687D01*
X150119913Y-76473635D01*
X150169783Y-76400151D01*
X150179644Y-76385645D01*
X150237508Y-76299704D01*
X150280044Y-76234261D01*
X150308946Y-76186304D01*
X150325910Y-76152820D01*
X150332633Y-76130795D01*
X150330810Y-76117217D01*
X150330764Y-76117131D01*
X150316414Y-76099297D01*
X150284677Y-76064817D01*
X150238990Y-76017268D01*
X150182796Y-75960222D01*
X150119532Y-75897255D01*
X150112398Y-75890227D01*
X150032670Y-75813020D01*
X149971143Y-75756330D01*
X149926579Y-75719110D01*
X149897743Y-75700315D01*
X149885042Y-75697889D01*
X149866506Y-75708471D01*
X149828039Y-75732916D01*
X149773614Y-75768612D01*
X149707202Y-75812947D01*
X149632775Y-75863311D01*
X149615399Y-75875160D01*
X149368703Y-76043626D01*
X149257294Y-75993062D01*
X149189543Y-75963595D01*
X149116817Y-75933959D01*
X149054297Y-75910330D01*
X149051543Y-75909358D01*
X149002640Y-75891457D01*
X148964943Y-75876320D01*
X148946575Y-75867210D01*
X148946544Y-75867184D01*
X148940715Y-75850717D01*
X148930808Y-75810219D01*
X148917805Y-75750242D01*
X148902691Y-75675340D01*
X148886448Y-75590064D01*
X148885119Y-75582875D01*
X148868825Y-75495014D01*
X148853867Y-75415260D01*
X148841209Y-75348681D01*
X148831814Y-75300347D01*
X148826646Y-75275325D01*
X148826556Y-75274943D01*
X148823411Y-75264299D01*
X148817296Y-75256262D01*
X148804547Y-75250467D01*
X148781500Y-75246547D01*
X148744491Y-75244135D01*
X148689856Y-75242865D01*
X148613933Y-75242371D01*
X148513056Y-75242286D01*
X148500000Y-75242286D01*
X148396090Y-75242348D01*
%TO.C,CAUTION*%
D10*
X151892142Y-85313476D02*
X151939761Y-85265857D01*
X151987380Y-85123000D01*
X151987380Y-85027761D01*
X151939761Y-84884904D01*
X151844523Y-84789666D01*
X151749285Y-84742047D01*
X151558809Y-84694428D01*
X151415952Y-84694428D01*
X151225476Y-84742047D01*
X151130238Y-84789666D01*
X151035000Y-84884904D01*
X150987380Y-85027761D01*
X150987380Y-85123000D01*
X151035000Y-85265857D01*
X151082619Y-85313476D01*
X151701666Y-85694428D02*
X151701666Y-86170619D01*
X151987380Y-85599190D02*
X150987380Y-85932523D01*
X151987380Y-86265857D01*
X150987380Y-86599190D02*
X151796904Y-86599190D01*
X151892142Y-86646809D01*
X151939761Y-86694428D01*
X151987380Y-86789666D01*
X151987380Y-86980142D01*
X151939761Y-87075380D01*
X151892142Y-87123000D01*
X151796904Y-87170619D01*
X150987380Y-87170619D01*
X150987380Y-87503952D02*
X150987380Y-88075380D01*
X151987380Y-87789666D02*
X150987380Y-87789666D01*
X151987380Y-88408714D02*
X150987380Y-88408714D01*
X150987380Y-89075380D02*
X150987380Y-89265857D01*
X151035000Y-89361095D01*
X151130238Y-89456333D01*
X151320714Y-89503952D01*
X151654047Y-89503952D01*
X151844523Y-89456333D01*
X151939761Y-89361095D01*
X151987380Y-89265857D01*
X151987380Y-89075380D01*
X151939761Y-88980142D01*
X151844523Y-88884904D01*
X151654047Y-88837285D01*
X151320714Y-88837285D01*
X151130238Y-88884904D01*
X151035000Y-88980142D01*
X150987380Y-89075380D01*
X151987380Y-89932523D02*
X150987380Y-89932523D01*
X151987380Y-90503952D01*
X150987380Y-90503952D01*
%TD*%
M02*
