%TF.GenerationSoftware,KiCad,Pcbnew,(5.1.5-131-g305ed0b65)-1*%
%TF.CreationDate,2020-05-01T23:58:58+08:00*%
%TF.ProjectId,PowerSupply,506f7765-7253-4757-9070-6c792e6b6963,rev?*%
%TF.SameCoordinates,Original*%
%TF.FileFunction,Paste,Top*%
%TF.FilePolarity,Positive*%
%FSLAX46Y46*%
G04 Gerber Fmt 4.6, Leading zero omitted, Abs format (unit mm)*
G04 Created by KiCad (PCBNEW (5.1.5-131-g305ed0b65)-1) date 2020-05-01 23:58:58*
%MOMM*%
%LPD*%
G01*
G04 APERTURE LIST*
%ADD10R,2.500000X2.300000*%
%ADD11R,2.900000X5.400000*%
%ADD12R,4.600000X1.100000*%
%ADD13R,4.550000X5.250000*%
G04 APERTURE END LIST*
%TO.C,C4*%
G36*
G01*
X123500000Y-49250000D02*
X125500000Y-49250000D01*
G75*
G02*
X125750000Y-49500000I0J-250000D01*
G01*
X125750000Y-53000000D01*
G75*
G02*
X125500000Y-53250000I-250000J0D01*
G01*
X123500000Y-53250000D01*
G75*
G02*
X123250000Y-53000000I0J250000D01*
G01*
X123250000Y-49500000D01*
G75*
G02*
X123500000Y-49250000I250000J0D01*
G01*
G37*
G36*
G01*
X123500000Y-57250000D02*
X125500000Y-57250000D01*
G75*
G02*
X125750000Y-57500000I0J-250000D01*
G01*
X125750000Y-61000000D01*
G75*
G02*
X125500000Y-61250000I-250000J0D01*
G01*
X123500000Y-61250000D01*
G75*
G02*
X123250000Y-61000000I0J250000D01*
G01*
X123250000Y-57500000D01*
G75*
G02*
X123500000Y-57250000I250000J0D01*
G01*
G37*
%TD*%
%TO.C,C1*%
G36*
G01*
X99975000Y-44350000D02*
X102025000Y-44350000D01*
G75*
G02*
X102275000Y-44600000I0J-250000D01*
G01*
X102275000Y-46175000D01*
G75*
G02*
X102025000Y-46425000I-250000J0D01*
G01*
X99975000Y-46425000D01*
G75*
G02*
X99725000Y-46175000I0J250000D01*
G01*
X99725000Y-44600000D01*
G75*
G02*
X99975000Y-44350000I250000J0D01*
G01*
G37*
G36*
G01*
X99975000Y-50575000D02*
X102025000Y-50575000D01*
G75*
G02*
X102275000Y-50825000I0J-250000D01*
G01*
X102275000Y-52400000D01*
G75*
G02*
X102025000Y-52650000I-250000J0D01*
G01*
X99975000Y-52650000D01*
G75*
G02*
X99725000Y-52400000I0J250000D01*
G01*
X99725000Y-50825000D01*
G75*
G02*
X99975000Y-50575000I250000J0D01*
G01*
G37*
%TD*%
%TO.C,C2*%
G36*
G01*
X105543750Y-57262500D02*
X106456250Y-57262500D01*
G75*
G02*
X106700000Y-57506250I0J-243750D01*
G01*
X106700000Y-57993750D01*
G75*
G02*
X106456250Y-58237500I-243750J0D01*
G01*
X105543750Y-58237500D01*
G75*
G02*
X105300000Y-57993750I0J243750D01*
G01*
X105300000Y-57506250D01*
G75*
G02*
X105543750Y-57262500I243750J0D01*
G01*
G37*
G36*
G01*
X105543750Y-55387500D02*
X106456250Y-55387500D01*
G75*
G02*
X106700000Y-55631250I0J-243750D01*
G01*
X106700000Y-56118750D01*
G75*
G02*
X106456250Y-56362500I-243750J0D01*
G01*
X105543750Y-56362500D01*
G75*
G02*
X105300000Y-56118750I0J243750D01*
G01*
X105300000Y-55631250D01*
G75*
G02*
X105543750Y-55387500I243750J0D01*
G01*
G37*
%TD*%
%TO.C,C3*%
G36*
G01*
X113487500Y-59043750D02*
X113487500Y-59956250D01*
G75*
G02*
X113243750Y-60200000I-243750J0D01*
G01*
X112756250Y-60200000D01*
G75*
G02*
X112512500Y-59956250I0J243750D01*
G01*
X112512500Y-59043750D01*
G75*
G02*
X112756250Y-58800000I243750J0D01*
G01*
X113243750Y-58800000D01*
G75*
G02*
X113487500Y-59043750I0J-243750D01*
G01*
G37*
G36*
G01*
X111612500Y-59043750D02*
X111612500Y-59956250D01*
G75*
G02*
X111368750Y-60200000I-243750J0D01*
G01*
X110881250Y-60200000D01*
G75*
G02*
X110637500Y-59956250I0J243750D01*
G01*
X110637500Y-59043750D01*
G75*
G02*
X110881250Y-58800000I243750J0D01*
G01*
X111368750Y-58800000D01*
G75*
G02*
X111612500Y-59043750I0J-243750D01*
G01*
G37*
%TD*%
D10*
%TO.C,D1*%
X124650000Y-44500000D03*
X120350000Y-44500000D03*
%TD*%
D11*
%TO.C,L1*%
X107050000Y-46500000D03*
X116950000Y-46500000D03*
%TD*%
D12*
%TO.C,Q1*%
X116225000Y-33460000D03*
X116225000Y-38540000D03*
D13*
X127800000Y-38775000D03*
X122950000Y-33225000D03*
X127800000Y-33225000D03*
X122950000Y-38775000D03*
%TD*%
%TO.C,R1*%
G36*
G01*
X113575000Y-36574999D02*
X113575000Y-39425001D01*
G75*
G02*
X113325001Y-39675000I-249999J0D01*
G01*
X112474999Y-39675000D01*
G75*
G02*
X112225000Y-39425001I0J249999D01*
G01*
X112225000Y-36574999D01*
G75*
G02*
X112474999Y-36325000I249999J0D01*
G01*
X113325001Y-36325000D01*
G75*
G02*
X113575000Y-36574999I0J-249999D01*
G01*
G37*
G36*
G01*
X107775000Y-36574999D02*
X107775000Y-39425001D01*
G75*
G02*
X107525001Y-39675000I-249999J0D01*
G01*
X106674999Y-39675000D01*
G75*
G02*
X106425000Y-39425001I0J249999D01*
G01*
X106425000Y-36574999D01*
G75*
G02*
X106674999Y-36325000I249999J0D01*
G01*
X107525001Y-36325000D01*
G75*
G02*
X107775000Y-36574999I0J-249999D01*
G01*
G37*
%TD*%
%TO.C,R2*%
G36*
G01*
X116375000Y-53475000D02*
X117625000Y-53475000D01*
G75*
G02*
X117875000Y-53725000I0J-250000D01*
G01*
X117875000Y-54475000D01*
G75*
G02*
X117625000Y-54725000I-250000J0D01*
G01*
X116375000Y-54725000D01*
G75*
G02*
X116125000Y-54475000I0J250000D01*
G01*
X116125000Y-53725000D01*
G75*
G02*
X116375000Y-53475000I250000J0D01*
G01*
G37*
G36*
G01*
X116375000Y-56275000D02*
X117625000Y-56275000D01*
G75*
G02*
X117875000Y-56525000I0J-250000D01*
G01*
X117875000Y-57275000D01*
G75*
G02*
X117625000Y-57525000I-250000J0D01*
G01*
X116375000Y-57525000D01*
G75*
G02*
X116125000Y-57275000I0J250000D01*
G01*
X116125000Y-56525000D01*
G75*
G02*
X116375000Y-56275000I250000J0D01*
G01*
G37*
%TD*%
%TO.C,R3*%
G36*
G01*
X117425000Y-58543750D02*
X117425000Y-59456250D01*
G75*
G02*
X117181250Y-59700000I-243750J0D01*
G01*
X116693750Y-59700000D01*
G75*
G02*
X116450000Y-59456250I0J243750D01*
G01*
X116450000Y-58543750D01*
G75*
G02*
X116693750Y-58300000I243750J0D01*
G01*
X117181250Y-58300000D01*
G75*
G02*
X117425000Y-58543750I0J-243750D01*
G01*
G37*
G36*
G01*
X115550000Y-58543750D02*
X115550000Y-59456250D01*
G75*
G02*
X115306250Y-59700000I-243750J0D01*
G01*
X114818750Y-59700000D01*
G75*
G02*
X114575000Y-59456250I0J243750D01*
G01*
X114575000Y-58543750D01*
G75*
G02*
X114818750Y-58300000I243750J0D01*
G01*
X115306250Y-58300000D01*
G75*
G02*
X115550000Y-58543750I0J-243750D01*
G01*
G37*
%TD*%
%TO.C,U1*%
G36*
G01*
X107050000Y-54245000D02*
X107050000Y-53945000D01*
G75*
G02*
X107200000Y-53795000I150000J0D01*
G01*
X108850000Y-53795000D01*
G75*
G02*
X109000000Y-53945000I0J-150000D01*
G01*
X109000000Y-54245000D01*
G75*
G02*
X108850000Y-54395000I-150000J0D01*
G01*
X107200000Y-54395000D01*
G75*
G02*
X107050000Y-54245000I0J150000D01*
G01*
G37*
G36*
G01*
X107050000Y-55515000D02*
X107050000Y-55215000D01*
G75*
G02*
X107200000Y-55065000I150000J0D01*
G01*
X108850000Y-55065000D01*
G75*
G02*
X109000000Y-55215000I0J-150000D01*
G01*
X109000000Y-55515000D01*
G75*
G02*
X108850000Y-55665000I-150000J0D01*
G01*
X107200000Y-55665000D01*
G75*
G02*
X107050000Y-55515000I0J150000D01*
G01*
G37*
G36*
G01*
X107050000Y-56785000D02*
X107050000Y-56485000D01*
G75*
G02*
X107200000Y-56335000I150000J0D01*
G01*
X108850000Y-56335000D01*
G75*
G02*
X109000000Y-56485000I0J-150000D01*
G01*
X109000000Y-56785000D01*
G75*
G02*
X108850000Y-56935000I-150000J0D01*
G01*
X107200000Y-56935000D01*
G75*
G02*
X107050000Y-56785000I0J150000D01*
G01*
G37*
G36*
G01*
X107050000Y-58055000D02*
X107050000Y-57755000D01*
G75*
G02*
X107200000Y-57605000I150000J0D01*
G01*
X108850000Y-57605000D01*
G75*
G02*
X109000000Y-57755000I0J-150000D01*
G01*
X109000000Y-58055000D01*
G75*
G02*
X108850000Y-58205000I-150000J0D01*
G01*
X107200000Y-58205000D01*
G75*
G02*
X107050000Y-58055000I0J150000D01*
G01*
G37*
G36*
G01*
X112000000Y-58055000D02*
X112000000Y-57755000D01*
G75*
G02*
X112150000Y-57605000I150000J0D01*
G01*
X113800000Y-57605000D01*
G75*
G02*
X113950000Y-57755000I0J-150000D01*
G01*
X113950000Y-58055000D01*
G75*
G02*
X113800000Y-58205000I-150000J0D01*
G01*
X112150000Y-58205000D01*
G75*
G02*
X112000000Y-58055000I0J150000D01*
G01*
G37*
G36*
G01*
X112000000Y-56785000D02*
X112000000Y-56485000D01*
G75*
G02*
X112150000Y-56335000I150000J0D01*
G01*
X113800000Y-56335000D01*
G75*
G02*
X113950000Y-56485000I0J-150000D01*
G01*
X113950000Y-56785000D01*
G75*
G02*
X113800000Y-56935000I-150000J0D01*
G01*
X112150000Y-56935000D01*
G75*
G02*
X112000000Y-56785000I0J150000D01*
G01*
G37*
G36*
G01*
X112000000Y-55515000D02*
X112000000Y-55215000D01*
G75*
G02*
X112150000Y-55065000I150000J0D01*
G01*
X113800000Y-55065000D01*
G75*
G02*
X113950000Y-55215000I0J-150000D01*
G01*
X113950000Y-55515000D01*
G75*
G02*
X113800000Y-55665000I-150000J0D01*
G01*
X112150000Y-55665000D01*
G75*
G02*
X112000000Y-55515000I0J150000D01*
G01*
G37*
G36*
G01*
X112000000Y-54245000D02*
X112000000Y-53945000D01*
G75*
G02*
X112150000Y-53795000I150000J0D01*
G01*
X113800000Y-53795000D01*
G75*
G02*
X113950000Y-53945000I0J-150000D01*
G01*
X113950000Y-54245000D01*
G75*
G02*
X113800000Y-54395000I-150000J0D01*
G01*
X112150000Y-54395000D01*
G75*
G02*
X112000000Y-54245000I0J150000D01*
G01*
G37*
%TD*%
M02*
