M48
; DRILL file {KiCad (5.1.5-131-g305ed0b65)-1} date 09/08/20 16:09:39
; FORMAT={-:-/ absolute / inch / decimal}
; #@! TF.CreationDate,2020-09-08T16:09:39+08:00
; #@! TF.GenerationSoftware,Kicad,Pcbnew,(5.1.5-131-g305ed0b65)-1
FMAT,2
INCH
T1C0.0118
T2C0.0157
T3C0.0276
T4C0.0394
%
G90
G05
T1
X5.4626Y-3.8878
X5.8465Y-3.0512
X5.8465Y-3.7795
X5.9252Y-4.0354
T2
X5.1575Y-2.8642
X5.1575Y-2.9035
X5.1575Y-2.9528
X5.1575Y-2.9921
X5.1575Y-3.6122
X5.1575Y-3.6516
X5.1575Y-3.6909
X5.1575Y-3.7303
X5.1575Y-3.7697
X5.1969Y-2.8642
X5.1969Y-2.9035
X5.1969Y-2.9528
X5.1969Y-2.9921
X5.1969Y-3.6122
X5.1969Y-3.6516
X5.1969Y-3.6909
X5.1969Y-3.7303
X5.1969Y-3.7697
X5.2362Y-2.8642
X5.2362Y-2.9035
X5.2362Y-2.9528
X5.2362Y-2.9921
X5.2756Y-2.8642
X5.2756Y-2.9035
X5.2756Y-2.9528
X5.2756Y-2.9921
X5.315Y-2.8642
X5.315Y-2.9035
X5.315Y-2.9528
X5.315Y-2.9921
X5.3543Y-2.8642
X5.3543Y-2.9035
X5.3543Y-2.9528
X5.3543Y-2.9921
X5.3937Y-2.8642
X5.3937Y-2.9035
X5.3937Y-2.9528
X5.3937Y-2.9921
X5.4331Y-2.8642
X5.4331Y-2.9035
X5.4331Y-2.9528
X5.4331Y-2.9921
X5.4724Y-2.8642
X5.4724Y-2.9035
X5.5118Y-2.8642
X5.5118Y-2.9035
X5.5512Y-2.8642
X5.5512Y-2.9035
X5.5906Y-2.8642
X5.5906Y-2.9035
X5.6299Y-2.8642
X5.6299Y-2.9035
X5.6791Y-3.8189
X5.6791Y-3.8583
X5.6791Y-3.8976
X5.7185Y-3.8189
X5.7185Y-3.8583
X5.7185Y-3.8976
X6.3386Y-3.6516
X6.3386Y-3.6909
X6.3386Y-3.7303
X6.3386Y-3.7697
X6.378Y-3.6516
X6.378Y-3.6909
X6.378Y-3.7303
X6.378Y-3.7697
X6.4173Y-3.6909
X6.4173Y-3.7303
X6.4173Y-3.7697
T3
X5.1937Y-3.9173
X5.2937Y-4.0173
X5.3937Y-3.9173
T4
X6.437Y-3.4055
X6.437Y-3.5055
T4
G00X5.1969Y-3.0709
M15
G01X5.1969Y-3.1496
M16
G05
G00X5.2756Y-3.2953
M15
G01X5.3543Y-3.2953
M16
G05
G00X5.4331Y-3.0709
M15
G01X5.4331Y-3.1496
M16
G05
T0
M30
