%TF.GenerationSoftware,KiCad,Pcbnew,(5.1.5-131-g305ed0b65)-1*%
%TF.CreationDate,2020-05-01T23:58:58+08:00*%
%TF.ProjectId,PowerSupply,506f7765-7253-4757-9070-6c792e6b6963,rev?*%
%TF.SameCoordinates,Original*%
%TF.FileFunction,Copper,L1,Top*%
%TF.FilePolarity,Positive*%
%FSLAX46Y46*%
G04 Gerber Fmt 4.6, Leading zero omitted, Abs format (unit mm)*
G04 Created by KiCad (PCBNEW (5.1.5-131-g305ed0b65)-1) date 2020-05-01 23:58:58*
%MOMM*%
%LPD*%
G01*
G04 APERTURE LIST*
%TA.AperFunction,ComponentPad*%
%ADD10R,1.700000X1.700000*%
%TD*%
%TA.AperFunction,ComponentPad*%
%ADD11O,1.700000X1.700000*%
%TD*%
%TA.AperFunction,ComponentPad*%
%ADD12R,3.500000X3.500000*%
%TD*%
%TA.AperFunction,SMDPad,CuDef*%
%ADD13R,2.500000X2.300000*%
%TD*%
%TA.AperFunction,SMDPad,CuDef*%
%ADD14R,2.900000X5.400000*%
%TD*%
%TA.AperFunction,SMDPad,CuDef*%
%ADD15R,4.600000X1.100000*%
%TD*%
%TA.AperFunction,SMDPad,CuDef*%
%ADD16R,9.400000X10.800000*%
%TD*%
%TA.AperFunction,ComponentPad*%
%ADD17C,1.260000*%
%TD*%
%TA.AperFunction,ViaPad*%
%ADD18C,0.800000*%
%TD*%
%TA.AperFunction,ViaPad*%
%ADD19C,0.600000*%
%TD*%
%TA.AperFunction,Conductor*%
%ADD20C,0.203200*%
%TD*%
%TA.AperFunction,Conductor*%
%ADD21C,0.508000*%
%TD*%
%TA.AperFunction,Conductor*%
%ADD22C,0.300000*%
%TD*%
G04 APERTURE END LIST*
%TO.P,C4,1*%
%TO.N,+180V*%
%TA.AperFunction,SMDPad,CuDef*%
G36*
G01*
X123500000Y-49250000D02*
X125500000Y-49250000D01*
G75*
G02*
X125750000Y-49500000I0J-250000D01*
G01*
X125750000Y-53000000D01*
G75*
G02*
X125500000Y-53250000I-250000J0D01*
G01*
X123500000Y-53250000D01*
G75*
G02*
X123250000Y-53000000I0J250000D01*
G01*
X123250000Y-49500000D01*
G75*
G02*
X123500000Y-49250000I250000J0D01*
G01*
G37*
%TD.AperFunction*%
%TO.P,C4,2*%
%TO.N,GND*%
%TA.AperFunction,SMDPad,CuDef*%
G36*
G01*
X123500000Y-57250000D02*
X125500000Y-57250000D01*
G75*
G02*
X125750000Y-57500000I0J-250000D01*
G01*
X125750000Y-61000000D01*
G75*
G02*
X125500000Y-61250000I-250000J0D01*
G01*
X123500000Y-61250000D01*
G75*
G02*
X123250000Y-61000000I0J250000D01*
G01*
X123250000Y-57500000D01*
G75*
G02*
X123500000Y-57250000I250000J0D01*
G01*
G37*
%TD.AperFunction*%
%TD*%
D10*
%TO.P,J2,1*%
%TO.N,+180V*%
X129500000Y-44500000D03*
D11*
%TO.P,J2,2*%
%TO.N,GND*%
X129500000Y-47040000D03*
%TD*%
D12*
%TO.P,J1,1*%
%TO.N,+12V*%
X104000000Y-37000000D03*
%TO.P,J1,2*%
%TO.N,GND*%
%TA.AperFunction,ComponentPad*%
G36*
G01*
X96500000Y-38000000D02*
X96500000Y-36000000D01*
G75*
G02*
X97250000Y-35250000I750000J0D01*
G01*
X98750000Y-35250000D01*
G75*
G02*
X99500000Y-36000000I0J-750000D01*
G01*
X99500000Y-38000000D01*
G75*
G02*
X98750000Y-38750000I-750000J0D01*
G01*
X97250000Y-38750000D01*
G75*
G02*
X96500000Y-38000000I0J750000D01*
G01*
G37*
%TD.AperFunction*%
%TO.P,J1,3*%
%TO.N,N/C*%
%TA.AperFunction,ComponentPad*%
G36*
G01*
X99250000Y-42575000D02*
X99250000Y-40825000D01*
G75*
G02*
X100125000Y-39950000I875000J0D01*
G01*
X101875000Y-39950000D01*
G75*
G02*
X102750000Y-40825000I0J-875000D01*
G01*
X102750000Y-42575000D01*
G75*
G02*
X101875000Y-43450000I-875000J0D01*
G01*
X100125000Y-43450000D01*
G75*
G02*
X99250000Y-42575000I0J875000D01*
G01*
G37*
%TD.AperFunction*%
%TD*%
%TO.P,C1,1*%
%TO.N,+12V*%
%TA.AperFunction,SMDPad,CuDef*%
G36*
G01*
X99975000Y-44350000D02*
X102025000Y-44350000D01*
G75*
G02*
X102275000Y-44600000I0J-250000D01*
G01*
X102275000Y-46175000D01*
G75*
G02*
X102025000Y-46425000I-250000J0D01*
G01*
X99975000Y-46425000D01*
G75*
G02*
X99725000Y-46175000I0J250000D01*
G01*
X99725000Y-44600000D01*
G75*
G02*
X99975000Y-44350000I250000J0D01*
G01*
G37*
%TD.AperFunction*%
%TO.P,C1,2*%
%TO.N,GND*%
%TA.AperFunction,SMDPad,CuDef*%
G36*
G01*
X99975000Y-50575000D02*
X102025000Y-50575000D01*
G75*
G02*
X102275000Y-50825000I0J-250000D01*
G01*
X102275000Y-52400000D01*
G75*
G02*
X102025000Y-52650000I-250000J0D01*
G01*
X99975000Y-52650000D01*
G75*
G02*
X99725000Y-52400000I0J250000D01*
G01*
X99725000Y-50825000D01*
G75*
G02*
X99975000Y-50575000I250000J0D01*
G01*
G37*
%TD.AperFunction*%
%TD*%
%TO.P,C2,2*%
%TO.N,GND*%
%TA.AperFunction,SMDPad,CuDef*%
G36*
G01*
X105543750Y-57262500D02*
X106456250Y-57262500D01*
G75*
G02*
X106700000Y-57506250I0J-243750D01*
G01*
X106700000Y-57993750D01*
G75*
G02*
X106456250Y-58237500I-243750J0D01*
G01*
X105543750Y-58237500D01*
G75*
G02*
X105300000Y-57993750I0J243750D01*
G01*
X105300000Y-57506250D01*
G75*
G02*
X105543750Y-57262500I243750J0D01*
G01*
G37*
%TD.AperFunction*%
%TO.P,C2,1*%
%TO.N,+12V*%
%TA.AperFunction,SMDPad,CuDef*%
G36*
G01*
X105543750Y-55387500D02*
X106456250Y-55387500D01*
G75*
G02*
X106700000Y-55631250I0J-243750D01*
G01*
X106700000Y-56118750D01*
G75*
G02*
X106456250Y-56362500I-243750J0D01*
G01*
X105543750Y-56362500D01*
G75*
G02*
X105300000Y-56118750I0J243750D01*
G01*
X105300000Y-55631250D01*
G75*
G02*
X105543750Y-55387500I243750J0D01*
G01*
G37*
%TD.AperFunction*%
%TD*%
%TO.P,C3,1*%
%TO.N,Net-(C3-Pad1)*%
%TA.AperFunction,SMDPad,CuDef*%
G36*
G01*
X113487500Y-59043750D02*
X113487500Y-59956250D01*
G75*
G02*
X113243750Y-60200000I-243750J0D01*
G01*
X112756250Y-60200000D01*
G75*
G02*
X112512500Y-59956250I0J243750D01*
G01*
X112512500Y-59043750D01*
G75*
G02*
X112756250Y-58800000I243750J0D01*
G01*
X113243750Y-58800000D01*
G75*
G02*
X113487500Y-59043750I0J-243750D01*
G01*
G37*
%TD.AperFunction*%
%TO.P,C3,2*%
%TO.N,GND*%
%TA.AperFunction,SMDPad,CuDef*%
G36*
G01*
X111612500Y-59043750D02*
X111612500Y-59956250D01*
G75*
G02*
X111368750Y-60200000I-243750J0D01*
G01*
X110881250Y-60200000D01*
G75*
G02*
X110637500Y-59956250I0J243750D01*
G01*
X110637500Y-59043750D01*
G75*
G02*
X110881250Y-58800000I243750J0D01*
G01*
X111368750Y-58800000D01*
G75*
G02*
X111612500Y-59043750I0J-243750D01*
G01*
G37*
%TD.AperFunction*%
%TD*%
D13*
%TO.P,D1,1*%
%TO.N,+180V*%
X124650000Y-44500000D03*
%TO.P,D1,2*%
%TO.N,Net-(D1-Pad2)*%
X120350000Y-44500000D03*
%TD*%
D14*
%TO.P,L1,1*%
%TO.N,+12V*%
X107050000Y-46500000D03*
%TO.P,L1,2*%
%TO.N,Net-(D1-Pad2)*%
X116950000Y-46500000D03*
%TD*%
D15*
%TO.P,Q1,1*%
%TO.N,Net-(Q1-Pad1)*%
X116225000Y-33460000D03*
%TO.P,Q1,3*%
%TO.N,Net-(Q1-Pad3)*%
X116225000Y-38540000D03*
D16*
%TO.P,Q1,2*%
%TO.N,Net-(D1-Pad2)*%
X125375000Y-36000000D03*
%TD*%
%TO.P,R1,1*%
%TO.N,Net-(Q1-Pad3)*%
%TA.AperFunction,SMDPad,CuDef*%
G36*
G01*
X113575000Y-36574999D02*
X113575000Y-39425001D01*
G75*
G02*
X113325001Y-39675000I-249999J0D01*
G01*
X112474999Y-39675000D01*
G75*
G02*
X112225000Y-39425001I0J249999D01*
G01*
X112225000Y-36574999D01*
G75*
G02*
X112474999Y-36325000I249999J0D01*
G01*
X113325001Y-36325000D01*
G75*
G02*
X113575000Y-36574999I0J-249999D01*
G01*
G37*
%TD.AperFunction*%
%TO.P,R1,2*%
%TO.N,GND*%
%TA.AperFunction,SMDPad,CuDef*%
G36*
G01*
X107775000Y-36574999D02*
X107775000Y-39425001D01*
G75*
G02*
X107525001Y-39675000I-249999J0D01*
G01*
X106674999Y-39675000D01*
G75*
G02*
X106425000Y-39425001I0J249999D01*
G01*
X106425000Y-36574999D01*
G75*
G02*
X106674999Y-36325000I249999J0D01*
G01*
X107525001Y-36325000D01*
G75*
G02*
X107775000Y-36574999I0J-249999D01*
G01*
G37*
%TD.AperFunction*%
%TD*%
%TO.P,R2,1*%
%TO.N,+180V*%
%TA.AperFunction,SMDPad,CuDef*%
G36*
G01*
X116375000Y-53475000D02*
X117625000Y-53475000D01*
G75*
G02*
X117875000Y-53725000I0J-250000D01*
G01*
X117875000Y-54475000D01*
G75*
G02*
X117625000Y-54725000I-250000J0D01*
G01*
X116375000Y-54725000D01*
G75*
G02*
X116125000Y-54475000I0J250000D01*
G01*
X116125000Y-53725000D01*
G75*
G02*
X116375000Y-53475000I250000J0D01*
G01*
G37*
%TD.AperFunction*%
%TO.P,R2,2*%
%TO.N,Net-(R2-Pad2)*%
%TA.AperFunction,SMDPad,CuDef*%
G36*
G01*
X116375000Y-56275000D02*
X117625000Y-56275000D01*
G75*
G02*
X117875000Y-56525000I0J-250000D01*
G01*
X117875000Y-57275000D01*
G75*
G02*
X117625000Y-57525000I-250000J0D01*
G01*
X116375000Y-57525000D01*
G75*
G02*
X116125000Y-57275000I0J250000D01*
G01*
X116125000Y-56525000D01*
G75*
G02*
X116375000Y-56275000I250000J0D01*
G01*
G37*
%TD.AperFunction*%
%TD*%
%TO.P,R3,1*%
%TO.N,Net-(R2-Pad2)*%
%TA.AperFunction,SMDPad,CuDef*%
G36*
G01*
X117425000Y-58543750D02*
X117425000Y-59456250D01*
G75*
G02*
X117181250Y-59700000I-243750J0D01*
G01*
X116693750Y-59700000D01*
G75*
G02*
X116450000Y-59456250I0J243750D01*
G01*
X116450000Y-58543750D01*
G75*
G02*
X116693750Y-58300000I243750J0D01*
G01*
X117181250Y-58300000D01*
G75*
G02*
X117425000Y-58543750I0J-243750D01*
G01*
G37*
%TD.AperFunction*%
%TO.P,R3,2*%
%TO.N,Net-(R3-Pad2)*%
%TA.AperFunction,SMDPad,CuDef*%
G36*
G01*
X115550000Y-58543750D02*
X115550000Y-59456250D01*
G75*
G02*
X115306250Y-59700000I-243750J0D01*
G01*
X114818750Y-59700000D01*
G75*
G02*
X114575000Y-59456250I0J243750D01*
G01*
X114575000Y-58543750D01*
G75*
G02*
X114818750Y-58300000I243750J0D01*
G01*
X115306250Y-58300000D01*
G75*
G02*
X115550000Y-58543750I0J-243750D01*
G01*
G37*
%TD.AperFunction*%
%TD*%
D17*
%TO.P,RV1,3*%
%TO.N,GND*%
X97920000Y-57500000D03*
%TO.P,RV1,2*%
%TO.N,Net-(R3-Pad2)*%
X100460000Y-60040000D03*
%TO.P,RV1,1*%
%TO.N,Net-(RV1-Pad1)*%
X103000000Y-57500000D03*
%TD*%
%TO.P,U1,1*%
%TO.N,Net-(Q1-Pad1)*%
%TA.AperFunction,SMDPad,CuDef*%
G36*
G01*
X107050000Y-54245000D02*
X107050000Y-53945000D01*
G75*
G02*
X107200000Y-53795000I150000J0D01*
G01*
X108850000Y-53795000D01*
G75*
G02*
X109000000Y-53945000I0J-150000D01*
G01*
X109000000Y-54245000D01*
G75*
G02*
X108850000Y-54395000I-150000J0D01*
G01*
X107200000Y-54395000D01*
G75*
G02*
X107050000Y-54245000I0J150000D01*
G01*
G37*
%TD.AperFunction*%
%TO.P,U1,2*%
%TO.N,+12V*%
%TA.AperFunction,SMDPad,CuDef*%
G36*
G01*
X107050000Y-55515000D02*
X107050000Y-55215000D01*
G75*
G02*
X107200000Y-55065000I150000J0D01*
G01*
X108850000Y-55065000D01*
G75*
G02*
X109000000Y-55215000I0J-150000D01*
G01*
X109000000Y-55515000D01*
G75*
G02*
X108850000Y-55665000I-150000J0D01*
G01*
X107200000Y-55665000D01*
G75*
G02*
X107050000Y-55515000I0J150000D01*
G01*
G37*
%TD.AperFunction*%
%TO.P,U1,3*%
%TO.N,Net-(R2-Pad2)*%
%TA.AperFunction,SMDPad,CuDef*%
G36*
G01*
X107050000Y-56785000D02*
X107050000Y-56485000D01*
G75*
G02*
X107200000Y-56335000I150000J0D01*
G01*
X108850000Y-56335000D01*
G75*
G02*
X109000000Y-56485000I0J-150000D01*
G01*
X109000000Y-56785000D01*
G75*
G02*
X108850000Y-56935000I-150000J0D01*
G01*
X107200000Y-56935000D01*
G75*
G02*
X107050000Y-56785000I0J150000D01*
G01*
G37*
%TD.AperFunction*%
%TO.P,U1,4*%
%TO.N,GND*%
%TA.AperFunction,SMDPad,CuDef*%
G36*
G01*
X107050000Y-58055000D02*
X107050000Y-57755000D01*
G75*
G02*
X107200000Y-57605000I150000J0D01*
G01*
X108850000Y-57605000D01*
G75*
G02*
X109000000Y-57755000I0J-150000D01*
G01*
X109000000Y-58055000D01*
G75*
G02*
X108850000Y-58205000I-150000J0D01*
G01*
X107200000Y-58205000D01*
G75*
G02*
X107050000Y-58055000I0J150000D01*
G01*
G37*
%TD.AperFunction*%
%TO.P,U1,5*%
%TO.N,Net-(C3-Pad1)*%
%TA.AperFunction,SMDPad,CuDef*%
G36*
G01*
X112000000Y-58055000D02*
X112000000Y-57755000D01*
G75*
G02*
X112150000Y-57605000I150000J0D01*
G01*
X113800000Y-57605000D01*
G75*
G02*
X113950000Y-57755000I0J-150000D01*
G01*
X113950000Y-58055000D01*
G75*
G02*
X113800000Y-58205000I-150000J0D01*
G01*
X112150000Y-58205000D01*
G75*
G02*
X112000000Y-58055000I0J150000D01*
G01*
G37*
%TD.AperFunction*%
%TO.P,U1,6*%
%TO.N,GND*%
%TA.AperFunction,SMDPad,CuDef*%
G36*
G01*
X112000000Y-56785000D02*
X112000000Y-56485000D01*
G75*
G02*
X112150000Y-56335000I150000J0D01*
G01*
X113800000Y-56335000D01*
G75*
G02*
X113950000Y-56485000I0J-150000D01*
G01*
X113950000Y-56785000D01*
G75*
G02*
X113800000Y-56935000I-150000J0D01*
G01*
X112150000Y-56935000D01*
G75*
G02*
X112000000Y-56785000I0J150000D01*
G01*
G37*
%TD.AperFunction*%
%TO.P,U1,7*%
%TA.AperFunction,SMDPad,CuDef*%
G36*
G01*
X112000000Y-55515000D02*
X112000000Y-55215000D01*
G75*
G02*
X112150000Y-55065000I150000J0D01*
G01*
X113800000Y-55065000D01*
G75*
G02*
X113950000Y-55215000I0J-150000D01*
G01*
X113950000Y-55515000D01*
G75*
G02*
X113800000Y-55665000I-150000J0D01*
G01*
X112150000Y-55665000D01*
G75*
G02*
X112000000Y-55515000I0J150000D01*
G01*
G37*
%TD.AperFunction*%
%TO.P,U1,8*%
%TO.N,Net-(Q1-Pad3)*%
%TA.AperFunction,SMDPad,CuDef*%
G36*
G01*
X112000000Y-54245000D02*
X112000000Y-53945000D01*
G75*
G02*
X112150000Y-53795000I150000J0D01*
G01*
X113800000Y-53795000D01*
G75*
G02*
X113950000Y-53945000I0J-150000D01*
G01*
X113950000Y-54245000D01*
G75*
G02*
X113800000Y-54395000I-150000J0D01*
G01*
X112150000Y-54395000D01*
G75*
G02*
X112000000Y-54245000I0J150000D01*
G01*
G37*
%TD.AperFunction*%
%TD*%
D18*
%TO.N,GND*%
X110250000Y-55000000D03*
X111250000Y-55000000D03*
X111250000Y-56000000D03*
X110250000Y-56000000D03*
X111250000Y-57000000D03*
X110250000Y-57000000D03*
X106000000Y-31750000D03*
X105000000Y-31750000D03*
X104000000Y-31750000D03*
X103000000Y-31750000D03*
X102000000Y-31750000D03*
X101000000Y-31750000D03*
X100000000Y-31750000D03*
X99000000Y-31750000D03*
X98000000Y-31750000D03*
X97000000Y-31750000D03*
X97000000Y-30750000D03*
X98000000Y-30750000D03*
X99000000Y-30750000D03*
X100000000Y-30750000D03*
X101000000Y-30750000D03*
X102000000Y-30750000D03*
X103000000Y-30750000D03*
X104000000Y-30750000D03*
X105000000Y-30750000D03*
X106000000Y-30750000D03*
X97000000Y-49750000D03*
X98000000Y-49750000D03*
X98000000Y-50750000D03*
X97000000Y-50750000D03*
X97000000Y-51750000D03*
X98000000Y-51750000D03*
X98000000Y-52750000D03*
X97000000Y-52750000D03*
X97000000Y-53750000D03*
X98000000Y-53750000D03*
X97000000Y-33000000D03*
X98000000Y-33000000D03*
X99000000Y-33000000D03*
X100000000Y-33000000D03*
X101000000Y-33000000D03*
X102000000Y-33000000D03*
X103000000Y-33000000D03*
X104000000Y-33000000D03*
X104000000Y-34000000D03*
X103000000Y-34000000D03*
X102000000Y-34000000D03*
X101000000Y-34000000D03*
X100000000Y-34000000D03*
X99000000Y-34000000D03*
X98000000Y-34000000D03*
X97000000Y-34000000D03*
X127000000Y-50750000D03*
X128000000Y-50750000D03*
X128000000Y-51750000D03*
X129000000Y-51750000D03*
X127000000Y-51750000D03*
X127000000Y-52750000D03*
X128000000Y-52750000D03*
X129000000Y-52750000D03*
X129000000Y-53750000D03*
X128000000Y-53750000D03*
X127000000Y-53750000D03*
X107000000Y-31750000D03*
X107000000Y-30750000D03*
X108000000Y-30750000D03*
X108000000Y-31750000D03*
X109000000Y-30750000D03*
X109000000Y-31750000D03*
D19*
%TO.N,Net-(Q1-Pad3)*%
X114500000Y-54000000D03*
X114500000Y-35500000D03*
%TO.N,Net-(R2-Pad2)*%
X116500000Y-60500000D03*
X104750000Y-56750000D03*
%TD*%
D20*
%TO.N,Net-(C3-Pad1)*%
X113000000Y-57930000D02*
X112975000Y-57905000D01*
X113000000Y-59500000D02*
X113000000Y-57930000D01*
%TO.N,+180V*%
X124500000Y-51250000D02*
X124500000Y-53250000D01*
X119850000Y-51250000D02*
X117000000Y-54100000D01*
X124500000Y-51250000D02*
X119850000Y-51250000D01*
D21*
%TO.N,Net-(Q1-Pad1)*%
X108025000Y-54095000D02*
X109405000Y-54095000D01*
X109405000Y-54095000D02*
X111500000Y-52000000D01*
X111500000Y-52000000D02*
X111500000Y-35000000D01*
X113040000Y-33460000D02*
X116225000Y-33460000D01*
X111500000Y-35000000D02*
X113040000Y-33460000D01*
D20*
%TO.N,Net-(Q1-Pad3)*%
X112975000Y-54095000D02*
X114405000Y-54095000D01*
X114405000Y-54095000D02*
X114500000Y-54000000D01*
X114500000Y-36400000D02*
X112900000Y-38000000D01*
X114500000Y-35500000D02*
X114500000Y-36400000D01*
%TO.N,Net-(R2-Pad2)*%
X117000000Y-58937500D02*
X116937500Y-59000000D01*
X117000000Y-56900000D02*
X117000000Y-58937500D01*
X116937500Y-59000000D02*
X116937500Y-60062500D01*
X116937500Y-60062500D02*
X116500000Y-60500000D01*
X107910000Y-56750000D02*
X108025000Y-56635000D01*
X104750000Y-56750000D02*
X107910000Y-56750000D01*
%TO.N,Net-(R3-Pad2)*%
X100924810Y-60504810D02*
X100460000Y-60040000D01*
X113557690Y-60504810D02*
X100924810Y-60504810D01*
X115062500Y-59000000D02*
X113557690Y-60504810D01*
%TD*%
D22*
%TO.N,Net-(Q1-Pad3)*%
G36*
X118756278Y-36164133D02*
G01*
X118803988Y-36196012D01*
X118835867Y-36243722D01*
X118850000Y-36314774D01*
X118850000Y-39685226D01*
X118835867Y-39756278D01*
X118803988Y-39803988D01*
X118756278Y-39835867D01*
X118685226Y-39850000D01*
X112314774Y-39850000D01*
X112243722Y-39835867D01*
X112204000Y-39809325D01*
X112204000Y-36190675D01*
X112243722Y-36164133D01*
X112314774Y-36150000D01*
X118685226Y-36150000D01*
X118756278Y-36164133D01*
G37*
X118756278Y-36164133D02*
X118803988Y-36196012D01*
X118835867Y-36243722D01*
X118850000Y-36314774D01*
X118850000Y-39685226D01*
X118835867Y-39756278D01*
X118803988Y-39803988D01*
X118756278Y-39835867D01*
X118685226Y-39850000D01*
X112314774Y-39850000D01*
X112243722Y-39835867D01*
X112204000Y-39809325D01*
X112204000Y-36190675D01*
X112243722Y-36164133D01*
X112314774Y-36150000D01*
X118685226Y-36150000D01*
X118756278Y-36164133D01*
%TO.N,+180V*%
G36*
X130500000Y-45350000D02*
G01*
X126300000Y-45350000D01*
X126270737Y-45352882D01*
X126155932Y-45375718D01*
X126127793Y-45384254D01*
X126101859Y-45398116D01*
X126004532Y-45463148D01*
X125981802Y-45481802D01*
X125963148Y-45504532D01*
X125898116Y-45601859D01*
X125884254Y-45627792D01*
X125875718Y-45655932D01*
X125852882Y-45770737D01*
X125850000Y-45800000D01*
X125850000Y-52935226D01*
X125835867Y-53006278D01*
X125803988Y-53053988D01*
X125756278Y-53085867D01*
X125685226Y-53100000D01*
X123314774Y-53100000D01*
X123243722Y-53085867D01*
X123196012Y-53053988D01*
X123164133Y-53006278D01*
X123150000Y-52935226D01*
X123150000Y-43314774D01*
X123164133Y-43243722D01*
X123196012Y-43196012D01*
X123243722Y-43164133D01*
X123314774Y-43150000D01*
X130500000Y-43150000D01*
X130500000Y-45350000D01*
G37*
X130500000Y-45350000D02*
X126300000Y-45350000D01*
X126270737Y-45352882D01*
X126155932Y-45375718D01*
X126127793Y-45384254D01*
X126101859Y-45398116D01*
X126004532Y-45463148D01*
X125981802Y-45481802D01*
X125963148Y-45504532D01*
X125898116Y-45601859D01*
X125884254Y-45627792D01*
X125875718Y-45655932D01*
X125852882Y-45770737D01*
X125850000Y-45800000D01*
X125850000Y-52935226D01*
X125835867Y-53006278D01*
X125803988Y-53053988D01*
X125756278Y-53085867D01*
X125685226Y-53100000D01*
X123314774Y-53100000D01*
X123243722Y-53085867D01*
X123196012Y-53053988D01*
X123164133Y-53006278D01*
X123150000Y-52935226D01*
X123150000Y-43314774D01*
X123164133Y-43243722D01*
X123196012Y-43196012D01*
X123243722Y-43164133D01*
X123314774Y-43150000D01*
X130500000Y-43150000D01*
X130500000Y-45350000D01*
%TO.N,Net-(D1-Pad2)*%
G36*
X130500001Y-42350000D02*
G01*
X122800000Y-42350000D01*
X122770737Y-42352882D01*
X122655932Y-42375718D01*
X122627793Y-42384254D01*
X122601859Y-42398116D01*
X122504532Y-42463148D01*
X122481802Y-42481802D01*
X122463148Y-42504532D01*
X122398116Y-42601859D01*
X122384254Y-42627792D01*
X122375718Y-42655932D01*
X122352882Y-42770737D01*
X122350000Y-42800000D01*
X122350000Y-49185226D01*
X122335867Y-49256278D01*
X122303988Y-49303988D01*
X122256278Y-49335867D01*
X122185226Y-49350000D01*
X115814774Y-49350000D01*
X115743722Y-49335867D01*
X115696012Y-49303988D01*
X115664133Y-49256278D01*
X115650000Y-49185226D01*
X115650000Y-40814774D01*
X115664133Y-40743722D01*
X115696012Y-40696012D01*
X115743722Y-40664133D01*
X115814774Y-40650000D01*
X119200000Y-40650000D01*
X119229263Y-40647118D01*
X119344068Y-40624282D01*
X119372207Y-40615746D01*
X119398141Y-40601884D01*
X119495468Y-40536852D01*
X119518198Y-40518198D01*
X119536852Y-40495468D01*
X119601884Y-40398141D01*
X119615746Y-40372208D01*
X119624282Y-40344068D01*
X119647118Y-40229263D01*
X119650000Y-40200000D01*
X119650000Y-30500000D01*
X130500001Y-30500000D01*
X130500001Y-42350000D01*
G37*
X130500001Y-42350000D02*
X122800000Y-42350000D01*
X122770737Y-42352882D01*
X122655932Y-42375718D01*
X122627793Y-42384254D01*
X122601859Y-42398116D01*
X122504532Y-42463148D01*
X122481802Y-42481802D01*
X122463148Y-42504532D01*
X122398116Y-42601859D01*
X122384254Y-42627792D01*
X122375718Y-42655932D01*
X122352882Y-42770737D01*
X122350000Y-42800000D01*
X122350000Y-49185226D01*
X122335867Y-49256278D01*
X122303988Y-49303988D01*
X122256278Y-49335867D01*
X122185226Y-49350000D01*
X115814774Y-49350000D01*
X115743722Y-49335867D01*
X115696012Y-49303988D01*
X115664133Y-49256278D01*
X115650000Y-49185226D01*
X115650000Y-40814774D01*
X115664133Y-40743722D01*
X115696012Y-40696012D01*
X115743722Y-40664133D01*
X115814774Y-40650000D01*
X119200000Y-40650000D01*
X119229263Y-40647118D01*
X119344068Y-40624282D01*
X119372207Y-40615746D01*
X119398141Y-40601884D01*
X119495468Y-40536852D01*
X119518198Y-40518198D01*
X119536852Y-40495468D01*
X119601884Y-40398141D01*
X119615746Y-40372208D01*
X119624282Y-40344068D01*
X119647118Y-40229263D01*
X119650000Y-40200000D01*
X119650000Y-30500000D01*
X130500001Y-30500000D01*
X130500001Y-42350000D01*
%TO.N,GND*%
G36*
X110850000Y-34722632D02*
G01*
X110846442Y-34729288D01*
X110806187Y-34861992D01*
X110792594Y-35000000D01*
X110796001Y-35034591D01*
X110796001Y-42309325D01*
X110756278Y-42335867D01*
X110685226Y-42350000D01*
X106814774Y-42350000D01*
X106743722Y-42335867D01*
X106696012Y-42303988D01*
X106664133Y-42256278D01*
X106650000Y-42185226D01*
X106650000Y-34800000D01*
X106647118Y-34770737D01*
X106624282Y-34655932D01*
X106615746Y-34627793D01*
X106601884Y-34601859D01*
X106536852Y-34504532D01*
X106518198Y-34481802D01*
X106495468Y-34463148D01*
X106398141Y-34398116D01*
X106372208Y-34384254D01*
X106344068Y-34375718D01*
X106229263Y-34352882D01*
X106200000Y-34350000D01*
X100800000Y-34350000D01*
X100770737Y-34352882D01*
X100655932Y-34375718D01*
X100627793Y-34384254D01*
X100601859Y-34398116D01*
X100504532Y-34463148D01*
X100481802Y-34481802D01*
X100463148Y-34504532D01*
X100398116Y-34601859D01*
X100384254Y-34627792D01*
X100375718Y-34655932D01*
X100352882Y-34770737D01*
X100350000Y-34800000D01*
X100350000Y-38685226D01*
X100335867Y-38756278D01*
X100303988Y-38803988D01*
X100256278Y-38835867D01*
X100185226Y-38850000D01*
X96500000Y-38850000D01*
X96500000Y-30500000D01*
X110850000Y-30500000D01*
X110850000Y-34722632D01*
G37*
X110850000Y-34722632D02*
X110846442Y-34729288D01*
X110806187Y-34861992D01*
X110792594Y-35000000D01*
X110796001Y-35034591D01*
X110796001Y-42309325D01*
X110756278Y-42335867D01*
X110685226Y-42350000D01*
X106814774Y-42350000D01*
X106743722Y-42335867D01*
X106696012Y-42303988D01*
X106664133Y-42256278D01*
X106650000Y-42185226D01*
X106650000Y-34800000D01*
X106647118Y-34770737D01*
X106624282Y-34655932D01*
X106615746Y-34627793D01*
X106601884Y-34601859D01*
X106536852Y-34504532D01*
X106518198Y-34481802D01*
X106495468Y-34463148D01*
X106398141Y-34398116D01*
X106372208Y-34384254D01*
X106344068Y-34375718D01*
X106229263Y-34352882D01*
X106200000Y-34350000D01*
X100800000Y-34350000D01*
X100770737Y-34352882D01*
X100655932Y-34375718D01*
X100627793Y-34384254D01*
X100601859Y-34398116D01*
X100504532Y-34463148D01*
X100481802Y-34481802D01*
X100463148Y-34504532D01*
X100398116Y-34601859D01*
X100384254Y-34627792D01*
X100375718Y-34655932D01*
X100352882Y-34770737D01*
X100350000Y-34800000D01*
X100350000Y-38685226D01*
X100335867Y-38756278D01*
X100303988Y-38803988D01*
X100256278Y-38835867D01*
X100185226Y-38850000D01*
X96500000Y-38850000D01*
X96500000Y-30500000D01*
X110850000Y-30500000D01*
X110850000Y-34722632D01*
%TO.N,+12V*%
G36*
X105756278Y-35164133D02*
G01*
X105803988Y-35196012D01*
X105835867Y-35243722D01*
X105850000Y-35314774D01*
X105850000Y-42700000D01*
X105852882Y-42729263D01*
X105875718Y-42844068D01*
X105884254Y-42872207D01*
X105898116Y-42898141D01*
X105963148Y-42995468D01*
X105981802Y-43018198D01*
X106004532Y-43036852D01*
X106101859Y-43101884D01*
X106127792Y-43115746D01*
X106155932Y-43124282D01*
X106270737Y-43147118D01*
X106300000Y-43150000D01*
X110685226Y-43150000D01*
X110756278Y-43164133D01*
X110796001Y-43190675D01*
X110796000Y-51708393D01*
X109154395Y-53350000D01*
X108922867Y-53350000D01*
X108850000Y-53342823D01*
X107200000Y-53342823D01*
X107082521Y-53354394D01*
X106969557Y-53388661D01*
X106865448Y-53444308D01*
X106774197Y-53519197D01*
X106699308Y-53610448D01*
X106643661Y-53714557D01*
X106609394Y-53827521D01*
X106597823Y-53945000D01*
X106597823Y-54245000D01*
X106609394Y-54362479D01*
X106643661Y-54475443D01*
X106699308Y-54579552D01*
X106774197Y-54670803D01*
X106865448Y-54745692D01*
X106969557Y-54801339D01*
X107082521Y-54835606D01*
X107200000Y-54847177D01*
X108850000Y-54847177D01*
X108850000Y-55685226D01*
X108835867Y-55756278D01*
X108803988Y-55803988D01*
X108756278Y-55835867D01*
X108685226Y-55850000D01*
X107250000Y-55850000D01*
X107220737Y-55852882D01*
X107125066Y-55871912D01*
X107096927Y-55880448D01*
X107070994Y-55894309D01*
X107061177Y-55900869D01*
X106969557Y-55928661D01*
X106865448Y-55984308D01*
X106774197Y-56059197D01*
X106699308Y-56150448D01*
X106673677Y-56198400D01*
X105259060Y-56198400D01*
X105228097Y-56167437D01*
X105105258Y-56085359D01*
X104968767Y-56028822D01*
X104823869Y-56000000D01*
X104676131Y-56000000D01*
X104531233Y-56028822D01*
X104394742Y-56085359D01*
X104271903Y-56167437D01*
X104171715Y-56267625D01*
X104164133Y-56256278D01*
X104150000Y-56185226D01*
X104150000Y-48800000D01*
X104147118Y-48770737D01*
X104124282Y-48655932D01*
X104115746Y-48627793D01*
X104101884Y-48601859D01*
X104036852Y-48504532D01*
X104018198Y-48481802D01*
X103995468Y-48463148D01*
X103898141Y-48398116D01*
X103872208Y-48384254D01*
X103844068Y-48375718D01*
X103729263Y-48352882D01*
X103700000Y-48350000D01*
X96500000Y-48350000D01*
X96500000Y-39650000D01*
X99521413Y-39650000D01*
X99387660Y-39721493D01*
X99186544Y-39886544D01*
X99021493Y-40087660D01*
X98898848Y-40317111D01*
X98823324Y-40566081D01*
X98797823Y-40825000D01*
X98797823Y-42575000D01*
X98823324Y-42833919D01*
X98898848Y-43082889D01*
X99021493Y-43312340D01*
X99186544Y-43513456D01*
X99387660Y-43678507D01*
X99617111Y-43801152D01*
X99866081Y-43876676D01*
X100125000Y-43902177D01*
X101875000Y-43902177D01*
X102133919Y-43876676D01*
X102382889Y-43801152D01*
X102612340Y-43678507D01*
X102813456Y-43513456D01*
X102978507Y-43312340D01*
X103101152Y-43082889D01*
X103176676Y-42833919D01*
X103202177Y-42575000D01*
X103202177Y-40825000D01*
X103176676Y-40566081D01*
X103101152Y-40317111D01*
X102978507Y-40087660D01*
X102813456Y-39886544D01*
X102612340Y-39721493D01*
X102382889Y-39598848D01*
X102133919Y-39523324D01*
X101875000Y-39497823D01*
X101034919Y-39497823D01*
X101036852Y-39495468D01*
X101101884Y-39398141D01*
X101115746Y-39372208D01*
X101124282Y-39344068D01*
X101147118Y-39229263D01*
X101150000Y-39200000D01*
X101150000Y-35314774D01*
X101164133Y-35243722D01*
X101196012Y-35196012D01*
X101243722Y-35164133D01*
X101314774Y-35150000D01*
X105685226Y-35150000D01*
X105756278Y-35164133D01*
G37*
X105756278Y-35164133D02*
X105803988Y-35196012D01*
X105835867Y-35243722D01*
X105850000Y-35314774D01*
X105850000Y-42700000D01*
X105852882Y-42729263D01*
X105875718Y-42844068D01*
X105884254Y-42872207D01*
X105898116Y-42898141D01*
X105963148Y-42995468D01*
X105981802Y-43018198D01*
X106004532Y-43036852D01*
X106101859Y-43101884D01*
X106127792Y-43115746D01*
X106155932Y-43124282D01*
X106270737Y-43147118D01*
X106300000Y-43150000D01*
X110685226Y-43150000D01*
X110756278Y-43164133D01*
X110796001Y-43190675D01*
X110796000Y-51708393D01*
X109154395Y-53350000D01*
X108922867Y-53350000D01*
X108850000Y-53342823D01*
X107200000Y-53342823D01*
X107082521Y-53354394D01*
X106969557Y-53388661D01*
X106865448Y-53444308D01*
X106774197Y-53519197D01*
X106699308Y-53610448D01*
X106643661Y-53714557D01*
X106609394Y-53827521D01*
X106597823Y-53945000D01*
X106597823Y-54245000D01*
X106609394Y-54362479D01*
X106643661Y-54475443D01*
X106699308Y-54579552D01*
X106774197Y-54670803D01*
X106865448Y-54745692D01*
X106969557Y-54801339D01*
X107082521Y-54835606D01*
X107200000Y-54847177D01*
X108850000Y-54847177D01*
X108850000Y-55685226D01*
X108835867Y-55756278D01*
X108803988Y-55803988D01*
X108756278Y-55835867D01*
X108685226Y-55850000D01*
X107250000Y-55850000D01*
X107220737Y-55852882D01*
X107125066Y-55871912D01*
X107096927Y-55880448D01*
X107070994Y-55894309D01*
X107061177Y-55900869D01*
X106969557Y-55928661D01*
X106865448Y-55984308D01*
X106774197Y-56059197D01*
X106699308Y-56150448D01*
X106673677Y-56198400D01*
X105259060Y-56198400D01*
X105228097Y-56167437D01*
X105105258Y-56085359D01*
X104968767Y-56028822D01*
X104823869Y-56000000D01*
X104676131Y-56000000D01*
X104531233Y-56028822D01*
X104394742Y-56085359D01*
X104271903Y-56167437D01*
X104171715Y-56267625D01*
X104164133Y-56256278D01*
X104150000Y-56185226D01*
X104150000Y-48800000D01*
X104147118Y-48770737D01*
X104124282Y-48655932D01*
X104115746Y-48627793D01*
X104101884Y-48601859D01*
X104036852Y-48504532D01*
X104018198Y-48481802D01*
X103995468Y-48463148D01*
X103898141Y-48398116D01*
X103872208Y-48384254D01*
X103844068Y-48375718D01*
X103729263Y-48352882D01*
X103700000Y-48350000D01*
X96500000Y-48350000D01*
X96500000Y-39650000D01*
X99521413Y-39650000D01*
X99387660Y-39721493D01*
X99186544Y-39886544D01*
X99021493Y-40087660D01*
X98898848Y-40317111D01*
X98823324Y-40566081D01*
X98797823Y-40825000D01*
X98797823Y-42575000D01*
X98823324Y-42833919D01*
X98898848Y-43082889D01*
X99021493Y-43312340D01*
X99186544Y-43513456D01*
X99387660Y-43678507D01*
X99617111Y-43801152D01*
X99866081Y-43876676D01*
X100125000Y-43902177D01*
X101875000Y-43902177D01*
X102133919Y-43876676D01*
X102382889Y-43801152D01*
X102612340Y-43678507D01*
X102813456Y-43513456D01*
X102978507Y-43312340D01*
X103101152Y-43082889D01*
X103176676Y-42833919D01*
X103202177Y-42575000D01*
X103202177Y-40825000D01*
X103176676Y-40566081D01*
X103101152Y-40317111D01*
X102978507Y-40087660D01*
X102813456Y-39886544D01*
X102612340Y-39721493D01*
X102382889Y-39598848D01*
X102133919Y-39523324D01*
X101875000Y-39497823D01*
X101034919Y-39497823D01*
X101036852Y-39495468D01*
X101101884Y-39398141D01*
X101115746Y-39372208D01*
X101124282Y-39344068D01*
X101147118Y-39229263D01*
X101150000Y-39200000D01*
X101150000Y-35314774D01*
X101164133Y-35243722D01*
X101196012Y-35196012D01*
X101243722Y-35164133D01*
X101314774Y-35150000D01*
X105685226Y-35150000D01*
X105756278Y-35164133D01*
%TO.N,GND*%
G36*
X114756278Y-40664133D02*
G01*
X114803988Y-40696012D01*
X114835867Y-40743722D01*
X114850000Y-40814774D01*
X114850000Y-49700000D01*
X114852882Y-49729263D01*
X114875718Y-49844068D01*
X114884254Y-49872207D01*
X114898116Y-49898141D01*
X114963148Y-49995468D01*
X114981802Y-50018198D01*
X115004532Y-50036852D01*
X115101859Y-50101884D01*
X115127792Y-50115746D01*
X115155932Y-50124282D01*
X115270737Y-50147118D01*
X115300000Y-50150000D01*
X122185226Y-50150000D01*
X122256278Y-50164133D01*
X122303988Y-50196012D01*
X122335867Y-50243722D01*
X122350000Y-50314774D01*
X122350000Y-50698400D01*
X119877089Y-50698400D01*
X119850000Y-50695732D01*
X119741868Y-50706382D01*
X119637890Y-50737923D01*
X119542065Y-50789143D01*
X119458073Y-50858073D01*
X119440806Y-50879113D01*
X117297098Y-53022823D01*
X116375000Y-53022823D01*
X116238012Y-53036315D01*
X116106288Y-53076273D01*
X115984891Y-53141161D01*
X115878486Y-53228486D01*
X115791161Y-53334891D01*
X115726273Y-53456288D01*
X115686315Y-53588012D01*
X115672823Y-53725000D01*
X115672823Y-54475000D01*
X115686315Y-54611988D01*
X115726273Y-54743712D01*
X115791161Y-54865109D01*
X115878486Y-54971514D01*
X115984891Y-55058839D01*
X116106288Y-55123727D01*
X116238012Y-55163685D01*
X116375000Y-55177177D01*
X117625000Y-55177177D01*
X117761988Y-55163685D01*
X117893712Y-55123727D01*
X118015109Y-55058839D01*
X118121514Y-54971514D01*
X118208839Y-54865109D01*
X118273727Y-54743712D01*
X118313685Y-54611988D01*
X118327177Y-54475000D01*
X118327177Y-53725000D01*
X118313685Y-53588012D01*
X118308654Y-53571426D01*
X120078481Y-51801600D01*
X122350000Y-51801600D01*
X122350000Y-53450000D01*
X122352882Y-53479263D01*
X122375718Y-53594068D01*
X122384254Y-53622207D01*
X122398116Y-53648141D01*
X122463148Y-53745468D01*
X122481802Y-53768198D01*
X122504532Y-53786852D01*
X122601859Y-53851884D01*
X122627792Y-53865746D01*
X122655932Y-53874282D01*
X122770737Y-53897118D01*
X122800000Y-53900000D01*
X126200000Y-53900000D01*
X126229263Y-53897118D01*
X126344068Y-53874282D01*
X126372207Y-53865746D01*
X126398141Y-53851884D01*
X126495468Y-53786852D01*
X126518198Y-53768198D01*
X126536852Y-53745468D01*
X126601884Y-53648141D01*
X126615746Y-53622208D01*
X126624282Y-53594068D01*
X126647118Y-53479263D01*
X126650000Y-53450000D01*
X126650000Y-46314774D01*
X126664133Y-46243722D01*
X126696012Y-46196012D01*
X126743722Y-46164133D01*
X126814774Y-46150000D01*
X130500001Y-46150000D01*
X130500000Y-61500000D01*
X96500000Y-61500000D01*
X96500000Y-59933629D01*
X99380000Y-59933629D01*
X99380000Y-60146371D01*
X99421503Y-60355024D01*
X99502916Y-60551572D01*
X99621109Y-60728460D01*
X99771540Y-60878891D01*
X99948428Y-60997084D01*
X100144976Y-61078497D01*
X100353629Y-61120000D01*
X100566371Y-61120000D01*
X100775024Y-61078497D01*
X100841673Y-61050890D01*
X100924810Y-61059078D01*
X100951899Y-61056410D01*
X113530601Y-61056410D01*
X113557690Y-61059078D01*
X113665822Y-61048428D01*
X113681678Y-61043618D01*
X113769799Y-61016887D01*
X113865625Y-60965667D01*
X113949617Y-60896737D01*
X113966893Y-60875686D01*
X114701911Y-60140669D01*
X114818750Y-60152177D01*
X115306250Y-60152177D01*
X115442019Y-60138805D01*
X115572570Y-60099203D01*
X115692886Y-60034892D01*
X115798345Y-59948345D01*
X115884892Y-59842886D01*
X115949203Y-59722570D01*
X115988805Y-59592019D01*
X116000000Y-59478354D01*
X116011195Y-59592019D01*
X116050797Y-59722570D01*
X116115108Y-59842886D01*
X116121613Y-59850813D01*
X116021903Y-59917437D01*
X115917437Y-60021903D01*
X115835359Y-60144742D01*
X115778822Y-60281233D01*
X115750000Y-60426131D01*
X115750000Y-60573869D01*
X115778822Y-60718767D01*
X115835359Y-60855258D01*
X115917437Y-60978097D01*
X116021903Y-61082563D01*
X116144742Y-61164641D01*
X116281233Y-61221178D01*
X116426131Y-61250000D01*
X116573869Y-61250000D01*
X116718767Y-61221178D01*
X116855258Y-61164641D01*
X116978097Y-61082563D01*
X117082563Y-60978097D01*
X117164641Y-60855258D01*
X117221178Y-60718767D01*
X117250000Y-60573869D01*
X117250000Y-60530080D01*
X117308381Y-60471699D01*
X117329427Y-60454427D01*
X117398357Y-60370435D01*
X117449577Y-60274609D01*
X117481118Y-60170632D01*
X117489100Y-60089589D01*
X117489100Y-60089587D01*
X117490408Y-60076305D01*
X117567886Y-60034892D01*
X117673345Y-59948345D01*
X117759892Y-59842886D01*
X117824203Y-59722570D01*
X117863805Y-59592019D01*
X117877177Y-59456250D01*
X117877177Y-58543750D01*
X117863805Y-58407981D01*
X117824203Y-58277430D01*
X117759892Y-58157114D01*
X117673345Y-58051655D01*
X117582592Y-57977177D01*
X117625000Y-57977177D01*
X117761988Y-57963685D01*
X117893712Y-57923727D01*
X118015109Y-57858839D01*
X118121514Y-57771514D01*
X118208839Y-57665109D01*
X118273727Y-57543712D01*
X118313685Y-57411988D01*
X118327177Y-57275000D01*
X118327177Y-56525000D01*
X118313685Y-56388012D01*
X118273727Y-56256288D01*
X118208839Y-56134891D01*
X118121514Y-56028486D01*
X118015109Y-55941161D01*
X117893712Y-55876273D01*
X117761988Y-55836315D01*
X117625000Y-55822823D01*
X116375000Y-55822823D01*
X116238012Y-55836315D01*
X116106288Y-55876273D01*
X115984891Y-55941161D01*
X115878486Y-56028486D01*
X115791161Y-56134891D01*
X115726273Y-56256288D01*
X115686315Y-56388012D01*
X115672823Y-56525000D01*
X115672823Y-57275000D01*
X115686315Y-57411988D01*
X115726273Y-57543712D01*
X115791161Y-57665109D01*
X115878486Y-57771514D01*
X115984891Y-57858839D01*
X116106288Y-57923727D01*
X116238012Y-57963685D01*
X116301258Y-57969914D01*
X116201655Y-58051655D01*
X116115108Y-58157114D01*
X116050797Y-58277430D01*
X116011195Y-58407981D01*
X116000000Y-58521646D01*
X115988805Y-58407981D01*
X115949203Y-58277430D01*
X115884892Y-58157114D01*
X115798345Y-58051655D01*
X115692886Y-57965108D01*
X115572570Y-57900797D01*
X115442019Y-57861195D01*
X115306250Y-57847823D01*
X114818750Y-57847823D01*
X114682981Y-57861195D01*
X114552430Y-57900797D01*
X114432114Y-57965108D01*
X114402177Y-57989676D01*
X114402177Y-57755000D01*
X114390606Y-57637521D01*
X114356339Y-57524557D01*
X114300692Y-57420448D01*
X114225803Y-57329197D01*
X114134552Y-57254308D01*
X114030443Y-57198661D01*
X113917479Y-57164394D01*
X113800000Y-57152823D01*
X112150000Y-57152823D01*
X112032521Y-57164394D01*
X111919557Y-57198661D01*
X111815448Y-57254308D01*
X111724197Y-57329197D01*
X111649308Y-57420448D01*
X111593661Y-57524557D01*
X111559394Y-57637521D01*
X111547823Y-57755000D01*
X111547823Y-58055000D01*
X111559394Y-58172479D01*
X111593661Y-58285443D01*
X111649308Y-58389552D01*
X111724197Y-58480803D01*
X111815448Y-58555692D01*
X111919557Y-58611339D01*
X112032521Y-58645606D01*
X112150000Y-58657177D01*
X112177574Y-58657177D01*
X112113297Y-58777430D01*
X112073695Y-58907981D01*
X112060323Y-59043750D01*
X112060323Y-59953210D01*
X101540000Y-59953210D01*
X101540000Y-59933629D01*
X101498497Y-59724976D01*
X101417084Y-59528428D01*
X101298891Y-59351540D01*
X101148460Y-59201109D01*
X100971572Y-59082916D01*
X100775024Y-59001503D01*
X100566371Y-58960000D01*
X100353629Y-58960000D01*
X100144976Y-59001503D01*
X99948428Y-59082916D01*
X99771540Y-59201109D01*
X99621109Y-59351540D01*
X99502916Y-59528428D01*
X99421503Y-59724976D01*
X99380000Y-59933629D01*
X96500000Y-59933629D01*
X96500000Y-49150000D01*
X103185226Y-49150000D01*
X103256278Y-49164133D01*
X103303988Y-49196012D01*
X103335867Y-49243722D01*
X103350000Y-49314774D01*
X103350000Y-56475991D01*
X103315024Y-56461503D01*
X103106371Y-56420000D01*
X102893629Y-56420000D01*
X102684976Y-56461503D01*
X102488428Y-56542916D01*
X102311540Y-56661109D01*
X102161109Y-56811540D01*
X102042916Y-56988428D01*
X101961503Y-57184976D01*
X101920000Y-57393629D01*
X101920000Y-57606371D01*
X101961503Y-57815024D01*
X102042916Y-58011572D01*
X102161109Y-58188460D01*
X102311540Y-58338891D01*
X102488428Y-58457084D01*
X102684976Y-58538497D01*
X102893629Y-58580000D01*
X103106371Y-58580000D01*
X103315024Y-58538497D01*
X103511572Y-58457084D01*
X103688460Y-58338891D01*
X103838891Y-58188460D01*
X103957084Y-58011572D01*
X104038497Y-57815024D01*
X104080000Y-57606371D01*
X104080000Y-57393629D01*
X104038497Y-57184976D01*
X104024009Y-57150000D01*
X104115255Y-57150000D01*
X104167437Y-57228097D01*
X104271903Y-57332563D01*
X104394742Y-57414641D01*
X104531233Y-57471178D01*
X104676131Y-57500000D01*
X104823869Y-57500000D01*
X104968767Y-57471178D01*
X105105258Y-57414641D01*
X105228097Y-57332563D01*
X105259060Y-57301600D01*
X106895210Y-57301600D01*
X106969557Y-57341339D01*
X107082521Y-57375606D01*
X107200000Y-57387177D01*
X108850000Y-57387177D01*
X108967479Y-57375606D01*
X109080443Y-57341339D01*
X109184552Y-57285692D01*
X109275803Y-57210803D01*
X109347719Y-57123174D01*
X109372207Y-57115746D01*
X109398141Y-57101884D01*
X109495468Y-57036852D01*
X109518198Y-57018198D01*
X109536852Y-56995468D01*
X109601884Y-56898141D01*
X109615746Y-56872208D01*
X109624282Y-56844068D01*
X109647118Y-56729263D01*
X109650000Y-56700000D01*
X109650000Y-54756358D01*
X109675713Y-54748558D01*
X109798014Y-54683187D01*
X109905212Y-54595212D01*
X109927266Y-54568339D01*
X110550605Y-53945000D01*
X111547823Y-53945000D01*
X111547823Y-54245000D01*
X111559394Y-54362479D01*
X111593661Y-54475443D01*
X111649308Y-54579552D01*
X111724197Y-54670803D01*
X111815448Y-54745692D01*
X111919557Y-54801339D01*
X112032521Y-54835606D01*
X112150000Y-54847177D01*
X113800000Y-54847177D01*
X113917479Y-54835606D01*
X114030443Y-54801339D01*
X114134552Y-54745692D01*
X114203603Y-54689022D01*
X114281233Y-54721178D01*
X114426131Y-54750000D01*
X114573869Y-54750000D01*
X114718767Y-54721178D01*
X114855258Y-54664641D01*
X114978097Y-54582563D01*
X115082563Y-54478097D01*
X115164641Y-54355258D01*
X115221178Y-54218767D01*
X115250000Y-54073869D01*
X115250000Y-53926131D01*
X115221178Y-53781233D01*
X115164641Y-53644742D01*
X115082563Y-53521903D01*
X114978097Y-53417437D01*
X114855258Y-53335359D01*
X114718767Y-53278822D01*
X114573869Y-53250000D01*
X114426131Y-53250000D01*
X114281233Y-53278822D01*
X114144742Y-53335359D01*
X114049625Y-53398914D01*
X114030443Y-53388661D01*
X113917479Y-53354394D01*
X113800000Y-53342823D01*
X112150000Y-53342823D01*
X112032521Y-53354394D01*
X111919557Y-53388661D01*
X111815448Y-53444308D01*
X111724197Y-53519197D01*
X111649308Y-53610448D01*
X111593661Y-53714557D01*
X111559394Y-53827521D01*
X111547823Y-53945000D01*
X110550605Y-53945000D01*
X111973354Y-52522253D01*
X112000211Y-52500212D01*
X112088187Y-52393014D01*
X112153558Y-52270713D01*
X112193813Y-52138008D01*
X112204000Y-52034581D01*
X112204000Y-52034580D01*
X112207406Y-52000001D01*
X112204000Y-51965420D01*
X112204000Y-40690675D01*
X112243722Y-40664133D01*
X112314774Y-40650000D01*
X114685226Y-40650000D01*
X114756278Y-40664133D01*
G37*
X114756278Y-40664133D02*
X114803988Y-40696012D01*
X114835867Y-40743722D01*
X114850000Y-40814774D01*
X114850000Y-49700000D01*
X114852882Y-49729263D01*
X114875718Y-49844068D01*
X114884254Y-49872207D01*
X114898116Y-49898141D01*
X114963148Y-49995468D01*
X114981802Y-50018198D01*
X115004532Y-50036852D01*
X115101859Y-50101884D01*
X115127792Y-50115746D01*
X115155932Y-50124282D01*
X115270737Y-50147118D01*
X115300000Y-50150000D01*
X122185226Y-50150000D01*
X122256278Y-50164133D01*
X122303988Y-50196012D01*
X122335867Y-50243722D01*
X122350000Y-50314774D01*
X122350000Y-50698400D01*
X119877089Y-50698400D01*
X119850000Y-50695732D01*
X119741868Y-50706382D01*
X119637890Y-50737923D01*
X119542065Y-50789143D01*
X119458073Y-50858073D01*
X119440806Y-50879113D01*
X117297098Y-53022823D01*
X116375000Y-53022823D01*
X116238012Y-53036315D01*
X116106288Y-53076273D01*
X115984891Y-53141161D01*
X115878486Y-53228486D01*
X115791161Y-53334891D01*
X115726273Y-53456288D01*
X115686315Y-53588012D01*
X115672823Y-53725000D01*
X115672823Y-54475000D01*
X115686315Y-54611988D01*
X115726273Y-54743712D01*
X115791161Y-54865109D01*
X115878486Y-54971514D01*
X115984891Y-55058839D01*
X116106288Y-55123727D01*
X116238012Y-55163685D01*
X116375000Y-55177177D01*
X117625000Y-55177177D01*
X117761988Y-55163685D01*
X117893712Y-55123727D01*
X118015109Y-55058839D01*
X118121514Y-54971514D01*
X118208839Y-54865109D01*
X118273727Y-54743712D01*
X118313685Y-54611988D01*
X118327177Y-54475000D01*
X118327177Y-53725000D01*
X118313685Y-53588012D01*
X118308654Y-53571426D01*
X120078481Y-51801600D01*
X122350000Y-51801600D01*
X122350000Y-53450000D01*
X122352882Y-53479263D01*
X122375718Y-53594068D01*
X122384254Y-53622207D01*
X122398116Y-53648141D01*
X122463148Y-53745468D01*
X122481802Y-53768198D01*
X122504532Y-53786852D01*
X122601859Y-53851884D01*
X122627792Y-53865746D01*
X122655932Y-53874282D01*
X122770737Y-53897118D01*
X122800000Y-53900000D01*
X126200000Y-53900000D01*
X126229263Y-53897118D01*
X126344068Y-53874282D01*
X126372207Y-53865746D01*
X126398141Y-53851884D01*
X126495468Y-53786852D01*
X126518198Y-53768198D01*
X126536852Y-53745468D01*
X126601884Y-53648141D01*
X126615746Y-53622208D01*
X126624282Y-53594068D01*
X126647118Y-53479263D01*
X126650000Y-53450000D01*
X126650000Y-46314774D01*
X126664133Y-46243722D01*
X126696012Y-46196012D01*
X126743722Y-46164133D01*
X126814774Y-46150000D01*
X130500001Y-46150000D01*
X130500000Y-61500000D01*
X96500000Y-61500000D01*
X96500000Y-59933629D01*
X99380000Y-59933629D01*
X99380000Y-60146371D01*
X99421503Y-60355024D01*
X99502916Y-60551572D01*
X99621109Y-60728460D01*
X99771540Y-60878891D01*
X99948428Y-60997084D01*
X100144976Y-61078497D01*
X100353629Y-61120000D01*
X100566371Y-61120000D01*
X100775024Y-61078497D01*
X100841673Y-61050890D01*
X100924810Y-61059078D01*
X100951899Y-61056410D01*
X113530601Y-61056410D01*
X113557690Y-61059078D01*
X113665822Y-61048428D01*
X113681678Y-61043618D01*
X113769799Y-61016887D01*
X113865625Y-60965667D01*
X113949617Y-60896737D01*
X113966893Y-60875686D01*
X114701911Y-60140669D01*
X114818750Y-60152177D01*
X115306250Y-60152177D01*
X115442019Y-60138805D01*
X115572570Y-60099203D01*
X115692886Y-60034892D01*
X115798345Y-59948345D01*
X115884892Y-59842886D01*
X115949203Y-59722570D01*
X115988805Y-59592019D01*
X116000000Y-59478354D01*
X116011195Y-59592019D01*
X116050797Y-59722570D01*
X116115108Y-59842886D01*
X116121613Y-59850813D01*
X116021903Y-59917437D01*
X115917437Y-60021903D01*
X115835359Y-60144742D01*
X115778822Y-60281233D01*
X115750000Y-60426131D01*
X115750000Y-60573869D01*
X115778822Y-60718767D01*
X115835359Y-60855258D01*
X115917437Y-60978097D01*
X116021903Y-61082563D01*
X116144742Y-61164641D01*
X116281233Y-61221178D01*
X116426131Y-61250000D01*
X116573869Y-61250000D01*
X116718767Y-61221178D01*
X116855258Y-61164641D01*
X116978097Y-61082563D01*
X117082563Y-60978097D01*
X117164641Y-60855258D01*
X117221178Y-60718767D01*
X117250000Y-60573869D01*
X117250000Y-60530080D01*
X117308381Y-60471699D01*
X117329427Y-60454427D01*
X117398357Y-60370435D01*
X117449577Y-60274609D01*
X117481118Y-60170632D01*
X117489100Y-60089589D01*
X117489100Y-60089587D01*
X117490408Y-60076305D01*
X117567886Y-60034892D01*
X117673345Y-59948345D01*
X117759892Y-59842886D01*
X117824203Y-59722570D01*
X117863805Y-59592019D01*
X117877177Y-59456250D01*
X117877177Y-58543750D01*
X117863805Y-58407981D01*
X117824203Y-58277430D01*
X117759892Y-58157114D01*
X117673345Y-58051655D01*
X117582592Y-57977177D01*
X117625000Y-57977177D01*
X117761988Y-57963685D01*
X117893712Y-57923727D01*
X118015109Y-57858839D01*
X118121514Y-57771514D01*
X118208839Y-57665109D01*
X118273727Y-57543712D01*
X118313685Y-57411988D01*
X118327177Y-57275000D01*
X118327177Y-56525000D01*
X118313685Y-56388012D01*
X118273727Y-56256288D01*
X118208839Y-56134891D01*
X118121514Y-56028486D01*
X118015109Y-55941161D01*
X117893712Y-55876273D01*
X117761988Y-55836315D01*
X117625000Y-55822823D01*
X116375000Y-55822823D01*
X116238012Y-55836315D01*
X116106288Y-55876273D01*
X115984891Y-55941161D01*
X115878486Y-56028486D01*
X115791161Y-56134891D01*
X115726273Y-56256288D01*
X115686315Y-56388012D01*
X115672823Y-56525000D01*
X115672823Y-57275000D01*
X115686315Y-57411988D01*
X115726273Y-57543712D01*
X115791161Y-57665109D01*
X115878486Y-57771514D01*
X115984891Y-57858839D01*
X116106288Y-57923727D01*
X116238012Y-57963685D01*
X116301258Y-57969914D01*
X116201655Y-58051655D01*
X116115108Y-58157114D01*
X116050797Y-58277430D01*
X116011195Y-58407981D01*
X116000000Y-58521646D01*
X115988805Y-58407981D01*
X115949203Y-58277430D01*
X115884892Y-58157114D01*
X115798345Y-58051655D01*
X115692886Y-57965108D01*
X115572570Y-57900797D01*
X115442019Y-57861195D01*
X115306250Y-57847823D01*
X114818750Y-57847823D01*
X114682981Y-57861195D01*
X114552430Y-57900797D01*
X114432114Y-57965108D01*
X114402177Y-57989676D01*
X114402177Y-57755000D01*
X114390606Y-57637521D01*
X114356339Y-57524557D01*
X114300692Y-57420448D01*
X114225803Y-57329197D01*
X114134552Y-57254308D01*
X114030443Y-57198661D01*
X113917479Y-57164394D01*
X113800000Y-57152823D01*
X112150000Y-57152823D01*
X112032521Y-57164394D01*
X111919557Y-57198661D01*
X111815448Y-57254308D01*
X111724197Y-57329197D01*
X111649308Y-57420448D01*
X111593661Y-57524557D01*
X111559394Y-57637521D01*
X111547823Y-57755000D01*
X111547823Y-58055000D01*
X111559394Y-58172479D01*
X111593661Y-58285443D01*
X111649308Y-58389552D01*
X111724197Y-58480803D01*
X111815448Y-58555692D01*
X111919557Y-58611339D01*
X112032521Y-58645606D01*
X112150000Y-58657177D01*
X112177574Y-58657177D01*
X112113297Y-58777430D01*
X112073695Y-58907981D01*
X112060323Y-59043750D01*
X112060323Y-59953210D01*
X101540000Y-59953210D01*
X101540000Y-59933629D01*
X101498497Y-59724976D01*
X101417084Y-59528428D01*
X101298891Y-59351540D01*
X101148460Y-59201109D01*
X100971572Y-59082916D01*
X100775024Y-59001503D01*
X100566371Y-58960000D01*
X100353629Y-58960000D01*
X100144976Y-59001503D01*
X99948428Y-59082916D01*
X99771540Y-59201109D01*
X99621109Y-59351540D01*
X99502916Y-59528428D01*
X99421503Y-59724976D01*
X99380000Y-59933629D01*
X96500000Y-59933629D01*
X96500000Y-49150000D01*
X103185226Y-49150000D01*
X103256278Y-49164133D01*
X103303988Y-49196012D01*
X103335867Y-49243722D01*
X103350000Y-49314774D01*
X103350000Y-56475991D01*
X103315024Y-56461503D01*
X103106371Y-56420000D01*
X102893629Y-56420000D01*
X102684976Y-56461503D01*
X102488428Y-56542916D01*
X102311540Y-56661109D01*
X102161109Y-56811540D01*
X102042916Y-56988428D01*
X101961503Y-57184976D01*
X101920000Y-57393629D01*
X101920000Y-57606371D01*
X101961503Y-57815024D01*
X102042916Y-58011572D01*
X102161109Y-58188460D01*
X102311540Y-58338891D01*
X102488428Y-58457084D01*
X102684976Y-58538497D01*
X102893629Y-58580000D01*
X103106371Y-58580000D01*
X103315024Y-58538497D01*
X103511572Y-58457084D01*
X103688460Y-58338891D01*
X103838891Y-58188460D01*
X103957084Y-58011572D01*
X104038497Y-57815024D01*
X104080000Y-57606371D01*
X104080000Y-57393629D01*
X104038497Y-57184976D01*
X104024009Y-57150000D01*
X104115255Y-57150000D01*
X104167437Y-57228097D01*
X104271903Y-57332563D01*
X104394742Y-57414641D01*
X104531233Y-57471178D01*
X104676131Y-57500000D01*
X104823869Y-57500000D01*
X104968767Y-57471178D01*
X105105258Y-57414641D01*
X105228097Y-57332563D01*
X105259060Y-57301600D01*
X106895210Y-57301600D01*
X106969557Y-57341339D01*
X107082521Y-57375606D01*
X107200000Y-57387177D01*
X108850000Y-57387177D01*
X108967479Y-57375606D01*
X109080443Y-57341339D01*
X109184552Y-57285692D01*
X109275803Y-57210803D01*
X109347719Y-57123174D01*
X109372207Y-57115746D01*
X109398141Y-57101884D01*
X109495468Y-57036852D01*
X109518198Y-57018198D01*
X109536852Y-56995468D01*
X109601884Y-56898141D01*
X109615746Y-56872208D01*
X109624282Y-56844068D01*
X109647118Y-56729263D01*
X109650000Y-56700000D01*
X109650000Y-54756358D01*
X109675713Y-54748558D01*
X109798014Y-54683187D01*
X109905212Y-54595212D01*
X109927266Y-54568339D01*
X110550605Y-53945000D01*
X111547823Y-53945000D01*
X111547823Y-54245000D01*
X111559394Y-54362479D01*
X111593661Y-54475443D01*
X111649308Y-54579552D01*
X111724197Y-54670803D01*
X111815448Y-54745692D01*
X111919557Y-54801339D01*
X112032521Y-54835606D01*
X112150000Y-54847177D01*
X113800000Y-54847177D01*
X113917479Y-54835606D01*
X114030443Y-54801339D01*
X114134552Y-54745692D01*
X114203603Y-54689022D01*
X114281233Y-54721178D01*
X114426131Y-54750000D01*
X114573869Y-54750000D01*
X114718767Y-54721178D01*
X114855258Y-54664641D01*
X114978097Y-54582563D01*
X115082563Y-54478097D01*
X115164641Y-54355258D01*
X115221178Y-54218767D01*
X115250000Y-54073869D01*
X115250000Y-53926131D01*
X115221178Y-53781233D01*
X115164641Y-53644742D01*
X115082563Y-53521903D01*
X114978097Y-53417437D01*
X114855258Y-53335359D01*
X114718767Y-53278822D01*
X114573869Y-53250000D01*
X114426131Y-53250000D01*
X114281233Y-53278822D01*
X114144742Y-53335359D01*
X114049625Y-53398914D01*
X114030443Y-53388661D01*
X113917479Y-53354394D01*
X113800000Y-53342823D01*
X112150000Y-53342823D01*
X112032521Y-53354394D01*
X111919557Y-53388661D01*
X111815448Y-53444308D01*
X111724197Y-53519197D01*
X111649308Y-53610448D01*
X111593661Y-53714557D01*
X111559394Y-53827521D01*
X111547823Y-53945000D01*
X110550605Y-53945000D01*
X111973354Y-52522253D01*
X112000211Y-52500212D01*
X112088187Y-52393014D01*
X112153558Y-52270713D01*
X112193813Y-52138008D01*
X112204000Y-52034581D01*
X112204000Y-52034580D01*
X112207406Y-52000001D01*
X112204000Y-51965420D01*
X112204000Y-40690675D01*
X112243722Y-40664133D01*
X112314774Y-40650000D01*
X114685226Y-40650000D01*
X114756278Y-40664133D01*
%TD*%
M02*
