%TF.GenerationSoftware,KiCad,Pcbnew,(5.1.5-131-g305ed0b65)-1*%
%TF.CreationDate,2020-04-22T15:18:06+08:00*%
%TF.ProjectId,NixieController,4e697869-6543-46f6-9e74-726f6c6c6572,rev?*%
%TF.SameCoordinates,Original*%
%TF.FileFunction,Soldermask,Bot*%
%TF.FilePolarity,Negative*%
%FSLAX46Y46*%
G04 Gerber Fmt 4.6, Leading zero omitted, Abs format (unit mm)*
G04 Created by KiCad (PCBNEW (5.1.5-131-g305ed0b65)-1) date 2020-04-22 15:18:06*
%MOMM*%
%LPD*%
G01*
G04 APERTURE LIST*
%ADD10R,1.800000X1.800000*%
%ADD11O,1.800000X1.800000*%
%ADD12R,3.600000X3.600000*%
%ADD13C,1.360000*%
%ADD14R,3.300000X3.300000*%
%ADD15O,3.300000X3.300000*%
G04 APERTURE END LIST*
D10*
%TO.C,J10*%
X-48000000Y-50000000D03*
D11*
X-45460000Y-50000000D03*
%TD*%
%TO.C,J2*%
X-35060000Y-78000000D03*
X-37600000Y-78000000D03*
X-40140000Y-78000000D03*
X-42680000Y-78000000D03*
X-45220000Y-78000000D03*
X-47760000Y-78000000D03*
X-50300000Y-78000000D03*
X-52840000Y-78000000D03*
X-55380000Y-78000000D03*
X-57920000Y-78000000D03*
X-60460000Y-78000000D03*
D10*
X-63000000Y-78000000D03*
%TD*%
D12*
%TO.C,J7*%
X71500000Y-52000000D03*
G36*
G01*
X70475000Y-44450000D02*
X72525000Y-44450000D01*
G75*
G02*
X73300000Y-45225000I0J-775000D01*
G01*
X73300000Y-46775000D01*
G75*
G02*
X72525000Y-47550000I-775000J0D01*
G01*
X70475000Y-47550000D01*
G75*
G02*
X69700000Y-46775000I0J775000D01*
G01*
X69700000Y-45225000D01*
G75*
G02*
X70475000Y-44450000I775000J0D01*
G01*
G37*
G36*
G01*
X65900000Y-47200000D02*
X67700000Y-47200000D01*
G75*
G02*
X68600000Y-48100000I0J-900000D01*
G01*
X68600000Y-49900000D01*
G75*
G02*
X67700000Y-50800000I-900000J0D01*
G01*
X65900000Y-50800000D01*
G75*
G02*
X65000000Y-49900000I0J900000D01*
G01*
X65000000Y-48100000D01*
G75*
G02*
X65900000Y-47200000I900000J0D01*
G01*
G37*
%TD*%
D13*
%TO.C,RV1*%
X66920000Y-71000000D03*
X69460000Y-73540000D03*
X72000000Y-71000000D03*
%TD*%
D14*
%TO.C,D1*%
X46000000Y-58000000D03*
D15*
X46000000Y-45300000D03*
%TD*%
D10*
%TO.C,J8*%
X-48000000Y-44000000D03*
D11*
X-45460000Y-44000000D03*
%TD*%
%TO.C,J9*%
X-45460000Y-47000000D03*
D10*
X-48000000Y-47000000D03*
%TD*%
%TO.C,J1*%
X-63000000Y-81000000D03*
D11*
X-60460000Y-81000000D03*
X-57920000Y-81000000D03*
X-55380000Y-81000000D03*
X-52840000Y-81000000D03*
X-50300000Y-81000000D03*
X-47760000Y-81000000D03*
X-45220000Y-81000000D03*
X-42680000Y-81000000D03*
X-40140000Y-81000000D03*
X-37600000Y-81000000D03*
X-35060000Y-81000000D03*
%TD*%
%TO.C,J3*%
X-2060000Y-81000000D03*
X-4600000Y-81000000D03*
X-7140000Y-81000000D03*
X-9680000Y-81000000D03*
X-12220000Y-81000000D03*
X-14760000Y-81000000D03*
X-17300000Y-81000000D03*
X-19840000Y-81000000D03*
X-22380000Y-81000000D03*
X-24920000Y-81000000D03*
X-27460000Y-81000000D03*
D10*
X-30000000Y-81000000D03*
%TD*%
%TO.C,J4*%
X-30000000Y-78000000D03*
D11*
X-27460000Y-78000000D03*
X-24920000Y-78000000D03*
X-22380000Y-78000000D03*
X-19840000Y-78000000D03*
X-17300000Y-78000000D03*
X-14760000Y-78000000D03*
X-12220000Y-78000000D03*
X-9680000Y-78000000D03*
X-7140000Y-78000000D03*
X-4600000Y-78000000D03*
X-2060000Y-78000000D03*
%TD*%
D10*
%TO.C,J5*%
X3000000Y-81000000D03*
D11*
X5540000Y-81000000D03*
X8080000Y-81000000D03*
X10620000Y-81000000D03*
X13160000Y-81000000D03*
X15700000Y-81000000D03*
X18240000Y-81000000D03*
X20780000Y-81000000D03*
X23320000Y-81000000D03*
X25860000Y-81000000D03*
X28400000Y-81000000D03*
X30940000Y-81000000D03*
%TD*%
D10*
%TO.C,J6*%
X3000000Y-78000000D03*
D11*
X5540000Y-78000000D03*
X8080000Y-78000000D03*
X10620000Y-78000000D03*
X13160000Y-78000000D03*
X15700000Y-78000000D03*
X18240000Y-78000000D03*
X20780000Y-78000000D03*
X23320000Y-78000000D03*
X25860000Y-78000000D03*
X28400000Y-78000000D03*
X30940000Y-78000000D03*
%TD*%
%TO.C,J11*%
X-29000000Y-46000000D03*
D10*
X-29000000Y-48540000D03*
%TD*%
M02*
