%TF.GenerationSoftware,KiCad,Pcbnew,(5.1.5-131-g305ed0b65)-1*%
%TF.CreationDate,2020-04-22T15:18:06+08:00*%
%TF.ProjectId,NixieController,4e697869-6543-46f6-9e74-726f6c6c6572,rev?*%
%TF.SameCoordinates,Original*%
%TF.FileFunction,Copper,L1,Top*%
%TF.FilePolarity,Positive*%
%FSLAX46Y46*%
G04 Gerber Fmt 4.6, Leading zero omitted, Abs format (unit mm)*
G04 Created by KiCad (PCBNEW (5.1.5-131-g305ed0b65)-1) date 2020-04-22 15:18:06*
%MOMM*%
%LPD*%
G01*
G04 APERTURE LIST*
%TA.AperFunction,ComponentPad*%
%ADD10R,1.700000X1.700000*%
%TD*%
%TA.AperFunction,ComponentPad*%
%ADD11O,1.700000X1.700000*%
%TD*%
%TA.AperFunction,SMDPad,CuDef*%
%ADD12R,2.500000X2.300000*%
%TD*%
%TA.AperFunction,ComponentPad*%
%ADD13R,3.500000X3.500000*%
%TD*%
%TA.AperFunction,SMDPad,CuDef*%
%ADD14R,2.900000X5.400000*%
%TD*%
%TA.AperFunction,SMDPad,CuDef*%
%ADD15R,4.600000X1.100000*%
%TD*%
%TA.AperFunction,SMDPad,CuDef*%
%ADD16R,9.400000X10.800000*%
%TD*%
%TA.AperFunction,ComponentPad*%
%ADD17C,1.260000*%
%TD*%
%TA.AperFunction,ComponentPad*%
%ADD18R,3.200000X3.200000*%
%TD*%
%TA.AperFunction,ComponentPad*%
%ADD19O,3.200000X3.200000*%
%TD*%
%TA.AperFunction,SMDPad,CuDef*%
%ADD20R,0.800000X0.900000*%
%TD*%
%TA.AperFunction,SMDPad,CuDef*%
%ADD21R,1.100000X4.600000*%
%TD*%
%TA.AperFunction,SMDPad,CuDef*%
%ADD22R,10.800000X9.400000*%
%TD*%
%TA.AperFunction,SMDPad,CuDef*%
%ADD23R,1.800000X1.000000*%
%TD*%
%TA.AperFunction,ViaPad*%
%ADD24C,0.800000*%
%TD*%
%TA.AperFunction,ViaPad*%
%ADD25C,0.500000*%
%TD*%
%TA.AperFunction,Conductor*%
%ADD26C,1.000000*%
%TD*%
%TA.AperFunction,Conductor*%
%ADD27C,0.152400*%
%TD*%
%TA.AperFunction,Conductor*%
%ADD28C,2.000000*%
%TD*%
%TA.AperFunction,Conductor*%
%ADD29C,0.254000*%
%TD*%
%TA.AperFunction,Conductor*%
%ADD30C,0.250000*%
%TD*%
G04 APERTURE END LIST*
D10*
%TO.P,J10,1*%
%TO.N,+5V*%
X-48000000Y-50000000D03*
D11*
%TO.P,J10,2*%
%TO.N,GND*%
X-45460000Y-50000000D03*
%TD*%
%TO.P,J2,12*%
%TO.N,GND*%
X-35060000Y-78000000D03*
%TO.P,J2,11*%
%TO.N,+180V*%
X-37600000Y-78000000D03*
%TO.P,J2,10*%
%TO.N,/D19*%
X-40140000Y-78000000D03*
%TO.P,J2,9*%
%TO.N,/D18*%
X-42680000Y-78000000D03*
%TO.P,J2,8*%
%TO.N,/D17*%
X-45220000Y-78000000D03*
%TO.P,J2,7*%
%TO.N,/D16*%
X-47760000Y-78000000D03*
%TO.P,J2,6*%
%TO.N,/D15*%
X-50300000Y-78000000D03*
%TO.P,J2,5*%
%TO.N,/D14*%
X-52840000Y-78000000D03*
%TO.P,J2,4*%
%TO.N,/D13*%
X-55380000Y-78000000D03*
%TO.P,J2,3*%
%TO.N,/D12*%
X-57920000Y-78000000D03*
%TO.P,J2,2*%
%TO.N,/D11*%
X-60460000Y-78000000D03*
D10*
%TO.P,J2,1*%
%TO.N,/D10*%
X-63000000Y-78000000D03*
%TD*%
%TO.P,C3,1*%
%TO.N,+12V*%
%TA.AperFunction,SMDPad,CuDef*%
G36*
G01*
X69975000Y-56850000D02*
X72025000Y-56850000D01*
G75*
G02*
X72275000Y-57100000I0J-250000D01*
G01*
X72275000Y-58675000D01*
G75*
G02*
X72025000Y-58925000I-250000J0D01*
G01*
X69975000Y-58925000D01*
G75*
G02*
X69725000Y-58675000I0J250000D01*
G01*
X69725000Y-57100000D01*
G75*
G02*
X69975000Y-56850000I250000J0D01*
G01*
G37*
%TD.AperFunction*%
%TO.P,C3,2*%
%TO.N,GND*%
%TA.AperFunction,SMDPad,CuDef*%
G36*
G01*
X69975000Y-63075000D02*
X72025000Y-63075000D01*
G75*
G02*
X72275000Y-63325000I0J-250000D01*
G01*
X72275000Y-64900000D01*
G75*
G02*
X72025000Y-65150000I-250000J0D01*
G01*
X69975000Y-65150000D01*
G75*
G02*
X69725000Y-64900000I0J250000D01*
G01*
X69725000Y-63325000D01*
G75*
G02*
X69975000Y-63075000I250000J0D01*
G01*
G37*
%TD.AperFunction*%
%TD*%
%TO.P,C4,2*%
%TO.N,GND*%
%TA.AperFunction,SMDPad,CuDef*%
G36*
G01*
X74543750Y-71450000D02*
X75456250Y-71450000D01*
G75*
G02*
X75700000Y-71693750I0J-243750D01*
G01*
X75700000Y-72181250D01*
G75*
G02*
X75456250Y-72425000I-243750J0D01*
G01*
X74543750Y-72425000D01*
G75*
G02*
X74300000Y-72181250I0J243750D01*
G01*
X74300000Y-71693750D01*
G75*
G02*
X74543750Y-71450000I243750J0D01*
G01*
G37*
%TD.AperFunction*%
%TO.P,C4,1*%
%TO.N,+12V*%
%TA.AperFunction,SMDPad,CuDef*%
G36*
G01*
X74543750Y-69575000D02*
X75456250Y-69575000D01*
G75*
G02*
X75700000Y-69818750I0J-243750D01*
G01*
X75700000Y-70306250D01*
G75*
G02*
X75456250Y-70550000I-243750J0D01*
G01*
X74543750Y-70550000D01*
G75*
G02*
X74300000Y-70306250I0J243750D01*
G01*
X74300000Y-69818750D01*
G75*
G02*
X74543750Y-69575000I243750J0D01*
G01*
G37*
%TD.AperFunction*%
%TD*%
%TO.P,C5,1*%
%TO.N,Net-(C5-Pad1)*%
%TA.AperFunction,SMDPad,CuDef*%
G36*
G01*
X82362500Y-73543750D02*
X82362500Y-74456250D01*
G75*
G02*
X82118750Y-74700000I-243750J0D01*
G01*
X81631250Y-74700000D01*
G75*
G02*
X81387500Y-74456250I0J243750D01*
G01*
X81387500Y-73543750D01*
G75*
G02*
X81631250Y-73300000I243750J0D01*
G01*
X82118750Y-73300000D01*
G75*
G02*
X82362500Y-73543750I0J-243750D01*
G01*
G37*
%TD.AperFunction*%
%TO.P,C5,2*%
%TO.N,GND*%
%TA.AperFunction,SMDPad,CuDef*%
G36*
G01*
X80487500Y-73543750D02*
X80487500Y-74456250D01*
G75*
G02*
X80243750Y-74700000I-243750J0D01*
G01*
X79756250Y-74700000D01*
G75*
G02*
X79512500Y-74456250I0J243750D01*
G01*
X79512500Y-73543750D01*
G75*
G02*
X79756250Y-73300000I243750J0D01*
G01*
X80243750Y-73300000D01*
G75*
G02*
X80487500Y-73543750I0J-243750D01*
G01*
G37*
%TD.AperFunction*%
%TD*%
%TO.P,C6,1*%
%TO.N,+180V*%
%TA.AperFunction,SMDPad,CuDef*%
G36*
G01*
X89375000Y-67575000D02*
X90625000Y-67575000D01*
G75*
G02*
X90875000Y-67825000I0J-250000D01*
G01*
X90875000Y-68575000D01*
G75*
G02*
X90625000Y-68825000I-250000J0D01*
G01*
X89375000Y-68825000D01*
G75*
G02*
X89125000Y-68575000I0J250000D01*
G01*
X89125000Y-67825000D01*
G75*
G02*
X89375000Y-67575000I250000J0D01*
G01*
G37*
%TD.AperFunction*%
%TO.P,C6,2*%
%TO.N,Net-(C6-Pad2)*%
%TA.AperFunction,SMDPad,CuDef*%
G36*
G01*
X89375000Y-70375000D02*
X90625000Y-70375000D01*
G75*
G02*
X90875000Y-70625000I0J-250000D01*
G01*
X90875000Y-71375000D01*
G75*
G02*
X90625000Y-71625000I-250000J0D01*
G01*
X89375000Y-71625000D01*
G75*
G02*
X89125000Y-71375000I0J250000D01*
G01*
X89125000Y-70625000D01*
G75*
G02*
X89375000Y-70375000I250000J0D01*
G01*
G37*
%TD.AperFunction*%
%TD*%
%TO.P,C7,1*%
%TO.N,+180V*%
%TA.AperFunction,SMDPad,CuDef*%
G36*
G01*
X96000000Y-64000000D02*
X98000000Y-64000000D01*
G75*
G02*
X98250000Y-64250000I0J-250000D01*
G01*
X98250000Y-67750000D01*
G75*
G02*
X98000000Y-68000000I-250000J0D01*
G01*
X96000000Y-68000000D01*
G75*
G02*
X95750000Y-67750000I0J250000D01*
G01*
X95750000Y-64250000D01*
G75*
G02*
X96000000Y-64000000I250000J0D01*
G01*
G37*
%TD.AperFunction*%
%TO.P,C7,2*%
%TO.N,GND*%
%TA.AperFunction,SMDPad,CuDef*%
G36*
G01*
X96000000Y-72000000D02*
X98000000Y-72000000D01*
G75*
G02*
X98250000Y-72250000I0J-250000D01*
G01*
X98250000Y-75750000D01*
G75*
G02*
X98000000Y-76000000I-250000J0D01*
G01*
X96000000Y-76000000D01*
G75*
G02*
X95750000Y-75750000I0J250000D01*
G01*
X95750000Y-72250000D01*
G75*
G02*
X96000000Y-72000000I250000J0D01*
G01*
G37*
%TD.AperFunction*%
%TD*%
D12*
%TO.P,D2,1*%
%TO.N,+180V*%
X97150000Y-60000000D03*
%TO.P,D2,2*%
%TO.N,Net-(D2-Pad2)*%
X92850000Y-60000000D03*
%TD*%
D13*
%TO.P,J7,1*%
%TO.N,+12V*%
X71500000Y-52000000D03*
%TO.P,J7,2*%
%TO.N,GND*%
%TA.AperFunction,ComponentPad*%
G36*
G01*
X70500000Y-44500000D02*
X72500000Y-44500000D01*
G75*
G02*
X73250000Y-45250000I0J-750000D01*
G01*
X73250000Y-46750000D01*
G75*
G02*
X72500000Y-47500000I-750000J0D01*
G01*
X70500000Y-47500000D01*
G75*
G02*
X69750000Y-46750000I0J750000D01*
G01*
X69750000Y-45250000D01*
G75*
G02*
X70500000Y-44500000I750000J0D01*
G01*
G37*
%TD.AperFunction*%
%TO.P,J7,3*%
%TO.N,N/C*%
%TA.AperFunction,ComponentPad*%
G36*
G01*
X65925000Y-47250000D02*
X67675000Y-47250000D01*
G75*
G02*
X68550000Y-48125000I0J-875000D01*
G01*
X68550000Y-49875000D01*
G75*
G02*
X67675000Y-50750000I-875000J0D01*
G01*
X65925000Y-50750000D01*
G75*
G02*
X65050000Y-49875000I0J875000D01*
G01*
X65050000Y-48125000D01*
G75*
G02*
X65925000Y-47250000I875000J0D01*
G01*
G37*
%TD.AperFunction*%
%TD*%
D14*
%TO.P,L2,1*%
%TO.N,+12V*%
X78050000Y-60000000D03*
%TO.P,L2,2*%
%TO.N,Net-(D2-Pad2)*%
X87950000Y-60000000D03*
%TD*%
D15*
%TO.P,Q1,1*%
%TO.N,Net-(Q1-Pad1)*%
X88225000Y-46460000D03*
%TO.P,Q1,3*%
%TO.N,Net-(Q1-Pad3)*%
X88225000Y-51540000D03*
D16*
%TO.P,Q1,2*%
%TO.N,Net-(D2-Pad2)*%
X97375000Y-49000000D03*
%TD*%
%TO.P,R3,1*%
%TO.N,Net-(Q1-Pad3)*%
%TA.AperFunction,SMDPad,CuDef*%
G36*
G01*
X84575000Y-49574999D02*
X84575000Y-52425001D01*
G75*
G02*
X84325001Y-52675000I-249999J0D01*
G01*
X83474999Y-52675000D01*
G75*
G02*
X83225000Y-52425001I0J249999D01*
G01*
X83225000Y-49574999D01*
G75*
G02*
X83474999Y-49325000I249999J0D01*
G01*
X84325001Y-49325000D01*
G75*
G02*
X84575000Y-49574999I0J-249999D01*
G01*
G37*
%TD.AperFunction*%
%TO.P,R3,2*%
%TO.N,GND*%
%TA.AperFunction,SMDPad,CuDef*%
G36*
G01*
X78775000Y-49574999D02*
X78775000Y-52425001D01*
G75*
G02*
X78525001Y-52675000I-249999J0D01*
G01*
X77674999Y-52675000D01*
G75*
G02*
X77425000Y-52425001I0J249999D01*
G01*
X77425000Y-49574999D01*
G75*
G02*
X77674999Y-49325000I249999J0D01*
G01*
X78525001Y-49325000D01*
G75*
G02*
X78775000Y-49574999I0J-249999D01*
G01*
G37*
%TD.AperFunction*%
%TD*%
%TO.P,R4,1*%
%TO.N,+180V*%
%TA.AperFunction,SMDPad,CuDef*%
G36*
G01*
X86375000Y-67575000D02*
X87625000Y-67575000D01*
G75*
G02*
X87875000Y-67825000I0J-250000D01*
G01*
X87875000Y-68575000D01*
G75*
G02*
X87625000Y-68825000I-250000J0D01*
G01*
X86375000Y-68825000D01*
G75*
G02*
X86125000Y-68575000I0J250000D01*
G01*
X86125000Y-67825000D01*
G75*
G02*
X86375000Y-67575000I250000J0D01*
G01*
G37*
%TD.AperFunction*%
%TO.P,R4,2*%
%TO.N,Net-(C6-Pad2)*%
%TA.AperFunction,SMDPad,CuDef*%
G36*
G01*
X86375000Y-70375000D02*
X87625000Y-70375000D01*
G75*
G02*
X87875000Y-70625000I0J-250000D01*
G01*
X87875000Y-71375000D01*
G75*
G02*
X87625000Y-71625000I-250000J0D01*
G01*
X86375000Y-71625000D01*
G75*
G02*
X86125000Y-71375000I0J250000D01*
G01*
X86125000Y-70625000D01*
G75*
G02*
X86375000Y-70375000I250000J0D01*
G01*
G37*
%TD.AperFunction*%
%TD*%
%TO.P,R5,1*%
%TO.N,Net-(C6-Pad2)*%
%TA.AperFunction,SMDPad,CuDef*%
G36*
G01*
X89543750Y-72637500D02*
X90456250Y-72637500D01*
G75*
G02*
X90700000Y-72881250I0J-243750D01*
G01*
X90700000Y-73368750D01*
G75*
G02*
X90456250Y-73612500I-243750J0D01*
G01*
X89543750Y-73612500D01*
G75*
G02*
X89300000Y-73368750I0J243750D01*
G01*
X89300000Y-72881250D01*
G75*
G02*
X89543750Y-72637500I243750J0D01*
G01*
G37*
%TD.AperFunction*%
%TO.P,R5,2*%
%TO.N,Net-(R5-Pad2)*%
%TA.AperFunction,SMDPad,CuDef*%
G36*
G01*
X89543750Y-74512500D02*
X90456250Y-74512500D01*
G75*
G02*
X90700000Y-74756250I0J-243750D01*
G01*
X90700000Y-75243750D01*
G75*
G02*
X90456250Y-75487500I-243750J0D01*
G01*
X89543750Y-75487500D01*
G75*
G02*
X89300000Y-75243750I0J243750D01*
G01*
X89300000Y-74756250D01*
G75*
G02*
X89543750Y-74512500I243750J0D01*
G01*
G37*
%TD.AperFunction*%
%TD*%
%TO.P,U4,1*%
%TO.N,Net-(Q1-Pad1)*%
%TA.AperFunction,SMDPad,CuDef*%
G36*
G01*
X77550000Y-68245000D02*
X77550000Y-67945000D01*
G75*
G02*
X77700000Y-67795000I150000J0D01*
G01*
X79350000Y-67795000D01*
G75*
G02*
X79500000Y-67945000I0J-150000D01*
G01*
X79500000Y-68245000D01*
G75*
G02*
X79350000Y-68395000I-150000J0D01*
G01*
X77700000Y-68395000D01*
G75*
G02*
X77550000Y-68245000I0J150000D01*
G01*
G37*
%TD.AperFunction*%
%TO.P,U4,2*%
%TO.N,+12V*%
%TA.AperFunction,SMDPad,CuDef*%
G36*
G01*
X77550000Y-69515000D02*
X77550000Y-69215000D01*
G75*
G02*
X77700000Y-69065000I150000J0D01*
G01*
X79350000Y-69065000D01*
G75*
G02*
X79500000Y-69215000I0J-150000D01*
G01*
X79500000Y-69515000D01*
G75*
G02*
X79350000Y-69665000I-150000J0D01*
G01*
X77700000Y-69665000D01*
G75*
G02*
X77550000Y-69515000I0J150000D01*
G01*
G37*
%TD.AperFunction*%
%TO.P,U4,3*%
%TO.N,Net-(C6-Pad2)*%
%TA.AperFunction,SMDPad,CuDef*%
G36*
G01*
X77550000Y-70785000D02*
X77550000Y-70485000D01*
G75*
G02*
X77700000Y-70335000I150000J0D01*
G01*
X79350000Y-70335000D01*
G75*
G02*
X79500000Y-70485000I0J-150000D01*
G01*
X79500000Y-70785000D01*
G75*
G02*
X79350000Y-70935000I-150000J0D01*
G01*
X77700000Y-70935000D01*
G75*
G02*
X77550000Y-70785000I0J150000D01*
G01*
G37*
%TD.AperFunction*%
%TO.P,U4,4*%
%TO.N,GND*%
%TA.AperFunction,SMDPad,CuDef*%
G36*
G01*
X77550000Y-72055000D02*
X77550000Y-71755000D01*
G75*
G02*
X77700000Y-71605000I150000J0D01*
G01*
X79350000Y-71605000D01*
G75*
G02*
X79500000Y-71755000I0J-150000D01*
G01*
X79500000Y-72055000D01*
G75*
G02*
X79350000Y-72205000I-150000J0D01*
G01*
X77700000Y-72205000D01*
G75*
G02*
X77550000Y-72055000I0J150000D01*
G01*
G37*
%TD.AperFunction*%
%TO.P,U4,5*%
%TO.N,Net-(C5-Pad1)*%
%TA.AperFunction,SMDPad,CuDef*%
G36*
G01*
X82500000Y-72055000D02*
X82500000Y-71755000D01*
G75*
G02*
X82650000Y-71605000I150000J0D01*
G01*
X84300000Y-71605000D01*
G75*
G02*
X84450000Y-71755000I0J-150000D01*
G01*
X84450000Y-72055000D01*
G75*
G02*
X84300000Y-72205000I-150000J0D01*
G01*
X82650000Y-72205000D01*
G75*
G02*
X82500000Y-72055000I0J150000D01*
G01*
G37*
%TD.AperFunction*%
%TO.P,U4,6*%
%TO.N,GND*%
%TA.AperFunction,SMDPad,CuDef*%
G36*
G01*
X82500000Y-70785000D02*
X82500000Y-70485000D01*
G75*
G02*
X82650000Y-70335000I150000J0D01*
G01*
X84300000Y-70335000D01*
G75*
G02*
X84450000Y-70485000I0J-150000D01*
G01*
X84450000Y-70785000D01*
G75*
G02*
X84300000Y-70935000I-150000J0D01*
G01*
X82650000Y-70935000D01*
G75*
G02*
X82500000Y-70785000I0J150000D01*
G01*
G37*
%TD.AperFunction*%
%TO.P,U4,7*%
%TA.AperFunction,SMDPad,CuDef*%
G36*
G01*
X82500000Y-69515000D02*
X82500000Y-69215000D01*
G75*
G02*
X82650000Y-69065000I150000J0D01*
G01*
X84300000Y-69065000D01*
G75*
G02*
X84450000Y-69215000I0J-150000D01*
G01*
X84450000Y-69515000D01*
G75*
G02*
X84300000Y-69665000I-150000J0D01*
G01*
X82650000Y-69665000D01*
G75*
G02*
X82500000Y-69515000I0J150000D01*
G01*
G37*
%TD.AperFunction*%
%TO.P,U4,8*%
%TO.N,Net-(Q1-Pad3)*%
%TA.AperFunction,SMDPad,CuDef*%
G36*
G01*
X82500000Y-68245000D02*
X82500000Y-67945000D01*
G75*
G02*
X82650000Y-67795000I150000J0D01*
G01*
X84300000Y-67795000D01*
G75*
G02*
X84450000Y-67945000I0J-150000D01*
G01*
X84450000Y-68245000D01*
G75*
G02*
X84300000Y-68395000I-150000J0D01*
G01*
X82650000Y-68395000D01*
G75*
G02*
X82500000Y-68245000I0J150000D01*
G01*
G37*
%TD.AperFunction*%
%TD*%
D17*
%TO.P,RV1,3*%
%TO.N,GND*%
X66920000Y-71000000D03*
%TO.P,RV1,2*%
%TO.N,Net-(R5-Pad2)*%
X69460000Y-73540000D03*
%TO.P,RV1,1*%
%TO.N,Net-(RV1-Pad1)*%
X72000000Y-71000000D03*
%TD*%
D18*
%TO.P,D1,1*%
%TO.N,Net-(D1-Pad1)*%
X46000000Y-58000000D03*
D19*
%TO.P,D1,2*%
%TO.N,GND*%
X46000000Y-45300000D03*
%TD*%
D10*
%TO.P,J8,1*%
%TO.N,/SCL*%
X-48000000Y-44000000D03*
D11*
%TO.P,J8,2*%
%TO.N,Net-(J8-Pad2)*%
X-45460000Y-44000000D03*
%TD*%
%TO.P,J9,2*%
%TO.N,Net-(J9-Pad2)*%
X-45460000Y-47000000D03*
D10*
%TO.P,J9,1*%
%TO.N,/SDA*%
X-48000000Y-47000000D03*
%TD*%
%TO.P,J1,1*%
%TO.N,/D0*%
X-63000000Y-81000000D03*
D11*
%TO.P,J1,2*%
%TO.N,/D1*%
X-60460000Y-81000000D03*
%TO.P,J1,3*%
%TO.N,/D2*%
X-57920000Y-81000000D03*
%TO.P,J1,4*%
%TO.N,/D3*%
X-55380000Y-81000000D03*
%TO.P,J1,5*%
%TO.N,/D4*%
X-52840000Y-81000000D03*
%TO.P,J1,6*%
%TO.N,/D5*%
X-50300000Y-81000000D03*
%TO.P,J1,7*%
%TO.N,/D6*%
X-47760000Y-81000000D03*
%TO.P,J1,8*%
%TO.N,/D7*%
X-45220000Y-81000000D03*
%TO.P,J1,9*%
%TO.N,/D8*%
X-42680000Y-81000000D03*
%TO.P,J1,10*%
%TO.N,/D9*%
X-40140000Y-81000000D03*
%TO.P,J1,11*%
%TO.N,+180V*%
X-37600000Y-81000000D03*
%TO.P,J1,12*%
%TO.N,GND*%
X-35060000Y-81000000D03*
%TD*%
%TO.P,J3,12*%
%TO.N,GND*%
X-2060000Y-81000000D03*
%TO.P,J3,11*%
%TO.N,+180V*%
X-4600000Y-81000000D03*
%TO.P,J3,10*%
%TO.N,/D29*%
X-7140000Y-81000000D03*
%TO.P,J3,9*%
%TO.N,/D28*%
X-9680000Y-81000000D03*
%TO.P,J3,8*%
%TO.N,/D27*%
X-12220000Y-81000000D03*
%TO.P,J3,7*%
%TO.N,/D26*%
X-14760000Y-81000000D03*
%TO.P,J3,6*%
%TO.N,/D25*%
X-17300000Y-81000000D03*
%TO.P,J3,5*%
%TO.N,/D24*%
X-19840000Y-81000000D03*
%TO.P,J3,4*%
%TO.N,/D23*%
X-22380000Y-81000000D03*
%TO.P,J3,3*%
%TO.N,/D22*%
X-24920000Y-81000000D03*
%TO.P,J3,2*%
%TO.N,/D21*%
X-27460000Y-81000000D03*
D10*
%TO.P,J3,1*%
%TO.N,/D20*%
X-30000000Y-81000000D03*
%TD*%
%TO.P,J4,1*%
%TO.N,/D30*%
X-30000000Y-78000000D03*
D11*
%TO.P,J4,2*%
%TO.N,/D31*%
X-27460000Y-78000000D03*
%TO.P,J4,3*%
%TO.N,/D32*%
X-24920000Y-78000000D03*
%TO.P,J4,4*%
%TO.N,/D33*%
X-22380000Y-78000000D03*
%TO.P,J4,5*%
%TO.N,/D34*%
X-19840000Y-78000000D03*
%TO.P,J4,6*%
%TO.N,/D35*%
X-17300000Y-78000000D03*
%TO.P,J4,7*%
%TO.N,/D36*%
X-14760000Y-78000000D03*
%TO.P,J4,8*%
%TO.N,/D37*%
X-12220000Y-78000000D03*
%TO.P,J4,9*%
%TO.N,/D38*%
X-9680000Y-78000000D03*
%TO.P,J4,10*%
%TO.N,/D39*%
X-7140000Y-78000000D03*
%TO.P,J4,11*%
%TO.N,+180V*%
X-4600000Y-78000000D03*
%TO.P,J4,12*%
%TO.N,GND*%
X-2060000Y-78000000D03*
%TD*%
D10*
%TO.P,J5,1*%
%TO.N,/D40*%
X3000000Y-81000000D03*
D11*
%TO.P,J5,2*%
%TO.N,/D41*%
X5540000Y-81000000D03*
%TO.P,J5,3*%
%TO.N,/D42*%
X8080000Y-81000000D03*
%TO.P,J5,4*%
%TO.N,/D43*%
X10620000Y-81000000D03*
%TO.P,J5,5*%
%TO.N,/D44*%
X13160000Y-81000000D03*
%TO.P,J5,6*%
%TO.N,/D45*%
X15700000Y-81000000D03*
%TO.P,J5,7*%
%TO.N,/D46*%
X18240000Y-81000000D03*
%TO.P,J5,8*%
%TO.N,/D47*%
X20780000Y-81000000D03*
%TO.P,J5,9*%
%TO.N,/D48*%
X23320000Y-81000000D03*
%TO.P,J5,10*%
%TO.N,/D49*%
X25860000Y-81000000D03*
%TO.P,J5,11*%
%TO.N,+180V*%
X28400000Y-81000000D03*
%TO.P,J5,12*%
%TO.N,GND*%
X30940000Y-81000000D03*
%TD*%
D14*
%TO.P,L1,1*%
%TO.N,Net-(D1-Pad1)*%
X43050000Y-68000000D03*
%TO.P,L1,2*%
%TO.N,+5V*%
X52950000Y-68000000D03*
%TD*%
D20*
%TO.P,Q2,3*%
%TO.N,/D0*%
X-65000000Y-75000000D03*
%TO.P,Q2,2*%
%TO.N,GND*%
X-65950000Y-73000000D03*
%TO.P,Q2,1*%
%TO.N,/C0*%
X-64050000Y-73000000D03*
%TD*%
%TO.P,Q3,1*%
%TO.N,/C1*%
X-64050000Y-68000000D03*
%TO.P,Q3,2*%
%TO.N,GND*%
X-65950000Y-68000000D03*
%TO.P,Q3,3*%
%TO.N,/D1*%
X-65000000Y-70000000D03*
%TD*%
%TO.P,Q4,3*%
%TO.N,/D2*%
X-65000000Y-65000000D03*
%TO.P,Q4,2*%
%TO.N,GND*%
X-65950000Y-63000000D03*
%TO.P,Q4,1*%
%TO.N,/C2*%
X-64050000Y-63000000D03*
%TD*%
%TO.P,Q5,1*%
%TO.N,/C3*%
X-59050000Y-73000000D03*
%TO.P,Q5,2*%
%TO.N,GND*%
X-60950000Y-73000000D03*
%TO.P,Q5,3*%
%TO.N,/D3*%
X-60000000Y-75000000D03*
%TD*%
%TO.P,Q6,3*%
%TO.N,/D4*%
X-60000000Y-70000000D03*
%TO.P,Q6,2*%
%TO.N,GND*%
X-60950000Y-68000000D03*
%TO.P,Q6,1*%
%TO.N,/C4*%
X-59050000Y-68000000D03*
%TD*%
%TO.P,Q7,1*%
%TO.N,/C5*%
X-59050000Y-63000000D03*
%TO.P,Q7,2*%
%TO.N,GND*%
X-60950000Y-63000000D03*
%TO.P,Q7,3*%
%TO.N,/D5*%
X-60000000Y-65000000D03*
%TD*%
%TO.P,Q8,3*%
%TO.N,/D6*%
X-55000000Y-75000000D03*
%TO.P,Q8,2*%
%TO.N,GND*%
X-55950000Y-73000000D03*
%TO.P,Q8,1*%
%TO.N,/C6*%
X-54050000Y-73000000D03*
%TD*%
%TO.P,Q9,1*%
%TO.N,/C7*%
X-54050000Y-68000000D03*
%TO.P,Q9,2*%
%TO.N,GND*%
X-55950000Y-68000000D03*
%TO.P,Q9,3*%
%TO.N,/D7*%
X-55000000Y-70000000D03*
%TD*%
%TO.P,Q10,3*%
%TO.N,/D8*%
X-55000000Y-65000000D03*
%TO.P,Q10,2*%
%TO.N,GND*%
X-55950000Y-63000000D03*
%TO.P,Q10,1*%
%TO.N,/C8*%
X-54050000Y-63000000D03*
%TD*%
%TO.P,Q11,3*%
%TO.N,/D9*%
X-50000000Y-75000000D03*
%TO.P,Q11,2*%
%TO.N,GND*%
X-50950000Y-73000000D03*
%TO.P,Q11,1*%
%TO.N,/C9*%
X-49050000Y-73000000D03*
%TD*%
%TO.P,Q12,3*%
%TO.N,/D10*%
X-50000000Y-70000000D03*
%TO.P,Q12,2*%
%TO.N,GND*%
X-50950000Y-68000000D03*
%TO.P,Q12,1*%
%TO.N,/C10*%
X-49050000Y-68000000D03*
%TD*%
%TO.P,Q13,1*%
%TO.N,/C11*%
X-49050000Y-63000000D03*
%TO.P,Q13,2*%
%TO.N,GND*%
X-50950000Y-63000000D03*
%TO.P,Q13,3*%
%TO.N,/D11*%
X-50000000Y-65000000D03*
%TD*%
%TO.P,Q14,3*%
%TO.N,/D12*%
X-45000000Y-75000000D03*
%TO.P,Q14,2*%
%TO.N,GND*%
X-45950000Y-73000000D03*
%TO.P,Q14,1*%
%TO.N,/C12*%
X-44050000Y-73000000D03*
%TD*%
%TO.P,Q15,1*%
%TO.N,/C13*%
X-44050000Y-68000000D03*
%TO.P,Q15,2*%
%TO.N,GND*%
X-45950000Y-68000000D03*
%TO.P,Q15,3*%
%TO.N,/D13*%
X-45000000Y-70000000D03*
%TD*%
%TO.P,Q16,3*%
%TO.N,/D14*%
X-45000000Y-65000000D03*
%TO.P,Q16,2*%
%TO.N,GND*%
X-45950000Y-63000000D03*
%TO.P,Q16,1*%
%TO.N,/C14*%
X-44050000Y-63000000D03*
%TD*%
%TO.P,Q17,1*%
%TO.N,/C15*%
X-39050000Y-73000000D03*
%TO.P,Q17,2*%
%TO.N,GND*%
X-40950000Y-73000000D03*
%TO.P,Q17,3*%
%TO.N,/D15*%
X-40000000Y-75000000D03*
%TD*%
%TO.P,Q18,3*%
%TO.N,/D16*%
X-40000000Y-70000000D03*
%TO.P,Q18,2*%
%TO.N,GND*%
X-40950000Y-68000000D03*
%TO.P,Q18,1*%
%TO.N,/C16*%
X-39050000Y-68000000D03*
%TD*%
%TO.P,Q19,1*%
%TO.N,/C17*%
X-39050000Y-63000000D03*
%TO.P,Q19,2*%
%TO.N,GND*%
X-40950000Y-63000000D03*
%TO.P,Q19,3*%
%TO.N,/D17*%
X-40000000Y-65000000D03*
%TD*%
%TO.P,Q20,3*%
%TO.N,/D18*%
X-35000000Y-75000000D03*
%TO.P,Q20,2*%
%TO.N,GND*%
X-35950000Y-73000000D03*
%TO.P,Q20,1*%
%TO.N,/C18*%
X-34050000Y-73000000D03*
%TD*%
%TO.P,Q21,1*%
%TO.N,/C19*%
X-34050000Y-68000000D03*
%TO.P,Q21,2*%
%TO.N,GND*%
X-35950000Y-68000000D03*
%TO.P,Q21,3*%
%TO.N,/D19*%
X-35000000Y-70000000D03*
%TD*%
%TO.P,Q22,3*%
%TO.N,/D20*%
X-35000000Y-65000000D03*
%TO.P,Q22,2*%
%TO.N,GND*%
X-35950000Y-63000000D03*
%TO.P,Q22,1*%
%TO.N,/C20*%
X-34050000Y-63000000D03*
%TD*%
%TO.P,Q23,1*%
%TO.N,/C21*%
X-29050000Y-73000000D03*
%TO.P,Q23,2*%
%TO.N,GND*%
X-30950000Y-73000000D03*
%TO.P,Q23,3*%
%TO.N,/D21*%
X-30000000Y-75000000D03*
%TD*%
%TO.P,Q24,3*%
%TO.N,/D22*%
X-30000000Y-70000000D03*
%TO.P,Q24,2*%
%TO.N,GND*%
X-30950000Y-68000000D03*
%TO.P,Q24,1*%
%TO.N,/C22*%
X-29050000Y-68000000D03*
%TD*%
%TO.P,Q25,1*%
%TO.N,/C23*%
X-29050000Y-63000000D03*
%TO.P,Q25,2*%
%TO.N,GND*%
X-30950000Y-63000000D03*
%TO.P,Q25,3*%
%TO.N,/D23*%
X-30000000Y-65000000D03*
%TD*%
%TO.P,Q26,3*%
%TO.N,/D24*%
X-25000000Y-75000000D03*
%TO.P,Q26,2*%
%TO.N,GND*%
X-25950000Y-73000000D03*
%TO.P,Q26,1*%
%TO.N,/C24*%
X-24050000Y-73000000D03*
%TD*%
%TO.P,Q27,1*%
%TO.N,/C25*%
X-24050000Y-68000000D03*
%TO.P,Q27,2*%
%TO.N,GND*%
X-25950000Y-68000000D03*
%TO.P,Q27,3*%
%TO.N,/D25*%
X-25000000Y-70000000D03*
%TD*%
%TO.P,Q28,3*%
%TO.N,/D26*%
X-25000000Y-65000000D03*
%TO.P,Q28,2*%
%TO.N,GND*%
X-25950000Y-63000000D03*
%TO.P,Q28,1*%
%TO.N,/C26*%
X-24050000Y-63000000D03*
%TD*%
%TO.P,Q29,1*%
%TO.N,/C27*%
X-19050000Y-73000000D03*
%TO.P,Q29,2*%
%TO.N,GND*%
X-20950000Y-73000000D03*
%TO.P,Q29,3*%
%TO.N,/D27*%
X-20000000Y-75000000D03*
%TD*%
%TO.P,Q30,1*%
%TO.N,/C28*%
X-19050000Y-68000000D03*
%TO.P,Q30,2*%
%TO.N,GND*%
X-20950000Y-68000000D03*
%TO.P,Q30,3*%
%TO.N,/D28*%
X-20000000Y-70000000D03*
%TD*%
%TO.P,Q31,1*%
%TO.N,/C29*%
X-19050000Y-63000000D03*
%TO.P,Q31,2*%
%TO.N,GND*%
X-20950000Y-63000000D03*
%TO.P,Q31,3*%
%TO.N,/D29*%
X-20000000Y-65000000D03*
%TD*%
%TO.P,Q32,3*%
%TO.N,/D30*%
X-15000000Y-75000000D03*
%TO.P,Q32,2*%
%TO.N,GND*%
X-15950000Y-73000000D03*
%TO.P,Q32,1*%
%TO.N,/C30*%
X-14050000Y-73000000D03*
%TD*%
%TO.P,Q33,1*%
%TO.N,/C31*%
X-14050000Y-68000000D03*
%TO.P,Q33,2*%
%TO.N,GND*%
X-15950000Y-68000000D03*
%TO.P,Q33,3*%
%TO.N,/D31*%
X-15000000Y-70000000D03*
%TD*%
%TO.P,Q34,3*%
%TO.N,/D32*%
X-15000000Y-65000000D03*
%TO.P,Q34,2*%
%TO.N,GND*%
X-15950000Y-63000000D03*
%TO.P,Q34,1*%
%TO.N,/C32*%
X-14050000Y-63000000D03*
%TD*%
%TO.P,Q35,1*%
%TO.N,/C33*%
X-9050000Y-73000000D03*
%TO.P,Q35,2*%
%TO.N,GND*%
X-10950000Y-73000000D03*
%TO.P,Q35,3*%
%TO.N,/D33*%
X-10000000Y-75000000D03*
%TD*%
%TO.P,Q36,3*%
%TO.N,/D34*%
X-10000000Y-70000000D03*
%TO.P,Q36,2*%
%TO.N,GND*%
X-10950000Y-68000000D03*
%TO.P,Q36,1*%
%TO.N,/C34*%
X-9050000Y-68000000D03*
%TD*%
%TO.P,Q37,3*%
%TO.N,/D35*%
X-10000000Y-65000000D03*
%TO.P,Q37,2*%
%TO.N,GND*%
X-10950000Y-63000000D03*
%TO.P,Q37,1*%
%TO.N,/C35*%
X-9050000Y-63000000D03*
%TD*%
%TO.P,Q38,1*%
%TO.N,/C36*%
X-4050000Y-73000000D03*
%TO.P,Q38,2*%
%TO.N,GND*%
X-5950000Y-73000000D03*
%TO.P,Q38,3*%
%TO.N,/D36*%
X-5000000Y-75000000D03*
%TD*%
%TO.P,Q39,3*%
%TO.N,/D37*%
X-5000000Y-70000000D03*
%TO.P,Q39,2*%
%TO.N,GND*%
X-5950000Y-68000000D03*
%TO.P,Q39,1*%
%TO.N,/C37*%
X-4050000Y-68000000D03*
%TD*%
%TO.P,Q40,1*%
%TO.N,/C38*%
X-4050000Y-63000000D03*
%TO.P,Q40,2*%
%TO.N,GND*%
X-5950000Y-63000000D03*
%TO.P,Q40,3*%
%TO.N,/D38*%
X-5000000Y-65000000D03*
%TD*%
%TO.P,Q41,3*%
%TO.N,/D39*%
X0Y-75000000D03*
%TO.P,Q41,2*%
%TO.N,GND*%
X-950000Y-73000000D03*
%TO.P,Q41,1*%
%TO.N,/C39*%
X950000Y-73000000D03*
%TD*%
%TO.P,Q42,1*%
%TO.N,/C40*%
X950000Y-68000000D03*
%TO.P,Q42,2*%
%TO.N,GND*%
X-950000Y-68000000D03*
%TO.P,Q42,3*%
%TO.N,/D40*%
X0Y-70000000D03*
%TD*%
%TO.P,Q43,3*%
%TO.N,/D41*%
X0Y-65000000D03*
%TO.P,Q43,2*%
%TO.N,GND*%
X-950000Y-63000000D03*
%TO.P,Q43,1*%
%TO.N,/C41*%
X950000Y-63000000D03*
%TD*%
%TO.P,Q44,1*%
%TO.N,/C42*%
X5950000Y-73000000D03*
%TO.P,Q44,2*%
%TO.N,GND*%
X4050000Y-73000000D03*
%TO.P,Q44,3*%
%TO.N,/D42*%
X5000000Y-75000000D03*
%TD*%
%TO.P,Q45,3*%
%TO.N,/D43*%
X5000000Y-70000000D03*
%TO.P,Q45,2*%
%TO.N,GND*%
X4050000Y-68000000D03*
%TO.P,Q45,1*%
%TO.N,/C43*%
X5950000Y-68000000D03*
%TD*%
%TO.P,Q46,1*%
%TO.N,/C44*%
X5950000Y-63000000D03*
%TO.P,Q46,2*%
%TO.N,GND*%
X4050000Y-63000000D03*
%TO.P,Q46,3*%
%TO.N,/D44*%
X5000000Y-65000000D03*
%TD*%
%TO.P,Q47,3*%
%TO.N,/D45*%
X10000000Y-75000000D03*
%TO.P,Q47,2*%
%TO.N,GND*%
X9050000Y-73000000D03*
%TO.P,Q47,1*%
%TO.N,/C45*%
X10950000Y-73000000D03*
%TD*%
%TO.P,Q48,1*%
%TO.N,/C46*%
X10950000Y-68000000D03*
%TO.P,Q48,2*%
%TO.N,GND*%
X9050000Y-68000000D03*
%TO.P,Q48,3*%
%TO.N,/D46*%
X10000000Y-70000000D03*
%TD*%
%TO.P,Q49,1*%
%TO.N,/C47*%
X10950000Y-63000000D03*
%TO.P,Q49,2*%
%TO.N,GND*%
X9050000Y-63000000D03*
%TO.P,Q49,3*%
%TO.N,/D47*%
X10000000Y-65000000D03*
%TD*%
%TO.P,Q50,1*%
%TO.N,/C48*%
X15950000Y-73000000D03*
%TO.P,Q50,2*%
%TO.N,GND*%
X14050000Y-73000000D03*
%TO.P,Q50,3*%
%TO.N,/D48*%
X15000000Y-75000000D03*
%TD*%
%TO.P,Q51,3*%
%TO.N,/D49*%
X15000000Y-70000000D03*
%TO.P,Q51,2*%
%TO.N,GND*%
X14050000Y-68000000D03*
%TO.P,Q51,1*%
%TO.N,/C49*%
X15950000Y-68000000D03*
%TD*%
%TO.P,Q52,1*%
%TO.N,/C50*%
X15950000Y-63000000D03*
%TO.P,Q52,2*%
%TO.N,GND*%
X14050000Y-63000000D03*
%TO.P,Q52,3*%
%TO.N,/D50*%
X15000000Y-65000000D03*
%TD*%
%TO.P,Q53,3*%
%TO.N,/D51*%
X20000000Y-75000000D03*
%TO.P,Q53,2*%
%TO.N,GND*%
X19050000Y-73000000D03*
%TO.P,Q53,1*%
%TO.N,/C51*%
X20950000Y-73000000D03*
%TD*%
%TO.P,Q54,1*%
%TO.N,/C52*%
X20950000Y-68000000D03*
%TO.P,Q54,2*%
%TO.N,GND*%
X19050000Y-68000000D03*
%TO.P,Q54,3*%
%TO.N,/D52*%
X20000000Y-70000000D03*
%TD*%
%TO.P,Q55,3*%
%TO.N,/D53*%
X19950000Y-65000000D03*
%TO.P,Q55,2*%
%TO.N,GND*%
X19000000Y-63000000D03*
%TO.P,Q55,1*%
%TO.N,/C53*%
X20900000Y-63000000D03*
%TD*%
%TO.P,Q56,1*%
%TO.N,/C54*%
X25950000Y-73000000D03*
%TO.P,Q56,2*%
%TO.N,GND*%
X24050000Y-73000000D03*
%TO.P,Q56,3*%
%TO.N,/D54*%
X25000000Y-75000000D03*
%TD*%
%TO.P,Q57,3*%
%TO.N,/D55*%
X25000000Y-70000000D03*
%TO.P,Q57,2*%
%TO.N,GND*%
X24050000Y-68000000D03*
%TO.P,Q57,1*%
%TO.N,/C55*%
X25950000Y-68000000D03*
%TD*%
%TO.P,Q58,1*%
%TO.N,/C56*%
X25950000Y-63000000D03*
%TO.P,Q58,2*%
%TO.N,GND*%
X24050000Y-63000000D03*
%TO.P,Q58,3*%
%TO.N,/D56*%
X25000000Y-65000000D03*
%TD*%
%TO.P,Q59,3*%
%TO.N,/D57*%
X30000000Y-75000000D03*
%TO.P,Q59,2*%
%TO.N,GND*%
X29050000Y-73000000D03*
%TO.P,Q59,1*%
%TO.N,/C57*%
X30950000Y-73000000D03*
%TD*%
%TO.P,Q60,1*%
%TO.N,/C58*%
X30950000Y-68000000D03*
%TO.P,Q60,2*%
%TO.N,GND*%
X29050000Y-68000000D03*
%TO.P,Q60,3*%
%TO.N,/D58*%
X30000000Y-70000000D03*
%TD*%
%TO.P,Q61,3*%
%TO.N,/D59*%
X30000000Y-65000000D03*
%TO.P,Q61,2*%
%TO.N,GND*%
X29050000Y-63000000D03*
%TO.P,Q61,1*%
%TO.N,/C59*%
X30950000Y-63000000D03*
%TD*%
%TO.P,R1,1*%
%TO.N,+5V*%
%TA.AperFunction,SMDPad,CuDef*%
G36*
G01*
X-54456250Y-45637500D02*
X-53543750Y-45637500D01*
G75*
G02*
X-53300000Y-45881250I0J-243750D01*
G01*
X-53300000Y-46368750D01*
G75*
G02*
X-53543750Y-46612500I-243750J0D01*
G01*
X-54456250Y-46612500D01*
G75*
G02*
X-54700000Y-46368750I0J243750D01*
G01*
X-54700000Y-45881250D01*
G75*
G02*
X-54456250Y-45637500I243750J0D01*
G01*
G37*
%TD.AperFunction*%
%TO.P,R1,2*%
%TO.N,/SCL*%
%TA.AperFunction,SMDPad,CuDef*%
G36*
G01*
X-54456250Y-47512500D02*
X-53543750Y-47512500D01*
G75*
G02*
X-53300000Y-47756250I0J-243750D01*
G01*
X-53300000Y-48243750D01*
G75*
G02*
X-53543750Y-48487500I-243750J0D01*
G01*
X-54456250Y-48487500D01*
G75*
G02*
X-54700000Y-48243750I0J243750D01*
G01*
X-54700000Y-47756250D01*
G75*
G02*
X-54456250Y-47512500I243750J0D01*
G01*
G37*
%TD.AperFunction*%
%TD*%
%TO.P,R2,2*%
%TO.N,/SDA*%
%TA.AperFunction,SMDPad,CuDef*%
G36*
G01*
X-52456250Y-47512500D02*
X-51543750Y-47512500D01*
G75*
G02*
X-51300000Y-47756250I0J-243750D01*
G01*
X-51300000Y-48243750D01*
G75*
G02*
X-51543750Y-48487500I-243750J0D01*
G01*
X-52456250Y-48487500D01*
G75*
G02*
X-52700000Y-48243750I0J243750D01*
G01*
X-52700000Y-47756250D01*
G75*
G02*
X-52456250Y-47512500I243750J0D01*
G01*
G37*
%TD.AperFunction*%
%TO.P,R2,1*%
%TO.N,+5V*%
%TA.AperFunction,SMDPad,CuDef*%
G36*
G01*
X-52456250Y-45637500D02*
X-51543750Y-45637500D01*
G75*
G02*
X-51300000Y-45881250I0J-243750D01*
G01*
X-51300000Y-46368750D01*
G75*
G02*
X-51543750Y-46612500I-243750J0D01*
G01*
X-52456250Y-46612500D01*
G75*
G02*
X-52700000Y-46368750I0J243750D01*
G01*
X-52700000Y-45881250D01*
G75*
G02*
X-52456250Y-45637500I243750J0D01*
G01*
G37*
%TD.AperFunction*%
%TD*%
%TO.P,U1,1*%
%TO.N,Net-(U1-Pad1)*%
%TA.AperFunction,SMDPad,CuDef*%
G36*
G01*
X-64400000Y-46245000D02*
X-64400000Y-45945000D01*
G75*
G02*
X-64250000Y-45795000I150000J0D01*
G01*
X-62950000Y-45795000D01*
G75*
G02*
X-62800000Y-45945000I0J-150000D01*
G01*
X-62800000Y-46245000D01*
G75*
G02*
X-62950000Y-46395000I-150000J0D01*
G01*
X-64250000Y-46395000D01*
G75*
G02*
X-64400000Y-46245000I0J150000D01*
G01*
G37*
%TD.AperFunction*%
%TO.P,U1,2*%
%TO.N,/SRCLK*%
%TA.AperFunction,SMDPad,CuDef*%
G36*
G01*
X-64400000Y-47515000D02*
X-64400000Y-47215000D01*
G75*
G02*
X-64250000Y-47065000I150000J0D01*
G01*
X-62950000Y-47065000D01*
G75*
G02*
X-62800000Y-47215000I0J-150000D01*
G01*
X-62800000Y-47515000D01*
G75*
G02*
X-62950000Y-47665000I-150000J0D01*
G01*
X-64250000Y-47665000D01*
G75*
G02*
X-64400000Y-47515000I0J150000D01*
G01*
G37*
%TD.AperFunction*%
%TO.P,U1,3*%
%TO.N,/RCLK*%
%TA.AperFunction,SMDPad,CuDef*%
G36*
G01*
X-64400000Y-48785000D02*
X-64400000Y-48485000D01*
G75*
G02*
X-64250000Y-48335000I150000J0D01*
G01*
X-62950000Y-48335000D01*
G75*
G02*
X-62800000Y-48485000I0J-150000D01*
G01*
X-62800000Y-48785000D01*
G75*
G02*
X-62950000Y-48935000I-150000J0D01*
G01*
X-64250000Y-48935000D01*
G75*
G02*
X-64400000Y-48785000I0J150000D01*
G01*
G37*
%TD.AperFunction*%
%TO.P,U1,4*%
%TO.N,GND*%
%TA.AperFunction,SMDPad,CuDef*%
G36*
G01*
X-64400000Y-50055000D02*
X-64400000Y-49755000D01*
G75*
G02*
X-64250000Y-49605000I150000J0D01*
G01*
X-62950000Y-49605000D01*
G75*
G02*
X-62800000Y-49755000I0J-150000D01*
G01*
X-62800000Y-50055000D01*
G75*
G02*
X-62950000Y-50205000I-150000J0D01*
G01*
X-64250000Y-50205000D01*
G75*
G02*
X-64400000Y-50055000I0J150000D01*
G01*
G37*
%TD.AperFunction*%
%TO.P,U1,5*%
%TO.N,/SDA*%
%TA.AperFunction,SMDPad,CuDef*%
G36*
G01*
X-57200000Y-50055000D02*
X-57200000Y-49755000D01*
G75*
G02*
X-57050000Y-49605000I150000J0D01*
G01*
X-55750000Y-49605000D01*
G75*
G02*
X-55600000Y-49755000I0J-150000D01*
G01*
X-55600000Y-50055000D01*
G75*
G02*
X-55750000Y-50205000I-150000J0D01*
G01*
X-57050000Y-50205000D01*
G75*
G02*
X-57200000Y-50055000I0J150000D01*
G01*
G37*
%TD.AperFunction*%
%TO.P,U1,6*%
%TO.N,Net-(U1-Pad6)*%
%TA.AperFunction,SMDPad,CuDef*%
G36*
G01*
X-57200000Y-48785000D02*
X-57200000Y-48485000D01*
G75*
G02*
X-57050000Y-48335000I150000J0D01*
G01*
X-55750000Y-48335000D01*
G75*
G02*
X-55600000Y-48485000I0J-150000D01*
G01*
X-55600000Y-48785000D01*
G75*
G02*
X-55750000Y-48935000I-150000J0D01*
G01*
X-57050000Y-48935000D01*
G75*
G02*
X-57200000Y-48785000I0J150000D01*
G01*
G37*
%TD.AperFunction*%
%TO.P,U1,7*%
%TO.N,/SCL*%
%TA.AperFunction,SMDPad,CuDef*%
G36*
G01*
X-57200000Y-47515000D02*
X-57200000Y-47215000D01*
G75*
G02*
X-57050000Y-47065000I150000J0D01*
G01*
X-55750000Y-47065000D01*
G75*
G02*
X-55600000Y-47215000I0J-150000D01*
G01*
X-55600000Y-47515000D01*
G75*
G02*
X-55750000Y-47665000I-150000J0D01*
G01*
X-57050000Y-47665000D01*
G75*
G02*
X-57200000Y-47515000I0J150000D01*
G01*
G37*
%TD.AperFunction*%
%TO.P,U1,8*%
%TO.N,+5V*%
%TA.AperFunction,SMDPad,CuDef*%
G36*
G01*
X-57200000Y-46245000D02*
X-57200000Y-45945000D01*
G75*
G02*
X-57050000Y-45795000I150000J0D01*
G01*
X-55750000Y-45795000D01*
G75*
G02*
X-55600000Y-45945000I0J-150000D01*
G01*
X-55600000Y-46245000D01*
G75*
G02*
X-55750000Y-46395000I-150000J0D01*
G01*
X-57050000Y-46395000D01*
G75*
G02*
X-57200000Y-46245000I0J150000D01*
G01*
G37*
%TD.AperFunction*%
%TD*%
%TO.P,U2,1*%
%TO.N,Net-(U2-Pad1)*%
%TA.AperFunction,SMDPad,CuDef*%
G36*
G01*
X-38450000Y-46245000D02*
X-38450000Y-45945000D01*
G75*
G02*
X-38300000Y-45795000I150000J0D01*
G01*
X-36650000Y-45795000D01*
G75*
G02*
X-36500000Y-45945000I0J-150000D01*
G01*
X-36500000Y-46245000D01*
G75*
G02*
X-36650000Y-46395000I-150000J0D01*
G01*
X-38300000Y-46395000D01*
G75*
G02*
X-38450000Y-46245000I0J150000D01*
G01*
G37*
%TD.AperFunction*%
%TO.P,U2,2*%
%TO.N,Net-(U2-Pad2)*%
%TA.AperFunction,SMDPad,CuDef*%
G36*
G01*
X-38450000Y-47515000D02*
X-38450000Y-47215000D01*
G75*
G02*
X-38300000Y-47065000I150000J0D01*
G01*
X-36650000Y-47065000D01*
G75*
G02*
X-36500000Y-47215000I0J-150000D01*
G01*
X-36500000Y-47515000D01*
G75*
G02*
X-36650000Y-47665000I-150000J0D01*
G01*
X-38300000Y-47665000D01*
G75*
G02*
X-38450000Y-47515000I0J150000D01*
G01*
G37*
%TD.AperFunction*%
%TO.P,U2,3*%
%TO.N,Net-(J11-Pad1)*%
%TA.AperFunction,SMDPad,CuDef*%
G36*
G01*
X-38450000Y-48785000D02*
X-38450000Y-48485000D01*
G75*
G02*
X-38300000Y-48335000I150000J0D01*
G01*
X-36650000Y-48335000D01*
G75*
G02*
X-36500000Y-48485000I0J-150000D01*
G01*
X-36500000Y-48785000D01*
G75*
G02*
X-36650000Y-48935000I-150000J0D01*
G01*
X-38300000Y-48935000D01*
G75*
G02*
X-38450000Y-48785000I0J150000D01*
G01*
G37*
%TD.AperFunction*%
%TO.P,U2,4*%
%TO.N,GND*%
%TA.AperFunction,SMDPad,CuDef*%
G36*
G01*
X-38450000Y-50055000D02*
X-38450000Y-49755000D01*
G75*
G02*
X-38300000Y-49605000I150000J0D01*
G01*
X-36650000Y-49605000D01*
G75*
G02*
X-36500000Y-49755000I0J-150000D01*
G01*
X-36500000Y-50055000D01*
G75*
G02*
X-36650000Y-50205000I-150000J0D01*
G01*
X-38300000Y-50205000D01*
G75*
G02*
X-38450000Y-50055000I0J150000D01*
G01*
G37*
%TD.AperFunction*%
%TO.P,U2,5*%
%TO.N,Net-(J9-Pad2)*%
%TA.AperFunction,SMDPad,CuDef*%
G36*
G01*
X-33500000Y-50055000D02*
X-33500000Y-49755000D01*
G75*
G02*
X-33350000Y-49605000I150000J0D01*
G01*
X-31700000Y-49605000D01*
G75*
G02*
X-31550000Y-49755000I0J-150000D01*
G01*
X-31550000Y-50055000D01*
G75*
G02*
X-31700000Y-50205000I-150000J0D01*
G01*
X-33350000Y-50205000D01*
G75*
G02*
X-33500000Y-50055000I0J150000D01*
G01*
G37*
%TD.AperFunction*%
%TO.P,U2,6*%
%TO.N,Net-(J8-Pad2)*%
%TA.AperFunction,SMDPad,CuDef*%
G36*
G01*
X-33500000Y-48785000D02*
X-33500000Y-48485000D01*
G75*
G02*
X-33350000Y-48335000I150000J0D01*
G01*
X-31700000Y-48335000D01*
G75*
G02*
X-31550000Y-48485000I0J-150000D01*
G01*
X-31550000Y-48785000D01*
G75*
G02*
X-31700000Y-48935000I-150000J0D01*
G01*
X-33350000Y-48935000D01*
G75*
G02*
X-33500000Y-48785000I0J150000D01*
G01*
G37*
%TD.AperFunction*%
%TO.P,U2,7*%
%TO.N,Net-(U2-Pad7)*%
%TA.AperFunction,SMDPad,CuDef*%
G36*
G01*
X-33500000Y-47515000D02*
X-33500000Y-47215000D01*
G75*
G02*
X-33350000Y-47065000I150000J0D01*
G01*
X-31700000Y-47065000D01*
G75*
G02*
X-31550000Y-47215000I0J-150000D01*
G01*
X-31550000Y-47515000D01*
G75*
G02*
X-31700000Y-47665000I-150000J0D01*
G01*
X-33350000Y-47665000D01*
G75*
G02*
X-33500000Y-47515000I0J150000D01*
G01*
G37*
%TD.AperFunction*%
%TO.P,U2,8*%
%TO.N,+5V*%
%TA.AperFunction,SMDPad,CuDef*%
G36*
G01*
X-33500000Y-46245000D02*
X-33500000Y-45945000D01*
G75*
G02*
X-33350000Y-45795000I150000J0D01*
G01*
X-31700000Y-45795000D01*
G75*
G02*
X-31550000Y-45945000I0J-150000D01*
G01*
X-31550000Y-46245000D01*
G75*
G02*
X-31700000Y-46395000I-150000J0D01*
G01*
X-33350000Y-46395000D01*
G75*
G02*
X-33500000Y-46245000I0J150000D01*
G01*
G37*
%TD.AperFunction*%
%TD*%
D21*
%TO.P,U3,1*%
%TO.N,+12V*%
X52600000Y-56775000D03*
%TO.P,U3,2*%
%TO.N,Net-(D1-Pad1)*%
X54300000Y-56775000D03*
%TO.P,U3,3*%
%TO.N,GND*%
X56000000Y-56775000D03*
%TO.P,U3,4*%
%TO.N,+5V*%
X57700000Y-56775000D03*
%TO.P,U3,5*%
%TO.N,GND*%
X59400000Y-56775000D03*
D22*
%TO.P,U3,3*%
X56000000Y-47625000D03*
%TD*%
%TO.P,U5,16*%
%TO.N,+5V*%
%TA.AperFunction,SMDPad,CuDef*%
G36*
G01*
X-64295000Y-55500000D02*
X-64595000Y-55500000D01*
G75*
G02*
X-64745000Y-55350000I0J150000D01*
G01*
X-64745000Y-53700000D01*
G75*
G02*
X-64595000Y-53550000I150000J0D01*
G01*
X-64295000Y-53550000D01*
G75*
G02*
X-64145000Y-53700000I0J-150000D01*
G01*
X-64145000Y-55350000D01*
G75*
G02*
X-64295000Y-55500000I-150000J0D01*
G01*
G37*
%TD.AperFunction*%
%TO.P,U5,15*%
%TO.N,/C0*%
%TA.AperFunction,SMDPad,CuDef*%
G36*
G01*
X-63025000Y-55500000D02*
X-63325000Y-55500000D01*
G75*
G02*
X-63475000Y-55350000I0J150000D01*
G01*
X-63475000Y-53700000D01*
G75*
G02*
X-63325000Y-53550000I150000J0D01*
G01*
X-63025000Y-53550000D01*
G75*
G02*
X-62875000Y-53700000I0J-150000D01*
G01*
X-62875000Y-55350000D01*
G75*
G02*
X-63025000Y-55500000I-150000J0D01*
G01*
G37*
%TD.AperFunction*%
%TO.P,U5,14*%
%TO.N,Net-(U1-Pad6)*%
%TA.AperFunction,SMDPad,CuDef*%
G36*
G01*
X-61755000Y-55500000D02*
X-62055000Y-55500000D01*
G75*
G02*
X-62205000Y-55350000I0J150000D01*
G01*
X-62205000Y-53700000D01*
G75*
G02*
X-62055000Y-53550000I150000J0D01*
G01*
X-61755000Y-53550000D01*
G75*
G02*
X-61605000Y-53700000I0J-150000D01*
G01*
X-61605000Y-55350000D01*
G75*
G02*
X-61755000Y-55500000I-150000J0D01*
G01*
G37*
%TD.AperFunction*%
%TO.P,U5,13*%
%TO.N,GND*%
%TA.AperFunction,SMDPad,CuDef*%
G36*
G01*
X-60485000Y-55500000D02*
X-60785000Y-55500000D01*
G75*
G02*
X-60935000Y-55350000I0J150000D01*
G01*
X-60935000Y-53700000D01*
G75*
G02*
X-60785000Y-53550000I150000J0D01*
G01*
X-60485000Y-53550000D01*
G75*
G02*
X-60335000Y-53700000I0J-150000D01*
G01*
X-60335000Y-55350000D01*
G75*
G02*
X-60485000Y-55500000I-150000J0D01*
G01*
G37*
%TD.AperFunction*%
%TO.P,U5,12*%
%TO.N,/RCLK*%
%TA.AperFunction,SMDPad,CuDef*%
G36*
G01*
X-59215000Y-55500000D02*
X-59515000Y-55500000D01*
G75*
G02*
X-59665000Y-55350000I0J150000D01*
G01*
X-59665000Y-53700000D01*
G75*
G02*
X-59515000Y-53550000I150000J0D01*
G01*
X-59215000Y-53550000D01*
G75*
G02*
X-59065000Y-53700000I0J-150000D01*
G01*
X-59065000Y-55350000D01*
G75*
G02*
X-59215000Y-55500000I-150000J0D01*
G01*
G37*
%TD.AperFunction*%
%TO.P,U5,11*%
%TO.N,/SRCLK*%
%TA.AperFunction,SMDPad,CuDef*%
G36*
G01*
X-57945000Y-55500000D02*
X-58245000Y-55500000D01*
G75*
G02*
X-58395000Y-55350000I0J150000D01*
G01*
X-58395000Y-53700000D01*
G75*
G02*
X-58245000Y-53550000I150000J0D01*
G01*
X-57945000Y-53550000D01*
G75*
G02*
X-57795000Y-53700000I0J-150000D01*
G01*
X-57795000Y-55350000D01*
G75*
G02*
X-57945000Y-55500000I-150000J0D01*
G01*
G37*
%TD.AperFunction*%
%TO.P,U5,10*%
%TO.N,+5V*%
%TA.AperFunction,SMDPad,CuDef*%
G36*
G01*
X-56675000Y-55500000D02*
X-56975000Y-55500000D01*
G75*
G02*
X-57125000Y-55350000I0J150000D01*
G01*
X-57125000Y-53700000D01*
G75*
G02*
X-56975000Y-53550000I150000J0D01*
G01*
X-56675000Y-53550000D01*
G75*
G02*
X-56525000Y-53700000I0J-150000D01*
G01*
X-56525000Y-55350000D01*
G75*
G02*
X-56675000Y-55500000I-150000J0D01*
G01*
G37*
%TD.AperFunction*%
%TO.P,U5,9*%
%TO.N,Net-(U5-Pad9)*%
%TA.AperFunction,SMDPad,CuDef*%
G36*
G01*
X-55405000Y-55500000D02*
X-55705000Y-55500000D01*
G75*
G02*
X-55855000Y-55350000I0J150000D01*
G01*
X-55855000Y-53700000D01*
G75*
G02*
X-55705000Y-53550000I150000J0D01*
G01*
X-55405000Y-53550000D01*
G75*
G02*
X-55255000Y-53700000I0J-150000D01*
G01*
X-55255000Y-55350000D01*
G75*
G02*
X-55405000Y-55500000I-150000J0D01*
G01*
G37*
%TD.AperFunction*%
%TO.P,U5,8*%
%TO.N,GND*%
%TA.AperFunction,SMDPad,CuDef*%
G36*
G01*
X-55405000Y-60450000D02*
X-55705000Y-60450000D01*
G75*
G02*
X-55855000Y-60300000I0J150000D01*
G01*
X-55855000Y-58650000D01*
G75*
G02*
X-55705000Y-58500000I150000J0D01*
G01*
X-55405000Y-58500000D01*
G75*
G02*
X-55255000Y-58650000I0J-150000D01*
G01*
X-55255000Y-60300000D01*
G75*
G02*
X-55405000Y-60450000I-150000J0D01*
G01*
G37*
%TD.AperFunction*%
%TO.P,U5,7*%
%TO.N,/C7*%
%TA.AperFunction,SMDPad,CuDef*%
G36*
G01*
X-56675000Y-60450000D02*
X-56975000Y-60450000D01*
G75*
G02*
X-57125000Y-60300000I0J150000D01*
G01*
X-57125000Y-58650000D01*
G75*
G02*
X-56975000Y-58500000I150000J0D01*
G01*
X-56675000Y-58500000D01*
G75*
G02*
X-56525000Y-58650000I0J-150000D01*
G01*
X-56525000Y-60300000D01*
G75*
G02*
X-56675000Y-60450000I-150000J0D01*
G01*
G37*
%TD.AperFunction*%
%TO.P,U5,6*%
%TO.N,/C6*%
%TA.AperFunction,SMDPad,CuDef*%
G36*
G01*
X-57945000Y-60450000D02*
X-58245000Y-60450000D01*
G75*
G02*
X-58395000Y-60300000I0J150000D01*
G01*
X-58395000Y-58650000D01*
G75*
G02*
X-58245000Y-58500000I150000J0D01*
G01*
X-57945000Y-58500000D01*
G75*
G02*
X-57795000Y-58650000I0J-150000D01*
G01*
X-57795000Y-60300000D01*
G75*
G02*
X-57945000Y-60450000I-150000J0D01*
G01*
G37*
%TD.AperFunction*%
%TO.P,U5,5*%
%TO.N,/C5*%
%TA.AperFunction,SMDPad,CuDef*%
G36*
G01*
X-59215000Y-60450000D02*
X-59515000Y-60450000D01*
G75*
G02*
X-59665000Y-60300000I0J150000D01*
G01*
X-59665000Y-58650000D01*
G75*
G02*
X-59515000Y-58500000I150000J0D01*
G01*
X-59215000Y-58500000D01*
G75*
G02*
X-59065000Y-58650000I0J-150000D01*
G01*
X-59065000Y-60300000D01*
G75*
G02*
X-59215000Y-60450000I-150000J0D01*
G01*
G37*
%TD.AperFunction*%
%TO.P,U5,4*%
%TO.N,/C4*%
%TA.AperFunction,SMDPad,CuDef*%
G36*
G01*
X-60485000Y-60450000D02*
X-60785000Y-60450000D01*
G75*
G02*
X-60935000Y-60300000I0J150000D01*
G01*
X-60935000Y-58650000D01*
G75*
G02*
X-60785000Y-58500000I150000J0D01*
G01*
X-60485000Y-58500000D01*
G75*
G02*
X-60335000Y-58650000I0J-150000D01*
G01*
X-60335000Y-60300000D01*
G75*
G02*
X-60485000Y-60450000I-150000J0D01*
G01*
G37*
%TD.AperFunction*%
%TO.P,U5,3*%
%TO.N,/C3*%
%TA.AperFunction,SMDPad,CuDef*%
G36*
G01*
X-61755000Y-60450000D02*
X-62055000Y-60450000D01*
G75*
G02*
X-62205000Y-60300000I0J150000D01*
G01*
X-62205000Y-58650000D01*
G75*
G02*
X-62055000Y-58500000I150000J0D01*
G01*
X-61755000Y-58500000D01*
G75*
G02*
X-61605000Y-58650000I0J-150000D01*
G01*
X-61605000Y-60300000D01*
G75*
G02*
X-61755000Y-60450000I-150000J0D01*
G01*
G37*
%TD.AperFunction*%
%TO.P,U5,2*%
%TO.N,/C2*%
%TA.AperFunction,SMDPad,CuDef*%
G36*
G01*
X-63025000Y-60450000D02*
X-63325000Y-60450000D01*
G75*
G02*
X-63475000Y-60300000I0J150000D01*
G01*
X-63475000Y-58650000D01*
G75*
G02*
X-63325000Y-58500000I150000J0D01*
G01*
X-63025000Y-58500000D01*
G75*
G02*
X-62875000Y-58650000I0J-150000D01*
G01*
X-62875000Y-60300000D01*
G75*
G02*
X-63025000Y-60450000I-150000J0D01*
G01*
G37*
%TD.AperFunction*%
%TO.P,U5,1*%
%TO.N,/C1*%
%TA.AperFunction,SMDPad,CuDef*%
G36*
G01*
X-64295000Y-60450000D02*
X-64595000Y-60450000D01*
G75*
G02*
X-64745000Y-60300000I0J150000D01*
G01*
X-64745000Y-58650000D01*
G75*
G02*
X-64595000Y-58500000I150000J0D01*
G01*
X-64295000Y-58500000D01*
G75*
G02*
X-64145000Y-58650000I0J-150000D01*
G01*
X-64145000Y-60300000D01*
G75*
G02*
X-64295000Y-60450000I-150000J0D01*
G01*
G37*
%TD.AperFunction*%
%TD*%
%TO.P,U9,16*%
%TO.N,+5V*%
%TA.AperFunction,SMDPad,CuDef*%
G36*
G01*
X-16295000Y-55500000D02*
X-16595000Y-55500000D01*
G75*
G02*
X-16745000Y-55350000I0J150000D01*
G01*
X-16745000Y-53700000D01*
G75*
G02*
X-16595000Y-53550000I150000J0D01*
G01*
X-16295000Y-53550000D01*
G75*
G02*
X-16145000Y-53700000I0J-150000D01*
G01*
X-16145000Y-55350000D01*
G75*
G02*
X-16295000Y-55500000I-150000J0D01*
G01*
G37*
%TD.AperFunction*%
%TO.P,U9,15*%
%TO.N,/C32*%
%TA.AperFunction,SMDPad,CuDef*%
G36*
G01*
X-15025000Y-55500000D02*
X-15325000Y-55500000D01*
G75*
G02*
X-15475000Y-55350000I0J150000D01*
G01*
X-15475000Y-53700000D01*
G75*
G02*
X-15325000Y-53550000I150000J0D01*
G01*
X-15025000Y-53550000D01*
G75*
G02*
X-14875000Y-53700000I0J-150000D01*
G01*
X-14875000Y-55350000D01*
G75*
G02*
X-15025000Y-55500000I-150000J0D01*
G01*
G37*
%TD.AperFunction*%
%TO.P,U9,14*%
%TO.N,Net-(U8-Pad9)*%
%TA.AperFunction,SMDPad,CuDef*%
G36*
G01*
X-13755000Y-55500000D02*
X-14055000Y-55500000D01*
G75*
G02*
X-14205000Y-55350000I0J150000D01*
G01*
X-14205000Y-53700000D01*
G75*
G02*
X-14055000Y-53550000I150000J0D01*
G01*
X-13755000Y-53550000D01*
G75*
G02*
X-13605000Y-53700000I0J-150000D01*
G01*
X-13605000Y-55350000D01*
G75*
G02*
X-13755000Y-55500000I-150000J0D01*
G01*
G37*
%TD.AperFunction*%
%TO.P,U9,13*%
%TO.N,GND*%
%TA.AperFunction,SMDPad,CuDef*%
G36*
G01*
X-12485000Y-55500000D02*
X-12785000Y-55500000D01*
G75*
G02*
X-12935000Y-55350000I0J150000D01*
G01*
X-12935000Y-53700000D01*
G75*
G02*
X-12785000Y-53550000I150000J0D01*
G01*
X-12485000Y-53550000D01*
G75*
G02*
X-12335000Y-53700000I0J-150000D01*
G01*
X-12335000Y-55350000D01*
G75*
G02*
X-12485000Y-55500000I-150000J0D01*
G01*
G37*
%TD.AperFunction*%
%TO.P,U9,12*%
%TO.N,/RCLK*%
%TA.AperFunction,SMDPad,CuDef*%
G36*
G01*
X-11215000Y-55500000D02*
X-11515000Y-55500000D01*
G75*
G02*
X-11665000Y-55350000I0J150000D01*
G01*
X-11665000Y-53700000D01*
G75*
G02*
X-11515000Y-53550000I150000J0D01*
G01*
X-11215000Y-53550000D01*
G75*
G02*
X-11065000Y-53700000I0J-150000D01*
G01*
X-11065000Y-55350000D01*
G75*
G02*
X-11215000Y-55500000I-150000J0D01*
G01*
G37*
%TD.AperFunction*%
%TO.P,U9,11*%
%TO.N,/SRCLK*%
%TA.AperFunction,SMDPad,CuDef*%
G36*
G01*
X-9945000Y-55500000D02*
X-10245000Y-55500000D01*
G75*
G02*
X-10395000Y-55350000I0J150000D01*
G01*
X-10395000Y-53700000D01*
G75*
G02*
X-10245000Y-53550000I150000J0D01*
G01*
X-9945000Y-53550000D01*
G75*
G02*
X-9795000Y-53700000I0J-150000D01*
G01*
X-9795000Y-55350000D01*
G75*
G02*
X-9945000Y-55500000I-150000J0D01*
G01*
G37*
%TD.AperFunction*%
%TO.P,U9,10*%
%TO.N,+5V*%
%TA.AperFunction,SMDPad,CuDef*%
G36*
G01*
X-8675000Y-55500000D02*
X-8975000Y-55500000D01*
G75*
G02*
X-9125000Y-55350000I0J150000D01*
G01*
X-9125000Y-53700000D01*
G75*
G02*
X-8975000Y-53550000I150000J0D01*
G01*
X-8675000Y-53550000D01*
G75*
G02*
X-8525000Y-53700000I0J-150000D01*
G01*
X-8525000Y-55350000D01*
G75*
G02*
X-8675000Y-55500000I-150000J0D01*
G01*
G37*
%TD.AperFunction*%
%TO.P,U9,9*%
%TO.N,Net-(U10-Pad14)*%
%TA.AperFunction,SMDPad,CuDef*%
G36*
G01*
X-7405000Y-55500000D02*
X-7705000Y-55500000D01*
G75*
G02*
X-7855000Y-55350000I0J150000D01*
G01*
X-7855000Y-53700000D01*
G75*
G02*
X-7705000Y-53550000I150000J0D01*
G01*
X-7405000Y-53550000D01*
G75*
G02*
X-7255000Y-53700000I0J-150000D01*
G01*
X-7255000Y-55350000D01*
G75*
G02*
X-7405000Y-55500000I-150000J0D01*
G01*
G37*
%TD.AperFunction*%
%TO.P,U9,8*%
%TO.N,GND*%
%TA.AperFunction,SMDPad,CuDef*%
G36*
G01*
X-7405000Y-60450000D02*
X-7705000Y-60450000D01*
G75*
G02*
X-7855000Y-60300000I0J150000D01*
G01*
X-7855000Y-58650000D01*
G75*
G02*
X-7705000Y-58500000I150000J0D01*
G01*
X-7405000Y-58500000D01*
G75*
G02*
X-7255000Y-58650000I0J-150000D01*
G01*
X-7255000Y-60300000D01*
G75*
G02*
X-7405000Y-60450000I-150000J0D01*
G01*
G37*
%TD.AperFunction*%
%TO.P,U9,7*%
%TO.N,/C39*%
%TA.AperFunction,SMDPad,CuDef*%
G36*
G01*
X-8675000Y-60450000D02*
X-8975000Y-60450000D01*
G75*
G02*
X-9125000Y-60300000I0J150000D01*
G01*
X-9125000Y-58650000D01*
G75*
G02*
X-8975000Y-58500000I150000J0D01*
G01*
X-8675000Y-58500000D01*
G75*
G02*
X-8525000Y-58650000I0J-150000D01*
G01*
X-8525000Y-60300000D01*
G75*
G02*
X-8675000Y-60450000I-150000J0D01*
G01*
G37*
%TD.AperFunction*%
%TO.P,U9,6*%
%TO.N,/C38*%
%TA.AperFunction,SMDPad,CuDef*%
G36*
G01*
X-9945000Y-60450000D02*
X-10245000Y-60450000D01*
G75*
G02*
X-10395000Y-60300000I0J150000D01*
G01*
X-10395000Y-58650000D01*
G75*
G02*
X-10245000Y-58500000I150000J0D01*
G01*
X-9945000Y-58500000D01*
G75*
G02*
X-9795000Y-58650000I0J-150000D01*
G01*
X-9795000Y-60300000D01*
G75*
G02*
X-9945000Y-60450000I-150000J0D01*
G01*
G37*
%TD.AperFunction*%
%TO.P,U9,5*%
%TO.N,/C37*%
%TA.AperFunction,SMDPad,CuDef*%
G36*
G01*
X-11215000Y-60450000D02*
X-11515000Y-60450000D01*
G75*
G02*
X-11665000Y-60300000I0J150000D01*
G01*
X-11665000Y-58650000D01*
G75*
G02*
X-11515000Y-58500000I150000J0D01*
G01*
X-11215000Y-58500000D01*
G75*
G02*
X-11065000Y-58650000I0J-150000D01*
G01*
X-11065000Y-60300000D01*
G75*
G02*
X-11215000Y-60450000I-150000J0D01*
G01*
G37*
%TD.AperFunction*%
%TO.P,U9,4*%
%TO.N,/C36*%
%TA.AperFunction,SMDPad,CuDef*%
G36*
G01*
X-12485000Y-60450000D02*
X-12785000Y-60450000D01*
G75*
G02*
X-12935000Y-60300000I0J150000D01*
G01*
X-12935000Y-58650000D01*
G75*
G02*
X-12785000Y-58500000I150000J0D01*
G01*
X-12485000Y-58500000D01*
G75*
G02*
X-12335000Y-58650000I0J-150000D01*
G01*
X-12335000Y-60300000D01*
G75*
G02*
X-12485000Y-60450000I-150000J0D01*
G01*
G37*
%TD.AperFunction*%
%TO.P,U9,3*%
%TO.N,/C35*%
%TA.AperFunction,SMDPad,CuDef*%
G36*
G01*
X-13755000Y-60450000D02*
X-14055000Y-60450000D01*
G75*
G02*
X-14205000Y-60300000I0J150000D01*
G01*
X-14205000Y-58650000D01*
G75*
G02*
X-14055000Y-58500000I150000J0D01*
G01*
X-13755000Y-58500000D01*
G75*
G02*
X-13605000Y-58650000I0J-150000D01*
G01*
X-13605000Y-60300000D01*
G75*
G02*
X-13755000Y-60450000I-150000J0D01*
G01*
G37*
%TD.AperFunction*%
%TO.P,U9,2*%
%TO.N,/C34*%
%TA.AperFunction,SMDPad,CuDef*%
G36*
G01*
X-15025000Y-60450000D02*
X-15325000Y-60450000D01*
G75*
G02*
X-15475000Y-60300000I0J150000D01*
G01*
X-15475000Y-58650000D01*
G75*
G02*
X-15325000Y-58500000I150000J0D01*
G01*
X-15025000Y-58500000D01*
G75*
G02*
X-14875000Y-58650000I0J-150000D01*
G01*
X-14875000Y-60300000D01*
G75*
G02*
X-15025000Y-60450000I-150000J0D01*
G01*
G37*
%TD.AperFunction*%
%TO.P,U9,1*%
%TO.N,/C33*%
%TA.AperFunction,SMDPad,CuDef*%
G36*
G01*
X-16295000Y-60450000D02*
X-16595000Y-60450000D01*
G75*
G02*
X-16745000Y-60300000I0J150000D01*
G01*
X-16745000Y-58650000D01*
G75*
G02*
X-16595000Y-58500000I150000J0D01*
G01*
X-16295000Y-58500000D01*
G75*
G02*
X-16145000Y-58650000I0J-150000D01*
G01*
X-16145000Y-60300000D01*
G75*
G02*
X-16295000Y-60450000I-150000J0D01*
G01*
G37*
%TD.AperFunction*%
%TD*%
%TO.P,U6,1*%
%TO.N,/C9*%
%TA.AperFunction,SMDPad,CuDef*%
G36*
G01*
X-52295000Y-60450000D02*
X-52595000Y-60450000D01*
G75*
G02*
X-52745000Y-60300000I0J150000D01*
G01*
X-52745000Y-58650000D01*
G75*
G02*
X-52595000Y-58500000I150000J0D01*
G01*
X-52295000Y-58500000D01*
G75*
G02*
X-52145000Y-58650000I0J-150000D01*
G01*
X-52145000Y-60300000D01*
G75*
G02*
X-52295000Y-60450000I-150000J0D01*
G01*
G37*
%TD.AperFunction*%
%TO.P,U6,2*%
%TO.N,/C10*%
%TA.AperFunction,SMDPad,CuDef*%
G36*
G01*
X-51025000Y-60450000D02*
X-51325000Y-60450000D01*
G75*
G02*
X-51475000Y-60300000I0J150000D01*
G01*
X-51475000Y-58650000D01*
G75*
G02*
X-51325000Y-58500000I150000J0D01*
G01*
X-51025000Y-58500000D01*
G75*
G02*
X-50875000Y-58650000I0J-150000D01*
G01*
X-50875000Y-60300000D01*
G75*
G02*
X-51025000Y-60450000I-150000J0D01*
G01*
G37*
%TD.AperFunction*%
%TO.P,U6,3*%
%TO.N,/C11*%
%TA.AperFunction,SMDPad,CuDef*%
G36*
G01*
X-49755000Y-60450000D02*
X-50055000Y-60450000D01*
G75*
G02*
X-50205000Y-60300000I0J150000D01*
G01*
X-50205000Y-58650000D01*
G75*
G02*
X-50055000Y-58500000I150000J0D01*
G01*
X-49755000Y-58500000D01*
G75*
G02*
X-49605000Y-58650000I0J-150000D01*
G01*
X-49605000Y-60300000D01*
G75*
G02*
X-49755000Y-60450000I-150000J0D01*
G01*
G37*
%TD.AperFunction*%
%TO.P,U6,4*%
%TO.N,/C12*%
%TA.AperFunction,SMDPad,CuDef*%
G36*
G01*
X-48485000Y-60450000D02*
X-48785000Y-60450000D01*
G75*
G02*
X-48935000Y-60300000I0J150000D01*
G01*
X-48935000Y-58650000D01*
G75*
G02*
X-48785000Y-58500000I150000J0D01*
G01*
X-48485000Y-58500000D01*
G75*
G02*
X-48335000Y-58650000I0J-150000D01*
G01*
X-48335000Y-60300000D01*
G75*
G02*
X-48485000Y-60450000I-150000J0D01*
G01*
G37*
%TD.AperFunction*%
%TO.P,U6,5*%
%TO.N,/C13*%
%TA.AperFunction,SMDPad,CuDef*%
G36*
G01*
X-47215000Y-60450000D02*
X-47515000Y-60450000D01*
G75*
G02*
X-47665000Y-60300000I0J150000D01*
G01*
X-47665000Y-58650000D01*
G75*
G02*
X-47515000Y-58500000I150000J0D01*
G01*
X-47215000Y-58500000D01*
G75*
G02*
X-47065000Y-58650000I0J-150000D01*
G01*
X-47065000Y-60300000D01*
G75*
G02*
X-47215000Y-60450000I-150000J0D01*
G01*
G37*
%TD.AperFunction*%
%TO.P,U6,6*%
%TO.N,/C14*%
%TA.AperFunction,SMDPad,CuDef*%
G36*
G01*
X-45945000Y-60450000D02*
X-46245000Y-60450000D01*
G75*
G02*
X-46395000Y-60300000I0J150000D01*
G01*
X-46395000Y-58650000D01*
G75*
G02*
X-46245000Y-58500000I150000J0D01*
G01*
X-45945000Y-58500000D01*
G75*
G02*
X-45795000Y-58650000I0J-150000D01*
G01*
X-45795000Y-60300000D01*
G75*
G02*
X-45945000Y-60450000I-150000J0D01*
G01*
G37*
%TD.AperFunction*%
%TO.P,U6,7*%
%TO.N,/C15*%
%TA.AperFunction,SMDPad,CuDef*%
G36*
G01*
X-44675000Y-60450000D02*
X-44975000Y-60450000D01*
G75*
G02*
X-45125000Y-60300000I0J150000D01*
G01*
X-45125000Y-58650000D01*
G75*
G02*
X-44975000Y-58500000I150000J0D01*
G01*
X-44675000Y-58500000D01*
G75*
G02*
X-44525000Y-58650000I0J-150000D01*
G01*
X-44525000Y-60300000D01*
G75*
G02*
X-44675000Y-60450000I-150000J0D01*
G01*
G37*
%TD.AperFunction*%
%TO.P,U6,8*%
%TO.N,GND*%
%TA.AperFunction,SMDPad,CuDef*%
G36*
G01*
X-43405000Y-60450000D02*
X-43705000Y-60450000D01*
G75*
G02*
X-43855000Y-60300000I0J150000D01*
G01*
X-43855000Y-58650000D01*
G75*
G02*
X-43705000Y-58500000I150000J0D01*
G01*
X-43405000Y-58500000D01*
G75*
G02*
X-43255000Y-58650000I0J-150000D01*
G01*
X-43255000Y-60300000D01*
G75*
G02*
X-43405000Y-60450000I-150000J0D01*
G01*
G37*
%TD.AperFunction*%
%TO.P,U6,9*%
%TO.N,Net-(U6-Pad9)*%
%TA.AperFunction,SMDPad,CuDef*%
G36*
G01*
X-43405000Y-55500000D02*
X-43705000Y-55500000D01*
G75*
G02*
X-43855000Y-55350000I0J150000D01*
G01*
X-43855000Y-53700000D01*
G75*
G02*
X-43705000Y-53550000I150000J0D01*
G01*
X-43405000Y-53550000D01*
G75*
G02*
X-43255000Y-53700000I0J-150000D01*
G01*
X-43255000Y-55350000D01*
G75*
G02*
X-43405000Y-55500000I-150000J0D01*
G01*
G37*
%TD.AperFunction*%
%TO.P,U6,10*%
%TO.N,+5V*%
%TA.AperFunction,SMDPad,CuDef*%
G36*
G01*
X-44675000Y-55500000D02*
X-44975000Y-55500000D01*
G75*
G02*
X-45125000Y-55350000I0J150000D01*
G01*
X-45125000Y-53700000D01*
G75*
G02*
X-44975000Y-53550000I150000J0D01*
G01*
X-44675000Y-53550000D01*
G75*
G02*
X-44525000Y-53700000I0J-150000D01*
G01*
X-44525000Y-55350000D01*
G75*
G02*
X-44675000Y-55500000I-150000J0D01*
G01*
G37*
%TD.AperFunction*%
%TO.P,U6,11*%
%TO.N,/SRCLK*%
%TA.AperFunction,SMDPad,CuDef*%
G36*
G01*
X-45945000Y-55500000D02*
X-46245000Y-55500000D01*
G75*
G02*
X-46395000Y-55350000I0J150000D01*
G01*
X-46395000Y-53700000D01*
G75*
G02*
X-46245000Y-53550000I150000J0D01*
G01*
X-45945000Y-53550000D01*
G75*
G02*
X-45795000Y-53700000I0J-150000D01*
G01*
X-45795000Y-55350000D01*
G75*
G02*
X-45945000Y-55500000I-150000J0D01*
G01*
G37*
%TD.AperFunction*%
%TO.P,U6,12*%
%TO.N,/RCLK*%
%TA.AperFunction,SMDPad,CuDef*%
G36*
G01*
X-47215000Y-55500000D02*
X-47515000Y-55500000D01*
G75*
G02*
X-47665000Y-55350000I0J150000D01*
G01*
X-47665000Y-53700000D01*
G75*
G02*
X-47515000Y-53550000I150000J0D01*
G01*
X-47215000Y-53550000D01*
G75*
G02*
X-47065000Y-53700000I0J-150000D01*
G01*
X-47065000Y-55350000D01*
G75*
G02*
X-47215000Y-55500000I-150000J0D01*
G01*
G37*
%TD.AperFunction*%
%TO.P,U6,13*%
%TO.N,GND*%
%TA.AperFunction,SMDPad,CuDef*%
G36*
G01*
X-48485000Y-55500000D02*
X-48785000Y-55500000D01*
G75*
G02*
X-48935000Y-55350000I0J150000D01*
G01*
X-48935000Y-53700000D01*
G75*
G02*
X-48785000Y-53550000I150000J0D01*
G01*
X-48485000Y-53550000D01*
G75*
G02*
X-48335000Y-53700000I0J-150000D01*
G01*
X-48335000Y-55350000D01*
G75*
G02*
X-48485000Y-55500000I-150000J0D01*
G01*
G37*
%TD.AperFunction*%
%TO.P,U6,14*%
%TO.N,Net-(U5-Pad9)*%
%TA.AperFunction,SMDPad,CuDef*%
G36*
G01*
X-49755000Y-55500000D02*
X-50055000Y-55500000D01*
G75*
G02*
X-50205000Y-55350000I0J150000D01*
G01*
X-50205000Y-53700000D01*
G75*
G02*
X-50055000Y-53550000I150000J0D01*
G01*
X-49755000Y-53550000D01*
G75*
G02*
X-49605000Y-53700000I0J-150000D01*
G01*
X-49605000Y-55350000D01*
G75*
G02*
X-49755000Y-55500000I-150000J0D01*
G01*
G37*
%TD.AperFunction*%
%TO.P,U6,15*%
%TO.N,/C8*%
%TA.AperFunction,SMDPad,CuDef*%
G36*
G01*
X-51025000Y-55500000D02*
X-51325000Y-55500000D01*
G75*
G02*
X-51475000Y-55350000I0J150000D01*
G01*
X-51475000Y-53700000D01*
G75*
G02*
X-51325000Y-53550000I150000J0D01*
G01*
X-51025000Y-53550000D01*
G75*
G02*
X-50875000Y-53700000I0J-150000D01*
G01*
X-50875000Y-55350000D01*
G75*
G02*
X-51025000Y-55500000I-150000J0D01*
G01*
G37*
%TD.AperFunction*%
%TO.P,U6,16*%
%TO.N,+5V*%
%TA.AperFunction,SMDPad,CuDef*%
G36*
G01*
X-52295000Y-55500000D02*
X-52595000Y-55500000D01*
G75*
G02*
X-52745000Y-55350000I0J150000D01*
G01*
X-52745000Y-53700000D01*
G75*
G02*
X-52595000Y-53550000I150000J0D01*
G01*
X-52295000Y-53550000D01*
G75*
G02*
X-52145000Y-53700000I0J-150000D01*
G01*
X-52145000Y-55350000D01*
G75*
G02*
X-52295000Y-55500000I-150000J0D01*
G01*
G37*
%TD.AperFunction*%
%TD*%
%TO.P,U10,16*%
%TO.N,+5V*%
%TA.AperFunction,SMDPad,CuDef*%
G36*
G01*
X-4295000Y-55500000D02*
X-4595000Y-55500000D01*
G75*
G02*
X-4745000Y-55350000I0J150000D01*
G01*
X-4745000Y-53700000D01*
G75*
G02*
X-4595000Y-53550000I150000J0D01*
G01*
X-4295000Y-53550000D01*
G75*
G02*
X-4145000Y-53700000I0J-150000D01*
G01*
X-4145000Y-55350000D01*
G75*
G02*
X-4295000Y-55500000I-150000J0D01*
G01*
G37*
%TD.AperFunction*%
%TO.P,U10,15*%
%TO.N,/C40*%
%TA.AperFunction,SMDPad,CuDef*%
G36*
G01*
X-3025000Y-55500000D02*
X-3325000Y-55500000D01*
G75*
G02*
X-3475000Y-55350000I0J150000D01*
G01*
X-3475000Y-53700000D01*
G75*
G02*
X-3325000Y-53550000I150000J0D01*
G01*
X-3025000Y-53550000D01*
G75*
G02*
X-2875000Y-53700000I0J-150000D01*
G01*
X-2875000Y-55350000D01*
G75*
G02*
X-3025000Y-55500000I-150000J0D01*
G01*
G37*
%TD.AperFunction*%
%TO.P,U10,14*%
%TO.N,Net-(U10-Pad14)*%
%TA.AperFunction,SMDPad,CuDef*%
G36*
G01*
X-1755000Y-55500000D02*
X-2055000Y-55500000D01*
G75*
G02*
X-2205000Y-55350000I0J150000D01*
G01*
X-2205000Y-53700000D01*
G75*
G02*
X-2055000Y-53550000I150000J0D01*
G01*
X-1755000Y-53550000D01*
G75*
G02*
X-1605000Y-53700000I0J-150000D01*
G01*
X-1605000Y-55350000D01*
G75*
G02*
X-1755000Y-55500000I-150000J0D01*
G01*
G37*
%TD.AperFunction*%
%TO.P,U10,13*%
%TO.N,GND*%
%TA.AperFunction,SMDPad,CuDef*%
G36*
G01*
X-485000Y-55500000D02*
X-785000Y-55500000D01*
G75*
G02*
X-935000Y-55350000I0J150000D01*
G01*
X-935000Y-53700000D01*
G75*
G02*
X-785000Y-53550000I150000J0D01*
G01*
X-485000Y-53550000D01*
G75*
G02*
X-335000Y-53700000I0J-150000D01*
G01*
X-335000Y-55350000D01*
G75*
G02*
X-485000Y-55500000I-150000J0D01*
G01*
G37*
%TD.AperFunction*%
%TO.P,U10,12*%
%TO.N,/RCLK*%
%TA.AperFunction,SMDPad,CuDef*%
G36*
G01*
X785000Y-55500000D02*
X485000Y-55500000D01*
G75*
G02*
X335000Y-55350000I0J150000D01*
G01*
X335000Y-53700000D01*
G75*
G02*
X485000Y-53550000I150000J0D01*
G01*
X785000Y-53550000D01*
G75*
G02*
X935000Y-53700000I0J-150000D01*
G01*
X935000Y-55350000D01*
G75*
G02*
X785000Y-55500000I-150000J0D01*
G01*
G37*
%TD.AperFunction*%
%TO.P,U10,11*%
%TO.N,/SRCLK*%
%TA.AperFunction,SMDPad,CuDef*%
G36*
G01*
X2055000Y-55500000D02*
X1755000Y-55500000D01*
G75*
G02*
X1605000Y-55350000I0J150000D01*
G01*
X1605000Y-53700000D01*
G75*
G02*
X1755000Y-53550000I150000J0D01*
G01*
X2055000Y-53550000D01*
G75*
G02*
X2205000Y-53700000I0J-150000D01*
G01*
X2205000Y-55350000D01*
G75*
G02*
X2055000Y-55500000I-150000J0D01*
G01*
G37*
%TD.AperFunction*%
%TO.P,U10,10*%
%TO.N,+5V*%
%TA.AperFunction,SMDPad,CuDef*%
G36*
G01*
X3325000Y-55500000D02*
X3025000Y-55500000D01*
G75*
G02*
X2875000Y-55350000I0J150000D01*
G01*
X2875000Y-53700000D01*
G75*
G02*
X3025000Y-53550000I150000J0D01*
G01*
X3325000Y-53550000D01*
G75*
G02*
X3475000Y-53700000I0J-150000D01*
G01*
X3475000Y-55350000D01*
G75*
G02*
X3325000Y-55500000I-150000J0D01*
G01*
G37*
%TD.AperFunction*%
%TO.P,U10,9*%
%TO.N,Net-(U10-Pad9)*%
%TA.AperFunction,SMDPad,CuDef*%
G36*
G01*
X4595000Y-55500000D02*
X4295000Y-55500000D01*
G75*
G02*
X4145000Y-55350000I0J150000D01*
G01*
X4145000Y-53700000D01*
G75*
G02*
X4295000Y-53550000I150000J0D01*
G01*
X4595000Y-53550000D01*
G75*
G02*
X4745000Y-53700000I0J-150000D01*
G01*
X4745000Y-55350000D01*
G75*
G02*
X4595000Y-55500000I-150000J0D01*
G01*
G37*
%TD.AperFunction*%
%TO.P,U10,8*%
%TO.N,GND*%
%TA.AperFunction,SMDPad,CuDef*%
G36*
G01*
X4595000Y-60450000D02*
X4295000Y-60450000D01*
G75*
G02*
X4145000Y-60300000I0J150000D01*
G01*
X4145000Y-58650000D01*
G75*
G02*
X4295000Y-58500000I150000J0D01*
G01*
X4595000Y-58500000D01*
G75*
G02*
X4745000Y-58650000I0J-150000D01*
G01*
X4745000Y-60300000D01*
G75*
G02*
X4595000Y-60450000I-150000J0D01*
G01*
G37*
%TD.AperFunction*%
%TO.P,U10,7*%
%TO.N,/C47*%
%TA.AperFunction,SMDPad,CuDef*%
G36*
G01*
X3325000Y-60450000D02*
X3025000Y-60450000D01*
G75*
G02*
X2875000Y-60300000I0J150000D01*
G01*
X2875000Y-58650000D01*
G75*
G02*
X3025000Y-58500000I150000J0D01*
G01*
X3325000Y-58500000D01*
G75*
G02*
X3475000Y-58650000I0J-150000D01*
G01*
X3475000Y-60300000D01*
G75*
G02*
X3325000Y-60450000I-150000J0D01*
G01*
G37*
%TD.AperFunction*%
%TO.P,U10,6*%
%TO.N,/C46*%
%TA.AperFunction,SMDPad,CuDef*%
G36*
G01*
X2055000Y-60450000D02*
X1755000Y-60450000D01*
G75*
G02*
X1605000Y-60300000I0J150000D01*
G01*
X1605000Y-58650000D01*
G75*
G02*
X1755000Y-58500000I150000J0D01*
G01*
X2055000Y-58500000D01*
G75*
G02*
X2205000Y-58650000I0J-150000D01*
G01*
X2205000Y-60300000D01*
G75*
G02*
X2055000Y-60450000I-150000J0D01*
G01*
G37*
%TD.AperFunction*%
%TO.P,U10,5*%
%TO.N,/C45*%
%TA.AperFunction,SMDPad,CuDef*%
G36*
G01*
X785000Y-60450000D02*
X485000Y-60450000D01*
G75*
G02*
X335000Y-60300000I0J150000D01*
G01*
X335000Y-58650000D01*
G75*
G02*
X485000Y-58500000I150000J0D01*
G01*
X785000Y-58500000D01*
G75*
G02*
X935000Y-58650000I0J-150000D01*
G01*
X935000Y-60300000D01*
G75*
G02*
X785000Y-60450000I-150000J0D01*
G01*
G37*
%TD.AperFunction*%
%TO.P,U10,4*%
%TO.N,/C44*%
%TA.AperFunction,SMDPad,CuDef*%
G36*
G01*
X-485000Y-60450000D02*
X-785000Y-60450000D01*
G75*
G02*
X-935000Y-60300000I0J150000D01*
G01*
X-935000Y-58650000D01*
G75*
G02*
X-785000Y-58500000I150000J0D01*
G01*
X-485000Y-58500000D01*
G75*
G02*
X-335000Y-58650000I0J-150000D01*
G01*
X-335000Y-60300000D01*
G75*
G02*
X-485000Y-60450000I-150000J0D01*
G01*
G37*
%TD.AperFunction*%
%TO.P,U10,3*%
%TO.N,/C43*%
%TA.AperFunction,SMDPad,CuDef*%
G36*
G01*
X-1755000Y-60450000D02*
X-2055000Y-60450000D01*
G75*
G02*
X-2205000Y-60300000I0J150000D01*
G01*
X-2205000Y-58650000D01*
G75*
G02*
X-2055000Y-58500000I150000J0D01*
G01*
X-1755000Y-58500000D01*
G75*
G02*
X-1605000Y-58650000I0J-150000D01*
G01*
X-1605000Y-60300000D01*
G75*
G02*
X-1755000Y-60450000I-150000J0D01*
G01*
G37*
%TD.AperFunction*%
%TO.P,U10,2*%
%TO.N,/C42*%
%TA.AperFunction,SMDPad,CuDef*%
G36*
G01*
X-3025000Y-60450000D02*
X-3325000Y-60450000D01*
G75*
G02*
X-3475000Y-60300000I0J150000D01*
G01*
X-3475000Y-58650000D01*
G75*
G02*
X-3325000Y-58500000I150000J0D01*
G01*
X-3025000Y-58500000D01*
G75*
G02*
X-2875000Y-58650000I0J-150000D01*
G01*
X-2875000Y-60300000D01*
G75*
G02*
X-3025000Y-60450000I-150000J0D01*
G01*
G37*
%TD.AperFunction*%
%TO.P,U10,1*%
%TO.N,/C41*%
%TA.AperFunction,SMDPad,CuDef*%
G36*
G01*
X-4295000Y-60450000D02*
X-4595000Y-60450000D01*
G75*
G02*
X-4745000Y-60300000I0J150000D01*
G01*
X-4745000Y-58650000D01*
G75*
G02*
X-4595000Y-58500000I150000J0D01*
G01*
X-4295000Y-58500000D01*
G75*
G02*
X-4145000Y-58650000I0J-150000D01*
G01*
X-4145000Y-60300000D01*
G75*
G02*
X-4295000Y-60450000I-150000J0D01*
G01*
G37*
%TD.AperFunction*%
%TD*%
%TO.P,U7,16*%
%TO.N,+5V*%
%TA.AperFunction,SMDPad,CuDef*%
G36*
G01*
X-40295000Y-55500000D02*
X-40595000Y-55500000D01*
G75*
G02*
X-40745000Y-55350000I0J150000D01*
G01*
X-40745000Y-53700000D01*
G75*
G02*
X-40595000Y-53550000I150000J0D01*
G01*
X-40295000Y-53550000D01*
G75*
G02*
X-40145000Y-53700000I0J-150000D01*
G01*
X-40145000Y-55350000D01*
G75*
G02*
X-40295000Y-55500000I-150000J0D01*
G01*
G37*
%TD.AperFunction*%
%TO.P,U7,15*%
%TO.N,/C16*%
%TA.AperFunction,SMDPad,CuDef*%
G36*
G01*
X-39025000Y-55500000D02*
X-39325000Y-55500000D01*
G75*
G02*
X-39475000Y-55350000I0J150000D01*
G01*
X-39475000Y-53700000D01*
G75*
G02*
X-39325000Y-53550000I150000J0D01*
G01*
X-39025000Y-53550000D01*
G75*
G02*
X-38875000Y-53700000I0J-150000D01*
G01*
X-38875000Y-55350000D01*
G75*
G02*
X-39025000Y-55500000I-150000J0D01*
G01*
G37*
%TD.AperFunction*%
%TO.P,U7,14*%
%TO.N,Net-(U6-Pad9)*%
%TA.AperFunction,SMDPad,CuDef*%
G36*
G01*
X-37755000Y-55500000D02*
X-38055000Y-55500000D01*
G75*
G02*
X-38205000Y-55350000I0J150000D01*
G01*
X-38205000Y-53700000D01*
G75*
G02*
X-38055000Y-53550000I150000J0D01*
G01*
X-37755000Y-53550000D01*
G75*
G02*
X-37605000Y-53700000I0J-150000D01*
G01*
X-37605000Y-55350000D01*
G75*
G02*
X-37755000Y-55500000I-150000J0D01*
G01*
G37*
%TD.AperFunction*%
%TO.P,U7,13*%
%TO.N,GND*%
%TA.AperFunction,SMDPad,CuDef*%
G36*
G01*
X-36485000Y-55500000D02*
X-36785000Y-55500000D01*
G75*
G02*
X-36935000Y-55350000I0J150000D01*
G01*
X-36935000Y-53700000D01*
G75*
G02*
X-36785000Y-53550000I150000J0D01*
G01*
X-36485000Y-53550000D01*
G75*
G02*
X-36335000Y-53700000I0J-150000D01*
G01*
X-36335000Y-55350000D01*
G75*
G02*
X-36485000Y-55500000I-150000J0D01*
G01*
G37*
%TD.AperFunction*%
%TO.P,U7,12*%
%TO.N,/RCLK*%
%TA.AperFunction,SMDPad,CuDef*%
G36*
G01*
X-35215000Y-55500000D02*
X-35515000Y-55500000D01*
G75*
G02*
X-35665000Y-55350000I0J150000D01*
G01*
X-35665000Y-53700000D01*
G75*
G02*
X-35515000Y-53550000I150000J0D01*
G01*
X-35215000Y-53550000D01*
G75*
G02*
X-35065000Y-53700000I0J-150000D01*
G01*
X-35065000Y-55350000D01*
G75*
G02*
X-35215000Y-55500000I-150000J0D01*
G01*
G37*
%TD.AperFunction*%
%TO.P,U7,11*%
%TO.N,/SRCLK*%
%TA.AperFunction,SMDPad,CuDef*%
G36*
G01*
X-33945000Y-55500000D02*
X-34245000Y-55500000D01*
G75*
G02*
X-34395000Y-55350000I0J150000D01*
G01*
X-34395000Y-53700000D01*
G75*
G02*
X-34245000Y-53550000I150000J0D01*
G01*
X-33945000Y-53550000D01*
G75*
G02*
X-33795000Y-53700000I0J-150000D01*
G01*
X-33795000Y-55350000D01*
G75*
G02*
X-33945000Y-55500000I-150000J0D01*
G01*
G37*
%TD.AperFunction*%
%TO.P,U7,10*%
%TO.N,+5V*%
%TA.AperFunction,SMDPad,CuDef*%
G36*
G01*
X-32675000Y-55500000D02*
X-32975000Y-55500000D01*
G75*
G02*
X-33125000Y-55350000I0J150000D01*
G01*
X-33125000Y-53700000D01*
G75*
G02*
X-32975000Y-53550000I150000J0D01*
G01*
X-32675000Y-53550000D01*
G75*
G02*
X-32525000Y-53700000I0J-150000D01*
G01*
X-32525000Y-55350000D01*
G75*
G02*
X-32675000Y-55500000I-150000J0D01*
G01*
G37*
%TD.AperFunction*%
%TO.P,U7,9*%
%TO.N,Net-(U7-Pad9)*%
%TA.AperFunction,SMDPad,CuDef*%
G36*
G01*
X-31405000Y-55500000D02*
X-31705000Y-55500000D01*
G75*
G02*
X-31855000Y-55350000I0J150000D01*
G01*
X-31855000Y-53700000D01*
G75*
G02*
X-31705000Y-53550000I150000J0D01*
G01*
X-31405000Y-53550000D01*
G75*
G02*
X-31255000Y-53700000I0J-150000D01*
G01*
X-31255000Y-55350000D01*
G75*
G02*
X-31405000Y-55500000I-150000J0D01*
G01*
G37*
%TD.AperFunction*%
%TO.P,U7,8*%
%TO.N,GND*%
%TA.AperFunction,SMDPad,CuDef*%
G36*
G01*
X-31405000Y-60450000D02*
X-31705000Y-60450000D01*
G75*
G02*
X-31855000Y-60300000I0J150000D01*
G01*
X-31855000Y-58650000D01*
G75*
G02*
X-31705000Y-58500000I150000J0D01*
G01*
X-31405000Y-58500000D01*
G75*
G02*
X-31255000Y-58650000I0J-150000D01*
G01*
X-31255000Y-60300000D01*
G75*
G02*
X-31405000Y-60450000I-150000J0D01*
G01*
G37*
%TD.AperFunction*%
%TO.P,U7,7*%
%TO.N,/C23*%
%TA.AperFunction,SMDPad,CuDef*%
G36*
G01*
X-32675000Y-60450000D02*
X-32975000Y-60450000D01*
G75*
G02*
X-33125000Y-60300000I0J150000D01*
G01*
X-33125000Y-58650000D01*
G75*
G02*
X-32975000Y-58500000I150000J0D01*
G01*
X-32675000Y-58500000D01*
G75*
G02*
X-32525000Y-58650000I0J-150000D01*
G01*
X-32525000Y-60300000D01*
G75*
G02*
X-32675000Y-60450000I-150000J0D01*
G01*
G37*
%TD.AperFunction*%
%TO.P,U7,6*%
%TO.N,/C22*%
%TA.AperFunction,SMDPad,CuDef*%
G36*
G01*
X-33945000Y-60450000D02*
X-34245000Y-60450000D01*
G75*
G02*
X-34395000Y-60300000I0J150000D01*
G01*
X-34395000Y-58650000D01*
G75*
G02*
X-34245000Y-58500000I150000J0D01*
G01*
X-33945000Y-58500000D01*
G75*
G02*
X-33795000Y-58650000I0J-150000D01*
G01*
X-33795000Y-60300000D01*
G75*
G02*
X-33945000Y-60450000I-150000J0D01*
G01*
G37*
%TD.AperFunction*%
%TO.P,U7,5*%
%TO.N,/C21*%
%TA.AperFunction,SMDPad,CuDef*%
G36*
G01*
X-35215000Y-60450000D02*
X-35515000Y-60450000D01*
G75*
G02*
X-35665000Y-60300000I0J150000D01*
G01*
X-35665000Y-58650000D01*
G75*
G02*
X-35515000Y-58500000I150000J0D01*
G01*
X-35215000Y-58500000D01*
G75*
G02*
X-35065000Y-58650000I0J-150000D01*
G01*
X-35065000Y-60300000D01*
G75*
G02*
X-35215000Y-60450000I-150000J0D01*
G01*
G37*
%TD.AperFunction*%
%TO.P,U7,4*%
%TO.N,/C20*%
%TA.AperFunction,SMDPad,CuDef*%
G36*
G01*
X-36485000Y-60450000D02*
X-36785000Y-60450000D01*
G75*
G02*
X-36935000Y-60300000I0J150000D01*
G01*
X-36935000Y-58650000D01*
G75*
G02*
X-36785000Y-58500000I150000J0D01*
G01*
X-36485000Y-58500000D01*
G75*
G02*
X-36335000Y-58650000I0J-150000D01*
G01*
X-36335000Y-60300000D01*
G75*
G02*
X-36485000Y-60450000I-150000J0D01*
G01*
G37*
%TD.AperFunction*%
%TO.P,U7,3*%
%TO.N,/C19*%
%TA.AperFunction,SMDPad,CuDef*%
G36*
G01*
X-37755000Y-60450000D02*
X-38055000Y-60450000D01*
G75*
G02*
X-38205000Y-60300000I0J150000D01*
G01*
X-38205000Y-58650000D01*
G75*
G02*
X-38055000Y-58500000I150000J0D01*
G01*
X-37755000Y-58500000D01*
G75*
G02*
X-37605000Y-58650000I0J-150000D01*
G01*
X-37605000Y-60300000D01*
G75*
G02*
X-37755000Y-60450000I-150000J0D01*
G01*
G37*
%TD.AperFunction*%
%TO.P,U7,2*%
%TO.N,/C18*%
%TA.AperFunction,SMDPad,CuDef*%
G36*
G01*
X-39025000Y-60450000D02*
X-39325000Y-60450000D01*
G75*
G02*
X-39475000Y-60300000I0J150000D01*
G01*
X-39475000Y-58650000D01*
G75*
G02*
X-39325000Y-58500000I150000J0D01*
G01*
X-39025000Y-58500000D01*
G75*
G02*
X-38875000Y-58650000I0J-150000D01*
G01*
X-38875000Y-60300000D01*
G75*
G02*
X-39025000Y-60450000I-150000J0D01*
G01*
G37*
%TD.AperFunction*%
%TO.P,U7,1*%
%TO.N,/C17*%
%TA.AperFunction,SMDPad,CuDef*%
G36*
G01*
X-40295000Y-60450000D02*
X-40595000Y-60450000D01*
G75*
G02*
X-40745000Y-60300000I0J150000D01*
G01*
X-40745000Y-58650000D01*
G75*
G02*
X-40595000Y-58500000I150000J0D01*
G01*
X-40295000Y-58500000D01*
G75*
G02*
X-40145000Y-58650000I0J-150000D01*
G01*
X-40145000Y-60300000D01*
G75*
G02*
X-40295000Y-60450000I-150000J0D01*
G01*
G37*
%TD.AperFunction*%
%TD*%
%TO.P,U11,1*%
%TO.N,/C49*%
%TA.AperFunction,SMDPad,CuDef*%
G36*
G01*
X7705000Y-60450000D02*
X7405000Y-60450000D01*
G75*
G02*
X7255000Y-60300000I0J150000D01*
G01*
X7255000Y-58650000D01*
G75*
G02*
X7405000Y-58500000I150000J0D01*
G01*
X7705000Y-58500000D01*
G75*
G02*
X7855000Y-58650000I0J-150000D01*
G01*
X7855000Y-60300000D01*
G75*
G02*
X7705000Y-60450000I-150000J0D01*
G01*
G37*
%TD.AperFunction*%
%TO.P,U11,2*%
%TO.N,/C50*%
%TA.AperFunction,SMDPad,CuDef*%
G36*
G01*
X8975000Y-60450000D02*
X8675000Y-60450000D01*
G75*
G02*
X8525000Y-60300000I0J150000D01*
G01*
X8525000Y-58650000D01*
G75*
G02*
X8675000Y-58500000I150000J0D01*
G01*
X8975000Y-58500000D01*
G75*
G02*
X9125000Y-58650000I0J-150000D01*
G01*
X9125000Y-60300000D01*
G75*
G02*
X8975000Y-60450000I-150000J0D01*
G01*
G37*
%TD.AperFunction*%
%TO.P,U11,3*%
%TO.N,/C51*%
%TA.AperFunction,SMDPad,CuDef*%
G36*
G01*
X10245000Y-60450000D02*
X9945000Y-60450000D01*
G75*
G02*
X9795000Y-60300000I0J150000D01*
G01*
X9795000Y-58650000D01*
G75*
G02*
X9945000Y-58500000I150000J0D01*
G01*
X10245000Y-58500000D01*
G75*
G02*
X10395000Y-58650000I0J-150000D01*
G01*
X10395000Y-60300000D01*
G75*
G02*
X10245000Y-60450000I-150000J0D01*
G01*
G37*
%TD.AperFunction*%
%TO.P,U11,4*%
%TO.N,/C52*%
%TA.AperFunction,SMDPad,CuDef*%
G36*
G01*
X11515000Y-60450000D02*
X11215000Y-60450000D01*
G75*
G02*
X11065000Y-60300000I0J150000D01*
G01*
X11065000Y-58650000D01*
G75*
G02*
X11215000Y-58500000I150000J0D01*
G01*
X11515000Y-58500000D01*
G75*
G02*
X11665000Y-58650000I0J-150000D01*
G01*
X11665000Y-60300000D01*
G75*
G02*
X11515000Y-60450000I-150000J0D01*
G01*
G37*
%TD.AperFunction*%
%TO.P,U11,5*%
%TO.N,/C53*%
%TA.AperFunction,SMDPad,CuDef*%
G36*
G01*
X12785000Y-60450000D02*
X12485000Y-60450000D01*
G75*
G02*
X12335000Y-60300000I0J150000D01*
G01*
X12335000Y-58650000D01*
G75*
G02*
X12485000Y-58500000I150000J0D01*
G01*
X12785000Y-58500000D01*
G75*
G02*
X12935000Y-58650000I0J-150000D01*
G01*
X12935000Y-60300000D01*
G75*
G02*
X12785000Y-60450000I-150000J0D01*
G01*
G37*
%TD.AperFunction*%
%TO.P,U11,6*%
%TO.N,/C54*%
%TA.AperFunction,SMDPad,CuDef*%
G36*
G01*
X14055000Y-60450000D02*
X13755000Y-60450000D01*
G75*
G02*
X13605000Y-60300000I0J150000D01*
G01*
X13605000Y-58650000D01*
G75*
G02*
X13755000Y-58500000I150000J0D01*
G01*
X14055000Y-58500000D01*
G75*
G02*
X14205000Y-58650000I0J-150000D01*
G01*
X14205000Y-60300000D01*
G75*
G02*
X14055000Y-60450000I-150000J0D01*
G01*
G37*
%TD.AperFunction*%
%TO.P,U11,7*%
%TO.N,/C55*%
%TA.AperFunction,SMDPad,CuDef*%
G36*
G01*
X15325000Y-60450000D02*
X15025000Y-60450000D01*
G75*
G02*
X14875000Y-60300000I0J150000D01*
G01*
X14875000Y-58650000D01*
G75*
G02*
X15025000Y-58500000I150000J0D01*
G01*
X15325000Y-58500000D01*
G75*
G02*
X15475000Y-58650000I0J-150000D01*
G01*
X15475000Y-60300000D01*
G75*
G02*
X15325000Y-60450000I-150000J0D01*
G01*
G37*
%TD.AperFunction*%
%TO.P,U11,8*%
%TO.N,GND*%
%TA.AperFunction,SMDPad,CuDef*%
G36*
G01*
X16595000Y-60450000D02*
X16295000Y-60450000D01*
G75*
G02*
X16145000Y-60300000I0J150000D01*
G01*
X16145000Y-58650000D01*
G75*
G02*
X16295000Y-58500000I150000J0D01*
G01*
X16595000Y-58500000D01*
G75*
G02*
X16745000Y-58650000I0J-150000D01*
G01*
X16745000Y-60300000D01*
G75*
G02*
X16595000Y-60450000I-150000J0D01*
G01*
G37*
%TD.AperFunction*%
%TO.P,U11,9*%
%TO.N,Net-(U11-Pad9)*%
%TA.AperFunction,SMDPad,CuDef*%
G36*
G01*
X16595000Y-55500000D02*
X16295000Y-55500000D01*
G75*
G02*
X16145000Y-55350000I0J150000D01*
G01*
X16145000Y-53700000D01*
G75*
G02*
X16295000Y-53550000I150000J0D01*
G01*
X16595000Y-53550000D01*
G75*
G02*
X16745000Y-53700000I0J-150000D01*
G01*
X16745000Y-55350000D01*
G75*
G02*
X16595000Y-55500000I-150000J0D01*
G01*
G37*
%TD.AperFunction*%
%TO.P,U11,10*%
%TO.N,+5V*%
%TA.AperFunction,SMDPad,CuDef*%
G36*
G01*
X15325000Y-55500000D02*
X15025000Y-55500000D01*
G75*
G02*
X14875000Y-55350000I0J150000D01*
G01*
X14875000Y-53700000D01*
G75*
G02*
X15025000Y-53550000I150000J0D01*
G01*
X15325000Y-53550000D01*
G75*
G02*
X15475000Y-53700000I0J-150000D01*
G01*
X15475000Y-55350000D01*
G75*
G02*
X15325000Y-55500000I-150000J0D01*
G01*
G37*
%TD.AperFunction*%
%TO.P,U11,11*%
%TO.N,/SRCLK*%
%TA.AperFunction,SMDPad,CuDef*%
G36*
G01*
X14055000Y-55500000D02*
X13755000Y-55500000D01*
G75*
G02*
X13605000Y-55350000I0J150000D01*
G01*
X13605000Y-53700000D01*
G75*
G02*
X13755000Y-53550000I150000J0D01*
G01*
X14055000Y-53550000D01*
G75*
G02*
X14205000Y-53700000I0J-150000D01*
G01*
X14205000Y-55350000D01*
G75*
G02*
X14055000Y-55500000I-150000J0D01*
G01*
G37*
%TD.AperFunction*%
%TO.P,U11,12*%
%TO.N,/RCLK*%
%TA.AperFunction,SMDPad,CuDef*%
G36*
G01*
X12785000Y-55500000D02*
X12485000Y-55500000D01*
G75*
G02*
X12335000Y-55350000I0J150000D01*
G01*
X12335000Y-53700000D01*
G75*
G02*
X12485000Y-53550000I150000J0D01*
G01*
X12785000Y-53550000D01*
G75*
G02*
X12935000Y-53700000I0J-150000D01*
G01*
X12935000Y-55350000D01*
G75*
G02*
X12785000Y-55500000I-150000J0D01*
G01*
G37*
%TD.AperFunction*%
%TO.P,U11,13*%
%TO.N,GND*%
%TA.AperFunction,SMDPad,CuDef*%
G36*
G01*
X11515000Y-55500000D02*
X11215000Y-55500000D01*
G75*
G02*
X11065000Y-55350000I0J150000D01*
G01*
X11065000Y-53700000D01*
G75*
G02*
X11215000Y-53550000I150000J0D01*
G01*
X11515000Y-53550000D01*
G75*
G02*
X11665000Y-53700000I0J-150000D01*
G01*
X11665000Y-55350000D01*
G75*
G02*
X11515000Y-55500000I-150000J0D01*
G01*
G37*
%TD.AperFunction*%
%TO.P,U11,14*%
%TO.N,Net-(U10-Pad9)*%
%TA.AperFunction,SMDPad,CuDef*%
G36*
G01*
X10245000Y-55500000D02*
X9945000Y-55500000D01*
G75*
G02*
X9795000Y-55350000I0J150000D01*
G01*
X9795000Y-53700000D01*
G75*
G02*
X9945000Y-53550000I150000J0D01*
G01*
X10245000Y-53550000D01*
G75*
G02*
X10395000Y-53700000I0J-150000D01*
G01*
X10395000Y-55350000D01*
G75*
G02*
X10245000Y-55500000I-150000J0D01*
G01*
G37*
%TD.AperFunction*%
%TO.P,U11,15*%
%TO.N,/C48*%
%TA.AperFunction,SMDPad,CuDef*%
G36*
G01*
X8975000Y-55500000D02*
X8675000Y-55500000D01*
G75*
G02*
X8525000Y-55350000I0J150000D01*
G01*
X8525000Y-53700000D01*
G75*
G02*
X8675000Y-53550000I150000J0D01*
G01*
X8975000Y-53550000D01*
G75*
G02*
X9125000Y-53700000I0J-150000D01*
G01*
X9125000Y-55350000D01*
G75*
G02*
X8975000Y-55500000I-150000J0D01*
G01*
G37*
%TD.AperFunction*%
%TO.P,U11,16*%
%TO.N,+5V*%
%TA.AperFunction,SMDPad,CuDef*%
G36*
G01*
X7705000Y-55500000D02*
X7405000Y-55500000D01*
G75*
G02*
X7255000Y-55350000I0J150000D01*
G01*
X7255000Y-53700000D01*
G75*
G02*
X7405000Y-53550000I150000J0D01*
G01*
X7705000Y-53550000D01*
G75*
G02*
X7855000Y-53700000I0J-150000D01*
G01*
X7855000Y-55350000D01*
G75*
G02*
X7705000Y-55500000I-150000J0D01*
G01*
G37*
%TD.AperFunction*%
%TD*%
%TO.P,U8,1*%
%TO.N,/C25*%
%TA.AperFunction,SMDPad,CuDef*%
G36*
G01*
X-28295000Y-60450000D02*
X-28595000Y-60450000D01*
G75*
G02*
X-28745000Y-60300000I0J150000D01*
G01*
X-28745000Y-58650000D01*
G75*
G02*
X-28595000Y-58500000I150000J0D01*
G01*
X-28295000Y-58500000D01*
G75*
G02*
X-28145000Y-58650000I0J-150000D01*
G01*
X-28145000Y-60300000D01*
G75*
G02*
X-28295000Y-60450000I-150000J0D01*
G01*
G37*
%TD.AperFunction*%
%TO.P,U8,2*%
%TO.N,/C26*%
%TA.AperFunction,SMDPad,CuDef*%
G36*
G01*
X-27025000Y-60450000D02*
X-27325000Y-60450000D01*
G75*
G02*
X-27475000Y-60300000I0J150000D01*
G01*
X-27475000Y-58650000D01*
G75*
G02*
X-27325000Y-58500000I150000J0D01*
G01*
X-27025000Y-58500000D01*
G75*
G02*
X-26875000Y-58650000I0J-150000D01*
G01*
X-26875000Y-60300000D01*
G75*
G02*
X-27025000Y-60450000I-150000J0D01*
G01*
G37*
%TD.AperFunction*%
%TO.P,U8,3*%
%TO.N,/C27*%
%TA.AperFunction,SMDPad,CuDef*%
G36*
G01*
X-25755000Y-60450000D02*
X-26055000Y-60450000D01*
G75*
G02*
X-26205000Y-60300000I0J150000D01*
G01*
X-26205000Y-58650000D01*
G75*
G02*
X-26055000Y-58500000I150000J0D01*
G01*
X-25755000Y-58500000D01*
G75*
G02*
X-25605000Y-58650000I0J-150000D01*
G01*
X-25605000Y-60300000D01*
G75*
G02*
X-25755000Y-60450000I-150000J0D01*
G01*
G37*
%TD.AperFunction*%
%TO.P,U8,4*%
%TO.N,/C28*%
%TA.AperFunction,SMDPad,CuDef*%
G36*
G01*
X-24485000Y-60450000D02*
X-24785000Y-60450000D01*
G75*
G02*
X-24935000Y-60300000I0J150000D01*
G01*
X-24935000Y-58650000D01*
G75*
G02*
X-24785000Y-58500000I150000J0D01*
G01*
X-24485000Y-58500000D01*
G75*
G02*
X-24335000Y-58650000I0J-150000D01*
G01*
X-24335000Y-60300000D01*
G75*
G02*
X-24485000Y-60450000I-150000J0D01*
G01*
G37*
%TD.AperFunction*%
%TO.P,U8,5*%
%TO.N,/C29*%
%TA.AperFunction,SMDPad,CuDef*%
G36*
G01*
X-23215000Y-60450000D02*
X-23515000Y-60450000D01*
G75*
G02*
X-23665000Y-60300000I0J150000D01*
G01*
X-23665000Y-58650000D01*
G75*
G02*
X-23515000Y-58500000I150000J0D01*
G01*
X-23215000Y-58500000D01*
G75*
G02*
X-23065000Y-58650000I0J-150000D01*
G01*
X-23065000Y-60300000D01*
G75*
G02*
X-23215000Y-60450000I-150000J0D01*
G01*
G37*
%TD.AperFunction*%
%TO.P,U8,6*%
%TO.N,/C30*%
%TA.AperFunction,SMDPad,CuDef*%
G36*
G01*
X-21945000Y-60450000D02*
X-22245000Y-60450000D01*
G75*
G02*
X-22395000Y-60300000I0J150000D01*
G01*
X-22395000Y-58650000D01*
G75*
G02*
X-22245000Y-58500000I150000J0D01*
G01*
X-21945000Y-58500000D01*
G75*
G02*
X-21795000Y-58650000I0J-150000D01*
G01*
X-21795000Y-60300000D01*
G75*
G02*
X-21945000Y-60450000I-150000J0D01*
G01*
G37*
%TD.AperFunction*%
%TO.P,U8,7*%
%TO.N,/C31*%
%TA.AperFunction,SMDPad,CuDef*%
G36*
G01*
X-20675000Y-60450000D02*
X-20975000Y-60450000D01*
G75*
G02*
X-21125000Y-60300000I0J150000D01*
G01*
X-21125000Y-58650000D01*
G75*
G02*
X-20975000Y-58500000I150000J0D01*
G01*
X-20675000Y-58500000D01*
G75*
G02*
X-20525000Y-58650000I0J-150000D01*
G01*
X-20525000Y-60300000D01*
G75*
G02*
X-20675000Y-60450000I-150000J0D01*
G01*
G37*
%TD.AperFunction*%
%TO.P,U8,8*%
%TO.N,GND*%
%TA.AperFunction,SMDPad,CuDef*%
G36*
G01*
X-19405000Y-60450000D02*
X-19705000Y-60450000D01*
G75*
G02*
X-19855000Y-60300000I0J150000D01*
G01*
X-19855000Y-58650000D01*
G75*
G02*
X-19705000Y-58500000I150000J0D01*
G01*
X-19405000Y-58500000D01*
G75*
G02*
X-19255000Y-58650000I0J-150000D01*
G01*
X-19255000Y-60300000D01*
G75*
G02*
X-19405000Y-60450000I-150000J0D01*
G01*
G37*
%TD.AperFunction*%
%TO.P,U8,9*%
%TO.N,Net-(U8-Pad9)*%
%TA.AperFunction,SMDPad,CuDef*%
G36*
G01*
X-19405000Y-55500000D02*
X-19705000Y-55500000D01*
G75*
G02*
X-19855000Y-55350000I0J150000D01*
G01*
X-19855000Y-53700000D01*
G75*
G02*
X-19705000Y-53550000I150000J0D01*
G01*
X-19405000Y-53550000D01*
G75*
G02*
X-19255000Y-53700000I0J-150000D01*
G01*
X-19255000Y-55350000D01*
G75*
G02*
X-19405000Y-55500000I-150000J0D01*
G01*
G37*
%TD.AperFunction*%
%TO.P,U8,10*%
%TO.N,+5V*%
%TA.AperFunction,SMDPad,CuDef*%
G36*
G01*
X-20675000Y-55500000D02*
X-20975000Y-55500000D01*
G75*
G02*
X-21125000Y-55350000I0J150000D01*
G01*
X-21125000Y-53700000D01*
G75*
G02*
X-20975000Y-53550000I150000J0D01*
G01*
X-20675000Y-53550000D01*
G75*
G02*
X-20525000Y-53700000I0J-150000D01*
G01*
X-20525000Y-55350000D01*
G75*
G02*
X-20675000Y-55500000I-150000J0D01*
G01*
G37*
%TD.AperFunction*%
%TO.P,U8,11*%
%TO.N,/SRCLK*%
%TA.AperFunction,SMDPad,CuDef*%
G36*
G01*
X-21945000Y-55500000D02*
X-22245000Y-55500000D01*
G75*
G02*
X-22395000Y-55350000I0J150000D01*
G01*
X-22395000Y-53700000D01*
G75*
G02*
X-22245000Y-53550000I150000J0D01*
G01*
X-21945000Y-53550000D01*
G75*
G02*
X-21795000Y-53700000I0J-150000D01*
G01*
X-21795000Y-55350000D01*
G75*
G02*
X-21945000Y-55500000I-150000J0D01*
G01*
G37*
%TD.AperFunction*%
%TO.P,U8,12*%
%TO.N,/RCLK*%
%TA.AperFunction,SMDPad,CuDef*%
G36*
G01*
X-23215000Y-55500000D02*
X-23515000Y-55500000D01*
G75*
G02*
X-23665000Y-55350000I0J150000D01*
G01*
X-23665000Y-53700000D01*
G75*
G02*
X-23515000Y-53550000I150000J0D01*
G01*
X-23215000Y-53550000D01*
G75*
G02*
X-23065000Y-53700000I0J-150000D01*
G01*
X-23065000Y-55350000D01*
G75*
G02*
X-23215000Y-55500000I-150000J0D01*
G01*
G37*
%TD.AperFunction*%
%TO.P,U8,13*%
%TO.N,GND*%
%TA.AperFunction,SMDPad,CuDef*%
G36*
G01*
X-24485000Y-55500000D02*
X-24785000Y-55500000D01*
G75*
G02*
X-24935000Y-55350000I0J150000D01*
G01*
X-24935000Y-53700000D01*
G75*
G02*
X-24785000Y-53550000I150000J0D01*
G01*
X-24485000Y-53550000D01*
G75*
G02*
X-24335000Y-53700000I0J-150000D01*
G01*
X-24335000Y-55350000D01*
G75*
G02*
X-24485000Y-55500000I-150000J0D01*
G01*
G37*
%TD.AperFunction*%
%TO.P,U8,14*%
%TO.N,Net-(U7-Pad9)*%
%TA.AperFunction,SMDPad,CuDef*%
G36*
G01*
X-25755000Y-55500000D02*
X-26055000Y-55500000D01*
G75*
G02*
X-26205000Y-55350000I0J150000D01*
G01*
X-26205000Y-53700000D01*
G75*
G02*
X-26055000Y-53550000I150000J0D01*
G01*
X-25755000Y-53550000D01*
G75*
G02*
X-25605000Y-53700000I0J-150000D01*
G01*
X-25605000Y-55350000D01*
G75*
G02*
X-25755000Y-55500000I-150000J0D01*
G01*
G37*
%TD.AperFunction*%
%TO.P,U8,15*%
%TO.N,/C24*%
%TA.AperFunction,SMDPad,CuDef*%
G36*
G01*
X-27025000Y-55500000D02*
X-27325000Y-55500000D01*
G75*
G02*
X-27475000Y-55350000I0J150000D01*
G01*
X-27475000Y-53700000D01*
G75*
G02*
X-27325000Y-53550000I150000J0D01*
G01*
X-27025000Y-53550000D01*
G75*
G02*
X-26875000Y-53700000I0J-150000D01*
G01*
X-26875000Y-55350000D01*
G75*
G02*
X-27025000Y-55500000I-150000J0D01*
G01*
G37*
%TD.AperFunction*%
%TO.P,U8,16*%
%TO.N,+5V*%
%TA.AperFunction,SMDPad,CuDef*%
G36*
G01*
X-28295000Y-55500000D02*
X-28595000Y-55500000D01*
G75*
G02*
X-28745000Y-55350000I0J150000D01*
G01*
X-28745000Y-53700000D01*
G75*
G02*
X-28595000Y-53550000I150000J0D01*
G01*
X-28295000Y-53550000D01*
G75*
G02*
X-28145000Y-53700000I0J-150000D01*
G01*
X-28145000Y-55350000D01*
G75*
G02*
X-28295000Y-55500000I-150000J0D01*
G01*
G37*
%TD.AperFunction*%
%TD*%
%TO.P,U12,1*%
%TO.N,/C57*%
%TA.AperFunction,SMDPad,CuDef*%
G36*
G01*
X19705000Y-60450000D02*
X19405000Y-60450000D01*
G75*
G02*
X19255000Y-60300000I0J150000D01*
G01*
X19255000Y-58650000D01*
G75*
G02*
X19405000Y-58500000I150000J0D01*
G01*
X19705000Y-58500000D01*
G75*
G02*
X19855000Y-58650000I0J-150000D01*
G01*
X19855000Y-60300000D01*
G75*
G02*
X19705000Y-60450000I-150000J0D01*
G01*
G37*
%TD.AperFunction*%
%TO.P,U12,2*%
%TO.N,/C58*%
%TA.AperFunction,SMDPad,CuDef*%
G36*
G01*
X20975000Y-60450000D02*
X20675000Y-60450000D01*
G75*
G02*
X20525000Y-60300000I0J150000D01*
G01*
X20525000Y-58650000D01*
G75*
G02*
X20675000Y-58500000I150000J0D01*
G01*
X20975000Y-58500000D01*
G75*
G02*
X21125000Y-58650000I0J-150000D01*
G01*
X21125000Y-60300000D01*
G75*
G02*
X20975000Y-60450000I-150000J0D01*
G01*
G37*
%TD.AperFunction*%
%TO.P,U12,3*%
%TO.N,/C59*%
%TA.AperFunction,SMDPad,CuDef*%
G36*
G01*
X22245000Y-60450000D02*
X21945000Y-60450000D01*
G75*
G02*
X21795000Y-60300000I0J150000D01*
G01*
X21795000Y-58650000D01*
G75*
G02*
X21945000Y-58500000I150000J0D01*
G01*
X22245000Y-58500000D01*
G75*
G02*
X22395000Y-58650000I0J-150000D01*
G01*
X22395000Y-60300000D01*
G75*
G02*
X22245000Y-60450000I-150000J0D01*
G01*
G37*
%TD.AperFunction*%
%TO.P,U12,4*%
%TO.N,Net-(U12-Pad4)*%
%TA.AperFunction,SMDPad,CuDef*%
G36*
G01*
X23515000Y-60450000D02*
X23215000Y-60450000D01*
G75*
G02*
X23065000Y-60300000I0J150000D01*
G01*
X23065000Y-58650000D01*
G75*
G02*
X23215000Y-58500000I150000J0D01*
G01*
X23515000Y-58500000D01*
G75*
G02*
X23665000Y-58650000I0J-150000D01*
G01*
X23665000Y-60300000D01*
G75*
G02*
X23515000Y-60450000I-150000J0D01*
G01*
G37*
%TD.AperFunction*%
%TO.P,U12,5*%
%TO.N,Net-(U12-Pad5)*%
%TA.AperFunction,SMDPad,CuDef*%
G36*
G01*
X24785000Y-60450000D02*
X24485000Y-60450000D01*
G75*
G02*
X24335000Y-60300000I0J150000D01*
G01*
X24335000Y-58650000D01*
G75*
G02*
X24485000Y-58500000I150000J0D01*
G01*
X24785000Y-58500000D01*
G75*
G02*
X24935000Y-58650000I0J-150000D01*
G01*
X24935000Y-60300000D01*
G75*
G02*
X24785000Y-60450000I-150000J0D01*
G01*
G37*
%TD.AperFunction*%
%TO.P,U12,6*%
%TO.N,Net-(U12-Pad6)*%
%TA.AperFunction,SMDPad,CuDef*%
G36*
G01*
X26055000Y-60450000D02*
X25755000Y-60450000D01*
G75*
G02*
X25605000Y-60300000I0J150000D01*
G01*
X25605000Y-58650000D01*
G75*
G02*
X25755000Y-58500000I150000J0D01*
G01*
X26055000Y-58500000D01*
G75*
G02*
X26205000Y-58650000I0J-150000D01*
G01*
X26205000Y-60300000D01*
G75*
G02*
X26055000Y-60450000I-150000J0D01*
G01*
G37*
%TD.AperFunction*%
%TO.P,U12,7*%
%TO.N,Net-(U12-Pad7)*%
%TA.AperFunction,SMDPad,CuDef*%
G36*
G01*
X27325000Y-60450000D02*
X27025000Y-60450000D01*
G75*
G02*
X26875000Y-60300000I0J150000D01*
G01*
X26875000Y-58650000D01*
G75*
G02*
X27025000Y-58500000I150000J0D01*
G01*
X27325000Y-58500000D01*
G75*
G02*
X27475000Y-58650000I0J-150000D01*
G01*
X27475000Y-60300000D01*
G75*
G02*
X27325000Y-60450000I-150000J0D01*
G01*
G37*
%TD.AperFunction*%
%TO.P,U12,8*%
%TO.N,GND*%
%TA.AperFunction,SMDPad,CuDef*%
G36*
G01*
X28595000Y-60450000D02*
X28295000Y-60450000D01*
G75*
G02*
X28145000Y-60300000I0J150000D01*
G01*
X28145000Y-58650000D01*
G75*
G02*
X28295000Y-58500000I150000J0D01*
G01*
X28595000Y-58500000D01*
G75*
G02*
X28745000Y-58650000I0J-150000D01*
G01*
X28745000Y-60300000D01*
G75*
G02*
X28595000Y-60450000I-150000J0D01*
G01*
G37*
%TD.AperFunction*%
%TO.P,U12,9*%
%TO.N,Net-(U12-Pad9)*%
%TA.AperFunction,SMDPad,CuDef*%
G36*
G01*
X28595000Y-55500000D02*
X28295000Y-55500000D01*
G75*
G02*
X28145000Y-55350000I0J150000D01*
G01*
X28145000Y-53700000D01*
G75*
G02*
X28295000Y-53550000I150000J0D01*
G01*
X28595000Y-53550000D01*
G75*
G02*
X28745000Y-53700000I0J-150000D01*
G01*
X28745000Y-55350000D01*
G75*
G02*
X28595000Y-55500000I-150000J0D01*
G01*
G37*
%TD.AperFunction*%
%TO.P,U12,10*%
%TO.N,+5V*%
%TA.AperFunction,SMDPad,CuDef*%
G36*
G01*
X27325000Y-55500000D02*
X27025000Y-55500000D01*
G75*
G02*
X26875000Y-55350000I0J150000D01*
G01*
X26875000Y-53700000D01*
G75*
G02*
X27025000Y-53550000I150000J0D01*
G01*
X27325000Y-53550000D01*
G75*
G02*
X27475000Y-53700000I0J-150000D01*
G01*
X27475000Y-55350000D01*
G75*
G02*
X27325000Y-55500000I-150000J0D01*
G01*
G37*
%TD.AperFunction*%
%TO.P,U12,11*%
%TO.N,/SRCLK*%
%TA.AperFunction,SMDPad,CuDef*%
G36*
G01*
X26055000Y-55500000D02*
X25755000Y-55500000D01*
G75*
G02*
X25605000Y-55350000I0J150000D01*
G01*
X25605000Y-53700000D01*
G75*
G02*
X25755000Y-53550000I150000J0D01*
G01*
X26055000Y-53550000D01*
G75*
G02*
X26205000Y-53700000I0J-150000D01*
G01*
X26205000Y-55350000D01*
G75*
G02*
X26055000Y-55500000I-150000J0D01*
G01*
G37*
%TD.AperFunction*%
%TO.P,U12,12*%
%TO.N,/RCLK*%
%TA.AperFunction,SMDPad,CuDef*%
G36*
G01*
X24785000Y-55500000D02*
X24485000Y-55500000D01*
G75*
G02*
X24335000Y-55350000I0J150000D01*
G01*
X24335000Y-53700000D01*
G75*
G02*
X24485000Y-53550000I150000J0D01*
G01*
X24785000Y-53550000D01*
G75*
G02*
X24935000Y-53700000I0J-150000D01*
G01*
X24935000Y-55350000D01*
G75*
G02*
X24785000Y-55500000I-150000J0D01*
G01*
G37*
%TD.AperFunction*%
%TO.P,U12,13*%
%TO.N,GND*%
%TA.AperFunction,SMDPad,CuDef*%
G36*
G01*
X23515000Y-55500000D02*
X23215000Y-55500000D01*
G75*
G02*
X23065000Y-55350000I0J150000D01*
G01*
X23065000Y-53700000D01*
G75*
G02*
X23215000Y-53550000I150000J0D01*
G01*
X23515000Y-53550000D01*
G75*
G02*
X23665000Y-53700000I0J-150000D01*
G01*
X23665000Y-55350000D01*
G75*
G02*
X23515000Y-55500000I-150000J0D01*
G01*
G37*
%TD.AperFunction*%
%TO.P,U12,14*%
%TO.N,Net-(U11-Pad9)*%
%TA.AperFunction,SMDPad,CuDef*%
G36*
G01*
X22245000Y-55500000D02*
X21945000Y-55500000D01*
G75*
G02*
X21795000Y-55350000I0J150000D01*
G01*
X21795000Y-53700000D01*
G75*
G02*
X21945000Y-53550000I150000J0D01*
G01*
X22245000Y-53550000D01*
G75*
G02*
X22395000Y-53700000I0J-150000D01*
G01*
X22395000Y-55350000D01*
G75*
G02*
X22245000Y-55500000I-150000J0D01*
G01*
G37*
%TD.AperFunction*%
%TO.P,U12,15*%
%TO.N,/C56*%
%TA.AperFunction,SMDPad,CuDef*%
G36*
G01*
X20975000Y-55500000D02*
X20675000Y-55500000D01*
G75*
G02*
X20525000Y-55350000I0J150000D01*
G01*
X20525000Y-53700000D01*
G75*
G02*
X20675000Y-53550000I150000J0D01*
G01*
X20975000Y-53550000D01*
G75*
G02*
X21125000Y-53700000I0J-150000D01*
G01*
X21125000Y-55350000D01*
G75*
G02*
X20975000Y-55500000I-150000J0D01*
G01*
G37*
%TD.AperFunction*%
%TO.P,U12,16*%
%TO.N,+5V*%
%TA.AperFunction,SMDPad,CuDef*%
G36*
G01*
X19705000Y-55500000D02*
X19405000Y-55500000D01*
G75*
G02*
X19255000Y-55350000I0J150000D01*
G01*
X19255000Y-53700000D01*
G75*
G02*
X19405000Y-53550000I150000J0D01*
G01*
X19705000Y-53550000D01*
G75*
G02*
X19855000Y-53700000I0J-150000D01*
G01*
X19855000Y-55350000D01*
G75*
G02*
X19705000Y-55500000I-150000J0D01*
G01*
G37*
%TD.AperFunction*%
%TD*%
D23*
%TO.P,Y1,1*%
%TO.N,Net-(U2-Pad1)*%
X-40000000Y-44750000D03*
%TO.P,Y1,2*%
%TO.N,Net-(U2-Pad2)*%
X-40000000Y-47250000D03*
%TD*%
%TO.P,C1,2*%
%TO.N,GND*%
%TA.AperFunction,SMDPad,CuDef*%
G36*
G01*
X64450000Y-60950000D02*
X65550000Y-60950000D01*
G75*
G02*
X65800000Y-61200000I0J-250000D01*
G01*
X65800000Y-64200000D01*
G75*
G02*
X65550000Y-64450000I-250000J0D01*
G01*
X64450000Y-64450000D01*
G75*
G02*
X64200000Y-64200000I0J250000D01*
G01*
X64200000Y-61200000D01*
G75*
G02*
X64450000Y-60950000I250000J0D01*
G01*
G37*
%TD.AperFunction*%
%TO.P,C1,1*%
%TO.N,+12V*%
%TA.AperFunction,SMDPad,CuDef*%
G36*
G01*
X64450000Y-55550000D02*
X65550000Y-55550000D01*
G75*
G02*
X65800000Y-55800000I0J-250000D01*
G01*
X65800000Y-58800000D01*
G75*
G02*
X65550000Y-59050000I-250000J0D01*
G01*
X64450000Y-59050000D01*
G75*
G02*
X64200000Y-58800000I0J250000D01*
G01*
X64200000Y-55800000D01*
G75*
G02*
X64450000Y-55550000I250000J0D01*
G01*
G37*
%TD.AperFunction*%
%TD*%
%TO.P,C2,1*%
%TO.N,+5V*%
%TA.AperFunction,SMDPad,CuDef*%
G36*
G01*
X55550000Y-68550000D02*
X55550000Y-67450000D01*
G75*
G02*
X55800000Y-67200000I250000J0D01*
G01*
X58800000Y-67200000D01*
G75*
G02*
X59050000Y-67450000I0J-250000D01*
G01*
X59050000Y-68550000D01*
G75*
G02*
X58800000Y-68800000I-250000J0D01*
G01*
X55800000Y-68800000D01*
G75*
G02*
X55550000Y-68550000I0J250000D01*
G01*
G37*
%TD.AperFunction*%
%TO.P,C2,2*%
%TO.N,GND*%
%TA.AperFunction,SMDPad,CuDef*%
G36*
G01*
X60950000Y-68550000D02*
X60950000Y-67450000D01*
G75*
G02*
X61200000Y-67200000I250000J0D01*
G01*
X64200000Y-67200000D01*
G75*
G02*
X64450000Y-67450000I0J-250000D01*
G01*
X64450000Y-68550000D01*
G75*
G02*
X64200000Y-68800000I-250000J0D01*
G01*
X61200000Y-68800000D01*
G75*
G02*
X60950000Y-68550000I0J250000D01*
G01*
G37*
%TD.AperFunction*%
%TD*%
D10*
%TO.P,J6,1*%
%TO.N,/D50*%
X3000000Y-78000000D03*
D11*
%TO.P,J6,2*%
%TO.N,/D51*%
X5540000Y-78000000D03*
%TO.P,J6,3*%
%TO.N,/D52*%
X8080000Y-78000000D03*
%TO.P,J6,4*%
%TO.N,/D53*%
X10620000Y-78000000D03*
%TO.P,J6,5*%
%TO.N,/D54*%
X13160000Y-78000000D03*
%TO.P,J6,6*%
%TO.N,/D55*%
X15700000Y-78000000D03*
%TO.P,J6,7*%
%TO.N,/D56*%
X18240000Y-78000000D03*
%TO.P,J6,8*%
%TO.N,/D57*%
X20780000Y-78000000D03*
%TO.P,J6,9*%
%TO.N,/D58*%
X23320000Y-78000000D03*
%TO.P,J6,10*%
%TO.N,/D59*%
X25860000Y-78000000D03*
%TO.P,J6,11*%
%TO.N,+180V*%
X28400000Y-78000000D03*
%TO.P,J6,12*%
%TO.N,GND*%
X30940000Y-78000000D03*
%TD*%
%TO.P,J11,2*%
%TO.N,GND*%
X-29000000Y-46000000D03*
D10*
%TO.P,J11,1*%
%TO.N,Net-(J11-Pad1)*%
X-29000000Y-48540000D03*
%TD*%
D24*
%TO.N,+12V*%
X50500000Y-56000000D03*
X65500000Y-53500000D03*
D25*
%TO.N,GND*%
X14000000Y-72000000D03*
X29000000Y-72000000D03*
X19000000Y-72000000D03*
X-1000000Y-72000000D03*
X-16000000Y-72000000D03*
X4000000Y-72000000D03*
X-6000000Y-72000000D03*
X-11000000Y-72000000D03*
X-66000000Y-72000000D03*
X-61000000Y-72000000D03*
X-26000000Y-72000000D03*
X-41000000Y-72000000D03*
X-36000000Y-72000000D03*
X-21000000Y-72000000D03*
X-31000000Y-72000000D03*
X-56000000Y-72000000D03*
X24000000Y-72000000D03*
X9000000Y-72000000D03*
X14000000Y-67000000D03*
X29000000Y-67000000D03*
X19000000Y-67000000D03*
X-1000000Y-67000000D03*
X-16000000Y-67000000D03*
X4000000Y-67000000D03*
X-6000000Y-67000000D03*
X-11000000Y-67000000D03*
X-51000000Y-67000000D03*
X-66000000Y-67000000D03*
X-61000000Y-67000000D03*
X-46000000Y-67000000D03*
X-26000000Y-67000000D03*
X-41000000Y-67000000D03*
X-36000000Y-67000000D03*
X-21000000Y-67000000D03*
X-31000000Y-67000000D03*
X-56000000Y-67000000D03*
X24000000Y-67000000D03*
X9000000Y-67000000D03*
X24000000Y-62000000D03*
X9000000Y-62000000D03*
X14000000Y-62000000D03*
X29000000Y-62000000D03*
X19000000Y-62000000D03*
X-1000000Y-62000000D03*
X-16000000Y-62000000D03*
X-11000000Y-62000000D03*
X4000000Y-62000000D03*
X-6000000Y-62000000D03*
X-26000000Y-62000000D03*
X-41000000Y-62000000D03*
X-36000000Y-62000000D03*
X-21000000Y-62000000D03*
X-31000000Y-62000000D03*
X23500000Y-53000000D03*
X28500000Y-61000000D03*
X11500000Y-53000000D03*
X16500000Y-61000000D03*
X-500000Y-53000000D03*
X4500000Y-61000000D03*
X-12500000Y-53000000D03*
X-7500000Y-61000000D03*
X-24500000Y-53000000D03*
X-19500000Y-61000000D03*
X-36500000Y-53000000D03*
X-31500000Y-61000000D03*
X-48500000Y-53000000D03*
X-43500000Y-61000000D03*
D24*
X80500000Y-68500000D03*
X81500000Y-68500000D03*
X81500000Y-69500000D03*
X80500000Y-69500000D03*
X80500000Y-70500000D03*
X81500000Y-70500000D03*
X80500000Y-71500000D03*
X81500000Y-71500000D03*
D25*
X-37500000Y-44000000D03*
X-36500000Y-44000000D03*
X-35500000Y-44000000D03*
X-36000000Y-44500000D03*
X-37000000Y-44500000D03*
X-36500000Y-45000000D03*
X-35500000Y-45000000D03*
X-39500000Y-49000000D03*
X-40500000Y-49000000D03*
X-41500000Y-49000000D03*
X-42000000Y-49500000D03*
X-41000000Y-49500000D03*
X-40000000Y-49500000D03*
X-39000000Y-49500000D03*
X-38500000Y-50000000D03*
X-39500000Y-50000000D03*
X-40500000Y-50000000D03*
X-41500000Y-50000000D03*
X-60500000Y-53000000D03*
X-55500000Y-61000000D03*
X-65000000Y-50000000D03*
X-66000000Y-62000000D03*
X-61000000Y-62000000D03*
X-56000000Y-62000000D03*
X-51000000Y-62000000D03*
X-46000000Y-62000000D03*
X-46000000Y-72000000D03*
X12500000Y-69500000D03*
X-53000000Y-70000000D03*
X6500000Y-71000000D03*
X6500000Y-71000000D03*
X7500000Y-73000000D03*
%TO.N,+180V*%
X97000000Y-68500000D03*
D24*
%TO.N,Net-(Q1-Pad3)*%
X83480000Y-66950000D03*
X83739964Y-53229968D03*
D25*
%TO.N,+5V*%
X19500000Y-52000000D03*
X15000000Y-52000000D03*
X7500000Y-52000000D03*
X3000000Y-52000000D03*
X-4500000Y-52000000D03*
X-9000000Y-52000000D03*
X-16500000Y-52000000D03*
X-21000000Y-52000000D03*
X-28500000Y-52000000D03*
X-33000000Y-52000000D03*
X-40500000Y-52000000D03*
X-45000000Y-52000000D03*
X-52500000Y-52000000D03*
X-64500000Y-52000000D03*
X-57000000Y-52000000D03*
X27000000Y-52000000D03*
X-52000000Y-45000000D03*
X50500000Y-68000000D03*
D24*
%TO.N,Net-(C6-Pad2)*%
X86230000Y-73700000D03*
X76700000Y-70680000D03*
D25*
%TO.N,/D19*%
X-35000000Y-71000000D03*
%TO.N,/D18*%
X-36000000Y-75000000D03*
%TO.N,/D17*%
X-40000000Y-66000000D03*
%TO.N,/D16*%
X-40000000Y-71000000D03*
%TO.N,/D15*%
X-41000000Y-75000000D03*
%TO.N,/D14*%
X-45000000Y-66000000D03*
%TO.N,/D13*%
X-45000000Y-71000000D03*
%TO.N,/D12*%
X-45000000Y-74000000D03*
%TO.N,/D11*%
X-50000000Y-66000000D03*
%TO.N,/D10*%
X-50000000Y-71000000D03*
%TO.N,/D30*%
X-15000000Y-74000000D03*
%TO.N,/D31*%
X-15000000Y-71000000D03*
%TO.N,/D32*%
X-15000000Y-66000000D03*
%TO.N,/D33*%
X-10000000Y-74000000D03*
%TO.N,/D34*%
X-10000000Y-71000000D03*
%TO.N,/D35*%
X-10000000Y-66000000D03*
%TO.N,/D36*%
X-6000000Y-75000000D03*
%TO.N,/D37*%
X-5000000Y-71000000D03*
%TO.N,/D38*%
X-5000000Y-66000000D03*
%TO.N,/D39*%
X-1000000Y-75000000D03*
%TO.N,/D59*%
X30000000Y-66000000D03*
%TO.N,/D58*%
X30000000Y-71000000D03*
%TO.N,/D57*%
X30000000Y-74000000D03*
%TO.N,/D56*%
X25000000Y-66000000D03*
%TO.N,/D55*%
X25000000Y-71000000D03*
%TO.N,/D54*%
X25000000Y-73500000D03*
%TO.N,/D53*%
X20000000Y-66000000D03*
%TO.N,/D52*%
X20000000Y-71000000D03*
%TO.N,/D51*%
X20000000Y-73000000D03*
%TO.N,/D50*%
X14000000Y-65000000D03*
%TO.N,/C0*%
X-62500000Y-70500000D03*
X-64000000Y-72000000D03*
%TO.N,/C3*%
X-61000000Y-71000000D03*
X-59000000Y-71500000D03*
%TO.N,/C6*%
X-55500000Y-71500000D03*
X-54000000Y-72000000D03*
%TO.N,/C21*%
X-30500000Y-71500000D03*
X-29000000Y-72000000D03*
%TO.N,/C24*%
X-26000000Y-71000000D03*
X-24000000Y-71500000D03*
%TO.N,/C27*%
X-20500000Y-71500000D03*
X-19000000Y-72000000D03*
%TO.N,/C39*%
X-1000000Y-71000000D03*
X1000000Y-72000000D03*
%TO.N,/C40*%
X-2000000Y-62000000D03*
X1000000Y-67000000D03*
%TO.N,/C42*%
X4500000Y-71500000D03*
X6000000Y-72000000D03*
%TO.N,/C43*%
X4500000Y-66500000D03*
X6000000Y-67000000D03*
%TO.N,/C45*%
X9500000Y-71500000D03*
X11000000Y-72000000D03*
%TO.N,/C46*%
X6500000Y-66000000D03*
X11000000Y-67000000D03*
%TO.N,/C47*%
X6000000Y-61500000D03*
X11000000Y-62000000D03*
%TO.N,/C48*%
X9176844Y-70500000D03*
X16000000Y-72000000D03*
%TO.N,/C49*%
X8500000Y-64500000D03*
X16000000Y-67000000D03*
%TO.N,/C50*%
X9000000Y-61000000D03*
X16000000Y-62000000D03*
%TO.N,/C54*%
X18500000Y-59000000D03*
X23000000Y-71000000D03*
%TO.N,/C58*%
X20875010Y-57470600D03*
X31000000Y-66000000D03*
D24*
%TO.N,Net-(R5-Pad2)*%
X88500000Y-75000000D03*
D25*
%TO.N,/SRCLK*%
X26000000Y-56000000D03*
X14000000Y-56000000D03*
X2000000Y-56000000D03*
X-10000000Y-56000000D03*
X-22000000Y-56000000D03*
X-34000000Y-56000000D03*
X-46000000Y-56000000D03*
X-58000000Y-56000000D03*
%TO.N,/RCLK*%
X24500000Y-58000000D03*
X12500000Y-58000000D03*
X500000Y-58000000D03*
X-11500000Y-58000000D03*
X-23500000Y-58000000D03*
X-35500000Y-58000000D03*
X-47500000Y-58000000D03*
X-59500000Y-58000000D03*
%TO.N,Net-(U1-Pad6)*%
X-60000000Y-49000000D03*
X-62000000Y-51000000D03*
%TO.N,Net-(J11-Pad1)*%
X-36000000Y-48500000D03*
%TD*%
D26*
%TO.N,+12V*%
X52600000Y-56775000D02*
X51275000Y-56775000D01*
X51275000Y-56775000D02*
X50500000Y-56000000D01*
D27*
%TO.N,GND*%
X19050000Y-73000000D02*
X19050000Y-72050000D01*
X9050000Y-72050000D02*
X9000000Y-72000000D01*
X14050000Y-72050000D02*
X14000000Y-72000000D01*
X24050000Y-73000000D02*
X24050000Y-72050000D01*
X24050000Y-72050000D02*
X24000000Y-72000000D01*
X29050000Y-72050000D02*
X29000000Y-72000000D01*
X14050000Y-73000000D02*
X14050000Y-72050000D01*
X29050000Y-73000000D02*
X29050000Y-72050000D01*
X19050000Y-72050000D02*
X19000000Y-72000000D01*
X9050000Y-73000000D02*
X9050000Y-72050000D01*
X-30950000Y-72050000D02*
X-31000000Y-72000000D01*
X-20950000Y-72050000D02*
X-21000000Y-72000000D01*
X-25950000Y-73000000D02*
X-25950000Y-72050000D01*
X-60950000Y-72050000D02*
X-61000000Y-72000000D01*
X-40950000Y-73000000D02*
X-40950000Y-72050000D01*
X-20950000Y-73000000D02*
X-20950000Y-72050000D01*
X-25950000Y-72050000D02*
X-26000000Y-72000000D01*
X-40950000Y-72050000D02*
X-41000000Y-72000000D01*
X-60950000Y-73000000D02*
X-60950000Y-72050000D01*
X-35950000Y-72050000D02*
X-36000000Y-72000000D01*
X-55950000Y-72050000D02*
X-56000000Y-72000000D01*
X-65950000Y-72050000D02*
X-66000000Y-72000000D01*
X-65950000Y-73000000D02*
X-65950000Y-72050000D01*
X-30950000Y-73000000D02*
X-30950000Y-72050000D01*
X-35950000Y-73000000D02*
X-35950000Y-72050000D01*
X-55950000Y-73000000D02*
X-55950000Y-72050000D01*
X-10950000Y-72050000D02*
X-11000000Y-72000000D01*
X4050000Y-73000000D02*
X4050000Y-72050000D01*
X-5950000Y-73000000D02*
X-5950000Y-72050000D01*
X-950000Y-73000000D02*
X-950000Y-72050000D01*
X-15950000Y-72050000D02*
X-16000000Y-72000000D01*
X4050000Y-72050000D02*
X4000000Y-72000000D01*
X-950000Y-72050000D02*
X-1000000Y-72000000D01*
X-15950000Y-73000000D02*
X-15950000Y-72050000D01*
X-10950000Y-73000000D02*
X-10950000Y-72050000D01*
X-5950000Y-72050000D02*
X-6000000Y-72000000D01*
X19050000Y-68000000D02*
X19050000Y-67050000D01*
X9050000Y-67050000D02*
X9000000Y-67000000D01*
X14050000Y-67050000D02*
X14000000Y-67000000D01*
X24050000Y-68000000D02*
X24050000Y-67050000D01*
X24050000Y-67050000D02*
X24000000Y-67000000D01*
X29050000Y-67050000D02*
X29000000Y-67000000D01*
X14050000Y-68000000D02*
X14050000Y-67050000D01*
X29050000Y-68000000D02*
X29050000Y-67050000D01*
X19050000Y-67050000D02*
X19000000Y-67000000D01*
X9050000Y-68000000D02*
X9050000Y-67050000D01*
X-30950000Y-67050000D02*
X-31000000Y-67000000D01*
X-20950000Y-67050000D02*
X-21000000Y-67000000D01*
X-45950000Y-67050000D02*
X-46000000Y-67000000D01*
X-25950000Y-68000000D02*
X-25950000Y-67050000D01*
X-60950000Y-67050000D02*
X-61000000Y-67000000D01*
X-40950000Y-68000000D02*
X-40950000Y-67050000D01*
X-20950000Y-68000000D02*
X-20950000Y-67050000D01*
X-25950000Y-67050000D02*
X-26000000Y-67000000D01*
X-40950000Y-67050000D02*
X-41000000Y-67000000D01*
X-60950000Y-68000000D02*
X-60950000Y-67050000D01*
X-50950000Y-68000000D02*
X-50950000Y-67050000D01*
X-50950000Y-67050000D02*
X-51000000Y-67000000D01*
X-35950000Y-67050000D02*
X-36000000Y-67000000D01*
X-55950000Y-67050000D02*
X-56000000Y-67000000D01*
X-65950000Y-67050000D02*
X-66000000Y-67000000D01*
X-65950000Y-68000000D02*
X-65950000Y-67050000D01*
X-30950000Y-68000000D02*
X-30950000Y-67050000D01*
X-45950000Y-68000000D02*
X-45950000Y-67050000D01*
X-35950000Y-68000000D02*
X-35950000Y-67050000D01*
X-55950000Y-68000000D02*
X-55950000Y-67050000D01*
X-10950000Y-67050000D02*
X-11000000Y-67000000D01*
X4050000Y-68000000D02*
X4050000Y-67050000D01*
X-5950000Y-68000000D02*
X-5950000Y-67050000D01*
X-950000Y-68000000D02*
X-950000Y-67050000D01*
X-15950000Y-67050000D02*
X-16000000Y-67000000D01*
X4050000Y-67050000D02*
X4000000Y-67000000D01*
X-950000Y-67050000D02*
X-1000000Y-67000000D01*
X-15950000Y-68000000D02*
X-15950000Y-67050000D01*
X-10950000Y-68000000D02*
X-10950000Y-67050000D01*
X-5950000Y-67050000D02*
X-6000000Y-67000000D01*
X29050000Y-62050000D02*
X29000000Y-62000000D01*
X14050000Y-62050000D02*
X14000000Y-62000000D01*
X14050000Y-63000000D02*
X14050000Y-62050000D01*
X24050000Y-63000000D02*
X24050000Y-62050000D01*
X24050000Y-62050000D02*
X24000000Y-62000000D01*
X19050000Y-62050000D02*
X19000000Y-62000000D01*
X9050000Y-62050000D02*
X9000000Y-62000000D01*
X9050000Y-63000000D02*
X9050000Y-62050000D01*
X29050000Y-63000000D02*
X29050000Y-62050000D01*
X19050000Y-63000000D02*
X19050000Y-62050000D01*
X4050000Y-62050000D02*
X4000000Y-62000000D01*
X-10950000Y-62050000D02*
X-11000000Y-62000000D01*
X-10950000Y-63000000D02*
X-10950000Y-62050000D01*
X-950000Y-63000000D02*
X-950000Y-62050000D01*
X-950000Y-62050000D02*
X-1000000Y-62000000D01*
X-5950000Y-62050000D02*
X-6000000Y-62000000D01*
X-15950000Y-62050000D02*
X-16000000Y-62000000D01*
X-15950000Y-63000000D02*
X-15950000Y-62050000D01*
X4050000Y-63000000D02*
X4050000Y-62050000D01*
X-5950000Y-63000000D02*
X-5950000Y-62050000D01*
X-20950000Y-62050000D02*
X-21000000Y-62000000D01*
X-35950000Y-62050000D02*
X-36000000Y-62000000D01*
X-35950000Y-63000000D02*
X-35950000Y-62050000D01*
X-25950000Y-63000000D02*
X-25950000Y-62050000D01*
X-25950000Y-62050000D02*
X-26000000Y-62000000D01*
X-30950000Y-62050000D02*
X-31000000Y-62000000D01*
X-40950000Y-62050000D02*
X-41000000Y-62000000D01*
X-40950000Y-63000000D02*
X-40950000Y-62050000D01*
X-20950000Y-63000000D02*
X-20950000Y-62050000D01*
X-30950000Y-63000000D02*
X-30950000Y-62050000D01*
X28445000Y-60945000D02*
X28500000Y-61000000D01*
X23365000Y-54525000D02*
X23365000Y-53135000D01*
X28445000Y-59475000D02*
X28445000Y-60945000D01*
X23365000Y-53135000D02*
X23500000Y-53000000D01*
X16445000Y-60945000D02*
X16500000Y-61000000D01*
X11365000Y-54525000D02*
X11365000Y-53135000D01*
X16445000Y-59475000D02*
X16445000Y-60945000D01*
X11365000Y-53135000D02*
X11500000Y-53000000D01*
X4445000Y-60945000D02*
X4500000Y-61000000D01*
X-635000Y-54525000D02*
X-635000Y-53135000D01*
X4445000Y-59475000D02*
X4445000Y-60945000D01*
X-635000Y-53135000D02*
X-500000Y-53000000D01*
X-7555000Y-60945000D02*
X-7500000Y-61000000D01*
X-12635000Y-54525000D02*
X-12635000Y-53135000D01*
X-7555000Y-59475000D02*
X-7555000Y-60945000D01*
X-12635000Y-53135000D02*
X-12500000Y-53000000D01*
X-19555000Y-60945000D02*
X-19500000Y-61000000D01*
X-24635000Y-54525000D02*
X-24635000Y-53135000D01*
X-19555000Y-59475000D02*
X-19555000Y-60945000D01*
X-24635000Y-53135000D02*
X-24500000Y-53000000D01*
X-31555000Y-60945000D02*
X-31500000Y-61000000D01*
X-36635000Y-54525000D02*
X-36635000Y-53135000D01*
X-31555000Y-59475000D02*
X-31555000Y-60945000D01*
X-36635000Y-53135000D02*
X-36500000Y-53000000D01*
X-43555000Y-60945000D02*
X-43500000Y-61000000D01*
X-48635000Y-54525000D02*
X-48635000Y-53135000D01*
X-43555000Y-59475000D02*
X-43555000Y-60945000D01*
X-48635000Y-53135000D02*
X-48500000Y-53000000D01*
X-60635000Y-54525000D02*
X-60635000Y-53135000D01*
X-60635000Y-53135000D02*
X-60500000Y-53000000D01*
X-55555000Y-59475000D02*
X-55555000Y-60945000D01*
X-55555000Y-60945000D02*
X-55500000Y-61000000D01*
X-63600000Y-49905000D02*
X-64905000Y-49905000D01*
X-64905000Y-49905000D02*
X-65000000Y-50000000D01*
X-65950000Y-63000000D02*
X-65950000Y-62050000D01*
X-65950000Y-62050000D02*
X-66000000Y-62000000D01*
X-60950000Y-63000000D02*
X-60950000Y-62050000D01*
X-60950000Y-62050000D02*
X-61000000Y-62000000D01*
X-55950000Y-63000000D02*
X-55950000Y-62050000D01*
X-55950000Y-62050000D02*
X-56000000Y-62000000D01*
X-50950000Y-63000000D02*
X-50950000Y-62050000D01*
X-50950000Y-62050000D02*
X-51000000Y-62000000D01*
X-45950000Y-63000000D02*
X-45950000Y-62050000D01*
X-45950000Y-62050000D02*
X-46000000Y-62000000D01*
X-45950000Y-72050000D02*
X-46000000Y-72000000D01*
X-45950000Y-73000000D02*
X-45950000Y-72050000D01*
D28*
X-35060000Y-78000000D02*
X-35060000Y-81000000D01*
X-2060000Y-78000000D02*
X-2060000Y-81000000D01*
X30940000Y-78000000D02*
X30940000Y-81000000D01*
D29*
X14000000Y-72000000D02*
X14000000Y-71000000D01*
X14000000Y-71000000D02*
X12500000Y-69500000D01*
D27*
X-50950000Y-73000000D02*
X-50950000Y-72050000D01*
X-50950000Y-72050000D02*
X-53000000Y-70000000D01*
D29*
X6500000Y-71000000D02*
X7500000Y-72000000D01*
X7500000Y-72000000D02*
X7500000Y-73000000D01*
D30*
%TO.N,+180V*%
X87000000Y-68200000D02*
X90000000Y-68200000D01*
D28*
X97150000Y-65850000D02*
X97000000Y-66000000D01*
X97150000Y-60000000D02*
X97150000Y-65850000D01*
D30*
X90000000Y-68200000D02*
X90000000Y-62890000D01*
X90000000Y-62890000D02*
X91110000Y-61780000D01*
X95370000Y-61780000D02*
X97150000Y-60000000D01*
X91110000Y-61780000D02*
X95370000Y-61780000D01*
D29*
X97000000Y-66000000D02*
X97000000Y-68500000D01*
D26*
%TO.N,Net-(Q1-Pad1)*%
X79500000Y-66000000D02*
X78525000Y-66975000D01*
X81000000Y-66000000D02*
X79500000Y-66000000D01*
X78525000Y-66975000D02*
X78525000Y-68064990D01*
X82069999Y-64930001D02*
X81000000Y-66000000D01*
X82069999Y-48930001D02*
X82069999Y-64930001D01*
X84540000Y-46460000D02*
X82069999Y-48930001D01*
X88225000Y-46460000D02*
X84540000Y-46460000D01*
D30*
%TO.N,Net-(Q1-Pad3)*%
X83475000Y-51425000D02*
X83900000Y-51000000D01*
X83475000Y-68095000D02*
X83475000Y-66955000D01*
X83475000Y-66955000D02*
X83480000Y-66950000D01*
X83900000Y-51000000D02*
X83900000Y-53069932D01*
X83900000Y-53069932D02*
X83739964Y-53229968D01*
D29*
%TO.N,+5V*%
X19555000Y-54525000D02*
X19555000Y-52055000D01*
X19555000Y-52055000D02*
X19500000Y-52000000D01*
X7555000Y-54525000D02*
X7555000Y-52055000D01*
X15175000Y-54525000D02*
X15175000Y-52175000D01*
X7555000Y-52055000D02*
X7500000Y-52000000D01*
X15175000Y-52175000D02*
X15000000Y-52000000D01*
X-4445000Y-54525000D02*
X-4445000Y-52055000D01*
X3175000Y-54525000D02*
X3175000Y-52175000D01*
X-4445000Y-52055000D02*
X-4500000Y-52000000D01*
X3175000Y-52175000D02*
X3000000Y-52000000D01*
X-16445000Y-54525000D02*
X-16445000Y-52055000D01*
X-8825000Y-54525000D02*
X-8825000Y-52175000D01*
X-16445000Y-52055000D02*
X-16500000Y-52000000D01*
X-8825000Y-52175000D02*
X-9000000Y-52000000D01*
X-28445000Y-54525000D02*
X-28445000Y-52055000D01*
X-20825000Y-54525000D02*
X-20825000Y-52175000D01*
X-28445000Y-52055000D02*
X-28500000Y-52000000D01*
X-20825000Y-52175000D02*
X-21000000Y-52000000D01*
X-40445000Y-54525000D02*
X-40445000Y-52055000D01*
X-32825000Y-54525000D02*
X-32825000Y-52175000D01*
X-40445000Y-52055000D02*
X-40500000Y-52000000D01*
X-32825000Y-52175000D02*
X-33000000Y-52000000D01*
X-52445000Y-54525000D02*
X-52445000Y-52055000D01*
X-44825000Y-54525000D02*
X-44825000Y-52175000D01*
X-52445000Y-52055000D02*
X-52500000Y-52000000D01*
X-44825000Y-52175000D02*
X-45000000Y-52000000D01*
D26*
X57700000Y-67600000D02*
X57300000Y-68000000D01*
X57700000Y-56775000D02*
X57700000Y-67600000D01*
D27*
X-54030000Y-46095000D02*
X-54000000Y-46125000D01*
X-56400000Y-46095000D02*
X-54030000Y-46095000D01*
X-54000000Y-46125000D02*
X-52000000Y-46125000D01*
D29*
X-64445000Y-54525000D02*
X-64445000Y-52055000D01*
X-64445000Y-52055000D02*
X-64500000Y-52000000D01*
X-56825000Y-54525000D02*
X-56825000Y-52175000D01*
X-56825000Y-52175000D02*
X-57000000Y-52000000D01*
X27175000Y-52175000D02*
X27000000Y-52000000D01*
X27175000Y-54525000D02*
X27175000Y-52175000D01*
X-52000000Y-45000000D02*
X-52000000Y-46125000D01*
D27*
X-33000000Y-52000000D02*
X-31000000Y-50000000D01*
X-31550000Y-46095000D02*
X-32525000Y-46095000D01*
X-31000000Y-46645000D02*
X-31550000Y-46095000D01*
X-31000000Y-50000000D02*
X-31000000Y-46645000D01*
D29*
X52950000Y-68000000D02*
X50500000Y-68000000D01*
D30*
%TO.N,Net-(C6-Pad2)*%
X90000000Y-71000000D02*
X87000000Y-71000000D01*
X90000000Y-73125000D02*
X90000000Y-71000000D01*
X78590000Y-70700000D02*
X78525000Y-70635000D01*
X87000000Y-71000000D02*
X87000000Y-72930000D01*
X87000000Y-72930000D02*
X86230000Y-73700000D01*
X78480000Y-70680000D02*
X78525000Y-70635000D01*
X76700000Y-70680000D02*
X78480000Y-70680000D01*
D28*
%TO.N,Net-(D1-Pad1)*%
X46000000Y-65050000D02*
X43050000Y-68000000D01*
D26*
X54300000Y-59545002D02*
X52845002Y-61000000D01*
D28*
X46000000Y-58000000D02*
X46000000Y-61000000D01*
D26*
X52845002Y-61000000D02*
X46000000Y-61000000D01*
X54300000Y-56775000D02*
X54300000Y-59545002D01*
D28*
X46000000Y-61000000D02*
X46000000Y-65050000D01*
%TO.N,Net-(D2-Pad2)*%
X92850000Y-53525000D02*
X92850000Y-60000000D01*
X97375000Y-49000000D02*
X92850000Y-53525000D01*
X87950000Y-60000000D02*
X92850000Y-60000000D01*
D27*
%TO.N,/SCL*%
X-54635000Y-47365000D02*
X-54000000Y-48000000D01*
X-56400000Y-47365000D02*
X-54635000Y-47365000D01*
X-51283890Y-47283890D02*
X-48000000Y-44000000D01*
X-53283890Y-47283890D02*
X-51283890Y-47283890D01*
X-54000000Y-48000000D02*
X-53283890Y-47283890D01*
%TO.N,/SDA*%
X-53905000Y-49905000D02*
X-52000000Y-48000000D01*
X-56400000Y-49905000D02*
X-53905000Y-49905000D01*
X-49000000Y-48000000D02*
X-48000000Y-47000000D01*
X-52000000Y-48000000D02*
X-49000000Y-48000000D01*
%TO.N,/D0*%
X-65000000Y-79000000D02*
X-63000000Y-81000000D01*
X-65000000Y-75000000D02*
X-65000000Y-79000000D01*
%TO.N,/D1*%
X-61538601Y-79921399D02*
X-60460000Y-81000000D01*
X-64078601Y-79032881D02*
X-63190083Y-79921399D01*
X-65000000Y-73311482D02*
X-64078601Y-74232881D01*
X-63190083Y-79921399D02*
X-61538601Y-79921399D01*
X-64078601Y-74232881D02*
X-64078601Y-79032881D01*
X-65000000Y-70000000D02*
X-65000000Y-73311482D01*
%TO.N,/D2*%
X-65000000Y-68738518D02*
X-61921399Y-71817119D01*
X-65000000Y-65000000D02*
X-65000000Y-68738518D01*
X-58998601Y-79921399D02*
X-57920000Y-81000000D01*
X-60578601Y-79921399D02*
X-58998601Y-79921399D01*
X-61921399Y-78578601D02*
X-60578601Y-79921399D01*
X-61921399Y-71817119D02*
X-61921399Y-78578601D01*
%TO.N,/D3*%
X-56458601Y-79921399D02*
X-55380000Y-81000000D01*
X-58078601Y-79921399D02*
X-56458601Y-79921399D01*
X-59381399Y-78618601D02*
X-58078601Y-79921399D01*
X-59381399Y-75618601D02*
X-59381399Y-78618601D01*
X-60000000Y-75000000D02*
X-59381399Y-75618601D01*
%TO.N,/D4*%
X-53918601Y-79921399D02*
X-52840000Y-81000000D01*
X-55578601Y-79921399D02*
X-53918601Y-79921399D01*
X-56500000Y-76811482D02*
X-56500000Y-79000000D01*
X-60000000Y-73311482D02*
X-56500000Y-76811482D01*
X-56500000Y-79000000D02*
X-55578601Y-79921399D01*
X-60000000Y-70000000D02*
X-60000000Y-73311482D01*
%TO.N,/D5*%
X-51378601Y-79921399D02*
X-50300000Y-81000000D01*
X-52578601Y-79921399D02*
X-51378601Y-79921399D01*
X-53918601Y-78581399D02*
X-52578601Y-79921399D01*
X-53918601Y-77865069D02*
X-53918601Y-78581399D01*
X-56578601Y-75205069D02*
X-53918601Y-77865069D01*
X-56578601Y-71732881D02*
X-56578601Y-75205069D01*
X-60000000Y-68311482D02*
X-56578601Y-71732881D01*
X-60000000Y-65000000D02*
X-60000000Y-68311482D01*
%TO.N,/D6*%
X-50947535Y-79921399D02*
X-48838601Y-79921399D01*
X-51378601Y-79490333D02*
X-50947535Y-79921399D01*
X-51378601Y-77865069D02*
X-51378601Y-79490333D01*
X-54243670Y-75000000D02*
X-51378601Y-77865069D01*
X-48838601Y-79921399D02*
X-47760000Y-81000000D01*
X-55000000Y-75000000D02*
X-54243670Y-75000000D01*
%TO.N,/D7*%
X-46298601Y-79921399D02*
X-45220000Y-81000000D01*
X-48838601Y-79161399D02*
X-48078601Y-79921399D01*
X-48838601Y-77865069D02*
X-48838601Y-79161399D01*
X-48078601Y-79921399D02*
X-46298601Y-79921399D01*
X-49782271Y-76921399D02*
X-48838601Y-77865069D01*
X-51390083Y-76921399D02*
X-49782271Y-76921399D01*
X-55000000Y-73311482D02*
X-51390083Y-76921399D01*
X-55000000Y-70000000D02*
X-55000000Y-73311482D01*
%TO.N,/D8*%
X-46298601Y-78517729D02*
X-44894931Y-79921399D01*
X-46298601Y-77865069D02*
X-46298601Y-78517729D01*
X-51578601Y-74682881D02*
X-49340083Y-76921399D01*
X-49340083Y-76921399D02*
X-47242271Y-76921399D01*
X-51578601Y-72159917D02*
X-51578601Y-74682881D01*
X-43758601Y-79921399D02*
X-42680000Y-81000000D01*
X-47242271Y-76921399D02*
X-46298601Y-77865069D01*
X-55000000Y-68738518D02*
X-51578601Y-72159917D01*
X-44894931Y-79921399D02*
X-43758601Y-79921399D01*
X-55000000Y-65000000D02*
X-55000000Y-68738518D01*
%TO.N,/D9*%
X-41218601Y-79921399D02*
X-40140000Y-81000000D01*
X-43758601Y-78517729D02*
X-42354931Y-79921399D01*
X-42354931Y-79921399D02*
X-41218601Y-79921399D01*
X-43758601Y-77865069D02*
X-43758601Y-78517729D01*
X-46623670Y-75000000D02*
X-43758601Y-77865069D01*
X-50000000Y-75000000D02*
X-46623670Y-75000000D01*
%TO.N,/D19*%
X-35000000Y-70000000D02*
X-35000000Y-71000000D01*
%TO.N,/D18*%
X-35000000Y-75000000D02*
X-36000000Y-75000000D01*
%TO.N,/D17*%
X-40000000Y-65000000D02*
X-40000000Y-66000000D01*
%TO.N,/D16*%
X-40000000Y-70000000D02*
X-40000000Y-71000000D01*
%TO.N,/D15*%
X-40000000Y-75000000D02*
X-41000000Y-75000000D01*
%TO.N,/D14*%
X-45000000Y-65000000D02*
X-45000000Y-66000000D01*
%TO.N,/D13*%
X-45000000Y-70000000D02*
X-45000000Y-71000000D01*
%TO.N,/D12*%
X-45000000Y-75000000D02*
X-45000000Y-74000000D01*
%TO.N,/D11*%
X-50000000Y-65000000D02*
X-50000000Y-66000000D01*
%TO.N,/D10*%
X-50000000Y-70000000D02*
X-50000000Y-71000000D01*
%TO.N,/D29*%
X-8218601Y-79921399D02*
X-7140000Y-81000000D01*
X-8218601Y-77865069D02*
X-8218601Y-79921399D01*
X-15025217Y-76311779D02*
X-9771891Y-76311779D01*
X-9771891Y-76311779D02*
X-8218601Y-77865069D01*
X-20000000Y-68311482D02*
X-16578601Y-71732881D01*
X-16578601Y-74758395D02*
X-15025217Y-76311779D01*
X-16578601Y-71732881D02*
X-16578601Y-74758395D01*
X-20000000Y-65000000D02*
X-20000000Y-68311482D01*
%TO.N,/D28*%
X-10758601Y-79921399D02*
X-9680000Y-81000000D01*
X-10758601Y-77865069D02*
X-10758601Y-79921399D01*
X-15151473Y-76616589D02*
X-12007081Y-76616589D01*
X-12007081Y-76616589D02*
X-10758601Y-77865069D01*
X-17072871Y-74695191D02*
X-15151473Y-76616589D01*
X-18616292Y-74695190D02*
X-17072871Y-74695191D01*
X-20000000Y-73311482D02*
X-18616292Y-74695190D01*
X-20000000Y-70000000D02*
X-20000000Y-73311482D01*
%TO.N,/D27*%
X-13298601Y-79921399D02*
X-12220000Y-81000000D01*
X-14242271Y-76921399D02*
X-13298601Y-77865069D01*
X-15277729Y-76921399D02*
X-14242271Y-76921399D01*
X-17199128Y-75000000D02*
X-15277729Y-76921399D01*
X-13298601Y-77865069D02*
X-13298601Y-79921399D01*
X-20000000Y-75000000D02*
X-17199128Y-75000000D01*
%TO.N,/D26*%
X-15838601Y-79921399D02*
X-14760000Y-81000000D01*
X-15838601Y-77865069D02*
X-15838601Y-79921399D01*
X-19644892Y-76616590D02*
X-17087080Y-76616590D01*
X-21578601Y-71732881D02*
X-21578601Y-74682881D01*
X-17087080Y-76616590D02*
X-15838601Y-77865069D01*
X-25000000Y-68311482D02*
X-21578601Y-71732881D01*
X-21578601Y-74682881D02*
X-19644892Y-76616590D01*
X-25000000Y-65000000D02*
X-25000000Y-68311482D01*
%TO.N,/D25*%
X-18378601Y-79921399D02*
X-17300000Y-81000000D01*
X-18378601Y-77865069D02*
X-18378601Y-79921399D01*
X-19322271Y-76921399D02*
X-18378601Y-77865069D01*
X-21390083Y-76921399D02*
X-19322271Y-76921399D01*
X-25000000Y-73311482D02*
X-21390083Y-76921399D01*
X-25000000Y-70000000D02*
X-25000000Y-73311482D01*
%TO.N,/D24*%
X-20918601Y-79921399D02*
X-19840000Y-81000000D01*
X-20918601Y-77865069D02*
X-20918601Y-79921399D01*
X-23783670Y-75000000D02*
X-20918601Y-77865069D01*
X-25000000Y-75000000D02*
X-23783670Y-75000000D01*
%TO.N,/D23*%
X-23458601Y-79921399D02*
X-22380000Y-81000000D01*
X-23458601Y-77865069D02*
X-23458601Y-79921399D01*
X-26578601Y-74745069D02*
X-23458601Y-77865069D01*
X-26578601Y-71732881D02*
X-26578601Y-74745069D01*
X-30000000Y-68311482D02*
X-26578601Y-71732881D01*
X-30000000Y-65000000D02*
X-30000000Y-68311482D01*
%TO.N,/D22*%
X-25998601Y-79921399D02*
X-24920000Y-81000000D01*
X-25998601Y-77312881D02*
X-25998601Y-79921399D01*
X-30000000Y-73311482D02*
X-25998601Y-77312881D01*
X-30000000Y-70000000D02*
X-30000000Y-73311482D01*
%TO.N,/D21*%
X-28921399Y-79538601D02*
X-27460000Y-81000000D01*
X-28921399Y-76078601D02*
X-28921399Y-79538601D01*
X-30000000Y-75000000D02*
X-28921399Y-76078601D01*
%TO.N,/D20*%
X-31578601Y-79421399D02*
X-30000000Y-81000000D01*
X-31578601Y-71732881D02*
X-31578601Y-79421399D01*
X-35000000Y-68311482D02*
X-31578601Y-71732881D01*
X-35000000Y-65000000D02*
X-35000000Y-68311482D01*
%TO.N,/D30*%
X-15000000Y-75000000D02*
X-15000000Y-74000000D01*
%TO.N,/D31*%
X-15000000Y-70000000D02*
X-15000000Y-71000000D01*
%TO.N,/D32*%
X-15000000Y-65000000D02*
X-15000000Y-66000000D01*
%TO.N,/D33*%
X-10000000Y-75000000D02*
X-10000000Y-74000000D01*
%TO.N,/D34*%
X-10000000Y-70000000D02*
X-10000000Y-71000000D01*
%TO.N,/D35*%
X-10000000Y-65000000D02*
X-10000000Y-66000000D01*
%TO.N,/D36*%
X-5000000Y-75000000D02*
X-6000000Y-75000000D01*
%TO.N,/D37*%
X-5000000Y-70000000D02*
X-5000000Y-71000000D01*
%TO.N,/D38*%
X-5000000Y-65000000D02*
X-5000000Y-66000000D01*
%TO.N,/D39*%
X0Y-75000000D02*
X-1000000Y-75000000D01*
%TO.N,/D40*%
X1921399Y-79921399D02*
X3000000Y-81000000D01*
X1921399Y-75232881D02*
X1921399Y-79921399D01*
X0Y-73311482D02*
X1921399Y-75232881D01*
X0Y-70000000D02*
X0Y-73311482D01*
%TO.N,/D41*%
X4461399Y-79921399D02*
X5540000Y-81000000D01*
X3421399Y-76309917D02*
X4461399Y-77349917D01*
X3421399Y-72159917D02*
X3421399Y-76309917D01*
X0Y-68738518D02*
X3421399Y-72159917D01*
X4461399Y-77349917D02*
X4461399Y-79921399D01*
X0Y-65000000D02*
X0Y-68738518D01*
%TO.N,/D42*%
X6618601Y-79538601D02*
X8080000Y-81000000D01*
X6618601Y-76618601D02*
X6618601Y-79538601D01*
X5000000Y-75000000D02*
X6618601Y-76618601D01*
%TO.N,/D43*%
X9541399Y-79921399D02*
X10620000Y-81000000D01*
X9541399Y-77852881D02*
X9541399Y-79921399D01*
X5000000Y-73311482D02*
X9541399Y-77852881D01*
X5000000Y-70000000D02*
X5000000Y-73311482D01*
%TO.N,/D44*%
X11137729Y-76921399D02*
X12081399Y-77865069D01*
X10102271Y-76921399D02*
X11137729Y-76921399D01*
X8421399Y-75240527D02*
X10102271Y-76921399D01*
X8421399Y-71732881D02*
X8421399Y-75240527D01*
X12081399Y-79921399D02*
X13160000Y-81000000D01*
X5000000Y-68311482D02*
X8421399Y-71732881D01*
X12081399Y-77865069D02*
X12081399Y-79921399D01*
X5000000Y-65000000D02*
X5000000Y-68311482D01*
%TO.N,/D45*%
X14621399Y-77865069D02*
X14621399Y-79921399D01*
X14621399Y-79921399D02*
X15700000Y-81000000D01*
X11756330Y-75000000D02*
X14621399Y-77865069D01*
X10000000Y-75000000D02*
X11756330Y-75000000D01*
%TO.N,/D46*%
X11383708Y-74695190D02*
X12195190Y-74695190D01*
X10000000Y-70000000D02*
X10000000Y-73311482D01*
X10000000Y-73311482D02*
X11383708Y-74695190D01*
X17161399Y-79921399D02*
X18240000Y-81000000D01*
X17161399Y-77865069D02*
X17161399Y-79921399D01*
X14421399Y-76921399D02*
X16217729Y-76921399D01*
X16217729Y-76921399D02*
X17161399Y-77865069D01*
X12195190Y-74695190D02*
X14421399Y-76921399D01*
%TO.N,/D47*%
X19701399Y-79921399D02*
X20780000Y-81000000D01*
X18452919Y-76616589D02*
X19701399Y-77865069D01*
X14616589Y-76616589D02*
X18452919Y-76616589D01*
X13421399Y-75421399D02*
X14616589Y-76616589D01*
X13421399Y-71732881D02*
X13421399Y-75421399D01*
X19701399Y-77865069D02*
X19701399Y-79921399D01*
X10000000Y-68311482D02*
X13421399Y-71732881D01*
X10000000Y-65000000D02*
X10000000Y-68311482D01*
%TO.N,/D48*%
X15000000Y-75000000D02*
X17500000Y-75000000D01*
X22241399Y-79921399D02*
X23320000Y-81000000D01*
X22241399Y-77865069D02*
X22241399Y-79921399D01*
X21297729Y-76921399D02*
X22241399Y-77865069D01*
X19421399Y-76921399D02*
X21297729Y-76921399D01*
X17500000Y-75000000D02*
X19421399Y-76921399D01*
%TO.N,/D49*%
X16578601Y-71578601D02*
X16578601Y-73578601D01*
X15000000Y-70000000D02*
X16578601Y-71578601D01*
X24781399Y-77865069D02*
X24781399Y-79921399D01*
X24781399Y-79921399D02*
X25860000Y-81000000D01*
X23532919Y-76616589D02*
X24781399Y-77865069D01*
X19616589Y-76616589D02*
X23532919Y-76616589D01*
X16578601Y-73578601D02*
X19616589Y-76616589D01*
%TO.N,/D59*%
X30000000Y-65000000D02*
X30000000Y-66000000D01*
%TO.N,/D58*%
X30000000Y-70000000D02*
X30000000Y-71000000D01*
%TO.N,/D57*%
X30000000Y-75000000D02*
X30000000Y-74000000D01*
%TO.N,/D56*%
X25000000Y-65000000D02*
X25000000Y-66000000D01*
%TO.N,/D55*%
X25000000Y-70000000D02*
X25000000Y-71000000D01*
%TO.N,/D54*%
X25000000Y-75000000D02*
X25000000Y-73500000D01*
%TO.N,/D53*%
X19950000Y-65000000D02*
X19950000Y-65950000D01*
X19950000Y-65950000D02*
X20000000Y-66000000D01*
%TO.N,/D52*%
X20000000Y-70000000D02*
X20000000Y-71000000D01*
%TO.N,/D51*%
X20000000Y-75000000D02*
X20000000Y-73000000D01*
%TO.N,/D50*%
X15000000Y-65000000D02*
X14000000Y-65000000D01*
%TO.N,/C0*%
X-62646390Y-70353610D02*
X-62500000Y-70500000D01*
X-63175000Y-54525000D02*
X-62646390Y-55053610D01*
X-62646390Y-55053610D02*
X-62646390Y-70353610D01*
X-64000000Y-72950000D02*
X-64050000Y-73000000D01*
X-64000000Y-72000000D02*
X-64000000Y-72950000D01*
%TO.N,/C1*%
X-64745000Y-63993518D02*
X-64050000Y-64688518D01*
X-64745000Y-59775000D02*
X-64745000Y-63993518D01*
X-64050000Y-64688518D02*
X-64050000Y-68000000D01*
X-64445000Y-59475000D02*
X-64745000Y-59775000D01*
%TO.N,/C2*%
X-63175000Y-62125000D02*
X-64050000Y-63000000D01*
X-63175000Y-59475000D02*
X-63175000Y-62125000D01*
%TO.N,/C3*%
X-61905000Y-59475000D02*
X-61905000Y-70095000D01*
X-61905000Y-70095000D02*
X-61000000Y-71000000D01*
X-59000000Y-72950000D02*
X-59050000Y-73000000D01*
X-59000000Y-71500000D02*
X-59000000Y-72950000D01*
%TO.N,/C4*%
X-59050000Y-64688518D02*
X-59050000Y-68000000D01*
X-59678601Y-62613069D02*
X-59678601Y-64059917D01*
X-60635000Y-61656670D02*
X-59678601Y-62613069D01*
X-59678601Y-64059917D02*
X-59050000Y-64688518D01*
X-60635000Y-59475000D02*
X-60635000Y-61656670D01*
%TO.N,/C5*%
X-59365000Y-62685000D02*
X-59050000Y-63000000D01*
X-59365000Y-59475000D02*
X-59365000Y-62685000D01*
%TO.N,/C6*%
X-58095000Y-59475000D02*
X-58095000Y-68905000D01*
X-58095000Y-68905000D02*
X-55500000Y-71500000D01*
X-54000000Y-72950000D02*
X-54050000Y-73000000D01*
X-54000000Y-72000000D02*
X-54000000Y-72950000D01*
%TO.N,/C7*%
X-54050000Y-64688518D02*
X-54050000Y-68000000D01*
X-54417119Y-64321399D02*
X-54050000Y-64688518D01*
X-55890083Y-64321399D02*
X-54417119Y-64321399D01*
X-56825000Y-63386482D02*
X-55890083Y-64321399D01*
X-56825000Y-59475000D02*
X-56825000Y-63386482D01*
%TO.N,/C8*%
X-54050000Y-59569564D02*
X-54050000Y-63000000D01*
X-51175000Y-56694564D02*
X-54050000Y-59569564D01*
X-51175000Y-54525000D02*
X-51175000Y-56694564D01*
%TO.N,/C9*%
X-49291670Y-73000000D02*
X-49050000Y-73000000D01*
X-52445000Y-69846670D02*
X-49291670Y-73000000D01*
X-52445000Y-59475000D02*
X-52445000Y-69846670D01*
%TO.N,/C10*%
X-51578601Y-65471399D02*
X-49050000Y-68000000D01*
X-51578601Y-59878601D02*
X-51578601Y-65471399D01*
X-51175000Y-59475000D02*
X-51578601Y-59878601D01*
%TO.N,/C11*%
X-49905000Y-62145000D02*
X-49050000Y-63000000D01*
X-49905000Y-59475000D02*
X-49905000Y-62145000D01*
%TO.N,/C12*%
X-48335000Y-68715000D02*
X-44050000Y-73000000D01*
X-48335000Y-59775000D02*
X-48335000Y-68715000D01*
X-48635000Y-59475000D02*
X-48335000Y-59775000D01*
%TO.N,/C13*%
X-44291670Y-68000000D02*
X-44050000Y-68000000D01*
X-47365000Y-64926670D02*
X-44291670Y-68000000D01*
X-47365000Y-59475000D02*
X-47365000Y-64926670D01*
%TO.N,/C14*%
X-46095000Y-60955000D02*
X-44050000Y-63000000D01*
X-46095000Y-59475000D02*
X-46095000Y-60955000D01*
%TO.N,/C15*%
X-41578601Y-70471399D02*
X-39050000Y-73000000D01*
X-41578601Y-64209917D02*
X-41578601Y-70471399D01*
X-44825000Y-60963518D02*
X-41578601Y-64209917D01*
X-44825000Y-59475000D02*
X-44825000Y-60963518D01*
%TO.N,/C16*%
X-40628601Y-66421399D02*
X-39050000Y-68000000D01*
X-40628601Y-64728851D02*
X-40628601Y-66421399D01*
X-41578601Y-59098165D02*
X-41578601Y-63778851D01*
X-41578601Y-63778851D02*
X-40628601Y-64728851D01*
X-39175000Y-56694564D02*
X-41578601Y-59098165D01*
X-39175000Y-54525000D02*
X-39175000Y-56694564D01*
%TO.N,/C17*%
X-40145000Y-61905000D02*
X-39050000Y-63000000D01*
X-40145000Y-59775000D02*
X-40145000Y-61905000D01*
X-40445000Y-59475000D02*
X-40145000Y-59775000D01*
%TO.N,/C18*%
X-36578601Y-70471399D02*
X-34050000Y-73000000D01*
X-39175000Y-61613518D02*
X-36578601Y-64209917D01*
X-36578601Y-64209917D02*
X-36578601Y-70471399D01*
X-39175000Y-59475000D02*
X-39175000Y-61613518D01*
%TO.N,/C19*%
X-34050000Y-64688518D02*
X-34050000Y-68000000D01*
X-36036053Y-64321399D02*
X-34417119Y-64321399D01*
X-37905000Y-62452452D02*
X-36036053Y-64321399D01*
X-34417119Y-64321399D02*
X-34050000Y-64688518D01*
X-37905000Y-59475000D02*
X-37905000Y-62452452D01*
%TO.N,/C20*%
X-34085000Y-63000000D02*
X-34050000Y-63000000D01*
X-36635000Y-60450000D02*
X-34085000Y-63000000D01*
X-36635000Y-59475000D02*
X-36635000Y-60450000D01*
%TO.N,/C21*%
X-33421399Y-68578601D02*
X-30500000Y-71500000D01*
X-33421399Y-62393601D02*
X-33421399Y-68578601D01*
X-35365000Y-59475000D02*
X-35365000Y-60450000D01*
X-35365000Y-60450000D02*
X-33421399Y-62393601D01*
X-29000000Y-72950000D02*
X-29050000Y-73000000D01*
X-29000000Y-72000000D02*
X-29000000Y-72950000D01*
%TO.N,/C22*%
X-29417119Y-64321399D02*
X-29050000Y-64688518D01*
X-29050000Y-64688518D02*
X-29050000Y-68000000D01*
X-31062535Y-64321399D02*
X-29417119Y-64321399D01*
X-34095000Y-61288934D02*
X-31062535Y-64321399D01*
X-34095000Y-59475000D02*
X-34095000Y-61288934D01*
%TO.N,/C23*%
X-31753601Y-61521399D02*
X-30528601Y-61521399D01*
X-32825000Y-60450000D02*
X-31753601Y-61521399D01*
X-30528601Y-61521399D02*
X-29050000Y-63000000D01*
X-32825000Y-59475000D02*
X-32825000Y-60450000D01*
%TO.N,/C24*%
X-26578601Y-70421399D02*
X-26000000Y-71000000D01*
X-27175000Y-55500000D02*
X-28973610Y-57298610D01*
X-27175000Y-54525000D02*
X-27175000Y-55500000D01*
X-28973610Y-57298610D02*
X-28973610Y-61814908D01*
X-28973610Y-61814908D02*
X-26578601Y-64209917D01*
X-26578601Y-64209917D02*
X-26578601Y-70421399D01*
X-24000000Y-72950000D02*
X-24050000Y-73000000D01*
X-24000000Y-71500000D02*
X-24000000Y-72950000D01*
%TO.N,/C25*%
X-24417119Y-64321399D02*
X-24050000Y-64688518D01*
X-26036053Y-64321399D02*
X-24417119Y-64321399D01*
X-28445000Y-61912452D02*
X-26036053Y-64321399D01*
X-24050000Y-64688518D02*
X-24050000Y-68000000D01*
X-28445000Y-59475000D02*
X-28445000Y-61912452D01*
%TO.N,/C26*%
X-24050000Y-62840436D02*
X-24050000Y-63000000D01*
X-27175000Y-59715436D02*
X-24050000Y-62840436D01*
X-27175000Y-59475000D02*
X-27175000Y-59715436D01*
%TO.N,/C27*%
X-23421399Y-68578601D02*
X-20500000Y-71500000D01*
X-23421399Y-62367119D02*
X-23421399Y-68578601D01*
X-25905000Y-59475000D02*
X-25905000Y-59883518D01*
X-25905000Y-59883518D02*
X-23421399Y-62367119D01*
X-19000000Y-72950000D02*
X-19050000Y-73000000D01*
X-19000000Y-72000000D02*
X-19000000Y-72950000D01*
%TO.N,/C28*%
X-19417119Y-64321399D02*
X-19050000Y-64688518D01*
X-24635000Y-60722452D02*
X-21036053Y-64321399D01*
X-19050000Y-64688518D02*
X-19050000Y-68000000D01*
X-21036053Y-64321399D02*
X-19417119Y-64321399D01*
X-24635000Y-59475000D02*
X-24635000Y-60722452D01*
%TO.N,/C29*%
X-20528601Y-61521399D02*
X-19050000Y-63000000D01*
X-22293601Y-61521399D02*
X-20528601Y-61521399D01*
X-23365000Y-60450000D02*
X-22293601Y-61521399D01*
X-23365000Y-59475000D02*
X-23365000Y-60450000D01*
%TO.N,/C30*%
X-16578601Y-64209917D02*
X-16578601Y-70471399D01*
X-18467119Y-62321399D02*
X-16578601Y-64209917D01*
X-18873791Y-62321399D02*
X-18467119Y-62321399D01*
X-19978601Y-61216589D02*
X-18873791Y-62321399D01*
X-16578601Y-70471399D02*
X-14050000Y-73000000D01*
X-21328411Y-61216589D02*
X-19978601Y-61216589D01*
X-22095000Y-60450000D02*
X-21328411Y-61216589D01*
X-22095000Y-59475000D02*
X-22095000Y-60450000D01*
%TO.N,/C31*%
X-19248174Y-58271390D02*
X-18000000Y-59519564D01*
X-20596390Y-58271390D02*
X-19248174Y-58271390D01*
X-20825000Y-59475000D02*
X-20825000Y-58500000D01*
X-20825000Y-58500000D02*
X-20596390Y-58271390D01*
X-15628601Y-66421399D02*
X-14050000Y-68000000D01*
X-18000000Y-62357452D02*
X-15628601Y-64728851D01*
X-15628601Y-64728851D02*
X-15628601Y-66421399D01*
X-18000000Y-59519564D02*
X-18000000Y-62357452D01*
%TO.N,/C32*%
X-15175000Y-55500000D02*
X-17000000Y-57325000D01*
X-15175000Y-54525000D02*
X-15175000Y-55500000D01*
X-15528601Y-61521399D02*
X-14050000Y-63000000D01*
X-15909037Y-61521399D02*
X-15528601Y-61521399D01*
X-17000000Y-60430436D02*
X-15909037Y-61521399D01*
X-17000000Y-57325000D02*
X-17000000Y-60430436D01*
%TO.N,/C33*%
X-13467119Y-62321399D02*
X-13000000Y-62788518D01*
X-13839037Y-62321399D02*
X-13467119Y-62321399D01*
X-16445000Y-59475000D02*
X-16445000Y-59715436D01*
X-16445000Y-59715436D02*
X-13839037Y-62321399D01*
X-9291670Y-73000000D02*
X-9050000Y-73000000D01*
X-13000000Y-69291670D02*
X-9291670Y-73000000D01*
X-13000000Y-62788518D02*
X-13000000Y-69291670D01*
%TO.N,/C34*%
X-10628601Y-66421399D02*
X-9050000Y-68000000D01*
X-10628601Y-64550000D02*
X-10628601Y-66421399D01*
X-15175000Y-60003601D02*
X-10628601Y-64550000D01*
X-15175000Y-59475000D02*
X-15175000Y-60003601D01*
%TO.N,/C35*%
X-10528601Y-61521399D02*
X-9050000Y-63000000D01*
X-12833601Y-61521399D02*
X-10528601Y-61521399D01*
X-13905000Y-60450000D02*
X-12833601Y-61521399D01*
X-13905000Y-59475000D02*
X-13905000Y-60450000D01*
%TO.N,/C36*%
X-9571929Y-61216589D02*
X-8000000Y-62788518D01*
X-12635000Y-59475000D02*
X-12635000Y-60450000D01*
X-11868411Y-61216589D02*
X-9571929Y-61216589D01*
X-12635000Y-60450000D02*
X-11868411Y-61216589D01*
X-4291670Y-73000000D02*
X-4050000Y-73000000D01*
X-8000000Y-69291670D02*
X-4291670Y-73000000D01*
X-8000000Y-62788518D02*
X-8000000Y-69291670D01*
%TO.N,/C37*%
X-9445672Y-60911780D02*
X-5628601Y-64728851D01*
X-10903221Y-60911779D02*
X-9445672Y-60911780D01*
X-5628601Y-66421399D02*
X-4050000Y-68000000D01*
X-11365000Y-60450000D02*
X-10903221Y-60911779D01*
X-5628601Y-64728851D02*
X-5628601Y-66421399D01*
X-11365000Y-59475000D02*
X-11365000Y-60450000D01*
%TO.N,/C38*%
X-5528601Y-61521399D02*
X-4050000Y-63000000D01*
X-10095000Y-59715436D02*
X-8289037Y-61521399D01*
X-8289037Y-61521399D02*
X-5528601Y-61521399D01*
X-10095000Y-59475000D02*
X-10095000Y-59715436D01*
%TO.N,/C39*%
X-3421399Y-68578601D02*
X-1000000Y-71000000D01*
X-8596390Y-58271390D02*
X-7248174Y-58271390D01*
X-8825000Y-59475000D02*
X-8825000Y-58500000D01*
X-7248174Y-58271390D02*
X-3421399Y-62098165D01*
X-8825000Y-58500000D02*
X-8596390Y-58271390D01*
X-3421399Y-62098165D02*
X-3421399Y-68578601D01*
X1000000Y-72950000D02*
X950000Y-73000000D01*
X1000000Y-72000000D02*
X1000000Y-72950000D01*
%TO.N,/C40*%
X-3175000Y-54525000D02*
X-3703610Y-55053610D01*
X-2160436Y-62000000D02*
X-2000000Y-62000000D01*
X-3703610Y-60456826D02*
X-2160436Y-62000000D01*
X-3703610Y-55053610D02*
X-3703610Y-60456826D01*
X1000000Y-67950000D02*
X950000Y-68000000D01*
X1000000Y-67000000D02*
X1000000Y-67950000D01*
%TO.N,/C41*%
X-4445000Y-60450000D02*
X-2000000Y-62895000D01*
X-4445000Y-59475000D02*
X-4445000Y-60450000D01*
X-1532881Y-63678601D02*
X271399Y-63678601D01*
X271399Y-63678601D02*
X950000Y-63000000D01*
X-2000000Y-63211482D02*
X-1532881Y-63678601D01*
X-2000000Y-62895000D02*
X-2000000Y-63211482D01*
%TO.N,/C42*%
X732881Y-61521399D02*
X2000000Y-62788518D01*
X-2103601Y-61521399D02*
X732881Y-61521399D01*
X-3175000Y-59475000D02*
X-3175000Y-60450000D01*
X-3175000Y-60450000D02*
X-2103601Y-61521399D01*
X2000000Y-62788518D02*
X2000000Y-69000000D01*
X2000000Y-69000000D02*
X4500000Y-71500000D01*
X6000000Y-72950000D02*
X5950000Y-73000000D01*
X6000000Y-72000000D02*
X6000000Y-72950000D01*
%TO.N,/C43*%
X-1905000Y-60450000D02*
X-1138411Y-61216589D01*
X4371399Y-66371399D02*
X4500000Y-66500000D01*
X-1138411Y-61216589D02*
X1005107Y-61216589D01*
X-1905000Y-59475000D02*
X-1905000Y-60450000D01*
X1005107Y-61216589D02*
X4371399Y-64582881D01*
X4371399Y-64582881D02*
X4371399Y-66371399D01*
X6000000Y-67950000D02*
X5950000Y-68000000D01*
X6000000Y-67000000D02*
X6000000Y-67950000D01*
%TO.N,/C44*%
X5708330Y-63000000D02*
X5950000Y-63000000D01*
X-173221Y-60911779D02*
X3620109Y-60911779D01*
X-635000Y-60450000D02*
X-173221Y-60911779D01*
X3620109Y-60911779D02*
X5708330Y-63000000D01*
X-635000Y-59475000D02*
X-635000Y-60450000D01*
%TO.N,/C45*%
X635000Y-59234564D02*
X2869564Y-57000000D01*
X635000Y-59475000D02*
X635000Y-59234564D01*
X2869564Y-57000000D02*
X3480436Y-57000000D01*
X3480436Y-57000000D02*
X5500000Y-57000000D01*
X5500000Y-57000000D02*
X7000000Y-58500000D01*
X7000000Y-58500000D02*
X7000000Y-69000000D01*
X7000000Y-69000000D02*
X9500000Y-71500000D01*
X11000000Y-72950000D02*
X10950000Y-73000000D01*
X11000000Y-72000000D02*
X11000000Y-72950000D01*
%TO.N,/C46*%
X1905000Y-58500000D02*
X3100190Y-57304810D01*
X1905000Y-59475000D02*
X1905000Y-58500000D01*
X3100190Y-57304810D02*
X5304810Y-57304810D01*
X6578601Y-65921399D02*
X6500000Y-66000000D01*
X5304810Y-57304810D02*
X6578601Y-58578601D01*
X6578601Y-58578601D02*
X6578601Y-65921399D01*
X11000000Y-67950000D02*
X10950000Y-68000000D01*
X11000000Y-67000000D02*
X11000000Y-67950000D01*
%TO.N,/C47*%
X3175000Y-58500000D02*
X4065380Y-57609620D01*
X3175000Y-59475000D02*
X3175000Y-58500000D01*
X5109620Y-57609620D02*
X6273791Y-58773791D01*
X4065380Y-57609620D02*
X5109620Y-57609620D01*
X6273791Y-58773791D02*
X6273791Y-61226209D01*
X6273791Y-61226209D02*
X6000000Y-61500000D01*
X11000000Y-62950000D02*
X10950000Y-63000000D01*
X11000000Y-62000000D02*
X11000000Y-62950000D01*
%TO.N,/C48*%
X9678601Y-65940083D02*
X9678601Y-69059917D01*
X9176844Y-69561674D02*
X9176844Y-70500000D01*
X9371399Y-65632881D02*
X9678601Y-65940083D01*
X9478601Y-55178601D02*
X9478601Y-62167119D01*
X9371399Y-64367119D02*
X9371399Y-65632881D01*
X8825000Y-54525000D02*
X9478601Y-55178601D01*
X9478601Y-62167119D02*
X9678601Y-62367119D01*
X9678601Y-69059917D02*
X9176844Y-69561674D01*
X9678601Y-62367119D02*
X9678601Y-64059917D01*
X9678601Y-64059917D02*
X9371399Y-64367119D01*
X16000000Y-72950000D02*
X15950000Y-73000000D01*
X16000000Y-72000000D02*
X16000000Y-72950000D01*
%TO.N,/C49*%
X7555000Y-59475000D02*
X7555000Y-63555000D01*
X7555000Y-63555000D02*
X8500000Y-64500000D01*
X16000000Y-67950000D02*
X15950000Y-68000000D01*
X16000000Y-67000000D02*
X16000000Y-67950000D01*
%TO.N,/C50*%
X8825000Y-59475000D02*
X8825000Y-60825000D01*
X8825000Y-60825000D02*
X9000000Y-61000000D01*
X16000000Y-62950000D02*
X15950000Y-63000000D01*
X16000000Y-62000000D02*
X16000000Y-62950000D01*
%TO.N,/C51*%
X13421399Y-63041835D02*
X13421399Y-68632881D01*
X17271399Y-69321399D02*
X20950000Y-73000000D01*
X14109917Y-69321399D02*
X17271399Y-69321399D01*
X10095000Y-59715436D02*
X13421399Y-63041835D01*
X13421399Y-68632881D02*
X14109917Y-69321399D01*
X10095000Y-59475000D02*
X10095000Y-59715436D01*
%TO.N,/C52*%
X18209917Y-66521399D02*
X19471399Y-66521399D01*
X19471399Y-66521399D02*
X20950000Y-68000000D01*
X15321399Y-63632881D02*
X18209917Y-66521399D01*
X15321399Y-62613069D02*
X15321399Y-63632881D01*
X14229729Y-61521399D02*
X15321399Y-62613069D01*
X12436399Y-61521399D02*
X14229729Y-61521399D01*
X11365000Y-60450000D02*
X12436399Y-61521399D01*
X11365000Y-59475000D02*
X11365000Y-60450000D01*
%TO.N,/C53*%
X18417119Y-63678601D02*
X20221399Y-63678601D01*
X15417128Y-60678610D02*
X18417119Y-63678601D01*
X20221399Y-63678601D02*
X20900000Y-63000000D01*
X12863610Y-60678610D02*
X15417128Y-60678610D01*
X12635000Y-60450000D02*
X12863610Y-60678610D01*
X12635000Y-59475000D02*
X12635000Y-60450000D01*
%TO.N,/C54*%
X17466581Y-57966581D02*
X18500000Y-59000000D01*
X14438419Y-57966581D02*
X17466581Y-57966581D01*
X13905000Y-59475000D02*
X13905000Y-58500000D01*
X13905000Y-58500000D02*
X14438419Y-57966581D01*
X24428601Y-71478601D02*
X25950000Y-73000000D01*
X23478601Y-71478601D02*
X24428601Y-71478601D01*
X23000000Y-71000000D02*
X23478601Y-71478601D01*
%TO.N,/C55*%
X15403610Y-58271390D02*
X16840954Y-58271390D01*
X16840954Y-58271390D02*
X20569564Y-62000000D01*
X15175000Y-59475000D02*
X15175000Y-58500000D01*
X15175000Y-58500000D02*
X15403610Y-58271390D01*
X24371399Y-66421399D02*
X25950000Y-68000000D01*
X24371399Y-65209917D02*
X24371399Y-66421399D01*
X21161482Y-62000000D02*
X24371399Y-65209917D01*
X20569564Y-62000000D02*
X21161482Y-62000000D01*
%TO.N,/C56*%
X24471399Y-61521399D02*
X25950000Y-63000000D01*
X22630963Y-61521399D02*
X24471399Y-61521399D01*
X21353610Y-60244046D02*
X22630963Y-61521399D01*
X21353610Y-55053610D02*
X21353610Y-60244046D01*
X20825000Y-54525000D02*
X21353610Y-55053610D01*
%TO.N,/C57*%
X28421399Y-70471399D02*
X30950000Y-73000000D01*
X28421399Y-67159917D02*
X28421399Y-70471399D01*
X25582881Y-64321399D02*
X28421399Y-67159917D01*
X24109917Y-64321399D02*
X25582881Y-64321399D01*
X19555000Y-59766482D02*
X24109917Y-64321399D01*
X19555000Y-59475000D02*
X19555000Y-59766482D01*
%TO.N,/C58*%
X20825000Y-59475000D02*
X20825000Y-57520610D01*
X20825000Y-57520610D02*
X20875010Y-57470600D01*
X31000000Y-67950000D02*
X30950000Y-68000000D01*
X31000000Y-66000000D02*
X31000000Y-67950000D01*
%TO.N,/C59*%
X29471399Y-61521399D02*
X30950000Y-63000000D01*
X28021399Y-61216589D02*
X28326209Y-61521399D01*
X28326209Y-61521399D02*
X29471399Y-61521399D01*
X22861589Y-61216589D02*
X28021399Y-61216589D01*
X22095000Y-60450000D02*
X22861589Y-61216589D01*
X22095000Y-59475000D02*
X22095000Y-60450000D01*
D30*
%TO.N,Net-(R5-Pad2)*%
X90000000Y-75000000D02*
X88500000Y-75000000D01*
D29*
%TO.N,/SRCLK*%
X25905000Y-54525000D02*
X25905000Y-55905000D01*
X25905000Y-55905000D02*
X26000000Y-56000000D01*
X13905000Y-54525000D02*
X13905000Y-55905000D01*
X13905000Y-55905000D02*
X14000000Y-56000000D01*
X1905000Y-54525000D02*
X1905000Y-55905000D01*
X1905000Y-55905000D02*
X2000000Y-56000000D01*
X-10095000Y-54525000D02*
X-10095000Y-55905000D01*
X-10095000Y-55905000D02*
X-10000000Y-56000000D01*
X-22095000Y-54525000D02*
X-22095000Y-55905000D01*
X-22095000Y-55905000D02*
X-22000000Y-56000000D01*
X-34095000Y-54525000D02*
X-34095000Y-55905000D01*
X-34095000Y-55905000D02*
X-34000000Y-56000000D01*
X-46095000Y-54525000D02*
X-46095000Y-55905000D01*
X-46095000Y-55905000D02*
X-46000000Y-56000000D01*
X-58095000Y-54525000D02*
X-58095000Y-55905000D01*
X-58095000Y-55905000D02*
X-58000000Y-56000000D01*
X-62800000Y-47365000D02*
X-58095000Y-52070000D01*
X-58095000Y-52070000D02*
X-58095000Y-54525000D01*
X-63600000Y-47365000D02*
X-62800000Y-47365000D01*
%TO.N,/RCLK*%
X24635000Y-57865000D02*
X24500000Y-58000000D01*
X24635000Y-54525000D02*
X24635000Y-57865000D01*
X12635000Y-57865000D02*
X12500000Y-58000000D01*
X12635000Y-54525000D02*
X12635000Y-57865000D01*
X635000Y-57865000D02*
X500000Y-58000000D01*
X635000Y-54525000D02*
X635000Y-57865000D01*
X-11365000Y-57865000D02*
X-11500000Y-58000000D01*
X-11365000Y-54525000D02*
X-11365000Y-57865000D01*
X-23365000Y-57865000D02*
X-23500000Y-58000000D01*
X-23365000Y-54525000D02*
X-23365000Y-57865000D01*
X-35365000Y-57865000D02*
X-35500000Y-58000000D01*
X-35365000Y-54525000D02*
X-35365000Y-57865000D01*
X-47365000Y-57865000D02*
X-47500000Y-58000000D01*
X-47365000Y-54525000D02*
X-47365000Y-57865000D01*
X-59365000Y-54525000D02*
X-59365000Y-57865000D01*
X-59365000Y-57865000D02*
X-59500000Y-58000000D01*
X-59365000Y-52070000D02*
X-59365000Y-54525000D01*
X-62800000Y-48635000D02*
X-59365000Y-52070000D01*
X-63600000Y-48635000D02*
X-62800000Y-48635000D01*
D27*
%TO.N,Net-(U1-Pad6)*%
X-56400000Y-48635000D02*
X-59635000Y-48635000D01*
X-59635000Y-48635000D02*
X-60000000Y-49000000D01*
X-62000000Y-54430000D02*
X-61905000Y-54525000D01*
X-62000000Y-51000000D02*
X-62000000Y-54430000D01*
D30*
%TO.N,Net-(U2-Pad1)*%
X-38820000Y-44750000D02*
X-37475000Y-46095000D01*
X-40000000Y-44750000D02*
X-38820000Y-44750000D01*
%TO.N,Net-(U2-Pad2)*%
X-37590000Y-47250000D02*
X-37475000Y-47365000D01*
X-40000000Y-47250000D02*
X-37590000Y-47250000D01*
D27*
%TO.N,Net-(U5-Pad9)*%
X-50500000Y-51000000D02*
X-49905000Y-51595000D01*
X-55000000Y-51000000D02*
X-50500000Y-51000000D01*
X-55555000Y-51555000D02*
X-55000000Y-51000000D01*
X-49905000Y-51595000D02*
X-49905000Y-54525000D01*
X-55555000Y-54525000D02*
X-55555000Y-51555000D01*
%TO.N,Net-(U11-Pad9)*%
X21500000Y-51000000D02*
X22095000Y-51595000D01*
X16445000Y-51555000D02*
X17000000Y-51000000D01*
X17000000Y-51000000D02*
X21500000Y-51000000D01*
X16445000Y-54525000D02*
X16445000Y-51555000D01*
X22095000Y-51595000D02*
X22095000Y-54525000D01*
%TO.N,Net-(U6-Pad9)*%
X-38500000Y-51000000D02*
X-37905000Y-51595000D01*
X-43555000Y-51555000D02*
X-43000000Y-51000000D01*
X-43000000Y-51000000D02*
X-38500000Y-51000000D01*
X-43555000Y-54525000D02*
X-43555000Y-51555000D01*
X-37905000Y-51595000D02*
X-37905000Y-54525000D01*
%TO.N,Net-(U7-Pad9)*%
X-26500000Y-51000000D02*
X-25905000Y-51595000D01*
X-31555000Y-51555000D02*
X-31000000Y-51000000D01*
X-31000000Y-51000000D02*
X-26500000Y-51000000D01*
X-31555000Y-54525000D02*
X-31555000Y-51555000D01*
X-25905000Y-51595000D02*
X-25905000Y-54525000D01*
%TO.N,Net-(U10-Pad14)*%
X-2500000Y-51000000D02*
X-1905000Y-51595000D01*
X-7555000Y-51555000D02*
X-7000000Y-51000000D01*
X-7000000Y-51000000D02*
X-2500000Y-51000000D01*
X-7555000Y-54525000D02*
X-7555000Y-51555000D01*
X-1905000Y-51595000D02*
X-1905000Y-54525000D01*
%TO.N,Net-(U10-Pad9)*%
X9500000Y-51000000D02*
X10095000Y-51595000D01*
X4445000Y-51555000D02*
X5000000Y-51000000D01*
X5000000Y-51000000D02*
X9500000Y-51000000D01*
X4445000Y-54525000D02*
X4445000Y-51555000D01*
X10095000Y-51595000D02*
X10095000Y-54525000D01*
D30*
%TO.N,Net-(C5-Pad1)*%
X83475000Y-72400000D02*
X83475000Y-71905000D01*
X81875000Y-74000000D02*
X83475000Y-72400000D01*
D27*
%TO.N,Net-(J8-Pad2)*%
X-34873743Y-42695191D02*
X-34195190Y-43373744D01*
X-45460000Y-44000000D02*
X-44155190Y-42695190D01*
X-44155190Y-42695190D02*
X-34873743Y-42695191D01*
X-34195190Y-47939810D02*
X-33500000Y-48635000D01*
X-33500000Y-48635000D02*
X-32525000Y-48635000D01*
X-34195190Y-43373744D02*
X-34195190Y-47939810D01*
%TO.N,Net-(J9-Pad2)*%
X-45460000Y-47000000D02*
X-43000000Y-44540000D01*
X-43000000Y-44540000D02*
X-43000000Y-43500000D01*
X-43000000Y-43500000D02*
X-42500000Y-43000000D01*
X-42500000Y-43000000D02*
X-35000000Y-43000000D01*
X-35000000Y-43000000D02*
X-34500000Y-43500000D01*
X-34500000Y-43500000D02*
X-34500000Y-49500000D01*
X-34095000Y-49905000D02*
X-32525000Y-49905000D01*
X-34500000Y-49500000D02*
X-34095000Y-49905000D01*
%TO.N,Net-(U8-Pad9)*%
X-14500000Y-51000000D02*
X-13905000Y-51595000D01*
X-19555000Y-51555000D02*
X-19000000Y-51000000D01*
X-19000000Y-51000000D02*
X-14500000Y-51000000D01*
X-19555000Y-54525000D02*
X-19555000Y-51555000D01*
X-13905000Y-51595000D02*
X-13905000Y-54525000D01*
%TO.N,Net-(J11-Pad1)*%
X-37475000Y-48635000D02*
X-36135000Y-48635000D01*
X-36135000Y-48635000D02*
X-36000000Y-48500000D01*
%TD*%
D29*
%TO.N,Net-(Q1-Pad3)*%
G36*
X90873000Y-49552606D02*
G01*
X90873000Y-52447394D01*
X90447394Y-52873000D01*
X83552606Y-52873000D01*
X83127000Y-52447394D01*
X83127000Y-49552606D01*
X83552606Y-49127000D01*
X90447394Y-49127000D01*
X90873000Y-49552606D01*
G37*
X90873000Y-49552606D02*
X90873000Y-52447394D01*
X90447394Y-52873000D01*
X83552606Y-52873000D01*
X83127000Y-52447394D01*
X83127000Y-49552606D01*
X83552606Y-49127000D01*
X90447394Y-49127000D01*
X90873000Y-49552606D01*
%TO.N,+5V*%
G36*
X58765251Y-65142467D02*
G01*
X58820570Y-65179430D01*
X58857533Y-65234749D01*
X58873000Y-65312509D01*
X58873000Y-70687491D01*
X58857533Y-70765251D01*
X58820570Y-70820570D01*
X58765251Y-70857533D01*
X58687491Y-70873000D01*
X51312509Y-70873000D01*
X51234749Y-70857533D01*
X51179430Y-70820570D01*
X51142467Y-70765251D01*
X51127000Y-70687491D01*
X51127000Y-65312509D01*
X51142467Y-65234749D01*
X51179430Y-65179430D01*
X51234749Y-65142467D01*
X51312509Y-65127000D01*
X58687491Y-65127000D01*
X58765251Y-65142467D01*
G37*
X58765251Y-65142467D02*
X58820570Y-65179430D01*
X58857533Y-65234749D01*
X58873000Y-65312509D01*
X58873000Y-70687491D01*
X58857533Y-70765251D01*
X58820570Y-70820570D01*
X58765251Y-70857533D01*
X58687491Y-70873000D01*
X51312509Y-70873000D01*
X51234749Y-70857533D01*
X51179430Y-70820570D01*
X51142467Y-70765251D01*
X51127000Y-70687491D01*
X51127000Y-65312509D01*
X51142467Y-65234749D01*
X51179430Y-65179430D01*
X51234749Y-65142467D01*
X51312509Y-65127000D01*
X58687491Y-65127000D01*
X58765251Y-65142467D01*
%TO.N,+12V*%
G36*
X73873000Y-54500000D02*
G01*
X73875440Y-54524776D01*
X73882667Y-54548601D01*
X73894403Y-54570557D01*
X73910197Y-54589803D01*
X73929443Y-54605597D01*
X73951399Y-54617333D01*
X73975224Y-54624560D01*
X74000000Y-54627000D01*
X80873000Y-54627000D01*
X80873000Y-64447394D01*
X80447394Y-64873000D01*
X79000000Y-64873000D01*
X78975224Y-64875440D01*
X78951399Y-64882667D01*
X78929443Y-64894403D01*
X78910197Y-64910197D01*
X76910197Y-66910197D01*
X76894403Y-66929443D01*
X76882667Y-66951399D01*
X76875440Y-66975224D01*
X76873000Y-67000000D01*
X76873000Y-69000000D01*
X76875440Y-69024776D01*
X76882667Y-69048601D01*
X76894403Y-69070557D01*
X76910197Y-69089803D01*
X76929443Y-69105597D01*
X76951399Y-69117333D01*
X76975224Y-69124560D01*
X77000000Y-69127000D01*
X79373000Y-69127000D01*
X79373000Y-69807716D01*
X79350000Y-69805451D01*
X77700000Y-69805451D01*
X77567427Y-69818508D01*
X77439948Y-69857179D01*
X77410349Y-69873000D01*
X77160794Y-69873000D01*
X77139099Y-69858504D01*
X76970396Y-69788624D01*
X76791301Y-69753000D01*
X76608699Y-69753000D01*
X76429604Y-69788624D01*
X76260901Y-69858504D01*
X76239206Y-69873000D01*
X76000000Y-69873000D01*
X75975224Y-69875440D01*
X75951399Y-69882667D01*
X75929443Y-69894403D01*
X75910197Y-69910197D01*
X75894403Y-69929443D01*
X75882667Y-69951399D01*
X75875440Y-69975224D01*
X75873000Y-70000000D01*
X75873000Y-70254189D01*
X75823786Y-70373000D01*
X74127000Y-70373000D01*
X74127000Y-59500000D01*
X74124560Y-59475224D01*
X74117333Y-59451399D01*
X74105597Y-59429443D01*
X74089803Y-59410197D01*
X74070557Y-59394403D01*
X74048601Y-59382667D01*
X74024776Y-59375440D01*
X74000000Y-59373000D01*
X63127000Y-59373000D01*
X63127000Y-51627000D01*
X69000000Y-51627000D01*
X69024776Y-51624560D01*
X69048601Y-51617333D01*
X69070557Y-51605597D01*
X69089803Y-51589803D01*
X69105597Y-51570557D01*
X69117333Y-51548601D01*
X69124560Y-51524776D01*
X69127000Y-51500000D01*
X69127000Y-50127000D01*
X73873000Y-50127000D01*
X73873000Y-54500000D01*
G37*
X73873000Y-54500000D02*
X73875440Y-54524776D01*
X73882667Y-54548601D01*
X73894403Y-54570557D01*
X73910197Y-54589803D01*
X73929443Y-54605597D01*
X73951399Y-54617333D01*
X73975224Y-54624560D01*
X74000000Y-54627000D01*
X80873000Y-54627000D01*
X80873000Y-64447394D01*
X80447394Y-64873000D01*
X79000000Y-64873000D01*
X78975224Y-64875440D01*
X78951399Y-64882667D01*
X78929443Y-64894403D01*
X78910197Y-64910197D01*
X76910197Y-66910197D01*
X76894403Y-66929443D01*
X76882667Y-66951399D01*
X76875440Y-66975224D01*
X76873000Y-67000000D01*
X76873000Y-69000000D01*
X76875440Y-69024776D01*
X76882667Y-69048601D01*
X76894403Y-69070557D01*
X76910197Y-69089803D01*
X76929443Y-69105597D01*
X76951399Y-69117333D01*
X76975224Y-69124560D01*
X77000000Y-69127000D01*
X79373000Y-69127000D01*
X79373000Y-69807716D01*
X79350000Y-69805451D01*
X77700000Y-69805451D01*
X77567427Y-69818508D01*
X77439948Y-69857179D01*
X77410349Y-69873000D01*
X77160794Y-69873000D01*
X77139099Y-69858504D01*
X76970396Y-69788624D01*
X76791301Y-69753000D01*
X76608699Y-69753000D01*
X76429604Y-69788624D01*
X76260901Y-69858504D01*
X76239206Y-69873000D01*
X76000000Y-69873000D01*
X75975224Y-69875440D01*
X75951399Y-69882667D01*
X75929443Y-69894403D01*
X75910197Y-69910197D01*
X75894403Y-69929443D01*
X75882667Y-69951399D01*
X75875440Y-69975224D01*
X75873000Y-70000000D01*
X75873000Y-70254189D01*
X75823786Y-70373000D01*
X74127000Y-70373000D01*
X74127000Y-59500000D01*
X74124560Y-59475224D01*
X74117333Y-59451399D01*
X74105597Y-59429443D01*
X74089803Y-59410197D01*
X74070557Y-59394403D01*
X74048601Y-59382667D01*
X74024776Y-59375440D01*
X74000000Y-59373000D01*
X63127000Y-59373000D01*
X63127000Y-51627000D01*
X69000000Y-51627000D01*
X69024776Y-51624560D01*
X69048601Y-51617333D01*
X69070557Y-51605597D01*
X69089803Y-51589803D01*
X69105597Y-51570557D01*
X69117333Y-51548601D01*
X69124560Y-51524776D01*
X69127000Y-51500000D01*
X69127000Y-50127000D01*
X73873000Y-50127000D01*
X73873000Y-54500000D01*
%TO.N,GND*%
G36*
X90873000Y-45373000D02*
G01*
X84500000Y-45373000D01*
X84475224Y-45375440D01*
X84451399Y-45382667D01*
X84429443Y-45394403D01*
X84410197Y-45410197D01*
X84376233Y-45444161D01*
X84338673Y-45447860D01*
X84145083Y-45506585D01*
X83966669Y-45601949D01*
X83810288Y-45730288D01*
X83778128Y-45769475D01*
X81379480Y-48168124D01*
X81340287Y-48200289D01*
X81211948Y-48356670D01*
X81116584Y-48535085D01*
X81057859Y-48728675D01*
X81054160Y-48766234D01*
X80910197Y-48910197D01*
X80894403Y-48929443D01*
X80882667Y-48951399D01*
X80875440Y-48975224D01*
X80873000Y-49000000D01*
X80873000Y-53873000D01*
X74627000Y-53873000D01*
X74627000Y-49500000D01*
X74624560Y-49475224D01*
X74617333Y-49451399D01*
X74605597Y-49429443D01*
X74589803Y-49410197D01*
X74570557Y-49394403D01*
X74548601Y-49382667D01*
X74524776Y-49375440D01*
X74500000Y-49373000D01*
X69127000Y-49373000D01*
X69127000Y-46500000D01*
X69124560Y-46475224D01*
X69117333Y-46451399D01*
X69105597Y-46429443D01*
X69089803Y-46410197D01*
X69070557Y-46394403D01*
X69048601Y-46382667D01*
X69024776Y-46375440D01*
X69000000Y-46373000D01*
X64500000Y-46373000D01*
X64475224Y-46375440D01*
X64451399Y-46382667D01*
X64429443Y-46394403D01*
X64410197Y-46410197D01*
X64394403Y-46429443D01*
X64382667Y-46451399D01*
X64375440Y-46475224D01*
X64373000Y-46500000D01*
X64373000Y-50873000D01*
X62500000Y-50873000D01*
X62475224Y-50875440D01*
X62451399Y-50882667D01*
X62429443Y-50894403D01*
X62410197Y-50910197D01*
X62394403Y-50929443D01*
X62382667Y-50951399D01*
X62375440Y-50975224D01*
X62373000Y-51000000D01*
X62373000Y-60000000D01*
X62375440Y-60024776D01*
X62382667Y-60048601D01*
X62394403Y-60070557D01*
X62410197Y-60089803D01*
X62429443Y-60105597D01*
X62451399Y-60117333D01*
X62475224Y-60124560D01*
X62500000Y-60127000D01*
X73373000Y-60127000D01*
X73373000Y-71500000D01*
X73375440Y-71524776D01*
X73382667Y-71548601D01*
X73394403Y-71570557D01*
X73410197Y-71589803D01*
X73429443Y-71605597D01*
X73451399Y-71617333D01*
X73475224Y-71624560D01*
X73500000Y-71627000D01*
X80000000Y-71627000D01*
X80024776Y-71624560D01*
X80048601Y-71617333D01*
X80070557Y-71605597D01*
X80089803Y-71589803D01*
X80105597Y-71570557D01*
X80117333Y-71548601D01*
X80124560Y-71524776D01*
X80127000Y-71500000D01*
X80127000Y-68127000D01*
X81873000Y-68127000D01*
X81873000Y-69000000D01*
X81875440Y-69024776D01*
X81882667Y-69048601D01*
X81894403Y-69070557D01*
X81910197Y-69089803D01*
X81929443Y-69105597D01*
X81951399Y-69117333D01*
X81975224Y-69124560D01*
X82000000Y-69127000D01*
X84373000Y-69127000D01*
X84373000Y-70873000D01*
X82000000Y-70873000D01*
X81975224Y-70875440D01*
X81951399Y-70882667D01*
X81929443Y-70894403D01*
X81910197Y-70910197D01*
X81894403Y-70929443D01*
X81882667Y-70951399D01*
X81875440Y-70975224D01*
X81873000Y-71000000D01*
X81873000Y-72373000D01*
X80500000Y-72373000D01*
X80475224Y-72375440D01*
X80451399Y-72382667D01*
X80429443Y-72394403D01*
X80410197Y-72410197D01*
X80394403Y-72429443D01*
X80382667Y-72451399D01*
X80375440Y-72475224D01*
X80373000Y-72500000D01*
X80373000Y-76000000D01*
X80375440Y-76024776D01*
X80382667Y-76048601D01*
X80394403Y-76070557D01*
X80410197Y-76089803D01*
X80429443Y-76105597D01*
X80451399Y-76117333D01*
X80475224Y-76124560D01*
X80500000Y-76127000D01*
X91500000Y-76127000D01*
X91524776Y-76124560D01*
X91548601Y-76117333D01*
X91570557Y-76105597D01*
X91589803Y-76089803D01*
X91605597Y-76070557D01*
X91617333Y-76048601D01*
X91624560Y-76024776D01*
X91627000Y-76000000D01*
X91627000Y-70127000D01*
X102448000Y-70127000D01*
X102448000Y-81948000D01*
X33127000Y-81948000D01*
X33127000Y-73426045D01*
X68303000Y-73426045D01*
X68303000Y-73653955D01*
X68347463Y-73877484D01*
X68434680Y-74088045D01*
X68561300Y-74277544D01*
X68722456Y-74438700D01*
X68911955Y-74565320D01*
X69122516Y-74652537D01*
X69346045Y-74697000D01*
X69573955Y-74697000D01*
X69797484Y-74652537D01*
X70008045Y-74565320D01*
X70197544Y-74438700D01*
X70358700Y-74277544D01*
X70485320Y-74088045D01*
X70572537Y-73877484D01*
X70617000Y-73653955D01*
X70617000Y-73426045D01*
X70572537Y-73202516D01*
X70485320Y-72991955D01*
X70358700Y-72802456D01*
X70197544Y-72641300D01*
X70008045Y-72514680D01*
X69797484Y-72427463D01*
X69573955Y-72383000D01*
X69346045Y-72383000D01*
X69122516Y-72427463D01*
X68911955Y-72514680D01*
X68722456Y-72641300D01*
X68561300Y-72802456D01*
X68434680Y-72991955D01*
X68347463Y-73202516D01*
X68303000Y-73426045D01*
X33127000Y-73426045D01*
X33127000Y-54000000D01*
X40873000Y-54000000D01*
X40873000Y-71500000D01*
X40875440Y-71524776D01*
X40882667Y-71548601D01*
X40894403Y-71570557D01*
X40910197Y-71589803D01*
X40929443Y-71605597D01*
X40951399Y-71617333D01*
X40975224Y-71624560D01*
X41000000Y-71627000D01*
X59500000Y-71627000D01*
X59524776Y-71624560D01*
X59548601Y-71617333D01*
X59570557Y-71605597D01*
X59589803Y-71589803D01*
X59605597Y-71570557D01*
X59617333Y-71548601D01*
X59624560Y-71524776D01*
X59627000Y-71500000D01*
X59627000Y-70886045D01*
X70843000Y-70886045D01*
X70843000Y-71113955D01*
X70887463Y-71337484D01*
X70974680Y-71548045D01*
X71101300Y-71737544D01*
X71262456Y-71898700D01*
X71451955Y-72025320D01*
X71662516Y-72112537D01*
X71886045Y-72157000D01*
X72113955Y-72157000D01*
X72337484Y-72112537D01*
X72548045Y-72025320D01*
X72737544Y-71898700D01*
X72898700Y-71737544D01*
X73025320Y-71548045D01*
X73112537Y-71337484D01*
X73157000Y-71113955D01*
X73157000Y-70886045D01*
X73112537Y-70662516D01*
X73025320Y-70451955D01*
X72898700Y-70262456D01*
X72737544Y-70101300D01*
X72548045Y-69974680D01*
X72337484Y-69887463D01*
X72113955Y-69843000D01*
X71886045Y-69843000D01*
X71662516Y-69887463D01*
X71451955Y-69974680D01*
X71262456Y-70101300D01*
X71101300Y-70262456D01*
X70974680Y-70451955D01*
X70887463Y-70662516D01*
X70843000Y-70886045D01*
X59627000Y-70886045D01*
X59627000Y-64500000D01*
X59624560Y-64475224D01*
X59617333Y-64451399D01*
X59605597Y-64429443D01*
X59589803Y-64410197D01*
X59570557Y-64394403D01*
X59548601Y-64382667D01*
X59524776Y-64375440D01*
X59500000Y-64373000D01*
X58727000Y-64373000D01*
X58727000Y-59300548D01*
X58739239Y-59277650D01*
X58769374Y-59178310D01*
X58779549Y-59075000D01*
X58779549Y-54475000D01*
X58769374Y-54371690D01*
X58739239Y-54272350D01*
X58690304Y-54180798D01*
X58627000Y-54103662D01*
X58627000Y-54000000D01*
X58624560Y-53975224D01*
X58617333Y-53951399D01*
X58605597Y-53929443D01*
X58589803Y-53910197D01*
X58570557Y-53894403D01*
X58548601Y-53882667D01*
X58524776Y-53875440D01*
X58500000Y-53873000D01*
X57000000Y-53873000D01*
X56975224Y-53875440D01*
X56951399Y-53882667D01*
X56929443Y-53894403D01*
X56910197Y-53910197D01*
X56894403Y-53929443D01*
X56882667Y-53951399D01*
X56875440Y-53975224D01*
X56873000Y-54000000D01*
X56873000Y-54025501D01*
X56855798Y-54034696D01*
X56775552Y-54100552D01*
X56709696Y-54180798D01*
X56660761Y-54272350D01*
X56630626Y-54371690D01*
X56620451Y-54475000D01*
X56620451Y-59075000D01*
X56630626Y-59178310D01*
X56660761Y-59277650D01*
X56673000Y-59300548D01*
X56673000Y-59373000D01*
X55327000Y-59373000D01*
X55327000Y-59300548D01*
X55339239Y-59277650D01*
X55369374Y-59178310D01*
X55379549Y-59075000D01*
X55379549Y-54475000D01*
X55369374Y-54371690D01*
X55339239Y-54272350D01*
X55290304Y-54180798D01*
X55224448Y-54100552D01*
X55144202Y-54034696D01*
X55127000Y-54025501D01*
X55127000Y-54000000D01*
X55124560Y-53975224D01*
X55117333Y-53951399D01*
X55105597Y-53929443D01*
X55089803Y-53910197D01*
X55070557Y-53894403D01*
X55048601Y-53882667D01*
X55024776Y-53875440D01*
X55000000Y-53873000D01*
X41000000Y-53873000D01*
X40975224Y-53875440D01*
X40951399Y-53882667D01*
X40929443Y-53894403D01*
X40910197Y-53910197D01*
X40894403Y-53929443D01*
X40882667Y-53951399D01*
X40875440Y-53975224D01*
X40873000Y-54000000D01*
X33127000Y-54000000D01*
X33127000Y-42552000D01*
X90873000Y-42552000D01*
X90873000Y-45373000D01*
G37*
X90873000Y-45373000D02*
X84500000Y-45373000D01*
X84475224Y-45375440D01*
X84451399Y-45382667D01*
X84429443Y-45394403D01*
X84410197Y-45410197D01*
X84376233Y-45444161D01*
X84338673Y-45447860D01*
X84145083Y-45506585D01*
X83966669Y-45601949D01*
X83810288Y-45730288D01*
X83778128Y-45769475D01*
X81379480Y-48168124D01*
X81340287Y-48200289D01*
X81211948Y-48356670D01*
X81116584Y-48535085D01*
X81057859Y-48728675D01*
X81054160Y-48766234D01*
X80910197Y-48910197D01*
X80894403Y-48929443D01*
X80882667Y-48951399D01*
X80875440Y-48975224D01*
X80873000Y-49000000D01*
X80873000Y-53873000D01*
X74627000Y-53873000D01*
X74627000Y-49500000D01*
X74624560Y-49475224D01*
X74617333Y-49451399D01*
X74605597Y-49429443D01*
X74589803Y-49410197D01*
X74570557Y-49394403D01*
X74548601Y-49382667D01*
X74524776Y-49375440D01*
X74500000Y-49373000D01*
X69127000Y-49373000D01*
X69127000Y-46500000D01*
X69124560Y-46475224D01*
X69117333Y-46451399D01*
X69105597Y-46429443D01*
X69089803Y-46410197D01*
X69070557Y-46394403D01*
X69048601Y-46382667D01*
X69024776Y-46375440D01*
X69000000Y-46373000D01*
X64500000Y-46373000D01*
X64475224Y-46375440D01*
X64451399Y-46382667D01*
X64429443Y-46394403D01*
X64410197Y-46410197D01*
X64394403Y-46429443D01*
X64382667Y-46451399D01*
X64375440Y-46475224D01*
X64373000Y-46500000D01*
X64373000Y-50873000D01*
X62500000Y-50873000D01*
X62475224Y-50875440D01*
X62451399Y-50882667D01*
X62429443Y-50894403D01*
X62410197Y-50910197D01*
X62394403Y-50929443D01*
X62382667Y-50951399D01*
X62375440Y-50975224D01*
X62373000Y-51000000D01*
X62373000Y-60000000D01*
X62375440Y-60024776D01*
X62382667Y-60048601D01*
X62394403Y-60070557D01*
X62410197Y-60089803D01*
X62429443Y-60105597D01*
X62451399Y-60117333D01*
X62475224Y-60124560D01*
X62500000Y-60127000D01*
X73373000Y-60127000D01*
X73373000Y-71500000D01*
X73375440Y-71524776D01*
X73382667Y-71548601D01*
X73394403Y-71570557D01*
X73410197Y-71589803D01*
X73429443Y-71605597D01*
X73451399Y-71617333D01*
X73475224Y-71624560D01*
X73500000Y-71627000D01*
X80000000Y-71627000D01*
X80024776Y-71624560D01*
X80048601Y-71617333D01*
X80070557Y-71605597D01*
X80089803Y-71589803D01*
X80105597Y-71570557D01*
X80117333Y-71548601D01*
X80124560Y-71524776D01*
X80127000Y-71500000D01*
X80127000Y-68127000D01*
X81873000Y-68127000D01*
X81873000Y-69000000D01*
X81875440Y-69024776D01*
X81882667Y-69048601D01*
X81894403Y-69070557D01*
X81910197Y-69089803D01*
X81929443Y-69105597D01*
X81951399Y-69117333D01*
X81975224Y-69124560D01*
X82000000Y-69127000D01*
X84373000Y-69127000D01*
X84373000Y-70873000D01*
X82000000Y-70873000D01*
X81975224Y-70875440D01*
X81951399Y-70882667D01*
X81929443Y-70894403D01*
X81910197Y-70910197D01*
X81894403Y-70929443D01*
X81882667Y-70951399D01*
X81875440Y-70975224D01*
X81873000Y-71000000D01*
X81873000Y-72373000D01*
X80500000Y-72373000D01*
X80475224Y-72375440D01*
X80451399Y-72382667D01*
X80429443Y-72394403D01*
X80410197Y-72410197D01*
X80394403Y-72429443D01*
X80382667Y-72451399D01*
X80375440Y-72475224D01*
X80373000Y-72500000D01*
X80373000Y-76000000D01*
X80375440Y-76024776D01*
X80382667Y-76048601D01*
X80394403Y-76070557D01*
X80410197Y-76089803D01*
X80429443Y-76105597D01*
X80451399Y-76117333D01*
X80475224Y-76124560D01*
X80500000Y-76127000D01*
X91500000Y-76127000D01*
X91524776Y-76124560D01*
X91548601Y-76117333D01*
X91570557Y-76105597D01*
X91589803Y-76089803D01*
X91605597Y-76070557D01*
X91617333Y-76048601D01*
X91624560Y-76024776D01*
X91627000Y-76000000D01*
X91627000Y-70127000D01*
X102448000Y-70127000D01*
X102448000Y-81948000D01*
X33127000Y-81948000D01*
X33127000Y-73426045D01*
X68303000Y-73426045D01*
X68303000Y-73653955D01*
X68347463Y-73877484D01*
X68434680Y-74088045D01*
X68561300Y-74277544D01*
X68722456Y-74438700D01*
X68911955Y-74565320D01*
X69122516Y-74652537D01*
X69346045Y-74697000D01*
X69573955Y-74697000D01*
X69797484Y-74652537D01*
X70008045Y-74565320D01*
X70197544Y-74438700D01*
X70358700Y-74277544D01*
X70485320Y-74088045D01*
X70572537Y-73877484D01*
X70617000Y-73653955D01*
X70617000Y-73426045D01*
X70572537Y-73202516D01*
X70485320Y-72991955D01*
X70358700Y-72802456D01*
X70197544Y-72641300D01*
X70008045Y-72514680D01*
X69797484Y-72427463D01*
X69573955Y-72383000D01*
X69346045Y-72383000D01*
X69122516Y-72427463D01*
X68911955Y-72514680D01*
X68722456Y-72641300D01*
X68561300Y-72802456D01*
X68434680Y-72991955D01*
X68347463Y-73202516D01*
X68303000Y-73426045D01*
X33127000Y-73426045D01*
X33127000Y-54000000D01*
X40873000Y-54000000D01*
X40873000Y-71500000D01*
X40875440Y-71524776D01*
X40882667Y-71548601D01*
X40894403Y-71570557D01*
X40910197Y-71589803D01*
X40929443Y-71605597D01*
X40951399Y-71617333D01*
X40975224Y-71624560D01*
X41000000Y-71627000D01*
X59500000Y-71627000D01*
X59524776Y-71624560D01*
X59548601Y-71617333D01*
X59570557Y-71605597D01*
X59589803Y-71589803D01*
X59605597Y-71570557D01*
X59617333Y-71548601D01*
X59624560Y-71524776D01*
X59627000Y-71500000D01*
X59627000Y-70886045D01*
X70843000Y-70886045D01*
X70843000Y-71113955D01*
X70887463Y-71337484D01*
X70974680Y-71548045D01*
X71101300Y-71737544D01*
X71262456Y-71898700D01*
X71451955Y-72025320D01*
X71662516Y-72112537D01*
X71886045Y-72157000D01*
X72113955Y-72157000D01*
X72337484Y-72112537D01*
X72548045Y-72025320D01*
X72737544Y-71898700D01*
X72898700Y-71737544D01*
X73025320Y-71548045D01*
X73112537Y-71337484D01*
X73157000Y-71113955D01*
X73157000Y-70886045D01*
X73112537Y-70662516D01*
X73025320Y-70451955D01*
X72898700Y-70262456D01*
X72737544Y-70101300D01*
X72548045Y-69974680D01*
X72337484Y-69887463D01*
X72113955Y-69843000D01*
X71886045Y-69843000D01*
X71662516Y-69887463D01*
X71451955Y-69974680D01*
X71262456Y-70101300D01*
X71101300Y-70262456D01*
X70974680Y-70451955D01*
X70887463Y-70662516D01*
X70843000Y-70886045D01*
X59627000Y-70886045D01*
X59627000Y-64500000D01*
X59624560Y-64475224D01*
X59617333Y-64451399D01*
X59605597Y-64429443D01*
X59589803Y-64410197D01*
X59570557Y-64394403D01*
X59548601Y-64382667D01*
X59524776Y-64375440D01*
X59500000Y-64373000D01*
X58727000Y-64373000D01*
X58727000Y-59300548D01*
X58739239Y-59277650D01*
X58769374Y-59178310D01*
X58779549Y-59075000D01*
X58779549Y-54475000D01*
X58769374Y-54371690D01*
X58739239Y-54272350D01*
X58690304Y-54180798D01*
X58627000Y-54103662D01*
X58627000Y-54000000D01*
X58624560Y-53975224D01*
X58617333Y-53951399D01*
X58605597Y-53929443D01*
X58589803Y-53910197D01*
X58570557Y-53894403D01*
X58548601Y-53882667D01*
X58524776Y-53875440D01*
X58500000Y-53873000D01*
X57000000Y-53873000D01*
X56975224Y-53875440D01*
X56951399Y-53882667D01*
X56929443Y-53894403D01*
X56910197Y-53910197D01*
X56894403Y-53929443D01*
X56882667Y-53951399D01*
X56875440Y-53975224D01*
X56873000Y-54000000D01*
X56873000Y-54025501D01*
X56855798Y-54034696D01*
X56775552Y-54100552D01*
X56709696Y-54180798D01*
X56660761Y-54272350D01*
X56630626Y-54371690D01*
X56620451Y-54475000D01*
X56620451Y-59075000D01*
X56630626Y-59178310D01*
X56660761Y-59277650D01*
X56673000Y-59300548D01*
X56673000Y-59373000D01*
X55327000Y-59373000D01*
X55327000Y-59300548D01*
X55339239Y-59277650D01*
X55369374Y-59178310D01*
X55379549Y-59075000D01*
X55379549Y-54475000D01*
X55369374Y-54371690D01*
X55339239Y-54272350D01*
X55290304Y-54180798D01*
X55224448Y-54100552D01*
X55144202Y-54034696D01*
X55127000Y-54025501D01*
X55127000Y-54000000D01*
X55124560Y-53975224D01*
X55117333Y-53951399D01*
X55105597Y-53929443D01*
X55089803Y-53910197D01*
X55070557Y-53894403D01*
X55048601Y-53882667D01*
X55024776Y-53875440D01*
X55000000Y-53873000D01*
X41000000Y-53873000D01*
X40975224Y-53875440D01*
X40951399Y-53882667D01*
X40929443Y-53894403D01*
X40910197Y-53910197D01*
X40894403Y-53929443D01*
X40882667Y-53951399D01*
X40875440Y-53975224D01*
X40873000Y-54000000D01*
X33127000Y-54000000D01*
X33127000Y-42552000D01*
X90873000Y-42552000D01*
X90873000Y-45373000D01*
G36*
X-35127000Y-50373000D02*
G01*
X-42373000Y-50373000D01*
X-42373000Y-44250000D01*
X-41282843Y-44250000D01*
X-41282843Y-45250000D01*
X-41275487Y-45324689D01*
X-41253701Y-45396508D01*
X-41218322Y-45462696D01*
X-41170711Y-45520711D01*
X-41112696Y-45568322D01*
X-41046508Y-45603701D01*
X-40974689Y-45625487D01*
X-40900000Y-45632843D01*
X-39100000Y-45632843D01*
X-39025311Y-45625487D01*
X-38953492Y-45603701D01*
X-38887304Y-45568322D01*
X-38829289Y-45520711D01*
X-38800257Y-45485335D01*
X-38695074Y-45590518D01*
X-38743043Y-45648968D01*
X-38792283Y-45741090D01*
X-38822605Y-45841047D01*
X-38832843Y-45945000D01*
X-38832843Y-46245000D01*
X-38822605Y-46348953D01*
X-38792283Y-46448910D01*
X-38743043Y-46541032D01*
X-38676777Y-46621777D01*
X-38596032Y-46688043D01*
X-38517536Y-46730000D01*
X-38543728Y-46744000D01*
X-38717748Y-46744000D01*
X-38724513Y-46675311D01*
X-38746299Y-46603492D01*
X-38781678Y-46537304D01*
X-38829289Y-46479289D01*
X-38887304Y-46431678D01*
X-38953492Y-46396299D01*
X-39025311Y-46374513D01*
X-39100000Y-46367157D01*
X-40900000Y-46367157D01*
X-40974689Y-46374513D01*
X-41046508Y-46396299D01*
X-41112696Y-46431678D01*
X-41170711Y-46479289D01*
X-41218322Y-46537304D01*
X-41253701Y-46603492D01*
X-41275487Y-46675311D01*
X-41282843Y-46750000D01*
X-41282843Y-47750000D01*
X-41275487Y-47824689D01*
X-41253701Y-47896508D01*
X-41218322Y-47962696D01*
X-41170711Y-48020711D01*
X-41112696Y-48068322D01*
X-41046508Y-48103701D01*
X-40974689Y-48125487D01*
X-40900000Y-48132843D01*
X-39100000Y-48132843D01*
X-39025311Y-48125487D01*
X-38953492Y-48103701D01*
X-38887304Y-48068322D01*
X-38829289Y-48020711D01*
X-38781678Y-47962696D01*
X-38746299Y-47896508D01*
X-38726489Y-47831203D01*
X-38676777Y-47891777D01*
X-38596032Y-47958043D01*
X-38517536Y-48000000D01*
X-38596032Y-48041957D01*
X-38676777Y-48108223D01*
X-38743043Y-48188968D01*
X-38792283Y-48281090D01*
X-38822605Y-48381047D01*
X-38832843Y-48485000D01*
X-38832843Y-48785000D01*
X-38822605Y-48888953D01*
X-38792283Y-48988910D01*
X-38743043Y-49081032D01*
X-38676777Y-49161777D01*
X-38596032Y-49228043D01*
X-38503910Y-49277283D01*
X-38403953Y-49307605D01*
X-38300000Y-49317843D01*
X-36650000Y-49317843D01*
X-36546047Y-49307605D01*
X-36446090Y-49277283D01*
X-36353968Y-49228043D01*
X-36273223Y-49161777D01*
X-36216899Y-49093147D01*
X-36184056Y-49106751D01*
X-36062148Y-49131000D01*
X-35937852Y-49131000D01*
X-35815944Y-49106751D01*
X-35701109Y-49059185D01*
X-35597761Y-48990130D01*
X-35509870Y-48902239D01*
X-35440815Y-48798891D01*
X-35393249Y-48684056D01*
X-35369000Y-48562148D01*
X-35369000Y-48437852D01*
X-35393249Y-48315944D01*
X-35440815Y-48201109D01*
X-35509870Y-48097761D01*
X-35597761Y-48009870D01*
X-35701109Y-47940815D01*
X-35815944Y-47893249D01*
X-35937852Y-47869000D01*
X-36062148Y-47869000D01*
X-36184056Y-47893249D01*
X-36298891Y-47940815D01*
X-36402239Y-48009870D01*
X-36406335Y-48013966D01*
X-36432464Y-48000000D01*
X-36353968Y-47958043D01*
X-36273223Y-47891777D01*
X-36206957Y-47811032D01*
X-36157717Y-47718910D01*
X-36127395Y-47618953D01*
X-36117157Y-47515000D01*
X-36117157Y-47215000D01*
X-36127395Y-47111047D01*
X-36157717Y-47011090D01*
X-36206957Y-46918968D01*
X-36273223Y-46838223D01*
X-36353968Y-46771957D01*
X-36432464Y-46730000D01*
X-36353968Y-46688043D01*
X-36273223Y-46621777D01*
X-36206957Y-46541032D01*
X-36157717Y-46448910D01*
X-36127395Y-46348953D01*
X-36117157Y-46245000D01*
X-36117157Y-45945000D01*
X-36127395Y-45841047D01*
X-36157717Y-45741090D01*
X-36206957Y-45648968D01*
X-36273223Y-45568223D01*
X-36353968Y-45501957D01*
X-36446090Y-45452717D01*
X-36546047Y-45422395D01*
X-36650000Y-45412157D01*
X-37442251Y-45412157D01*
X-38444624Y-44409785D01*
X-38460473Y-44390473D01*
X-38537521Y-44327241D01*
X-38625425Y-44280255D01*
X-38717157Y-44252429D01*
X-38717157Y-44250000D01*
X-38724513Y-44175311D01*
X-38746299Y-44103492D01*
X-38781678Y-44037304D01*
X-38829289Y-43979289D01*
X-38887304Y-43931678D01*
X-38953492Y-43896299D01*
X-39025311Y-43874513D01*
X-39100000Y-43867157D01*
X-40900000Y-43867157D01*
X-40974689Y-43874513D01*
X-41046508Y-43896299D01*
X-41112696Y-43931678D01*
X-41170711Y-43979289D01*
X-41218322Y-44037304D01*
X-41253701Y-44103492D01*
X-41275487Y-44175311D01*
X-41282843Y-44250000D01*
X-42373000Y-44250000D01*
X-42373000Y-43627000D01*
X-35127000Y-43627000D01*
X-35127000Y-50373000D01*
G37*
X-35127000Y-50373000D02*
X-42373000Y-50373000D01*
X-42373000Y-44250000D01*
X-41282843Y-44250000D01*
X-41282843Y-45250000D01*
X-41275487Y-45324689D01*
X-41253701Y-45396508D01*
X-41218322Y-45462696D01*
X-41170711Y-45520711D01*
X-41112696Y-45568322D01*
X-41046508Y-45603701D01*
X-40974689Y-45625487D01*
X-40900000Y-45632843D01*
X-39100000Y-45632843D01*
X-39025311Y-45625487D01*
X-38953492Y-45603701D01*
X-38887304Y-45568322D01*
X-38829289Y-45520711D01*
X-38800257Y-45485335D01*
X-38695074Y-45590518D01*
X-38743043Y-45648968D01*
X-38792283Y-45741090D01*
X-38822605Y-45841047D01*
X-38832843Y-45945000D01*
X-38832843Y-46245000D01*
X-38822605Y-46348953D01*
X-38792283Y-46448910D01*
X-38743043Y-46541032D01*
X-38676777Y-46621777D01*
X-38596032Y-46688043D01*
X-38517536Y-46730000D01*
X-38543728Y-46744000D01*
X-38717748Y-46744000D01*
X-38724513Y-46675311D01*
X-38746299Y-46603492D01*
X-38781678Y-46537304D01*
X-38829289Y-46479289D01*
X-38887304Y-46431678D01*
X-38953492Y-46396299D01*
X-39025311Y-46374513D01*
X-39100000Y-46367157D01*
X-40900000Y-46367157D01*
X-40974689Y-46374513D01*
X-41046508Y-46396299D01*
X-41112696Y-46431678D01*
X-41170711Y-46479289D01*
X-41218322Y-46537304D01*
X-41253701Y-46603492D01*
X-41275487Y-46675311D01*
X-41282843Y-46750000D01*
X-41282843Y-47750000D01*
X-41275487Y-47824689D01*
X-41253701Y-47896508D01*
X-41218322Y-47962696D01*
X-41170711Y-48020711D01*
X-41112696Y-48068322D01*
X-41046508Y-48103701D01*
X-40974689Y-48125487D01*
X-40900000Y-48132843D01*
X-39100000Y-48132843D01*
X-39025311Y-48125487D01*
X-38953492Y-48103701D01*
X-38887304Y-48068322D01*
X-38829289Y-48020711D01*
X-38781678Y-47962696D01*
X-38746299Y-47896508D01*
X-38726489Y-47831203D01*
X-38676777Y-47891777D01*
X-38596032Y-47958043D01*
X-38517536Y-48000000D01*
X-38596032Y-48041957D01*
X-38676777Y-48108223D01*
X-38743043Y-48188968D01*
X-38792283Y-48281090D01*
X-38822605Y-48381047D01*
X-38832843Y-48485000D01*
X-38832843Y-48785000D01*
X-38822605Y-48888953D01*
X-38792283Y-48988910D01*
X-38743043Y-49081032D01*
X-38676777Y-49161777D01*
X-38596032Y-49228043D01*
X-38503910Y-49277283D01*
X-38403953Y-49307605D01*
X-38300000Y-49317843D01*
X-36650000Y-49317843D01*
X-36546047Y-49307605D01*
X-36446090Y-49277283D01*
X-36353968Y-49228043D01*
X-36273223Y-49161777D01*
X-36216899Y-49093147D01*
X-36184056Y-49106751D01*
X-36062148Y-49131000D01*
X-35937852Y-49131000D01*
X-35815944Y-49106751D01*
X-35701109Y-49059185D01*
X-35597761Y-48990130D01*
X-35509870Y-48902239D01*
X-35440815Y-48798891D01*
X-35393249Y-48684056D01*
X-35369000Y-48562148D01*
X-35369000Y-48437852D01*
X-35393249Y-48315944D01*
X-35440815Y-48201109D01*
X-35509870Y-48097761D01*
X-35597761Y-48009870D01*
X-35701109Y-47940815D01*
X-35815944Y-47893249D01*
X-35937852Y-47869000D01*
X-36062148Y-47869000D01*
X-36184056Y-47893249D01*
X-36298891Y-47940815D01*
X-36402239Y-48009870D01*
X-36406335Y-48013966D01*
X-36432464Y-48000000D01*
X-36353968Y-47958043D01*
X-36273223Y-47891777D01*
X-36206957Y-47811032D01*
X-36157717Y-47718910D01*
X-36127395Y-47618953D01*
X-36117157Y-47515000D01*
X-36117157Y-47215000D01*
X-36127395Y-47111047D01*
X-36157717Y-47011090D01*
X-36206957Y-46918968D01*
X-36273223Y-46838223D01*
X-36353968Y-46771957D01*
X-36432464Y-46730000D01*
X-36353968Y-46688043D01*
X-36273223Y-46621777D01*
X-36206957Y-46541032D01*
X-36157717Y-46448910D01*
X-36127395Y-46348953D01*
X-36117157Y-46245000D01*
X-36117157Y-45945000D01*
X-36127395Y-45841047D01*
X-36157717Y-45741090D01*
X-36206957Y-45648968D01*
X-36273223Y-45568223D01*
X-36353968Y-45501957D01*
X-36446090Y-45452717D01*
X-36546047Y-45422395D01*
X-36650000Y-45412157D01*
X-37442251Y-45412157D01*
X-38444624Y-44409785D01*
X-38460473Y-44390473D01*
X-38537521Y-44327241D01*
X-38625425Y-44280255D01*
X-38717157Y-44252429D01*
X-38717157Y-44250000D01*
X-38724513Y-44175311D01*
X-38746299Y-44103492D01*
X-38781678Y-44037304D01*
X-38829289Y-43979289D01*
X-38887304Y-43931678D01*
X-38953492Y-43896299D01*
X-39025311Y-43874513D01*
X-39100000Y-43867157D01*
X-40900000Y-43867157D01*
X-40974689Y-43874513D01*
X-41046508Y-43896299D01*
X-41112696Y-43931678D01*
X-41170711Y-43979289D01*
X-41218322Y-44037304D01*
X-41253701Y-44103492D01*
X-41275487Y-44175311D01*
X-41282843Y-44250000D01*
X-42373000Y-44250000D01*
X-42373000Y-43627000D01*
X-35127000Y-43627000D01*
X-35127000Y-50373000D01*
%TD*%
M02*
