%TF.GenerationSoftware,KiCad,Pcbnew,(5.1.5-131-g305ed0b65)-1*%
%TF.CreationDate,2020-04-17T17:43:09+08:00*%
%TF.ProjectId,NixieController,4e697869-6543-46f6-9e74-726f6c6c6572,rev?*%
%TF.SameCoordinates,Original*%
%TF.FileFunction,Legend,Top*%
%TF.FilePolarity,Positive*%
%FSLAX46Y46*%
G04 Gerber Fmt 4.6, Leading zero omitted, Abs format (unit mm)*
G04 Created by KiCad (PCBNEW (5.1.5-131-g305ed0b65)-1) date 2020-04-17 17:43:09*
%MOMM*%
%LPD*%
G01*
G04 APERTURE LIST*
%ADD10C,0.120000*%
%ADD11C,0.150000*%
G04 APERTURE END LIST*
D10*
%TO.C,C1*%
X73260000Y-73650000D02*
X73260000Y-65590000D01*
X73260000Y-65590000D02*
X68740000Y-65590000D01*
X68740000Y-65590000D02*
X68740000Y-73650000D01*
%TO.C,C2*%
X74290000Y-70741422D02*
X74290000Y-71258578D01*
X75710000Y-70741422D02*
X75710000Y-71258578D01*
%TO.C,C3*%
X81196078Y-74710000D02*
X80678922Y-74710000D01*
X81196078Y-73290000D02*
X80678922Y-73290000D01*
%TO.C,C4*%
X90910000Y-68997936D02*
X90910000Y-70202064D01*
X89090000Y-68997936D02*
X89090000Y-70202064D01*
%TO.C,C5*%
X91740000Y-75260000D02*
X95490000Y-75260000D01*
X102260000Y-75260000D02*
X98510000Y-75260000D01*
X102260000Y-65804437D02*
X102260000Y-75260000D01*
X91740000Y-65804437D02*
X91740000Y-75260000D01*
X92804437Y-64740000D02*
X95490000Y-64740000D01*
X101195563Y-64740000D02*
X98510000Y-64740000D01*
X101195563Y-64740000D02*
X102260000Y-65804437D01*
X92804437Y-64740000D02*
X91740000Y-65804437D01*
X99760000Y-63250000D02*
X99760000Y-64500000D01*
X100385000Y-63875000D02*
X99135000Y-63875000D01*
%TO.C,D1*%
X98550000Y-62150000D02*
X98550000Y-57850000D01*
X98550000Y-57850000D02*
X92850000Y-57850000D01*
X98550000Y-62150000D02*
X92850000Y-62150000D01*
%TO.C,J1*%
X74100000Y-53250000D02*
X74100000Y-52200000D01*
X73050000Y-52200000D02*
X74100000Y-52200000D01*
X68000000Y-61600000D02*
X59200000Y-61600000D01*
X59200000Y-61600000D02*
X59200000Y-52400000D01*
X73900000Y-58900000D02*
X73900000Y-61600000D01*
X73900000Y-61600000D02*
X72000000Y-61600000D01*
X59200000Y-52400000D02*
X73900000Y-52400000D01*
X73900000Y-52400000D02*
X73900000Y-55000000D01*
%TO.C,J2*%
X67330000Y-65630000D02*
X64670000Y-65630000D01*
X67330000Y-68230000D02*
X67330000Y-65630000D01*
X64670000Y-68230000D02*
X64670000Y-65630000D01*
X67330000Y-68230000D02*
X64670000Y-68230000D01*
X67330000Y-69500000D02*
X67330000Y-70830000D01*
X67330000Y-70830000D02*
X66000000Y-70830000D01*
%TO.C,J3*%
X102330000Y-63330000D02*
X101000000Y-63330000D01*
X102330000Y-62000000D02*
X102330000Y-63330000D01*
X102330000Y-60730000D02*
X99670000Y-60730000D01*
X99670000Y-60730000D02*
X99670000Y-58130000D01*
X102330000Y-60730000D02*
X102330000Y-58130000D01*
X102330000Y-58130000D02*
X99670000Y-58130000D01*
%TO.C,L1*%
X89300000Y-63300000D02*
X89300000Y-66300000D01*
X89300000Y-66300000D02*
X76700000Y-66300000D01*
X76700000Y-66300000D02*
X76700000Y-63300000D01*
X76700000Y-56700000D02*
X76700000Y-53700000D01*
X76700000Y-53700000D02*
X89300000Y-53700000D01*
X89300000Y-53700000D02*
X89300000Y-56700000D01*
%TO.C,Q1*%
X92550000Y-43800000D02*
X91050000Y-43800000D01*
X91050000Y-43800000D02*
X91050000Y-45610000D01*
X91050000Y-45610000D02*
X85925000Y-45610000D01*
X92550000Y-54200000D02*
X91050000Y-54200000D01*
X91050000Y-54200000D02*
X91050000Y-52390000D01*
X91050000Y-52390000D02*
X89950000Y-52390000D01*
%TO.C,R1*%
X83052064Y-52710000D02*
X78947936Y-52710000D01*
X83052064Y-49290000D02*
X78947936Y-49290000D01*
%TO.C,R2*%
X87910000Y-68997936D02*
X87910000Y-70202064D01*
X86090000Y-68997936D02*
X86090000Y-70202064D01*
%TO.C,R3*%
X90710000Y-73803922D02*
X90710000Y-74321078D01*
X89290000Y-73803922D02*
X89290000Y-74321078D01*
%TO.C,U1*%
X81000000Y-72560000D02*
X82950000Y-72560000D01*
X81000000Y-72560000D02*
X79050000Y-72560000D01*
X81000000Y-67440000D02*
X82950000Y-67440000D01*
X81000000Y-67440000D02*
X77550000Y-67440000D01*
%TO.C,C1*%
D11*
X70833333Y-65357142D02*
X70785714Y-65404761D01*
X70642857Y-65452380D01*
X70547619Y-65452380D01*
X70404761Y-65404761D01*
X70309523Y-65309523D01*
X70261904Y-65214285D01*
X70214285Y-65023809D01*
X70214285Y-64880952D01*
X70261904Y-64690476D01*
X70309523Y-64595238D01*
X70404761Y-64500000D01*
X70547619Y-64452380D01*
X70642857Y-64452380D01*
X70785714Y-64500000D01*
X70833333Y-64547619D01*
X71785714Y-65452380D02*
X71214285Y-65452380D01*
X71500000Y-65452380D02*
X71500000Y-64452380D01*
X71404761Y-64595238D01*
X71309523Y-64690476D01*
X71214285Y-64738095D01*
%TO.C,C2*%
X74833333Y-68794642D02*
X74785714Y-68842261D01*
X74642857Y-68889880D01*
X74547619Y-68889880D01*
X74404761Y-68842261D01*
X74309523Y-68747023D01*
X74261904Y-68651785D01*
X74214285Y-68461309D01*
X74214285Y-68318452D01*
X74261904Y-68127976D01*
X74309523Y-68032738D01*
X74404761Y-67937500D01*
X74547619Y-67889880D01*
X74642857Y-67889880D01*
X74785714Y-67937500D01*
X74833333Y-67985119D01*
X75214285Y-67985119D02*
X75261904Y-67937500D01*
X75357142Y-67889880D01*
X75595238Y-67889880D01*
X75690476Y-67937500D01*
X75738095Y-67985119D01*
X75785714Y-68080357D01*
X75785714Y-68175595D01*
X75738095Y-68318452D01*
X75166666Y-68889880D01*
X75785714Y-68889880D01*
%TO.C,C3*%
X83367777Y-74398834D02*
X83320158Y-74446453D01*
X83177301Y-74494072D01*
X83082063Y-74494072D01*
X82939205Y-74446453D01*
X82843967Y-74351215D01*
X82796348Y-74255977D01*
X82748729Y-74065501D01*
X82748729Y-73922644D01*
X82796348Y-73732168D01*
X82843967Y-73636930D01*
X82939205Y-73541692D01*
X83082063Y-73494072D01*
X83177301Y-73494072D01*
X83320158Y-73541692D01*
X83367777Y-73589311D01*
X83701110Y-73494072D02*
X84320158Y-73494072D01*
X83986824Y-73875025D01*
X84129682Y-73875025D01*
X84224920Y-73922644D01*
X84272539Y-73970263D01*
X84320158Y-74065501D01*
X84320158Y-74303596D01*
X84272539Y-74398834D01*
X84224920Y-74446453D01*
X84129682Y-74494072D01*
X83843967Y-74494072D01*
X83748729Y-74446453D01*
X83701110Y-74398834D01*
%TO.C,C4*%
X90316347Y-67223302D02*
X90268728Y-67270921D01*
X90125871Y-67318540D01*
X90030633Y-67318540D01*
X89887775Y-67270921D01*
X89792537Y-67175683D01*
X89744918Y-67080445D01*
X89697299Y-66889969D01*
X89697299Y-66747112D01*
X89744918Y-66556636D01*
X89792537Y-66461398D01*
X89887775Y-66366160D01*
X90030633Y-66318540D01*
X90125871Y-66318540D01*
X90268728Y-66366160D01*
X90316347Y-66413779D01*
X91173490Y-66651874D02*
X91173490Y-67318540D01*
X90935394Y-66270921D02*
X90697299Y-66985207D01*
X91316347Y-66985207D01*
%TO.C,C5*%
X93833333Y-64357142D02*
X93785714Y-64404761D01*
X93642857Y-64452380D01*
X93547619Y-64452380D01*
X93404761Y-64404761D01*
X93309523Y-64309523D01*
X93261904Y-64214285D01*
X93214285Y-64023809D01*
X93214285Y-63880952D01*
X93261904Y-63690476D01*
X93309523Y-63595238D01*
X93404761Y-63500000D01*
X93547619Y-63452380D01*
X93642857Y-63452380D01*
X93785714Y-63500000D01*
X93833333Y-63547619D01*
X94738095Y-63452380D02*
X94261904Y-63452380D01*
X94214285Y-63928571D01*
X94261904Y-63880952D01*
X94357142Y-63833333D01*
X94595238Y-63833333D01*
X94690476Y-63880952D01*
X94738095Y-63928571D01*
X94785714Y-64023809D01*
X94785714Y-64261904D01*
X94738095Y-64357142D01*
X94690476Y-64404761D01*
X94595238Y-64452380D01*
X94357142Y-64452380D01*
X94261904Y-64404761D01*
X94214285Y-64357142D01*
%TO.C,D1*%
X96261904Y-57452380D02*
X96261904Y-56452380D01*
X96500000Y-56452380D01*
X96642857Y-56500000D01*
X96738095Y-56595238D01*
X96785714Y-56690476D01*
X96833333Y-56880952D01*
X96833333Y-57023809D01*
X96785714Y-57214285D01*
X96738095Y-57309523D01*
X96642857Y-57404761D01*
X96500000Y-57452380D01*
X96261904Y-57452380D01*
X97785714Y-57452380D02*
X97214285Y-57452380D01*
X97500000Y-57452380D02*
X97500000Y-56452380D01*
X97404761Y-56595238D01*
X97309523Y-56690476D01*
X97214285Y-56738095D01*
%TO.C,J1*%
X65166666Y-61952380D02*
X65166666Y-62666666D01*
X65119047Y-62809523D01*
X65023809Y-62904761D01*
X64880952Y-62952380D01*
X64785714Y-62952380D01*
X66166666Y-62952380D02*
X65595238Y-62952380D01*
X65880952Y-62952380D02*
X65880952Y-61952380D01*
X65785714Y-62095238D01*
X65690476Y-62190476D01*
X65595238Y-62238095D01*
%TO.C,J2*%
X68145459Y-67322839D02*
X68145459Y-68037125D01*
X68097840Y-68179982D01*
X68002602Y-68275220D01*
X67859745Y-68322839D01*
X67764507Y-68322839D01*
X68574031Y-67418078D02*
X68621650Y-67370459D01*
X68716888Y-67322839D01*
X68954983Y-67322839D01*
X69050221Y-67370459D01*
X69097840Y-67418078D01*
X69145459Y-67513316D01*
X69145459Y-67608554D01*
X69097840Y-67751411D01*
X68526412Y-68322839D01*
X69145459Y-68322839D01*
%TO.C,J3*%
X100666666Y-56452380D02*
X100666666Y-57166666D01*
X100619047Y-57309523D01*
X100523809Y-57404761D01*
X100380952Y-57452380D01*
X100285714Y-57452380D01*
X101047619Y-56452380D02*
X101666666Y-56452380D01*
X101333333Y-56833333D01*
X101476190Y-56833333D01*
X101571428Y-56880952D01*
X101619047Y-56928571D01*
X101666666Y-57023809D01*
X101666666Y-57261904D01*
X101619047Y-57357142D01*
X101571428Y-57404761D01*
X101476190Y-57452380D01*
X101190476Y-57452380D01*
X101095238Y-57404761D01*
X101047619Y-57357142D01*
%TO.C,L1*%
X75295012Y-54452380D02*
X74818821Y-54452380D01*
X74818821Y-53452380D01*
X76152155Y-54452380D02*
X75580726Y-54452380D01*
X75866440Y-54452380D02*
X75866440Y-53452380D01*
X75771202Y-53595238D01*
X75675964Y-53690476D01*
X75580726Y-53738095D01*
%TO.C,Q1*%
X91904761Y-55547619D02*
X91809523Y-55500000D01*
X91714285Y-55404761D01*
X91571428Y-55261904D01*
X91476190Y-55214285D01*
X91380952Y-55214285D01*
X91428571Y-55452380D02*
X91333333Y-55404761D01*
X91238095Y-55309523D01*
X91190476Y-55119047D01*
X91190476Y-54785714D01*
X91238095Y-54595238D01*
X91333333Y-54500000D01*
X91428571Y-54452380D01*
X91619047Y-54452380D01*
X91714285Y-54500000D01*
X91809523Y-54595238D01*
X91857142Y-54785714D01*
X91857142Y-55119047D01*
X91809523Y-55309523D01*
X91714285Y-55404761D01*
X91619047Y-55452380D01*
X91428571Y-55452380D01*
X92809523Y-55452380D02*
X92238095Y-55452380D01*
X92523809Y-55452380D02*
X92523809Y-54452380D01*
X92428571Y-54595238D01*
X92333333Y-54690476D01*
X92238095Y-54738095D01*
%TO.C,R1*%
X80833333Y-48452380D02*
X80500000Y-47976190D01*
X80261904Y-48452380D02*
X80261904Y-47452380D01*
X80642857Y-47452380D01*
X80738095Y-47500000D01*
X80785714Y-47547619D01*
X80833333Y-47642857D01*
X80833333Y-47785714D01*
X80785714Y-47880952D01*
X80738095Y-47928571D01*
X80642857Y-47976190D01*
X80261904Y-47976190D01*
X81785714Y-48452380D02*
X81214285Y-48452380D01*
X81500000Y-48452380D02*
X81500000Y-47452380D01*
X81404761Y-47595238D01*
X81309523Y-47690476D01*
X81214285Y-47738095D01*
%TO.C,R2*%
X86842062Y-72940247D02*
X86508729Y-72464057D01*
X86270633Y-72940247D02*
X86270633Y-71940247D01*
X86651586Y-71940247D01*
X86746824Y-71987867D01*
X86794443Y-72035486D01*
X86842062Y-72130724D01*
X86842062Y-72273581D01*
X86794443Y-72368819D01*
X86746824Y-72416438D01*
X86651586Y-72464057D01*
X86270633Y-72464057D01*
X87223014Y-72035486D02*
X87270633Y-71987867D01*
X87365871Y-71940247D01*
X87603967Y-71940247D01*
X87699205Y-71987867D01*
X87746824Y-72035486D01*
X87794443Y-72130724D01*
X87794443Y-72225962D01*
X87746824Y-72368819D01*
X87175395Y-72940247D01*
X87794443Y-72940247D01*
%TO.C,R3*%
X87833333Y-74452380D02*
X87500000Y-73976190D01*
X87261904Y-74452380D02*
X87261904Y-73452380D01*
X87642857Y-73452380D01*
X87738095Y-73500000D01*
X87785714Y-73547619D01*
X87833333Y-73642857D01*
X87833333Y-73785714D01*
X87785714Y-73880952D01*
X87738095Y-73928571D01*
X87642857Y-73976190D01*
X87261904Y-73976190D01*
X88166666Y-73452380D02*
X88785714Y-73452380D01*
X88452380Y-73833333D01*
X88595238Y-73833333D01*
X88690476Y-73880952D01*
X88738095Y-73928571D01*
X88785714Y-74023809D01*
X88785714Y-74261904D01*
X88738095Y-74357142D01*
X88690476Y-74404761D01*
X88595238Y-74452380D01*
X88309523Y-74452380D01*
X88214285Y-74404761D01*
X88166666Y-74357142D01*
%TO.C,U1*%
X75238095Y-66452380D02*
X75238095Y-67261904D01*
X75285714Y-67357142D01*
X75333333Y-67404761D01*
X75428571Y-67452380D01*
X75619047Y-67452380D01*
X75714285Y-67404761D01*
X75761904Y-67357142D01*
X75809523Y-67261904D01*
X75809523Y-66452380D01*
X76809523Y-67452380D02*
X76238095Y-67452380D01*
X76523809Y-67452380D02*
X76523809Y-66452380D01*
X76428571Y-66595238D01*
X76333333Y-66690476D01*
X76238095Y-66738095D01*
%TD*%
M02*
