M48
; DRILL file {KiCad (5.1.5-131-g305ed0b65)-1} date 04/22/20 15:18:10
; FORMAT={-:-/ absolute / inch / decimal}
; #@! TF.CreationDate,2020-04-22T15:18:10+08:00
; #@! TF.GenerationSoftware,Kicad,Pcbnew,(5.1.5-131-g305ed0b65)-1
FMAT,2
INCH
T1C0.0118
T2C0.0157
T3C0.0276
T4C0.0394
T5C0.0630
%
G90
G05
T1
X-2.5984Y-2.4409
X-2.5984Y-2.6378
X-2.5984Y-2.8346
X-2.5591Y-1.9685
X-2.5394Y-2.0472
X-2.5197Y-2.8346
X-2.4606Y-2.7756
X-2.4409Y-2.0079
X-2.4016Y-2.4409
X-2.4016Y-2.6378
X-2.4016Y-2.7953
X-2.4016Y-2.8346
X-2.3819Y-2.0866
X-2.3622Y-1.9291
X-2.3425Y-2.2835
X-2.3228Y-2.815
X-2.2835Y-2.2047
X-2.2441Y-2.0472
X-2.2047Y-2.4409
X-2.2047Y-2.6378
X-2.2047Y-2.8346
X-2.185Y-2.4016
X-2.185Y-2.815
X-2.126Y-2.8346
X-2.0866Y-2.7559
X-2.0669Y-2.0472
X-2.0472Y-1.7717
X-2.0079Y-2.4409
X-2.0079Y-2.6378
X-1.9685Y-2.5984
X-1.9685Y-2.7953
X-1.9094Y-2.0866
X-1.8701Y-2.2835
X-1.811Y-2.2047
X-1.811Y-2.4409
X-1.811Y-2.6378
X-1.811Y-2.8346
X-1.7717Y-2.0472
X-1.7717Y-2.5984
X-1.7717Y-2.7953
X-1.7717Y-2.9134
X-1.7126Y-2.4016
X-1.6535Y-1.9488
X-1.6339Y-1.9291
X-1.6339Y-1.9685
X-1.6142Y-1.9488
X-1.6142Y-2.4409
X-1.6142Y-2.6378
X-1.6142Y-2.8346
X-1.6142Y-2.9528
X-1.5945Y-1.9291
X-1.5945Y-1.9685
X-1.5945Y-2.0472
X-1.5748Y-1.9488
X-1.5748Y-2.5984
X-1.5748Y-2.7953
X-1.5551Y-1.9291
X-1.5551Y-1.9685
X-1.5354Y-1.9488
X-1.5157Y-1.9685
X-1.4764Y-1.7323
X-1.4567Y-1.752
X-1.437Y-1.7323
X-1.437Y-1.7717
X-1.437Y-2.0866
X-1.4173Y-1.752
X-1.4173Y-1.9094
X-1.4173Y-2.4409
X-1.4173Y-2.6378
X-1.4173Y-2.8346
X-1.4173Y-2.9528
X-1.3976Y-1.7323
X-1.3976Y-1.7717
X-1.3976Y-2.2835
X-1.378Y-2.7953
X-1.3386Y-2.2047
X-1.2992Y-2.0472
X-1.2402Y-2.4016
X-1.2205Y-2.4409
X-1.2205Y-2.6378
X-1.2205Y-2.8346
X-1.2008Y-2.815
X-1.1417Y-2.8346
X-1.122Y-2.0472
X-1.0236Y-2.4409
X-1.0236Y-2.6378
X-1.0236Y-2.7953
X-1.0236Y-2.8346
X-0.9646Y-2.0866
X-0.9449Y-2.815
X-0.9252Y-2.2835
X-0.8661Y-2.2047
X-0.8268Y-2.0472
X-0.8268Y-2.4409
X-0.8268Y-2.6378
X-0.8268Y-2.8346
X-0.8071Y-2.815
X-0.7677Y-2.4016
X-0.748Y-2.8346
X-0.6496Y-2.0472
X-0.6299Y-2.4409
X-0.6299Y-2.6378
X-0.6299Y-2.8346
X-0.5906Y-2.5984
X-0.5906Y-2.7953
X-0.5906Y-2.9134
X-0.4921Y-2.0866
X-0.4528Y-2.2835
X-0.4331Y-2.4409
X-0.4331Y-2.6378
X-0.4331Y-2.8346
X-0.3937Y-2.2047
X-0.3937Y-2.5984
X-0.3937Y-2.7953
X-0.3937Y-2.9134
X-0.3543Y-2.0472
X-0.2953Y-2.4016
X-0.2362Y-2.4409
X-0.2362Y-2.6378
X-0.2362Y-2.8346
X-0.2362Y-2.9528
X-0.1969Y-2.5984
X-0.1969Y-2.7953
X-0.1772Y-2.0472
X-0.0787Y-2.4409
X-0.0394Y-2.4409
X-0.0394Y-2.6378
X-0.0394Y-2.7953
X-0.0394Y-2.8346
X-0.0394Y-2.9528
X-0.0197Y-2.0866
X0.0197Y-2.2835
X0.0394Y-2.6378
X0.0394Y-2.8346
X0.0787Y-2.2047
X0.1181Y-2.0472
X0.1575Y-2.4409
X0.1575Y-2.6378
X0.1575Y-2.8346
X0.1772Y-2.4016
X0.1772Y-2.6181
X0.1772Y-2.815
X0.2362Y-2.4213
X0.2362Y-2.6378
X0.2362Y-2.8346
X0.2559Y-2.5984
X0.2559Y-2.7953
X0.2559Y-2.7953
X0.2953Y-2.0472
X0.2953Y-2.874
X0.3346Y-2.5394
X0.3543Y-2.4016
X0.3543Y-2.4409
X0.3543Y-2.6378
X0.3543Y-2.8346
X0.3613Y-2.7756
X0.374Y-2.815
X0.4331Y-2.4409
X0.4331Y-2.6378
X0.4331Y-2.8346
X0.4528Y-2.0866
X0.4921Y-2.2835
X0.4921Y-2.7362
X0.5512Y-2.2047
X0.5512Y-2.4409
X0.5512Y-2.5591
X0.5512Y-2.6378
X0.5512Y-2.8346
X0.5906Y-2.0472
X0.6299Y-2.4409
X0.6299Y-2.6378
X0.6299Y-2.8346
X0.6496Y-2.4016
X0.7283Y-2.3228
X0.748Y-2.4409
X0.748Y-2.6378
X0.748Y-2.8346
X0.7677Y-2.0472
X0.7874Y-2.5984
X0.7874Y-2.7953
X0.7874Y-2.874
X0.8219Y-2.2626
X0.9055Y-2.7953
X0.9252Y-2.0866
X0.9449Y-2.4409
X0.9449Y-2.6378
X0.9449Y-2.8346
X0.9646Y-2.2835
X0.9843Y-2.5984
X0.9843Y-2.7953
X0.9843Y-2.8937
X1.0236Y-2.2047
X1.063Y-2.0472
X1.122Y-2.4016
X1.1417Y-2.4409
X1.1417Y-2.6378
X1.1417Y-2.8346
X1.1811Y-2.5984
X1.1811Y-2.7953
X1.1811Y-2.9134
X1.2205Y-2.5984
X1.9882Y-2.6772
X3.8189Y-2.6969
T2
X1.9882Y-2.2047
X2.5787Y-2.1063
X3.0197Y-2.7827
X3.1693Y-2.6969
X3.1693Y-2.7362
X3.1693Y-2.7756
X3.1693Y-2.815
X3.2087Y-2.6969
X3.2087Y-2.7362
X3.2087Y-2.7756
X3.2087Y-2.815
X3.2866Y-2.6358
X3.2968Y-2.0957
X3.3949Y-2.9016
X3.4843Y-2.9528
T3
X2.6346Y-2.7953
X2.7346Y-2.8953
X2.8346Y-2.7953
T4
X0.1181Y-3.189
X0.2181Y-3.189
X0.3181Y-3.189
X0.4181Y-3.189
X0.5181Y-3.189
X0.6181Y-3.189
X0.7181Y-3.189
X0.8181Y-3.189
X0.9181Y-3.189
X1.0181Y-3.189
X1.1181Y-3.189
X1.2181Y-3.189
X-1.1811Y-3.189
X-1.0811Y-3.189
X-0.9811Y-3.189
X-0.8811Y-3.189
X-0.7811Y-3.189
X-0.6811Y-3.189
X-0.5811Y-3.189
X-0.4811Y-3.189
X-0.3811Y-3.189
X-0.2811Y-3.189
X-0.1811Y-3.189
X-0.0811Y-3.189
X-2.4803Y-3.189
X-2.3803Y-3.189
X-2.2803Y-3.189
X-2.1803Y-3.189
X-2.0803Y-3.189
X-1.9803Y-3.189
X-1.8803Y-3.189
X-1.7803Y-3.189
X-1.6803Y-3.189
X-1.5803Y-3.189
X-1.4803Y-3.189
X-1.3803Y-3.189
X-1.1417Y-1.811
X-1.1417Y-1.911
X-1.1811Y-3.0709
X-1.0811Y-3.0709
X-0.9811Y-3.0709
X-0.8811Y-3.0709
X-0.7811Y-3.0709
X-0.6811Y-3.0709
X-0.5811Y-3.0709
X-0.4811Y-3.0709
X-0.3811Y-3.0709
X-0.2811Y-3.0709
X-0.1811Y-3.0709
X-0.0811Y-3.0709
X-1.8898Y-1.8504
X-1.7898Y-1.8504
X-2.4803Y-3.0709
X-2.3803Y-3.0709
X-2.2803Y-3.0709
X-2.1803Y-3.0709
X-2.0803Y-3.0709
X-1.9803Y-3.0709
X-1.8803Y-3.0709
X-1.7803Y-3.0709
X-1.6803Y-3.0709
X-1.5803Y-3.0709
X-1.4803Y-3.0709
X-1.3803Y-3.0709
X0.1181Y-3.0709
X0.2181Y-3.0709
X0.3181Y-3.0709
X0.4181Y-3.0709
X0.5181Y-3.0709
X0.6181Y-3.0709
X0.7181Y-3.0709
X0.8181Y-3.0709
X0.9181Y-3.0709
X1.0181Y-3.0709
X1.1181Y-3.0709
X1.2181Y-3.0709
X-1.8898Y-1.9685
X-1.7898Y-1.9685
X-1.8898Y-1.7323
X-1.7898Y-1.7323
T5
X1.811Y-1.7835
X1.811Y-2.2835
T4
G00X2.6299Y-1.8898
M15
G01X2.6299Y-1.9685
M16
G05
G00X2.8543Y-1.811
M15
G01X2.7756Y-1.811
M16
G05
G00X2.8543Y-2.0472
M15
G01X2.7756Y-2.0472
M16
G05
T0
M30
