M48
; DRILL file {KiCad (5.1.5-131-g305ed0b65)-1} date 04/20/20 23:46:25
; FORMAT={-:-/ absolute / inch / decimal}
; #@! TF.CreationDate,2020-04-20T23:46:25+08:00
; #@! TF.GenerationSoftware,Kicad,Pcbnew,(5.1.5-131-g305ed0b65)-1
FMAT,2
INCH
T1C0.0157
T2C0.0276
T3C0.0394
%
G90
G05
T1
X2.5591Y-2.5197
X2.5591Y-2.5591
X2.5591Y-2.5984
X2.5591Y-2.6378
X2.5591Y-2.6772
X2.5591Y-2.7165
X2.5984Y-2.5197
X2.5984Y-2.5591
X2.5984Y-2.5984
X2.5984Y-2.6378
X2.5984Y-2.6772
X2.6378Y-2.5197
X2.6378Y-2.5591
X2.6378Y-2.5984
X2.6378Y-2.6378
X2.6575Y-1.7126
X2.6575Y-1.752
X2.6575Y-1.7913
X2.6772Y-2.5197
X2.6772Y-2.5591
X2.6772Y-2.5984
X2.6969Y-1.7126
X2.6969Y-1.752
X2.6969Y-1.7913
X2.7165Y-2.5984
X2.7362Y-1.7126
X2.7362Y-1.9094
X2.7559Y-2.5984
X2.7756Y-1.7126
X2.7756Y-1.9094
X2.7953Y-2.5984
X2.815Y-1.7126
X2.815Y-1.9094
X2.8346Y-2.5984
X2.8543Y-1.7126
X2.8543Y-1.9094
X2.8937Y-1.7126
X2.8937Y-1.9094
X2.9134Y-2.8937
X2.9134Y-2.9921
X2.9331Y-1.7126
X2.9331Y-1.752
X2.9331Y-1.7913
X2.9331Y-1.8307
X2.9331Y-1.8701
X2.9331Y-1.9094
X2.9528Y-2.8937
X2.9528Y-2.9921
X2.9724Y-1.7126
X2.9724Y-1.752
X2.9724Y-1.7913
X2.9724Y-1.8307
X2.9724Y-1.8701
X2.9724Y-1.9094
X2.9921Y-2.8937
X2.9921Y-2.9921
X3.0118Y-2.8543
X3.0197Y-2.7827
X3.0315Y-1.7126
X3.0315Y-1.752
X3.0315Y-1.7913
X3.0315Y-1.8307
X3.0315Y-1.8701
X3.0315Y-1.9094
X3.0315Y-2.8937
X3.0315Y-2.9921
X3.0709Y-1.7126
X3.0709Y-1.752
X3.0709Y-1.7913
X3.0709Y-1.8307
X3.0709Y-1.8701
X3.0709Y-1.9094
X3.1102Y-1.7126
X3.1102Y-1.752
X3.1102Y-1.7913
X3.1102Y-1.8307
X3.1102Y-1.8701
X3.1102Y-1.9094
X3.1496Y-1.7126
X3.1496Y-1.752
X3.1496Y-1.7913
X3.1496Y-1.8307
X3.1496Y-1.8701
X3.1496Y-1.9094
X3.1693Y-2.6969
X3.1693Y-2.7362
X3.1693Y-2.7756
X3.1693Y-2.815
X3.189Y-1.7126
X3.189Y-1.752
X3.189Y-1.7913
X3.189Y-1.8307
X3.189Y-1.8701
X3.2087Y-2.6969
X3.2087Y-2.7362
X3.2087Y-2.7756
X3.2087Y-2.815
X3.2283Y-1.7126
X3.2283Y-1.752
X3.2283Y-1.7913
X3.2283Y-1.8307
X3.2677Y-1.7126
X3.2677Y-1.752
X3.2677Y-1.7913
X3.2866Y-2.6358
X3.2968Y-2.0957
X3.3071Y-1.7126
X3.3071Y-1.752
X3.3949Y-2.9016
X3.4843Y-2.9528
X3.9567Y-2.5984
X3.9567Y-2.6378
X3.9961Y-2.5984
X3.9961Y-2.6378
T2
X2.6346Y-2.7953
X2.7346Y-2.8953
X2.8346Y-2.7953
T3
X2.5984Y-2.2819
X2.5984Y-2.3819
X3.9764Y-2.3409
X3.9764Y-2.4409
T3
G00X2.6299Y-1.8898
M15
G01X2.6299Y-1.9685
M16
G05
G00X2.8543Y-1.811
M15
G01X2.7756Y-1.811
M16
G05
G00X2.8543Y-2.0472
M15
G01X2.7756Y-2.0472
M16
G05
T0
M30
