%TF.GenerationSoftware,KiCad,Pcbnew,(5.1.5-131-g305ed0b65)-1*%
%TF.CreationDate,2020-04-17T17:43:09+08:00*%
%TF.ProjectId,NixieController,4e697869-6543-46f6-9e74-726f6c6c6572,rev?*%
%TF.SameCoordinates,Original*%
%TF.FileFunction,Paste,Top*%
%TF.FilePolarity,Positive*%
%FSLAX46Y46*%
G04 Gerber Fmt 4.6, Leading zero omitted, Abs format (unit mm)*
G04 Created by KiCad (PCBNEW (5.1.5-131-g305ed0b65)-1) date 2020-04-17 17:43:09*
%MOMM*%
%LPD*%
G01*
G04 APERTURE LIST*
%ADD10R,2.500000X2.300000*%
%ADD11R,2.900000X5.400000*%
%ADD12R,4.600000X1.100000*%
%ADD13R,4.550000X5.250000*%
G04 APERTURE END LIST*
%TO.C,C1*%
G36*
G01*
X69975000Y-65850000D02*
X72025000Y-65850000D01*
G75*
G02*
X72275000Y-66100000I0J-250000D01*
G01*
X72275000Y-67675000D01*
G75*
G02*
X72025000Y-67925000I-250000J0D01*
G01*
X69975000Y-67925000D01*
G75*
G02*
X69725000Y-67675000I0J250000D01*
G01*
X69725000Y-66100000D01*
G75*
G02*
X69975000Y-65850000I250000J0D01*
G01*
G37*
G36*
G01*
X69975000Y-72075000D02*
X72025000Y-72075000D01*
G75*
G02*
X72275000Y-72325000I0J-250000D01*
G01*
X72275000Y-73900000D01*
G75*
G02*
X72025000Y-74150000I-250000J0D01*
G01*
X69975000Y-74150000D01*
G75*
G02*
X69725000Y-73900000I0J250000D01*
G01*
X69725000Y-72325000D01*
G75*
G02*
X69975000Y-72075000I250000J0D01*
G01*
G37*
%TD*%
%TO.C,C2*%
G36*
G01*
X74543750Y-71450000D02*
X75456250Y-71450000D01*
G75*
G02*
X75700000Y-71693750I0J-243750D01*
G01*
X75700000Y-72181250D01*
G75*
G02*
X75456250Y-72425000I-243750J0D01*
G01*
X74543750Y-72425000D01*
G75*
G02*
X74300000Y-72181250I0J243750D01*
G01*
X74300000Y-71693750D01*
G75*
G02*
X74543750Y-71450000I243750J0D01*
G01*
G37*
G36*
G01*
X74543750Y-69575000D02*
X75456250Y-69575000D01*
G75*
G02*
X75700000Y-69818750I0J-243750D01*
G01*
X75700000Y-70306250D01*
G75*
G02*
X75456250Y-70550000I-243750J0D01*
G01*
X74543750Y-70550000D01*
G75*
G02*
X74300000Y-70306250I0J243750D01*
G01*
X74300000Y-69818750D01*
G75*
G02*
X74543750Y-69575000I243750J0D01*
G01*
G37*
%TD*%
%TO.C,C3*%
G36*
G01*
X82362500Y-73543750D02*
X82362500Y-74456250D01*
G75*
G02*
X82118750Y-74700000I-243750J0D01*
G01*
X81631250Y-74700000D01*
G75*
G02*
X81387500Y-74456250I0J243750D01*
G01*
X81387500Y-73543750D01*
G75*
G02*
X81631250Y-73300000I243750J0D01*
G01*
X82118750Y-73300000D01*
G75*
G02*
X82362500Y-73543750I0J-243750D01*
G01*
G37*
G36*
G01*
X80487500Y-73543750D02*
X80487500Y-74456250D01*
G75*
G02*
X80243750Y-74700000I-243750J0D01*
G01*
X79756250Y-74700000D01*
G75*
G02*
X79512500Y-74456250I0J243750D01*
G01*
X79512500Y-73543750D01*
G75*
G02*
X79756250Y-73300000I243750J0D01*
G01*
X80243750Y-73300000D01*
G75*
G02*
X80487500Y-73543750I0J-243750D01*
G01*
G37*
%TD*%
%TO.C,C4*%
G36*
G01*
X89375000Y-67575000D02*
X90625000Y-67575000D01*
G75*
G02*
X90875000Y-67825000I0J-250000D01*
G01*
X90875000Y-68575000D01*
G75*
G02*
X90625000Y-68825000I-250000J0D01*
G01*
X89375000Y-68825000D01*
G75*
G02*
X89125000Y-68575000I0J250000D01*
G01*
X89125000Y-67825000D01*
G75*
G02*
X89375000Y-67575000I250000J0D01*
G01*
G37*
G36*
G01*
X89375000Y-70375000D02*
X90625000Y-70375000D01*
G75*
G02*
X90875000Y-70625000I0J-250000D01*
G01*
X90875000Y-71375000D01*
G75*
G02*
X90625000Y-71625000I-250000J0D01*
G01*
X89375000Y-71625000D01*
G75*
G02*
X89125000Y-71375000I0J250000D01*
G01*
X89125000Y-70625000D01*
G75*
G02*
X89375000Y-70375000I250000J0D01*
G01*
G37*
%TD*%
%TO.C,C5*%
G36*
G01*
X96000000Y-64000000D02*
X98000000Y-64000000D01*
G75*
G02*
X98250000Y-64250000I0J-250000D01*
G01*
X98250000Y-67750000D01*
G75*
G02*
X98000000Y-68000000I-250000J0D01*
G01*
X96000000Y-68000000D01*
G75*
G02*
X95750000Y-67750000I0J250000D01*
G01*
X95750000Y-64250000D01*
G75*
G02*
X96000000Y-64000000I250000J0D01*
G01*
G37*
G36*
G01*
X96000000Y-72000000D02*
X98000000Y-72000000D01*
G75*
G02*
X98250000Y-72250000I0J-250000D01*
G01*
X98250000Y-75750000D01*
G75*
G02*
X98000000Y-76000000I-250000J0D01*
G01*
X96000000Y-76000000D01*
G75*
G02*
X95750000Y-75750000I0J250000D01*
G01*
X95750000Y-72250000D01*
G75*
G02*
X96000000Y-72000000I250000J0D01*
G01*
G37*
%TD*%
D10*
%TO.C,D1*%
X97150000Y-60000000D03*
X92850000Y-60000000D03*
%TD*%
D11*
%TO.C,L1*%
X78050000Y-60000000D03*
X87950000Y-60000000D03*
%TD*%
D12*
%TO.C,Q1*%
X88225000Y-46460000D03*
X88225000Y-51540000D03*
D13*
X99800000Y-51775000D03*
X94950000Y-46225000D03*
X99800000Y-46225000D03*
X94950000Y-51775000D03*
%TD*%
%TO.C,R1*%
G36*
G01*
X84575000Y-49574999D02*
X84575000Y-52425001D01*
G75*
G02*
X84325001Y-52675000I-249999J0D01*
G01*
X83474999Y-52675000D01*
G75*
G02*
X83225000Y-52425001I0J249999D01*
G01*
X83225000Y-49574999D01*
G75*
G02*
X83474999Y-49325000I249999J0D01*
G01*
X84325001Y-49325000D01*
G75*
G02*
X84575000Y-49574999I0J-249999D01*
G01*
G37*
G36*
G01*
X78775000Y-49574999D02*
X78775000Y-52425001D01*
G75*
G02*
X78525001Y-52675000I-249999J0D01*
G01*
X77674999Y-52675000D01*
G75*
G02*
X77425000Y-52425001I0J249999D01*
G01*
X77425000Y-49574999D01*
G75*
G02*
X77674999Y-49325000I249999J0D01*
G01*
X78525001Y-49325000D01*
G75*
G02*
X78775000Y-49574999I0J-249999D01*
G01*
G37*
%TD*%
%TO.C,R2*%
G36*
G01*
X86375000Y-67575000D02*
X87625000Y-67575000D01*
G75*
G02*
X87875000Y-67825000I0J-250000D01*
G01*
X87875000Y-68575000D01*
G75*
G02*
X87625000Y-68825000I-250000J0D01*
G01*
X86375000Y-68825000D01*
G75*
G02*
X86125000Y-68575000I0J250000D01*
G01*
X86125000Y-67825000D01*
G75*
G02*
X86375000Y-67575000I250000J0D01*
G01*
G37*
G36*
G01*
X86375000Y-70375000D02*
X87625000Y-70375000D01*
G75*
G02*
X87875000Y-70625000I0J-250000D01*
G01*
X87875000Y-71375000D01*
G75*
G02*
X87625000Y-71625000I-250000J0D01*
G01*
X86375000Y-71625000D01*
G75*
G02*
X86125000Y-71375000I0J250000D01*
G01*
X86125000Y-70625000D01*
G75*
G02*
X86375000Y-70375000I250000J0D01*
G01*
G37*
%TD*%
%TO.C,R3*%
G36*
G01*
X89543750Y-72637500D02*
X90456250Y-72637500D01*
G75*
G02*
X90700000Y-72881250I0J-243750D01*
G01*
X90700000Y-73368750D01*
G75*
G02*
X90456250Y-73612500I-243750J0D01*
G01*
X89543750Y-73612500D01*
G75*
G02*
X89300000Y-73368750I0J243750D01*
G01*
X89300000Y-72881250D01*
G75*
G02*
X89543750Y-72637500I243750J0D01*
G01*
G37*
G36*
G01*
X89543750Y-74512500D02*
X90456250Y-74512500D01*
G75*
G02*
X90700000Y-74756250I0J-243750D01*
G01*
X90700000Y-75243750D01*
G75*
G02*
X90456250Y-75487500I-243750J0D01*
G01*
X89543750Y-75487500D01*
G75*
G02*
X89300000Y-75243750I0J243750D01*
G01*
X89300000Y-74756250D01*
G75*
G02*
X89543750Y-74512500I243750J0D01*
G01*
G37*
%TD*%
%TO.C,U1*%
G36*
G01*
X77550000Y-68245000D02*
X77550000Y-67945000D01*
G75*
G02*
X77700000Y-67795000I150000J0D01*
G01*
X79350000Y-67795000D01*
G75*
G02*
X79500000Y-67945000I0J-150000D01*
G01*
X79500000Y-68245000D01*
G75*
G02*
X79350000Y-68395000I-150000J0D01*
G01*
X77700000Y-68395000D01*
G75*
G02*
X77550000Y-68245000I0J150000D01*
G01*
G37*
G36*
G01*
X77550000Y-69515000D02*
X77550000Y-69215000D01*
G75*
G02*
X77700000Y-69065000I150000J0D01*
G01*
X79350000Y-69065000D01*
G75*
G02*
X79500000Y-69215000I0J-150000D01*
G01*
X79500000Y-69515000D01*
G75*
G02*
X79350000Y-69665000I-150000J0D01*
G01*
X77700000Y-69665000D01*
G75*
G02*
X77550000Y-69515000I0J150000D01*
G01*
G37*
G36*
G01*
X77550000Y-70785000D02*
X77550000Y-70485000D01*
G75*
G02*
X77700000Y-70335000I150000J0D01*
G01*
X79350000Y-70335000D01*
G75*
G02*
X79500000Y-70485000I0J-150000D01*
G01*
X79500000Y-70785000D01*
G75*
G02*
X79350000Y-70935000I-150000J0D01*
G01*
X77700000Y-70935000D01*
G75*
G02*
X77550000Y-70785000I0J150000D01*
G01*
G37*
G36*
G01*
X77550000Y-72055000D02*
X77550000Y-71755000D01*
G75*
G02*
X77700000Y-71605000I150000J0D01*
G01*
X79350000Y-71605000D01*
G75*
G02*
X79500000Y-71755000I0J-150000D01*
G01*
X79500000Y-72055000D01*
G75*
G02*
X79350000Y-72205000I-150000J0D01*
G01*
X77700000Y-72205000D01*
G75*
G02*
X77550000Y-72055000I0J150000D01*
G01*
G37*
G36*
G01*
X82500000Y-72055000D02*
X82500000Y-71755000D01*
G75*
G02*
X82650000Y-71605000I150000J0D01*
G01*
X84300000Y-71605000D01*
G75*
G02*
X84450000Y-71755000I0J-150000D01*
G01*
X84450000Y-72055000D01*
G75*
G02*
X84300000Y-72205000I-150000J0D01*
G01*
X82650000Y-72205000D01*
G75*
G02*
X82500000Y-72055000I0J150000D01*
G01*
G37*
G36*
G01*
X82500000Y-70785000D02*
X82500000Y-70485000D01*
G75*
G02*
X82650000Y-70335000I150000J0D01*
G01*
X84300000Y-70335000D01*
G75*
G02*
X84450000Y-70485000I0J-150000D01*
G01*
X84450000Y-70785000D01*
G75*
G02*
X84300000Y-70935000I-150000J0D01*
G01*
X82650000Y-70935000D01*
G75*
G02*
X82500000Y-70785000I0J150000D01*
G01*
G37*
G36*
G01*
X82500000Y-69515000D02*
X82500000Y-69215000D01*
G75*
G02*
X82650000Y-69065000I150000J0D01*
G01*
X84300000Y-69065000D01*
G75*
G02*
X84450000Y-69215000I0J-150000D01*
G01*
X84450000Y-69515000D01*
G75*
G02*
X84300000Y-69665000I-150000J0D01*
G01*
X82650000Y-69665000D01*
G75*
G02*
X82500000Y-69515000I0J150000D01*
G01*
G37*
G36*
G01*
X82500000Y-68245000D02*
X82500000Y-67945000D01*
G75*
G02*
X82650000Y-67795000I150000J0D01*
G01*
X84300000Y-67795000D01*
G75*
G02*
X84450000Y-67945000I0J-150000D01*
G01*
X84450000Y-68245000D01*
G75*
G02*
X84300000Y-68395000I-150000J0D01*
G01*
X82650000Y-68395000D01*
G75*
G02*
X82500000Y-68245000I0J150000D01*
G01*
G37*
%TD*%
M02*
