M48
; DRILL file {KiCad (5.1.5-131-g305ed0b65)-1} date 04/17/20 17:43:17
; FORMAT={-:-/ absolute / inch / decimal}
; #@! TF.CreationDate,2020-04-17T17:43:17+08:00
; #@! TF.GenerationSoftware,Kicad,Pcbnew,(5.1.5-131-g305ed0b65)-1
FMAT,2
INCH
T1C0.0157
T2C0.0394
%
G90
G05
T1
X2.5787Y-1.7126
X2.5787Y-1.752
X2.5787Y-1.7913
X2.5787Y-1.8307
X2.5787Y-1.8701
X2.5787Y-1.9094
X2.5787Y-1.9488
X2.5787Y-1.9882
X2.5787Y-2.0276
X2.5787Y-2.815
X2.5787Y-2.8543
X2.5787Y-2.8937
X2.5787Y-2.9331
X2.5787Y-2.9724
X2.6181Y-1.7126
X2.6181Y-1.752
X2.6181Y-1.7913
X2.6181Y-1.8307
X2.6181Y-1.8701
X2.6181Y-1.9094
X2.6181Y-1.9488
X2.6181Y-1.9882
X2.6181Y-2.0276
X2.6181Y-2.815
X2.6181Y-2.8543
X2.6181Y-2.8937
X2.6181Y-2.9331
X2.6181Y-2.9724
X2.6575Y-1.7126
X2.6575Y-1.752
X2.6575Y-1.7913
X2.6575Y-1.8307
X2.6575Y-1.8701
X2.6575Y-1.9094
X2.6575Y-1.9488
X2.6575Y-1.9882
X2.6575Y-2.0276
X2.6575Y-2.815
X2.6575Y-2.8543
X2.6575Y-2.8937
X2.6575Y-2.9331
X2.6575Y-2.9724
X2.6969Y-1.7126
X2.6969Y-1.752
X2.6969Y-1.7913
X2.6969Y-1.8307
X2.6969Y-1.8701
X2.6969Y-1.9094
X2.6969Y-1.9488
X2.6969Y-1.9882
X2.6969Y-2.0276
X2.6969Y-2.9724
X2.7362Y-1.7126
X2.7362Y-1.752
X2.7362Y-1.7913
X2.7362Y-1.8307
X2.7362Y-1.8701
X2.7362Y-1.9094
X2.7362Y-1.9488
X2.7362Y-1.9882
X2.7362Y-2.0276
X2.7362Y-2.9724
X2.7756Y-1.7126
X2.7756Y-1.752
X2.7756Y-1.7913
X2.7756Y-1.8307
X2.7756Y-1.8701
X2.7756Y-1.9094
X2.7756Y-1.9488
X2.7756Y-1.9882
X2.7756Y-2.0276
X2.7756Y-2.9724
X2.815Y-1.7126
X2.815Y-1.752
X2.815Y-1.7913
X2.815Y-1.8307
X2.815Y-1.8701
X2.815Y-1.9094
X2.815Y-1.9488
X2.815Y-1.9882
X2.815Y-2.0276
X2.815Y-2.9724
X2.8543Y-1.7126
X2.8543Y-1.752
X2.8543Y-1.7913
X2.8543Y-1.8307
X2.8543Y-1.8701
X2.8543Y-1.9094
X2.8543Y-1.9488
X2.8543Y-1.9882
X2.8543Y-2.0276
X2.8543Y-2.9724
X2.8937Y-1.7126
X2.8937Y-1.752
X2.8937Y-1.7913
X2.8937Y-1.8307
X2.8937Y-1.8701
X2.8937Y-1.9094
X2.8937Y-1.9488
X2.8937Y-1.9882
X2.8937Y-2.0276
X2.8937Y-2.9724
X2.9331Y-1.7126
X2.9331Y-1.752
X2.9331Y-1.7913
X2.9331Y-1.8307
X2.9331Y-1.8701
X2.9331Y-1.9094
X2.9331Y-1.9488
X2.9331Y-1.9882
X2.9331Y-2.0276
X2.9331Y-2.8937
X2.9331Y-2.9331
X2.9331Y-2.9724
X2.9724Y-1.7126
X2.9724Y-1.752
X2.9724Y-1.7913
X2.9724Y-1.8307
X2.9724Y-1.8701
X2.9724Y-1.9094
X2.9724Y-1.9488
X2.9724Y-1.9882
X2.9724Y-2.0276
X2.9724Y-2.8937
X2.9724Y-2.9331
X2.9724Y-2.9724
X3.0118Y-1.7126
X3.0118Y-1.752
X3.0118Y-1.7913
X3.0118Y-1.8307
X3.0118Y-1.8701
X3.0118Y-1.9094
X3.0118Y-1.9488
X3.0118Y-1.9882
X3.0118Y-2.0276
X3.0118Y-2.8937
X3.0118Y-2.9331
X3.0118Y-2.9724
X3.0197Y-2.7827
X3.0512Y-1.7126
X3.0512Y-1.752
X3.0512Y-1.7913
X3.0512Y-1.8307
X3.0512Y-1.8701
X3.0512Y-1.9094
X3.0512Y-2.8937
X3.0512Y-2.9331
X3.0512Y-2.9724
X3.0906Y-1.7126
X3.0906Y-1.752
X3.0906Y-1.7913
X3.0906Y-1.8307
X3.0906Y-1.8701
X3.0906Y-1.9094
X3.0906Y-2.8937
X3.0906Y-2.9331
X3.0906Y-2.9724
X3.1299Y-1.7126
X3.1299Y-1.752
X3.1299Y-1.7913
X3.1299Y-1.8307
X3.1299Y-1.8701
X3.1299Y-1.9094
X3.1693Y-2.6969
X3.1693Y-2.7362
X3.1693Y-2.7756
X3.1693Y-2.815
X3.2087Y-2.6969
X3.2087Y-2.7362
X3.2087Y-2.7756
X3.2087Y-2.815
X3.2866Y-2.6358
X3.2968Y-2.0957
X3.3949Y-2.9016
X3.9567Y-2.5984
X3.9567Y-2.6378
X3.9961Y-2.5984
X3.9961Y-2.6378
T2
X3.9764Y-2.3409
X3.9764Y-2.4409
X2.5984Y-2.6362
X2.5984Y-2.7362
T2
G00X2.6378Y-2.2047
M15
G01X2.6378Y-2.2835
M16
G05
G00X2.7165Y-2.4291
M15
G01X2.7953Y-2.4291
M16
G05
G00X2.874Y-2.2047
M15
G01X2.874Y-2.2835
M16
G05
T0
M30
