%TF.GenerationSoftware,KiCad,Pcbnew,(5.1.5-131-g305ed0b65)-1*%
%TF.CreationDate,2020-04-17T17:43:09+08:00*%
%TF.ProjectId,NixieController,4e697869-6543-46f6-9e74-726f6c6c6572,rev?*%
%TF.SameCoordinates,Original*%
%TF.FileFunction,Copper,L1,Top*%
%TF.FilePolarity,Positive*%
%FSLAX46Y46*%
G04 Gerber Fmt 4.6, Leading zero omitted, Abs format (unit mm)*
G04 Created by KiCad (PCBNEW (5.1.5-131-g305ed0b65)-1) date 2020-04-17 17:43:09*
%MOMM*%
%LPD*%
G01*
G04 APERTURE LIST*
%TA.AperFunction,SMDPad,CuDef*%
%ADD10R,2.500000X2.300000*%
%TD*%
%TA.AperFunction,ComponentPad*%
%ADD11R,3.500000X3.500000*%
%TD*%
%TA.AperFunction,ComponentPad*%
%ADD12R,1.700000X1.700000*%
%TD*%
%TA.AperFunction,ComponentPad*%
%ADD13O,1.700000X1.700000*%
%TD*%
%TA.AperFunction,SMDPad,CuDef*%
%ADD14R,2.900000X5.400000*%
%TD*%
%TA.AperFunction,SMDPad,CuDef*%
%ADD15R,4.600000X1.100000*%
%TD*%
%TA.AperFunction,SMDPad,CuDef*%
%ADD16R,9.400000X10.800000*%
%TD*%
%TA.AperFunction,ViaPad*%
%ADD17C,0.800000*%
%TD*%
%TA.AperFunction,Conductor*%
%ADD18C,0.250000*%
%TD*%
%TA.AperFunction,Conductor*%
%ADD19C,2.000000*%
%TD*%
%TA.AperFunction,Conductor*%
%ADD20C,1.000000*%
%TD*%
%TA.AperFunction,Conductor*%
%ADD21C,0.254000*%
%TD*%
G04 APERTURE END LIST*
%TO.P,C1,1*%
%TO.N,+12V*%
%TA.AperFunction,SMDPad,CuDef*%
G36*
G01*
X69975000Y-65850000D02*
X72025000Y-65850000D01*
G75*
G02*
X72275000Y-66100000I0J-250000D01*
G01*
X72275000Y-67675000D01*
G75*
G02*
X72025000Y-67925000I-250000J0D01*
G01*
X69975000Y-67925000D01*
G75*
G02*
X69725000Y-67675000I0J250000D01*
G01*
X69725000Y-66100000D01*
G75*
G02*
X69975000Y-65850000I250000J0D01*
G01*
G37*
%TD.AperFunction*%
%TO.P,C1,2*%
%TO.N,GND*%
%TA.AperFunction,SMDPad,CuDef*%
G36*
G01*
X69975000Y-72075000D02*
X72025000Y-72075000D01*
G75*
G02*
X72275000Y-72325000I0J-250000D01*
G01*
X72275000Y-73900000D01*
G75*
G02*
X72025000Y-74150000I-250000J0D01*
G01*
X69975000Y-74150000D01*
G75*
G02*
X69725000Y-73900000I0J250000D01*
G01*
X69725000Y-72325000D01*
G75*
G02*
X69975000Y-72075000I250000J0D01*
G01*
G37*
%TD.AperFunction*%
%TD*%
%TO.P,C2,2*%
%TO.N,GND*%
%TA.AperFunction,SMDPad,CuDef*%
G36*
G01*
X74543750Y-71450000D02*
X75456250Y-71450000D01*
G75*
G02*
X75700000Y-71693750I0J-243750D01*
G01*
X75700000Y-72181250D01*
G75*
G02*
X75456250Y-72425000I-243750J0D01*
G01*
X74543750Y-72425000D01*
G75*
G02*
X74300000Y-72181250I0J243750D01*
G01*
X74300000Y-71693750D01*
G75*
G02*
X74543750Y-71450000I243750J0D01*
G01*
G37*
%TD.AperFunction*%
%TO.P,C2,1*%
%TO.N,+12V*%
%TA.AperFunction,SMDPad,CuDef*%
G36*
G01*
X74543750Y-69575000D02*
X75456250Y-69575000D01*
G75*
G02*
X75700000Y-69818750I0J-243750D01*
G01*
X75700000Y-70306250D01*
G75*
G02*
X75456250Y-70550000I-243750J0D01*
G01*
X74543750Y-70550000D01*
G75*
G02*
X74300000Y-70306250I0J243750D01*
G01*
X74300000Y-69818750D01*
G75*
G02*
X74543750Y-69575000I243750J0D01*
G01*
G37*
%TD.AperFunction*%
%TD*%
%TO.P,C3,1*%
%TO.N,Net-(C3-Pad1)*%
%TA.AperFunction,SMDPad,CuDef*%
G36*
G01*
X82362500Y-73543750D02*
X82362500Y-74456250D01*
G75*
G02*
X82118750Y-74700000I-243750J0D01*
G01*
X81631250Y-74700000D01*
G75*
G02*
X81387500Y-74456250I0J243750D01*
G01*
X81387500Y-73543750D01*
G75*
G02*
X81631250Y-73300000I243750J0D01*
G01*
X82118750Y-73300000D01*
G75*
G02*
X82362500Y-73543750I0J-243750D01*
G01*
G37*
%TD.AperFunction*%
%TO.P,C3,2*%
%TO.N,GND*%
%TA.AperFunction,SMDPad,CuDef*%
G36*
G01*
X80487500Y-73543750D02*
X80487500Y-74456250D01*
G75*
G02*
X80243750Y-74700000I-243750J0D01*
G01*
X79756250Y-74700000D01*
G75*
G02*
X79512500Y-74456250I0J243750D01*
G01*
X79512500Y-73543750D01*
G75*
G02*
X79756250Y-73300000I243750J0D01*
G01*
X80243750Y-73300000D01*
G75*
G02*
X80487500Y-73543750I0J-243750D01*
G01*
G37*
%TD.AperFunction*%
%TD*%
%TO.P,C4,1*%
%TO.N,+180V*%
%TA.AperFunction,SMDPad,CuDef*%
G36*
G01*
X89375000Y-67575000D02*
X90625000Y-67575000D01*
G75*
G02*
X90875000Y-67825000I0J-250000D01*
G01*
X90875000Y-68575000D01*
G75*
G02*
X90625000Y-68825000I-250000J0D01*
G01*
X89375000Y-68825000D01*
G75*
G02*
X89125000Y-68575000I0J250000D01*
G01*
X89125000Y-67825000D01*
G75*
G02*
X89375000Y-67575000I250000J0D01*
G01*
G37*
%TD.AperFunction*%
%TO.P,C4,2*%
%TO.N,Net-(C4-Pad2)*%
%TA.AperFunction,SMDPad,CuDef*%
G36*
G01*
X89375000Y-70375000D02*
X90625000Y-70375000D01*
G75*
G02*
X90875000Y-70625000I0J-250000D01*
G01*
X90875000Y-71375000D01*
G75*
G02*
X90625000Y-71625000I-250000J0D01*
G01*
X89375000Y-71625000D01*
G75*
G02*
X89125000Y-71375000I0J250000D01*
G01*
X89125000Y-70625000D01*
G75*
G02*
X89375000Y-70375000I250000J0D01*
G01*
G37*
%TD.AperFunction*%
%TD*%
%TO.P,C5,1*%
%TO.N,+180V*%
%TA.AperFunction,SMDPad,CuDef*%
G36*
G01*
X96000000Y-64000000D02*
X98000000Y-64000000D01*
G75*
G02*
X98250000Y-64250000I0J-250000D01*
G01*
X98250000Y-67750000D01*
G75*
G02*
X98000000Y-68000000I-250000J0D01*
G01*
X96000000Y-68000000D01*
G75*
G02*
X95750000Y-67750000I0J250000D01*
G01*
X95750000Y-64250000D01*
G75*
G02*
X96000000Y-64000000I250000J0D01*
G01*
G37*
%TD.AperFunction*%
%TO.P,C5,2*%
%TO.N,GND*%
%TA.AperFunction,SMDPad,CuDef*%
G36*
G01*
X96000000Y-72000000D02*
X98000000Y-72000000D01*
G75*
G02*
X98250000Y-72250000I0J-250000D01*
G01*
X98250000Y-75750000D01*
G75*
G02*
X98000000Y-76000000I-250000J0D01*
G01*
X96000000Y-76000000D01*
G75*
G02*
X95750000Y-75750000I0J250000D01*
G01*
X95750000Y-72250000D01*
G75*
G02*
X96000000Y-72000000I250000J0D01*
G01*
G37*
%TD.AperFunction*%
%TD*%
D10*
%TO.P,D1,1*%
%TO.N,+180V*%
X97150000Y-60000000D03*
%TO.P,D1,2*%
%TO.N,Net-(D1-Pad2)*%
X92850000Y-60000000D03*
%TD*%
D11*
%TO.P,J1,1*%
%TO.N,+12V*%
X73000000Y-57000000D03*
%TO.P,J1,2*%
%TO.N,GND*%
%TA.AperFunction,ComponentPad*%
G36*
G01*
X65500000Y-58000000D02*
X65500000Y-56000000D01*
G75*
G02*
X66250000Y-55250000I750000J0D01*
G01*
X67750000Y-55250000D01*
G75*
G02*
X68500000Y-56000000I0J-750000D01*
G01*
X68500000Y-58000000D01*
G75*
G02*
X67750000Y-58750000I-750000J0D01*
G01*
X66250000Y-58750000D01*
G75*
G02*
X65500000Y-58000000I0J750000D01*
G01*
G37*
%TD.AperFunction*%
%TO.P,J1,3*%
%TO.N,N/C*%
%TA.AperFunction,ComponentPad*%
G36*
G01*
X68250000Y-62575000D02*
X68250000Y-60825000D01*
G75*
G02*
X69125000Y-59950000I875000J0D01*
G01*
X70875000Y-59950000D01*
G75*
G02*
X71750000Y-60825000I0J-875000D01*
G01*
X71750000Y-62575000D01*
G75*
G02*
X70875000Y-63450000I-875000J0D01*
G01*
X69125000Y-63450000D01*
G75*
G02*
X68250000Y-62575000I0J875000D01*
G01*
G37*
%TD.AperFunction*%
%TD*%
D12*
%TO.P,J2,1*%
%TO.N,GND*%
X66000000Y-69500000D03*
D13*
%TO.P,J2,2*%
%TO.N,+12V*%
X66000000Y-66960000D03*
%TD*%
%TO.P,J3,2*%
%TO.N,+180V*%
X101000000Y-59460000D03*
D12*
%TO.P,J3,1*%
%TO.N,GND*%
X101000000Y-62000000D03*
%TD*%
D14*
%TO.P,L1,1*%
%TO.N,+12V*%
X78050000Y-60000000D03*
%TO.P,L1,2*%
%TO.N,Net-(D1-Pad2)*%
X87950000Y-60000000D03*
%TD*%
D15*
%TO.P,Q1,1*%
%TO.N,Net-(Q1-Pad1)*%
X88225000Y-46460000D03*
%TO.P,Q1,3*%
%TO.N,Net-(Q1-Pad3)*%
X88225000Y-51540000D03*
D16*
%TO.P,Q1,2*%
%TO.N,Net-(D1-Pad2)*%
X97375000Y-49000000D03*
%TD*%
%TO.P,R1,1*%
%TO.N,Net-(Q1-Pad3)*%
%TA.AperFunction,SMDPad,CuDef*%
G36*
G01*
X84575000Y-49574999D02*
X84575000Y-52425001D01*
G75*
G02*
X84325001Y-52675000I-249999J0D01*
G01*
X83474999Y-52675000D01*
G75*
G02*
X83225000Y-52425001I0J249999D01*
G01*
X83225000Y-49574999D01*
G75*
G02*
X83474999Y-49325000I249999J0D01*
G01*
X84325001Y-49325000D01*
G75*
G02*
X84575000Y-49574999I0J-249999D01*
G01*
G37*
%TD.AperFunction*%
%TO.P,R1,2*%
%TO.N,GND*%
%TA.AperFunction,SMDPad,CuDef*%
G36*
G01*
X78775000Y-49574999D02*
X78775000Y-52425001D01*
G75*
G02*
X78525001Y-52675000I-249999J0D01*
G01*
X77674999Y-52675000D01*
G75*
G02*
X77425000Y-52425001I0J249999D01*
G01*
X77425000Y-49574999D01*
G75*
G02*
X77674999Y-49325000I249999J0D01*
G01*
X78525001Y-49325000D01*
G75*
G02*
X78775000Y-49574999I0J-249999D01*
G01*
G37*
%TD.AperFunction*%
%TD*%
%TO.P,R2,1*%
%TO.N,+180V*%
%TA.AperFunction,SMDPad,CuDef*%
G36*
G01*
X86375000Y-67575000D02*
X87625000Y-67575000D01*
G75*
G02*
X87875000Y-67825000I0J-250000D01*
G01*
X87875000Y-68575000D01*
G75*
G02*
X87625000Y-68825000I-250000J0D01*
G01*
X86375000Y-68825000D01*
G75*
G02*
X86125000Y-68575000I0J250000D01*
G01*
X86125000Y-67825000D01*
G75*
G02*
X86375000Y-67575000I250000J0D01*
G01*
G37*
%TD.AperFunction*%
%TO.P,R2,2*%
%TO.N,Net-(C4-Pad2)*%
%TA.AperFunction,SMDPad,CuDef*%
G36*
G01*
X86375000Y-70375000D02*
X87625000Y-70375000D01*
G75*
G02*
X87875000Y-70625000I0J-250000D01*
G01*
X87875000Y-71375000D01*
G75*
G02*
X87625000Y-71625000I-250000J0D01*
G01*
X86375000Y-71625000D01*
G75*
G02*
X86125000Y-71375000I0J250000D01*
G01*
X86125000Y-70625000D01*
G75*
G02*
X86375000Y-70375000I250000J0D01*
G01*
G37*
%TD.AperFunction*%
%TD*%
%TO.P,R3,1*%
%TO.N,Net-(C4-Pad2)*%
%TA.AperFunction,SMDPad,CuDef*%
G36*
G01*
X89543750Y-72637500D02*
X90456250Y-72637500D01*
G75*
G02*
X90700000Y-72881250I0J-243750D01*
G01*
X90700000Y-73368750D01*
G75*
G02*
X90456250Y-73612500I-243750J0D01*
G01*
X89543750Y-73612500D01*
G75*
G02*
X89300000Y-73368750I0J243750D01*
G01*
X89300000Y-72881250D01*
G75*
G02*
X89543750Y-72637500I243750J0D01*
G01*
G37*
%TD.AperFunction*%
%TO.P,R3,2*%
%TO.N,GND*%
%TA.AperFunction,SMDPad,CuDef*%
G36*
G01*
X89543750Y-74512500D02*
X90456250Y-74512500D01*
G75*
G02*
X90700000Y-74756250I0J-243750D01*
G01*
X90700000Y-75243750D01*
G75*
G02*
X90456250Y-75487500I-243750J0D01*
G01*
X89543750Y-75487500D01*
G75*
G02*
X89300000Y-75243750I0J243750D01*
G01*
X89300000Y-74756250D01*
G75*
G02*
X89543750Y-74512500I243750J0D01*
G01*
G37*
%TD.AperFunction*%
%TD*%
%TO.P,U1,1*%
%TO.N,Net-(Q1-Pad1)*%
%TA.AperFunction,SMDPad,CuDef*%
G36*
G01*
X77550000Y-68245000D02*
X77550000Y-67945000D01*
G75*
G02*
X77700000Y-67795000I150000J0D01*
G01*
X79350000Y-67795000D01*
G75*
G02*
X79500000Y-67945000I0J-150000D01*
G01*
X79500000Y-68245000D01*
G75*
G02*
X79350000Y-68395000I-150000J0D01*
G01*
X77700000Y-68395000D01*
G75*
G02*
X77550000Y-68245000I0J150000D01*
G01*
G37*
%TD.AperFunction*%
%TO.P,U1,2*%
%TO.N,+12V*%
%TA.AperFunction,SMDPad,CuDef*%
G36*
G01*
X77550000Y-69515000D02*
X77550000Y-69215000D01*
G75*
G02*
X77700000Y-69065000I150000J0D01*
G01*
X79350000Y-69065000D01*
G75*
G02*
X79500000Y-69215000I0J-150000D01*
G01*
X79500000Y-69515000D01*
G75*
G02*
X79350000Y-69665000I-150000J0D01*
G01*
X77700000Y-69665000D01*
G75*
G02*
X77550000Y-69515000I0J150000D01*
G01*
G37*
%TD.AperFunction*%
%TO.P,U1,3*%
%TO.N,Net-(C4-Pad2)*%
%TA.AperFunction,SMDPad,CuDef*%
G36*
G01*
X77550000Y-70785000D02*
X77550000Y-70485000D01*
G75*
G02*
X77700000Y-70335000I150000J0D01*
G01*
X79350000Y-70335000D01*
G75*
G02*
X79500000Y-70485000I0J-150000D01*
G01*
X79500000Y-70785000D01*
G75*
G02*
X79350000Y-70935000I-150000J0D01*
G01*
X77700000Y-70935000D01*
G75*
G02*
X77550000Y-70785000I0J150000D01*
G01*
G37*
%TD.AperFunction*%
%TO.P,U1,4*%
%TO.N,GND*%
%TA.AperFunction,SMDPad,CuDef*%
G36*
G01*
X77550000Y-72055000D02*
X77550000Y-71755000D01*
G75*
G02*
X77700000Y-71605000I150000J0D01*
G01*
X79350000Y-71605000D01*
G75*
G02*
X79500000Y-71755000I0J-150000D01*
G01*
X79500000Y-72055000D01*
G75*
G02*
X79350000Y-72205000I-150000J0D01*
G01*
X77700000Y-72205000D01*
G75*
G02*
X77550000Y-72055000I0J150000D01*
G01*
G37*
%TD.AperFunction*%
%TO.P,U1,5*%
%TO.N,Net-(C3-Pad1)*%
%TA.AperFunction,SMDPad,CuDef*%
G36*
G01*
X82500000Y-72055000D02*
X82500000Y-71755000D01*
G75*
G02*
X82650000Y-71605000I150000J0D01*
G01*
X84300000Y-71605000D01*
G75*
G02*
X84450000Y-71755000I0J-150000D01*
G01*
X84450000Y-72055000D01*
G75*
G02*
X84300000Y-72205000I-150000J0D01*
G01*
X82650000Y-72205000D01*
G75*
G02*
X82500000Y-72055000I0J150000D01*
G01*
G37*
%TD.AperFunction*%
%TO.P,U1,6*%
%TO.N,GND*%
%TA.AperFunction,SMDPad,CuDef*%
G36*
G01*
X82500000Y-70785000D02*
X82500000Y-70485000D01*
G75*
G02*
X82650000Y-70335000I150000J0D01*
G01*
X84300000Y-70335000D01*
G75*
G02*
X84450000Y-70485000I0J-150000D01*
G01*
X84450000Y-70785000D01*
G75*
G02*
X84300000Y-70935000I-150000J0D01*
G01*
X82650000Y-70935000D01*
G75*
G02*
X82500000Y-70785000I0J150000D01*
G01*
G37*
%TD.AperFunction*%
%TO.P,U1,7*%
%TA.AperFunction,SMDPad,CuDef*%
G36*
G01*
X82500000Y-69515000D02*
X82500000Y-69215000D01*
G75*
G02*
X82650000Y-69065000I150000J0D01*
G01*
X84300000Y-69065000D01*
G75*
G02*
X84450000Y-69215000I0J-150000D01*
G01*
X84450000Y-69515000D01*
G75*
G02*
X84300000Y-69665000I-150000J0D01*
G01*
X82650000Y-69665000D01*
G75*
G02*
X82500000Y-69515000I0J150000D01*
G01*
G37*
%TD.AperFunction*%
%TO.P,U1,8*%
%TO.N,Net-(Q1-Pad3)*%
%TA.AperFunction,SMDPad,CuDef*%
G36*
G01*
X82500000Y-68245000D02*
X82500000Y-67945000D01*
G75*
G02*
X82650000Y-67795000I150000J0D01*
G01*
X84300000Y-67795000D01*
G75*
G02*
X84450000Y-67945000I0J-150000D01*
G01*
X84450000Y-68245000D01*
G75*
G02*
X84300000Y-68395000I-150000J0D01*
G01*
X82650000Y-68395000D01*
G75*
G02*
X82500000Y-68245000I0J150000D01*
G01*
G37*
%TD.AperFunction*%
%TD*%
D17*
%TO.N,GND*%
X74500000Y-49500000D03*
X74500000Y-46500000D03*
X74500000Y-51500000D03*
X74500000Y-45500000D03*
X74500000Y-44500000D03*
X74500000Y-50500000D03*
X74500000Y-48500000D03*
X74500000Y-47500000D03*
X73500000Y-49500000D03*
X73500000Y-46500000D03*
X73500000Y-51500000D03*
X73500000Y-45500000D03*
X73500000Y-44500000D03*
X73500000Y-50500000D03*
X73500000Y-48500000D03*
X73500000Y-47500000D03*
X72500000Y-49500000D03*
X72500000Y-46500000D03*
X72500000Y-51500000D03*
X72500000Y-45500000D03*
X72500000Y-44500000D03*
X72500000Y-50500000D03*
X72500000Y-48500000D03*
X72500000Y-47500000D03*
X71500000Y-49500000D03*
X71500000Y-46500000D03*
X71500000Y-51500000D03*
X71500000Y-45500000D03*
X71500000Y-44500000D03*
X71500000Y-50500000D03*
X71500000Y-48500000D03*
X71500000Y-47500000D03*
X70500000Y-49500000D03*
X70500000Y-46500000D03*
X70500000Y-51500000D03*
X70500000Y-45500000D03*
X70500000Y-44500000D03*
X70500000Y-50500000D03*
X70500000Y-48500000D03*
X70500000Y-47500000D03*
X69500000Y-49500000D03*
X69500000Y-46500000D03*
X69500000Y-51500000D03*
X69500000Y-45500000D03*
X69500000Y-44500000D03*
X69500000Y-50500000D03*
X69500000Y-48500000D03*
X69500000Y-47500000D03*
X68500000Y-49500000D03*
X68500000Y-46500000D03*
X68500000Y-51500000D03*
X68500000Y-45500000D03*
X68500000Y-44500000D03*
X68500000Y-50500000D03*
X68500000Y-48500000D03*
X68500000Y-47500000D03*
X80500000Y-68500000D03*
X81500000Y-68500000D03*
X81500000Y-69500000D03*
X80500000Y-69500000D03*
X80500000Y-70500000D03*
X81500000Y-70500000D03*
X80500000Y-71500000D03*
X81500000Y-71500000D03*
X100500000Y-66000000D03*
X101500000Y-66000000D03*
X100500000Y-67000000D03*
X101500000Y-67000000D03*
X75500000Y-51500000D03*
X75500000Y-50500000D03*
X75500000Y-49500000D03*
X75500000Y-48500000D03*
X75500000Y-47500000D03*
X75500000Y-46500000D03*
X75500000Y-45500000D03*
X75500000Y-44500000D03*
X65500000Y-71500000D03*
X66500000Y-71500000D03*
X67500000Y-71500000D03*
X67500000Y-72500000D03*
X67500000Y-73500000D03*
X67500000Y-74500000D03*
X67500000Y-75500000D03*
X66500000Y-72500000D03*
X66500000Y-73500000D03*
X66500000Y-74500000D03*
X66500000Y-75500000D03*
X65500000Y-75500000D03*
X65500000Y-74500000D03*
X65500000Y-73500000D03*
X65500000Y-72500000D03*
X68500000Y-75500000D03*
X69500000Y-75500000D03*
X70500000Y-75500000D03*
X71500000Y-75500000D03*
X72500000Y-75500000D03*
X73500000Y-75500000D03*
X74500000Y-73500000D03*
X75500000Y-73500000D03*
X76500000Y-73500000D03*
X77500000Y-73500000D03*
X78500000Y-73500000D03*
X78500000Y-74500000D03*
X77500000Y-74500000D03*
X76500000Y-74500000D03*
X75500000Y-74500000D03*
X74500000Y-74500000D03*
X74500000Y-75500000D03*
X75500000Y-75500000D03*
X76500000Y-75500000D03*
X77500000Y-75500000D03*
X78500000Y-75500000D03*
X67500000Y-51500000D03*
X67500000Y-50500000D03*
X67500000Y-49500000D03*
X67500000Y-48500000D03*
X67500000Y-47500000D03*
X67500000Y-46500000D03*
X67500000Y-45500000D03*
X67500000Y-44500000D03*
X66500000Y-44500000D03*
X65500000Y-44500000D03*
X66500000Y-45500000D03*
X65500000Y-45500000D03*
X65500000Y-46500000D03*
X66500000Y-46500000D03*
X66500000Y-47500000D03*
X65500000Y-47500000D03*
X65500000Y-48500000D03*
X66500000Y-48500000D03*
X66500000Y-49500000D03*
X65500000Y-49500000D03*
X65500000Y-50500000D03*
X66500000Y-50500000D03*
X66500000Y-51500000D03*
X65500000Y-51500000D03*
X76500000Y-48500000D03*
X77500000Y-48500000D03*
X78500000Y-48500000D03*
X79500000Y-48500000D03*
X79500000Y-47500000D03*
X78500000Y-47500000D03*
X77500000Y-47500000D03*
X76500000Y-47500000D03*
X76500000Y-46500000D03*
X77500000Y-46500000D03*
X78500000Y-46500000D03*
X79500000Y-46500000D03*
X79500000Y-44500000D03*
X79500000Y-45500000D03*
X78500000Y-45500000D03*
X78500000Y-44500000D03*
X77500000Y-44500000D03*
X77500000Y-45500000D03*
X76500000Y-45500000D03*
X76500000Y-44500000D03*
X79500000Y-43500000D03*
X78500000Y-43500000D03*
X77500000Y-43500000D03*
X76500000Y-43500000D03*
X75500000Y-43500000D03*
X74500000Y-43500000D03*
X73500000Y-43500000D03*
X72500000Y-43500000D03*
X71500000Y-43500000D03*
X70500000Y-43500000D03*
X69500000Y-43500000D03*
X68500000Y-43500000D03*
X67500000Y-43500000D03*
X66500000Y-43500000D03*
X65500000Y-43500000D03*
X76500000Y-49500000D03*
X76500000Y-50500000D03*
X76500000Y-51500000D03*
%TO.N,Net-(Q1-Pad3)*%
X83480000Y-66950000D03*
X83739964Y-53229968D03*
%TO.N,Net-(C4-Pad2)*%
X86230000Y-73700000D03*
X76700000Y-70680000D03*
%TD*%
D18*
%TO.N,GND*%
X83475000Y-69365000D02*
X83475000Y-70635000D01*
%TO.N,+180V*%
X87000000Y-68200000D02*
X90000000Y-68200000D01*
D19*
X97150000Y-65850000D02*
X97000000Y-66000000D01*
X97150000Y-60000000D02*
X97150000Y-65850000D01*
X97690000Y-59460000D02*
X101000000Y-59460000D01*
X97150000Y-60000000D02*
X97690000Y-59460000D01*
D18*
X90000000Y-68200000D02*
X90000000Y-62890000D01*
X90000000Y-62890000D02*
X91110000Y-61780000D01*
X95370000Y-61780000D02*
X97150000Y-60000000D01*
X91110000Y-61780000D02*
X95370000Y-61780000D01*
D19*
%TO.N,Net-(D1-Pad2)*%
X92850000Y-53525000D02*
X92850000Y-60000000D01*
X97375000Y-49000000D02*
X92850000Y-53525000D01*
X87950000Y-60000000D02*
X92850000Y-60000000D01*
D20*
%TO.N,Net-(Q1-Pad1)*%
X79500000Y-66000000D02*
X78525000Y-66975000D01*
X81000000Y-66000000D02*
X79500000Y-66000000D01*
X78525000Y-66975000D02*
X78525000Y-68064990D01*
X82069999Y-64930001D02*
X81000000Y-66000000D01*
X82069999Y-48930001D02*
X82069999Y-64930001D01*
X84540000Y-46460000D02*
X82069999Y-48930001D01*
X88225000Y-46460000D02*
X84540000Y-46460000D01*
D18*
%TO.N,Net-(Q1-Pad3)*%
X83475000Y-51425000D02*
X83900000Y-51000000D01*
X83475000Y-68095000D02*
X83475000Y-66955000D01*
X83475000Y-66955000D02*
X83480000Y-66950000D01*
X83900000Y-51000000D02*
X83900000Y-53069932D01*
X83900000Y-53069932D02*
X83739964Y-53229968D01*
%TO.N,Net-(C3-Pad1)*%
X83475000Y-72400000D02*
X83475000Y-71905000D01*
X81875000Y-74000000D02*
X83475000Y-72400000D01*
%TO.N,Net-(C4-Pad2)*%
X90000000Y-71000000D02*
X87000000Y-71000000D01*
X90000000Y-73125000D02*
X90000000Y-71000000D01*
X78590000Y-70700000D02*
X78525000Y-70635000D01*
X87000000Y-71000000D02*
X87000000Y-72930000D01*
X87000000Y-72930000D02*
X86230000Y-73700000D01*
X78480000Y-70680000D02*
X78525000Y-70635000D01*
X76700000Y-70680000D02*
X78480000Y-70680000D01*
%TD*%
D21*
%TO.N,Net-(Q1-Pad3)*%
G36*
X90873000Y-49552606D02*
G01*
X90873000Y-52447394D01*
X90447394Y-52873000D01*
X83552606Y-52873000D01*
X83127000Y-52447394D01*
X83127000Y-49552606D01*
X83552606Y-49127000D01*
X90447394Y-49127000D01*
X90873000Y-49552606D01*
G37*
X90873000Y-49552606D02*
X90873000Y-52447394D01*
X90447394Y-52873000D01*
X83552606Y-52873000D01*
X83127000Y-52447394D01*
X83127000Y-49552606D01*
X83552606Y-49127000D01*
X90447394Y-49127000D01*
X90873000Y-49552606D01*
%TO.N,+12V*%
G36*
X80765251Y-54642467D02*
G01*
X80820570Y-54679430D01*
X80857533Y-54734749D01*
X80873000Y-54812509D01*
X80873000Y-64187491D01*
X80857533Y-64265251D01*
X80820570Y-64320570D01*
X80765251Y-64357533D01*
X80687491Y-64373000D01*
X77300000Y-64373000D01*
X77275224Y-64375440D01*
X77160419Y-64398276D01*
X77136594Y-64405503D01*
X77114637Y-64417239D01*
X77017310Y-64482271D01*
X76998065Y-64498066D01*
X76982271Y-64517310D01*
X76917239Y-64614637D01*
X76905503Y-64636594D01*
X76898276Y-64660419D01*
X76875440Y-64775224D01*
X76873000Y-64800000D01*
X76873000Y-68700000D01*
X76875440Y-68724776D01*
X76898276Y-68839581D01*
X76905503Y-68863406D01*
X76917239Y-68885363D01*
X76982271Y-68982690D01*
X76998066Y-69001935D01*
X77017310Y-69017729D01*
X77114637Y-69082761D01*
X77136594Y-69094497D01*
X77160419Y-69101724D01*
X77275224Y-69124560D01*
X77300000Y-69127000D01*
X79187491Y-69127000D01*
X79265251Y-69142467D01*
X79320570Y-69179430D01*
X79357533Y-69234749D01*
X79373000Y-69312509D01*
X79373000Y-69687491D01*
X79357533Y-69765251D01*
X79330672Y-69805451D01*
X77700000Y-69805451D01*
X77567427Y-69818508D01*
X77439948Y-69857179D01*
X77410349Y-69873000D01*
X77160794Y-69873000D01*
X77139099Y-69858504D01*
X76970396Y-69788624D01*
X76791301Y-69753000D01*
X76608699Y-69753000D01*
X76429604Y-69788624D01*
X76260901Y-69858504D01*
X76237340Y-69874247D01*
X76225224Y-69875440D01*
X76129553Y-69894470D01*
X76105728Y-69901697D01*
X76083772Y-69913433D01*
X76002666Y-69967626D01*
X75983421Y-69983420D01*
X75967626Y-70002666D01*
X75913433Y-70083772D01*
X75901697Y-70105729D01*
X75894470Y-70129553D01*
X75866610Y-70269616D01*
X75846324Y-70318589D01*
X75835215Y-70335215D01*
X75796119Y-70361338D01*
X75737491Y-70373000D01*
X74312509Y-70373000D01*
X74234749Y-70357533D01*
X74179430Y-70320570D01*
X74142467Y-70265251D01*
X74127000Y-70187491D01*
X74127000Y-68300000D01*
X74124560Y-68275224D01*
X74101724Y-68160419D01*
X74094497Y-68136594D01*
X74082761Y-68114637D01*
X74017729Y-68017310D01*
X74001934Y-67998065D01*
X73982690Y-67982271D01*
X73885363Y-67917239D01*
X73863406Y-67905503D01*
X73839581Y-67898276D01*
X73724776Y-67875440D01*
X73700000Y-67873000D01*
X64552000Y-67873000D01*
X64552000Y-64127000D01*
X72200000Y-64127000D01*
X72224776Y-64124560D01*
X72339581Y-64101724D01*
X72363406Y-64094497D01*
X72385363Y-64082761D01*
X72482690Y-64017729D01*
X72501935Y-64001934D01*
X72517729Y-63982690D01*
X72582761Y-63885363D01*
X72594497Y-63863406D01*
X72601724Y-63839581D01*
X72624560Y-63724776D01*
X72627000Y-63700000D01*
X72627000Y-59800000D01*
X72624560Y-59775224D01*
X72601724Y-59660419D01*
X72594497Y-59636594D01*
X72582761Y-59614637D01*
X72517729Y-59517310D01*
X72501934Y-59498065D01*
X72482690Y-59482271D01*
X72385363Y-59417239D01*
X72363406Y-59405503D01*
X72339581Y-59398276D01*
X72224776Y-59375440D01*
X72200000Y-59373000D01*
X70812509Y-59373000D01*
X70734749Y-59357533D01*
X70679430Y-59320570D01*
X70642467Y-59265251D01*
X70627000Y-59187491D01*
X70627000Y-54812509D01*
X70642467Y-54734749D01*
X70679430Y-54679430D01*
X70734749Y-54642467D01*
X70812509Y-54627000D01*
X80687491Y-54627000D01*
X80765251Y-54642467D01*
G37*
X80765251Y-54642467D02*
X80820570Y-54679430D01*
X80857533Y-54734749D01*
X80873000Y-54812509D01*
X80873000Y-64187491D01*
X80857533Y-64265251D01*
X80820570Y-64320570D01*
X80765251Y-64357533D01*
X80687491Y-64373000D01*
X77300000Y-64373000D01*
X77275224Y-64375440D01*
X77160419Y-64398276D01*
X77136594Y-64405503D01*
X77114637Y-64417239D01*
X77017310Y-64482271D01*
X76998065Y-64498066D01*
X76982271Y-64517310D01*
X76917239Y-64614637D01*
X76905503Y-64636594D01*
X76898276Y-64660419D01*
X76875440Y-64775224D01*
X76873000Y-64800000D01*
X76873000Y-68700000D01*
X76875440Y-68724776D01*
X76898276Y-68839581D01*
X76905503Y-68863406D01*
X76917239Y-68885363D01*
X76982271Y-68982690D01*
X76998066Y-69001935D01*
X77017310Y-69017729D01*
X77114637Y-69082761D01*
X77136594Y-69094497D01*
X77160419Y-69101724D01*
X77275224Y-69124560D01*
X77300000Y-69127000D01*
X79187491Y-69127000D01*
X79265251Y-69142467D01*
X79320570Y-69179430D01*
X79357533Y-69234749D01*
X79373000Y-69312509D01*
X79373000Y-69687491D01*
X79357533Y-69765251D01*
X79330672Y-69805451D01*
X77700000Y-69805451D01*
X77567427Y-69818508D01*
X77439948Y-69857179D01*
X77410349Y-69873000D01*
X77160794Y-69873000D01*
X77139099Y-69858504D01*
X76970396Y-69788624D01*
X76791301Y-69753000D01*
X76608699Y-69753000D01*
X76429604Y-69788624D01*
X76260901Y-69858504D01*
X76237340Y-69874247D01*
X76225224Y-69875440D01*
X76129553Y-69894470D01*
X76105728Y-69901697D01*
X76083772Y-69913433D01*
X76002666Y-69967626D01*
X75983421Y-69983420D01*
X75967626Y-70002666D01*
X75913433Y-70083772D01*
X75901697Y-70105729D01*
X75894470Y-70129553D01*
X75866610Y-70269616D01*
X75846324Y-70318589D01*
X75835215Y-70335215D01*
X75796119Y-70361338D01*
X75737491Y-70373000D01*
X74312509Y-70373000D01*
X74234749Y-70357533D01*
X74179430Y-70320570D01*
X74142467Y-70265251D01*
X74127000Y-70187491D01*
X74127000Y-68300000D01*
X74124560Y-68275224D01*
X74101724Y-68160419D01*
X74094497Y-68136594D01*
X74082761Y-68114637D01*
X74017729Y-68017310D01*
X74001934Y-67998065D01*
X73982690Y-67982271D01*
X73885363Y-67917239D01*
X73863406Y-67905503D01*
X73839581Y-67898276D01*
X73724776Y-67875440D01*
X73700000Y-67873000D01*
X64552000Y-67873000D01*
X64552000Y-64127000D01*
X72200000Y-64127000D01*
X72224776Y-64124560D01*
X72339581Y-64101724D01*
X72363406Y-64094497D01*
X72385363Y-64082761D01*
X72482690Y-64017729D01*
X72501935Y-64001934D01*
X72517729Y-63982690D01*
X72582761Y-63885363D01*
X72594497Y-63863406D01*
X72601724Y-63839581D01*
X72624560Y-63724776D01*
X72627000Y-63700000D01*
X72627000Y-59800000D01*
X72624560Y-59775224D01*
X72601724Y-59660419D01*
X72594497Y-59636594D01*
X72582761Y-59614637D01*
X72517729Y-59517310D01*
X72501934Y-59498065D01*
X72482690Y-59482271D01*
X72385363Y-59417239D01*
X72363406Y-59405503D01*
X72339581Y-59398276D01*
X72224776Y-59375440D01*
X72200000Y-59373000D01*
X70812509Y-59373000D01*
X70734749Y-59357533D01*
X70679430Y-59320570D01*
X70642467Y-59265251D01*
X70627000Y-59187491D01*
X70627000Y-54812509D01*
X70642467Y-54734749D01*
X70679430Y-54679430D01*
X70734749Y-54642467D01*
X70812509Y-54627000D01*
X80687491Y-54627000D01*
X80765251Y-54642467D01*
%TO.N,GND*%
G36*
X102448000Y-76448000D02*
G01*
X64552000Y-76448000D01*
X64552000Y-68627000D01*
X73187491Y-68627000D01*
X73265251Y-68642467D01*
X73320570Y-68679430D01*
X73357533Y-68734749D01*
X73373000Y-68812509D01*
X73373000Y-71200000D01*
X73375440Y-71224776D01*
X73398276Y-71339581D01*
X73405503Y-71363406D01*
X73417239Y-71385363D01*
X73482271Y-71482690D01*
X73498066Y-71501935D01*
X73517310Y-71517729D01*
X73614637Y-71582761D01*
X73636594Y-71594497D01*
X73660419Y-71601724D01*
X73775224Y-71624560D01*
X73800000Y-71627000D01*
X79700000Y-71627000D01*
X79724776Y-71624560D01*
X79839581Y-71601724D01*
X79863406Y-71594497D01*
X79885363Y-71582761D01*
X79982690Y-71517729D01*
X80001935Y-71501934D01*
X80017729Y-71482690D01*
X80082761Y-71385363D01*
X80094497Y-71363406D01*
X80101724Y-71339581D01*
X80124560Y-71224776D01*
X80127000Y-71200000D01*
X80127000Y-67812509D01*
X80142467Y-67734749D01*
X80179430Y-67679430D01*
X80234749Y-67642467D01*
X80312509Y-67627000D01*
X81687491Y-67627000D01*
X81765251Y-67642467D01*
X81820570Y-67679430D01*
X81857533Y-67734749D01*
X81873000Y-67812509D01*
X81873000Y-68700000D01*
X81875440Y-68724776D01*
X81898276Y-68839581D01*
X81905503Y-68863406D01*
X81917239Y-68885363D01*
X81982271Y-68982690D01*
X81998066Y-69001935D01*
X82017310Y-69017729D01*
X82114637Y-69082761D01*
X82136594Y-69094497D01*
X82160419Y-69101724D01*
X82275224Y-69124560D01*
X82300000Y-69127000D01*
X84687491Y-69127000D01*
X84765251Y-69142467D01*
X84820570Y-69179430D01*
X84857533Y-69234749D01*
X84873000Y-69312509D01*
X84873000Y-70687491D01*
X84857533Y-70765251D01*
X84820570Y-70820570D01*
X84765251Y-70857533D01*
X84687491Y-70873000D01*
X82300000Y-70873000D01*
X82275224Y-70875440D01*
X82160419Y-70898276D01*
X82136594Y-70905503D01*
X82114637Y-70917239D01*
X82017310Y-70982271D01*
X81998065Y-70998066D01*
X81982271Y-71017310D01*
X81917239Y-71114637D01*
X81905503Y-71136594D01*
X81898276Y-71160419D01*
X81875440Y-71275224D01*
X81873000Y-71300000D01*
X81873000Y-72187491D01*
X81857533Y-72265251D01*
X81820570Y-72320570D01*
X81765251Y-72357533D01*
X81687491Y-72373000D01*
X80800000Y-72373000D01*
X80775224Y-72375440D01*
X80660419Y-72398276D01*
X80636594Y-72405503D01*
X80614637Y-72417239D01*
X80517310Y-72482271D01*
X80498065Y-72498066D01*
X80482271Y-72517310D01*
X80417239Y-72614637D01*
X80405503Y-72636594D01*
X80398276Y-72660419D01*
X80375440Y-72775224D01*
X80373000Y-72800000D01*
X80373000Y-75200000D01*
X80375440Y-75224776D01*
X80398276Y-75339581D01*
X80405503Y-75363406D01*
X80417239Y-75385363D01*
X80482271Y-75482690D01*
X80498066Y-75501935D01*
X80517310Y-75517729D01*
X80614637Y-75582761D01*
X80636594Y-75594497D01*
X80660419Y-75601724D01*
X80775224Y-75624560D01*
X80800000Y-75627000D01*
X88200000Y-75627000D01*
X88224776Y-75624560D01*
X88339581Y-75601724D01*
X88363406Y-75594497D01*
X88385363Y-75582761D01*
X88482690Y-75517729D01*
X88501935Y-75501934D01*
X88517729Y-75482690D01*
X88582761Y-75385363D01*
X88594497Y-75363406D01*
X88601724Y-75339581D01*
X88624560Y-75224776D01*
X88627000Y-75200000D01*
X88627000Y-74312509D01*
X88642467Y-74234749D01*
X88679430Y-74179430D01*
X88734749Y-74142467D01*
X88812509Y-74127000D01*
X89392261Y-74127000D01*
X89392887Y-74127190D01*
X89543750Y-74142049D01*
X90456250Y-74142049D01*
X90607113Y-74127190D01*
X90607739Y-74127000D01*
X91700000Y-74127000D01*
X91724776Y-74124560D01*
X91839581Y-74101724D01*
X91863406Y-74094497D01*
X91885363Y-74082761D01*
X91982690Y-74017729D01*
X92001935Y-74001934D01*
X92017729Y-73982690D01*
X92082761Y-73885363D01*
X92094497Y-73863406D01*
X92101724Y-73839581D01*
X92124560Y-73724776D01*
X92127000Y-73700000D01*
X92127000Y-69312509D01*
X92142467Y-69234749D01*
X92179430Y-69179430D01*
X92234749Y-69142467D01*
X92312509Y-69127000D01*
X98700000Y-69127000D01*
X98724776Y-69124560D01*
X98839581Y-69101724D01*
X98863406Y-69094497D01*
X98885363Y-69082761D01*
X98982690Y-69017729D01*
X99001935Y-69001934D01*
X99017729Y-68982690D01*
X99082761Y-68885363D01*
X99094497Y-68863406D01*
X99101724Y-68839581D01*
X99124560Y-68724776D01*
X99127000Y-68700000D01*
X99127000Y-61312509D01*
X99142467Y-61234749D01*
X99179430Y-61179430D01*
X99234749Y-61142467D01*
X99312509Y-61127000D01*
X102448000Y-61127000D01*
X102448000Y-76448000D01*
G37*
X102448000Y-76448000D02*
X64552000Y-76448000D01*
X64552000Y-68627000D01*
X73187491Y-68627000D01*
X73265251Y-68642467D01*
X73320570Y-68679430D01*
X73357533Y-68734749D01*
X73373000Y-68812509D01*
X73373000Y-71200000D01*
X73375440Y-71224776D01*
X73398276Y-71339581D01*
X73405503Y-71363406D01*
X73417239Y-71385363D01*
X73482271Y-71482690D01*
X73498066Y-71501935D01*
X73517310Y-71517729D01*
X73614637Y-71582761D01*
X73636594Y-71594497D01*
X73660419Y-71601724D01*
X73775224Y-71624560D01*
X73800000Y-71627000D01*
X79700000Y-71627000D01*
X79724776Y-71624560D01*
X79839581Y-71601724D01*
X79863406Y-71594497D01*
X79885363Y-71582761D01*
X79982690Y-71517729D01*
X80001935Y-71501934D01*
X80017729Y-71482690D01*
X80082761Y-71385363D01*
X80094497Y-71363406D01*
X80101724Y-71339581D01*
X80124560Y-71224776D01*
X80127000Y-71200000D01*
X80127000Y-67812509D01*
X80142467Y-67734749D01*
X80179430Y-67679430D01*
X80234749Y-67642467D01*
X80312509Y-67627000D01*
X81687491Y-67627000D01*
X81765251Y-67642467D01*
X81820570Y-67679430D01*
X81857533Y-67734749D01*
X81873000Y-67812509D01*
X81873000Y-68700000D01*
X81875440Y-68724776D01*
X81898276Y-68839581D01*
X81905503Y-68863406D01*
X81917239Y-68885363D01*
X81982271Y-68982690D01*
X81998066Y-69001935D01*
X82017310Y-69017729D01*
X82114637Y-69082761D01*
X82136594Y-69094497D01*
X82160419Y-69101724D01*
X82275224Y-69124560D01*
X82300000Y-69127000D01*
X84687491Y-69127000D01*
X84765251Y-69142467D01*
X84820570Y-69179430D01*
X84857533Y-69234749D01*
X84873000Y-69312509D01*
X84873000Y-70687491D01*
X84857533Y-70765251D01*
X84820570Y-70820570D01*
X84765251Y-70857533D01*
X84687491Y-70873000D01*
X82300000Y-70873000D01*
X82275224Y-70875440D01*
X82160419Y-70898276D01*
X82136594Y-70905503D01*
X82114637Y-70917239D01*
X82017310Y-70982271D01*
X81998065Y-70998066D01*
X81982271Y-71017310D01*
X81917239Y-71114637D01*
X81905503Y-71136594D01*
X81898276Y-71160419D01*
X81875440Y-71275224D01*
X81873000Y-71300000D01*
X81873000Y-72187491D01*
X81857533Y-72265251D01*
X81820570Y-72320570D01*
X81765251Y-72357533D01*
X81687491Y-72373000D01*
X80800000Y-72373000D01*
X80775224Y-72375440D01*
X80660419Y-72398276D01*
X80636594Y-72405503D01*
X80614637Y-72417239D01*
X80517310Y-72482271D01*
X80498065Y-72498066D01*
X80482271Y-72517310D01*
X80417239Y-72614637D01*
X80405503Y-72636594D01*
X80398276Y-72660419D01*
X80375440Y-72775224D01*
X80373000Y-72800000D01*
X80373000Y-75200000D01*
X80375440Y-75224776D01*
X80398276Y-75339581D01*
X80405503Y-75363406D01*
X80417239Y-75385363D01*
X80482271Y-75482690D01*
X80498066Y-75501935D01*
X80517310Y-75517729D01*
X80614637Y-75582761D01*
X80636594Y-75594497D01*
X80660419Y-75601724D01*
X80775224Y-75624560D01*
X80800000Y-75627000D01*
X88200000Y-75627000D01*
X88224776Y-75624560D01*
X88339581Y-75601724D01*
X88363406Y-75594497D01*
X88385363Y-75582761D01*
X88482690Y-75517729D01*
X88501935Y-75501934D01*
X88517729Y-75482690D01*
X88582761Y-75385363D01*
X88594497Y-75363406D01*
X88601724Y-75339581D01*
X88624560Y-75224776D01*
X88627000Y-75200000D01*
X88627000Y-74312509D01*
X88642467Y-74234749D01*
X88679430Y-74179430D01*
X88734749Y-74142467D01*
X88812509Y-74127000D01*
X89392261Y-74127000D01*
X89392887Y-74127190D01*
X89543750Y-74142049D01*
X90456250Y-74142049D01*
X90607113Y-74127190D01*
X90607739Y-74127000D01*
X91700000Y-74127000D01*
X91724776Y-74124560D01*
X91839581Y-74101724D01*
X91863406Y-74094497D01*
X91885363Y-74082761D01*
X91982690Y-74017729D01*
X92001935Y-74001934D01*
X92017729Y-73982690D01*
X92082761Y-73885363D01*
X92094497Y-73863406D01*
X92101724Y-73839581D01*
X92124560Y-73724776D01*
X92127000Y-73700000D01*
X92127000Y-69312509D01*
X92142467Y-69234749D01*
X92179430Y-69179430D01*
X92234749Y-69142467D01*
X92312509Y-69127000D01*
X98700000Y-69127000D01*
X98724776Y-69124560D01*
X98839581Y-69101724D01*
X98863406Y-69094497D01*
X98885363Y-69082761D01*
X98982690Y-69017729D01*
X99001935Y-69001934D01*
X99017729Y-68982690D01*
X99082761Y-68885363D01*
X99094497Y-68863406D01*
X99101724Y-68839581D01*
X99124560Y-68724776D01*
X99127000Y-68700000D01*
X99127000Y-61312509D01*
X99142467Y-61234749D01*
X99179430Y-61179430D01*
X99234749Y-61142467D01*
X99312509Y-61127000D01*
X102448000Y-61127000D01*
X102448000Y-76448000D01*
G36*
X91373000Y-44687491D02*
G01*
X91357533Y-44765251D01*
X91320570Y-44820570D01*
X91265251Y-44857533D01*
X91187491Y-44873000D01*
X84624264Y-44873000D01*
X84599488Y-44875440D01*
X84484683Y-44898276D01*
X84460858Y-44905503D01*
X84438901Y-44917239D01*
X84341574Y-44982271D01*
X84322329Y-44998065D01*
X80998065Y-48322329D01*
X80982271Y-48341574D01*
X80917239Y-48438901D01*
X80905503Y-48460858D01*
X80898276Y-48484683D01*
X80875440Y-48599488D01*
X80873000Y-48624264D01*
X80873000Y-53187491D01*
X80857533Y-53265251D01*
X80820570Y-53320570D01*
X80765251Y-53357533D01*
X80687491Y-53373000D01*
X69800000Y-53373000D01*
X69775224Y-53375440D01*
X69660419Y-53398276D01*
X69636594Y-53405503D01*
X69614637Y-53417239D01*
X69517310Y-53482271D01*
X69498065Y-53498066D01*
X69482271Y-53517310D01*
X69417239Y-53614637D01*
X69405503Y-53636594D01*
X69398276Y-53660419D01*
X69375440Y-53775224D01*
X69373000Y-53800000D01*
X69373000Y-59187491D01*
X69357533Y-59265251D01*
X69320570Y-59320570D01*
X69265251Y-59357533D01*
X69187491Y-59373000D01*
X64552000Y-59373000D01*
X64552000Y-42552000D01*
X91373000Y-42552000D01*
X91373000Y-44687491D01*
G37*
X91373000Y-44687491D02*
X91357533Y-44765251D01*
X91320570Y-44820570D01*
X91265251Y-44857533D01*
X91187491Y-44873000D01*
X84624264Y-44873000D01*
X84599488Y-44875440D01*
X84484683Y-44898276D01*
X84460858Y-44905503D01*
X84438901Y-44917239D01*
X84341574Y-44982271D01*
X84322329Y-44998065D01*
X80998065Y-48322329D01*
X80982271Y-48341574D01*
X80917239Y-48438901D01*
X80905503Y-48460858D01*
X80898276Y-48484683D01*
X80875440Y-48599488D01*
X80873000Y-48624264D01*
X80873000Y-53187491D01*
X80857533Y-53265251D01*
X80820570Y-53320570D01*
X80765251Y-53357533D01*
X80687491Y-53373000D01*
X69800000Y-53373000D01*
X69775224Y-53375440D01*
X69660419Y-53398276D01*
X69636594Y-53405503D01*
X69614637Y-53417239D01*
X69517310Y-53482271D01*
X69498065Y-53498066D01*
X69482271Y-53517310D01*
X69417239Y-53614637D01*
X69405503Y-53636594D01*
X69398276Y-53660419D01*
X69375440Y-53775224D01*
X69373000Y-53800000D01*
X69373000Y-59187491D01*
X69357533Y-59265251D01*
X69320570Y-59320570D01*
X69265251Y-59357533D01*
X69187491Y-59373000D01*
X64552000Y-59373000D01*
X64552000Y-42552000D01*
X91373000Y-42552000D01*
X91373000Y-44687491D01*
%TD*%
M02*
