M48
; DRILL file {KiCad (5.1.5-131-g305ed0b65)-1} date 09/08/20 16:14:22
; FORMAT={-:-/ absolute / inch / decimal}
; #@! TF.CreationDate,2020-09-08T16:14:22+08:00
; #@! TF.GenerationSoftware,Kicad,Pcbnew,(5.1.5-131-g305ed0b65)-1
FMAT,2
INCH
T1C0.0118
T2C0.0300
T3C0.0394
%
G90
G05
T1
X4.0502Y-2.8346
T2
X7.7264Y-3.0709
X7.7514Y-2.9774
X7.7514Y-3.1644
X7.8199Y-2.9089
X7.8199Y-3.2328
X7.9134Y-3.2579
X8.0069Y-2.9089
X8.0069Y-3.2328
X8.0753Y-2.9774
X8.0753Y-3.1644
X8.1004Y-3.0709
X5.6004Y-3.0709
X5.6254Y-2.9774
X5.6254Y-3.1644
X5.6939Y-2.9089
X5.6939Y-3.2328
X5.7874Y-3.2579
X5.8809Y-2.9089
X5.8809Y-3.2328
X5.9494Y-2.9774
X5.9494Y-3.1644
X5.9744Y-3.0709
X3.4744Y-3.0709
X3.4995Y-2.9774
X3.4995Y-3.1644
X3.5679Y-2.9089
X3.5679Y-3.2328
X3.6614Y-3.2579
X3.7549Y-2.9089
X3.7549Y-3.2328
X3.8234Y-2.9774
X3.8234Y-3.1644
X3.8484Y-3.0709
X6.4272Y-3.0709
X6.4522Y-2.9774
X6.4522Y-3.1644
X6.5207Y-2.9089
X6.5207Y-3.2328
X6.6142Y-3.2579
X6.7077Y-2.9089
X6.7077Y-3.2328
X6.7761Y-2.9774
X6.7761Y-3.1644
X6.8012Y-3.0709
X8.5531Y-3.0709
X8.5782Y-2.9774
X8.5782Y-3.1644
X8.6467Y-2.9089
X8.6467Y-3.2328
X8.7402Y-3.2579
X8.8337Y-2.9089
X8.8337Y-3.2328
X8.9021Y-2.9774
X8.9021Y-3.1644
X8.9272Y-3.0709
X4.3012Y-3.0709
X4.3262Y-2.9774
X4.3262Y-3.1644
X4.3947Y-2.9089
X4.3947Y-3.2328
X4.4882Y-3.2579
X4.5817Y-2.9089
X4.5817Y-3.2328
X4.6501Y-2.9774
X4.6501Y-3.1644
X4.6752Y-3.0709
T3
X4.2913Y-3.7795
X4.3913Y-3.7795
X4.4913Y-3.7795
X4.5913Y-3.7795
X4.6913Y-3.7795
X4.7913Y-3.7795
X4.8913Y-3.7795
X4.9913Y-3.7795
X5.0913Y-3.7795
X5.1913Y-3.7795
X5.2913Y-3.7795
X5.3913Y-3.7795
X4.2913Y-3.8976
X4.3913Y-3.8976
X4.4913Y-3.8976
X4.5913Y-3.8976
X4.6913Y-3.8976
X4.7913Y-3.8976
X4.8913Y-3.8976
X4.9913Y-3.8976
X5.0913Y-3.8976
X5.1913Y-3.8976
X5.2913Y-3.8976
X5.3913Y-3.8976
X5.5906Y-3.8976
X5.6906Y-3.8976
X5.7906Y-3.8976
X5.8906Y-3.8976
X5.9906Y-3.8976
X6.0906Y-3.8976
X6.1906Y-3.8976
X6.2906Y-3.8976
X6.3906Y-3.8976
X6.4906Y-3.8976
X6.5906Y-3.8976
X6.6906Y-3.8976
X2.9921Y-3.8976
X3.0921Y-3.8976
X3.1921Y-3.8976
X3.2921Y-3.8976
X3.3921Y-3.8976
X3.4921Y-3.8976
X3.5921Y-3.8976
X3.6921Y-3.8976
X3.7921Y-3.8976
X3.8921Y-3.8976
X3.9921Y-3.8976
X4.0921Y-3.8976
X2.9921Y-3.7795
X3.0921Y-3.7795
X3.1921Y-3.7795
X3.2921Y-3.7795
X3.3921Y-3.7795
X3.4921Y-3.7795
X3.5921Y-3.7795
X3.6921Y-3.7795
X3.7921Y-3.7795
X3.8921Y-3.7795
X3.9921Y-3.7795
X4.0921Y-3.7795
X5.5906Y-3.7795
X5.6906Y-3.7795
X5.7906Y-3.7795
X5.8906Y-3.7795
X5.9906Y-3.7795
X6.0906Y-3.7795
X6.1906Y-3.7795
X6.2906Y-3.7795
X6.3906Y-3.7795
X6.4906Y-3.7795
X6.5906Y-3.7795
X6.6906Y-3.7795
T0
M30
