%TF.GenerationSoftware,KiCad,Pcbnew,(5.1.5-131-g305ed0b65)-1*%
%TF.CreationDate,2020-07-29T16:59:42+08:00*%
%TF.ProjectId,IN-8,494e2d38-2e6b-4696-9361-645f70636258,rev?*%
%TF.SameCoordinates,Original*%
%TF.FileFunction,Paste,Bot*%
%TF.FilePolarity,Positive*%
%FSLAX46Y46*%
G04 Gerber Fmt 4.6, Leading zero omitted, Abs format (unit mm)*
G04 Created by KiCad (PCBNEW (5.1.5-131-g305ed0b65)-1) date 2020-07-29 16:59:42*
%MOMM*%
%LPD*%
G01*
G04 APERTURE LIST*
G04 APERTURE END LIST*
%TO.C,R1*%
G36*
G01*
X99487500Y-73543750D02*
X99487500Y-74456250D01*
G75*
G02*
X99243750Y-74700000I-243750J0D01*
G01*
X98756250Y-74700000D01*
G75*
G02*
X98512500Y-74456250I0J243750D01*
G01*
X98512500Y-73543750D01*
G75*
G02*
X98756250Y-73300000I243750J0D01*
G01*
X99243750Y-73300000D01*
G75*
G02*
X99487500Y-73543750I0J-243750D01*
G01*
G37*
G36*
G01*
X101362500Y-73543750D02*
X101362500Y-74456250D01*
G75*
G02*
X101118750Y-74700000I-243750J0D01*
G01*
X100631250Y-74700000D01*
G75*
G02*
X100387500Y-74456250I0J243750D01*
G01*
X100387500Y-73543750D01*
G75*
G02*
X100631250Y-73300000I243750J0D01*
G01*
X101118750Y-73300000D01*
G75*
G02*
X101362500Y-73543750I0J-243750D01*
G01*
G37*
%TD*%
%TO.C,R2*%
G36*
G01*
X120550000Y-73543750D02*
X120550000Y-74456250D01*
G75*
G02*
X120306250Y-74700000I-243750J0D01*
G01*
X119818750Y-74700000D01*
G75*
G02*
X119575000Y-74456250I0J243750D01*
G01*
X119575000Y-73543750D01*
G75*
G02*
X119818750Y-73300000I243750J0D01*
G01*
X120306250Y-73300000D01*
G75*
G02*
X120550000Y-73543750I0J-243750D01*
G01*
G37*
G36*
G01*
X122425000Y-73543750D02*
X122425000Y-74456250D01*
G75*
G02*
X122181250Y-74700000I-243750J0D01*
G01*
X121693750Y-74700000D01*
G75*
G02*
X121450000Y-74456250I0J243750D01*
G01*
X121450000Y-73543750D01*
G75*
G02*
X121693750Y-73300000I243750J0D01*
G01*
X122181250Y-73300000D01*
G75*
G02*
X122425000Y-73543750I0J-243750D01*
G01*
G37*
%TD*%
%TO.C,R3*%
G36*
G01*
X153550000Y-73543750D02*
X153550000Y-74456250D01*
G75*
G02*
X153306250Y-74700000I-243750J0D01*
G01*
X152818750Y-74700000D01*
G75*
G02*
X152575000Y-74456250I0J243750D01*
G01*
X152575000Y-73543750D01*
G75*
G02*
X152818750Y-73300000I243750J0D01*
G01*
X153306250Y-73300000D01*
G75*
G02*
X153550000Y-73543750I0J-243750D01*
G01*
G37*
G36*
G01*
X155425000Y-73543750D02*
X155425000Y-74456250D01*
G75*
G02*
X155181250Y-74700000I-243750J0D01*
G01*
X154693750Y-74700000D01*
G75*
G02*
X154450000Y-74456250I0J243750D01*
G01*
X154450000Y-73543750D01*
G75*
G02*
X154693750Y-73300000I243750J0D01*
G01*
X155181250Y-73300000D01*
G75*
G02*
X155425000Y-73543750I0J-243750D01*
G01*
G37*
%TD*%
%TO.C,R4*%
G36*
G01*
X176425000Y-73543750D02*
X176425000Y-74456250D01*
G75*
G02*
X176181250Y-74700000I-243750J0D01*
G01*
X175693750Y-74700000D01*
G75*
G02*
X175450000Y-74456250I0J243750D01*
G01*
X175450000Y-73543750D01*
G75*
G02*
X175693750Y-73300000I243750J0D01*
G01*
X176181250Y-73300000D01*
G75*
G02*
X176425000Y-73543750I0J-243750D01*
G01*
G37*
G36*
G01*
X174550000Y-73543750D02*
X174550000Y-74456250D01*
G75*
G02*
X174306250Y-74700000I-243750J0D01*
G01*
X173818750Y-74700000D01*
G75*
G02*
X173575000Y-74456250I0J243750D01*
G01*
X173575000Y-73543750D01*
G75*
G02*
X173818750Y-73300000I243750J0D01*
G01*
X174306250Y-73300000D01*
G75*
G02*
X174550000Y-73543750I0J-243750D01*
G01*
G37*
%TD*%
%TO.C,R5*%
G36*
G01*
X209425000Y-73543750D02*
X209425000Y-74456250D01*
G75*
G02*
X209181250Y-74700000I-243750J0D01*
G01*
X208693750Y-74700000D01*
G75*
G02*
X208450000Y-74456250I0J243750D01*
G01*
X208450000Y-73543750D01*
G75*
G02*
X208693750Y-73300000I243750J0D01*
G01*
X209181250Y-73300000D01*
G75*
G02*
X209425000Y-73543750I0J-243750D01*
G01*
G37*
G36*
G01*
X207550000Y-73543750D02*
X207550000Y-74456250D01*
G75*
G02*
X207306250Y-74700000I-243750J0D01*
G01*
X206818750Y-74700000D01*
G75*
G02*
X206575000Y-74456250I0J243750D01*
G01*
X206575000Y-73543750D01*
G75*
G02*
X206818750Y-73300000I243750J0D01*
G01*
X207306250Y-73300000D01*
G75*
G02*
X207550000Y-73543750I0J-243750D01*
G01*
G37*
%TD*%
%TO.C,R6*%
G36*
G01*
X230425000Y-73543750D02*
X230425000Y-74456250D01*
G75*
G02*
X230181250Y-74700000I-243750J0D01*
G01*
X229693750Y-74700000D01*
G75*
G02*
X229450000Y-74456250I0J243750D01*
G01*
X229450000Y-73543750D01*
G75*
G02*
X229693750Y-73300000I243750J0D01*
G01*
X230181250Y-73300000D01*
G75*
G02*
X230425000Y-73543750I0J-243750D01*
G01*
G37*
G36*
G01*
X228550000Y-73543750D02*
X228550000Y-74456250D01*
G75*
G02*
X228306250Y-74700000I-243750J0D01*
G01*
X227818750Y-74700000D01*
G75*
G02*
X227575000Y-74456250I0J243750D01*
G01*
X227575000Y-73543750D01*
G75*
G02*
X227818750Y-73300000I243750J0D01*
G01*
X228306250Y-73300000D01*
G75*
G02*
X228550000Y-73543750I0J-243750D01*
G01*
G37*
%TD*%
M02*
