%TF.GenerationSoftware,KiCad,Pcbnew,(5.1.5-131-g305ed0b65)-1*%
%TF.CreationDate,2020-07-18T18:38:28+08:00*%
%TF.ProjectId,IN-8,494e2d38-2e6b-4696-9361-645f70636258,rev?*%
%TF.SameCoordinates,Original*%
%TF.FileFunction,Paste,Bot*%
%TF.FilePolarity,Positive*%
%FSLAX46Y46*%
G04 Gerber Fmt 4.6, Leading zero omitted, Abs format (unit mm)*
G04 Created by KiCad (PCBNEW (5.1.5-131-g305ed0b65)-1) date 2020-07-18 18:38:28*
%MOMM*%
%LPD*%
G01*
G04 APERTURE LIST*
G04 APERTURE END LIST*
%TO.C,R1*%
G36*
G01*
X86450000Y-74456250D02*
X86450000Y-73543750D01*
G75*
G02*
X86693750Y-73300000I243750J0D01*
G01*
X87181250Y-73300000D01*
G75*
G02*
X87425000Y-73543750I0J-243750D01*
G01*
X87425000Y-74456250D01*
G75*
G02*
X87181250Y-74700000I-243750J0D01*
G01*
X86693750Y-74700000D01*
G75*
G02*
X86450000Y-74456250I0J243750D01*
G01*
G37*
G36*
G01*
X84575000Y-74456250D02*
X84575000Y-73543750D01*
G75*
G02*
X84818750Y-73300000I243750J0D01*
G01*
X85306250Y-73300000D01*
G75*
G02*
X85550000Y-73543750I0J-243750D01*
G01*
X85550000Y-74456250D01*
G75*
G02*
X85306250Y-74700000I-243750J0D01*
G01*
X84818750Y-74700000D01*
G75*
G02*
X84575000Y-74456250I0J243750D01*
G01*
G37*
%TD*%
%TO.C,R2*%
G36*
G01*
X107450000Y-74456250D02*
X107450000Y-73543750D01*
G75*
G02*
X107693750Y-73300000I243750J0D01*
G01*
X108181250Y-73300000D01*
G75*
G02*
X108425000Y-73543750I0J-243750D01*
G01*
X108425000Y-74456250D01*
G75*
G02*
X108181250Y-74700000I-243750J0D01*
G01*
X107693750Y-74700000D01*
G75*
G02*
X107450000Y-74456250I0J243750D01*
G01*
G37*
G36*
G01*
X105575000Y-74456250D02*
X105575000Y-73543750D01*
G75*
G02*
X105818750Y-73300000I243750J0D01*
G01*
X106306250Y-73300000D01*
G75*
G02*
X106550000Y-73543750I0J-243750D01*
G01*
X106550000Y-74456250D01*
G75*
G02*
X106306250Y-74700000I-243750J0D01*
G01*
X105818750Y-74700000D01*
G75*
G02*
X105575000Y-74456250I0J243750D01*
G01*
G37*
%TD*%
%TO.C,R3*%
G36*
G01*
X140450000Y-74456250D02*
X140450000Y-73543750D01*
G75*
G02*
X140693750Y-73300000I243750J0D01*
G01*
X141181250Y-73300000D01*
G75*
G02*
X141425000Y-73543750I0J-243750D01*
G01*
X141425000Y-74456250D01*
G75*
G02*
X141181250Y-74700000I-243750J0D01*
G01*
X140693750Y-74700000D01*
G75*
G02*
X140450000Y-74456250I0J243750D01*
G01*
G37*
G36*
G01*
X138575000Y-74456250D02*
X138575000Y-73543750D01*
G75*
G02*
X138818750Y-73300000I243750J0D01*
G01*
X139306250Y-73300000D01*
G75*
G02*
X139550000Y-73543750I0J-243750D01*
G01*
X139550000Y-74456250D01*
G75*
G02*
X139306250Y-74700000I-243750J0D01*
G01*
X138818750Y-74700000D01*
G75*
G02*
X138575000Y-74456250I0J243750D01*
G01*
G37*
%TD*%
%TO.C,R4*%
G36*
G01*
X159575000Y-74456250D02*
X159575000Y-73543750D01*
G75*
G02*
X159818750Y-73300000I243750J0D01*
G01*
X160306250Y-73300000D01*
G75*
G02*
X160550000Y-73543750I0J-243750D01*
G01*
X160550000Y-74456250D01*
G75*
G02*
X160306250Y-74700000I-243750J0D01*
G01*
X159818750Y-74700000D01*
G75*
G02*
X159575000Y-74456250I0J243750D01*
G01*
G37*
G36*
G01*
X161450000Y-74456250D02*
X161450000Y-73543750D01*
G75*
G02*
X161693750Y-73300000I243750J0D01*
G01*
X162181250Y-73300000D01*
G75*
G02*
X162425000Y-73543750I0J-243750D01*
G01*
X162425000Y-74456250D01*
G75*
G02*
X162181250Y-74700000I-243750J0D01*
G01*
X161693750Y-74700000D01*
G75*
G02*
X161450000Y-74456250I0J243750D01*
G01*
G37*
%TD*%
%TO.C,R5*%
G36*
G01*
X192575000Y-74456250D02*
X192575000Y-73543750D01*
G75*
G02*
X192818750Y-73300000I243750J0D01*
G01*
X193306250Y-73300000D01*
G75*
G02*
X193550000Y-73543750I0J-243750D01*
G01*
X193550000Y-74456250D01*
G75*
G02*
X193306250Y-74700000I-243750J0D01*
G01*
X192818750Y-74700000D01*
G75*
G02*
X192575000Y-74456250I0J243750D01*
G01*
G37*
G36*
G01*
X194450000Y-74456250D02*
X194450000Y-73543750D01*
G75*
G02*
X194693750Y-73300000I243750J0D01*
G01*
X195181250Y-73300000D01*
G75*
G02*
X195425000Y-73543750I0J-243750D01*
G01*
X195425000Y-74456250D01*
G75*
G02*
X195181250Y-74700000I-243750J0D01*
G01*
X194693750Y-74700000D01*
G75*
G02*
X194450000Y-74456250I0J243750D01*
G01*
G37*
%TD*%
%TO.C,R6*%
G36*
G01*
X213575000Y-74456250D02*
X213575000Y-73543750D01*
G75*
G02*
X213818750Y-73300000I243750J0D01*
G01*
X214306250Y-73300000D01*
G75*
G02*
X214550000Y-73543750I0J-243750D01*
G01*
X214550000Y-74456250D01*
G75*
G02*
X214306250Y-74700000I-243750J0D01*
G01*
X213818750Y-74700000D01*
G75*
G02*
X213575000Y-74456250I0J243750D01*
G01*
G37*
G36*
G01*
X215450000Y-74456250D02*
X215450000Y-73543750D01*
G75*
G02*
X215693750Y-73300000I243750J0D01*
G01*
X216181250Y-73300000D01*
G75*
G02*
X216425000Y-73543750I0J-243750D01*
G01*
X216425000Y-74456250D01*
G75*
G02*
X216181250Y-74700000I-243750J0D01*
G01*
X215693750Y-74700000D01*
G75*
G02*
X215450000Y-74456250I0J243750D01*
G01*
G37*
%TD*%
M02*
