%TF.GenerationSoftware,KiCad,Pcbnew,(5.1.5-131-g305ed0b65)-1*%
%TF.CreationDate,2020-07-29T16:59:42+08:00*%
%TF.ProjectId,IN-8,494e2d38-2e6b-4696-9361-645f70636258,rev?*%
%TF.SameCoordinates,Original*%
%TF.FileFunction,Soldermask,Top*%
%TF.FilePolarity,Negative*%
%FSLAX46Y46*%
G04 Gerber Fmt 4.6, Leading zero omitted, Abs format (unit mm)*
G04 Created by KiCad (PCBNEW (5.1.5-131-g305ed0b65)-1) date 2020-07-29 16:59:42*
%MOMM*%
%LPD*%
G01*
G04 APERTURE LIST*
%ADD10C,1.624000*%
%ADD11O,1.800000X1.800000*%
%ADD12R,1.800000X1.800000*%
G04 APERTURE END LIST*
D10*
%TO.C,U6*%
X219625000Y-73886380D03*
X217886380Y-75625000D03*
X217250000Y-78000000D03*
X217886380Y-80374999D03*
X219625001Y-82113620D03*
X222000000Y-82750000D03*
X224375000Y-82113620D03*
X226113620Y-80374999D03*
X226750000Y-78000000D03*
X226113620Y-75625001D03*
X224375000Y-73886380D03*
%TD*%
%TO.C,U5*%
X198625000Y-73886380D03*
X196886380Y-75625000D03*
X196250000Y-78000000D03*
X196886380Y-80374999D03*
X198625001Y-82113620D03*
X201000000Y-82750000D03*
X203375000Y-82113620D03*
X205113620Y-80374999D03*
X205750000Y-78000000D03*
X205113620Y-75625001D03*
X203375000Y-73886380D03*
%TD*%
%TO.C,U4*%
X165625000Y-73886380D03*
X163886380Y-75625000D03*
X163250000Y-78000000D03*
X163886380Y-80374999D03*
X165625001Y-82113620D03*
X168000000Y-82750000D03*
X170375000Y-82113620D03*
X172113620Y-80374999D03*
X172750000Y-78000000D03*
X172113620Y-75625001D03*
X170375000Y-73886380D03*
%TD*%
%TO.C,U3*%
X144625000Y-73886380D03*
X142886380Y-75625000D03*
X142250000Y-78000000D03*
X142886380Y-80374999D03*
X144625001Y-82113620D03*
X147000000Y-82750000D03*
X149375000Y-82113620D03*
X151113620Y-80374999D03*
X151750000Y-78000000D03*
X151113620Y-75625001D03*
X149375000Y-73886380D03*
%TD*%
%TO.C,U2*%
X111625000Y-73886380D03*
X109886380Y-75625000D03*
X109250000Y-78000000D03*
X109886380Y-80374999D03*
X111625001Y-82113620D03*
X114000000Y-82750000D03*
X116375000Y-82113620D03*
X118113620Y-80374999D03*
X118750000Y-78000000D03*
X118113620Y-75625001D03*
X116375000Y-73886380D03*
%TD*%
%TO.C,U1*%
X90625000Y-73886380D03*
X88886380Y-75625000D03*
X88250000Y-78000000D03*
X88886380Y-80374999D03*
X90625001Y-82113620D03*
X93000000Y-82750000D03*
X95375000Y-82113620D03*
X97113620Y-80374999D03*
X97750000Y-78000000D03*
X97113620Y-75625001D03*
X95375000Y-73886380D03*
%TD*%
D11*
%TO.C,J1*%
X103940000Y-99000000D03*
X101400000Y-99000000D03*
X98860000Y-99000000D03*
X96320000Y-99000000D03*
X93780000Y-99000000D03*
X91240000Y-99000000D03*
X88700000Y-99000000D03*
X86160000Y-99000000D03*
X83620000Y-99000000D03*
X81080000Y-99000000D03*
X78540000Y-99000000D03*
D12*
X76000000Y-99000000D03*
%TD*%
D11*
%TO.C,J2*%
X103940000Y-96000000D03*
X101400000Y-96000000D03*
X98860000Y-96000000D03*
X96320000Y-96000000D03*
X93780000Y-96000000D03*
X91240000Y-96000000D03*
X88700000Y-96000000D03*
X86160000Y-96000000D03*
X83620000Y-96000000D03*
X81080000Y-96000000D03*
X78540000Y-96000000D03*
D12*
X76000000Y-96000000D03*
%TD*%
D11*
%TO.C,J3*%
X136940000Y-99000000D03*
X134400000Y-99000000D03*
X131860000Y-99000000D03*
X129320000Y-99000000D03*
X126780000Y-99000000D03*
X124240000Y-99000000D03*
X121700000Y-99000000D03*
X119160000Y-99000000D03*
X116620000Y-99000000D03*
X114080000Y-99000000D03*
X111540000Y-99000000D03*
D12*
X109000000Y-99000000D03*
%TD*%
%TO.C,J4*%
X109000000Y-96000000D03*
D11*
X111540000Y-96000000D03*
X114080000Y-96000000D03*
X116620000Y-96000000D03*
X119160000Y-96000000D03*
X121700000Y-96000000D03*
X124240000Y-96000000D03*
X126780000Y-96000000D03*
X129320000Y-96000000D03*
X131860000Y-96000000D03*
X134400000Y-96000000D03*
X136940000Y-96000000D03*
%TD*%
D12*
%TO.C,J5*%
X142000000Y-99000000D03*
D11*
X144540000Y-99000000D03*
X147080000Y-99000000D03*
X149620000Y-99000000D03*
X152160000Y-99000000D03*
X154700000Y-99000000D03*
X157240000Y-99000000D03*
X159780000Y-99000000D03*
X162320000Y-99000000D03*
X164860000Y-99000000D03*
X167400000Y-99000000D03*
X169940000Y-99000000D03*
%TD*%
D12*
%TO.C,J6*%
X142000000Y-96000000D03*
D11*
X144540000Y-96000000D03*
X147080000Y-96000000D03*
X149620000Y-96000000D03*
X152160000Y-96000000D03*
X154700000Y-96000000D03*
X157240000Y-96000000D03*
X159780000Y-96000000D03*
X162320000Y-96000000D03*
X164860000Y-96000000D03*
X167400000Y-96000000D03*
X169940000Y-96000000D03*
%TD*%
M02*
