%TF.GenerationSoftware,KiCad,Pcbnew,(5.1.5-131-g305ed0b65)-1*%
%TF.CreationDate,2020-07-18T18:38:28+08:00*%
%TF.ProjectId,IN-8,494e2d38-2e6b-4696-9361-645f70636258,rev?*%
%TF.SameCoordinates,Original*%
%TF.FileFunction,Copper,L1,Top*%
%TF.FilePolarity,Positive*%
%FSLAX46Y46*%
G04 Gerber Fmt 4.6, Leading zero omitted, Abs format (unit mm)*
G04 Created by KiCad (PCBNEW (5.1.5-131-g305ed0b65)-1) date 2020-07-18 18:38:28*
%MOMM*%
%LPD*%
G01*
G04 APERTURE LIST*
%TA.AperFunction,ComponentPad*%
%ADD10O,1.700000X1.700000*%
%TD*%
%TA.AperFunction,ComponentPad*%
%ADD11R,1.700000X1.700000*%
%TD*%
%TA.AperFunction,ComponentPad*%
%ADD12C,1.524000*%
%TD*%
%TA.AperFunction,ViaPad*%
%ADD13C,0.500000*%
%TD*%
%TA.AperFunction,Conductor*%
%ADD14C,0.203200*%
%TD*%
%TA.AperFunction,Conductor*%
%ADD15C,0.101600*%
%TD*%
%TA.AperFunction,Conductor*%
%ADD16C,0.254000*%
%TD*%
G04 APERTURE END LIST*
D10*
%TO.P,J1,12*%
%TO.N,GND*%
X103940000Y-99000000D03*
%TO.P,J1,11*%
%TO.N,HV*%
X101400000Y-99000000D03*
%TO.P,J1,10*%
%TO.N,Net-(J1-Pad10)*%
X98860000Y-99000000D03*
%TO.P,J1,9*%
%TO.N,Net-(J1-Pad9)*%
X96320000Y-99000000D03*
%TO.P,J1,8*%
%TO.N,Net-(J1-Pad8)*%
X93780000Y-99000000D03*
%TO.P,J1,7*%
%TO.N,Net-(J1-Pad7)*%
X91240000Y-99000000D03*
%TO.P,J1,6*%
%TO.N,Net-(J1-Pad6)*%
X88700000Y-99000000D03*
%TO.P,J1,5*%
%TO.N,Net-(J1-Pad5)*%
X86160000Y-99000000D03*
%TO.P,J1,4*%
%TO.N,Net-(J1-Pad4)*%
X83620000Y-99000000D03*
%TO.P,J1,3*%
%TO.N,Net-(J1-Pad3)*%
X81080000Y-99000000D03*
%TO.P,J1,2*%
%TO.N,Net-(J1-Pad2)*%
X78540000Y-99000000D03*
D11*
%TO.P,J1,1*%
%TO.N,Net-(J1-Pad1)*%
X76000000Y-99000000D03*
%TD*%
D10*
%TO.P,J2,12*%
%TO.N,GND*%
X103940000Y-96000000D03*
%TO.P,J2,11*%
%TO.N,HV*%
X101400000Y-96000000D03*
%TO.P,J2,10*%
%TO.N,Net-(J2-Pad10)*%
X98860000Y-96000000D03*
%TO.P,J2,9*%
%TO.N,Net-(J2-Pad9)*%
X96320000Y-96000000D03*
%TO.P,J2,8*%
%TO.N,Net-(J2-Pad8)*%
X93780000Y-96000000D03*
%TO.P,J2,7*%
%TO.N,Net-(J2-Pad7)*%
X91240000Y-96000000D03*
%TO.P,J2,6*%
%TO.N,Net-(J2-Pad6)*%
X88700000Y-96000000D03*
%TO.P,J2,5*%
%TO.N,Net-(J2-Pad5)*%
X86160000Y-96000000D03*
%TO.P,J2,4*%
%TO.N,Net-(J2-Pad4)*%
X83620000Y-96000000D03*
%TO.P,J2,3*%
%TO.N,Net-(J2-Pad3)*%
X81080000Y-96000000D03*
%TO.P,J2,2*%
%TO.N,Net-(J2-Pad2)*%
X78540000Y-96000000D03*
D11*
%TO.P,J2,1*%
%TO.N,Net-(J2-Pad1)*%
X76000000Y-96000000D03*
%TD*%
D10*
%TO.P,J3,12*%
%TO.N,GND*%
X136940000Y-99000000D03*
%TO.P,J3,11*%
%TO.N,HV*%
X134400000Y-99000000D03*
%TO.P,J3,10*%
%TO.N,Net-(J3-Pad10)*%
X131860000Y-99000000D03*
%TO.P,J3,9*%
%TO.N,Net-(J3-Pad9)*%
X129320000Y-99000000D03*
%TO.P,J3,8*%
%TO.N,Net-(J3-Pad8)*%
X126780000Y-99000000D03*
%TO.P,J3,7*%
%TO.N,Net-(J3-Pad7)*%
X124240000Y-99000000D03*
%TO.P,J3,6*%
%TO.N,Net-(J3-Pad6)*%
X121700000Y-99000000D03*
%TO.P,J3,5*%
%TO.N,Net-(J3-Pad5)*%
X119160000Y-99000000D03*
%TO.P,J3,4*%
%TO.N,Net-(J3-Pad4)*%
X116620000Y-99000000D03*
%TO.P,J3,3*%
%TO.N,Net-(J3-Pad3)*%
X114080000Y-99000000D03*
%TO.P,J3,2*%
%TO.N,Net-(J3-Pad2)*%
X111540000Y-99000000D03*
D11*
%TO.P,J3,1*%
%TO.N,Net-(J3-Pad1)*%
X109000000Y-99000000D03*
%TD*%
%TO.P,J4,1*%
%TO.N,Net-(J4-Pad1)*%
X109000000Y-96000000D03*
D10*
%TO.P,J4,2*%
%TO.N,Net-(J4-Pad2)*%
X111540000Y-96000000D03*
%TO.P,J4,3*%
%TO.N,Net-(J4-Pad3)*%
X114080000Y-96000000D03*
%TO.P,J4,4*%
%TO.N,Net-(J4-Pad4)*%
X116620000Y-96000000D03*
%TO.P,J4,5*%
%TO.N,Net-(J4-Pad5)*%
X119160000Y-96000000D03*
%TO.P,J4,6*%
%TO.N,Net-(J4-Pad6)*%
X121700000Y-96000000D03*
%TO.P,J4,7*%
%TO.N,Net-(J4-Pad7)*%
X124240000Y-96000000D03*
%TO.P,J4,8*%
%TO.N,Net-(J4-Pad8)*%
X126780000Y-96000000D03*
%TO.P,J4,9*%
%TO.N,Net-(J4-Pad9)*%
X129320000Y-96000000D03*
%TO.P,J4,10*%
%TO.N,Net-(J4-Pad10)*%
X131860000Y-96000000D03*
%TO.P,J4,11*%
%TO.N,HV*%
X134400000Y-96000000D03*
%TO.P,J4,12*%
%TO.N,GND*%
X136940000Y-96000000D03*
%TD*%
D11*
%TO.P,J5,1*%
%TO.N,Net-(J5-Pad1)*%
X142000000Y-99000000D03*
D10*
%TO.P,J5,2*%
%TO.N,Net-(J5-Pad2)*%
X144540000Y-99000000D03*
%TO.P,J5,3*%
%TO.N,Net-(J5-Pad3)*%
X147080000Y-99000000D03*
%TO.P,J5,4*%
%TO.N,Net-(J5-Pad4)*%
X149620000Y-99000000D03*
%TO.P,J5,5*%
%TO.N,Net-(J5-Pad5)*%
X152160000Y-99000000D03*
%TO.P,J5,6*%
%TO.N,Net-(J5-Pad6)*%
X154700000Y-99000000D03*
%TO.P,J5,7*%
%TO.N,Net-(J5-Pad7)*%
X157240000Y-99000000D03*
%TO.P,J5,8*%
%TO.N,Net-(J5-Pad8)*%
X159780000Y-99000000D03*
%TO.P,J5,9*%
%TO.N,Net-(J5-Pad9)*%
X162320000Y-99000000D03*
%TO.P,J5,10*%
%TO.N,Net-(J5-Pad10)*%
X164860000Y-99000000D03*
%TO.P,J5,11*%
%TO.N,HV*%
X167400000Y-99000000D03*
%TO.P,J5,12*%
%TO.N,GND*%
X169940000Y-99000000D03*
%TD*%
D11*
%TO.P,J6,1*%
%TO.N,Net-(J6-Pad1)*%
X142000000Y-96000000D03*
D10*
%TO.P,J6,2*%
%TO.N,Net-(J6-Pad2)*%
X144540000Y-96000000D03*
%TO.P,J6,3*%
%TO.N,Net-(J6-Pad3)*%
X147080000Y-96000000D03*
%TO.P,J6,4*%
%TO.N,Net-(J6-Pad4)*%
X149620000Y-96000000D03*
%TO.P,J6,5*%
%TO.N,Net-(J6-Pad5)*%
X152160000Y-96000000D03*
%TO.P,J6,6*%
%TO.N,Net-(J6-Pad6)*%
X154700000Y-96000000D03*
%TO.P,J6,7*%
%TO.N,Net-(J6-Pad7)*%
X157240000Y-96000000D03*
%TO.P,J6,8*%
%TO.N,Net-(J6-Pad8)*%
X159780000Y-96000000D03*
%TO.P,J6,9*%
%TO.N,Net-(J6-Pad9)*%
X162320000Y-96000000D03*
%TO.P,J6,10*%
%TO.N,Net-(J6-Pad10)*%
X164860000Y-96000000D03*
%TO.P,J6,11*%
%TO.N,HV*%
X167400000Y-96000000D03*
%TO.P,J6,12*%
%TO.N,GND*%
X169940000Y-96000000D03*
%TD*%
D12*
%TO.P,U1,11*%
%TO.N,Net-(R1-Pad2)*%
X90625000Y-73886380D03*
%TO.P,U1,10*%
%TO.N,Net-(J1-Pad1)*%
X88886380Y-75625000D03*
%TO.P,U1,9*%
%TO.N,Net-(J1-Pad10)*%
X88250000Y-78000000D03*
%TO.P,U1,8*%
%TO.N,Net-(J1-Pad9)*%
X88886380Y-80374999D03*
%TO.P,U1,7*%
%TO.N,Net-(J1-Pad8)*%
X90625001Y-82113620D03*
%TO.P,U1,6*%
%TO.N,Net-(J1-Pad7)*%
X93000000Y-82750000D03*
%TO.P,U1,5*%
%TO.N,Net-(J1-Pad6)*%
X95375000Y-82113620D03*
%TO.P,U1,4*%
%TO.N,Net-(J1-Pad5)*%
X97113620Y-80374999D03*
%TO.P,U1,3*%
%TO.N,Net-(J1-Pad4)*%
X97750000Y-78000000D03*
%TO.P,U1,2*%
%TO.N,Net-(J1-Pad3)*%
X97113620Y-75625001D03*
%TO.P,U1,1*%
%TO.N,Net-(J1-Pad2)*%
X95375000Y-73886380D03*
%TD*%
%TO.P,U2,11*%
%TO.N,Net-(R2-Pad2)*%
X111625000Y-73886380D03*
%TO.P,U2,10*%
%TO.N,Net-(J2-Pad1)*%
X109886380Y-75625000D03*
%TO.P,U2,9*%
%TO.N,Net-(J2-Pad10)*%
X109250000Y-78000000D03*
%TO.P,U2,8*%
%TO.N,Net-(J2-Pad9)*%
X109886380Y-80374999D03*
%TO.P,U2,7*%
%TO.N,Net-(J2-Pad8)*%
X111625001Y-82113620D03*
%TO.P,U2,6*%
%TO.N,Net-(J2-Pad7)*%
X114000000Y-82750000D03*
%TO.P,U2,5*%
%TO.N,Net-(J2-Pad6)*%
X116375000Y-82113620D03*
%TO.P,U2,4*%
%TO.N,Net-(J2-Pad5)*%
X118113620Y-80374999D03*
%TO.P,U2,3*%
%TO.N,Net-(J2-Pad4)*%
X118750000Y-78000000D03*
%TO.P,U2,2*%
%TO.N,Net-(J2-Pad3)*%
X118113620Y-75625001D03*
%TO.P,U2,1*%
%TO.N,Net-(J2-Pad2)*%
X116375000Y-73886380D03*
%TD*%
%TO.P,U3,1*%
%TO.N,Net-(J3-Pad2)*%
X149375000Y-73886380D03*
%TO.P,U3,2*%
%TO.N,Net-(J3-Pad3)*%
X151113620Y-75625001D03*
%TO.P,U3,3*%
%TO.N,Net-(J3-Pad4)*%
X151750000Y-78000000D03*
%TO.P,U3,4*%
%TO.N,Net-(J3-Pad5)*%
X151113620Y-80374999D03*
%TO.P,U3,5*%
%TO.N,Net-(J3-Pad6)*%
X149375000Y-82113620D03*
%TO.P,U3,6*%
%TO.N,Net-(J3-Pad7)*%
X147000000Y-82750000D03*
%TO.P,U3,7*%
%TO.N,Net-(J3-Pad8)*%
X144625001Y-82113620D03*
%TO.P,U3,8*%
%TO.N,Net-(J3-Pad9)*%
X142886380Y-80374999D03*
%TO.P,U3,9*%
%TO.N,Net-(J3-Pad10)*%
X142250000Y-78000000D03*
%TO.P,U3,10*%
%TO.N,Net-(J3-Pad1)*%
X142886380Y-75625000D03*
%TO.P,U3,11*%
%TO.N,Net-(R3-Pad2)*%
X144625000Y-73886380D03*
%TD*%
%TO.P,U4,1*%
%TO.N,Net-(J4-Pad2)*%
X170375000Y-73886380D03*
%TO.P,U4,2*%
%TO.N,Net-(J4-Pad3)*%
X172113620Y-75625001D03*
%TO.P,U4,3*%
%TO.N,Net-(J4-Pad4)*%
X172750000Y-78000000D03*
%TO.P,U4,4*%
%TO.N,Net-(J4-Pad5)*%
X172113620Y-80374999D03*
%TO.P,U4,5*%
%TO.N,Net-(J4-Pad6)*%
X170375000Y-82113620D03*
%TO.P,U4,6*%
%TO.N,Net-(J4-Pad7)*%
X168000000Y-82750000D03*
%TO.P,U4,7*%
%TO.N,Net-(J4-Pad8)*%
X165625001Y-82113620D03*
%TO.P,U4,8*%
%TO.N,Net-(J4-Pad9)*%
X163886380Y-80374999D03*
%TO.P,U4,9*%
%TO.N,Net-(J4-Pad10)*%
X163250000Y-78000000D03*
%TO.P,U4,10*%
%TO.N,Net-(J4-Pad1)*%
X163886380Y-75625000D03*
%TO.P,U4,11*%
%TO.N,Net-(R4-Pad2)*%
X165625000Y-73886380D03*
%TD*%
%TO.P,U5,1*%
%TO.N,Net-(J5-Pad2)*%
X203375000Y-73886380D03*
%TO.P,U5,2*%
%TO.N,Net-(J5-Pad3)*%
X205113620Y-75625001D03*
%TO.P,U5,3*%
%TO.N,Net-(J5-Pad4)*%
X205750000Y-78000000D03*
%TO.P,U5,4*%
%TO.N,Net-(J5-Pad5)*%
X205113620Y-80374999D03*
%TO.P,U5,5*%
%TO.N,Net-(J5-Pad6)*%
X203375000Y-82113620D03*
%TO.P,U5,6*%
%TO.N,Net-(J5-Pad7)*%
X201000000Y-82750000D03*
%TO.P,U5,7*%
%TO.N,Net-(J5-Pad8)*%
X198625001Y-82113620D03*
%TO.P,U5,8*%
%TO.N,Net-(J5-Pad9)*%
X196886380Y-80374999D03*
%TO.P,U5,9*%
%TO.N,Net-(J5-Pad10)*%
X196250000Y-78000000D03*
%TO.P,U5,10*%
%TO.N,Net-(J5-Pad1)*%
X196886380Y-75625000D03*
%TO.P,U5,11*%
%TO.N,Net-(R5-Pad2)*%
X198625000Y-73886380D03*
%TD*%
%TO.P,U6,11*%
%TO.N,Net-(R6-Pad2)*%
X219625000Y-73886380D03*
%TO.P,U6,10*%
%TO.N,Net-(J6-Pad1)*%
X217886380Y-75625000D03*
%TO.P,U6,9*%
%TO.N,Net-(J6-Pad10)*%
X217250000Y-78000000D03*
%TO.P,U6,8*%
%TO.N,Net-(J6-Pad9)*%
X217886380Y-80374999D03*
%TO.P,U6,7*%
%TO.N,Net-(J6-Pad8)*%
X219625001Y-82113620D03*
%TO.P,U6,6*%
%TO.N,Net-(J6-Pad7)*%
X222000000Y-82750000D03*
%TO.P,U6,5*%
%TO.N,Net-(J6-Pad6)*%
X224375000Y-82113620D03*
%TO.P,U6,4*%
%TO.N,Net-(J6-Pad5)*%
X226113620Y-80374999D03*
%TO.P,U6,3*%
%TO.N,Net-(J6-Pad4)*%
X226750000Y-78000000D03*
%TO.P,U6,2*%
%TO.N,Net-(J6-Pad3)*%
X226113620Y-75625001D03*
%TO.P,U6,1*%
%TO.N,Net-(J6-Pad2)*%
X224375000Y-73886380D03*
%TD*%
D13*
%TO.N,HV*%
X101384100Y-73997820D03*
%TD*%
D14*
%TO.N,HV*%
X101400000Y-99000000D02*
X101400000Y-96000000D01*
X101400000Y-96000000D02*
X101400000Y-74013720D01*
X101400000Y-74013720D02*
X101384100Y-73997820D01*
D15*
%TO.N,Net-(J1-Pad10)*%
X90340431Y-76987199D02*
X89327630Y-78000000D01*
X98236145Y-76987199D02*
X90340431Y-76987199D01*
X99960801Y-97899199D02*
X99960801Y-78711855D01*
X99960801Y-78711855D02*
X98236145Y-76987199D01*
X98860000Y-99000000D02*
X99960801Y-97899199D01*
X89327630Y-78000000D02*
X88250000Y-78000000D01*
%TO.N,Net-(J1-Pad9)*%
X95135325Y-80374999D02*
X88886380Y-80374999D01*
X97420801Y-82660475D02*
X95135325Y-80374999D01*
X97420801Y-97899199D02*
X97420801Y-82660475D01*
X96320000Y-99000000D02*
X97420801Y-97899199D01*
%TO.N,Net-(J1-Pad8)*%
X93499633Y-81737199D02*
X91001422Y-81737199D01*
X94880801Y-83118367D02*
X93499633Y-81737199D01*
X91001422Y-81737199D02*
X90625001Y-82113620D01*
X94880801Y-97899199D02*
X94880801Y-83118367D01*
X93780000Y-99000000D02*
X94880801Y-97899199D01*
%TO.N,Net-(J1-Pad7)*%
X92340801Y-97899199D02*
X92340801Y-83409199D01*
X92340801Y-83409199D02*
X93000000Y-82750000D01*
X91240000Y-99000000D02*
X92340801Y-97899199D01*
%TO.N,Net-(J1-Pad6)*%
X89612200Y-81627475D02*
X90138856Y-81100819D01*
X89612200Y-82599765D02*
X89612200Y-81627475D01*
X90138856Y-81100819D02*
X94362199Y-81100819D01*
X89800801Y-82788366D02*
X89612200Y-82599765D01*
X94362199Y-81100819D02*
X95375000Y-82113620D01*
X89800801Y-97899199D02*
X89800801Y-82788366D01*
X88700000Y-99000000D02*
X89800801Y-97899199D01*
%TO.N,Net-(J1-Pad5)*%
X96100819Y-79362198D02*
X97113620Y-80374999D01*
X87260801Y-80501632D02*
X88400235Y-79362198D01*
X87260801Y-97899199D02*
X87260801Y-80501632D01*
X86160000Y-99000000D02*
X87260801Y-97899199D01*
X88400235Y-79362198D02*
X96100819Y-79362198D01*
%TO.N,Net-(J1-Pad4)*%
X86959190Y-80803243D02*
X86959191Y-80376700D01*
X96988001Y-78761999D02*
X97750000Y-78000000D01*
X84720801Y-83041632D02*
X86959190Y-80803243D01*
X96689413Y-79060587D02*
X96988001Y-78761999D01*
X84720801Y-97899199D02*
X84720801Y-83041632D01*
X83620000Y-99000000D02*
X84720801Y-97899199D01*
X86959191Y-80376700D02*
X88275304Y-79060587D01*
X88275304Y-79060587D02*
X96689413Y-79060587D01*
%TO.N,Net-(J1-Pad3)*%
X91276087Y-75625001D02*
X97113620Y-75625001D01*
X82180801Y-82570253D02*
X87773814Y-76977240D01*
X87773814Y-76977240D02*
X89923848Y-76977240D01*
X81080000Y-99000000D02*
X82180801Y-97899199D01*
X82180801Y-97899199D02*
X82180801Y-82570253D01*
X89923848Y-76977240D02*
X91276087Y-75625001D01*
%TO.N,Net-(J1-Pad2)*%
X94297370Y-73886380D02*
X95375000Y-73886380D01*
X79640801Y-97899199D02*
X79640801Y-83777719D01*
X89836745Y-76637801D02*
X92588166Y-73886380D01*
X78540000Y-99000000D02*
X79640801Y-97899199D01*
X86780719Y-76637801D02*
X89836745Y-76637801D01*
X92588166Y-73886380D02*
X94297370Y-73886380D01*
X79640801Y-83777719D02*
X86780719Y-76637801D01*
%TO.N,Net-(J1-Pad1)*%
X77439199Y-87072181D02*
X79339190Y-85172190D01*
X76000000Y-99000000D02*
X77439199Y-97560801D01*
X79339191Y-83652787D02*
X87366978Y-75625000D01*
X87808750Y-75625000D02*
X88886380Y-75625000D01*
X79339190Y-85172190D02*
X79339191Y-83652787D01*
X77439199Y-97560801D02*
X77439199Y-87072181D01*
X87366978Y-75625000D02*
X87808750Y-75625000D01*
%TO.N,Net-(J3-Pad10)*%
X132960801Y-97899199D02*
X132960801Y-95847479D01*
X131860000Y-99000000D02*
X132960801Y-97899199D01*
X132960801Y-95847479D02*
X142829280Y-85979000D01*
X152236145Y-76987199D02*
X150693321Y-76987199D01*
X152762801Y-77513855D02*
X152236145Y-76987199D01*
X152762801Y-80651307D02*
X152762801Y-77513855D01*
X142829280Y-85979000D02*
X147435108Y-85979000D01*
X147435108Y-85979000D02*
X152762801Y-80651307D01*
X149680520Y-78000000D02*
X142250000Y-78000000D01*
X150693321Y-76987199D02*
X149680520Y-78000000D01*
%TO.N,Net-(J3-Pad9)*%
X149135325Y-80374999D02*
X142886380Y-80374999D01*
X150387801Y-81627475D02*
X149135325Y-80374999D01*
X149224765Y-83762801D02*
X150387801Y-82599765D01*
X150387801Y-82599765D02*
X150387801Y-81627475D01*
X142468013Y-83762801D02*
X149224765Y-83762801D01*
X130420801Y-95810013D02*
X142468013Y-83762801D01*
X130420801Y-97899199D02*
X130420801Y-95810013D01*
X129320000Y-99000000D02*
X130420801Y-97899199D01*
%TO.N,Net-(J3-Pad8)*%
X141577194Y-82113620D02*
X144625001Y-82113620D01*
X127880801Y-95810013D02*
X141577194Y-82113620D01*
X127880801Y-97899199D02*
X127880801Y-95810013D01*
X126780000Y-99000000D02*
X127880801Y-97899199D01*
%TO.N,Net-(J3-Pad7)*%
X125340801Y-97899199D02*
X125340801Y-95659519D01*
X124240000Y-99000000D02*
X125340801Y-97899199D01*
X145350819Y-81100819D02*
X147000000Y-82750000D01*
X144138856Y-81100819D02*
X145350819Y-81100819D01*
X143550262Y-81689413D02*
X144138856Y-81100819D01*
X139310907Y-81689413D02*
X143550262Y-81689413D01*
X125340801Y-95659519D02*
X139310907Y-81689413D01*
%TO.N,Net-(J3-Pad6)*%
X122800801Y-95810013D02*
X137223014Y-81387800D01*
X137223014Y-81387800D02*
X143425333Y-81387800D01*
X143425333Y-81387800D02*
X144013925Y-80799208D01*
X148060589Y-80799209D02*
X148613001Y-81351621D01*
X144013925Y-80799208D02*
X148060589Y-80799209D01*
X148613001Y-81351621D02*
X149375000Y-82113620D01*
X121700000Y-99000000D02*
X122800801Y-97899199D01*
X122800801Y-97899199D02*
X122800801Y-95810013D01*
%TO.N,Net-(J3-Pad5)*%
X150100819Y-79362198D02*
X151113620Y-80374999D01*
X120260801Y-97899199D02*
X120260801Y-95810013D01*
X136708616Y-79362198D02*
X150100819Y-79362198D01*
X120260801Y-95810013D02*
X136708616Y-79362198D01*
X119160000Y-99000000D02*
X120260801Y-97899199D01*
%TO.N,Net-(J3-Pad4)*%
X118059199Y-95471615D02*
X134518013Y-79012801D01*
X134518013Y-79012801D02*
X150737199Y-79012801D01*
X118059199Y-97560801D02*
X118059199Y-95471615D01*
X150737199Y-79012801D02*
X151750000Y-78000000D01*
X116620000Y-99000000D02*
X118059199Y-97560801D01*
%TO.N,Net-(J3-Pad3)*%
X115180801Y-97899199D02*
X115180801Y-95270899D01*
X114080000Y-99000000D02*
X115180801Y-97899199D01*
X149751422Y-76987199D02*
X151113620Y-75625001D01*
X133464501Y-76987199D02*
X149751422Y-76987199D01*
X115180801Y-95270899D02*
X133464501Y-76987199D01*
%TO.N,Net-(J3-Pad2)*%
X131813013Y-76637801D02*
X146623579Y-76637801D01*
X112640801Y-95810013D02*
X131813013Y-76637801D01*
X146623579Y-76637801D02*
X149375000Y-73886380D01*
X112640801Y-97899199D02*
X112640801Y-95810013D01*
X111540000Y-99000000D02*
X112640801Y-97899199D01*
%TO.N,Net-(J3-Pad1)*%
X130285814Y-75625000D02*
X142886380Y-75625000D01*
X110100801Y-95810013D02*
X130285814Y-75625000D01*
X110100801Y-97899199D02*
X110100801Y-95810013D01*
X109000000Y-99000000D02*
X110100801Y-97899199D01*
%TO.N,Net-(J5-Pad1)*%
X195873580Y-74612200D02*
X196886380Y-75625000D01*
X171627475Y-74612200D02*
X195873580Y-74612200D01*
X164851873Y-74612199D02*
X165138855Y-74899181D01*
X165138855Y-74899181D02*
X171340494Y-74899181D01*
X163400235Y-74612199D02*
X164851873Y-74612199D01*
X143439199Y-94573235D02*
X163400235Y-74612199D01*
X171340494Y-74899181D02*
X171627475Y-74612200D01*
X143439199Y-97560801D02*
X143439199Y-94573235D01*
X142000000Y-99000000D02*
X143439199Y-97560801D01*
%TO.N,Net-(J5-Pad2)*%
X162686711Y-76637801D02*
X200623579Y-76637801D01*
X145640801Y-97899199D02*
X145640801Y-94110253D01*
X161935589Y-77388923D02*
X162686711Y-76637801D01*
X147879190Y-91871864D02*
X147879191Y-91863967D01*
X161935588Y-77807570D02*
X161935589Y-77388923D01*
X200623579Y-76637801D02*
X203375000Y-73886380D01*
X144540000Y-99000000D02*
X145640801Y-97899199D01*
X145640801Y-94110253D02*
X147879190Y-91871864D01*
X147879191Y-91863967D02*
X161935588Y-77807570D01*
%TO.N,Net-(J5-Pad3)*%
X148180801Y-97899199D02*
X148180801Y-91988899D01*
X147080000Y-99000000D02*
X148180801Y-97899199D01*
X162237199Y-77513855D02*
X162786514Y-76964540D01*
X148180801Y-91988899D02*
X162237199Y-77932501D01*
X162237199Y-77932501D02*
X162237199Y-77513855D01*
X203774081Y-76964540D02*
X205113620Y-75625001D01*
X162786514Y-76964540D02*
X203774081Y-76964540D01*
%TO.N,Net-(J5-Pad4)*%
X162904892Y-79060588D02*
X204689412Y-79060588D01*
X150720801Y-97899199D02*
X150720801Y-91244679D01*
X150720801Y-91244679D02*
X162904892Y-79060588D01*
X204689412Y-79060588D02*
X205750000Y-78000000D01*
X149620000Y-99000000D02*
X150720801Y-97899199D01*
%TO.N,Net-(J5-Pad5)*%
X204100819Y-79362198D02*
X205113620Y-80374999D01*
X153260801Y-97899199D02*
X153260801Y-89501632D01*
X163400235Y-79362198D02*
X204100819Y-79362198D01*
X152160000Y-99000000D02*
X153260801Y-97899199D01*
X153260801Y-89501632D02*
X163400235Y-79362198D01*
%TO.N,Net-(J5-Pad6)*%
X156139199Y-89923301D02*
X158039190Y-88023310D01*
X154700000Y-99000000D02*
X156139199Y-97560801D01*
X165013925Y-80799208D02*
X167357151Y-80799209D01*
X167357151Y-80799209D02*
X167658761Y-81100819D01*
X156139199Y-97560801D02*
X156139199Y-89923301D01*
X171672002Y-81387800D02*
X197425333Y-81387800D01*
X202613001Y-81351621D02*
X203375000Y-82113620D01*
X169914942Y-80648190D02*
X170932392Y-80648190D01*
X170932392Y-80648190D02*
X171672002Y-81387800D01*
X198013925Y-80799208D02*
X202060589Y-80799209D01*
X169462313Y-81100819D02*
X169914942Y-80648190D01*
X197425333Y-81387800D02*
X198013925Y-80799208D01*
X167658761Y-81100819D02*
X169462313Y-81100819D01*
X158039191Y-87773942D02*
X165013925Y-80799208D01*
X202060589Y-80799209D02*
X202613001Y-81351621D01*
X158039190Y-88023310D02*
X158039191Y-87773942D01*
%TO.N,Net-(J5-Pad7)*%
X165138856Y-81100819D02*
X167232219Y-81100819D01*
X158340801Y-87898874D02*
X165138856Y-81100819D01*
X157240000Y-99000000D02*
X158340801Y-97899199D01*
X158340801Y-97899199D02*
X158340801Y-87898874D01*
X167695880Y-81564480D02*
X169425194Y-81564480D01*
X169888855Y-81100819D02*
X170892359Y-81100819D01*
X167232219Y-81100819D02*
X167695880Y-81564480D01*
X169425194Y-81564480D02*
X169888855Y-81100819D01*
X199350819Y-81100819D02*
X201000000Y-82750000D01*
X171480972Y-81689431D02*
X197550266Y-81689409D01*
X170892359Y-81100819D02*
X171480972Y-81689431D01*
X197550266Y-81689409D02*
X198138856Y-81100819D01*
X198138856Y-81100819D02*
X199350819Y-81100819D01*
%TO.N,Net-(J5-Pad8)*%
X160880801Y-97899199D02*
X160880801Y-93594179D01*
X159780000Y-99000000D02*
X160880801Y-97899199D01*
X172361360Y-82113620D02*
X198625001Y-82113620D01*
X160880801Y-93594179D02*
X172361360Y-82113620D01*
%TO.N,Net-(J5-Pad9)*%
X203135325Y-80374999D02*
X196886380Y-80374999D01*
X204387801Y-82599765D02*
X204387801Y-81627475D01*
X204387801Y-81627475D02*
X203135325Y-80374999D01*
X175468013Y-83762801D02*
X203224764Y-83762801D01*
X163420801Y-95810013D02*
X175468013Y-83762801D01*
X203224764Y-83762801D02*
X204387801Y-82599765D01*
X163420801Y-97899199D02*
X163420801Y-95810013D01*
X162320000Y-99000000D02*
X163420801Y-97899199D01*
%TO.N,Net-(J5-Pad10)*%
X165960801Y-95810013D02*
X177513934Y-84256880D01*
X164860000Y-99000000D02*
X165960801Y-97899199D01*
X165960801Y-97899199D02*
X165960801Y-95810013D01*
X206236145Y-76987199D02*
X204587041Y-76987199D01*
X206762801Y-77513855D02*
X206236145Y-76987199D01*
X206762801Y-80651307D02*
X206762801Y-77513855D01*
X177513934Y-84256880D02*
X203157228Y-84256880D01*
X203157228Y-84256880D02*
X206762801Y-80651307D01*
X203574240Y-78000000D02*
X196250000Y-78000000D01*
X204587041Y-76987199D02*
X203574240Y-78000000D01*
%TD*%
D16*
%TO.N,GND*%
G36*
X174922148Y-61294751D02*
G01*
X174629396Y-61732886D01*
X174427744Y-62219715D01*
X174324943Y-62736530D01*
X174324943Y-63263470D01*
X174427744Y-63780285D01*
X174629396Y-64267114D01*
X174922148Y-64705249D01*
X175294751Y-65077852D01*
X175732886Y-65370604D01*
X176219715Y-65572256D01*
X176736530Y-65675057D01*
X177263470Y-65675057D01*
X177780285Y-65572256D01*
X178267114Y-65370604D01*
X178705249Y-65077852D01*
X179077852Y-64705249D01*
X179370604Y-64267114D01*
X179572256Y-63780285D01*
X179675057Y-63263470D01*
X179675057Y-62736530D01*
X179572256Y-62219715D01*
X179370604Y-61732886D01*
X179077852Y-61294751D01*
X178951101Y-61168000D01*
X242048899Y-61168000D01*
X241922148Y-61294751D01*
X241629396Y-61732886D01*
X241427744Y-62219715D01*
X241324943Y-62736530D01*
X241324943Y-63263470D01*
X241427744Y-63780285D01*
X241629396Y-64267114D01*
X241922148Y-64705249D01*
X242294751Y-65077852D01*
X242732886Y-65370604D01*
X243219715Y-65572256D01*
X243736530Y-65675057D01*
X244263470Y-65675057D01*
X244780285Y-65572256D01*
X245267114Y-65370604D01*
X245705249Y-65077852D01*
X245832001Y-64951100D01*
X245832000Y-96048899D01*
X245705249Y-95922148D01*
X245267114Y-95629396D01*
X244780285Y-95427744D01*
X244263470Y-95324943D01*
X243736530Y-95324943D01*
X243219715Y-95427744D01*
X242732886Y-95629396D01*
X242294751Y-95922148D01*
X241922148Y-96294751D01*
X241629396Y-96732886D01*
X241427744Y-97219715D01*
X241324943Y-97736530D01*
X241324943Y-98263470D01*
X241427744Y-98780285D01*
X241629396Y-99267114D01*
X241922148Y-99705249D01*
X242048899Y-99832000D01*
X178951101Y-99832000D01*
X179077852Y-99705249D01*
X179370604Y-99267114D01*
X179572256Y-98780285D01*
X179675057Y-98263470D01*
X179675057Y-97736530D01*
X179572256Y-97219715D01*
X179370604Y-96732886D01*
X179077852Y-96294751D01*
X178705249Y-95922148D01*
X178267114Y-95629396D01*
X177780285Y-95427744D01*
X177263470Y-95324943D01*
X176736530Y-95324943D01*
X176219715Y-95427744D01*
X175732886Y-95629396D01*
X175294751Y-95922148D01*
X174922148Y-96294751D01*
X174629396Y-96732886D01*
X174427744Y-97219715D01*
X174324943Y-97736530D01*
X174324943Y-98263470D01*
X174427744Y-98780285D01*
X174629396Y-99267114D01*
X174922148Y-99705249D01*
X175048899Y-99832000D01*
X171164577Y-99832000D01*
X171284157Y-99631252D01*
X171381481Y-99356891D01*
X171260814Y-99127000D01*
X170067000Y-99127000D01*
X170067000Y-99147000D01*
X169813000Y-99147000D01*
X169813000Y-99127000D01*
X169793000Y-99127000D01*
X169793000Y-98873000D01*
X169813000Y-98873000D01*
X169813000Y-97679845D01*
X170067000Y-97679845D01*
X170067000Y-98873000D01*
X171260814Y-98873000D01*
X171381481Y-98643109D01*
X171284157Y-98368748D01*
X171135178Y-98118645D01*
X170940269Y-97902412D01*
X170706920Y-97728359D01*
X170444099Y-97603175D01*
X170296890Y-97558524D01*
X170067000Y-97679845D01*
X169813000Y-97679845D01*
X169583110Y-97558524D01*
X169435901Y-97603175D01*
X169173080Y-97728359D01*
X169022383Y-97840763D01*
X168948064Y-97729537D01*
X168718527Y-97500000D01*
X168948064Y-97270463D01*
X169022383Y-97159237D01*
X169173080Y-97271641D01*
X169435901Y-97396825D01*
X169583110Y-97441476D01*
X169813000Y-97320155D01*
X169813000Y-96127000D01*
X170067000Y-96127000D01*
X170067000Y-97320155D01*
X170296890Y-97441476D01*
X170444099Y-97396825D01*
X170706920Y-97271641D01*
X170940269Y-97097588D01*
X171135178Y-96881355D01*
X171284157Y-96631252D01*
X171381481Y-96356891D01*
X171260814Y-96127000D01*
X170067000Y-96127000D01*
X169813000Y-96127000D01*
X169793000Y-96127000D01*
X169793000Y-95873000D01*
X169813000Y-95873000D01*
X169813000Y-94679845D01*
X170067000Y-94679845D01*
X170067000Y-95873000D01*
X171260814Y-95873000D01*
X171381481Y-95643109D01*
X171284157Y-95368748D01*
X171135178Y-95118645D01*
X170940269Y-94902412D01*
X170706920Y-94728359D01*
X170444099Y-94603175D01*
X170296890Y-94558524D01*
X170067000Y-94679845D01*
X169813000Y-94679845D01*
X169583110Y-94558524D01*
X169435901Y-94603175D01*
X169173080Y-94728359D01*
X169022383Y-94840763D01*
X168948064Y-94729537D01*
X168838814Y-94620287D01*
X178008422Y-85450680D01*
X203098592Y-85450680D01*
X203157228Y-85456455D01*
X203215864Y-85450680D01*
X203215872Y-85450680D01*
X203391254Y-85433406D01*
X203616286Y-85365144D01*
X203823677Y-85254291D01*
X204005456Y-85105108D01*
X204042843Y-85059552D01*
X207565479Y-81536917D01*
X207611029Y-81499535D01*
X207760212Y-81317756D01*
X207871065Y-81110365D01*
X207939327Y-80885333D01*
X207956601Y-80709951D01*
X207956601Y-80709944D01*
X207962376Y-80651308D01*
X207956601Y-80592672D01*
X207956601Y-77812374D01*
X215345000Y-77812374D01*
X215345000Y-78187626D01*
X215418209Y-78555668D01*
X215561811Y-78902356D01*
X215770290Y-79214366D01*
X216035634Y-79479710D01*
X216160660Y-79563250D01*
X216054589Y-79819331D01*
X215981380Y-80187373D01*
X215981380Y-80562625D01*
X216054589Y-80930667D01*
X216198191Y-81277355D01*
X216406670Y-81589365D01*
X216672014Y-81854709D01*
X216984024Y-82063188D01*
X217330712Y-82206790D01*
X217698754Y-82279999D01*
X217720001Y-82279999D01*
X217720001Y-82301246D01*
X217793210Y-82669288D01*
X217936812Y-83015976D01*
X218145291Y-83327986D01*
X218410635Y-83593330D01*
X218722645Y-83801809D01*
X219069333Y-83945411D01*
X219437375Y-84018620D01*
X219812627Y-84018620D01*
X220180669Y-83945411D01*
X220436750Y-83839340D01*
X220520290Y-83964366D01*
X220785634Y-84229710D01*
X221097644Y-84438189D01*
X221444332Y-84581791D01*
X221812374Y-84655000D01*
X222187626Y-84655000D01*
X222555668Y-84581791D01*
X222902356Y-84438189D01*
X223214366Y-84229710D01*
X223479710Y-83964366D01*
X223563250Y-83839339D01*
X223819332Y-83945411D01*
X224187374Y-84018620D01*
X224562626Y-84018620D01*
X224930668Y-83945411D01*
X225277356Y-83801809D01*
X225589366Y-83593330D01*
X225854710Y-83327986D01*
X226063189Y-83015976D01*
X226206791Y-82669288D01*
X226280000Y-82301246D01*
X226280000Y-82279999D01*
X226301246Y-82279999D01*
X226669288Y-82206790D01*
X227015976Y-82063188D01*
X227327986Y-81854709D01*
X227593330Y-81589365D01*
X227801809Y-81277355D01*
X227945411Y-80930667D01*
X228018620Y-80562625D01*
X228018620Y-80187373D01*
X227945411Y-79819331D01*
X227839340Y-79563250D01*
X227964366Y-79479710D01*
X228229710Y-79214366D01*
X228438189Y-78902356D01*
X228581791Y-78555668D01*
X228655000Y-78187626D01*
X228655000Y-77812374D01*
X228581791Y-77444332D01*
X228438189Y-77097644D01*
X228229710Y-76785634D01*
X227964366Y-76520290D01*
X227839340Y-76436750D01*
X227945411Y-76180669D01*
X228018620Y-75812627D01*
X228018620Y-75437375D01*
X227945411Y-75069333D01*
X227801809Y-74722645D01*
X227593330Y-74410635D01*
X227327986Y-74145291D01*
X227015976Y-73936812D01*
X226669288Y-73793210D01*
X226301246Y-73720001D01*
X226280000Y-73720001D01*
X226280000Y-73698754D01*
X226206791Y-73330712D01*
X226063189Y-72984024D01*
X225854710Y-72672014D01*
X225589366Y-72406670D01*
X225277356Y-72198191D01*
X224930668Y-72054589D01*
X224562626Y-71981380D01*
X224187374Y-71981380D01*
X223819332Y-72054589D01*
X223472644Y-72198191D01*
X223160634Y-72406670D01*
X222895290Y-72672014D01*
X222686811Y-72984024D01*
X222543209Y-73330712D01*
X222470000Y-73698754D01*
X222470000Y-74074006D01*
X222543209Y-74442048D01*
X222686811Y-74788736D01*
X222895290Y-75100746D01*
X223160634Y-75366090D01*
X223472644Y-75574569D01*
X223819332Y-75718171D01*
X224187374Y-75791380D01*
X224208620Y-75791380D01*
X224208620Y-75812627D01*
X224281829Y-76180669D01*
X224425431Y-76527357D01*
X224633910Y-76839367D01*
X224899254Y-77104711D01*
X225024280Y-77188251D01*
X224918209Y-77444332D01*
X224845000Y-77812374D01*
X224845000Y-78187626D01*
X224918209Y-78555668D01*
X225024280Y-78811749D01*
X224899254Y-78895289D01*
X224633910Y-79160633D01*
X224425431Y-79472643D01*
X224281829Y-79819331D01*
X224208620Y-80187373D01*
X224208620Y-80208620D01*
X224187374Y-80208620D01*
X223819332Y-80281829D01*
X223472644Y-80425431D01*
X223160634Y-80633910D01*
X222895290Y-80899254D01*
X222811750Y-81024281D01*
X222555668Y-80918209D01*
X222187626Y-80845000D01*
X221812374Y-80845000D01*
X221444332Y-80918209D01*
X221188251Y-81024280D01*
X221104711Y-80899254D01*
X220839367Y-80633910D01*
X220527357Y-80425431D01*
X220180669Y-80281829D01*
X219812627Y-80208620D01*
X219791380Y-80208620D01*
X219791380Y-80187373D01*
X219718171Y-79819331D01*
X219574569Y-79472643D01*
X219366090Y-79160633D01*
X219100746Y-78895289D01*
X218975720Y-78811749D01*
X219081791Y-78555668D01*
X219155000Y-78187626D01*
X219155000Y-77812374D01*
X219081791Y-77444332D01*
X218975719Y-77188250D01*
X219100746Y-77104710D01*
X219366090Y-76839366D01*
X219574569Y-76527356D01*
X219718171Y-76180668D01*
X219791380Y-75812626D01*
X219791380Y-75791380D01*
X219812626Y-75791380D01*
X220180668Y-75718171D01*
X220527356Y-75574569D01*
X220839366Y-75366090D01*
X221104710Y-75100746D01*
X221313189Y-74788736D01*
X221456791Y-74442048D01*
X221530000Y-74074006D01*
X221530000Y-73698754D01*
X221456791Y-73330712D01*
X221313189Y-72984024D01*
X221104710Y-72672014D01*
X220839366Y-72406670D01*
X220527356Y-72198191D01*
X220180668Y-72054589D01*
X219812626Y-71981380D01*
X219437374Y-71981380D01*
X219069332Y-72054589D01*
X218722644Y-72198191D01*
X218410634Y-72406670D01*
X218145290Y-72672014D01*
X217936811Y-72984024D01*
X217793209Y-73330712D01*
X217720000Y-73698754D01*
X217720000Y-73720000D01*
X217698754Y-73720000D01*
X217330712Y-73793209D01*
X216984024Y-73936811D01*
X216672014Y-74145290D01*
X216406670Y-74410634D01*
X216198191Y-74722644D01*
X216054589Y-75069332D01*
X215981380Y-75437374D01*
X215981380Y-75812626D01*
X216054589Y-76180668D01*
X216160661Y-76436750D01*
X216035634Y-76520290D01*
X215770290Y-76785634D01*
X215561811Y-77097644D01*
X215418209Y-77444332D01*
X215345000Y-77812374D01*
X207956601Y-77812374D01*
X207956601Y-77572490D01*
X207962376Y-77513854D01*
X207956601Y-77455218D01*
X207956601Y-77455211D01*
X207939327Y-77279829D01*
X207871065Y-77054797D01*
X207760212Y-76847406D01*
X207611029Y-76665627D01*
X207565473Y-76628240D01*
X207121760Y-76184527D01*
X207084373Y-76138971D01*
X206972043Y-76046783D01*
X207018620Y-75812627D01*
X207018620Y-75437375D01*
X206945411Y-75069333D01*
X206801809Y-74722645D01*
X206593330Y-74410635D01*
X206327986Y-74145291D01*
X206015976Y-73936812D01*
X205669288Y-73793210D01*
X205301246Y-73720001D01*
X205280000Y-73720001D01*
X205280000Y-73698754D01*
X205206791Y-73330712D01*
X205063189Y-72984024D01*
X204854710Y-72672014D01*
X204589366Y-72406670D01*
X204277356Y-72198191D01*
X203930668Y-72054589D01*
X203562626Y-71981380D01*
X203187374Y-71981380D01*
X202819332Y-72054589D01*
X202472644Y-72198191D01*
X202160634Y-72406670D01*
X201895290Y-72672014D01*
X201686811Y-72984024D01*
X201543209Y-73330712D01*
X201470000Y-73698754D01*
X201470000Y-74074006D01*
X201474826Y-74098267D01*
X200129092Y-75444001D01*
X199722764Y-75444001D01*
X199839366Y-75366090D01*
X200104710Y-75100746D01*
X200313189Y-74788736D01*
X200456791Y-74442048D01*
X200530000Y-74074006D01*
X200530000Y-73698754D01*
X200456791Y-73330712D01*
X200313189Y-72984024D01*
X200104710Y-72672014D01*
X199839366Y-72406670D01*
X199527356Y-72198191D01*
X199180668Y-72054589D01*
X198812626Y-71981380D01*
X198437374Y-71981380D01*
X198069332Y-72054589D01*
X197722644Y-72198191D01*
X197410634Y-72406670D01*
X197145290Y-72672014D01*
X196936811Y-72984024D01*
X196793209Y-73330712D01*
X196720000Y-73698754D01*
X196720000Y-73720000D01*
X196698754Y-73720000D01*
X196674184Y-73724887D01*
X196540029Y-73614789D01*
X196332638Y-73503936D01*
X196107606Y-73435674D01*
X195932224Y-73418400D01*
X195932216Y-73418400D01*
X195873580Y-73412625D01*
X195814944Y-73418400D01*
X172224233Y-73418400D01*
X172206791Y-73330712D01*
X172063189Y-72984024D01*
X171854710Y-72672014D01*
X171589366Y-72406670D01*
X171277356Y-72198191D01*
X170930668Y-72054589D01*
X170562626Y-71981380D01*
X170187374Y-71981380D01*
X169819332Y-72054589D01*
X169472644Y-72198191D01*
X169160634Y-72406670D01*
X168895290Y-72672014D01*
X168686811Y-72984024D01*
X168543209Y-73330712D01*
X168470000Y-73698754D01*
X168470000Y-73705381D01*
X167530000Y-73705381D01*
X167530000Y-73698754D01*
X167456791Y-73330712D01*
X167313189Y-72984024D01*
X167104710Y-72672014D01*
X166839366Y-72406670D01*
X166527356Y-72198191D01*
X166180668Y-72054589D01*
X165812626Y-71981380D01*
X165437374Y-71981380D01*
X165069332Y-72054589D01*
X164722644Y-72198191D01*
X164410634Y-72406670D01*
X164145290Y-72672014D01*
X163936811Y-72984024D01*
X163793209Y-73330712D01*
X163775767Y-73418399D01*
X163458871Y-73418399D01*
X163400235Y-73412624D01*
X163341599Y-73418399D01*
X163341591Y-73418399D01*
X163166209Y-73435673D01*
X162941177Y-73503935D01*
X162733786Y-73614788D01*
X162605586Y-73720000D01*
X162552007Y-73763971D01*
X162514624Y-73809522D01*
X142636523Y-93687624D01*
X142590972Y-93725007D01*
X142441789Y-93906786D01*
X142391179Y-94001470D01*
X141150000Y-94001470D01*
X140925933Y-94023539D01*
X140710477Y-94088897D01*
X140511911Y-94195032D01*
X140337867Y-94337867D01*
X140195032Y-94511911D01*
X140088897Y-94710477D01*
X140023539Y-94925933D01*
X140001470Y-95150000D01*
X140001470Y-96850000D01*
X140023539Y-97074067D01*
X140088897Y-97289523D01*
X140195032Y-97488089D01*
X140204807Y-97500000D01*
X140195032Y-97511911D01*
X140088897Y-97710477D01*
X140023539Y-97925933D01*
X140001470Y-98150000D01*
X140001470Y-99832000D01*
X138164577Y-99832000D01*
X138284157Y-99631252D01*
X138381481Y-99356891D01*
X138260814Y-99127000D01*
X137067000Y-99127000D01*
X137067000Y-99147000D01*
X136813000Y-99147000D01*
X136813000Y-99127000D01*
X136793000Y-99127000D01*
X136793000Y-98873000D01*
X136813000Y-98873000D01*
X136813000Y-97679845D01*
X137067000Y-97679845D01*
X137067000Y-98873000D01*
X138260814Y-98873000D01*
X138381481Y-98643109D01*
X138284157Y-98368748D01*
X138135178Y-98118645D01*
X137940269Y-97902412D01*
X137706920Y-97728359D01*
X137444099Y-97603175D01*
X137296890Y-97558524D01*
X137067000Y-97679845D01*
X136813000Y-97679845D01*
X136583110Y-97558524D01*
X136435901Y-97603175D01*
X136173080Y-97728359D01*
X136022383Y-97840763D01*
X135948064Y-97729537D01*
X135718527Y-97500000D01*
X135948064Y-97270463D01*
X136022383Y-97159237D01*
X136173080Y-97271641D01*
X136435901Y-97396825D01*
X136583110Y-97441476D01*
X136813000Y-97320155D01*
X136813000Y-96127000D01*
X137067000Y-96127000D01*
X137067000Y-97320155D01*
X137296890Y-97441476D01*
X137444099Y-97396825D01*
X137706920Y-97271641D01*
X137940269Y-97097588D01*
X138135178Y-96881355D01*
X138284157Y-96631252D01*
X138381481Y-96356891D01*
X138260814Y-96127000D01*
X137067000Y-96127000D01*
X136813000Y-96127000D01*
X136793000Y-96127000D01*
X136793000Y-95873000D01*
X136813000Y-95873000D01*
X136813000Y-94679845D01*
X137067000Y-94679845D01*
X137067000Y-95873000D01*
X138260814Y-95873000D01*
X138381481Y-95643109D01*
X138284157Y-95368748D01*
X138135178Y-95118645D01*
X137940269Y-94902412D01*
X137706920Y-94728359D01*
X137444099Y-94603175D01*
X137296890Y-94558524D01*
X137067000Y-94679845D01*
X136813000Y-94679845D01*
X136583110Y-94558524D01*
X136435901Y-94603175D01*
X136173080Y-94728359D01*
X136022383Y-94840763D01*
X135948064Y-94729537D01*
X135857547Y-94639020D01*
X143323768Y-87172800D01*
X147376472Y-87172800D01*
X147435108Y-87178575D01*
X147493744Y-87172800D01*
X147493752Y-87172800D01*
X147669134Y-87155526D01*
X147894166Y-87087264D01*
X148101557Y-86976411D01*
X148283336Y-86827228D01*
X148320723Y-86781672D01*
X153565479Y-81536917D01*
X153611029Y-81499535D01*
X153760212Y-81317756D01*
X153871065Y-81110365D01*
X153939327Y-80885333D01*
X153956601Y-80709951D01*
X153956601Y-80709943D01*
X153962376Y-80651307D01*
X153956601Y-80592671D01*
X153956601Y-77572490D01*
X153962376Y-77513854D01*
X153956601Y-77455218D01*
X153956601Y-77455211D01*
X153939327Y-77279829D01*
X153871065Y-77054797D01*
X153760212Y-76847406D01*
X153611029Y-76665627D01*
X153565473Y-76628240D01*
X153121760Y-76184527D01*
X153084373Y-76138971D01*
X152972043Y-76046783D01*
X153018620Y-75812627D01*
X153018620Y-75437375D01*
X152945411Y-75069333D01*
X152801809Y-74722645D01*
X152593330Y-74410635D01*
X152327986Y-74145291D01*
X152015976Y-73936812D01*
X151669288Y-73793210D01*
X151301246Y-73720001D01*
X151280000Y-73720001D01*
X151280000Y-73698754D01*
X151206791Y-73330712D01*
X151063189Y-72984024D01*
X150854710Y-72672014D01*
X150589366Y-72406670D01*
X150277356Y-72198191D01*
X149930668Y-72054589D01*
X149562626Y-71981380D01*
X149187374Y-71981380D01*
X148819332Y-72054589D01*
X148472644Y-72198191D01*
X148160634Y-72406670D01*
X147895290Y-72672014D01*
X147686811Y-72984024D01*
X147543209Y-73330712D01*
X147470000Y-73698754D01*
X147470000Y-74074006D01*
X147474826Y-74098267D01*
X146129092Y-75444001D01*
X145722764Y-75444001D01*
X145839366Y-75366090D01*
X146104710Y-75100746D01*
X146313189Y-74788736D01*
X146456791Y-74442048D01*
X146530000Y-74074006D01*
X146530000Y-73698754D01*
X146456791Y-73330712D01*
X146313189Y-72984024D01*
X146104710Y-72672014D01*
X145839366Y-72406670D01*
X145527356Y-72198191D01*
X145180668Y-72054589D01*
X144812626Y-71981380D01*
X144437374Y-71981380D01*
X144069332Y-72054589D01*
X143722644Y-72198191D01*
X143410634Y-72406670D01*
X143145290Y-72672014D01*
X142936811Y-72984024D01*
X142793209Y-73330712D01*
X142720000Y-73698754D01*
X142720000Y-73720000D01*
X142698754Y-73720000D01*
X142330712Y-73793209D01*
X141984024Y-73936811D01*
X141672014Y-74145290D01*
X141406670Y-74410634D01*
X141392928Y-74431200D01*
X130344449Y-74431200D01*
X130285813Y-74425425D01*
X130227177Y-74431200D01*
X130227170Y-74431200D01*
X130051788Y-74448474D01*
X129826756Y-74516736D01*
X129619365Y-74627589D01*
X129437586Y-74776772D01*
X129400203Y-74822323D01*
X110169913Y-94052614D01*
X110074067Y-94023539D01*
X109850000Y-94001470D01*
X108150000Y-94001470D01*
X107925933Y-94023539D01*
X107710477Y-94088897D01*
X107511911Y-94195032D01*
X107337867Y-94337867D01*
X107195032Y-94511911D01*
X107088897Y-94710477D01*
X107023539Y-94925933D01*
X107001470Y-95150000D01*
X107001470Y-96850000D01*
X107023539Y-97074067D01*
X107088897Y-97289523D01*
X107195032Y-97488089D01*
X107204807Y-97500000D01*
X107195032Y-97511911D01*
X107088897Y-97710477D01*
X107023539Y-97925933D01*
X107001470Y-98150000D01*
X107001470Y-99832000D01*
X105164577Y-99832000D01*
X105284157Y-99631252D01*
X105381481Y-99356891D01*
X105260814Y-99127000D01*
X104067000Y-99127000D01*
X104067000Y-99147000D01*
X103813000Y-99147000D01*
X103813000Y-99127000D01*
X103793000Y-99127000D01*
X103793000Y-98873000D01*
X103813000Y-98873000D01*
X103813000Y-97679845D01*
X104067000Y-97679845D01*
X104067000Y-98873000D01*
X105260814Y-98873000D01*
X105381481Y-98643109D01*
X105284157Y-98368748D01*
X105135178Y-98118645D01*
X104940269Y-97902412D01*
X104706920Y-97728359D01*
X104444099Y-97603175D01*
X104296890Y-97558524D01*
X104067000Y-97679845D01*
X103813000Y-97679845D01*
X103583110Y-97558524D01*
X103435901Y-97603175D01*
X103173080Y-97728359D01*
X103022383Y-97840763D01*
X102948064Y-97729537D01*
X102718527Y-97500000D01*
X102948064Y-97270463D01*
X103022383Y-97159237D01*
X103173080Y-97271641D01*
X103435901Y-97396825D01*
X103583110Y-97441476D01*
X103813000Y-97320155D01*
X103813000Y-96127000D01*
X104067000Y-96127000D01*
X104067000Y-97320155D01*
X104296890Y-97441476D01*
X104444099Y-97396825D01*
X104706920Y-97271641D01*
X104940269Y-97097588D01*
X105135178Y-96881355D01*
X105284157Y-96631252D01*
X105381481Y-96356891D01*
X105260814Y-96127000D01*
X104067000Y-96127000D01*
X103813000Y-96127000D01*
X103793000Y-96127000D01*
X103793000Y-95873000D01*
X103813000Y-95873000D01*
X103813000Y-94679845D01*
X104067000Y-94679845D01*
X104067000Y-95873000D01*
X105260814Y-95873000D01*
X105381481Y-95643109D01*
X105284157Y-95368748D01*
X105135178Y-95118645D01*
X104940269Y-94902412D01*
X104706920Y-94728359D01*
X104444099Y-94603175D01*
X104296890Y-94558524D01*
X104067000Y-94679845D01*
X103813000Y-94679845D01*
X103583110Y-94558524D01*
X103435901Y-94603175D01*
X103173080Y-94728359D01*
X103022383Y-94840763D01*
X102948064Y-94729537D01*
X102670463Y-94451936D01*
X102644600Y-94434655D01*
X102644600Y-77812374D01*
X107345000Y-77812374D01*
X107345000Y-78187626D01*
X107418209Y-78555668D01*
X107561811Y-78902356D01*
X107770290Y-79214366D01*
X108035634Y-79479710D01*
X108160660Y-79563250D01*
X108054589Y-79819331D01*
X107981380Y-80187373D01*
X107981380Y-80562625D01*
X108054589Y-80930667D01*
X108198191Y-81277355D01*
X108406670Y-81589365D01*
X108672014Y-81854709D01*
X108984024Y-82063188D01*
X109330712Y-82206790D01*
X109698754Y-82279999D01*
X109720001Y-82279999D01*
X109720001Y-82301246D01*
X109793210Y-82669288D01*
X109936812Y-83015976D01*
X110145291Y-83327986D01*
X110410635Y-83593330D01*
X110722645Y-83801809D01*
X111069333Y-83945411D01*
X111437375Y-84018620D01*
X111812627Y-84018620D01*
X112180669Y-83945411D01*
X112436750Y-83839340D01*
X112520290Y-83964366D01*
X112785634Y-84229710D01*
X113097644Y-84438189D01*
X113444332Y-84581791D01*
X113812374Y-84655000D01*
X114187626Y-84655000D01*
X114555668Y-84581791D01*
X114902356Y-84438189D01*
X115214366Y-84229710D01*
X115479710Y-83964366D01*
X115563250Y-83839339D01*
X115819332Y-83945411D01*
X116187374Y-84018620D01*
X116562626Y-84018620D01*
X116930668Y-83945411D01*
X117277356Y-83801809D01*
X117589366Y-83593330D01*
X117854710Y-83327986D01*
X118063189Y-83015976D01*
X118206791Y-82669288D01*
X118280000Y-82301246D01*
X118280000Y-82279999D01*
X118301246Y-82279999D01*
X118669288Y-82206790D01*
X119015976Y-82063188D01*
X119327986Y-81854709D01*
X119593330Y-81589365D01*
X119801809Y-81277355D01*
X119945411Y-80930667D01*
X120018620Y-80562625D01*
X120018620Y-80187373D01*
X119945411Y-79819331D01*
X119839340Y-79563250D01*
X119964366Y-79479710D01*
X120229710Y-79214366D01*
X120438189Y-78902356D01*
X120581791Y-78555668D01*
X120655000Y-78187626D01*
X120655000Y-77812374D01*
X120581791Y-77444332D01*
X120438189Y-77097644D01*
X120229710Y-76785634D01*
X119964366Y-76520290D01*
X119839340Y-76436750D01*
X119945411Y-76180669D01*
X120018620Y-75812627D01*
X120018620Y-75437375D01*
X119945411Y-75069333D01*
X119801809Y-74722645D01*
X119593330Y-74410635D01*
X119327986Y-74145291D01*
X119015976Y-73936812D01*
X118669288Y-73793210D01*
X118301246Y-73720001D01*
X118280000Y-73720001D01*
X118280000Y-73698754D01*
X118206791Y-73330712D01*
X118063189Y-72984024D01*
X117854710Y-72672014D01*
X117589366Y-72406670D01*
X117277356Y-72198191D01*
X116930668Y-72054589D01*
X116562626Y-71981380D01*
X116187374Y-71981380D01*
X115819332Y-72054589D01*
X115472644Y-72198191D01*
X115160634Y-72406670D01*
X114895290Y-72672014D01*
X114686811Y-72984024D01*
X114543209Y-73330712D01*
X114470000Y-73698754D01*
X114470000Y-74074006D01*
X114543209Y-74442048D01*
X114686811Y-74788736D01*
X114895290Y-75100746D01*
X115160634Y-75366090D01*
X115472644Y-75574569D01*
X115819332Y-75718171D01*
X116187374Y-75791380D01*
X116208620Y-75791380D01*
X116208620Y-75812627D01*
X116281829Y-76180669D01*
X116425431Y-76527357D01*
X116633910Y-76839367D01*
X116899254Y-77104711D01*
X117024280Y-77188251D01*
X116918209Y-77444332D01*
X116845000Y-77812374D01*
X116845000Y-78187626D01*
X116918209Y-78555668D01*
X117024280Y-78811749D01*
X116899254Y-78895289D01*
X116633910Y-79160633D01*
X116425431Y-79472643D01*
X116281829Y-79819331D01*
X116208620Y-80187373D01*
X116208620Y-80208620D01*
X116187374Y-80208620D01*
X115819332Y-80281829D01*
X115472644Y-80425431D01*
X115160634Y-80633910D01*
X114895290Y-80899254D01*
X114811750Y-81024281D01*
X114555668Y-80918209D01*
X114187626Y-80845000D01*
X113812374Y-80845000D01*
X113444332Y-80918209D01*
X113188251Y-81024280D01*
X113104711Y-80899254D01*
X112839367Y-80633910D01*
X112527357Y-80425431D01*
X112180669Y-80281829D01*
X111812627Y-80208620D01*
X111791380Y-80208620D01*
X111791380Y-80187373D01*
X111718171Y-79819331D01*
X111574569Y-79472643D01*
X111366090Y-79160633D01*
X111100746Y-78895289D01*
X110975720Y-78811749D01*
X111081791Y-78555668D01*
X111155000Y-78187626D01*
X111155000Y-77812374D01*
X111081791Y-77444332D01*
X110975719Y-77188250D01*
X111100746Y-77104710D01*
X111366090Y-76839366D01*
X111574569Y-76527356D01*
X111718171Y-76180668D01*
X111791380Y-75812626D01*
X111791380Y-75791380D01*
X111812626Y-75791380D01*
X112180668Y-75718171D01*
X112527356Y-75574569D01*
X112839366Y-75366090D01*
X113104710Y-75100746D01*
X113313189Y-74788736D01*
X113456791Y-74442048D01*
X113530000Y-74074006D01*
X113530000Y-73698754D01*
X113456791Y-73330712D01*
X113313189Y-72984024D01*
X113104710Y-72672014D01*
X112839366Y-72406670D01*
X112527356Y-72198191D01*
X112180668Y-72054589D01*
X111812626Y-71981380D01*
X111437374Y-71981380D01*
X111069332Y-72054589D01*
X110722644Y-72198191D01*
X110410634Y-72406670D01*
X110145290Y-72672014D01*
X109936811Y-72984024D01*
X109793209Y-73330712D01*
X109720000Y-73698754D01*
X109720000Y-73720000D01*
X109698754Y-73720000D01*
X109330712Y-73793209D01*
X108984024Y-73936811D01*
X108672014Y-74145290D01*
X108406670Y-74410634D01*
X108198191Y-74722644D01*
X108054589Y-75069332D01*
X107981380Y-75437374D01*
X107981380Y-75812626D01*
X108054589Y-76180668D01*
X108160661Y-76436750D01*
X108035634Y-76520290D01*
X107770290Y-76785634D01*
X107561811Y-77097644D01*
X107418209Y-77444332D01*
X107345000Y-77812374D01*
X102644600Y-77812374D01*
X102644600Y-74594787D01*
X102723568Y-74404143D01*
X102777100Y-74135019D01*
X102777100Y-73860621D01*
X102723568Y-73591497D01*
X102618560Y-73337987D01*
X102466114Y-73109834D01*
X102272086Y-72915806D01*
X102043933Y-72763360D01*
X101790423Y-72658352D01*
X101521299Y-72604820D01*
X101246901Y-72604820D01*
X100977777Y-72658352D01*
X100724267Y-72763360D01*
X100496114Y-72915806D01*
X100302086Y-73109834D01*
X100149640Y-73337987D01*
X100044632Y-73591497D01*
X99991100Y-73860621D01*
X99991100Y-74135019D01*
X100044632Y-74404143D01*
X100149640Y-74657653D01*
X100155401Y-74666275D01*
X100155401Y-77218167D01*
X99121760Y-76184527D01*
X99084373Y-76138971D01*
X98972043Y-76046783D01*
X99018620Y-75812627D01*
X99018620Y-75437375D01*
X98945411Y-75069333D01*
X98801809Y-74722645D01*
X98593330Y-74410635D01*
X98327986Y-74145291D01*
X98015976Y-73936812D01*
X97669288Y-73793210D01*
X97301246Y-73720001D01*
X97280000Y-73720001D01*
X97280000Y-73698754D01*
X97206791Y-73330712D01*
X97063189Y-72984024D01*
X96854710Y-72672014D01*
X96589366Y-72406670D01*
X96277356Y-72198191D01*
X95930668Y-72054589D01*
X95562626Y-71981380D01*
X95187374Y-71981380D01*
X94819332Y-72054589D01*
X94472644Y-72198191D01*
X94160634Y-72406670D01*
X93895290Y-72672014D01*
X93881548Y-72692580D01*
X92646802Y-72692580D01*
X92588166Y-72686805D01*
X92529530Y-72692580D01*
X92529522Y-72692580D01*
X92354140Y-72709854D01*
X92167769Y-72766388D01*
X92104710Y-72672014D01*
X91839366Y-72406670D01*
X91527356Y-72198191D01*
X91180668Y-72054589D01*
X90812626Y-71981380D01*
X90437374Y-71981380D01*
X90069332Y-72054589D01*
X89722644Y-72198191D01*
X89410634Y-72406670D01*
X89145290Y-72672014D01*
X88936811Y-72984024D01*
X88793209Y-73330712D01*
X88720000Y-73698754D01*
X88720000Y-73720000D01*
X88698754Y-73720000D01*
X88330712Y-73793209D01*
X87984024Y-73936811D01*
X87672014Y-74145290D01*
X87406670Y-74410634D01*
X87394946Y-74428180D01*
X87366977Y-74425425D01*
X87308341Y-74431200D01*
X87308334Y-74431200D01*
X87132952Y-74448474D01*
X86907920Y-74516736D01*
X86700529Y-74627589D01*
X86518750Y-74776772D01*
X86481367Y-74822323D01*
X78536515Y-82767176D01*
X78490964Y-82804559D01*
X78453581Y-82850110D01*
X78453580Y-82850111D01*
X78440594Y-82865935D01*
X78341781Y-82986338D01*
X78291528Y-83080354D01*
X78230927Y-83193730D01*
X78162665Y-83418762D01*
X78139616Y-83652787D01*
X78145392Y-83711431D01*
X78145391Y-84677702D01*
X76636522Y-86186570D01*
X76590972Y-86223953D01*
X76553589Y-86269504D01*
X76553588Y-86269505D01*
X76528973Y-86299499D01*
X76441789Y-86405732D01*
X76382536Y-86516586D01*
X76330935Y-86613124D01*
X76262673Y-86838156D01*
X76239624Y-87072181D01*
X76245400Y-87130827D01*
X76245399Y-94001470D01*
X75150000Y-94001470D01*
X74925933Y-94023539D01*
X74710477Y-94088897D01*
X74511911Y-94195032D01*
X74337867Y-94337867D01*
X74195032Y-94511911D01*
X74088897Y-94710477D01*
X74023539Y-94925933D01*
X74001470Y-95150000D01*
X74001470Y-96850000D01*
X74023539Y-97074067D01*
X74088897Y-97289523D01*
X74195032Y-97488089D01*
X74204807Y-97500000D01*
X74195032Y-97511911D01*
X74088897Y-97710477D01*
X74023539Y-97925933D01*
X74001470Y-98150000D01*
X74001470Y-99832000D01*
X71951101Y-99832000D01*
X72077852Y-99705249D01*
X72370604Y-99267114D01*
X72572256Y-98780285D01*
X72675057Y-98263470D01*
X72675057Y-97736530D01*
X72572256Y-97219715D01*
X72370604Y-96732886D01*
X72077852Y-96294751D01*
X71705249Y-95922148D01*
X71267114Y-95629396D01*
X70780285Y-95427744D01*
X70263470Y-95324943D01*
X69736530Y-95324943D01*
X69219715Y-95427744D01*
X68732886Y-95629396D01*
X68294751Y-95922148D01*
X68168000Y-96048899D01*
X68168000Y-64951101D01*
X68294751Y-65077852D01*
X68732886Y-65370604D01*
X69219715Y-65572256D01*
X69736530Y-65675057D01*
X70263470Y-65675057D01*
X70780285Y-65572256D01*
X71267114Y-65370604D01*
X71705249Y-65077852D01*
X72077852Y-64705249D01*
X72370604Y-64267114D01*
X72572256Y-63780285D01*
X72675057Y-63263470D01*
X72675057Y-62736530D01*
X72572256Y-62219715D01*
X72370604Y-61732886D01*
X72077852Y-61294751D01*
X71951101Y-61168000D01*
X175048899Y-61168000D01*
X174922148Y-61294751D01*
G37*
X174922148Y-61294751D02*
X174629396Y-61732886D01*
X174427744Y-62219715D01*
X174324943Y-62736530D01*
X174324943Y-63263470D01*
X174427744Y-63780285D01*
X174629396Y-64267114D01*
X174922148Y-64705249D01*
X175294751Y-65077852D01*
X175732886Y-65370604D01*
X176219715Y-65572256D01*
X176736530Y-65675057D01*
X177263470Y-65675057D01*
X177780285Y-65572256D01*
X178267114Y-65370604D01*
X178705249Y-65077852D01*
X179077852Y-64705249D01*
X179370604Y-64267114D01*
X179572256Y-63780285D01*
X179675057Y-63263470D01*
X179675057Y-62736530D01*
X179572256Y-62219715D01*
X179370604Y-61732886D01*
X179077852Y-61294751D01*
X178951101Y-61168000D01*
X242048899Y-61168000D01*
X241922148Y-61294751D01*
X241629396Y-61732886D01*
X241427744Y-62219715D01*
X241324943Y-62736530D01*
X241324943Y-63263470D01*
X241427744Y-63780285D01*
X241629396Y-64267114D01*
X241922148Y-64705249D01*
X242294751Y-65077852D01*
X242732886Y-65370604D01*
X243219715Y-65572256D01*
X243736530Y-65675057D01*
X244263470Y-65675057D01*
X244780285Y-65572256D01*
X245267114Y-65370604D01*
X245705249Y-65077852D01*
X245832001Y-64951100D01*
X245832000Y-96048899D01*
X245705249Y-95922148D01*
X245267114Y-95629396D01*
X244780285Y-95427744D01*
X244263470Y-95324943D01*
X243736530Y-95324943D01*
X243219715Y-95427744D01*
X242732886Y-95629396D01*
X242294751Y-95922148D01*
X241922148Y-96294751D01*
X241629396Y-96732886D01*
X241427744Y-97219715D01*
X241324943Y-97736530D01*
X241324943Y-98263470D01*
X241427744Y-98780285D01*
X241629396Y-99267114D01*
X241922148Y-99705249D01*
X242048899Y-99832000D01*
X178951101Y-99832000D01*
X179077852Y-99705249D01*
X179370604Y-99267114D01*
X179572256Y-98780285D01*
X179675057Y-98263470D01*
X179675057Y-97736530D01*
X179572256Y-97219715D01*
X179370604Y-96732886D01*
X179077852Y-96294751D01*
X178705249Y-95922148D01*
X178267114Y-95629396D01*
X177780285Y-95427744D01*
X177263470Y-95324943D01*
X176736530Y-95324943D01*
X176219715Y-95427744D01*
X175732886Y-95629396D01*
X175294751Y-95922148D01*
X174922148Y-96294751D01*
X174629396Y-96732886D01*
X174427744Y-97219715D01*
X174324943Y-97736530D01*
X174324943Y-98263470D01*
X174427744Y-98780285D01*
X174629396Y-99267114D01*
X174922148Y-99705249D01*
X175048899Y-99832000D01*
X171164577Y-99832000D01*
X171284157Y-99631252D01*
X171381481Y-99356891D01*
X171260814Y-99127000D01*
X170067000Y-99127000D01*
X170067000Y-99147000D01*
X169813000Y-99147000D01*
X169813000Y-99127000D01*
X169793000Y-99127000D01*
X169793000Y-98873000D01*
X169813000Y-98873000D01*
X169813000Y-97679845D01*
X170067000Y-97679845D01*
X170067000Y-98873000D01*
X171260814Y-98873000D01*
X171381481Y-98643109D01*
X171284157Y-98368748D01*
X171135178Y-98118645D01*
X170940269Y-97902412D01*
X170706920Y-97728359D01*
X170444099Y-97603175D01*
X170296890Y-97558524D01*
X170067000Y-97679845D01*
X169813000Y-97679845D01*
X169583110Y-97558524D01*
X169435901Y-97603175D01*
X169173080Y-97728359D01*
X169022383Y-97840763D01*
X168948064Y-97729537D01*
X168718527Y-97500000D01*
X168948064Y-97270463D01*
X169022383Y-97159237D01*
X169173080Y-97271641D01*
X169435901Y-97396825D01*
X169583110Y-97441476D01*
X169813000Y-97320155D01*
X169813000Y-96127000D01*
X170067000Y-96127000D01*
X170067000Y-97320155D01*
X170296890Y-97441476D01*
X170444099Y-97396825D01*
X170706920Y-97271641D01*
X170940269Y-97097588D01*
X171135178Y-96881355D01*
X171284157Y-96631252D01*
X171381481Y-96356891D01*
X171260814Y-96127000D01*
X170067000Y-96127000D01*
X169813000Y-96127000D01*
X169793000Y-96127000D01*
X169793000Y-95873000D01*
X169813000Y-95873000D01*
X169813000Y-94679845D01*
X170067000Y-94679845D01*
X170067000Y-95873000D01*
X171260814Y-95873000D01*
X171381481Y-95643109D01*
X171284157Y-95368748D01*
X171135178Y-95118645D01*
X170940269Y-94902412D01*
X170706920Y-94728359D01*
X170444099Y-94603175D01*
X170296890Y-94558524D01*
X170067000Y-94679845D01*
X169813000Y-94679845D01*
X169583110Y-94558524D01*
X169435901Y-94603175D01*
X169173080Y-94728359D01*
X169022383Y-94840763D01*
X168948064Y-94729537D01*
X168838814Y-94620287D01*
X178008422Y-85450680D01*
X203098592Y-85450680D01*
X203157228Y-85456455D01*
X203215864Y-85450680D01*
X203215872Y-85450680D01*
X203391254Y-85433406D01*
X203616286Y-85365144D01*
X203823677Y-85254291D01*
X204005456Y-85105108D01*
X204042843Y-85059552D01*
X207565479Y-81536917D01*
X207611029Y-81499535D01*
X207760212Y-81317756D01*
X207871065Y-81110365D01*
X207939327Y-80885333D01*
X207956601Y-80709951D01*
X207956601Y-80709944D01*
X207962376Y-80651308D01*
X207956601Y-80592672D01*
X207956601Y-77812374D01*
X215345000Y-77812374D01*
X215345000Y-78187626D01*
X215418209Y-78555668D01*
X215561811Y-78902356D01*
X215770290Y-79214366D01*
X216035634Y-79479710D01*
X216160660Y-79563250D01*
X216054589Y-79819331D01*
X215981380Y-80187373D01*
X215981380Y-80562625D01*
X216054589Y-80930667D01*
X216198191Y-81277355D01*
X216406670Y-81589365D01*
X216672014Y-81854709D01*
X216984024Y-82063188D01*
X217330712Y-82206790D01*
X217698754Y-82279999D01*
X217720001Y-82279999D01*
X217720001Y-82301246D01*
X217793210Y-82669288D01*
X217936812Y-83015976D01*
X218145291Y-83327986D01*
X218410635Y-83593330D01*
X218722645Y-83801809D01*
X219069333Y-83945411D01*
X219437375Y-84018620D01*
X219812627Y-84018620D01*
X220180669Y-83945411D01*
X220436750Y-83839340D01*
X220520290Y-83964366D01*
X220785634Y-84229710D01*
X221097644Y-84438189D01*
X221444332Y-84581791D01*
X221812374Y-84655000D01*
X222187626Y-84655000D01*
X222555668Y-84581791D01*
X222902356Y-84438189D01*
X223214366Y-84229710D01*
X223479710Y-83964366D01*
X223563250Y-83839339D01*
X223819332Y-83945411D01*
X224187374Y-84018620D01*
X224562626Y-84018620D01*
X224930668Y-83945411D01*
X225277356Y-83801809D01*
X225589366Y-83593330D01*
X225854710Y-83327986D01*
X226063189Y-83015976D01*
X226206791Y-82669288D01*
X226280000Y-82301246D01*
X226280000Y-82279999D01*
X226301246Y-82279999D01*
X226669288Y-82206790D01*
X227015976Y-82063188D01*
X227327986Y-81854709D01*
X227593330Y-81589365D01*
X227801809Y-81277355D01*
X227945411Y-80930667D01*
X228018620Y-80562625D01*
X228018620Y-80187373D01*
X227945411Y-79819331D01*
X227839340Y-79563250D01*
X227964366Y-79479710D01*
X228229710Y-79214366D01*
X228438189Y-78902356D01*
X228581791Y-78555668D01*
X228655000Y-78187626D01*
X228655000Y-77812374D01*
X228581791Y-77444332D01*
X228438189Y-77097644D01*
X228229710Y-76785634D01*
X227964366Y-76520290D01*
X227839340Y-76436750D01*
X227945411Y-76180669D01*
X228018620Y-75812627D01*
X228018620Y-75437375D01*
X227945411Y-75069333D01*
X227801809Y-74722645D01*
X227593330Y-74410635D01*
X227327986Y-74145291D01*
X227015976Y-73936812D01*
X226669288Y-73793210D01*
X226301246Y-73720001D01*
X226280000Y-73720001D01*
X226280000Y-73698754D01*
X226206791Y-73330712D01*
X226063189Y-72984024D01*
X225854710Y-72672014D01*
X225589366Y-72406670D01*
X225277356Y-72198191D01*
X224930668Y-72054589D01*
X224562626Y-71981380D01*
X224187374Y-71981380D01*
X223819332Y-72054589D01*
X223472644Y-72198191D01*
X223160634Y-72406670D01*
X222895290Y-72672014D01*
X222686811Y-72984024D01*
X222543209Y-73330712D01*
X222470000Y-73698754D01*
X222470000Y-74074006D01*
X222543209Y-74442048D01*
X222686811Y-74788736D01*
X222895290Y-75100746D01*
X223160634Y-75366090D01*
X223472644Y-75574569D01*
X223819332Y-75718171D01*
X224187374Y-75791380D01*
X224208620Y-75791380D01*
X224208620Y-75812627D01*
X224281829Y-76180669D01*
X224425431Y-76527357D01*
X224633910Y-76839367D01*
X224899254Y-77104711D01*
X225024280Y-77188251D01*
X224918209Y-77444332D01*
X224845000Y-77812374D01*
X224845000Y-78187626D01*
X224918209Y-78555668D01*
X225024280Y-78811749D01*
X224899254Y-78895289D01*
X224633910Y-79160633D01*
X224425431Y-79472643D01*
X224281829Y-79819331D01*
X224208620Y-80187373D01*
X224208620Y-80208620D01*
X224187374Y-80208620D01*
X223819332Y-80281829D01*
X223472644Y-80425431D01*
X223160634Y-80633910D01*
X222895290Y-80899254D01*
X222811750Y-81024281D01*
X222555668Y-80918209D01*
X222187626Y-80845000D01*
X221812374Y-80845000D01*
X221444332Y-80918209D01*
X221188251Y-81024280D01*
X221104711Y-80899254D01*
X220839367Y-80633910D01*
X220527357Y-80425431D01*
X220180669Y-80281829D01*
X219812627Y-80208620D01*
X219791380Y-80208620D01*
X219791380Y-80187373D01*
X219718171Y-79819331D01*
X219574569Y-79472643D01*
X219366090Y-79160633D01*
X219100746Y-78895289D01*
X218975720Y-78811749D01*
X219081791Y-78555668D01*
X219155000Y-78187626D01*
X219155000Y-77812374D01*
X219081791Y-77444332D01*
X218975719Y-77188250D01*
X219100746Y-77104710D01*
X219366090Y-76839366D01*
X219574569Y-76527356D01*
X219718171Y-76180668D01*
X219791380Y-75812626D01*
X219791380Y-75791380D01*
X219812626Y-75791380D01*
X220180668Y-75718171D01*
X220527356Y-75574569D01*
X220839366Y-75366090D01*
X221104710Y-75100746D01*
X221313189Y-74788736D01*
X221456791Y-74442048D01*
X221530000Y-74074006D01*
X221530000Y-73698754D01*
X221456791Y-73330712D01*
X221313189Y-72984024D01*
X221104710Y-72672014D01*
X220839366Y-72406670D01*
X220527356Y-72198191D01*
X220180668Y-72054589D01*
X219812626Y-71981380D01*
X219437374Y-71981380D01*
X219069332Y-72054589D01*
X218722644Y-72198191D01*
X218410634Y-72406670D01*
X218145290Y-72672014D01*
X217936811Y-72984024D01*
X217793209Y-73330712D01*
X217720000Y-73698754D01*
X217720000Y-73720000D01*
X217698754Y-73720000D01*
X217330712Y-73793209D01*
X216984024Y-73936811D01*
X216672014Y-74145290D01*
X216406670Y-74410634D01*
X216198191Y-74722644D01*
X216054589Y-75069332D01*
X215981380Y-75437374D01*
X215981380Y-75812626D01*
X216054589Y-76180668D01*
X216160661Y-76436750D01*
X216035634Y-76520290D01*
X215770290Y-76785634D01*
X215561811Y-77097644D01*
X215418209Y-77444332D01*
X215345000Y-77812374D01*
X207956601Y-77812374D01*
X207956601Y-77572490D01*
X207962376Y-77513854D01*
X207956601Y-77455218D01*
X207956601Y-77455211D01*
X207939327Y-77279829D01*
X207871065Y-77054797D01*
X207760212Y-76847406D01*
X207611029Y-76665627D01*
X207565473Y-76628240D01*
X207121760Y-76184527D01*
X207084373Y-76138971D01*
X206972043Y-76046783D01*
X207018620Y-75812627D01*
X207018620Y-75437375D01*
X206945411Y-75069333D01*
X206801809Y-74722645D01*
X206593330Y-74410635D01*
X206327986Y-74145291D01*
X206015976Y-73936812D01*
X205669288Y-73793210D01*
X205301246Y-73720001D01*
X205280000Y-73720001D01*
X205280000Y-73698754D01*
X205206791Y-73330712D01*
X205063189Y-72984024D01*
X204854710Y-72672014D01*
X204589366Y-72406670D01*
X204277356Y-72198191D01*
X203930668Y-72054589D01*
X203562626Y-71981380D01*
X203187374Y-71981380D01*
X202819332Y-72054589D01*
X202472644Y-72198191D01*
X202160634Y-72406670D01*
X201895290Y-72672014D01*
X201686811Y-72984024D01*
X201543209Y-73330712D01*
X201470000Y-73698754D01*
X201470000Y-74074006D01*
X201474826Y-74098267D01*
X200129092Y-75444001D01*
X199722764Y-75444001D01*
X199839366Y-75366090D01*
X200104710Y-75100746D01*
X200313189Y-74788736D01*
X200456791Y-74442048D01*
X200530000Y-74074006D01*
X200530000Y-73698754D01*
X200456791Y-73330712D01*
X200313189Y-72984024D01*
X200104710Y-72672014D01*
X199839366Y-72406670D01*
X199527356Y-72198191D01*
X199180668Y-72054589D01*
X198812626Y-71981380D01*
X198437374Y-71981380D01*
X198069332Y-72054589D01*
X197722644Y-72198191D01*
X197410634Y-72406670D01*
X197145290Y-72672014D01*
X196936811Y-72984024D01*
X196793209Y-73330712D01*
X196720000Y-73698754D01*
X196720000Y-73720000D01*
X196698754Y-73720000D01*
X196674184Y-73724887D01*
X196540029Y-73614789D01*
X196332638Y-73503936D01*
X196107606Y-73435674D01*
X195932224Y-73418400D01*
X195932216Y-73418400D01*
X195873580Y-73412625D01*
X195814944Y-73418400D01*
X172224233Y-73418400D01*
X172206791Y-73330712D01*
X172063189Y-72984024D01*
X171854710Y-72672014D01*
X171589366Y-72406670D01*
X171277356Y-72198191D01*
X170930668Y-72054589D01*
X170562626Y-71981380D01*
X170187374Y-71981380D01*
X169819332Y-72054589D01*
X169472644Y-72198191D01*
X169160634Y-72406670D01*
X168895290Y-72672014D01*
X168686811Y-72984024D01*
X168543209Y-73330712D01*
X168470000Y-73698754D01*
X168470000Y-73705381D01*
X167530000Y-73705381D01*
X167530000Y-73698754D01*
X167456791Y-73330712D01*
X167313189Y-72984024D01*
X167104710Y-72672014D01*
X166839366Y-72406670D01*
X166527356Y-72198191D01*
X166180668Y-72054589D01*
X165812626Y-71981380D01*
X165437374Y-71981380D01*
X165069332Y-72054589D01*
X164722644Y-72198191D01*
X164410634Y-72406670D01*
X164145290Y-72672014D01*
X163936811Y-72984024D01*
X163793209Y-73330712D01*
X163775767Y-73418399D01*
X163458871Y-73418399D01*
X163400235Y-73412624D01*
X163341599Y-73418399D01*
X163341591Y-73418399D01*
X163166209Y-73435673D01*
X162941177Y-73503935D01*
X162733786Y-73614788D01*
X162605586Y-73720000D01*
X162552007Y-73763971D01*
X162514624Y-73809522D01*
X142636523Y-93687624D01*
X142590972Y-93725007D01*
X142441789Y-93906786D01*
X142391179Y-94001470D01*
X141150000Y-94001470D01*
X140925933Y-94023539D01*
X140710477Y-94088897D01*
X140511911Y-94195032D01*
X140337867Y-94337867D01*
X140195032Y-94511911D01*
X140088897Y-94710477D01*
X140023539Y-94925933D01*
X140001470Y-95150000D01*
X140001470Y-96850000D01*
X140023539Y-97074067D01*
X140088897Y-97289523D01*
X140195032Y-97488089D01*
X140204807Y-97500000D01*
X140195032Y-97511911D01*
X140088897Y-97710477D01*
X140023539Y-97925933D01*
X140001470Y-98150000D01*
X140001470Y-99832000D01*
X138164577Y-99832000D01*
X138284157Y-99631252D01*
X138381481Y-99356891D01*
X138260814Y-99127000D01*
X137067000Y-99127000D01*
X137067000Y-99147000D01*
X136813000Y-99147000D01*
X136813000Y-99127000D01*
X136793000Y-99127000D01*
X136793000Y-98873000D01*
X136813000Y-98873000D01*
X136813000Y-97679845D01*
X137067000Y-97679845D01*
X137067000Y-98873000D01*
X138260814Y-98873000D01*
X138381481Y-98643109D01*
X138284157Y-98368748D01*
X138135178Y-98118645D01*
X137940269Y-97902412D01*
X137706920Y-97728359D01*
X137444099Y-97603175D01*
X137296890Y-97558524D01*
X137067000Y-97679845D01*
X136813000Y-97679845D01*
X136583110Y-97558524D01*
X136435901Y-97603175D01*
X136173080Y-97728359D01*
X136022383Y-97840763D01*
X135948064Y-97729537D01*
X135718527Y-97500000D01*
X135948064Y-97270463D01*
X136022383Y-97159237D01*
X136173080Y-97271641D01*
X136435901Y-97396825D01*
X136583110Y-97441476D01*
X136813000Y-97320155D01*
X136813000Y-96127000D01*
X137067000Y-96127000D01*
X137067000Y-97320155D01*
X137296890Y-97441476D01*
X137444099Y-97396825D01*
X137706920Y-97271641D01*
X137940269Y-97097588D01*
X138135178Y-96881355D01*
X138284157Y-96631252D01*
X138381481Y-96356891D01*
X138260814Y-96127000D01*
X137067000Y-96127000D01*
X136813000Y-96127000D01*
X136793000Y-96127000D01*
X136793000Y-95873000D01*
X136813000Y-95873000D01*
X136813000Y-94679845D01*
X137067000Y-94679845D01*
X137067000Y-95873000D01*
X138260814Y-95873000D01*
X138381481Y-95643109D01*
X138284157Y-95368748D01*
X138135178Y-95118645D01*
X137940269Y-94902412D01*
X137706920Y-94728359D01*
X137444099Y-94603175D01*
X137296890Y-94558524D01*
X137067000Y-94679845D01*
X136813000Y-94679845D01*
X136583110Y-94558524D01*
X136435901Y-94603175D01*
X136173080Y-94728359D01*
X136022383Y-94840763D01*
X135948064Y-94729537D01*
X135857547Y-94639020D01*
X143323768Y-87172800D01*
X147376472Y-87172800D01*
X147435108Y-87178575D01*
X147493744Y-87172800D01*
X147493752Y-87172800D01*
X147669134Y-87155526D01*
X147894166Y-87087264D01*
X148101557Y-86976411D01*
X148283336Y-86827228D01*
X148320723Y-86781672D01*
X153565479Y-81536917D01*
X153611029Y-81499535D01*
X153760212Y-81317756D01*
X153871065Y-81110365D01*
X153939327Y-80885333D01*
X153956601Y-80709951D01*
X153956601Y-80709943D01*
X153962376Y-80651307D01*
X153956601Y-80592671D01*
X153956601Y-77572490D01*
X153962376Y-77513854D01*
X153956601Y-77455218D01*
X153956601Y-77455211D01*
X153939327Y-77279829D01*
X153871065Y-77054797D01*
X153760212Y-76847406D01*
X153611029Y-76665627D01*
X153565473Y-76628240D01*
X153121760Y-76184527D01*
X153084373Y-76138971D01*
X152972043Y-76046783D01*
X153018620Y-75812627D01*
X153018620Y-75437375D01*
X152945411Y-75069333D01*
X152801809Y-74722645D01*
X152593330Y-74410635D01*
X152327986Y-74145291D01*
X152015976Y-73936812D01*
X151669288Y-73793210D01*
X151301246Y-73720001D01*
X151280000Y-73720001D01*
X151280000Y-73698754D01*
X151206791Y-73330712D01*
X151063189Y-72984024D01*
X150854710Y-72672014D01*
X150589366Y-72406670D01*
X150277356Y-72198191D01*
X149930668Y-72054589D01*
X149562626Y-71981380D01*
X149187374Y-71981380D01*
X148819332Y-72054589D01*
X148472644Y-72198191D01*
X148160634Y-72406670D01*
X147895290Y-72672014D01*
X147686811Y-72984024D01*
X147543209Y-73330712D01*
X147470000Y-73698754D01*
X147470000Y-74074006D01*
X147474826Y-74098267D01*
X146129092Y-75444001D01*
X145722764Y-75444001D01*
X145839366Y-75366090D01*
X146104710Y-75100746D01*
X146313189Y-74788736D01*
X146456791Y-74442048D01*
X146530000Y-74074006D01*
X146530000Y-73698754D01*
X146456791Y-73330712D01*
X146313189Y-72984024D01*
X146104710Y-72672014D01*
X145839366Y-72406670D01*
X145527356Y-72198191D01*
X145180668Y-72054589D01*
X144812626Y-71981380D01*
X144437374Y-71981380D01*
X144069332Y-72054589D01*
X143722644Y-72198191D01*
X143410634Y-72406670D01*
X143145290Y-72672014D01*
X142936811Y-72984024D01*
X142793209Y-73330712D01*
X142720000Y-73698754D01*
X142720000Y-73720000D01*
X142698754Y-73720000D01*
X142330712Y-73793209D01*
X141984024Y-73936811D01*
X141672014Y-74145290D01*
X141406670Y-74410634D01*
X141392928Y-74431200D01*
X130344449Y-74431200D01*
X130285813Y-74425425D01*
X130227177Y-74431200D01*
X130227170Y-74431200D01*
X130051788Y-74448474D01*
X129826756Y-74516736D01*
X129619365Y-74627589D01*
X129437586Y-74776772D01*
X129400203Y-74822323D01*
X110169913Y-94052614D01*
X110074067Y-94023539D01*
X109850000Y-94001470D01*
X108150000Y-94001470D01*
X107925933Y-94023539D01*
X107710477Y-94088897D01*
X107511911Y-94195032D01*
X107337867Y-94337867D01*
X107195032Y-94511911D01*
X107088897Y-94710477D01*
X107023539Y-94925933D01*
X107001470Y-95150000D01*
X107001470Y-96850000D01*
X107023539Y-97074067D01*
X107088897Y-97289523D01*
X107195032Y-97488089D01*
X107204807Y-97500000D01*
X107195032Y-97511911D01*
X107088897Y-97710477D01*
X107023539Y-97925933D01*
X107001470Y-98150000D01*
X107001470Y-99832000D01*
X105164577Y-99832000D01*
X105284157Y-99631252D01*
X105381481Y-99356891D01*
X105260814Y-99127000D01*
X104067000Y-99127000D01*
X104067000Y-99147000D01*
X103813000Y-99147000D01*
X103813000Y-99127000D01*
X103793000Y-99127000D01*
X103793000Y-98873000D01*
X103813000Y-98873000D01*
X103813000Y-97679845D01*
X104067000Y-97679845D01*
X104067000Y-98873000D01*
X105260814Y-98873000D01*
X105381481Y-98643109D01*
X105284157Y-98368748D01*
X105135178Y-98118645D01*
X104940269Y-97902412D01*
X104706920Y-97728359D01*
X104444099Y-97603175D01*
X104296890Y-97558524D01*
X104067000Y-97679845D01*
X103813000Y-97679845D01*
X103583110Y-97558524D01*
X103435901Y-97603175D01*
X103173080Y-97728359D01*
X103022383Y-97840763D01*
X102948064Y-97729537D01*
X102718527Y-97500000D01*
X102948064Y-97270463D01*
X103022383Y-97159237D01*
X103173080Y-97271641D01*
X103435901Y-97396825D01*
X103583110Y-97441476D01*
X103813000Y-97320155D01*
X103813000Y-96127000D01*
X104067000Y-96127000D01*
X104067000Y-97320155D01*
X104296890Y-97441476D01*
X104444099Y-97396825D01*
X104706920Y-97271641D01*
X104940269Y-97097588D01*
X105135178Y-96881355D01*
X105284157Y-96631252D01*
X105381481Y-96356891D01*
X105260814Y-96127000D01*
X104067000Y-96127000D01*
X103813000Y-96127000D01*
X103793000Y-96127000D01*
X103793000Y-95873000D01*
X103813000Y-95873000D01*
X103813000Y-94679845D01*
X104067000Y-94679845D01*
X104067000Y-95873000D01*
X105260814Y-95873000D01*
X105381481Y-95643109D01*
X105284157Y-95368748D01*
X105135178Y-95118645D01*
X104940269Y-94902412D01*
X104706920Y-94728359D01*
X104444099Y-94603175D01*
X104296890Y-94558524D01*
X104067000Y-94679845D01*
X103813000Y-94679845D01*
X103583110Y-94558524D01*
X103435901Y-94603175D01*
X103173080Y-94728359D01*
X103022383Y-94840763D01*
X102948064Y-94729537D01*
X102670463Y-94451936D01*
X102644600Y-94434655D01*
X102644600Y-77812374D01*
X107345000Y-77812374D01*
X107345000Y-78187626D01*
X107418209Y-78555668D01*
X107561811Y-78902356D01*
X107770290Y-79214366D01*
X108035634Y-79479710D01*
X108160660Y-79563250D01*
X108054589Y-79819331D01*
X107981380Y-80187373D01*
X107981380Y-80562625D01*
X108054589Y-80930667D01*
X108198191Y-81277355D01*
X108406670Y-81589365D01*
X108672014Y-81854709D01*
X108984024Y-82063188D01*
X109330712Y-82206790D01*
X109698754Y-82279999D01*
X109720001Y-82279999D01*
X109720001Y-82301246D01*
X109793210Y-82669288D01*
X109936812Y-83015976D01*
X110145291Y-83327986D01*
X110410635Y-83593330D01*
X110722645Y-83801809D01*
X111069333Y-83945411D01*
X111437375Y-84018620D01*
X111812627Y-84018620D01*
X112180669Y-83945411D01*
X112436750Y-83839340D01*
X112520290Y-83964366D01*
X112785634Y-84229710D01*
X113097644Y-84438189D01*
X113444332Y-84581791D01*
X113812374Y-84655000D01*
X114187626Y-84655000D01*
X114555668Y-84581791D01*
X114902356Y-84438189D01*
X115214366Y-84229710D01*
X115479710Y-83964366D01*
X115563250Y-83839339D01*
X115819332Y-83945411D01*
X116187374Y-84018620D01*
X116562626Y-84018620D01*
X116930668Y-83945411D01*
X117277356Y-83801809D01*
X117589366Y-83593330D01*
X117854710Y-83327986D01*
X118063189Y-83015976D01*
X118206791Y-82669288D01*
X118280000Y-82301246D01*
X118280000Y-82279999D01*
X118301246Y-82279999D01*
X118669288Y-82206790D01*
X119015976Y-82063188D01*
X119327986Y-81854709D01*
X119593330Y-81589365D01*
X119801809Y-81277355D01*
X119945411Y-80930667D01*
X120018620Y-80562625D01*
X120018620Y-80187373D01*
X119945411Y-79819331D01*
X119839340Y-79563250D01*
X119964366Y-79479710D01*
X120229710Y-79214366D01*
X120438189Y-78902356D01*
X120581791Y-78555668D01*
X120655000Y-78187626D01*
X120655000Y-77812374D01*
X120581791Y-77444332D01*
X120438189Y-77097644D01*
X120229710Y-76785634D01*
X119964366Y-76520290D01*
X119839340Y-76436750D01*
X119945411Y-76180669D01*
X120018620Y-75812627D01*
X120018620Y-75437375D01*
X119945411Y-75069333D01*
X119801809Y-74722645D01*
X119593330Y-74410635D01*
X119327986Y-74145291D01*
X119015976Y-73936812D01*
X118669288Y-73793210D01*
X118301246Y-73720001D01*
X118280000Y-73720001D01*
X118280000Y-73698754D01*
X118206791Y-73330712D01*
X118063189Y-72984024D01*
X117854710Y-72672014D01*
X117589366Y-72406670D01*
X117277356Y-72198191D01*
X116930668Y-72054589D01*
X116562626Y-71981380D01*
X116187374Y-71981380D01*
X115819332Y-72054589D01*
X115472644Y-72198191D01*
X115160634Y-72406670D01*
X114895290Y-72672014D01*
X114686811Y-72984024D01*
X114543209Y-73330712D01*
X114470000Y-73698754D01*
X114470000Y-74074006D01*
X114543209Y-74442048D01*
X114686811Y-74788736D01*
X114895290Y-75100746D01*
X115160634Y-75366090D01*
X115472644Y-75574569D01*
X115819332Y-75718171D01*
X116187374Y-75791380D01*
X116208620Y-75791380D01*
X116208620Y-75812627D01*
X116281829Y-76180669D01*
X116425431Y-76527357D01*
X116633910Y-76839367D01*
X116899254Y-77104711D01*
X117024280Y-77188251D01*
X116918209Y-77444332D01*
X116845000Y-77812374D01*
X116845000Y-78187626D01*
X116918209Y-78555668D01*
X117024280Y-78811749D01*
X116899254Y-78895289D01*
X116633910Y-79160633D01*
X116425431Y-79472643D01*
X116281829Y-79819331D01*
X116208620Y-80187373D01*
X116208620Y-80208620D01*
X116187374Y-80208620D01*
X115819332Y-80281829D01*
X115472644Y-80425431D01*
X115160634Y-80633910D01*
X114895290Y-80899254D01*
X114811750Y-81024281D01*
X114555668Y-80918209D01*
X114187626Y-80845000D01*
X113812374Y-80845000D01*
X113444332Y-80918209D01*
X113188251Y-81024280D01*
X113104711Y-80899254D01*
X112839367Y-80633910D01*
X112527357Y-80425431D01*
X112180669Y-80281829D01*
X111812627Y-80208620D01*
X111791380Y-80208620D01*
X111791380Y-80187373D01*
X111718171Y-79819331D01*
X111574569Y-79472643D01*
X111366090Y-79160633D01*
X111100746Y-78895289D01*
X110975720Y-78811749D01*
X111081791Y-78555668D01*
X111155000Y-78187626D01*
X111155000Y-77812374D01*
X111081791Y-77444332D01*
X110975719Y-77188250D01*
X111100746Y-77104710D01*
X111366090Y-76839366D01*
X111574569Y-76527356D01*
X111718171Y-76180668D01*
X111791380Y-75812626D01*
X111791380Y-75791380D01*
X111812626Y-75791380D01*
X112180668Y-75718171D01*
X112527356Y-75574569D01*
X112839366Y-75366090D01*
X113104710Y-75100746D01*
X113313189Y-74788736D01*
X113456791Y-74442048D01*
X113530000Y-74074006D01*
X113530000Y-73698754D01*
X113456791Y-73330712D01*
X113313189Y-72984024D01*
X113104710Y-72672014D01*
X112839366Y-72406670D01*
X112527356Y-72198191D01*
X112180668Y-72054589D01*
X111812626Y-71981380D01*
X111437374Y-71981380D01*
X111069332Y-72054589D01*
X110722644Y-72198191D01*
X110410634Y-72406670D01*
X110145290Y-72672014D01*
X109936811Y-72984024D01*
X109793209Y-73330712D01*
X109720000Y-73698754D01*
X109720000Y-73720000D01*
X109698754Y-73720000D01*
X109330712Y-73793209D01*
X108984024Y-73936811D01*
X108672014Y-74145290D01*
X108406670Y-74410634D01*
X108198191Y-74722644D01*
X108054589Y-75069332D01*
X107981380Y-75437374D01*
X107981380Y-75812626D01*
X108054589Y-76180668D01*
X108160661Y-76436750D01*
X108035634Y-76520290D01*
X107770290Y-76785634D01*
X107561811Y-77097644D01*
X107418209Y-77444332D01*
X107345000Y-77812374D01*
X102644600Y-77812374D01*
X102644600Y-74594787D01*
X102723568Y-74404143D01*
X102777100Y-74135019D01*
X102777100Y-73860621D01*
X102723568Y-73591497D01*
X102618560Y-73337987D01*
X102466114Y-73109834D01*
X102272086Y-72915806D01*
X102043933Y-72763360D01*
X101790423Y-72658352D01*
X101521299Y-72604820D01*
X101246901Y-72604820D01*
X100977777Y-72658352D01*
X100724267Y-72763360D01*
X100496114Y-72915806D01*
X100302086Y-73109834D01*
X100149640Y-73337987D01*
X100044632Y-73591497D01*
X99991100Y-73860621D01*
X99991100Y-74135019D01*
X100044632Y-74404143D01*
X100149640Y-74657653D01*
X100155401Y-74666275D01*
X100155401Y-77218167D01*
X99121760Y-76184527D01*
X99084373Y-76138971D01*
X98972043Y-76046783D01*
X99018620Y-75812627D01*
X99018620Y-75437375D01*
X98945411Y-75069333D01*
X98801809Y-74722645D01*
X98593330Y-74410635D01*
X98327986Y-74145291D01*
X98015976Y-73936812D01*
X97669288Y-73793210D01*
X97301246Y-73720001D01*
X97280000Y-73720001D01*
X97280000Y-73698754D01*
X97206791Y-73330712D01*
X97063189Y-72984024D01*
X96854710Y-72672014D01*
X96589366Y-72406670D01*
X96277356Y-72198191D01*
X95930668Y-72054589D01*
X95562626Y-71981380D01*
X95187374Y-71981380D01*
X94819332Y-72054589D01*
X94472644Y-72198191D01*
X94160634Y-72406670D01*
X93895290Y-72672014D01*
X93881548Y-72692580D01*
X92646802Y-72692580D01*
X92588166Y-72686805D01*
X92529530Y-72692580D01*
X92529522Y-72692580D01*
X92354140Y-72709854D01*
X92167769Y-72766388D01*
X92104710Y-72672014D01*
X91839366Y-72406670D01*
X91527356Y-72198191D01*
X91180668Y-72054589D01*
X90812626Y-71981380D01*
X90437374Y-71981380D01*
X90069332Y-72054589D01*
X89722644Y-72198191D01*
X89410634Y-72406670D01*
X89145290Y-72672014D01*
X88936811Y-72984024D01*
X88793209Y-73330712D01*
X88720000Y-73698754D01*
X88720000Y-73720000D01*
X88698754Y-73720000D01*
X88330712Y-73793209D01*
X87984024Y-73936811D01*
X87672014Y-74145290D01*
X87406670Y-74410634D01*
X87394946Y-74428180D01*
X87366977Y-74425425D01*
X87308341Y-74431200D01*
X87308334Y-74431200D01*
X87132952Y-74448474D01*
X86907920Y-74516736D01*
X86700529Y-74627589D01*
X86518750Y-74776772D01*
X86481367Y-74822323D01*
X78536515Y-82767176D01*
X78490964Y-82804559D01*
X78453581Y-82850110D01*
X78453580Y-82850111D01*
X78440594Y-82865935D01*
X78341781Y-82986338D01*
X78291528Y-83080354D01*
X78230927Y-83193730D01*
X78162665Y-83418762D01*
X78139616Y-83652787D01*
X78145392Y-83711431D01*
X78145391Y-84677702D01*
X76636522Y-86186570D01*
X76590972Y-86223953D01*
X76553589Y-86269504D01*
X76553588Y-86269505D01*
X76528973Y-86299499D01*
X76441789Y-86405732D01*
X76382536Y-86516586D01*
X76330935Y-86613124D01*
X76262673Y-86838156D01*
X76239624Y-87072181D01*
X76245400Y-87130827D01*
X76245399Y-94001470D01*
X75150000Y-94001470D01*
X74925933Y-94023539D01*
X74710477Y-94088897D01*
X74511911Y-94195032D01*
X74337867Y-94337867D01*
X74195032Y-94511911D01*
X74088897Y-94710477D01*
X74023539Y-94925933D01*
X74001470Y-95150000D01*
X74001470Y-96850000D01*
X74023539Y-97074067D01*
X74088897Y-97289523D01*
X74195032Y-97488089D01*
X74204807Y-97500000D01*
X74195032Y-97511911D01*
X74088897Y-97710477D01*
X74023539Y-97925933D01*
X74001470Y-98150000D01*
X74001470Y-99832000D01*
X71951101Y-99832000D01*
X72077852Y-99705249D01*
X72370604Y-99267114D01*
X72572256Y-98780285D01*
X72675057Y-98263470D01*
X72675057Y-97736530D01*
X72572256Y-97219715D01*
X72370604Y-96732886D01*
X72077852Y-96294751D01*
X71705249Y-95922148D01*
X71267114Y-95629396D01*
X70780285Y-95427744D01*
X70263470Y-95324943D01*
X69736530Y-95324943D01*
X69219715Y-95427744D01*
X68732886Y-95629396D01*
X68294751Y-95922148D01*
X68168000Y-96048899D01*
X68168000Y-64951101D01*
X68294751Y-65077852D01*
X68732886Y-65370604D01*
X69219715Y-65572256D01*
X69736530Y-65675057D01*
X70263470Y-65675057D01*
X70780285Y-65572256D01*
X71267114Y-65370604D01*
X71705249Y-65077852D01*
X72077852Y-64705249D01*
X72370604Y-64267114D01*
X72572256Y-63780285D01*
X72675057Y-63263470D01*
X72675057Y-62736530D01*
X72572256Y-62219715D01*
X72370604Y-61732886D01*
X72077852Y-61294751D01*
X71951101Y-61168000D01*
X175048899Y-61168000D01*
X174922148Y-61294751D01*
%TD*%
M02*
