%TF.GenerationSoftware,KiCad,Pcbnew,(5.1.5-131-g305ed0b65)-1*%
%TF.CreationDate,2020-07-18T18:38:28+08:00*%
%TF.ProjectId,IN-8,494e2d38-2e6b-4696-9361-645f70636258,rev?*%
%TF.SameCoordinates,Original*%
%TF.FileFunction,Legend,Top*%
%TF.FilePolarity,Positive*%
%FSLAX46Y46*%
G04 Gerber Fmt 4.6, Leading zero omitted, Abs format (unit mm)*
G04 Created by KiCad (PCBNEW (5.1.5-131-g305ed0b65)-1) date 2020-07-18 18:38:28*
%MOMM*%
%LPD*%
G01*
G04 APERTURE LIST*
%ADD10C,0.150000*%
%ADD11C,0.200000*%
%ADD12C,0.381000*%
%ADD13C,0.010000*%
%ADD14C,0.120000*%
G04 APERTURE END LIST*
D10*
X70952380Y-71452380D02*
X70952380Y-70452380D01*
X70952380Y-70928571D02*
X71523809Y-70928571D01*
X71523809Y-71452380D02*
X71523809Y-70452380D01*
X72000000Y-71452380D02*
X72000000Y-70452380D01*
X73000000Y-70500000D02*
X72904761Y-70452380D01*
X72761904Y-70452380D01*
X72619047Y-70500000D01*
X72523809Y-70595238D01*
X72476190Y-70690476D01*
X72428571Y-70880952D01*
X72428571Y-71023809D01*
X72476190Y-71214285D01*
X72523809Y-71309523D01*
X72619047Y-71404761D01*
X72761904Y-71452380D01*
X72857142Y-71452380D01*
X73000000Y-71404761D01*
X73047619Y-71357142D01*
X73047619Y-71023809D01*
X72857142Y-71023809D01*
X73476190Y-71452380D02*
X73476190Y-70452380D01*
X73476190Y-70928571D02*
X74047619Y-70928571D01*
X74047619Y-71452380D02*
X74047619Y-70452380D01*
X75142857Y-70452380D02*
X75476190Y-71452380D01*
X75809523Y-70452380D01*
X76333333Y-70452380D02*
X76523809Y-70452380D01*
X76619047Y-70500000D01*
X76714285Y-70595238D01*
X76761904Y-70785714D01*
X76761904Y-71119047D01*
X76714285Y-71309523D01*
X76619047Y-71404761D01*
X76523809Y-71452380D01*
X76333333Y-71452380D01*
X76238095Y-71404761D01*
X76142857Y-71309523D01*
X76095238Y-71119047D01*
X76095238Y-70785714D01*
X76142857Y-70595238D01*
X76238095Y-70500000D01*
X76333333Y-70452380D01*
X77666666Y-71452380D02*
X77190476Y-71452380D01*
X77190476Y-70452380D01*
X77857142Y-70452380D02*
X78428571Y-70452380D01*
X78142857Y-71452380D02*
X78142857Y-70452380D01*
X78714285Y-71166666D02*
X79190476Y-71166666D01*
X78619047Y-71452380D02*
X78952380Y-70452380D01*
X79285714Y-71452380D01*
X80142857Y-70500000D02*
X80047619Y-70452380D01*
X79904761Y-70452380D01*
X79761904Y-70500000D01*
X79666666Y-70595238D01*
X79619047Y-70690476D01*
X79571428Y-70880952D01*
X79571428Y-71023809D01*
X79619047Y-71214285D01*
X79666666Y-71309523D01*
X79761904Y-71404761D01*
X79904761Y-71452380D01*
X80000000Y-71452380D01*
X80142857Y-71404761D01*
X80190476Y-71357142D01*
X80190476Y-71023809D01*
X80000000Y-71023809D01*
X80619047Y-70928571D02*
X80952380Y-70928571D01*
X81095238Y-71452380D02*
X80619047Y-71452380D01*
X80619047Y-70452380D01*
X81095238Y-70452380D01*
X185595238Y-98785714D02*
X185595238Y-99595238D01*
X185547619Y-99690476D01*
X185500000Y-99738095D01*
X185404761Y-99785714D01*
X185261904Y-99785714D01*
X185166666Y-99738095D01*
X185595238Y-99404761D02*
X185500000Y-99452380D01*
X185309523Y-99452380D01*
X185214285Y-99404761D01*
X185166666Y-99357142D01*
X185119047Y-99261904D01*
X185119047Y-98976190D01*
X185166666Y-98880952D01*
X185214285Y-98833333D01*
X185309523Y-98785714D01*
X185500000Y-98785714D01*
X185595238Y-98833333D01*
X186071428Y-99452380D02*
X186071428Y-98785714D01*
X186071428Y-98452380D02*
X186023809Y-98500000D01*
X186071428Y-98547619D01*
X186119047Y-98500000D01*
X186071428Y-98452380D01*
X186071428Y-98547619D01*
X186404761Y-98785714D02*
X186785714Y-98785714D01*
X186547619Y-98452380D02*
X186547619Y-99309523D01*
X186595238Y-99404761D01*
X186690476Y-99452380D01*
X186785714Y-99452380D01*
X187119047Y-99452380D02*
X187119047Y-98452380D01*
X187547619Y-99452380D02*
X187547619Y-98928571D01*
X187500000Y-98833333D01*
X187404761Y-98785714D01*
X187261904Y-98785714D01*
X187166666Y-98833333D01*
X187119047Y-98880952D01*
X188452380Y-98785714D02*
X188452380Y-99452380D01*
X188023809Y-98785714D02*
X188023809Y-99309523D01*
X188071428Y-99404761D01*
X188166666Y-99452380D01*
X188309523Y-99452380D01*
X188404761Y-99404761D01*
X188452380Y-99357142D01*
X188928571Y-99452380D02*
X188928571Y-98452380D01*
X188928571Y-98833333D02*
X189023809Y-98785714D01*
X189214285Y-98785714D01*
X189309523Y-98833333D01*
X189357142Y-98880952D01*
X189404761Y-98976190D01*
X189404761Y-99261904D01*
X189357142Y-99357142D01*
X189309523Y-99404761D01*
X189214285Y-99452380D01*
X189023809Y-99452380D01*
X188928571Y-99404761D01*
X189833333Y-99357142D02*
X189880952Y-99404761D01*
X189833333Y-99452380D01*
X189785714Y-99404761D01*
X189833333Y-99357142D01*
X189833333Y-99452380D01*
X190738095Y-99404761D02*
X190642857Y-99452380D01*
X190452380Y-99452380D01*
X190357142Y-99404761D01*
X190309523Y-99357142D01*
X190261904Y-99261904D01*
X190261904Y-98976190D01*
X190309523Y-98880952D01*
X190357142Y-98833333D01*
X190452380Y-98785714D01*
X190642857Y-98785714D01*
X190738095Y-98833333D01*
X191309523Y-99452380D02*
X191214285Y-99404761D01*
X191166666Y-99357142D01*
X191119047Y-99261904D01*
X191119047Y-98976190D01*
X191166666Y-98880952D01*
X191214285Y-98833333D01*
X191309523Y-98785714D01*
X191452380Y-98785714D01*
X191547619Y-98833333D01*
X191595238Y-98880952D01*
X191642857Y-98976190D01*
X191642857Y-99261904D01*
X191595238Y-99357142D01*
X191547619Y-99404761D01*
X191452380Y-99452380D01*
X191309523Y-99452380D01*
X192071428Y-99452380D02*
X192071428Y-98785714D01*
X192071428Y-98880952D02*
X192119047Y-98833333D01*
X192214285Y-98785714D01*
X192357142Y-98785714D01*
X192452380Y-98833333D01*
X192500000Y-98928571D01*
X192500000Y-99452380D01*
X192500000Y-98928571D02*
X192547619Y-98833333D01*
X192642857Y-98785714D01*
X192785714Y-98785714D01*
X192880952Y-98833333D01*
X192928571Y-98928571D01*
X192928571Y-99452380D01*
X194119047Y-98404761D02*
X193261904Y-99690476D01*
X194452380Y-99452380D02*
X194452380Y-98452380D01*
X194690476Y-98452380D01*
X194833333Y-98500000D01*
X194928571Y-98595238D01*
X194976190Y-98690476D01*
X195023809Y-98880952D01*
X195023809Y-99023809D01*
X194976190Y-99214285D01*
X194928571Y-99309523D01*
X194833333Y-99404761D01*
X194690476Y-99452380D01*
X194452380Y-99452380D01*
X195880952Y-99452380D02*
X195880952Y-98928571D01*
X195833333Y-98833333D01*
X195738095Y-98785714D01*
X195547619Y-98785714D01*
X195452380Y-98833333D01*
X195880952Y-99404761D02*
X195785714Y-99452380D01*
X195547619Y-99452380D01*
X195452380Y-99404761D01*
X195404761Y-99309523D01*
X195404761Y-99214285D01*
X195452380Y-99119047D01*
X195547619Y-99071428D01*
X195785714Y-99071428D01*
X195880952Y-99023809D01*
X196357142Y-98785714D02*
X196357142Y-99452380D01*
X196357142Y-98880952D02*
X196404761Y-98833333D01*
X196500000Y-98785714D01*
X196642857Y-98785714D01*
X196738095Y-98833333D01*
X196785714Y-98928571D01*
X196785714Y-99452380D01*
X197261904Y-99452380D02*
X197261904Y-98785714D01*
X197261904Y-98452380D02*
X197214285Y-98500000D01*
X197261904Y-98547619D01*
X197309523Y-98500000D01*
X197261904Y-98452380D01*
X197261904Y-98547619D01*
X198119047Y-99404761D02*
X198023809Y-99452380D01*
X197833333Y-99452380D01*
X197738095Y-99404761D01*
X197690476Y-99309523D01*
X197690476Y-98928571D01*
X197738095Y-98833333D01*
X197833333Y-98785714D01*
X198023809Y-98785714D01*
X198119047Y-98833333D01*
X198166666Y-98928571D01*
X198166666Y-99023809D01*
X197690476Y-99119047D01*
X198738095Y-99452380D02*
X198642857Y-99404761D01*
X198595238Y-99309523D01*
X198595238Y-98452380D01*
X199119047Y-99452380D02*
X199119047Y-98452380D01*
X199119047Y-98928571D02*
X199690476Y-98928571D01*
X199690476Y-99452380D02*
X199690476Y-98452380D01*
X200547619Y-99404761D02*
X200452380Y-99452380D01*
X200261904Y-99452380D01*
X200166666Y-99404761D01*
X200119047Y-99309523D01*
X200119047Y-98928571D01*
X200166666Y-98833333D01*
X200261904Y-98785714D01*
X200452380Y-98785714D01*
X200547619Y-98833333D01*
X200595238Y-98928571D01*
X200595238Y-99023809D01*
X200119047Y-99119047D01*
X201023809Y-98928571D02*
X201357142Y-98928571D01*
X201500000Y-99452380D02*
X201023809Y-99452380D01*
X201023809Y-98452380D01*
X201500000Y-98452380D01*
X202452380Y-98500000D02*
X202357142Y-98452380D01*
X202214285Y-98452380D01*
X202071428Y-98500000D01*
X201976190Y-98595238D01*
X201928571Y-98690476D01*
X201880952Y-98880952D01*
X201880952Y-99023809D01*
X201928571Y-99214285D01*
X201976190Y-99309523D01*
X202071428Y-99404761D01*
X202214285Y-99452380D01*
X202309523Y-99452380D01*
X202452380Y-99404761D01*
X202500000Y-99357142D01*
X202500000Y-99023809D01*
X202309523Y-99023809D01*
X203452380Y-98500000D02*
X203357142Y-98452380D01*
X203214285Y-98452380D01*
X203071428Y-98500000D01*
X202976190Y-98595238D01*
X202928571Y-98690476D01*
X202880952Y-98880952D01*
X202880952Y-99023809D01*
X202928571Y-99214285D01*
X202976190Y-99309523D01*
X203071428Y-99404761D01*
X203214285Y-99452380D01*
X203309523Y-99452380D01*
X203452380Y-99404761D01*
X203500000Y-99357142D01*
X203500000Y-99023809D01*
X203309523Y-99023809D01*
X204642857Y-98404761D02*
X203785714Y-99690476D01*
X204976190Y-99452380D02*
X204976190Y-98452380D01*
X205547619Y-99452380D01*
X205547619Y-98452380D01*
X206023809Y-99452380D02*
X206023809Y-98785714D01*
X206023809Y-98452380D02*
X205976190Y-98500000D01*
X206023809Y-98547619D01*
X206071428Y-98500000D01*
X206023809Y-98452380D01*
X206023809Y-98547619D01*
X206404761Y-99452380D02*
X206928571Y-98785714D01*
X206404761Y-98785714D02*
X206928571Y-99452380D01*
X207309523Y-99452380D02*
X207309523Y-98785714D01*
X207309523Y-98452380D02*
X207261904Y-98500000D01*
X207309523Y-98547619D01*
X207357142Y-98500000D01*
X207309523Y-98452380D01*
X207309523Y-98547619D01*
X208166666Y-99404761D02*
X208071428Y-99452380D01*
X207880952Y-99452380D01*
X207785714Y-99404761D01*
X207738095Y-99309523D01*
X207738095Y-98928571D01*
X207785714Y-98833333D01*
X207880952Y-98785714D01*
X208071428Y-98785714D01*
X208166666Y-98833333D01*
X208214285Y-98928571D01*
X208214285Y-99023809D01*
X207738095Y-99119047D01*
X208642857Y-99071428D02*
X209404761Y-99071428D01*
X210452380Y-99357142D02*
X210404761Y-99404761D01*
X210261904Y-99452380D01*
X210166666Y-99452380D01*
X210023809Y-99404761D01*
X209928571Y-99309523D01*
X209880952Y-99214285D01*
X209833333Y-99023809D01*
X209833333Y-98880952D01*
X209880952Y-98690476D01*
X209928571Y-98595238D01*
X210023809Y-98500000D01*
X210166666Y-98452380D01*
X210261904Y-98452380D01*
X210404761Y-98500000D01*
X210452380Y-98547619D01*
X211023809Y-99452380D02*
X210928571Y-99404761D01*
X210880952Y-99357142D01*
X210833333Y-99261904D01*
X210833333Y-98976190D01*
X210880952Y-98880952D01*
X210928571Y-98833333D01*
X211023809Y-98785714D01*
X211166666Y-98785714D01*
X211261904Y-98833333D01*
X211309523Y-98880952D01*
X211357142Y-98976190D01*
X211357142Y-99261904D01*
X211309523Y-99357142D01*
X211261904Y-99404761D01*
X211166666Y-99452380D01*
X211023809Y-99452380D01*
X211785714Y-98785714D02*
X211785714Y-99452380D01*
X211785714Y-98880952D02*
X211833333Y-98833333D01*
X211928571Y-98785714D01*
X212071428Y-98785714D01*
X212166666Y-98833333D01*
X212214285Y-98928571D01*
X212214285Y-99452380D01*
X212547619Y-98785714D02*
X212928571Y-98785714D01*
X212690476Y-98452380D02*
X212690476Y-99309523D01*
X212738095Y-99404761D01*
X212833333Y-99452380D01*
X212928571Y-99452380D01*
X213261904Y-99452380D02*
X213261904Y-98785714D01*
X213261904Y-98976190D02*
X213309523Y-98880952D01*
X213357142Y-98833333D01*
X213452380Y-98785714D01*
X213547619Y-98785714D01*
X214023809Y-99452380D02*
X213928571Y-99404761D01*
X213880952Y-99357142D01*
X213833333Y-99261904D01*
X213833333Y-98976190D01*
X213880952Y-98880952D01*
X213928571Y-98833333D01*
X214023809Y-98785714D01*
X214166666Y-98785714D01*
X214261904Y-98833333D01*
X214309523Y-98880952D01*
X214357142Y-98976190D01*
X214357142Y-99261904D01*
X214309523Y-99357142D01*
X214261904Y-99404761D01*
X214166666Y-99452380D01*
X214023809Y-99452380D01*
X214928571Y-99452380D02*
X214833333Y-99404761D01*
X214785714Y-99309523D01*
X214785714Y-98452380D01*
X215452380Y-99452380D02*
X215357142Y-99404761D01*
X215309523Y-99309523D01*
X215309523Y-98452380D01*
X216214285Y-99404761D02*
X216119047Y-99452380D01*
X215928571Y-99452380D01*
X215833333Y-99404761D01*
X215785714Y-99309523D01*
X215785714Y-98928571D01*
X215833333Y-98833333D01*
X215928571Y-98785714D01*
X216119047Y-98785714D01*
X216214285Y-98833333D01*
X216261904Y-98928571D01*
X216261904Y-99023809D01*
X215785714Y-99119047D01*
X216690476Y-99452380D02*
X216690476Y-98785714D01*
X216690476Y-98976190D02*
X216738095Y-98880952D01*
X216785714Y-98833333D01*
X216880952Y-98785714D01*
X216976190Y-98785714D01*
D11*
X182392857Y-97678571D02*
X182392857Y-96178571D01*
X182392857Y-96892857D02*
X183249999Y-96892857D01*
X183249999Y-97678571D02*
X183249999Y-96178571D01*
X184535714Y-97607142D02*
X184392857Y-97678571D01*
X184107142Y-97678571D01*
X183964285Y-97607142D01*
X183892857Y-97464285D01*
X183892857Y-96892857D01*
X183964285Y-96750000D01*
X184107142Y-96678571D01*
X184392857Y-96678571D01*
X184535714Y-96750000D01*
X184607142Y-96892857D01*
X184607142Y-97035714D01*
X183892857Y-97178571D01*
X185107142Y-97678571D02*
X185892857Y-96678571D01*
X185107142Y-96678571D02*
X185892857Y-97678571D01*
X187607142Y-97678571D02*
X187607142Y-96178571D01*
X188321428Y-97678571D02*
X188321428Y-96178571D01*
X189178571Y-97678571D01*
X189178571Y-96178571D01*
X189892857Y-97107142D02*
X191035714Y-97107142D01*
X191964285Y-96821428D02*
X191821428Y-96750000D01*
X191749999Y-96678571D01*
X191678571Y-96535714D01*
X191678571Y-96464285D01*
X191749999Y-96321428D01*
X191821428Y-96250000D01*
X191964285Y-96178571D01*
X192249999Y-96178571D01*
X192392857Y-96250000D01*
X192464285Y-96321428D01*
X192535714Y-96464285D01*
X192535714Y-96535714D01*
X192464285Y-96678571D01*
X192392857Y-96750000D01*
X192249999Y-96821428D01*
X191964285Y-96821428D01*
X191821428Y-96892857D01*
X191749999Y-96964285D01*
X191678571Y-97107142D01*
X191678571Y-97392857D01*
X191749999Y-97535714D01*
X191821428Y-97607142D01*
X191964285Y-97678571D01*
X192249999Y-97678571D01*
X192392857Y-97607142D01*
X192464285Y-97535714D01*
X192535714Y-97392857D01*
X192535714Y-97107142D01*
X192464285Y-96964285D01*
X192392857Y-96892857D01*
X192249999Y-96821428D01*
X194321428Y-97678571D02*
X194321428Y-96178571D01*
X195178571Y-97678571D01*
X195178571Y-96178571D01*
X195892857Y-97678571D02*
X195892857Y-96678571D01*
X195892857Y-96178571D02*
X195821428Y-96250000D01*
X195892857Y-96321428D01*
X195964285Y-96250000D01*
X195892857Y-96178571D01*
X195892857Y-96321428D01*
X196464285Y-97678571D02*
X197249999Y-96678571D01*
X196464285Y-96678571D02*
X197249999Y-97678571D01*
X197821428Y-97678571D02*
X197821428Y-96678571D01*
X197821428Y-96178571D02*
X197749999Y-96250000D01*
X197821428Y-96321428D01*
X197892857Y-96250000D01*
X197821428Y-96178571D01*
X197821428Y-96321428D01*
X199107142Y-97607142D02*
X198964285Y-97678571D01*
X198678571Y-97678571D01*
X198535714Y-97607142D01*
X198464285Y-97464285D01*
X198464285Y-96892857D01*
X198535714Y-96750000D01*
X198678571Y-96678571D01*
X198964285Y-96678571D01*
X199107142Y-96750000D01*
X199178571Y-96892857D01*
X199178571Y-97035714D01*
X198464285Y-97178571D01*
X200749999Y-96178571D02*
X201607142Y-96178571D01*
X201178571Y-97678571D02*
X201178571Y-96178571D01*
X202749999Y-96678571D02*
X202749999Y-97678571D01*
X202107142Y-96678571D02*
X202107142Y-97464285D01*
X202178571Y-97607142D01*
X202321428Y-97678571D01*
X202535714Y-97678571D01*
X202678571Y-97607142D01*
X202749999Y-97535714D01*
X203464285Y-97678571D02*
X203464285Y-96178571D01*
X203464285Y-96750000D02*
X203607142Y-96678571D01*
X203892857Y-96678571D01*
X204035714Y-96750000D01*
X204107142Y-96821428D01*
X204178571Y-96964285D01*
X204178571Y-97392857D01*
X204107142Y-97535714D01*
X204035714Y-97607142D01*
X203892857Y-97678571D01*
X203607142Y-97678571D01*
X203464285Y-97607142D01*
X205392857Y-97607142D02*
X205250000Y-97678571D01*
X204964285Y-97678571D01*
X204821428Y-97607142D01*
X204750000Y-97464285D01*
X204750000Y-96892857D01*
X204821428Y-96750000D01*
X204964285Y-96678571D01*
X205250000Y-96678571D01*
X205392857Y-96750000D01*
X205464285Y-96892857D01*
X205464285Y-97035714D01*
X204750000Y-97178571D01*
X207178571Y-97607142D02*
X207392857Y-97678571D01*
X207750000Y-97678571D01*
X207892857Y-97607142D01*
X207964285Y-97535714D01*
X208035714Y-97392857D01*
X208035714Y-97250000D01*
X207964285Y-97107142D01*
X207892857Y-97035714D01*
X207750000Y-96964285D01*
X207464285Y-96892857D01*
X207321428Y-96821428D01*
X207250000Y-96750000D01*
X207178571Y-96607142D01*
X207178571Y-96464285D01*
X207250000Y-96321428D01*
X207321428Y-96250000D01*
X207464285Y-96178571D01*
X207821428Y-96178571D01*
X208035714Y-96250000D01*
X208892857Y-97678571D02*
X208750000Y-97607142D01*
X208678571Y-97535714D01*
X208607142Y-97392857D01*
X208607142Y-96964285D01*
X208678571Y-96821428D01*
X208750000Y-96750000D01*
X208892857Y-96678571D01*
X209107142Y-96678571D01*
X209250000Y-96750000D01*
X209321428Y-96821428D01*
X209392857Y-96964285D01*
X209392857Y-97392857D01*
X209321428Y-97535714D01*
X209250000Y-97607142D01*
X209107142Y-97678571D01*
X208892857Y-97678571D01*
X210678571Y-97607142D02*
X210535714Y-97678571D01*
X210250000Y-97678571D01*
X210107142Y-97607142D01*
X210035714Y-97535714D01*
X209964285Y-97392857D01*
X209964285Y-96964285D01*
X210035714Y-96821428D01*
X210107142Y-96750000D01*
X210250000Y-96678571D01*
X210535714Y-96678571D01*
X210678571Y-96750000D01*
X211321428Y-97678571D02*
X211321428Y-96178571D01*
X211464285Y-97107142D02*
X211892857Y-97678571D01*
X211892857Y-96678571D02*
X211321428Y-97250000D01*
X213107142Y-97607142D02*
X212964285Y-97678571D01*
X212678571Y-97678571D01*
X212535714Y-97607142D01*
X212464285Y-97464285D01*
X212464285Y-96892857D01*
X212535714Y-96750000D01*
X212678571Y-96678571D01*
X212964285Y-96678571D01*
X213107142Y-96750000D01*
X213178571Y-96892857D01*
X213178571Y-97035714D01*
X212464285Y-97178571D01*
X213607142Y-96678571D02*
X214178571Y-96678571D01*
X213821428Y-96178571D02*
X213821428Y-97464285D01*
X213892857Y-97607142D01*
X214035714Y-97678571D01*
X214178571Y-97678571D01*
X216321428Y-96892857D02*
X216535714Y-96964285D01*
X216607142Y-97035714D01*
X216678571Y-97178571D01*
X216678571Y-97392857D01*
X216607142Y-97535714D01*
X216535714Y-97607142D01*
X216392857Y-97678571D01*
X215821428Y-97678571D01*
X215821428Y-96178571D01*
X216321428Y-96178571D01*
X216464285Y-96250000D01*
X216535714Y-96321428D01*
X216607142Y-96464285D01*
X216607142Y-96607142D01*
X216535714Y-96750000D01*
X216464285Y-96821428D01*
X216321428Y-96892857D01*
X215821428Y-96892857D01*
X217535714Y-97678571D02*
X217392857Y-97607142D01*
X217321428Y-97535714D01*
X217250000Y-97392857D01*
X217250000Y-96964285D01*
X217321428Y-96821428D01*
X217392857Y-96750000D01*
X217535714Y-96678571D01*
X217750000Y-96678571D01*
X217892857Y-96750000D01*
X217964285Y-96821428D01*
X218035714Y-96964285D01*
X218035714Y-97392857D01*
X217964285Y-97535714D01*
X217892857Y-97607142D01*
X217750000Y-97678571D01*
X217535714Y-97678571D01*
X219321428Y-97678571D02*
X219321428Y-96892857D01*
X219250000Y-96750000D01*
X219107142Y-96678571D01*
X218821428Y-96678571D01*
X218678571Y-96750000D01*
X219321428Y-97607142D02*
X219178571Y-97678571D01*
X218821428Y-97678571D01*
X218678571Y-97607142D01*
X218607142Y-97464285D01*
X218607142Y-97321428D01*
X218678571Y-97178571D01*
X218821428Y-97107142D01*
X219178571Y-97107142D01*
X219321428Y-97035714D01*
X220035714Y-97678571D02*
X220035714Y-96678571D01*
X220035714Y-96964285D02*
X220107142Y-96821428D01*
X220178571Y-96750000D01*
X220321428Y-96678571D01*
X220464285Y-96678571D01*
X221607142Y-97678571D02*
X221607142Y-96178571D01*
X221607142Y-97607142D02*
X221464285Y-97678571D01*
X221178571Y-97678571D01*
X221035714Y-97607142D01*
X220964285Y-97535714D01*
X220892857Y-97392857D01*
X220892857Y-96964285D01*
X220964285Y-96821428D01*
X221035714Y-96750000D01*
X221178571Y-96678571D01*
X221464285Y-96678571D01*
X221607142Y-96750000D01*
D12*
%TO.C,REF\u002A\u002A*%
X71301000Y-69794000D02*
X76000000Y-62809000D01*
X80699000Y-69794000D02*
X71301000Y-69794000D01*
X76000000Y-62809000D02*
X80699000Y-69794000D01*
X75502160Y-69199640D02*
X75400560Y-68300480D01*
X76299720Y-66400560D02*
X75502160Y-69199640D01*
X75100840Y-67200660D02*
X76299720Y-66400560D01*
X75900940Y-64200920D02*
X75100840Y-67200660D01*
X75502160Y-69199640D02*
X76101600Y-68501140D01*
X75100840Y-67200660D02*
X76401320Y-64399040D01*
X76701040Y-66100840D02*
X76101600Y-66499620D01*
X75502160Y-69199640D02*
X76701040Y-66100840D01*
D13*
G36*
X230103910Y-94242348D02*
G01*
X230182454Y-94242778D01*
X230239298Y-94243942D01*
X230278105Y-94246207D01*
X230302538Y-94249940D01*
X230316262Y-94255506D01*
X230322940Y-94263273D01*
X230326236Y-94273605D01*
X230326556Y-94274943D01*
X230331562Y-94299079D01*
X230340829Y-94346701D01*
X230353392Y-94412741D01*
X230368287Y-94492128D01*
X230384551Y-94579796D01*
X230385119Y-94582875D01*
X230401410Y-94668789D01*
X230416652Y-94744696D01*
X230429861Y-94806045D01*
X230440054Y-94848282D01*
X230446248Y-94866855D01*
X230446543Y-94867184D01*
X230464788Y-94876253D01*
X230502405Y-94891367D01*
X230551271Y-94909262D01*
X230551543Y-94909358D01*
X230613093Y-94932493D01*
X230685657Y-94961965D01*
X230754057Y-94991597D01*
X230757294Y-94993062D01*
X230868702Y-95043626D01*
X231115399Y-94875160D01*
X231191077Y-94823803D01*
X231259631Y-94777889D01*
X231317088Y-94740030D01*
X231359476Y-94712837D01*
X231382825Y-94698921D01*
X231385042Y-94697889D01*
X231402010Y-94702484D01*
X231433701Y-94724655D01*
X231481352Y-94765447D01*
X231546198Y-94825905D01*
X231612397Y-94890227D01*
X231676214Y-94953612D01*
X231733329Y-95011451D01*
X231780305Y-95060175D01*
X231813703Y-95096210D01*
X231830085Y-95115984D01*
X231830694Y-95117002D01*
X231832505Y-95130572D01*
X231825683Y-95152733D01*
X231808540Y-95186478D01*
X231779393Y-95234800D01*
X231736555Y-95300692D01*
X231679448Y-95385517D01*
X231628766Y-95460177D01*
X231583461Y-95527140D01*
X231546150Y-95582516D01*
X231519452Y-95622420D01*
X231505985Y-95642962D01*
X231505137Y-95644356D01*
X231506781Y-95664038D01*
X231519245Y-95702293D01*
X231540048Y-95751889D01*
X231547462Y-95767728D01*
X231579814Y-95838290D01*
X231614328Y-95918353D01*
X231642365Y-95987629D01*
X231662568Y-96039045D01*
X231678615Y-96078119D01*
X231687888Y-96098541D01*
X231689041Y-96100114D01*
X231706096Y-96102721D01*
X231746298Y-96109863D01*
X231804302Y-96120523D01*
X231874763Y-96133685D01*
X231952335Y-96148333D01*
X232031672Y-96163449D01*
X232107431Y-96178018D01*
X232174264Y-96191022D01*
X232226828Y-96201445D01*
X232259776Y-96208270D01*
X232267857Y-96210199D01*
X232276205Y-96214962D01*
X232282506Y-96225718D01*
X232287045Y-96246098D01*
X232290104Y-96279734D01*
X232291967Y-96330255D01*
X232292918Y-96401292D01*
X232293240Y-96496476D01*
X232293257Y-96535492D01*
X232293257Y-96852799D01*
X232217057Y-96867839D01*
X232174663Y-96875995D01*
X232111400Y-96887899D01*
X232034962Y-96902116D01*
X231953043Y-96917210D01*
X231930400Y-96921355D01*
X231854806Y-96936053D01*
X231788953Y-96950505D01*
X231738366Y-96963375D01*
X231708574Y-96973322D01*
X231703612Y-96976287D01*
X231691426Y-96997283D01*
X231673953Y-97037967D01*
X231654577Y-97090322D01*
X231650734Y-97101600D01*
X231625339Y-97171523D01*
X231593817Y-97250418D01*
X231562969Y-97321266D01*
X231562817Y-97321595D01*
X231511447Y-97432733D01*
X231680399Y-97681253D01*
X231849352Y-97929772D01*
X231632429Y-98147058D01*
X231566819Y-98211726D01*
X231506979Y-98268733D01*
X231456267Y-98315033D01*
X231418046Y-98347584D01*
X231395675Y-98363343D01*
X231392466Y-98364343D01*
X231373626Y-98356469D01*
X231335180Y-98334578D01*
X231281330Y-98301267D01*
X231216276Y-98259131D01*
X231145940Y-98211943D01*
X231074555Y-98163810D01*
X231010908Y-98121928D01*
X230959041Y-98088871D01*
X230922995Y-98067218D01*
X230906867Y-98059543D01*
X230887189Y-98066037D01*
X230849875Y-98083150D01*
X230802621Y-98107326D01*
X230797612Y-98110013D01*
X230733977Y-98141927D01*
X230690341Y-98157579D01*
X230663202Y-98157745D01*
X230649057Y-98143204D01*
X230648975Y-98143000D01*
X230641905Y-98125779D01*
X230625042Y-98084899D01*
X230599695Y-98023525D01*
X230567171Y-97944819D01*
X230528778Y-97851947D01*
X230485822Y-97748072D01*
X230444222Y-97647502D01*
X230398504Y-97536516D01*
X230356526Y-97433703D01*
X230319548Y-97342215D01*
X230288827Y-97265201D01*
X230265622Y-97205815D01*
X230251190Y-97167209D01*
X230246743Y-97152800D01*
X230257896Y-97136272D01*
X230287069Y-97109930D01*
X230325971Y-97080887D01*
X230436757Y-96989039D01*
X230523351Y-96883759D01*
X230584716Y-96767266D01*
X230619815Y-96641776D01*
X230627608Y-96509507D01*
X230621943Y-96448457D01*
X230591078Y-96321795D01*
X230537920Y-96209941D01*
X230465767Y-96114001D01*
X230377917Y-96035076D01*
X230277665Y-95974270D01*
X230168310Y-95932687D01*
X230053147Y-95911428D01*
X229935475Y-95911599D01*
X229818590Y-95934301D01*
X229705789Y-95980638D01*
X229600369Y-96051713D01*
X229556368Y-96091911D01*
X229471979Y-96195129D01*
X229413222Y-96307925D01*
X229379704Y-96427010D01*
X229371035Y-96549095D01*
X229386823Y-96670893D01*
X229426678Y-96789116D01*
X229490207Y-96900475D01*
X229577021Y-97001684D01*
X229674029Y-97080887D01*
X229714437Y-97111162D01*
X229742982Y-97137219D01*
X229753257Y-97152825D01*
X229747877Y-97169843D01*
X229732575Y-97210500D01*
X229708612Y-97271642D01*
X229677244Y-97350119D01*
X229639732Y-97442780D01*
X229597333Y-97546472D01*
X229555663Y-97647526D01*
X229509690Y-97758607D01*
X229467107Y-97861541D01*
X229429221Y-97953165D01*
X229397340Y-98030316D01*
X229372771Y-98089831D01*
X229356820Y-98128544D01*
X229350910Y-98143000D01*
X229336948Y-98157685D01*
X229309940Y-98157642D01*
X229266413Y-98142099D01*
X229202890Y-98110284D01*
X229202388Y-98110013D01*
X229154560Y-98085323D01*
X229115897Y-98067338D01*
X229094095Y-98059614D01*
X229093133Y-98059543D01*
X229076721Y-98067378D01*
X229040487Y-98089165D01*
X228988474Y-98122328D01*
X228924725Y-98164291D01*
X228854060Y-98211943D01*
X228782116Y-98260191D01*
X228717274Y-98302151D01*
X228663735Y-98335227D01*
X228625697Y-98356821D01*
X228607533Y-98364343D01*
X228590808Y-98354457D01*
X228557180Y-98326826D01*
X228510010Y-98284495D01*
X228452658Y-98230505D01*
X228388484Y-98167899D01*
X228367497Y-98146983D01*
X228150499Y-97929623D01*
X228315668Y-97687220D01*
X228365864Y-97612781D01*
X228409919Y-97545972D01*
X228445362Y-97490665D01*
X228469719Y-97450729D01*
X228480522Y-97430036D01*
X228480838Y-97428563D01*
X228475143Y-97409058D01*
X228459826Y-97369822D01*
X228437537Y-97317430D01*
X228421893Y-97282355D01*
X228392641Y-97215201D01*
X228365094Y-97147358D01*
X228343737Y-97090034D01*
X228337935Y-97072572D01*
X228321452Y-97025938D01*
X228305340Y-96989905D01*
X228296490Y-96976287D01*
X228276960Y-96967952D01*
X228234334Y-96956137D01*
X228174145Y-96942181D01*
X228101922Y-96927422D01*
X228069600Y-96921355D01*
X227987522Y-96906273D01*
X227908795Y-96891669D01*
X227841109Y-96878980D01*
X227792160Y-96869642D01*
X227782943Y-96867839D01*
X227706743Y-96852799D01*
X227706743Y-96535492D01*
X227706914Y-96431154D01*
X227707616Y-96352213D01*
X227709134Y-96295038D01*
X227711749Y-96255999D01*
X227715746Y-96231465D01*
X227721409Y-96217805D01*
X227729020Y-96211389D01*
X227732143Y-96210199D01*
X227750978Y-96205980D01*
X227792588Y-96197562D01*
X227851630Y-96185961D01*
X227922757Y-96172195D01*
X228000625Y-96157280D01*
X228079887Y-96142232D01*
X228155198Y-96128069D01*
X228221213Y-96115806D01*
X228272587Y-96106461D01*
X228303975Y-96101050D01*
X228310959Y-96100114D01*
X228317285Y-96087596D01*
X228331290Y-96054246D01*
X228350355Y-96006377D01*
X228357634Y-95987629D01*
X228386996Y-95915195D01*
X228421571Y-95835170D01*
X228452537Y-95767728D01*
X228475323Y-95716159D01*
X228490482Y-95673785D01*
X228495542Y-95647834D01*
X228494736Y-95644356D01*
X228484041Y-95627936D01*
X228459620Y-95591417D01*
X228424095Y-95538687D01*
X228380087Y-95473635D01*
X228330217Y-95400151D01*
X228320356Y-95385645D01*
X228262492Y-95299704D01*
X228219956Y-95234261D01*
X228191054Y-95186304D01*
X228174090Y-95152820D01*
X228167367Y-95130795D01*
X228169190Y-95117217D01*
X228169236Y-95117131D01*
X228183586Y-95099297D01*
X228215323Y-95064817D01*
X228261010Y-95017268D01*
X228317204Y-94960222D01*
X228380468Y-94897255D01*
X228387602Y-94890227D01*
X228467330Y-94813020D01*
X228528857Y-94756330D01*
X228573421Y-94719110D01*
X228602257Y-94700315D01*
X228614958Y-94697889D01*
X228633494Y-94708471D01*
X228671961Y-94732916D01*
X228726386Y-94768612D01*
X228792798Y-94812947D01*
X228867225Y-94863311D01*
X228884601Y-94875160D01*
X229131297Y-95043626D01*
X229242706Y-94993062D01*
X229310457Y-94963595D01*
X229383183Y-94933959D01*
X229445703Y-94910330D01*
X229448457Y-94909358D01*
X229497360Y-94891457D01*
X229535057Y-94876320D01*
X229553425Y-94867210D01*
X229553456Y-94867184D01*
X229559285Y-94850717D01*
X229569192Y-94810219D01*
X229582195Y-94750242D01*
X229597309Y-94675340D01*
X229613552Y-94590064D01*
X229614881Y-94582875D01*
X229631175Y-94495014D01*
X229646133Y-94415260D01*
X229658791Y-94348681D01*
X229668186Y-94300347D01*
X229673354Y-94275325D01*
X229673444Y-94274943D01*
X229676589Y-94264299D01*
X229682704Y-94256262D01*
X229695453Y-94250467D01*
X229718500Y-94246547D01*
X229755509Y-94244135D01*
X229810144Y-94242865D01*
X229886067Y-94242371D01*
X229986944Y-94242286D01*
X230000000Y-94242286D01*
X230103910Y-94242348D01*
G37*
X230103910Y-94242348D02*
X230182454Y-94242778D01*
X230239298Y-94243942D01*
X230278105Y-94246207D01*
X230302538Y-94249940D01*
X230316262Y-94255506D01*
X230322940Y-94263273D01*
X230326236Y-94273605D01*
X230326556Y-94274943D01*
X230331562Y-94299079D01*
X230340829Y-94346701D01*
X230353392Y-94412741D01*
X230368287Y-94492128D01*
X230384551Y-94579796D01*
X230385119Y-94582875D01*
X230401410Y-94668789D01*
X230416652Y-94744696D01*
X230429861Y-94806045D01*
X230440054Y-94848282D01*
X230446248Y-94866855D01*
X230446543Y-94867184D01*
X230464788Y-94876253D01*
X230502405Y-94891367D01*
X230551271Y-94909262D01*
X230551543Y-94909358D01*
X230613093Y-94932493D01*
X230685657Y-94961965D01*
X230754057Y-94991597D01*
X230757294Y-94993062D01*
X230868702Y-95043626D01*
X231115399Y-94875160D01*
X231191077Y-94823803D01*
X231259631Y-94777889D01*
X231317088Y-94740030D01*
X231359476Y-94712837D01*
X231382825Y-94698921D01*
X231385042Y-94697889D01*
X231402010Y-94702484D01*
X231433701Y-94724655D01*
X231481352Y-94765447D01*
X231546198Y-94825905D01*
X231612397Y-94890227D01*
X231676214Y-94953612D01*
X231733329Y-95011451D01*
X231780305Y-95060175D01*
X231813703Y-95096210D01*
X231830085Y-95115984D01*
X231830694Y-95117002D01*
X231832505Y-95130572D01*
X231825683Y-95152733D01*
X231808540Y-95186478D01*
X231779393Y-95234800D01*
X231736555Y-95300692D01*
X231679448Y-95385517D01*
X231628766Y-95460177D01*
X231583461Y-95527140D01*
X231546150Y-95582516D01*
X231519452Y-95622420D01*
X231505985Y-95642962D01*
X231505137Y-95644356D01*
X231506781Y-95664038D01*
X231519245Y-95702293D01*
X231540048Y-95751889D01*
X231547462Y-95767728D01*
X231579814Y-95838290D01*
X231614328Y-95918353D01*
X231642365Y-95987629D01*
X231662568Y-96039045D01*
X231678615Y-96078119D01*
X231687888Y-96098541D01*
X231689041Y-96100114D01*
X231706096Y-96102721D01*
X231746298Y-96109863D01*
X231804302Y-96120523D01*
X231874763Y-96133685D01*
X231952335Y-96148333D01*
X232031672Y-96163449D01*
X232107431Y-96178018D01*
X232174264Y-96191022D01*
X232226828Y-96201445D01*
X232259776Y-96208270D01*
X232267857Y-96210199D01*
X232276205Y-96214962D01*
X232282506Y-96225718D01*
X232287045Y-96246098D01*
X232290104Y-96279734D01*
X232291967Y-96330255D01*
X232292918Y-96401292D01*
X232293240Y-96496476D01*
X232293257Y-96535492D01*
X232293257Y-96852799D01*
X232217057Y-96867839D01*
X232174663Y-96875995D01*
X232111400Y-96887899D01*
X232034962Y-96902116D01*
X231953043Y-96917210D01*
X231930400Y-96921355D01*
X231854806Y-96936053D01*
X231788953Y-96950505D01*
X231738366Y-96963375D01*
X231708574Y-96973322D01*
X231703612Y-96976287D01*
X231691426Y-96997283D01*
X231673953Y-97037967D01*
X231654577Y-97090322D01*
X231650734Y-97101600D01*
X231625339Y-97171523D01*
X231593817Y-97250418D01*
X231562969Y-97321266D01*
X231562817Y-97321595D01*
X231511447Y-97432733D01*
X231680399Y-97681253D01*
X231849352Y-97929772D01*
X231632429Y-98147058D01*
X231566819Y-98211726D01*
X231506979Y-98268733D01*
X231456267Y-98315033D01*
X231418046Y-98347584D01*
X231395675Y-98363343D01*
X231392466Y-98364343D01*
X231373626Y-98356469D01*
X231335180Y-98334578D01*
X231281330Y-98301267D01*
X231216276Y-98259131D01*
X231145940Y-98211943D01*
X231074555Y-98163810D01*
X231010908Y-98121928D01*
X230959041Y-98088871D01*
X230922995Y-98067218D01*
X230906867Y-98059543D01*
X230887189Y-98066037D01*
X230849875Y-98083150D01*
X230802621Y-98107326D01*
X230797612Y-98110013D01*
X230733977Y-98141927D01*
X230690341Y-98157579D01*
X230663202Y-98157745D01*
X230649057Y-98143204D01*
X230648975Y-98143000D01*
X230641905Y-98125779D01*
X230625042Y-98084899D01*
X230599695Y-98023525D01*
X230567171Y-97944819D01*
X230528778Y-97851947D01*
X230485822Y-97748072D01*
X230444222Y-97647502D01*
X230398504Y-97536516D01*
X230356526Y-97433703D01*
X230319548Y-97342215D01*
X230288827Y-97265201D01*
X230265622Y-97205815D01*
X230251190Y-97167209D01*
X230246743Y-97152800D01*
X230257896Y-97136272D01*
X230287069Y-97109930D01*
X230325971Y-97080887D01*
X230436757Y-96989039D01*
X230523351Y-96883759D01*
X230584716Y-96767266D01*
X230619815Y-96641776D01*
X230627608Y-96509507D01*
X230621943Y-96448457D01*
X230591078Y-96321795D01*
X230537920Y-96209941D01*
X230465767Y-96114001D01*
X230377917Y-96035076D01*
X230277665Y-95974270D01*
X230168310Y-95932687D01*
X230053147Y-95911428D01*
X229935475Y-95911599D01*
X229818590Y-95934301D01*
X229705789Y-95980638D01*
X229600369Y-96051713D01*
X229556368Y-96091911D01*
X229471979Y-96195129D01*
X229413222Y-96307925D01*
X229379704Y-96427010D01*
X229371035Y-96549095D01*
X229386823Y-96670893D01*
X229426678Y-96789116D01*
X229490207Y-96900475D01*
X229577021Y-97001684D01*
X229674029Y-97080887D01*
X229714437Y-97111162D01*
X229742982Y-97137219D01*
X229753257Y-97152825D01*
X229747877Y-97169843D01*
X229732575Y-97210500D01*
X229708612Y-97271642D01*
X229677244Y-97350119D01*
X229639732Y-97442780D01*
X229597333Y-97546472D01*
X229555663Y-97647526D01*
X229509690Y-97758607D01*
X229467107Y-97861541D01*
X229429221Y-97953165D01*
X229397340Y-98030316D01*
X229372771Y-98089831D01*
X229356820Y-98128544D01*
X229350910Y-98143000D01*
X229336948Y-98157685D01*
X229309940Y-98157642D01*
X229266413Y-98142099D01*
X229202890Y-98110284D01*
X229202388Y-98110013D01*
X229154560Y-98085323D01*
X229115897Y-98067338D01*
X229094095Y-98059614D01*
X229093133Y-98059543D01*
X229076721Y-98067378D01*
X229040487Y-98089165D01*
X228988474Y-98122328D01*
X228924725Y-98164291D01*
X228854060Y-98211943D01*
X228782116Y-98260191D01*
X228717274Y-98302151D01*
X228663735Y-98335227D01*
X228625697Y-98356821D01*
X228607533Y-98364343D01*
X228590808Y-98354457D01*
X228557180Y-98326826D01*
X228510010Y-98284495D01*
X228452658Y-98230505D01*
X228388484Y-98167899D01*
X228367497Y-98146983D01*
X228150499Y-97929623D01*
X228315668Y-97687220D01*
X228365864Y-97612781D01*
X228409919Y-97545972D01*
X228445362Y-97490665D01*
X228469719Y-97450729D01*
X228480522Y-97430036D01*
X228480838Y-97428563D01*
X228475143Y-97409058D01*
X228459826Y-97369822D01*
X228437537Y-97317430D01*
X228421893Y-97282355D01*
X228392641Y-97215201D01*
X228365094Y-97147358D01*
X228343737Y-97090034D01*
X228337935Y-97072572D01*
X228321452Y-97025938D01*
X228305340Y-96989905D01*
X228296490Y-96976287D01*
X228276960Y-96967952D01*
X228234334Y-96956137D01*
X228174145Y-96942181D01*
X228101922Y-96927422D01*
X228069600Y-96921355D01*
X227987522Y-96906273D01*
X227908795Y-96891669D01*
X227841109Y-96878980D01*
X227792160Y-96869642D01*
X227782943Y-96867839D01*
X227706743Y-96852799D01*
X227706743Y-96535492D01*
X227706914Y-96431154D01*
X227707616Y-96352213D01*
X227709134Y-96295038D01*
X227711749Y-96255999D01*
X227715746Y-96231465D01*
X227721409Y-96217805D01*
X227729020Y-96211389D01*
X227732143Y-96210199D01*
X227750978Y-96205980D01*
X227792588Y-96197562D01*
X227851630Y-96185961D01*
X227922757Y-96172195D01*
X228000625Y-96157280D01*
X228079887Y-96142232D01*
X228155198Y-96128069D01*
X228221213Y-96115806D01*
X228272587Y-96106461D01*
X228303975Y-96101050D01*
X228310959Y-96100114D01*
X228317285Y-96087596D01*
X228331290Y-96054246D01*
X228350355Y-96006377D01*
X228357634Y-95987629D01*
X228386996Y-95915195D01*
X228421571Y-95835170D01*
X228452537Y-95767728D01*
X228475323Y-95716159D01*
X228490482Y-95673785D01*
X228495542Y-95647834D01*
X228494736Y-95644356D01*
X228484041Y-95627936D01*
X228459620Y-95591417D01*
X228424095Y-95538687D01*
X228380087Y-95473635D01*
X228330217Y-95400151D01*
X228320356Y-95385645D01*
X228262492Y-95299704D01*
X228219956Y-95234261D01*
X228191054Y-95186304D01*
X228174090Y-95152820D01*
X228167367Y-95130795D01*
X228169190Y-95117217D01*
X228169236Y-95117131D01*
X228183586Y-95099297D01*
X228215323Y-95064817D01*
X228261010Y-95017268D01*
X228317204Y-94960222D01*
X228380468Y-94897255D01*
X228387602Y-94890227D01*
X228467330Y-94813020D01*
X228528857Y-94756330D01*
X228573421Y-94719110D01*
X228602257Y-94700315D01*
X228614958Y-94697889D01*
X228633494Y-94708471D01*
X228671961Y-94732916D01*
X228726386Y-94768612D01*
X228792798Y-94812947D01*
X228867225Y-94863311D01*
X228884601Y-94875160D01*
X229131297Y-95043626D01*
X229242706Y-94993062D01*
X229310457Y-94963595D01*
X229383183Y-94933959D01*
X229445703Y-94910330D01*
X229448457Y-94909358D01*
X229497360Y-94891457D01*
X229535057Y-94876320D01*
X229553425Y-94867210D01*
X229553456Y-94867184D01*
X229559285Y-94850717D01*
X229569192Y-94810219D01*
X229582195Y-94750242D01*
X229597309Y-94675340D01*
X229613552Y-94590064D01*
X229614881Y-94582875D01*
X229631175Y-94495014D01*
X229646133Y-94415260D01*
X229658791Y-94348681D01*
X229668186Y-94300347D01*
X229673354Y-94275325D01*
X229673444Y-94274943D01*
X229676589Y-94264299D01*
X229682704Y-94256262D01*
X229695453Y-94250467D01*
X229718500Y-94246547D01*
X229755509Y-94244135D01*
X229810144Y-94242865D01*
X229886067Y-94242371D01*
X229986944Y-94242286D01*
X230000000Y-94242286D01*
X230103910Y-94242348D01*
G36*
X233153595Y-98966966D02*
G01*
X233211021Y-99004497D01*
X233238719Y-99038096D01*
X233260662Y-99099064D01*
X233262405Y-99147308D01*
X233258457Y-99211816D01*
X233109686Y-99276934D01*
X233037349Y-99310202D01*
X232990084Y-99336964D01*
X232965507Y-99360144D01*
X232961237Y-99382667D01*
X232974889Y-99407455D01*
X232989943Y-99423886D01*
X233033746Y-99450235D01*
X233081389Y-99452081D01*
X233125145Y-99431546D01*
X233157289Y-99390752D01*
X233163038Y-99376347D01*
X233190576Y-99331356D01*
X233222258Y-99312182D01*
X233265714Y-99295779D01*
X233265714Y-99357966D01*
X233261872Y-99400283D01*
X233246823Y-99435969D01*
X233215280Y-99476943D01*
X233210592Y-99482267D01*
X233175506Y-99518720D01*
X233145347Y-99538283D01*
X233107615Y-99547283D01*
X233076335Y-99550230D01*
X233020385Y-99550965D01*
X232980555Y-99541660D01*
X232955708Y-99527846D01*
X232916656Y-99497467D01*
X232889625Y-99464613D01*
X232872517Y-99423294D01*
X232863238Y-99367521D01*
X232859693Y-99291305D01*
X232859410Y-99252622D01*
X232860372Y-99206247D01*
X232948007Y-99206247D01*
X232949023Y-99231126D01*
X232951556Y-99235200D01*
X232968274Y-99229665D01*
X233004249Y-99215017D01*
X233052331Y-99194190D01*
X233062386Y-99189714D01*
X233123152Y-99158814D01*
X233156632Y-99131657D01*
X233163990Y-99106220D01*
X233146391Y-99080481D01*
X233131856Y-99069109D01*
X233079410Y-99046364D01*
X233030322Y-99050122D01*
X232989227Y-99077884D01*
X232960758Y-99127152D01*
X232951631Y-99166257D01*
X232948007Y-99206247D01*
X232860372Y-99206247D01*
X232861285Y-99162249D01*
X232868196Y-99095384D01*
X232881884Y-99046695D01*
X232904096Y-99010849D01*
X232936574Y-98982513D01*
X232950733Y-98973355D01*
X233015053Y-98949507D01*
X233085473Y-98948006D01*
X233153595Y-98966966D01*
G37*
X233153595Y-98966966D02*
X233211021Y-99004497D01*
X233238719Y-99038096D01*
X233260662Y-99099064D01*
X233262405Y-99147308D01*
X233258457Y-99211816D01*
X233109686Y-99276934D01*
X233037349Y-99310202D01*
X232990084Y-99336964D01*
X232965507Y-99360144D01*
X232961237Y-99382667D01*
X232974889Y-99407455D01*
X232989943Y-99423886D01*
X233033746Y-99450235D01*
X233081389Y-99452081D01*
X233125145Y-99431546D01*
X233157289Y-99390752D01*
X233163038Y-99376347D01*
X233190576Y-99331356D01*
X233222258Y-99312182D01*
X233265714Y-99295779D01*
X233265714Y-99357966D01*
X233261872Y-99400283D01*
X233246823Y-99435969D01*
X233215280Y-99476943D01*
X233210592Y-99482267D01*
X233175506Y-99518720D01*
X233145347Y-99538283D01*
X233107615Y-99547283D01*
X233076335Y-99550230D01*
X233020385Y-99550965D01*
X232980555Y-99541660D01*
X232955708Y-99527846D01*
X232916656Y-99497467D01*
X232889625Y-99464613D01*
X232872517Y-99423294D01*
X232863238Y-99367521D01*
X232859693Y-99291305D01*
X232859410Y-99252622D01*
X232860372Y-99206247D01*
X232948007Y-99206247D01*
X232949023Y-99231126D01*
X232951556Y-99235200D01*
X232968274Y-99229665D01*
X233004249Y-99215017D01*
X233052331Y-99194190D01*
X233062386Y-99189714D01*
X233123152Y-99158814D01*
X233156632Y-99131657D01*
X233163990Y-99106220D01*
X233146391Y-99080481D01*
X233131856Y-99069109D01*
X233079410Y-99046364D01*
X233030322Y-99050122D01*
X232989227Y-99077884D01*
X232960758Y-99127152D01*
X232951631Y-99166257D01*
X232948007Y-99206247D01*
X232860372Y-99206247D01*
X232861285Y-99162249D01*
X232868196Y-99095384D01*
X232881884Y-99046695D01*
X232904096Y-99010849D01*
X232936574Y-98982513D01*
X232950733Y-98973355D01*
X233015053Y-98949507D01*
X233085473Y-98948006D01*
X233153595Y-98966966D01*
G36*
X232652600Y-98958752D02*
G01*
X232669948Y-98966334D01*
X232711356Y-98999128D01*
X232746765Y-99046547D01*
X232768664Y-99097151D01*
X232772229Y-99122098D01*
X232760279Y-99156927D01*
X232734067Y-99175357D01*
X232705964Y-99186516D01*
X232693095Y-99188572D01*
X232686829Y-99173649D01*
X232674456Y-99141175D01*
X232669028Y-99126502D01*
X232638590Y-99075744D01*
X232594520Y-99050427D01*
X232538010Y-99051206D01*
X232533825Y-99052203D01*
X232503655Y-99066507D01*
X232481476Y-99094393D01*
X232466327Y-99139287D01*
X232457250Y-99204615D01*
X232453286Y-99293804D01*
X232452914Y-99341261D01*
X232452730Y-99416071D01*
X232451522Y-99467069D01*
X232448309Y-99499471D01*
X232442109Y-99518495D01*
X232431940Y-99529356D01*
X232416819Y-99537272D01*
X232415946Y-99537670D01*
X232386828Y-99549981D01*
X232372403Y-99554514D01*
X232370186Y-99540809D01*
X232368289Y-99502925D01*
X232366847Y-99445715D01*
X232365998Y-99374027D01*
X232365829Y-99321565D01*
X232366692Y-99220047D01*
X232370070Y-99143032D01*
X232377142Y-99086023D01*
X232389088Y-99044526D01*
X232407090Y-99014043D01*
X232432327Y-98990080D01*
X232457247Y-98973355D01*
X232517171Y-98951097D01*
X232586911Y-98946076D01*
X232652600Y-98958752D01*
G37*
X232652600Y-98958752D02*
X232669948Y-98966334D01*
X232711356Y-98999128D01*
X232746765Y-99046547D01*
X232768664Y-99097151D01*
X232772229Y-99122098D01*
X232760279Y-99156927D01*
X232734067Y-99175357D01*
X232705964Y-99186516D01*
X232693095Y-99188572D01*
X232686829Y-99173649D01*
X232674456Y-99141175D01*
X232669028Y-99126502D01*
X232638590Y-99075744D01*
X232594520Y-99050427D01*
X232538010Y-99051206D01*
X232533825Y-99052203D01*
X232503655Y-99066507D01*
X232481476Y-99094393D01*
X232466327Y-99139287D01*
X232457250Y-99204615D01*
X232453286Y-99293804D01*
X232452914Y-99341261D01*
X232452730Y-99416071D01*
X232451522Y-99467069D01*
X232448309Y-99499471D01*
X232442109Y-99518495D01*
X232431940Y-99529356D01*
X232416819Y-99537272D01*
X232415946Y-99537670D01*
X232386828Y-99549981D01*
X232372403Y-99554514D01*
X232370186Y-99540809D01*
X232368289Y-99502925D01*
X232366847Y-99445715D01*
X232365998Y-99374027D01*
X232365829Y-99321565D01*
X232366692Y-99220047D01*
X232370070Y-99143032D01*
X232377142Y-99086023D01*
X232389088Y-99044526D01*
X232407090Y-99014043D01*
X232432327Y-98990080D01*
X232457247Y-98973355D01*
X232517171Y-98951097D01*
X232586911Y-98946076D01*
X232652600Y-98958752D01*
G36*
X232144876Y-98956335D02*
G01*
X232186667Y-98975344D01*
X232219469Y-98998378D01*
X232243503Y-99024133D01*
X232260097Y-99057358D01*
X232270577Y-99102800D01*
X232276271Y-99165207D01*
X232278507Y-99249327D01*
X232278743Y-99304721D01*
X232278743Y-99520826D01*
X232241774Y-99537670D01*
X232212656Y-99549981D01*
X232198231Y-99554514D01*
X232195472Y-99541025D01*
X232193282Y-99504653D01*
X232191942Y-99451542D01*
X232191657Y-99409372D01*
X232190434Y-99348447D01*
X232187136Y-99300115D01*
X232182321Y-99270518D01*
X232178496Y-99264229D01*
X232152783Y-99270652D01*
X232112418Y-99287125D01*
X232065679Y-99309458D01*
X232020845Y-99333457D01*
X231986193Y-99354930D01*
X231970002Y-99369685D01*
X231969938Y-99369845D01*
X231971330Y-99397152D01*
X231983818Y-99423219D01*
X232005743Y-99444392D01*
X232037743Y-99451474D01*
X232065092Y-99450649D01*
X232103826Y-99450042D01*
X232124158Y-99459116D01*
X232136369Y-99483092D01*
X232137909Y-99487613D01*
X232143203Y-99521806D01*
X232129047Y-99542568D01*
X232092148Y-99552462D01*
X232052289Y-99554292D01*
X231980562Y-99540727D01*
X231943432Y-99521355D01*
X231897576Y-99475845D01*
X231873256Y-99419983D01*
X231871073Y-99360957D01*
X231891629Y-99305953D01*
X231922549Y-99271486D01*
X231953420Y-99252189D01*
X232001942Y-99227759D01*
X232058485Y-99202985D01*
X232067910Y-99199199D01*
X232130019Y-99171791D01*
X232165822Y-99147634D01*
X232177337Y-99123619D01*
X232166580Y-99096635D01*
X232148114Y-99075543D01*
X232104469Y-99049572D01*
X232056446Y-99047624D01*
X232012406Y-99067637D01*
X231980709Y-99107551D01*
X231976549Y-99117848D01*
X231952327Y-99155724D01*
X231916965Y-99183842D01*
X231872343Y-99206917D01*
X231872343Y-99141485D01*
X231874969Y-99101506D01*
X231886230Y-99069997D01*
X231911199Y-99036378D01*
X231935169Y-99010484D01*
X231972441Y-98973817D01*
X232001401Y-98954121D01*
X232032505Y-98946220D01*
X232067713Y-98944914D01*
X232144876Y-98956335D01*
G37*
X232144876Y-98956335D02*
X232186667Y-98975344D01*
X232219469Y-98998378D01*
X232243503Y-99024133D01*
X232260097Y-99057358D01*
X232270577Y-99102800D01*
X232276271Y-99165207D01*
X232278507Y-99249327D01*
X232278743Y-99304721D01*
X232278743Y-99520826D01*
X232241774Y-99537670D01*
X232212656Y-99549981D01*
X232198231Y-99554514D01*
X232195472Y-99541025D01*
X232193282Y-99504653D01*
X232191942Y-99451542D01*
X232191657Y-99409372D01*
X232190434Y-99348447D01*
X232187136Y-99300115D01*
X232182321Y-99270518D01*
X232178496Y-99264229D01*
X232152783Y-99270652D01*
X232112418Y-99287125D01*
X232065679Y-99309458D01*
X232020845Y-99333457D01*
X231986193Y-99354930D01*
X231970002Y-99369685D01*
X231969938Y-99369845D01*
X231971330Y-99397152D01*
X231983818Y-99423219D01*
X232005743Y-99444392D01*
X232037743Y-99451474D01*
X232065092Y-99450649D01*
X232103826Y-99450042D01*
X232124158Y-99459116D01*
X232136369Y-99483092D01*
X232137909Y-99487613D01*
X232143203Y-99521806D01*
X232129047Y-99542568D01*
X232092148Y-99552462D01*
X232052289Y-99554292D01*
X231980562Y-99540727D01*
X231943432Y-99521355D01*
X231897576Y-99475845D01*
X231873256Y-99419983D01*
X231871073Y-99360957D01*
X231891629Y-99305953D01*
X231922549Y-99271486D01*
X231953420Y-99252189D01*
X232001942Y-99227759D01*
X232058485Y-99202985D01*
X232067910Y-99199199D01*
X232130019Y-99171791D01*
X232165822Y-99147634D01*
X232177337Y-99123619D01*
X232166580Y-99096635D01*
X232148114Y-99075543D01*
X232104469Y-99049572D01*
X232056446Y-99047624D01*
X232012406Y-99067637D01*
X231980709Y-99107551D01*
X231976549Y-99117848D01*
X231952327Y-99155724D01*
X231916965Y-99183842D01*
X231872343Y-99206917D01*
X231872343Y-99141485D01*
X231874969Y-99101506D01*
X231886230Y-99069997D01*
X231911199Y-99036378D01*
X231935169Y-99010484D01*
X231972441Y-98973817D01*
X232001401Y-98954121D01*
X232032505Y-98946220D01*
X232067713Y-98944914D01*
X232144876Y-98956335D01*
G36*
X231779833Y-98958663D02*
G01*
X231782048Y-98996850D01*
X231783784Y-99054886D01*
X231784899Y-99128180D01*
X231785257Y-99205055D01*
X231785257Y-99465196D01*
X231739326Y-99511127D01*
X231707675Y-99539429D01*
X231679890Y-99550893D01*
X231641915Y-99550168D01*
X231626840Y-99548321D01*
X231579726Y-99542948D01*
X231540756Y-99539869D01*
X231531257Y-99539585D01*
X231499233Y-99541445D01*
X231453432Y-99546114D01*
X231435674Y-99548321D01*
X231392057Y-99551735D01*
X231362745Y-99544320D01*
X231333680Y-99521427D01*
X231323188Y-99511127D01*
X231277257Y-99465196D01*
X231277257Y-98978602D01*
X231314226Y-98961758D01*
X231346059Y-98949282D01*
X231364683Y-98944914D01*
X231369458Y-98958718D01*
X231373921Y-98997286D01*
X231377775Y-99056356D01*
X231380722Y-99131663D01*
X231382143Y-99195286D01*
X231386114Y-99445657D01*
X231420759Y-99450556D01*
X231452268Y-99447131D01*
X231467708Y-99436041D01*
X231472023Y-99415308D01*
X231475708Y-99371145D01*
X231478469Y-99309146D01*
X231480012Y-99234909D01*
X231480235Y-99196706D01*
X231480457Y-98976783D01*
X231526166Y-98960849D01*
X231558518Y-98950015D01*
X231576115Y-98944962D01*
X231576623Y-98944914D01*
X231578388Y-98958648D01*
X231580329Y-98996730D01*
X231582282Y-99054482D01*
X231584084Y-99127227D01*
X231585343Y-99195286D01*
X231589314Y-99445657D01*
X231676400Y-99445657D01*
X231680396Y-99217240D01*
X231684392Y-98988822D01*
X231726847Y-98966868D01*
X231758192Y-98951793D01*
X231776744Y-98944951D01*
X231777279Y-98944914D01*
X231779833Y-98958663D01*
G37*
X231779833Y-98958663D02*
X231782048Y-98996850D01*
X231783784Y-99054886D01*
X231784899Y-99128180D01*
X231785257Y-99205055D01*
X231785257Y-99465196D01*
X231739326Y-99511127D01*
X231707675Y-99539429D01*
X231679890Y-99550893D01*
X231641915Y-99550168D01*
X231626840Y-99548321D01*
X231579726Y-99542948D01*
X231540756Y-99539869D01*
X231531257Y-99539585D01*
X231499233Y-99541445D01*
X231453432Y-99546114D01*
X231435674Y-99548321D01*
X231392057Y-99551735D01*
X231362745Y-99544320D01*
X231333680Y-99521427D01*
X231323188Y-99511127D01*
X231277257Y-99465196D01*
X231277257Y-98978602D01*
X231314226Y-98961758D01*
X231346059Y-98949282D01*
X231364683Y-98944914D01*
X231369458Y-98958718D01*
X231373921Y-98997286D01*
X231377775Y-99056356D01*
X231380722Y-99131663D01*
X231382143Y-99195286D01*
X231386114Y-99445657D01*
X231420759Y-99450556D01*
X231452268Y-99447131D01*
X231467708Y-99436041D01*
X231472023Y-99415308D01*
X231475708Y-99371145D01*
X231478469Y-99309146D01*
X231480012Y-99234909D01*
X231480235Y-99196706D01*
X231480457Y-98976783D01*
X231526166Y-98960849D01*
X231558518Y-98950015D01*
X231576115Y-98944962D01*
X231576623Y-98944914D01*
X231578388Y-98958648D01*
X231580329Y-98996730D01*
X231582282Y-99054482D01*
X231584084Y-99127227D01*
X231585343Y-99195286D01*
X231589314Y-99445657D01*
X231676400Y-99445657D01*
X231680396Y-99217240D01*
X231684392Y-98988822D01*
X231726847Y-98966868D01*
X231758192Y-98951793D01*
X231776744Y-98944951D01*
X231777279Y-98944914D01*
X231779833Y-98958663D01*
G36*
X231190117Y-99065358D02*
G01*
X231189933Y-99173837D01*
X231189219Y-99257287D01*
X231187675Y-99319704D01*
X231185001Y-99365085D01*
X231180894Y-99397429D01*
X231175055Y-99420733D01*
X231167182Y-99438995D01*
X231161221Y-99449418D01*
X231111855Y-99505945D01*
X231049264Y-99541377D01*
X230980013Y-99554090D01*
X230910668Y-99542463D01*
X230869375Y-99521568D01*
X230826025Y-99485422D01*
X230796481Y-99441276D01*
X230778655Y-99383462D01*
X230770463Y-99306313D01*
X230769302Y-99249714D01*
X230769458Y-99245647D01*
X230870857Y-99245647D01*
X230871476Y-99310550D01*
X230874314Y-99353514D01*
X230880840Y-99381622D01*
X230892523Y-99401953D01*
X230906483Y-99417288D01*
X230953365Y-99446890D01*
X231003701Y-99449419D01*
X231051276Y-99424705D01*
X231054979Y-99421356D01*
X231070783Y-99403935D01*
X231080693Y-99383209D01*
X231086058Y-99352362D01*
X231088228Y-99304577D01*
X231088571Y-99251748D01*
X231087827Y-99185381D01*
X231084748Y-99141106D01*
X231078061Y-99112009D01*
X231066496Y-99091173D01*
X231057013Y-99080107D01*
X231012960Y-99052198D01*
X230962224Y-99048843D01*
X230913796Y-99070159D01*
X230904450Y-99078073D01*
X230888540Y-99095647D01*
X230878610Y-99116587D01*
X230873278Y-99147782D01*
X230871163Y-99196122D01*
X230870857Y-99245647D01*
X230769458Y-99245647D01*
X230772810Y-99158568D01*
X230784726Y-99090086D01*
X230807135Y-99038600D01*
X230842124Y-98998443D01*
X230869375Y-98977861D01*
X230918907Y-98955625D01*
X230976316Y-98945304D01*
X231029682Y-98948067D01*
X231059543Y-98959212D01*
X231071261Y-98962383D01*
X231079037Y-98950557D01*
X231084465Y-98918866D01*
X231088571Y-98870593D01*
X231093067Y-98816829D01*
X231099313Y-98784482D01*
X231110676Y-98765985D01*
X231130528Y-98753770D01*
X231143000Y-98748362D01*
X231190171Y-98728601D01*
X231190117Y-99065358D01*
G37*
X231190117Y-99065358D02*
X231189933Y-99173837D01*
X231189219Y-99257287D01*
X231187675Y-99319704D01*
X231185001Y-99365085D01*
X231180894Y-99397429D01*
X231175055Y-99420733D01*
X231167182Y-99438995D01*
X231161221Y-99449418D01*
X231111855Y-99505945D01*
X231049264Y-99541377D01*
X230980013Y-99554090D01*
X230910668Y-99542463D01*
X230869375Y-99521568D01*
X230826025Y-99485422D01*
X230796481Y-99441276D01*
X230778655Y-99383462D01*
X230770463Y-99306313D01*
X230769302Y-99249714D01*
X230769458Y-99245647D01*
X230870857Y-99245647D01*
X230871476Y-99310550D01*
X230874314Y-99353514D01*
X230880840Y-99381622D01*
X230892523Y-99401953D01*
X230906483Y-99417288D01*
X230953365Y-99446890D01*
X231003701Y-99449419D01*
X231051276Y-99424705D01*
X231054979Y-99421356D01*
X231070783Y-99403935D01*
X231080693Y-99383209D01*
X231086058Y-99352362D01*
X231088228Y-99304577D01*
X231088571Y-99251748D01*
X231087827Y-99185381D01*
X231084748Y-99141106D01*
X231078061Y-99112009D01*
X231066496Y-99091173D01*
X231057013Y-99080107D01*
X231012960Y-99052198D01*
X230962224Y-99048843D01*
X230913796Y-99070159D01*
X230904450Y-99078073D01*
X230888540Y-99095647D01*
X230878610Y-99116587D01*
X230873278Y-99147782D01*
X230871163Y-99196122D01*
X230870857Y-99245647D01*
X230769458Y-99245647D01*
X230772810Y-99158568D01*
X230784726Y-99090086D01*
X230807135Y-99038600D01*
X230842124Y-98998443D01*
X230869375Y-98977861D01*
X230918907Y-98955625D01*
X230976316Y-98945304D01*
X231029682Y-98948067D01*
X231059543Y-98959212D01*
X231071261Y-98962383D01*
X231079037Y-98950557D01*
X231084465Y-98918866D01*
X231088571Y-98870593D01*
X231093067Y-98816829D01*
X231099313Y-98784482D01*
X231110676Y-98765985D01*
X231130528Y-98753770D01*
X231143000Y-98748362D01*
X231190171Y-98728601D01*
X231190117Y-99065358D01*
G36*
X230529926Y-98949755D02*
G01*
X230595858Y-98974084D01*
X230649273Y-99017117D01*
X230670164Y-99047409D01*
X230692939Y-99102994D01*
X230692466Y-99143186D01*
X230668562Y-99170217D01*
X230659717Y-99174813D01*
X230621530Y-99189144D01*
X230602028Y-99185472D01*
X230595422Y-99161407D01*
X230595086Y-99148114D01*
X230582992Y-99099210D01*
X230551471Y-99064999D01*
X230507659Y-99048476D01*
X230458695Y-99052634D01*
X230418894Y-99074227D01*
X230405450Y-99086544D01*
X230395921Y-99101487D01*
X230389485Y-99124075D01*
X230385317Y-99159328D01*
X230382597Y-99212266D01*
X230380502Y-99287907D01*
X230379960Y-99311857D01*
X230377981Y-99393790D01*
X230375731Y-99451455D01*
X230372357Y-99489608D01*
X230367006Y-99513004D01*
X230358824Y-99526398D01*
X230346959Y-99534545D01*
X230339362Y-99538144D01*
X230307102Y-99550452D01*
X230288111Y-99554514D01*
X230281836Y-99540948D01*
X230278006Y-99499934D01*
X230276600Y-99430999D01*
X230277598Y-99333669D01*
X230277908Y-99318657D01*
X230280101Y-99229859D01*
X230282693Y-99165019D01*
X230286382Y-99119067D01*
X230291864Y-99086935D01*
X230299835Y-99063553D01*
X230310993Y-99043852D01*
X230316830Y-99035410D01*
X230350296Y-98998057D01*
X230387727Y-98969003D01*
X230392309Y-98966467D01*
X230459426Y-98946443D01*
X230529926Y-98949755D01*
G37*
X230529926Y-98949755D02*
X230595858Y-98974084D01*
X230649273Y-99017117D01*
X230670164Y-99047409D01*
X230692939Y-99102994D01*
X230692466Y-99143186D01*
X230668562Y-99170217D01*
X230659717Y-99174813D01*
X230621530Y-99189144D01*
X230602028Y-99185472D01*
X230595422Y-99161407D01*
X230595086Y-99148114D01*
X230582992Y-99099210D01*
X230551471Y-99064999D01*
X230507659Y-99048476D01*
X230458695Y-99052634D01*
X230418894Y-99074227D01*
X230405450Y-99086544D01*
X230395921Y-99101487D01*
X230389485Y-99124075D01*
X230385317Y-99159328D01*
X230382597Y-99212266D01*
X230380502Y-99287907D01*
X230379960Y-99311857D01*
X230377981Y-99393790D01*
X230375731Y-99451455D01*
X230372357Y-99489608D01*
X230367006Y-99513004D01*
X230358824Y-99526398D01*
X230346959Y-99534545D01*
X230339362Y-99538144D01*
X230307102Y-99550452D01*
X230288111Y-99554514D01*
X230281836Y-99540948D01*
X230278006Y-99499934D01*
X230276600Y-99430999D01*
X230277598Y-99333669D01*
X230277908Y-99318657D01*
X230280101Y-99229859D01*
X230282693Y-99165019D01*
X230286382Y-99119067D01*
X230291864Y-99086935D01*
X230299835Y-99063553D01*
X230310993Y-99043852D01*
X230316830Y-99035410D01*
X230350296Y-98998057D01*
X230387727Y-98969003D01*
X230392309Y-98966467D01*
X230459426Y-98946443D01*
X230529926Y-98949755D01*
G36*
X230039744Y-98950968D02*
G01*
X230096616Y-98972087D01*
X230097267Y-98972493D01*
X230132440Y-98998380D01*
X230158407Y-99028633D01*
X230176670Y-99068058D01*
X230188732Y-99121462D01*
X230196096Y-99193651D01*
X230200264Y-99289432D01*
X230200629Y-99303078D01*
X230205876Y-99508842D01*
X230161716Y-99531678D01*
X230129763Y-99547110D01*
X230110470Y-99554423D01*
X230109578Y-99554514D01*
X230106239Y-99541022D01*
X230103587Y-99504626D01*
X230101956Y-99451452D01*
X230101600Y-99408393D01*
X230101592Y-99338641D01*
X230098403Y-99294837D01*
X230087288Y-99273944D01*
X230063501Y-99272925D01*
X230022296Y-99288741D01*
X229960086Y-99317815D01*
X229914341Y-99341963D01*
X229890813Y-99362913D01*
X229883896Y-99385747D01*
X229883886Y-99386877D01*
X229895299Y-99426212D01*
X229929092Y-99447462D01*
X229980809Y-99450539D01*
X230018061Y-99450006D01*
X230037703Y-99460735D01*
X230049952Y-99486505D01*
X230057002Y-99519337D01*
X230046842Y-99537966D01*
X230043017Y-99540632D01*
X230007001Y-99551340D01*
X229956566Y-99552856D01*
X229904626Y-99545759D01*
X229867822Y-99532788D01*
X229816938Y-99489585D01*
X229788014Y-99429446D01*
X229782286Y-99382462D01*
X229786657Y-99340082D01*
X229802475Y-99305488D01*
X229833797Y-99274763D01*
X229884678Y-99243990D01*
X229959176Y-99209252D01*
X229963714Y-99207288D01*
X230030821Y-99176287D01*
X230072232Y-99150862D01*
X230089981Y-99128014D01*
X230086107Y-99104745D01*
X230062643Y-99078056D01*
X230055627Y-99071914D01*
X230008630Y-99048100D01*
X229959933Y-99049103D01*
X229917522Y-99072451D01*
X229889384Y-99115675D01*
X229886769Y-99124160D01*
X229861308Y-99165308D01*
X229829001Y-99185128D01*
X229782286Y-99204770D01*
X229782286Y-99153950D01*
X229796496Y-99080082D01*
X229838675Y-99012327D01*
X229860624Y-98989661D01*
X229910517Y-98960569D01*
X229973967Y-98947400D01*
X230039744Y-98950968D01*
G37*
X230039744Y-98950968D02*
X230096616Y-98972087D01*
X230097267Y-98972493D01*
X230132440Y-98998380D01*
X230158407Y-99028633D01*
X230176670Y-99068058D01*
X230188732Y-99121462D01*
X230196096Y-99193651D01*
X230200264Y-99289432D01*
X230200629Y-99303078D01*
X230205876Y-99508842D01*
X230161716Y-99531678D01*
X230129763Y-99547110D01*
X230110470Y-99554423D01*
X230109578Y-99554514D01*
X230106239Y-99541022D01*
X230103587Y-99504626D01*
X230101956Y-99451452D01*
X230101600Y-99408393D01*
X230101592Y-99338641D01*
X230098403Y-99294837D01*
X230087288Y-99273944D01*
X230063501Y-99272925D01*
X230022296Y-99288741D01*
X229960086Y-99317815D01*
X229914341Y-99341963D01*
X229890813Y-99362913D01*
X229883896Y-99385747D01*
X229883886Y-99386877D01*
X229895299Y-99426212D01*
X229929092Y-99447462D01*
X229980809Y-99450539D01*
X230018061Y-99450006D01*
X230037703Y-99460735D01*
X230049952Y-99486505D01*
X230057002Y-99519337D01*
X230046842Y-99537966D01*
X230043017Y-99540632D01*
X230007001Y-99551340D01*
X229956566Y-99552856D01*
X229904626Y-99545759D01*
X229867822Y-99532788D01*
X229816938Y-99489585D01*
X229788014Y-99429446D01*
X229782286Y-99382462D01*
X229786657Y-99340082D01*
X229802475Y-99305488D01*
X229833797Y-99274763D01*
X229884678Y-99243990D01*
X229959176Y-99209252D01*
X229963714Y-99207288D01*
X230030821Y-99176287D01*
X230072232Y-99150862D01*
X230089981Y-99128014D01*
X230086107Y-99104745D01*
X230062643Y-99078056D01*
X230055627Y-99071914D01*
X230008630Y-99048100D01*
X229959933Y-99049103D01*
X229917522Y-99072451D01*
X229889384Y-99115675D01*
X229886769Y-99124160D01*
X229861308Y-99165308D01*
X229829001Y-99185128D01*
X229782286Y-99204770D01*
X229782286Y-99153950D01*
X229796496Y-99080082D01*
X229838675Y-99012327D01*
X229860624Y-98989661D01*
X229910517Y-98960569D01*
X229973967Y-98947400D01*
X230039744Y-98950968D01*
G36*
X229375886Y-98851289D02*
G01*
X229380139Y-98910613D01*
X229385025Y-98945572D01*
X229391795Y-98960820D01*
X229401702Y-98961015D01*
X229404914Y-98959195D01*
X229447644Y-98946015D01*
X229503227Y-98946785D01*
X229559737Y-98960333D01*
X229595082Y-98977861D01*
X229631321Y-99005861D01*
X229657813Y-99037549D01*
X229675999Y-99077813D01*
X229687322Y-99131543D01*
X229693222Y-99203626D01*
X229695143Y-99298951D01*
X229695177Y-99317237D01*
X229695200Y-99522646D01*
X229649491Y-99538580D01*
X229617027Y-99549420D01*
X229599215Y-99554468D01*
X229598691Y-99554514D01*
X229596937Y-99540828D01*
X229595444Y-99503076D01*
X229594326Y-99446224D01*
X229593697Y-99375234D01*
X229593600Y-99332073D01*
X229593398Y-99246973D01*
X229592358Y-99185981D01*
X229589831Y-99144177D01*
X229585164Y-99116642D01*
X229577707Y-99098456D01*
X229566811Y-99084698D01*
X229560007Y-99078073D01*
X229513272Y-99051375D01*
X229462272Y-99049375D01*
X229416001Y-99071955D01*
X229407444Y-99080107D01*
X229394893Y-99095436D01*
X229386188Y-99113618D01*
X229380631Y-99139909D01*
X229377526Y-99179562D01*
X229376176Y-99237832D01*
X229375886Y-99318173D01*
X229375886Y-99522646D01*
X229330177Y-99538580D01*
X229297713Y-99549420D01*
X229279901Y-99554468D01*
X229279377Y-99554514D01*
X229278037Y-99540623D01*
X229276828Y-99501439D01*
X229275801Y-99440700D01*
X229275002Y-99362141D01*
X229274481Y-99269498D01*
X229274286Y-99166509D01*
X229274286Y-98769342D01*
X229321457Y-98749444D01*
X229368629Y-98729547D01*
X229375886Y-98851289D01*
G37*
X229375886Y-98851289D02*
X229380139Y-98910613D01*
X229385025Y-98945572D01*
X229391795Y-98960820D01*
X229401702Y-98961015D01*
X229404914Y-98959195D01*
X229447644Y-98946015D01*
X229503227Y-98946785D01*
X229559737Y-98960333D01*
X229595082Y-98977861D01*
X229631321Y-99005861D01*
X229657813Y-99037549D01*
X229675999Y-99077813D01*
X229687322Y-99131543D01*
X229693222Y-99203626D01*
X229695143Y-99298951D01*
X229695177Y-99317237D01*
X229695200Y-99522646D01*
X229649491Y-99538580D01*
X229617027Y-99549420D01*
X229599215Y-99554468D01*
X229598691Y-99554514D01*
X229596937Y-99540828D01*
X229595444Y-99503076D01*
X229594326Y-99446224D01*
X229593697Y-99375234D01*
X229593600Y-99332073D01*
X229593398Y-99246973D01*
X229592358Y-99185981D01*
X229589831Y-99144177D01*
X229585164Y-99116642D01*
X229577707Y-99098456D01*
X229566811Y-99084698D01*
X229560007Y-99078073D01*
X229513272Y-99051375D01*
X229462272Y-99049375D01*
X229416001Y-99071955D01*
X229407444Y-99080107D01*
X229394893Y-99095436D01*
X229386188Y-99113618D01*
X229380631Y-99139909D01*
X229377526Y-99179562D01*
X229376176Y-99237832D01*
X229375886Y-99318173D01*
X229375886Y-99522646D01*
X229330177Y-99538580D01*
X229297713Y-99549420D01*
X229279901Y-99554468D01*
X229279377Y-99554514D01*
X229278037Y-99540623D01*
X229276828Y-99501439D01*
X229275801Y-99440700D01*
X229275002Y-99362141D01*
X229274481Y-99269498D01*
X229274286Y-99166509D01*
X229274286Y-98769342D01*
X229321457Y-98749444D01*
X229368629Y-98729547D01*
X229375886Y-98851289D01*
G36*
X228168303Y-98931239D02*
G01*
X228225527Y-98969735D01*
X228269749Y-99025335D01*
X228296167Y-99096086D01*
X228301510Y-99148162D01*
X228300903Y-99169893D01*
X228295822Y-99186531D01*
X228281855Y-99201437D01*
X228254589Y-99217973D01*
X228209612Y-99239498D01*
X228142511Y-99269374D01*
X228142171Y-99269524D01*
X228080407Y-99297813D01*
X228029759Y-99322933D01*
X227995404Y-99342179D01*
X227982518Y-99352848D01*
X227982514Y-99352934D01*
X227993872Y-99376166D01*
X228020431Y-99401774D01*
X228050923Y-99420221D01*
X228066370Y-99423886D01*
X228108515Y-99411212D01*
X228144808Y-99379471D01*
X228162517Y-99344572D01*
X228179552Y-99318845D01*
X228212922Y-99289546D01*
X228252149Y-99264235D01*
X228286756Y-99250471D01*
X228293993Y-99249714D01*
X228302139Y-99262160D01*
X228302630Y-99293972D01*
X228296643Y-99336866D01*
X228285357Y-99382558D01*
X228269950Y-99422761D01*
X228269171Y-99424322D01*
X228222804Y-99489062D01*
X228162711Y-99533097D01*
X228094465Y-99554711D01*
X228023638Y-99552185D01*
X227955804Y-99523804D01*
X227952788Y-99521808D01*
X227899427Y-99473448D01*
X227864340Y-99410352D01*
X227844922Y-99327387D01*
X227842316Y-99304078D01*
X227837701Y-99194055D01*
X227843233Y-99142748D01*
X227982514Y-99142748D01*
X227984324Y-99174753D01*
X227994222Y-99184093D01*
X228018898Y-99177105D01*
X228057795Y-99160587D01*
X228101275Y-99139881D01*
X228102356Y-99139333D01*
X228139209Y-99119949D01*
X228154000Y-99107013D01*
X228150353Y-99093451D01*
X228134995Y-99075632D01*
X228095923Y-99049845D01*
X228053846Y-99047950D01*
X228016103Y-99066717D01*
X227990034Y-99102915D01*
X227982514Y-99142748D01*
X227843233Y-99142748D01*
X227847194Y-99106027D01*
X227871550Y-99036212D01*
X227905456Y-98987302D01*
X227966653Y-98937878D01*
X228034063Y-98913359D01*
X228102880Y-98911797D01*
X228168303Y-98931239D01*
G37*
X228168303Y-98931239D02*
X228225527Y-98969735D01*
X228269749Y-99025335D01*
X228296167Y-99096086D01*
X228301510Y-99148162D01*
X228300903Y-99169893D01*
X228295822Y-99186531D01*
X228281855Y-99201437D01*
X228254589Y-99217973D01*
X228209612Y-99239498D01*
X228142511Y-99269374D01*
X228142171Y-99269524D01*
X228080407Y-99297813D01*
X228029759Y-99322933D01*
X227995404Y-99342179D01*
X227982518Y-99352848D01*
X227982514Y-99352934D01*
X227993872Y-99376166D01*
X228020431Y-99401774D01*
X228050923Y-99420221D01*
X228066370Y-99423886D01*
X228108515Y-99411212D01*
X228144808Y-99379471D01*
X228162517Y-99344572D01*
X228179552Y-99318845D01*
X228212922Y-99289546D01*
X228252149Y-99264235D01*
X228286756Y-99250471D01*
X228293993Y-99249714D01*
X228302139Y-99262160D01*
X228302630Y-99293972D01*
X228296643Y-99336866D01*
X228285357Y-99382558D01*
X228269950Y-99422761D01*
X228269171Y-99424322D01*
X228222804Y-99489062D01*
X228162711Y-99533097D01*
X228094465Y-99554711D01*
X228023638Y-99552185D01*
X227955804Y-99523804D01*
X227952788Y-99521808D01*
X227899427Y-99473448D01*
X227864340Y-99410352D01*
X227844922Y-99327387D01*
X227842316Y-99304078D01*
X227837701Y-99194055D01*
X227843233Y-99142748D01*
X227982514Y-99142748D01*
X227984324Y-99174753D01*
X227994222Y-99184093D01*
X228018898Y-99177105D01*
X228057795Y-99160587D01*
X228101275Y-99139881D01*
X228102356Y-99139333D01*
X228139209Y-99119949D01*
X228154000Y-99107013D01*
X228150353Y-99093451D01*
X228134995Y-99075632D01*
X228095923Y-99049845D01*
X228053846Y-99047950D01*
X228016103Y-99066717D01*
X227990034Y-99102915D01*
X227982514Y-99142748D01*
X227843233Y-99142748D01*
X227847194Y-99106027D01*
X227871550Y-99036212D01*
X227905456Y-98987302D01*
X227966653Y-98937878D01*
X228034063Y-98913359D01*
X228102880Y-98911797D01*
X228168303Y-98931239D01*
G36*
X227041115Y-98921962D02*
G01*
X227109145Y-98957733D01*
X227159351Y-99015301D01*
X227177185Y-99052312D01*
X227191063Y-99107882D01*
X227198167Y-99178096D01*
X227198840Y-99254727D01*
X227193427Y-99329552D01*
X227182270Y-99394342D01*
X227165714Y-99440873D01*
X227160626Y-99448887D01*
X227100355Y-99508707D01*
X227028769Y-99544535D01*
X226951092Y-99555020D01*
X226872548Y-99538810D01*
X226850689Y-99529092D01*
X226808122Y-99499143D01*
X226770763Y-99459433D01*
X226767232Y-99454397D01*
X226752881Y-99430124D01*
X226743394Y-99404178D01*
X226737790Y-99370022D01*
X226735086Y-99321119D01*
X226734299Y-99250935D01*
X226734286Y-99235200D01*
X226734322Y-99230192D01*
X226879429Y-99230192D01*
X226880273Y-99296430D01*
X226883596Y-99340386D01*
X226890583Y-99368779D01*
X226902416Y-99388325D01*
X226908457Y-99394857D01*
X226943186Y-99419680D01*
X226976903Y-99418548D01*
X227010995Y-99397016D01*
X227031329Y-99374029D01*
X227043371Y-99340478D01*
X227050134Y-99287569D01*
X227050598Y-99281399D01*
X227051752Y-99185513D01*
X227039688Y-99114299D01*
X227014570Y-99068194D01*
X226976560Y-99047635D01*
X226962992Y-99046514D01*
X226927364Y-99052152D01*
X226902994Y-99071686D01*
X226888093Y-99109042D01*
X226880875Y-99168150D01*
X226879429Y-99230192D01*
X226734322Y-99230192D01*
X226734826Y-99160413D01*
X226737096Y-99108159D01*
X226742068Y-99071949D01*
X226750713Y-99045299D01*
X226764005Y-99021722D01*
X226766943Y-99017338D01*
X226816313Y-98958249D01*
X226870109Y-98923947D01*
X226935602Y-98910331D01*
X226957842Y-98909665D01*
X227041115Y-98921962D01*
G37*
X227041115Y-98921962D02*
X227109145Y-98957733D01*
X227159351Y-99015301D01*
X227177185Y-99052312D01*
X227191063Y-99107882D01*
X227198167Y-99178096D01*
X227198840Y-99254727D01*
X227193427Y-99329552D01*
X227182270Y-99394342D01*
X227165714Y-99440873D01*
X227160626Y-99448887D01*
X227100355Y-99508707D01*
X227028769Y-99544535D01*
X226951092Y-99555020D01*
X226872548Y-99538810D01*
X226850689Y-99529092D01*
X226808122Y-99499143D01*
X226770763Y-99459433D01*
X226767232Y-99454397D01*
X226752881Y-99430124D01*
X226743394Y-99404178D01*
X226737790Y-99370022D01*
X226735086Y-99321119D01*
X226734299Y-99250935D01*
X226734286Y-99235200D01*
X226734322Y-99230192D01*
X226879429Y-99230192D01*
X226880273Y-99296430D01*
X226883596Y-99340386D01*
X226890583Y-99368779D01*
X226902416Y-99388325D01*
X226908457Y-99394857D01*
X226943186Y-99419680D01*
X226976903Y-99418548D01*
X227010995Y-99397016D01*
X227031329Y-99374029D01*
X227043371Y-99340478D01*
X227050134Y-99287569D01*
X227050598Y-99281399D01*
X227051752Y-99185513D01*
X227039688Y-99114299D01*
X227014570Y-99068194D01*
X226976560Y-99047635D01*
X226962992Y-99046514D01*
X226927364Y-99052152D01*
X226902994Y-99071686D01*
X226888093Y-99109042D01*
X226880875Y-99168150D01*
X226879429Y-99230192D01*
X226734322Y-99230192D01*
X226734826Y-99160413D01*
X226737096Y-99108159D01*
X226742068Y-99071949D01*
X226750713Y-99045299D01*
X226764005Y-99021722D01*
X226766943Y-99017338D01*
X226816313Y-98958249D01*
X226870109Y-98923947D01*
X226935602Y-98910331D01*
X226957842Y-98909665D01*
X227041115Y-98921962D01*
G36*
X228716093Y-98927780D02*
G01*
X228762672Y-98954723D01*
X228795057Y-98981466D01*
X228818742Y-99009484D01*
X228835059Y-99043748D01*
X228845339Y-99089227D01*
X228850914Y-99150892D01*
X228853116Y-99233711D01*
X228853371Y-99293246D01*
X228853371Y-99512391D01*
X228791686Y-99540044D01*
X228730000Y-99567697D01*
X228722743Y-99327670D01*
X228719744Y-99238028D01*
X228716598Y-99172962D01*
X228712701Y-99128026D01*
X228707447Y-99098770D01*
X228700231Y-99080748D01*
X228690450Y-99069511D01*
X228687312Y-99067079D01*
X228639761Y-99048083D01*
X228591697Y-99055600D01*
X228563086Y-99075543D01*
X228551447Y-99089675D01*
X228543391Y-99108220D01*
X228538271Y-99136334D01*
X228535441Y-99179173D01*
X228534256Y-99241895D01*
X228534057Y-99307261D01*
X228534018Y-99389268D01*
X228532614Y-99447316D01*
X228527914Y-99486465D01*
X228517987Y-99511780D01*
X228500903Y-99528323D01*
X228474732Y-99541156D01*
X228439775Y-99554491D01*
X228401596Y-99569007D01*
X228406141Y-99311389D01*
X228407971Y-99218519D01*
X228410112Y-99149889D01*
X228413181Y-99100711D01*
X228417794Y-99066198D01*
X228424568Y-99041562D01*
X228434119Y-99022016D01*
X228445634Y-99004770D01*
X228501190Y-98949680D01*
X228568980Y-98917822D01*
X228642713Y-98910191D01*
X228716093Y-98927780D01*
G37*
X228716093Y-98927780D02*
X228762672Y-98954723D01*
X228795057Y-98981466D01*
X228818742Y-99009484D01*
X228835059Y-99043748D01*
X228845339Y-99089227D01*
X228850914Y-99150892D01*
X228853116Y-99233711D01*
X228853371Y-99293246D01*
X228853371Y-99512391D01*
X228791686Y-99540044D01*
X228730000Y-99567697D01*
X228722743Y-99327670D01*
X228719744Y-99238028D01*
X228716598Y-99172962D01*
X228712701Y-99128026D01*
X228707447Y-99098770D01*
X228700231Y-99080748D01*
X228690450Y-99069511D01*
X228687312Y-99067079D01*
X228639761Y-99048083D01*
X228591697Y-99055600D01*
X228563086Y-99075543D01*
X228551447Y-99089675D01*
X228543391Y-99108220D01*
X228538271Y-99136334D01*
X228535441Y-99179173D01*
X228534256Y-99241895D01*
X228534057Y-99307261D01*
X228534018Y-99389268D01*
X228532614Y-99447316D01*
X228527914Y-99486465D01*
X228517987Y-99511780D01*
X228500903Y-99528323D01*
X228474732Y-99541156D01*
X228439775Y-99554491D01*
X228401596Y-99569007D01*
X228406141Y-99311389D01*
X228407971Y-99218519D01*
X228410112Y-99149889D01*
X228413181Y-99100711D01*
X228417794Y-99066198D01*
X228424568Y-99041562D01*
X228434119Y-99022016D01*
X228445634Y-99004770D01*
X228501190Y-98949680D01*
X228568980Y-98917822D01*
X228642713Y-98910191D01*
X228716093Y-98927780D01*
G36*
X227599744Y-98919918D02*
G01*
X227655201Y-98947568D01*
X227704148Y-98998480D01*
X227717629Y-99017338D01*
X227732314Y-99042015D01*
X227741842Y-99068816D01*
X227747293Y-99104587D01*
X227749747Y-99156169D01*
X227750286Y-99224267D01*
X227747852Y-99317588D01*
X227739394Y-99387657D01*
X227723174Y-99439931D01*
X227697454Y-99479869D01*
X227660497Y-99512929D01*
X227657782Y-99514886D01*
X227621360Y-99534908D01*
X227577502Y-99544815D01*
X227521724Y-99547257D01*
X227431048Y-99547257D01*
X227431010Y-99635283D01*
X227430166Y-99684308D01*
X227425024Y-99713065D01*
X227411587Y-99730311D01*
X227385858Y-99744808D01*
X227379679Y-99747769D01*
X227350764Y-99761648D01*
X227328376Y-99770414D01*
X227311729Y-99771171D01*
X227300036Y-99761023D01*
X227292510Y-99737073D01*
X227288366Y-99696426D01*
X227286815Y-99636186D01*
X227287071Y-99553455D01*
X227288349Y-99445339D01*
X227288748Y-99413000D01*
X227290185Y-99301524D01*
X227291472Y-99228603D01*
X227430971Y-99228603D01*
X227431755Y-99290499D01*
X227435240Y-99330997D01*
X227443124Y-99357708D01*
X227457105Y-99378244D01*
X227466597Y-99388260D01*
X227505404Y-99417567D01*
X227539763Y-99419952D01*
X227575216Y-99395750D01*
X227576114Y-99394857D01*
X227590539Y-99376153D01*
X227599313Y-99350732D01*
X227603739Y-99311584D01*
X227605118Y-99251697D01*
X227605143Y-99238430D01*
X227601812Y-99155901D01*
X227590969Y-99098691D01*
X227571340Y-99063766D01*
X227541650Y-99048094D01*
X227524491Y-99046514D01*
X227483766Y-99053926D01*
X227455832Y-99078330D01*
X227439017Y-99122980D01*
X227431650Y-99191130D01*
X227430971Y-99228603D01*
X227291472Y-99228603D01*
X227291708Y-99215245D01*
X227293677Y-99150333D01*
X227296450Y-99102958D01*
X227300388Y-99069290D01*
X227305849Y-99045498D01*
X227313192Y-99027753D01*
X227322777Y-99012224D01*
X227326887Y-99006381D01*
X227381405Y-98951185D01*
X227450336Y-98919890D01*
X227530072Y-98911165D01*
X227599744Y-98919918D01*
G37*
X227599744Y-98919918D02*
X227655201Y-98947568D01*
X227704148Y-98998480D01*
X227717629Y-99017338D01*
X227732314Y-99042015D01*
X227741842Y-99068816D01*
X227747293Y-99104587D01*
X227749747Y-99156169D01*
X227750286Y-99224267D01*
X227747852Y-99317588D01*
X227739394Y-99387657D01*
X227723174Y-99439931D01*
X227697454Y-99479869D01*
X227660497Y-99512929D01*
X227657782Y-99514886D01*
X227621360Y-99534908D01*
X227577502Y-99544815D01*
X227521724Y-99547257D01*
X227431048Y-99547257D01*
X227431010Y-99635283D01*
X227430166Y-99684308D01*
X227425024Y-99713065D01*
X227411587Y-99730311D01*
X227385858Y-99744808D01*
X227379679Y-99747769D01*
X227350764Y-99761648D01*
X227328376Y-99770414D01*
X227311729Y-99771171D01*
X227300036Y-99761023D01*
X227292510Y-99737073D01*
X227288366Y-99696426D01*
X227286815Y-99636186D01*
X227287071Y-99553455D01*
X227288349Y-99445339D01*
X227288748Y-99413000D01*
X227290185Y-99301524D01*
X227291472Y-99228603D01*
X227430971Y-99228603D01*
X227431755Y-99290499D01*
X227435240Y-99330997D01*
X227443124Y-99357708D01*
X227457105Y-99378244D01*
X227466597Y-99388260D01*
X227505404Y-99417567D01*
X227539763Y-99419952D01*
X227575216Y-99395750D01*
X227576114Y-99394857D01*
X227590539Y-99376153D01*
X227599313Y-99350732D01*
X227603739Y-99311584D01*
X227605118Y-99251697D01*
X227605143Y-99238430D01*
X227601812Y-99155901D01*
X227590969Y-99098691D01*
X227571340Y-99063766D01*
X227541650Y-99048094D01*
X227524491Y-99046514D01*
X227483766Y-99053926D01*
X227455832Y-99078330D01*
X227439017Y-99122980D01*
X227431650Y-99191130D01*
X227430971Y-99228603D01*
X227291472Y-99228603D01*
X227291708Y-99215245D01*
X227293677Y-99150333D01*
X227296450Y-99102958D01*
X227300388Y-99069290D01*
X227305849Y-99045498D01*
X227313192Y-99027753D01*
X227322777Y-99012224D01*
X227326887Y-99006381D01*
X227381405Y-98951185D01*
X227450336Y-98919890D01*
X227530072Y-98911165D01*
X227599744Y-98919918D01*
D14*
%TO.C,U1*%
X102000000Y-78000000D02*
G75*
G03*
X102000000Y-78000000I-9000000J0D01*
G01*
%TO.C,U2*%
X123000000Y-78000000D02*
G75*
G03*
X123000000Y-78000000I-9000000J0D01*
G01*
%TO.C,U3*%
X156000000Y-78000000D02*
G75*
G03*
X156000000Y-78000000I-9000000J0D01*
G01*
%TO.C,U4*%
X177000000Y-78000000D02*
G75*
G03*
X177000000Y-78000000I-9000000J0D01*
G01*
%TO.C,U5*%
X210000000Y-78000000D02*
G75*
G03*
X210000000Y-78000000I-9000000J0D01*
G01*
%TO.C,U6*%
X231000000Y-78000000D02*
G75*
G03*
X231000000Y-78000000I-9000000J0D01*
G01*
%TO.C,U1*%
D10*
X92238095Y-67452380D02*
X92238095Y-68261904D01*
X92285714Y-68357142D01*
X92333333Y-68404761D01*
X92428571Y-68452380D01*
X92619047Y-68452380D01*
X92714285Y-68404761D01*
X92761904Y-68357142D01*
X92809523Y-68261904D01*
X92809523Y-67452380D01*
X93809523Y-68452380D02*
X93238095Y-68452380D01*
X93523809Y-68452380D02*
X93523809Y-67452380D01*
X93428571Y-67595238D01*
X93333333Y-67690476D01*
X93238095Y-67738095D01*
%TO.C,U2*%
X113238095Y-67452380D02*
X113238095Y-68261904D01*
X113285714Y-68357142D01*
X113333333Y-68404761D01*
X113428571Y-68452380D01*
X113619047Y-68452380D01*
X113714285Y-68404761D01*
X113761904Y-68357142D01*
X113809523Y-68261904D01*
X113809523Y-67452380D01*
X114238095Y-67547619D02*
X114285714Y-67500000D01*
X114380952Y-67452380D01*
X114619047Y-67452380D01*
X114714285Y-67500000D01*
X114761904Y-67547619D01*
X114809523Y-67642857D01*
X114809523Y-67738095D01*
X114761904Y-67880952D01*
X114190476Y-68452380D01*
X114809523Y-68452380D01*
%TO.C,U3*%
X146238095Y-67452380D02*
X146238095Y-68261904D01*
X146285714Y-68357142D01*
X146333333Y-68404761D01*
X146428571Y-68452380D01*
X146619047Y-68452380D01*
X146714285Y-68404761D01*
X146761904Y-68357142D01*
X146809523Y-68261904D01*
X146809523Y-67452380D01*
X147190476Y-67452380D02*
X147809523Y-67452380D01*
X147476190Y-67833333D01*
X147619047Y-67833333D01*
X147714285Y-67880952D01*
X147761904Y-67928571D01*
X147809523Y-68023809D01*
X147809523Y-68261904D01*
X147761904Y-68357142D01*
X147714285Y-68404761D01*
X147619047Y-68452380D01*
X147333333Y-68452380D01*
X147238095Y-68404761D01*
X147190476Y-68357142D01*
%TO.C,U4*%
X167238095Y-67452380D02*
X167238095Y-68261904D01*
X167285714Y-68357142D01*
X167333333Y-68404761D01*
X167428571Y-68452380D01*
X167619047Y-68452380D01*
X167714285Y-68404761D01*
X167761904Y-68357142D01*
X167809523Y-68261904D01*
X167809523Y-67452380D01*
X168714285Y-67785714D02*
X168714285Y-68452380D01*
X168476190Y-67404761D02*
X168238095Y-68119047D01*
X168857142Y-68119047D01*
%TO.C,U5*%
X200238095Y-67452380D02*
X200238095Y-68261904D01*
X200285714Y-68357142D01*
X200333333Y-68404761D01*
X200428571Y-68452380D01*
X200619047Y-68452380D01*
X200714285Y-68404761D01*
X200761904Y-68357142D01*
X200809523Y-68261904D01*
X200809523Y-67452380D01*
X201761904Y-67452380D02*
X201285714Y-67452380D01*
X201238095Y-67928571D01*
X201285714Y-67880952D01*
X201380952Y-67833333D01*
X201619047Y-67833333D01*
X201714285Y-67880952D01*
X201761904Y-67928571D01*
X201809523Y-68023809D01*
X201809523Y-68261904D01*
X201761904Y-68357142D01*
X201714285Y-68404761D01*
X201619047Y-68452380D01*
X201380952Y-68452380D01*
X201285714Y-68404761D01*
X201238095Y-68357142D01*
%TO.C,U6*%
X221238095Y-67452380D02*
X221238095Y-68261904D01*
X221285714Y-68357142D01*
X221333333Y-68404761D01*
X221428571Y-68452380D01*
X221619047Y-68452380D01*
X221714285Y-68404761D01*
X221761904Y-68357142D01*
X221809523Y-68261904D01*
X221809523Y-67452380D01*
X222714285Y-67452380D02*
X222523809Y-67452380D01*
X222428571Y-67500000D01*
X222380952Y-67547619D01*
X222285714Y-67690476D01*
X222238095Y-67880952D01*
X222238095Y-68261904D01*
X222285714Y-68357142D01*
X222333333Y-68404761D01*
X222428571Y-68452380D01*
X222619047Y-68452380D01*
X222714285Y-68404761D01*
X222761904Y-68357142D01*
X222809523Y-68261904D01*
X222809523Y-68023809D01*
X222761904Y-67928571D01*
X222714285Y-67880952D01*
X222619047Y-67833333D01*
X222428571Y-67833333D01*
X222333333Y-67880952D01*
X222285714Y-67928571D01*
X222238095Y-68023809D01*
%TD*%
M02*
