%TF.GenerationSoftware,KiCad,Pcbnew,(5.1.5-131-g305ed0b65)-1*%
%TF.CreationDate,2020-07-18T18:38:28+08:00*%
%TF.ProjectId,IN-8,494e2d38-2e6b-4696-9361-645f70636258,rev?*%
%TF.SameCoordinates,Original*%
%TF.FileFunction,Copper,L2,Bot*%
%TF.FilePolarity,Positive*%
%FSLAX46Y46*%
G04 Gerber Fmt 4.6, Leading zero omitted, Abs format (unit mm)*
G04 Created by KiCad (PCBNEW (5.1.5-131-g305ed0b65)-1) date 2020-07-18 18:38:28*
%MOMM*%
%LPD*%
G01*
G04 APERTURE LIST*
%TA.AperFunction,ComponentPad*%
%ADD10O,1.700000X1.700000*%
%TD*%
%TA.AperFunction,ComponentPad*%
%ADD11R,1.700000X1.700000*%
%TD*%
%TA.AperFunction,ComponentPad*%
%ADD12C,1.524000*%
%TD*%
%TA.AperFunction,ViaPad*%
%ADD13C,0.500000*%
%TD*%
%TA.AperFunction,Conductor*%
%ADD14C,0.203200*%
%TD*%
%TA.AperFunction,Conductor*%
%ADD15C,0.101600*%
%TD*%
%TA.AperFunction,Conductor*%
%ADD16C,0.254000*%
%TD*%
G04 APERTURE END LIST*
D10*
%TO.P,J1,12*%
%TO.N,GND*%
X103940000Y-99000000D03*
%TO.P,J1,11*%
%TO.N,HV*%
X101400000Y-99000000D03*
%TO.P,J1,10*%
%TO.N,Net-(J1-Pad10)*%
X98860000Y-99000000D03*
%TO.P,J1,9*%
%TO.N,Net-(J1-Pad9)*%
X96320000Y-99000000D03*
%TO.P,J1,8*%
%TO.N,Net-(J1-Pad8)*%
X93780000Y-99000000D03*
%TO.P,J1,7*%
%TO.N,Net-(J1-Pad7)*%
X91240000Y-99000000D03*
%TO.P,J1,6*%
%TO.N,Net-(J1-Pad6)*%
X88700000Y-99000000D03*
%TO.P,J1,5*%
%TO.N,Net-(J1-Pad5)*%
X86160000Y-99000000D03*
%TO.P,J1,4*%
%TO.N,Net-(J1-Pad4)*%
X83620000Y-99000000D03*
%TO.P,J1,3*%
%TO.N,Net-(J1-Pad3)*%
X81080000Y-99000000D03*
%TO.P,J1,2*%
%TO.N,Net-(J1-Pad2)*%
X78540000Y-99000000D03*
D11*
%TO.P,J1,1*%
%TO.N,Net-(J1-Pad1)*%
X76000000Y-99000000D03*
%TD*%
D10*
%TO.P,J2,12*%
%TO.N,GND*%
X103940000Y-96000000D03*
%TO.P,J2,11*%
%TO.N,HV*%
X101400000Y-96000000D03*
%TO.P,J2,10*%
%TO.N,Net-(J2-Pad10)*%
X98860000Y-96000000D03*
%TO.P,J2,9*%
%TO.N,Net-(J2-Pad9)*%
X96320000Y-96000000D03*
%TO.P,J2,8*%
%TO.N,Net-(J2-Pad8)*%
X93780000Y-96000000D03*
%TO.P,J2,7*%
%TO.N,Net-(J2-Pad7)*%
X91240000Y-96000000D03*
%TO.P,J2,6*%
%TO.N,Net-(J2-Pad6)*%
X88700000Y-96000000D03*
%TO.P,J2,5*%
%TO.N,Net-(J2-Pad5)*%
X86160000Y-96000000D03*
%TO.P,J2,4*%
%TO.N,Net-(J2-Pad4)*%
X83620000Y-96000000D03*
%TO.P,J2,3*%
%TO.N,Net-(J2-Pad3)*%
X81080000Y-96000000D03*
%TO.P,J2,2*%
%TO.N,Net-(J2-Pad2)*%
X78540000Y-96000000D03*
D11*
%TO.P,J2,1*%
%TO.N,Net-(J2-Pad1)*%
X76000000Y-96000000D03*
%TD*%
D10*
%TO.P,J3,12*%
%TO.N,GND*%
X136940000Y-99000000D03*
%TO.P,J3,11*%
%TO.N,HV*%
X134400000Y-99000000D03*
%TO.P,J3,10*%
%TO.N,Net-(J3-Pad10)*%
X131860000Y-99000000D03*
%TO.P,J3,9*%
%TO.N,Net-(J3-Pad9)*%
X129320000Y-99000000D03*
%TO.P,J3,8*%
%TO.N,Net-(J3-Pad8)*%
X126780000Y-99000000D03*
%TO.P,J3,7*%
%TO.N,Net-(J3-Pad7)*%
X124240000Y-99000000D03*
%TO.P,J3,6*%
%TO.N,Net-(J3-Pad6)*%
X121700000Y-99000000D03*
%TO.P,J3,5*%
%TO.N,Net-(J3-Pad5)*%
X119160000Y-99000000D03*
%TO.P,J3,4*%
%TO.N,Net-(J3-Pad4)*%
X116620000Y-99000000D03*
%TO.P,J3,3*%
%TO.N,Net-(J3-Pad3)*%
X114080000Y-99000000D03*
%TO.P,J3,2*%
%TO.N,Net-(J3-Pad2)*%
X111540000Y-99000000D03*
D11*
%TO.P,J3,1*%
%TO.N,Net-(J3-Pad1)*%
X109000000Y-99000000D03*
%TD*%
%TO.P,J4,1*%
%TO.N,Net-(J4-Pad1)*%
X109000000Y-96000000D03*
D10*
%TO.P,J4,2*%
%TO.N,Net-(J4-Pad2)*%
X111540000Y-96000000D03*
%TO.P,J4,3*%
%TO.N,Net-(J4-Pad3)*%
X114080000Y-96000000D03*
%TO.P,J4,4*%
%TO.N,Net-(J4-Pad4)*%
X116620000Y-96000000D03*
%TO.P,J4,5*%
%TO.N,Net-(J4-Pad5)*%
X119160000Y-96000000D03*
%TO.P,J4,6*%
%TO.N,Net-(J4-Pad6)*%
X121700000Y-96000000D03*
%TO.P,J4,7*%
%TO.N,Net-(J4-Pad7)*%
X124240000Y-96000000D03*
%TO.P,J4,8*%
%TO.N,Net-(J4-Pad8)*%
X126780000Y-96000000D03*
%TO.P,J4,9*%
%TO.N,Net-(J4-Pad9)*%
X129320000Y-96000000D03*
%TO.P,J4,10*%
%TO.N,Net-(J4-Pad10)*%
X131860000Y-96000000D03*
%TO.P,J4,11*%
%TO.N,HV*%
X134400000Y-96000000D03*
%TO.P,J4,12*%
%TO.N,GND*%
X136940000Y-96000000D03*
%TD*%
D11*
%TO.P,J5,1*%
%TO.N,Net-(J5-Pad1)*%
X142000000Y-99000000D03*
D10*
%TO.P,J5,2*%
%TO.N,Net-(J5-Pad2)*%
X144540000Y-99000000D03*
%TO.P,J5,3*%
%TO.N,Net-(J5-Pad3)*%
X147080000Y-99000000D03*
%TO.P,J5,4*%
%TO.N,Net-(J5-Pad4)*%
X149620000Y-99000000D03*
%TO.P,J5,5*%
%TO.N,Net-(J5-Pad5)*%
X152160000Y-99000000D03*
%TO.P,J5,6*%
%TO.N,Net-(J5-Pad6)*%
X154700000Y-99000000D03*
%TO.P,J5,7*%
%TO.N,Net-(J5-Pad7)*%
X157240000Y-99000000D03*
%TO.P,J5,8*%
%TO.N,Net-(J5-Pad8)*%
X159780000Y-99000000D03*
%TO.P,J5,9*%
%TO.N,Net-(J5-Pad9)*%
X162320000Y-99000000D03*
%TO.P,J5,10*%
%TO.N,Net-(J5-Pad10)*%
X164860000Y-99000000D03*
%TO.P,J5,11*%
%TO.N,HV*%
X167400000Y-99000000D03*
%TO.P,J5,12*%
%TO.N,GND*%
X169940000Y-99000000D03*
%TD*%
D11*
%TO.P,J6,1*%
%TO.N,Net-(J6-Pad1)*%
X142000000Y-96000000D03*
D10*
%TO.P,J6,2*%
%TO.N,Net-(J6-Pad2)*%
X144540000Y-96000000D03*
%TO.P,J6,3*%
%TO.N,Net-(J6-Pad3)*%
X147080000Y-96000000D03*
%TO.P,J6,4*%
%TO.N,Net-(J6-Pad4)*%
X149620000Y-96000000D03*
%TO.P,J6,5*%
%TO.N,Net-(J6-Pad5)*%
X152160000Y-96000000D03*
%TO.P,J6,6*%
%TO.N,Net-(J6-Pad6)*%
X154700000Y-96000000D03*
%TO.P,J6,7*%
%TO.N,Net-(J6-Pad7)*%
X157240000Y-96000000D03*
%TO.P,J6,8*%
%TO.N,Net-(J6-Pad8)*%
X159780000Y-96000000D03*
%TO.P,J6,9*%
%TO.N,Net-(J6-Pad9)*%
X162320000Y-96000000D03*
%TO.P,J6,10*%
%TO.N,Net-(J6-Pad10)*%
X164860000Y-96000000D03*
%TO.P,J6,11*%
%TO.N,HV*%
X167400000Y-96000000D03*
%TO.P,J6,12*%
%TO.N,GND*%
X169940000Y-96000000D03*
%TD*%
%TO.P,R1,2*%
%TO.N,Net-(R1-Pad2)*%
%TA.AperFunction,SMDPad,CuDef*%
G36*
G01*
X86450000Y-74456250D02*
X86450000Y-73543750D01*
G75*
G02*
X86693750Y-73300000I243750J0D01*
G01*
X87181250Y-73300000D01*
G75*
G02*
X87425000Y-73543750I0J-243750D01*
G01*
X87425000Y-74456250D01*
G75*
G02*
X87181250Y-74700000I-243750J0D01*
G01*
X86693750Y-74700000D01*
G75*
G02*
X86450000Y-74456250I0J243750D01*
G01*
G37*
%TD.AperFunction*%
%TO.P,R1,1*%
%TO.N,HV*%
%TA.AperFunction,SMDPad,CuDef*%
G36*
G01*
X84575000Y-74456250D02*
X84575000Y-73543750D01*
G75*
G02*
X84818750Y-73300000I243750J0D01*
G01*
X85306250Y-73300000D01*
G75*
G02*
X85550000Y-73543750I0J-243750D01*
G01*
X85550000Y-74456250D01*
G75*
G02*
X85306250Y-74700000I-243750J0D01*
G01*
X84818750Y-74700000D01*
G75*
G02*
X84575000Y-74456250I0J243750D01*
G01*
G37*
%TD.AperFunction*%
%TD*%
%TO.P,R2,2*%
%TO.N,Net-(R2-Pad2)*%
%TA.AperFunction,SMDPad,CuDef*%
G36*
G01*
X107450000Y-74456250D02*
X107450000Y-73543750D01*
G75*
G02*
X107693750Y-73300000I243750J0D01*
G01*
X108181250Y-73300000D01*
G75*
G02*
X108425000Y-73543750I0J-243750D01*
G01*
X108425000Y-74456250D01*
G75*
G02*
X108181250Y-74700000I-243750J0D01*
G01*
X107693750Y-74700000D01*
G75*
G02*
X107450000Y-74456250I0J243750D01*
G01*
G37*
%TD.AperFunction*%
%TO.P,R2,1*%
%TO.N,HV*%
%TA.AperFunction,SMDPad,CuDef*%
G36*
G01*
X105575000Y-74456250D02*
X105575000Y-73543750D01*
G75*
G02*
X105818750Y-73300000I243750J0D01*
G01*
X106306250Y-73300000D01*
G75*
G02*
X106550000Y-73543750I0J-243750D01*
G01*
X106550000Y-74456250D01*
G75*
G02*
X106306250Y-74700000I-243750J0D01*
G01*
X105818750Y-74700000D01*
G75*
G02*
X105575000Y-74456250I0J243750D01*
G01*
G37*
%TD.AperFunction*%
%TD*%
%TO.P,R3,2*%
%TO.N,Net-(R3-Pad2)*%
%TA.AperFunction,SMDPad,CuDef*%
G36*
G01*
X140450000Y-74456250D02*
X140450000Y-73543750D01*
G75*
G02*
X140693750Y-73300000I243750J0D01*
G01*
X141181250Y-73300000D01*
G75*
G02*
X141425000Y-73543750I0J-243750D01*
G01*
X141425000Y-74456250D01*
G75*
G02*
X141181250Y-74700000I-243750J0D01*
G01*
X140693750Y-74700000D01*
G75*
G02*
X140450000Y-74456250I0J243750D01*
G01*
G37*
%TD.AperFunction*%
%TO.P,R3,1*%
%TO.N,HV*%
%TA.AperFunction,SMDPad,CuDef*%
G36*
G01*
X138575000Y-74456250D02*
X138575000Y-73543750D01*
G75*
G02*
X138818750Y-73300000I243750J0D01*
G01*
X139306250Y-73300000D01*
G75*
G02*
X139550000Y-73543750I0J-243750D01*
G01*
X139550000Y-74456250D01*
G75*
G02*
X139306250Y-74700000I-243750J0D01*
G01*
X138818750Y-74700000D01*
G75*
G02*
X138575000Y-74456250I0J243750D01*
G01*
G37*
%TD.AperFunction*%
%TD*%
%TO.P,R4,1*%
%TO.N,HV*%
%TA.AperFunction,SMDPad,CuDef*%
G36*
G01*
X159575000Y-74456250D02*
X159575000Y-73543750D01*
G75*
G02*
X159818750Y-73300000I243750J0D01*
G01*
X160306250Y-73300000D01*
G75*
G02*
X160550000Y-73543750I0J-243750D01*
G01*
X160550000Y-74456250D01*
G75*
G02*
X160306250Y-74700000I-243750J0D01*
G01*
X159818750Y-74700000D01*
G75*
G02*
X159575000Y-74456250I0J243750D01*
G01*
G37*
%TD.AperFunction*%
%TO.P,R4,2*%
%TO.N,Net-(R4-Pad2)*%
%TA.AperFunction,SMDPad,CuDef*%
G36*
G01*
X161450000Y-74456250D02*
X161450000Y-73543750D01*
G75*
G02*
X161693750Y-73300000I243750J0D01*
G01*
X162181250Y-73300000D01*
G75*
G02*
X162425000Y-73543750I0J-243750D01*
G01*
X162425000Y-74456250D01*
G75*
G02*
X162181250Y-74700000I-243750J0D01*
G01*
X161693750Y-74700000D01*
G75*
G02*
X161450000Y-74456250I0J243750D01*
G01*
G37*
%TD.AperFunction*%
%TD*%
%TO.P,R5,1*%
%TO.N,HV*%
%TA.AperFunction,SMDPad,CuDef*%
G36*
G01*
X192575000Y-74456250D02*
X192575000Y-73543750D01*
G75*
G02*
X192818750Y-73300000I243750J0D01*
G01*
X193306250Y-73300000D01*
G75*
G02*
X193550000Y-73543750I0J-243750D01*
G01*
X193550000Y-74456250D01*
G75*
G02*
X193306250Y-74700000I-243750J0D01*
G01*
X192818750Y-74700000D01*
G75*
G02*
X192575000Y-74456250I0J243750D01*
G01*
G37*
%TD.AperFunction*%
%TO.P,R5,2*%
%TO.N,Net-(R5-Pad2)*%
%TA.AperFunction,SMDPad,CuDef*%
G36*
G01*
X194450000Y-74456250D02*
X194450000Y-73543750D01*
G75*
G02*
X194693750Y-73300000I243750J0D01*
G01*
X195181250Y-73300000D01*
G75*
G02*
X195425000Y-73543750I0J-243750D01*
G01*
X195425000Y-74456250D01*
G75*
G02*
X195181250Y-74700000I-243750J0D01*
G01*
X194693750Y-74700000D01*
G75*
G02*
X194450000Y-74456250I0J243750D01*
G01*
G37*
%TD.AperFunction*%
%TD*%
%TO.P,R6,1*%
%TO.N,HV*%
%TA.AperFunction,SMDPad,CuDef*%
G36*
G01*
X213575000Y-74456250D02*
X213575000Y-73543750D01*
G75*
G02*
X213818750Y-73300000I243750J0D01*
G01*
X214306250Y-73300000D01*
G75*
G02*
X214550000Y-73543750I0J-243750D01*
G01*
X214550000Y-74456250D01*
G75*
G02*
X214306250Y-74700000I-243750J0D01*
G01*
X213818750Y-74700000D01*
G75*
G02*
X213575000Y-74456250I0J243750D01*
G01*
G37*
%TD.AperFunction*%
%TO.P,R6,2*%
%TO.N,Net-(R6-Pad2)*%
%TA.AperFunction,SMDPad,CuDef*%
G36*
G01*
X215450000Y-74456250D02*
X215450000Y-73543750D01*
G75*
G02*
X215693750Y-73300000I243750J0D01*
G01*
X216181250Y-73300000D01*
G75*
G02*
X216425000Y-73543750I0J-243750D01*
G01*
X216425000Y-74456250D01*
G75*
G02*
X216181250Y-74700000I-243750J0D01*
G01*
X215693750Y-74700000D01*
G75*
G02*
X215450000Y-74456250I0J243750D01*
G01*
G37*
%TD.AperFunction*%
%TD*%
D12*
%TO.P,U1,11*%
%TO.N,Net-(R1-Pad2)*%
X90625000Y-73886380D03*
%TO.P,U1,10*%
%TO.N,Net-(J1-Pad1)*%
X88886380Y-75625000D03*
%TO.P,U1,9*%
%TO.N,Net-(J1-Pad10)*%
X88250000Y-78000000D03*
%TO.P,U1,8*%
%TO.N,Net-(J1-Pad9)*%
X88886380Y-80374999D03*
%TO.P,U1,7*%
%TO.N,Net-(J1-Pad8)*%
X90625001Y-82113620D03*
%TO.P,U1,6*%
%TO.N,Net-(J1-Pad7)*%
X93000000Y-82750000D03*
%TO.P,U1,5*%
%TO.N,Net-(J1-Pad6)*%
X95375000Y-82113620D03*
%TO.P,U1,4*%
%TO.N,Net-(J1-Pad5)*%
X97113620Y-80374999D03*
%TO.P,U1,3*%
%TO.N,Net-(J1-Pad4)*%
X97750000Y-78000000D03*
%TO.P,U1,2*%
%TO.N,Net-(J1-Pad3)*%
X97113620Y-75625001D03*
%TO.P,U1,1*%
%TO.N,Net-(J1-Pad2)*%
X95375000Y-73886380D03*
%TD*%
%TO.P,U2,11*%
%TO.N,Net-(R2-Pad2)*%
X111625000Y-73886380D03*
%TO.P,U2,10*%
%TO.N,Net-(J2-Pad1)*%
X109886380Y-75625000D03*
%TO.P,U2,9*%
%TO.N,Net-(J2-Pad10)*%
X109250000Y-78000000D03*
%TO.P,U2,8*%
%TO.N,Net-(J2-Pad9)*%
X109886380Y-80374999D03*
%TO.P,U2,7*%
%TO.N,Net-(J2-Pad8)*%
X111625001Y-82113620D03*
%TO.P,U2,6*%
%TO.N,Net-(J2-Pad7)*%
X114000000Y-82750000D03*
%TO.P,U2,5*%
%TO.N,Net-(J2-Pad6)*%
X116375000Y-82113620D03*
%TO.P,U2,4*%
%TO.N,Net-(J2-Pad5)*%
X118113620Y-80374999D03*
%TO.P,U2,3*%
%TO.N,Net-(J2-Pad4)*%
X118750000Y-78000000D03*
%TO.P,U2,2*%
%TO.N,Net-(J2-Pad3)*%
X118113620Y-75625001D03*
%TO.P,U2,1*%
%TO.N,Net-(J2-Pad2)*%
X116375000Y-73886380D03*
%TD*%
%TO.P,U3,1*%
%TO.N,Net-(J3-Pad2)*%
X149375000Y-73886380D03*
%TO.P,U3,2*%
%TO.N,Net-(J3-Pad3)*%
X151113620Y-75625001D03*
%TO.P,U3,3*%
%TO.N,Net-(J3-Pad4)*%
X151750000Y-78000000D03*
%TO.P,U3,4*%
%TO.N,Net-(J3-Pad5)*%
X151113620Y-80374999D03*
%TO.P,U3,5*%
%TO.N,Net-(J3-Pad6)*%
X149375000Y-82113620D03*
%TO.P,U3,6*%
%TO.N,Net-(J3-Pad7)*%
X147000000Y-82750000D03*
%TO.P,U3,7*%
%TO.N,Net-(J3-Pad8)*%
X144625001Y-82113620D03*
%TO.P,U3,8*%
%TO.N,Net-(J3-Pad9)*%
X142886380Y-80374999D03*
%TO.P,U3,9*%
%TO.N,Net-(J3-Pad10)*%
X142250000Y-78000000D03*
%TO.P,U3,10*%
%TO.N,Net-(J3-Pad1)*%
X142886380Y-75625000D03*
%TO.P,U3,11*%
%TO.N,Net-(R3-Pad2)*%
X144625000Y-73886380D03*
%TD*%
%TO.P,U4,1*%
%TO.N,Net-(J4-Pad2)*%
X170375000Y-73886380D03*
%TO.P,U4,2*%
%TO.N,Net-(J4-Pad3)*%
X172113620Y-75625001D03*
%TO.P,U4,3*%
%TO.N,Net-(J4-Pad4)*%
X172750000Y-78000000D03*
%TO.P,U4,4*%
%TO.N,Net-(J4-Pad5)*%
X172113620Y-80374999D03*
%TO.P,U4,5*%
%TO.N,Net-(J4-Pad6)*%
X170375000Y-82113620D03*
%TO.P,U4,6*%
%TO.N,Net-(J4-Pad7)*%
X168000000Y-82750000D03*
%TO.P,U4,7*%
%TO.N,Net-(J4-Pad8)*%
X165625001Y-82113620D03*
%TO.P,U4,8*%
%TO.N,Net-(J4-Pad9)*%
X163886380Y-80374999D03*
%TO.P,U4,9*%
%TO.N,Net-(J4-Pad10)*%
X163250000Y-78000000D03*
%TO.P,U4,10*%
%TO.N,Net-(J4-Pad1)*%
X163886380Y-75625000D03*
%TO.P,U4,11*%
%TO.N,Net-(R4-Pad2)*%
X165625000Y-73886380D03*
%TD*%
%TO.P,U5,1*%
%TO.N,Net-(J5-Pad2)*%
X203375000Y-73886380D03*
%TO.P,U5,2*%
%TO.N,Net-(J5-Pad3)*%
X205113620Y-75625001D03*
%TO.P,U5,3*%
%TO.N,Net-(J5-Pad4)*%
X205750000Y-78000000D03*
%TO.P,U5,4*%
%TO.N,Net-(J5-Pad5)*%
X205113620Y-80374999D03*
%TO.P,U5,5*%
%TO.N,Net-(J5-Pad6)*%
X203375000Y-82113620D03*
%TO.P,U5,6*%
%TO.N,Net-(J5-Pad7)*%
X201000000Y-82750000D03*
%TO.P,U5,7*%
%TO.N,Net-(J5-Pad8)*%
X198625001Y-82113620D03*
%TO.P,U5,8*%
%TO.N,Net-(J5-Pad9)*%
X196886380Y-80374999D03*
%TO.P,U5,9*%
%TO.N,Net-(J5-Pad10)*%
X196250000Y-78000000D03*
%TO.P,U5,10*%
%TO.N,Net-(J5-Pad1)*%
X196886380Y-75625000D03*
%TO.P,U5,11*%
%TO.N,Net-(R5-Pad2)*%
X198625000Y-73886380D03*
%TD*%
%TO.P,U6,11*%
%TO.N,Net-(R6-Pad2)*%
X219625000Y-73886380D03*
%TO.P,U6,10*%
%TO.N,Net-(J6-Pad1)*%
X217886380Y-75625000D03*
%TO.P,U6,9*%
%TO.N,Net-(J6-Pad10)*%
X217250000Y-78000000D03*
%TO.P,U6,8*%
%TO.N,Net-(J6-Pad9)*%
X217886380Y-80374999D03*
%TO.P,U6,7*%
%TO.N,Net-(J6-Pad8)*%
X219625001Y-82113620D03*
%TO.P,U6,6*%
%TO.N,Net-(J6-Pad7)*%
X222000000Y-82750000D03*
%TO.P,U6,5*%
%TO.N,Net-(J6-Pad6)*%
X224375000Y-82113620D03*
%TO.P,U6,4*%
%TO.N,Net-(J6-Pad5)*%
X226113620Y-80374999D03*
%TO.P,U6,3*%
%TO.N,Net-(J6-Pad4)*%
X226750000Y-78000000D03*
%TO.P,U6,2*%
%TO.N,Net-(J6-Pad3)*%
X226113620Y-75625001D03*
%TO.P,U6,1*%
%TO.N,Net-(J6-Pad2)*%
X224375000Y-73886380D03*
%TD*%
D13*
%TO.N,HV*%
X101384100Y-73997820D03*
%TD*%
D14*
%TO.N,HV*%
X106060320Y-73997820D02*
X106062500Y-74000000D01*
X101384100Y-73997820D02*
X106060320Y-73997820D01*
X101384100Y-73997820D02*
X99386280Y-72000000D01*
X87062500Y-72000000D02*
X85062500Y-74000000D01*
X99386280Y-72000000D02*
X87062500Y-72000000D01*
X106062500Y-74000000D02*
X108062500Y-72000000D01*
X137062500Y-72000000D02*
X139062500Y-74000000D01*
X108062500Y-72000000D02*
X137062500Y-72000000D01*
X139062500Y-74000000D02*
X141000000Y-72062500D01*
X158125000Y-72062500D02*
X160062500Y-74000000D01*
X141000000Y-72062500D02*
X158125000Y-72062500D01*
X160062500Y-74000000D02*
X162062500Y-72000000D01*
X191062500Y-72000000D02*
X193062500Y-74000000D01*
X162062500Y-72000000D02*
X191062500Y-72000000D01*
X193062500Y-74000000D02*
X195000000Y-72062500D01*
X212125000Y-72062500D02*
X214062500Y-74000000D01*
X195000000Y-72062500D02*
X212125000Y-72062500D01*
D15*
%TO.N,Net-(J2-Pad10)*%
X119762801Y-77513855D02*
X119236145Y-76987199D01*
X119762801Y-81806385D02*
X119762801Y-77513855D01*
X99960801Y-97100801D02*
X104468385Y-97100801D01*
X116132200Y-78000000D02*
X109250000Y-78000000D01*
X117145001Y-76987199D02*
X116132200Y-78000000D01*
X119236145Y-76987199D02*
X117145001Y-76987199D01*
X98860000Y-96000000D02*
X99960801Y-97100801D01*
X104468385Y-97100801D02*
X119762801Y-81806385D01*
%TO.N,Net-(J2-Pad9)*%
X97420801Y-94899199D02*
X105088367Y-94899199D01*
X117387801Y-82599765D02*
X117387801Y-81627475D01*
X96320000Y-96000000D02*
X97420801Y-94899199D01*
X105088367Y-94899199D02*
X117387801Y-82599765D01*
X117387801Y-81627475D02*
X116135325Y-80374999D01*
X116135325Y-80374999D02*
X109886380Y-80374999D01*
%TO.N,Net-(J2-Pad8)*%
X107666380Y-82113620D02*
X111625001Y-82113620D01*
X93780000Y-96000000D02*
X107666380Y-82113620D01*
%TO.N,Net-(J2-Pad7)*%
X112350819Y-81100819D02*
X114000000Y-82750000D01*
X111200791Y-81100819D02*
X112350819Y-81100819D01*
X91240000Y-96000000D02*
X105550590Y-81689410D01*
X110612200Y-81689410D02*
X111200791Y-81100819D01*
X105550590Y-81689410D02*
X110612200Y-81689410D01*
%TO.N,Net-(J2-Pad6)*%
X115060589Y-80799209D02*
X115613001Y-81351621D01*
X111075860Y-80799208D02*
X115060589Y-80799209D01*
X115613001Y-81351621D02*
X116375000Y-82113620D01*
X110487268Y-81387800D02*
X111075860Y-80799208D01*
X103312200Y-81387800D02*
X110487268Y-81387800D01*
X88700000Y-96000000D02*
X103312200Y-81387800D01*
%TO.N,Net-(J2-Pad5)*%
X86160000Y-96000000D02*
X87260801Y-94899199D01*
X87260801Y-94899199D02*
X87260801Y-93663399D01*
X87260801Y-93663399D02*
X101562002Y-79362198D01*
X117100819Y-79362198D02*
X118113620Y-80374999D01*
X101562002Y-79362198D02*
X117100819Y-79362198D01*
%TO.N,Net-(J2-Pad4)*%
X117689413Y-79060587D02*
X118750000Y-78000000D01*
X101437071Y-79060587D02*
X117689413Y-79060587D01*
X86959190Y-93571624D02*
X86959191Y-93538467D01*
X86959191Y-93538467D02*
X101437071Y-79060587D01*
X83620000Y-96000000D02*
X84530814Y-96000000D01*
X84530814Y-96000000D02*
X86959190Y-93571624D01*
%TO.N,Net-(J2-Pad3)*%
X85205073Y-94899199D02*
X86657581Y-93446691D01*
X115696451Y-76964540D02*
X117035990Y-75625001D01*
X108786514Y-76964540D02*
X115696451Y-76964540D01*
X86657581Y-93446691D02*
X86657581Y-93413535D01*
X117035990Y-75625001D02*
X118113620Y-75625001D01*
X86657581Y-93413535D02*
X101350138Y-78720978D01*
X83091615Y-94899199D02*
X85205073Y-94899199D01*
X101350138Y-78720978D02*
X107030076Y-78720978D01*
X81080000Y-96000000D02*
X81990814Y-96000000D01*
X81990814Y-96000000D02*
X83091615Y-94899199D01*
X107030076Y-78720978D02*
X108786514Y-76964540D01*
%TO.N,Net-(J2-Pad2)*%
X82966684Y-94597588D02*
X85080142Y-94597588D01*
X101225207Y-78419367D02*
X106905145Y-78419367D01*
X113598451Y-76662929D02*
X115613001Y-74648379D01*
X85080142Y-94597588D02*
X86355970Y-93321760D01*
X115613001Y-74648379D02*
X116375000Y-73886380D01*
X78540000Y-96000000D02*
X79450814Y-96000000D01*
X106905145Y-78419367D02*
X108661583Y-76662929D01*
X82665073Y-94899199D02*
X82966684Y-94597588D01*
X86355971Y-93288603D02*
X101225207Y-78419367D01*
X86355970Y-93321760D02*
X86355971Y-93288603D01*
X108661583Y-76662929D02*
X113598451Y-76662929D01*
X80551615Y-94899199D02*
X82665073Y-94899199D01*
X79450814Y-96000000D02*
X80551615Y-94899199D01*
%TO.N,Net-(J2-Pad1)*%
X76178750Y-94869650D02*
X80154622Y-94869650D01*
X80154622Y-94869650D02*
X80426684Y-94597588D01*
X82400128Y-94597588D02*
X93246889Y-83750827D01*
X76000000Y-96000000D02*
X76000000Y-95048400D01*
X93246889Y-83750827D02*
X95467205Y-83750827D01*
X108808750Y-75625000D02*
X109886380Y-75625000D01*
X95467205Y-83750827D02*
X103593032Y-75625000D01*
X80426684Y-94597588D02*
X82400128Y-94597588D01*
X76000000Y-95048400D02*
X76178750Y-94869650D01*
X103593032Y-75625000D02*
X108808750Y-75625000D01*
%TO.N,Net-(J4-Pad1)*%
X150627475Y-74612200D02*
X156580540Y-74612200D01*
X150340494Y-74899181D02*
X150627475Y-74612200D01*
X144138855Y-74899181D02*
X150340494Y-74899181D01*
X109000000Y-96000000D02*
X128012801Y-76987199D01*
X140025235Y-76987199D02*
X142400235Y-74612199D01*
X128012801Y-76987199D02*
X140025235Y-76987199D01*
X142400235Y-74612199D02*
X143851873Y-74612199D01*
X143851873Y-74612199D02*
X144138855Y-74899181D01*
X157593340Y-75625000D02*
X163886380Y-75625000D01*
X156580540Y-74612200D02*
X157593340Y-75625000D01*
%TO.N,Net-(J4-Pad2)*%
X141553457Y-76637801D02*
X167623579Y-76637801D01*
X167623579Y-76637801D02*
X170375000Y-73886380D01*
X128177802Y-79362198D02*
X138829060Y-79362198D01*
X138829060Y-79362198D02*
X141553457Y-76637801D01*
X111540000Y-96000000D02*
X128177802Y-79362198D01*
%TO.N,Net-(J4-Pad3)*%
X141678388Y-76939412D02*
X170799209Y-76939412D01*
X124735263Y-92558899D02*
X126058901Y-92558899D01*
X117637941Y-92442059D02*
X124618424Y-92442060D01*
X126058901Y-92558899D02*
X141678388Y-76939412D01*
X114080000Y-96000000D02*
X117637941Y-92442059D01*
X124618424Y-92442060D02*
X124735263Y-92558899D01*
X170799209Y-76939412D02*
X172113620Y-75625001D01*
%TO.N,Net-(J4-Pad4)*%
X127629270Y-93180550D02*
X141749232Y-79060588D01*
X116620000Y-96000000D02*
X119439450Y-93180550D01*
X171689412Y-79060588D02*
X172750000Y-78000000D01*
X141749232Y-79060588D02*
X171689412Y-79060588D01*
X119439450Y-93180550D02*
X127629270Y-93180550D01*
%TO.N,Net-(J4-Pad5)*%
X127671801Y-93892399D02*
X142202002Y-79362198D01*
X171100819Y-79362198D02*
X172113620Y-80374999D01*
X121267601Y-93892399D02*
X127671801Y-93892399D01*
X119160000Y-96000000D02*
X121267601Y-93892399D01*
X142202002Y-79362198D02*
X171100819Y-79362198D01*
%TO.N,Net-(J4-Pad6)*%
X140816185Y-82889769D02*
X141923364Y-82889769D01*
X150038884Y-80799209D02*
X150627475Y-81387800D01*
X129511944Y-94194010D02*
X140816185Y-82889769D01*
X169613001Y-81351621D02*
X170375000Y-82113620D01*
X164961117Y-80799208D02*
X169060589Y-80799209D01*
X150627475Y-81387800D02*
X164372525Y-81387800D01*
X169060589Y-80799209D02*
X169613001Y-81351621D01*
X144013925Y-80799208D02*
X150038884Y-80799209D01*
X141923364Y-82889769D02*
X144013925Y-80799208D01*
X123505990Y-94194010D02*
X129511944Y-94194010D01*
X121700000Y-96000000D02*
X123505990Y-94194010D01*
X164372525Y-81387800D02*
X164961117Y-80799208D01*
%TO.N,Net-(J4-Pad7)*%
X144138856Y-81100819D02*
X149913952Y-81100819D01*
X165086048Y-81100819D02*
X166350819Y-81100819D01*
X124240000Y-96000000D02*
X125738001Y-94501999D01*
X150502555Y-81689421D02*
X164497457Y-81689410D01*
X141055417Y-83191379D02*
X142048296Y-83191379D01*
X166350819Y-81100819D02*
X168000000Y-82750000D01*
X125738001Y-94501999D02*
X129744797Y-94501999D01*
X164497457Y-81689410D02*
X165086048Y-81100819D01*
X149913952Y-81100819D02*
X150502555Y-81689421D01*
X129744797Y-94501999D02*
X141055417Y-83191379D01*
X142048296Y-83191379D02*
X144138856Y-81100819D01*
%TO.N,Net-(J4-Pad8)*%
X141732163Y-84072109D02*
X163666512Y-84072109D01*
X164863002Y-82875619D02*
X165625001Y-82113620D01*
X131000662Y-94803610D02*
X141732163Y-84072109D01*
X127976390Y-94803610D02*
X131000662Y-94803610D01*
X163666512Y-84072109D02*
X164863002Y-82875619D01*
X126780000Y-96000000D02*
X127976390Y-94803610D01*
%TO.N,Net-(J4-Pad9)*%
X130230814Y-96000000D02*
X141857094Y-84373720D01*
X129320000Y-96000000D02*
X130230814Y-96000000D01*
X171387801Y-81627475D02*
X170135325Y-80374999D01*
X171387801Y-82599764D02*
X171387801Y-81627475D01*
X169613845Y-84373720D02*
X171387801Y-82599764D01*
X170135325Y-80374999D02*
X163886380Y-80374999D01*
X141857094Y-84373720D02*
X169613845Y-84373720D01*
%TO.N,Net-(J4-Pad10)*%
X131860000Y-96000000D02*
X143166240Y-84693760D01*
X173236145Y-76987199D02*
X171615301Y-76987199D01*
X173762801Y-80651307D02*
X173762801Y-77513855D01*
X143166240Y-84693760D02*
X169720348Y-84693760D01*
X173762801Y-77513855D02*
X173236145Y-76987199D01*
X169720348Y-84693760D02*
X173762801Y-80651307D01*
X170602500Y-78000000D02*
X163250000Y-78000000D01*
X171615301Y-76987199D02*
X170602500Y-78000000D01*
%TO.N,Net-(J6-Pad1)*%
X142000000Y-95048400D02*
X151516440Y-85531960D01*
X142000000Y-96000000D02*
X142000000Y-95048400D01*
X151516440Y-85531960D02*
X203255880Y-85531960D01*
X213162840Y-75625000D02*
X217886380Y-75625000D01*
X203255880Y-85531960D02*
X213162840Y-75625000D01*
%TO.N,Net-(J6-Pad2)*%
X216686711Y-76637801D02*
X221623579Y-76637801D01*
X206532712Y-86791800D02*
X216686711Y-76637801D01*
X221623579Y-76637801D02*
X224375000Y-73886380D01*
X153748200Y-86791800D02*
X206532712Y-86791800D01*
X144540000Y-96000000D02*
X153748200Y-86791800D01*
%TO.N,Net-(J6-Pad3)*%
X147080000Y-96000000D02*
X155201080Y-87878920D01*
X205872134Y-87878920D02*
X216766194Y-76984860D01*
X155201080Y-87878920D02*
X205872134Y-87878920D01*
X224753761Y-76984860D02*
X226113620Y-75625001D01*
X216766194Y-76984860D02*
X224753761Y-76984860D01*
%TO.N,Net-(J6-Pad4)*%
X225689413Y-79060587D02*
X226750000Y-78000000D01*
X217275304Y-79060587D02*
X225689413Y-79060587D01*
X207938811Y-88397080D02*
X217275304Y-79060587D01*
X157222920Y-88397080D02*
X207938811Y-88397080D01*
X149620000Y-96000000D02*
X157222920Y-88397080D01*
%TO.N,Net-(J6-Pad5)*%
X152160000Y-96000000D02*
X159315880Y-88844120D01*
X217400235Y-79362198D02*
X225100819Y-79362198D01*
X207918313Y-88844120D02*
X217400235Y-79362198D01*
X159315880Y-88844120D02*
X207918313Y-88844120D01*
X225100819Y-79362198D02*
X226113620Y-80374999D01*
%TO.N,Net-(J6-Pad6)*%
X223613001Y-81351621D02*
X224375000Y-82113620D01*
X218961116Y-80799209D02*
X223060589Y-80799209D01*
X161439320Y-89260680D02*
X210499645Y-89260680D01*
X223060589Y-80799209D02*
X223613001Y-81351621D01*
X210499645Y-89260680D02*
X218961116Y-80799209D01*
X154700000Y-96000000D02*
X161439320Y-89260680D01*
%TO.N,Net-(J6-Pad7)*%
X157240000Y-96000000D02*
X163575460Y-89664540D01*
X219138856Y-81100819D02*
X220350819Y-81100819D01*
X210575135Y-89664540D02*
X219138856Y-81100819D01*
X220350819Y-81100819D02*
X222000000Y-82750000D01*
X163575460Y-89664540D02*
X210575135Y-89664540D01*
%TO.N,Net-(J6-Pad8)*%
X159780000Y-96000000D02*
X165660800Y-90119200D01*
X211619421Y-90119200D02*
X219625001Y-82113620D01*
X165660800Y-90119200D02*
X211619421Y-90119200D01*
%TO.N,Net-(J6-Pad9)*%
X162320000Y-96000000D02*
X167829960Y-90490040D01*
X224135325Y-80374999D02*
X217886380Y-80374999D01*
X225387801Y-81627475D02*
X224135325Y-80374999D01*
X225387801Y-82599765D02*
X225387801Y-81627475D01*
X217497526Y-90490040D02*
X225387801Y-82599765D01*
X167829960Y-90490040D02*
X217497526Y-90490040D01*
%TO.N,Net-(J6-Pad10)*%
X164860000Y-96000000D02*
X169874660Y-90985340D01*
X227762801Y-77513855D02*
X227236145Y-76987199D01*
X227762801Y-80651307D02*
X227762801Y-77513855D01*
X227236145Y-76987199D02*
X225526801Y-76987199D01*
X169874660Y-90985340D02*
X217428768Y-90985340D01*
X217428768Y-90985340D02*
X227762801Y-80651307D01*
X224514000Y-78000000D02*
X217250000Y-78000000D01*
X225526801Y-76987199D02*
X224514000Y-78000000D01*
%TO.N,Net-(R1-Pad2)*%
X90511380Y-74000000D02*
X90625000Y-73886380D01*
X86937500Y-74000000D02*
X90511380Y-74000000D01*
%TO.N,Net-(R2-Pad2)*%
X111511380Y-74000000D02*
X111625000Y-73886380D01*
X107937500Y-74000000D02*
X111511380Y-74000000D01*
%TO.N,Net-(R3-Pad2)*%
X144511380Y-74000000D02*
X144625000Y-73886380D01*
X140937500Y-74000000D02*
X144511380Y-74000000D01*
%TO.N,Net-(R4-Pad2)*%
X165511380Y-74000000D02*
X165625000Y-73886380D01*
X161937500Y-74000000D02*
X165511380Y-74000000D01*
%TO.N,Net-(R5-Pad2)*%
X198511380Y-74000000D02*
X198625000Y-73886380D01*
X194937500Y-74000000D02*
X198511380Y-74000000D01*
%TO.N,Net-(R6-Pad2)*%
X219511380Y-74000000D02*
X219625000Y-73886380D01*
X215937500Y-74000000D02*
X219511380Y-74000000D01*
%TD*%
D16*
%TO.N,GND*%
G36*
X174922148Y-61294751D02*
G01*
X174629396Y-61732886D01*
X174427744Y-62219715D01*
X174324943Y-62736530D01*
X174324943Y-63263470D01*
X174427744Y-63780285D01*
X174629396Y-64267114D01*
X174922148Y-64705249D01*
X175294751Y-65077852D01*
X175732886Y-65370604D01*
X176219715Y-65572256D01*
X176736530Y-65675057D01*
X177263470Y-65675057D01*
X177780285Y-65572256D01*
X178267114Y-65370604D01*
X178705249Y-65077852D01*
X179077852Y-64705249D01*
X179370604Y-64267114D01*
X179572256Y-63780285D01*
X179675057Y-63263470D01*
X179675057Y-62736530D01*
X179572256Y-62219715D01*
X179370604Y-61732886D01*
X179077852Y-61294751D01*
X178951101Y-61168000D01*
X242048899Y-61168000D01*
X241922148Y-61294751D01*
X241629396Y-61732886D01*
X241427744Y-62219715D01*
X241324943Y-62736530D01*
X241324943Y-63263470D01*
X241427744Y-63780285D01*
X241629396Y-64267114D01*
X241922148Y-64705249D01*
X242294751Y-65077852D01*
X242732886Y-65370604D01*
X243219715Y-65572256D01*
X243736530Y-65675057D01*
X244263470Y-65675057D01*
X244780285Y-65572256D01*
X245267114Y-65370604D01*
X245705249Y-65077852D01*
X245832001Y-64951100D01*
X245832000Y-96048899D01*
X245705249Y-95922148D01*
X245267114Y-95629396D01*
X244780285Y-95427744D01*
X244263470Y-95324943D01*
X243736530Y-95324943D01*
X243219715Y-95427744D01*
X242732886Y-95629396D01*
X242294751Y-95922148D01*
X241922148Y-96294751D01*
X241629396Y-96732886D01*
X241427744Y-97219715D01*
X241324943Y-97736530D01*
X241324943Y-98263470D01*
X241427744Y-98780285D01*
X241629396Y-99267114D01*
X241922148Y-99705249D01*
X242048899Y-99832000D01*
X178951101Y-99832000D01*
X179077852Y-99705249D01*
X179370604Y-99267114D01*
X179572256Y-98780285D01*
X179675057Y-98263470D01*
X179675057Y-97736530D01*
X179572256Y-97219715D01*
X179370604Y-96732886D01*
X179077852Y-96294751D01*
X178705249Y-95922148D01*
X178267114Y-95629396D01*
X177780285Y-95427744D01*
X177263470Y-95324943D01*
X176736530Y-95324943D01*
X176219715Y-95427744D01*
X175732886Y-95629396D01*
X175294751Y-95922148D01*
X174922148Y-96294751D01*
X174629396Y-96732886D01*
X174427744Y-97219715D01*
X174324943Y-97736530D01*
X174324943Y-98263470D01*
X174427744Y-98780285D01*
X174629396Y-99267114D01*
X174922148Y-99705249D01*
X175048899Y-99832000D01*
X171164577Y-99832000D01*
X171284157Y-99631252D01*
X171381481Y-99356891D01*
X171260814Y-99127000D01*
X170067000Y-99127000D01*
X170067000Y-99147000D01*
X169813000Y-99147000D01*
X169813000Y-99127000D01*
X169793000Y-99127000D01*
X169793000Y-98873000D01*
X169813000Y-98873000D01*
X169813000Y-97679845D01*
X170067000Y-97679845D01*
X170067000Y-98873000D01*
X171260814Y-98873000D01*
X171381481Y-98643109D01*
X171284157Y-98368748D01*
X171135178Y-98118645D01*
X170940269Y-97902412D01*
X170706920Y-97728359D01*
X170444099Y-97603175D01*
X170296890Y-97558524D01*
X170067000Y-97679845D01*
X169813000Y-97679845D01*
X169583110Y-97558524D01*
X169435901Y-97603175D01*
X169173080Y-97728359D01*
X169022383Y-97840763D01*
X168948064Y-97729537D01*
X168718527Y-97500000D01*
X168948064Y-97270463D01*
X169022383Y-97159237D01*
X169173080Y-97271641D01*
X169435901Y-97396825D01*
X169583110Y-97441476D01*
X169813000Y-97320155D01*
X169813000Y-96127000D01*
X170067000Y-96127000D01*
X170067000Y-97320155D01*
X170296890Y-97441476D01*
X170444099Y-97396825D01*
X170706920Y-97271641D01*
X170940269Y-97097588D01*
X171135178Y-96881355D01*
X171284157Y-96631252D01*
X171381481Y-96356891D01*
X171260814Y-96127000D01*
X170067000Y-96127000D01*
X169813000Y-96127000D01*
X169793000Y-96127000D01*
X169793000Y-95873000D01*
X169813000Y-95873000D01*
X169813000Y-94679845D01*
X170067000Y-94679845D01*
X170067000Y-95873000D01*
X171260814Y-95873000D01*
X171381481Y-95643109D01*
X171284157Y-95368748D01*
X171135178Y-95118645D01*
X170940269Y-94902412D01*
X170706920Y-94728359D01*
X170444099Y-94603175D01*
X170296890Y-94558524D01*
X170067000Y-94679845D01*
X169813000Y-94679845D01*
X169583110Y-94558524D01*
X169435901Y-94603175D01*
X169173080Y-94728359D01*
X169022383Y-94840763D01*
X168948064Y-94729537D01*
X168670463Y-94451936D01*
X168344039Y-94233827D01*
X168323124Y-94225164D01*
X170369148Y-92179140D01*
X217370132Y-92179140D01*
X217428768Y-92184915D01*
X217487404Y-92179140D01*
X217487412Y-92179140D01*
X217662794Y-92161866D01*
X217887826Y-92093604D01*
X218095217Y-91982751D01*
X218276996Y-91833568D01*
X218314383Y-91788012D01*
X228565479Y-81536917D01*
X228611029Y-81499535D01*
X228760212Y-81317756D01*
X228871065Y-81110365D01*
X228939327Y-80885333D01*
X228956601Y-80709951D01*
X228956601Y-80709943D01*
X228962376Y-80651307D01*
X228956601Y-80592671D01*
X228956601Y-77572490D01*
X228962376Y-77513854D01*
X228956601Y-77455218D01*
X228956601Y-77455211D01*
X228939327Y-77279829D01*
X228871065Y-77054797D01*
X228760212Y-76847406D01*
X228611029Y-76665627D01*
X228565473Y-76628240D01*
X228121760Y-76184527D01*
X228084373Y-76138971D01*
X227972043Y-76046783D01*
X228018620Y-75812627D01*
X228018620Y-75437375D01*
X227945411Y-75069333D01*
X227801809Y-74722645D01*
X227593330Y-74410635D01*
X227327986Y-74145291D01*
X227015976Y-73936812D01*
X226669288Y-73793210D01*
X226301246Y-73720001D01*
X226280000Y-73720001D01*
X226280000Y-73698754D01*
X226206791Y-73330712D01*
X226063189Y-72984024D01*
X225854710Y-72672014D01*
X225589366Y-72406670D01*
X225277356Y-72198191D01*
X224930668Y-72054589D01*
X224562626Y-71981380D01*
X224187374Y-71981380D01*
X223819332Y-72054589D01*
X223472644Y-72198191D01*
X223160634Y-72406670D01*
X222895290Y-72672014D01*
X222686811Y-72984024D01*
X222543209Y-73330712D01*
X222470000Y-73698754D01*
X222470000Y-74074006D01*
X222474826Y-74098267D01*
X221129092Y-75444001D01*
X220722764Y-75444001D01*
X220839366Y-75366090D01*
X221104710Y-75100746D01*
X221313189Y-74788736D01*
X221456791Y-74442048D01*
X221530000Y-74074006D01*
X221530000Y-73698754D01*
X221456791Y-73330712D01*
X221313189Y-72984024D01*
X221104710Y-72672014D01*
X220839366Y-72406670D01*
X220527356Y-72198191D01*
X220180668Y-72054589D01*
X219812626Y-71981380D01*
X219437374Y-71981380D01*
X219069332Y-72054589D01*
X218722644Y-72198191D01*
X218410634Y-72406670D01*
X218145290Y-72672014D01*
X218055630Y-72806200D01*
X217358109Y-72806200D01*
X217338889Y-72770241D01*
X217165741Y-72559259D01*
X216954759Y-72386111D01*
X216714052Y-72257451D01*
X216452870Y-72178222D01*
X216181250Y-72151470D01*
X215693750Y-72151470D01*
X215422130Y-72178222D01*
X215160948Y-72257451D01*
X215000000Y-72343479D01*
X214839052Y-72257451D01*
X214577870Y-72178222D01*
X214306250Y-72151470D01*
X213974100Y-72151470D01*
X213048302Y-71225673D01*
X213009323Y-71178177D01*
X212819808Y-71022646D01*
X212603592Y-70907076D01*
X212368984Y-70835908D01*
X212186143Y-70817900D01*
X212186133Y-70817900D01*
X212125000Y-70811879D01*
X212063867Y-70817900D01*
X195061133Y-70817900D01*
X195000000Y-70811879D01*
X194938867Y-70817900D01*
X194938857Y-70817900D01*
X194756016Y-70835908D01*
X194521408Y-70907076D01*
X194422121Y-70960146D01*
X194305191Y-71022646D01*
X194191833Y-71115677D01*
X194115677Y-71178177D01*
X194076703Y-71225668D01*
X193150901Y-72151470D01*
X192974100Y-72151470D01*
X191985802Y-71163173D01*
X191946823Y-71115677D01*
X191757308Y-70960146D01*
X191541092Y-70844576D01*
X191306484Y-70773408D01*
X191123643Y-70755400D01*
X191123633Y-70755400D01*
X191062500Y-70749379D01*
X191001367Y-70755400D01*
X162123632Y-70755400D01*
X162062499Y-70749379D01*
X162001366Y-70755400D01*
X162001357Y-70755400D01*
X161818516Y-70773408D01*
X161583908Y-70844576D01*
X161483261Y-70898373D01*
X161367691Y-70960146D01*
X161225669Y-71076701D01*
X161178177Y-71115677D01*
X161139203Y-71163168D01*
X160150901Y-72151470D01*
X159974100Y-72151470D01*
X159048302Y-71225673D01*
X159009323Y-71178177D01*
X158819808Y-71022646D01*
X158603592Y-70907076D01*
X158368984Y-70835908D01*
X158186143Y-70817900D01*
X158186133Y-70817900D01*
X158125000Y-70811879D01*
X158063867Y-70817900D01*
X141061133Y-70817900D01*
X141000000Y-70811879D01*
X140938867Y-70817900D01*
X140938857Y-70817900D01*
X140756016Y-70835908D01*
X140521408Y-70907076D01*
X140422121Y-70960146D01*
X140305191Y-71022646D01*
X140191833Y-71115677D01*
X140115677Y-71178177D01*
X140076703Y-71225668D01*
X139150901Y-72151470D01*
X138974100Y-72151470D01*
X137985802Y-71163173D01*
X137946823Y-71115677D01*
X137757308Y-70960146D01*
X137541092Y-70844576D01*
X137306484Y-70773408D01*
X137123643Y-70755400D01*
X137123633Y-70755400D01*
X137062500Y-70749379D01*
X137001367Y-70755400D01*
X108123632Y-70755400D01*
X108062499Y-70749379D01*
X108001366Y-70755400D01*
X108001357Y-70755400D01*
X107818516Y-70773408D01*
X107583908Y-70844576D01*
X107483261Y-70898373D01*
X107367691Y-70960146D01*
X107225669Y-71076701D01*
X107178177Y-71115677D01*
X107139203Y-71163168D01*
X106150901Y-72151470D01*
X105818750Y-72151470D01*
X105547130Y-72178222D01*
X105285948Y-72257451D01*
X105045241Y-72386111D01*
X104834259Y-72559259D01*
X104675080Y-72753220D01*
X102019453Y-72753220D01*
X101814901Y-72668491D01*
X100309582Y-71163173D01*
X100270603Y-71115677D01*
X100081088Y-70960146D01*
X99864872Y-70844576D01*
X99630264Y-70773408D01*
X99447423Y-70755400D01*
X99447413Y-70755400D01*
X99386280Y-70749379D01*
X99325147Y-70755400D01*
X87123632Y-70755400D01*
X87062499Y-70749379D01*
X87001366Y-70755400D01*
X87001357Y-70755400D01*
X86818516Y-70773408D01*
X86583908Y-70844576D01*
X86483261Y-70898373D01*
X86367691Y-70960146D01*
X86225669Y-71076701D01*
X86178177Y-71115677D01*
X86139203Y-71163168D01*
X85150901Y-72151470D01*
X84818750Y-72151470D01*
X84547130Y-72178222D01*
X84285948Y-72257451D01*
X84045241Y-72386111D01*
X83834259Y-72559259D01*
X83661111Y-72770241D01*
X83532451Y-73010948D01*
X83453222Y-73272130D01*
X83426470Y-73543750D01*
X83426470Y-74456250D01*
X83453222Y-74727870D01*
X83532451Y-74989052D01*
X83661111Y-75229759D01*
X83834259Y-75440741D01*
X84045241Y-75613889D01*
X84285948Y-75742549D01*
X84547130Y-75821778D01*
X84818750Y-75848530D01*
X85306250Y-75848530D01*
X85577870Y-75821778D01*
X85839052Y-75742549D01*
X86000000Y-75656521D01*
X86160948Y-75742549D01*
X86422130Y-75821778D01*
X86693750Y-75848530D01*
X86988522Y-75848530D01*
X87054589Y-76180668D01*
X87160661Y-76436750D01*
X87035634Y-76520290D01*
X86770290Y-76785634D01*
X86561811Y-77097644D01*
X86418209Y-77444332D01*
X86345000Y-77812374D01*
X86345000Y-78187626D01*
X86418209Y-78555668D01*
X86561811Y-78902356D01*
X86770290Y-79214366D01*
X87035634Y-79479710D01*
X87160660Y-79563250D01*
X87054589Y-79819331D01*
X86981380Y-80187373D01*
X86981380Y-80562625D01*
X87054589Y-80930667D01*
X87198191Y-81277355D01*
X87406670Y-81589365D01*
X87672014Y-81854709D01*
X87984024Y-82063188D01*
X88330712Y-82206790D01*
X88698754Y-82279999D01*
X88720001Y-82279999D01*
X88720001Y-82301246D01*
X88793210Y-82669288D01*
X88936812Y-83015976D01*
X89145291Y-83327986D01*
X89410635Y-83593330D01*
X89722645Y-83801809D01*
X90069333Y-83945411D01*
X90437375Y-84018620D01*
X90812627Y-84018620D01*
X91180669Y-83945411D01*
X91436750Y-83839340D01*
X91450103Y-83859325D01*
X81905641Y-93403788D01*
X80485320Y-93403788D01*
X80426684Y-93398013D01*
X80368048Y-93403788D01*
X80368040Y-93403788D01*
X80192658Y-93421062D01*
X79967626Y-93489324D01*
X79760235Y-93600177D01*
X79668028Y-93675850D01*
X76237386Y-93675850D01*
X76178750Y-93670075D01*
X76120114Y-93675850D01*
X76120106Y-93675850D01*
X75944724Y-93693124D01*
X75719692Y-93761386D01*
X75512301Y-93872239D01*
X75354833Y-94001470D01*
X75150000Y-94001470D01*
X74925933Y-94023539D01*
X74710477Y-94088897D01*
X74511911Y-94195032D01*
X74337867Y-94337867D01*
X74195032Y-94511911D01*
X74088897Y-94710477D01*
X74023539Y-94925933D01*
X74001470Y-95150000D01*
X74001470Y-96850000D01*
X74023539Y-97074067D01*
X74088897Y-97289523D01*
X74195032Y-97488089D01*
X74204807Y-97500000D01*
X74195032Y-97511911D01*
X74088897Y-97710477D01*
X74023539Y-97925933D01*
X74001470Y-98150000D01*
X74001470Y-99832000D01*
X71951101Y-99832000D01*
X72077852Y-99705249D01*
X72370604Y-99267114D01*
X72572256Y-98780285D01*
X72675057Y-98263470D01*
X72675057Y-97736530D01*
X72572256Y-97219715D01*
X72370604Y-96732886D01*
X72077852Y-96294751D01*
X71705249Y-95922148D01*
X71267114Y-95629396D01*
X70780285Y-95427744D01*
X70263470Y-95324943D01*
X69736530Y-95324943D01*
X69219715Y-95427744D01*
X68732886Y-95629396D01*
X68294751Y-95922148D01*
X68168000Y-96048899D01*
X68168000Y-64951101D01*
X68294751Y-65077852D01*
X68732886Y-65370604D01*
X69219715Y-65572256D01*
X69736530Y-65675057D01*
X70263470Y-65675057D01*
X70780285Y-65572256D01*
X71267114Y-65370604D01*
X71705249Y-65077852D01*
X72077852Y-64705249D01*
X72370604Y-64267114D01*
X72572256Y-63780285D01*
X72675057Y-63263470D01*
X72675057Y-62736530D01*
X72572256Y-62219715D01*
X72370604Y-61732886D01*
X72077852Y-61294751D01*
X71951101Y-61168000D01*
X175048899Y-61168000D01*
X174922148Y-61294751D01*
G37*
X174922148Y-61294751D02*
X174629396Y-61732886D01*
X174427744Y-62219715D01*
X174324943Y-62736530D01*
X174324943Y-63263470D01*
X174427744Y-63780285D01*
X174629396Y-64267114D01*
X174922148Y-64705249D01*
X175294751Y-65077852D01*
X175732886Y-65370604D01*
X176219715Y-65572256D01*
X176736530Y-65675057D01*
X177263470Y-65675057D01*
X177780285Y-65572256D01*
X178267114Y-65370604D01*
X178705249Y-65077852D01*
X179077852Y-64705249D01*
X179370604Y-64267114D01*
X179572256Y-63780285D01*
X179675057Y-63263470D01*
X179675057Y-62736530D01*
X179572256Y-62219715D01*
X179370604Y-61732886D01*
X179077852Y-61294751D01*
X178951101Y-61168000D01*
X242048899Y-61168000D01*
X241922148Y-61294751D01*
X241629396Y-61732886D01*
X241427744Y-62219715D01*
X241324943Y-62736530D01*
X241324943Y-63263470D01*
X241427744Y-63780285D01*
X241629396Y-64267114D01*
X241922148Y-64705249D01*
X242294751Y-65077852D01*
X242732886Y-65370604D01*
X243219715Y-65572256D01*
X243736530Y-65675057D01*
X244263470Y-65675057D01*
X244780285Y-65572256D01*
X245267114Y-65370604D01*
X245705249Y-65077852D01*
X245832001Y-64951100D01*
X245832000Y-96048899D01*
X245705249Y-95922148D01*
X245267114Y-95629396D01*
X244780285Y-95427744D01*
X244263470Y-95324943D01*
X243736530Y-95324943D01*
X243219715Y-95427744D01*
X242732886Y-95629396D01*
X242294751Y-95922148D01*
X241922148Y-96294751D01*
X241629396Y-96732886D01*
X241427744Y-97219715D01*
X241324943Y-97736530D01*
X241324943Y-98263470D01*
X241427744Y-98780285D01*
X241629396Y-99267114D01*
X241922148Y-99705249D01*
X242048899Y-99832000D01*
X178951101Y-99832000D01*
X179077852Y-99705249D01*
X179370604Y-99267114D01*
X179572256Y-98780285D01*
X179675057Y-98263470D01*
X179675057Y-97736530D01*
X179572256Y-97219715D01*
X179370604Y-96732886D01*
X179077852Y-96294751D01*
X178705249Y-95922148D01*
X178267114Y-95629396D01*
X177780285Y-95427744D01*
X177263470Y-95324943D01*
X176736530Y-95324943D01*
X176219715Y-95427744D01*
X175732886Y-95629396D01*
X175294751Y-95922148D01*
X174922148Y-96294751D01*
X174629396Y-96732886D01*
X174427744Y-97219715D01*
X174324943Y-97736530D01*
X174324943Y-98263470D01*
X174427744Y-98780285D01*
X174629396Y-99267114D01*
X174922148Y-99705249D01*
X175048899Y-99832000D01*
X171164577Y-99832000D01*
X171284157Y-99631252D01*
X171381481Y-99356891D01*
X171260814Y-99127000D01*
X170067000Y-99127000D01*
X170067000Y-99147000D01*
X169813000Y-99147000D01*
X169813000Y-99127000D01*
X169793000Y-99127000D01*
X169793000Y-98873000D01*
X169813000Y-98873000D01*
X169813000Y-97679845D01*
X170067000Y-97679845D01*
X170067000Y-98873000D01*
X171260814Y-98873000D01*
X171381481Y-98643109D01*
X171284157Y-98368748D01*
X171135178Y-98118645D01*
X170940269Y-97902412D01*
X170706920Y-97728359D01*
X170444099Y-97603175D01*
X170296890Y-97558524D01*
X170067000Y-97679845D01*
X169813000Y-97679845D01*
X169583110Y-97558524D01*
X169435901Y-97603175D01*
X169173080Y-97728359D01*
X169022383Y-97840763D01*
X168948064Y-97729537D01*
X168718527Y-97500000D01*
X168948064Y-97270463D01*
X169022383Y-97159237D01*
X169173080Y-97271641D01*
X169435901Y-97396825D01*
X169583110Y-97441476D01*
X169813000Y-97320155D01*
X169813000Y-96127000D01*
X170067000Y-96127000D01*
X170067000Y-97320155D01*
X170296890Y-97441476D01*
X170444099Y-97396825D01*
X170706920Y-97271641D01*
X170940269Y-97097588D01*
X171135178Y-96881355D01*
X171284157Y-96631252D01*
X171381481Y-96356891D01*
X171260814Y-96127000D01*
X170067000Y-96127000D01*
X169813000Y-96127000D01*
X169793000Y-96127000D01*
X169793000Y-95873000D01*
X169813000Y-95873000D01*
X169813000Y-94679845D01*
X170067000Y-94679845D01*
X170067000Y-95873000D01*
X171260814Y-95873000D01*
X171381481Y-95643109D01*
X171284157Y-95368748D01*
X171135178Y-95118645D01*
X170940269Y-94902412D01*
X170706920Y-94728359D01*
X170444099Y-94603175D01*
X170296890Y-94558524D01*
X170067000Y-94679845D01*
X169813000Y-94679845D01*
X169583110Y-94558524D01*
X169435901Y-94603175D01*
X169173080Y-94728359D01*
X169022383Y-94840763D01*
X168948064Y-94729537D01*
X168670463Y-94451936D01*
X168344039Y-94233827D01*
X168323124Y-94225164D01*
X170369148Y-92179140D01*
X217370132Y-92179140D01*
X217428768Y-92184915D01*
X217487404Y-92179140D01*
X217487412Y-92179140D01*
X217662794Y-92161866D01*
X217887826Y-92093604D01*
X218095217Y-91982751D01*
X218276996Y-91833568D01*
X218314383Y-91788012D01*
X228565479Y-81536917D01*
X228611029Y-81499535D01*
X228760212Y-81317756D01*
X228871065Y-81110365D01*
X228939327Y-80885333D01*
X228956601Y-80709951D01*
X228956601Y-80709943D01*
X228962376Y-80651307D01*
X228956601Y-80592671D01*
X228956601Y-77572490D01*
X228962376Y-77513854D01*
X228956601Y-77455218D01*
X228956601Y-77455211D01*
X228939327Y-77279829D01*
X228871065Y-77054797D01*
X228760212Y-76847406D01*
X228611029Y-76665627D01*
X228565473Y-76628240D01*
X228121760Y-76184527D01*
X228084373Y-76138971D01*
X227972043Y-76046783D01*
X228018620Y-75812627D01*
X228018620Y-75437375D01*
X227945411Y-75069333D01*
X227801809Y-74722645D01*
X227593330Y-74410635D01*
X227327986Y-74145291D01*
X227015976Y-73936812D01*
X226669288Y-73793210D01*
X226301246Y-73720001D01*
X226280000Y-73720001D01*
X226280000Y-73698754D01*
X226206791Y-73330712D01*
X226063189Y-72984024D01*
X225854710Y-72672014D01*
X225589366Y-72406670D01*
X225277356Y-72198191D01*
X224930668Y-72054589D01*
X224562626Y-71981380D01*
X224187374Y-71981380D01*
X223819332Y-72054589D01*
X223472644Y-72198191D01*
X223160634Y-72406670D01*
X222895290Y-72672014D01*
X222686811Y-72984024D01*
X222543209Y-73330712D01*
X222470000Y-73698754D01*
X222470000Y-74074006D01*
X222474826Y-74098267D01*
X221129092Y-75444001D01*
X220722764Y-75444001D01*
X220839366Y-75366090D01*
X221104710Y-75100746D01*
X221313189Y-74788736D01*
X221456791Y-74442048D01*
X221530000Y-74074006D01*
X221530000Y-73698754D01*
X221456791Y-73330712D01*
X221313189Y-72984024D01*
X221104710Y-72672014D01*
X220839366Y-72406670D01*
X220527356Y-72198191D01*
X220180668Y-72054589D01*
X219812626Y-71981380D01*
X219437374Y-71981380D01*
X219069332Y-72054589D01*
X218722644Y-72198191D01*
X218410634Y-72406670D01*
X218145290Y-72672014D01*
X218055630Y-72806200D01*
X217358109Y-72806200D01*
X217338889Y-72770241D01*
X217165741Y-72559259D01*
X216954759Y-72386111D01*
X216714052Y-72257451D01*
X216452870Y-72178222D01*
X216181250Y-72151470D01*
X215693750Y-72151470D01*
X215422130Y-72178222D01*
X215160948Y-72257451D01*
X215000000Y-72343479D01*
X214839052Y-72257451D01*
X214577870Y-72178222D01*
X214306250Y-72151470D01*
X213974100Y-72151470D01*
X213048302Y-71225673D01*
X213009323Y-71178177D01*
X212819808Y-71022646D01*
X212603592Y-70907076D01*
X212368984Y-70835908D01*
X212186143Y-70817900D01*
X212186133Y-70817900D01*
X212125000Y-70811879D01*
X212063867Y-70817900D01*
X195061133Y-70817900D01*
X195000000Y-70811879D01*
X194938867Y-70817900D01*
X194938857Y-70817900D01*
X194756016Y-70835908D01*
X194521408Y-70907076D01*
X194422121Y-70960146D01*
X194305191Y-71022646D01*
X194191833Y-71115677D01*
X194115677Y-71178177D01*
X194076703Y-71225668D01*
X193150901Y-72151470D01*
X192974100Y-72151470D01*
X191985802Y-71163173D01*
X191946823Y-71115677D01*
X191757308Y-70960146D01*
X191541092Y-70844576D01*
X191306484Y-70773408D01*
X191123643Y-70755400D01*
X191123633Y-70755400D01*
X191062500Y-70749379D01*
X191001367Y-70755400D01*
X162123632Y-70755400D01*
X162062499Y-70749379D01*
X162001366Y-70755400D01*
X162001357Y-70755400D01*
X161818516Y-70773408D01*
X161583908Y-70844576D01*
X161483261Y-70898373D01*
X161367691Y-70960146D01*
X161225669Y-71076701D01*
X161178177Y-71115677D01*
X161139203Y-71163168D01*
X160150901Y-72151470D01*
X159974100Y-72151470D01*
X159048302Y-71225673D01*
X159009323Y-71178177D01*
X158819808Y-71022646D01*
X158603592Y-70907076D01*
X158368984Y-70835908D01*
X158186143Y-70817900D01*
X158186133Y-70817900D01*
X158125000Y-70811879D01*
X158063867Y-70817900D01*
X141061133Y-70817900D01*
X141000000Y-70811879D01*
X140938867Y-70817900D01*
X140938857Y-70817900D01*
X140756016Y-70835908D01*
X140521408Y-70907076D01*
X140422121Y-70960146D01*
X140305191Y-71022646D01*
X140191833Y-71115677D01*
X140115677Y-71178177D01*
X140076703Y-71225668D01*
X139150901Y-72151470D01*
X138974100Y-72151470D01*
X137985802Y-71163173D01*
X137946823Y-71115677D01*
X137757308Y-70960146D01*
X137541092Y-70844576D01*
X137306484Y-70773408D01*
X137123643Y-70755400D01*
X137123633Y-70755400D01*
X137062500Y-70749379D01*
X137001367Y-70755400D01*
X108123632Y-70755400D01*
X108062499Y-70749379D01*
X108001366Y-70755400D01*
X108001357Y-70755400D01*
X107818516Y-70773408D01*
X107583908Y-70844576D01*
X107483261Y-70898373D01*
X107367691Y-70960146D01*
X107225669Y-71076701D01*
X107178177Y-71115677D01*
X107139203Y-71163168D01*
X106150901Y-72151470D01*
X105818750Y-72151470D01*
X105547130Y-72178222D01*
X105285948Y-72257451D01*
X105045241Y-72386111D01*
X104834259Y-72559259D01*
X104675080Y-72753220D01*
X102019453Y-72753220D01*
X101814901Y-72668491D01*
X100309582Y-71163173D01*
X100270603Y-71115677D01*
X100081088Y-70960146D01*
X99864872Y-70844576D01*
X99630264Y-70773408D01*
X99447423Y-70755400D01*
X99447413Y-70755400D01*
X99386280Y-70749379D01*
X99325147Y-70755400D01*
X87123632Y-70755400D01*
X87062499Y-70749379D01*
X87001366Y-70755400D01*
X87001357Y-70755400D01*
X86818516Y-70773408D01*
X86583908Y-70844576D01*
X86483261Y-70898373D01*
X86367691Y-70960146D01*
X86225669Y-71076701D01*
X86178177Y-71115677D01*
X86139203Y-71163168D01*
X85150901Y-72151470D01*
X84818750Y-72151470D01*
X84547130Y-72178222D01*
X84285948Y-72257451D01*
X84045241Y-72386111D01*
X83834259Y-72559259D01*
X83661111Y-72770241D01*
X83532451Y-73010948D01*
X83453222Y-73272130D01*
X83426470Y-73543750D01*
X83426470Y-74456250D01*
X83453222Y-74727870D01*
X83532451Y-74989052D01*
X83661111Y-75229759D01*
X83834259Y-75440741D01*
X84045241Y-75613889D01*
X84285948Y-75742549D01*
X84547130Y-75821778D01*
X84818750Y-75848530D01*
X85306250Y-75848530D01*
X85577870Y-75821778D01*
X85839052Y-75742549D01*
X86000000Y-75656521D01*
X86160948Y-75742549D01*
X86422130Y-75821778D01*
X86693750Y-75848530D01*
X86988522Y-75848530D01*
X87054589Y-76180668D01*
X87160661Y-76436750D01*
X87035634Y-76520290D01*
X86770290Y-76785634D01*
X86561811Y-77097644D01*
X86418209Y-77444332D01*
X86345000Y-77812374D01*
X86345000Y-78187626D01*
X86418209Y-78555668D01*
X86561811Y-78902356D01*
X86770290Y-79214366D01*
X87035634Y-79479710D01*
X87160660Y-79563250D01*
X87054589Y-79819331D01*
X86981380Y-80187373D01*
X86981380Y-80562625D01*
X87054589Y-80930667D01*
X87198191Y-81277355D01*
X87406670Y-81589365D01*
X87672014Y-81854709D01*
X87984024Y-82063188D01*
X88330712Y-82206790D01*
X88698754Y-82279999D01*
X88720001Y-82279999D01*
X88720001Y-82301246D01*
X88793210Y-82669288D01*
X88936812Y-83015976D01*
X89145291Y-83327986D01*
X89410635Y-83593330D01*
X89722645Y-83801809D01*
X90069333Y-83945411D01*
X90437375Y-84018620D01*
X90812627Y-84018620D01*
X91180669Y-83945411D01*
X91436750Y-83839340D01*
X91450103Y-83859325D01*
X81905641Y-93403788D01*
X80485320Y-93403788D01*
X80426684Y-93398013D01*
X80368048Y-93403788D01*
X80368040Y-93403788D01*
X80192658Y-93421062D01*
X79967626Y-93489324D01*
X79760235Y-93600177D01*
X79668028Y-93675850D01*
X76237386Y-93675850D01*
X76178750Y-93670075D01*
X76120114Y-93675850D01*
X76120106Y-93675850D01*
X75944724Y-93693124D01*
X75719692Y-93761386D01*
X75512301Y-93872239D01*
X75354833Y-94001470D01*
X75150000Y-94001470D01*
X74925933Y-94023539D01*
X74710477Y-94088897D01*
X74511911Y-94195032D01*
X74337867Y-94337867D01*
X74195032Y-94511911D01*
X74088897Y-94710477D01*
X74023539Y-94925933D01*
X74001470Y-95150000D01*
X74001470Y-96850000D01*
X74023539Y-97074067D01*
X74088897Y-97289523D01*
X74195032Y-97488089D01*
X74204807Y-97500000D01*
X74195032Y-97511911D01*
X74088897Y-97710477D01*
X74023539Y-97925933D01*
X74001470Y-98150000D01*
X74001470Y-99832000D01*
X71951101Y-99832000D01*
X72077852Y-99705249D01*
X72370604Y-99267114D01*
X72572256Y-98780285D01*
X72675057Y-98263470D01*
X72675057Y-97736530D01*
X72572256Y-97219715D01*
X72370604Y-96732886D01*
X72077852Y-96294751D01*
X71705249Y-95922148D01*
X71267114Y-95629396D01*
X70780285Y-95427744D01*
X70263470Y-95324943D01*
X69736530Y-95324943D01*
X69219715Y-95427744D01*
X68732886Y-95629396D01*
X68294751Y-95922148D01*
X68168000Y-96048899D01*
X68168000Y-64951101D01*
X68294751Y-65077852D01*
X68732886Y-65370604D01*
X69219715Y-65572256D01*
X69736530Y-65675057D01*
X70263470Y-65675057D01*
X70780285Y-65572256D01*
X71267114Y-65370604D01*
X71705249Y-65077852D01*
X72077852Y-64705249D01*
X72370604Y-64267114D01*
X72572256Y-63780285D01*
X72675057Y-63263470D01*
X72675057Y-62736530D01*
X72572256Y-62219715D01*
X72370604Y-61732886D01*
X72077852Y-61294751D01*
X71951101Y-61168000D01*
X175048899Y-61168000D01*
X174922148Y-61294751D01*
G36*
X141358643Y-94001470D02*
G01*
X141150000Y-94001470D01*
X140925933Y-94023539D01*
X140710477Y-94088897D01*
X140511911Y-94195032D01*
X140337867Y-94337867D01*
X140195032Y-94511911D01*
X140088897Y-94710477D01*
X140023539Y-94925933D01*
X140001470Y-95150000D01*
X140001470Y-96850000D01*
X140023539Y-97074067D01*
X140088897Y-97289523D01*
X140195032Y-97488089D01*
X140204807Y-97500000D01*
X140195032Y-97511911D01*
X140088897Y-97710477D01*
X140023539Y-97925933D01*
X140001470Y-98150000D01*
X140001470Y-99832000D01*
X138164577Y-99832000D01*
X138284157Y-99631252D01*
X138381481Y-99356891D01*
X138260814Y-99127000D01*
X137067000Y-99127000D01*
X137067000Y-99147000D01*
X136813000Y-99147000D01*
X136813000Y-99127000D01*
X136793000Y-99127000D01*
X136793000Y-98873000D01*
X136813000Y-98873000D01*
X136813000Y-97679845D01*
X137067000Y-97679845D01*
X137067000Y-98873000D01*
X138260814Y-98873000D01*
X138381481Y-98643109D01*
X138284157Y-98368748D01*
X138135178Y-98118645D01*
X137940269Y-97902412D01*
X137706920Y-97728359D01*
X137444099Y-97603175D01*
X137296890Y-97558524D01*
X137067000Y-97679845D01*
X136813000Y-97679845D01*
X136583110Y-97558524D01*
X136435901Y-97603175D01*
X136173080Y-97728359D01*
X136022383Y-97840763D01*
X135948064Y-97729537D01*
X135718527Y-97500000D01*
X135948064Y-97270463D01*
X136022383Y-97159237D01*
X136173080Y-97271641D01*
X136435901Y-97396825D01*
X136583110Y-97441476D01*
X136813000Y-97320155D01*
X136813000Y-96127000D01*
X137067000Y-96127000D01*
X137067000Y-97320155D01*
X137296890Y-97441476D01*
X137444099Y-97396825D01*
X137706920Y-97271641D01*
X137940269Y-97097588D01*
X138135178Y-96881355D01*
X138284157Y-96631252D01*
X138381481Y-96356891D01*
X138260814Y-96127000D01*
X137067000Y-96127000D01*
X136813000Y-96127000D01*
X136793000Y-96127000D01*
X136793000Y-95873000D01*
X136813000Y-95873000D01*
X136813000Y-94679845D01*
X137067000Y-94679845D01*
X137067000Y-95873000D01*
X138260814Y-95873000D01*
X138381481Y-95643109D01*
X138284157Y-95368748D01*
X138135178Y-95118645D01*
X137940269Y-94902412D01*
X137706920Y-94728359D01*
X137444099Y-94603175D01*
X137296890Y-94558524D01*
X137067000Y-94679845D01*
X136813000Y-94679845D01*
X136583110Y-94558524D01*
X136435901Y-94603175D01*
X136173080Y-94728359D01*
X136022383Y-94840763D01*
X135948064Y-94729537D01*
X135670463Y-94451936D01*
X135344039Y-94233827D01*
X135323124Y-94225164D01*
X143660728Y-85887560D01*
X149472552Y-85887560D01*
X141358643Y-94001470D01*
G37*
X141358643Y-94001470D02*
X141150000Y-94001470D01*
X140925933Y-94023539D01*
X140710477Y-94088897D01*
X140511911Y-94195032D01*
X140337867Y-94337867D01*
X140195032Y-94511911D01*
X140088897Y-94710477D01*
X140023539Y-94925933D01*
X140001470Y-95150000D01*
X140001470Y-96850000D01*
X140023539Y-97074067D01*
X140088897Y-97289523D01*
X140195032Y-97488089D01*
X140204807Y-97500000D01*
X140195032Y-97511911D01*
X140088897Y-97710477D01*
X140023539Y-97925933D01*
X140001470Y-98150000D01*
X140001470Y-99832000D01*
X138164577Y-99832000D01*
X138284157Y-99631252D01*
X138381481Y-99356891D01*
X138260814Y-99127000D01*
X137067000Y-99127000D01*
X137067000Y-99147000D01*
X136813000Y-99147000D01*
X136813000Y-99127000D01*
X136793000Y-99127000D01*
X136793000Y-98873000D01*
X136813000Y-98873000D01*
X136813000Y-97679845D01*
X137067000Y-97679845D01*
X137067000Y-98873000D01*
X138260814Y-98873000D01*
X138381481Y-98643109D01*
X138284157Y-98368748D01*
X138135178Y-98118645D01*
X137940269Y-97902412D01*
X137706920Y-97728359D01*
X137444099Y-97603175D01*
X137296890Y-97558524D01*
X137067000Y-97679845D01*
X136813000Y-97679845D01*
X136583110Y-97558524D01*
X136435901Y-97603175D01*
X136173080Y-97728359D01*
X136022383Y-97840763D01*
X135948064Y-97729537D01*
X135718527Y-97500000D01*
X135948064Y-97270463D01*
X136022383Y-97159237D01*
X136173080Y-97271641D01*
X136435901Y-97396825D01*
X136583110Y-97441476D01*
X136813000Y-97320155D01*
X136813000Y-96127000D01*
X137067000Y-96127000D01*
X137067000Y-97320155D01*
X137296890Y-97441476D01*
X137444099Y-97396825D01*
X137706920Y-97271641D01*
X137940269Y-97097588D01*
X138135178Y-96881355D01*
X138284157Y-96631252D01*
X138381481Y-96356891D01*
X138260814Y-96127000D01*
X137067000Y-96127000D01*
X136813000Y-96127000D01*
X136793000Y-96127000D01*
X136793000Y-95873000D01*
X136813000Y-95873000D01*
X136813000Y-94679845D01*
X137067000Y-94679845D01*
X137067000Y-95873000D01*
X138260814Y-95873000D01*
X138381481Y-95643109D01*
X138284157Y-95368748D01*
X138135178Y-95118645D01*
X137940269Y-94902412D01*
X137706920Y-94728359D01*
X137444099Y-94603175D01*
X137296890Y-94558524D01*
X137067000Y-94679845D01*
X136813000Y-94679845D01*
X136583110Y-94558524D01*
X136435901Y-94603175D01*
X136173080Y-94728359D01*
X136022383Y-94840763D01*
X135948064Y-94729537D01*
X135670463Y-94451936D01*
X135344039Y-94233827D01*
X135323124Y-94225164D01*
X143660728Y-85887560D01*
X149472552Y-85887560D01*
X141358643Y-94001470D01*
G36*
X107001470Y-96850000D02*
G01*
X107023539Y-97074067D01*
X107088897Y-97289523D01*
X107195032Y-97488089D01*
X107204807Y-97500000D01*
X107195032Y-97511911D01*
X107088897Y-97710477D01*
X107023539Y-97925933D01*
X107001470Y-98150000D01*
X107001470Y-99832000D01*
X105164577Y-99832000D01*
X105284157Y-99631252D01*
X105381481Y-99356891D01*
X105260814Y-99127000D01*
X104067000Y-99127000D01*
X104067000Y-99147000D01*
X103813000Y-99147000D01*
X103813000Y-99127000D01*
X103793000Y-99127000D01*
X103793000Y-98873000D01*
X103813000Y-98873000D01*
X103813000Y-98853000D01*
X104067000Y-98853000D01*
X104067000Y-98873000D01*
X105260814Y-98873000D01*
X105381481Y-98643109D01*
X105284157Y-98368748D01*
X105135178Y-98118645D01*
X105122637Y-98104732D01*
X105134834Y-98098212D01*
X105316613Y-97949029D01*
X105354000Y-97903473D01*
X107001470Y-96256003D01*
X107001470Y-96850000D01*
G37*
X107001470Y-96850000D02*
X107023539Y-97074067D01*
X107088897Y-97289523D01*
X107195032Y-97488089D01*
X107204807Y-97500000D01*
X107195032Y-97511911D01*
X107088897Y-97710477D01*
X107023539Y-97925933D01*
X107001470Y-98150000D01*
X107001470Y-99832000D01*
X105164577Y-99832000D01*
X105284157Y-99631252D01*
X105381481Y-99356891D01*
X105260814Y-99127000D01*
X104067000Y-99127000D01*
X104067000Y-99147000D01*
X103813000Y-99147000D01*
X103813000Y-99127000D01*
X103793000Y-99127000D01*
X103793000Y-98873000D01*
X103813000Y-98873000D01*
X103813000Y-98853000D01*
X104067000Y-98853000D01*
X104067000Y-98873000D01*
X105260814Y-98873000D01*
X105381481Y-98643109D01*
X105284157Y-98368748D01*
X105135178Y-98118645D01*
X105122637Y-98104732D01*
X105134834Y-98098212D01*
X105316613Y-97949029D01*
X105354000Y-97903473D01*
X107001470Y-96256003D01*
X107001470Y-96850000D01*
%TD*%
M02*
