%TF.GenerationSoftware,KiCad,Pcbnew,(5.1.5-131-g305ed0b65)-1*%
%TF.CreationDate,2020-09-08T16:14:20+08:00*%
%TF.ProjectId,IN-8,494e2d38-2e6b-4696-9361-645f70636258,rev?*%
%TF.SameCoordinates,Original*%
%TF.FileFunction,Legend,Bot*%
%TF.FilePolarity,Positive*%
%FSLAX46Y46*%
G04 Gerber Fmt 4.6, Leading zero omitted, Abs format (unit mm)*
G04 Created by KiCad (PCBNEW (5.1.5-131-g305ed0b65)-1) date 2020-09-08 16:14:20*
%MOMM*%
%LPD*%
G01*
G04 APERTURE LIST*
%ADD10C,0.150000*%
%ADD11C,0.120000*%
G04 APERTURE END LIST*
D10*
X211571428Y-95802380D02*
X211571428Y-94802380D01*
X211095238Y-95802380D02*
X211095238Y-94802380D01*
X210523809Y-95802380D01*
X210523809Y-94802380D01*
X210047619Y-95421428D02*
X209285714Y-95421428D01*
X208666666Y-95230952D02*
X208761904Y-95183333D01*
X208809523Y-95135714D01*
X208857142Y-95040476D01*
X208857142Y-94992857D01*
X208809523Y-94897619D01*
X208761904Y-94850000D01*
X208666666Y-94802380D01*
X208476190Y-94802380D01*
X208380952Y-94850000D01*
X208333333Y-94897619D01*
X208285714Y-94992857D01*
X208285714Y-95040476D01*
X208333333Y-95135714D01*
X208380952Y-95183333D01*
X208476190Y-95230952D01*
X208666666Y-95230952D01*
X208761904Y-95278571D01*
X208809523Y-95326190D01*
X208857142Y-95421428D01*
X208857142Y-95611904D01*
X208809523Y-95707142D01*
X208761904Y-95754761D01*
X208666666Y-95802380D01*
X208476190Y-95802380D01*
X208380952Y-95754761D01*
X208333333Y-95707142D01*
X208285714Y-95611904D01*
X208285714Y-95421428D01*
X208333333Y-95326190D01*
X208380952Y-95278571D01*
X208476190Y-95230952D01*
X207095238Y-95802380D02*
X207095238Y-94802380D01*
X206523809Y-95802380D01*
X206523809Y-94802380D01*
X206047619Y-95802380D02*
X206047619Y-95135714D01*
X206047619Y-94802380D02*
X206095238Y-94850000D01*
X206047619Y-94897619D01*
X206000000Y-94850000D01*
X206047619Y-94802380D01*
X206047619Y-94897619D01*
X205666666Y-95802380D02*
X205142857Y-95135714D01*
X205666666Y-95135714D02*
X205142857Y-95802380D01*
X204761904Y-95802380D02*
X204761904Y-95135714D01*
X204761904Y-94802380D02*
X204809523Y-94850000D01*
X204761904Y-94897619D01*
X204714285Y-94850000D01*
X204761904Y-94802380D01*
X204761904Y-94897619D01*
X203904761Y-95754761D02*
X204000000Y-95802380D01*
X204190476Y-95802380D01*
X204285714Y-95754761D01*
X204333333Y-95659523D01*
X204333333Y-95278571D01*
X204285714Y-95183333D01*
X204190476Y-95135714D01*
X204000000Y-95135714D01*
X203904761Y-95183333D01*
X203857142Y-95278571D01*
X203857142Y-95373809D01*
X204333333Y-95469047D01*
X202714285Y-95754761D02*
X202571428Y-95802380D01*
X202333333Y-95802380D01*
X202238095Y-95754761D01*
X202190476Y-95707142D01*
X202142857Y-95611904D01*
X202142857Y-95516666D01*
X202190476Y-95421428D01*
X202238095Y-95373809D01*
X202333333Y-95326190D01*
X202523809Y-95278571D01*
X202619047Y-95230952D01*
X202666666Y-95183333D01*
X202714285Y-95088095D01*
X202714285Y-94992857D01*
X202666666Y-94897619D01*
X202619047Y-94850000D01*
X202523809Y-94802380D01*
X202285714Y-94802380D01*
X202142857Y-94850000D01*
X201571428Y-95802380D02*
X201666666Y-95754761D01*
X201714285Y-95707142D01*
X201761904Y-95611904D01*
X201761904Y-95326190D01*
X201714285Y-95230952D01*
X201666666Y-95183333D01*
X201571428Y-95135714D01*
X201428571Y-95135714D01*
X201333333Y-95183333D01*
X201285714Y-95230952D01*
X201238095Y-95326190D01*
X201238095Y-95611904D01*
X201285714Y-95707142D01*
X201333333Y-95754761D01*
X201428571Y-95802380D01*
X201571428Y-95802380D01*
X200380952Y-95754761D02*
X200476190Y-95802380D01*
X200666666Y-95802380D01*
X200761904Y-95754761D01*
X200809523Y-95707142D01*
X200857142Y-95611904D01*
X200857142Y-95326190D01*
X200809523Y-95230952D01*
X200761904Y-95183333D01*
X200666666Y-95135714D01*
X200476190Y-95135714D01*
X200380952Y-95183333D01*
X199952380Y-95802380D02*
X199952380Y-94802380D01*
X199857142Y-95421428D02*
X199571428Y-95802380D01*
X199571428Y-95135714D02*
X199952380Y-95516666D01*
X198761904Y-95754761D02*
X198857142Y-95802380D01*
X199047619Y-95802380D01*
X199142857Y-95754761D01*
X199190476Y-95659523D01*
X199190476Y-95278571D01*
X199142857Y-95183333D01*
X199047619Y-95135714D01*
X198857142Y-95135714D01*
X198761904Y-95183333D01*
X198714285Y-95278571D01*
X198714285Y-95373809D01*
X199190476Y-95469047D01*
X198428571Y-95135714D02*
X198047619Y-95135714D01*
X198285714Y-94802380D02*
X198285714Y-95659523D01*
X198238095Y-95754761D01*
X198142857Y-95802380D01*
X198047619Y-95802380D01*
X196952380Y-95802380D02*
X196952380Y-94802380D01*
X196571428Y-94802380D01*
X196476190Y-94850000D01*
X196428571Y-94897619D01*
X196380952Y-94992857D01*
X196380952Y-95135714D01*
X196428571Y-95230952D01*
X196476190Y-95278571D01*
X196571428Y-95326190D01*
X196952380Y-95326190D01*
X195380952Y-95707142D02*
X195428571Y-95754761D01*
X195571428Y-95802380D01*
X195666666Y-95802380D01*
X195809523Y-95754761D01*
X195904761Y-95659523D01*
X195952380Y-95564285D01*
X196000000Y-95373809D01*
X196000000Y-95230952D01*
X195952380Y-95040476D01*
X195904761Y-94945238D01*
X195809523Y-94850000D01*
X195666666Y-94802380D01*
X195571428Y-94802380D01*
X195428571Y-94850000D01*
X195380952Y-94897619D01*
X194619047Y-95278571D02*
X194476190Y-95326190D01*
X194428571Y-95373809D01*
X194380952Y-95469047D01*
X194380952Y-95611904D01*
X194428571Y-95707142D01*
X194476190Y-95754761D01*
X194571428Y-95802380D01*
X194952380Y-95802380D01*
X194952380Y-94802380D01*
X194619047Y-94802380D01*
X194523809Y-94850000D01*
X194476190Y-94897619D01*
X194428571Y-94992857D01*
X194428571Y-95088095D01*
X194476190Y-95183333D01*
X194523809Y-95230952D01*
X194619047Y-95278571D01*
X194952380Y-95278571D01*
X213595238Y-97357142D02*
X213642857Y-97404761D01*
X213785714Y-97452380D01*
X213880952Y-97452380D01*
X214023809Y-97404761D01*
X214119047Y-97309523D01*
X214166666Y-97214285D01*
X214214285Y-97023809D01*
X214214285Y-96880952D01*
X214166666Y-96690476D01*
X214119047Y-96595238D01*
X214023809Y-96500000D01*
X213880952Y-96452380D01*
X213785714Y-96452380D01*
X213642857Y-96500000D01*
X213595238Y-96547619D01*
X213023809Y-97452380D02*
X213119047Y-97404761D01*
X213166666Y-97357142D01*
X213214285Y-97261904D01*
X213214285Y-96976190D01*
X213166666Y-96880952D01*
X213119047Y-96833333D01*
X213023809Y-96785714D01*
X212880952Y-96785714D01*
X212785714Y-96833333D01*
X212738095Y-96880952D01*
X212690476Y-96976190D01*
X212690476Y-97261904D01*
X212738095Y-97357142D01*
X212785714Y-97404761D01*
X212880952Y-97452380D01*
X213023809Y-97452380D01*
X212261904Y-96785714D02*
X212261904Y-97785714D01*
X212261904Y-96833333D02*
X212166666Y-96785714D01*
X211976190Y-96785714D01*
X211880952Y-96833333D01*
X211833333Y-96880952D01*
X211785714Y-96976190D01*
X211785714Y-97261904D01*
X211833333Y-97357142D01*
X211880952Y-97404761D01*
X211976190Y-97452380D01*
X212166666Y-97452380D01*
X212261904Y-97404761D01*
X211452380Y-96785714D02*
X211214285Y-97452380D01*
X210976190Y-96785714D02*
X211214285Y-97452380D01*
X211309523Y-97690476D01*
X211357142Y-97738095D01*
X211452380Y-97785714D01*
X210595238Y-97452380D02*
X210595238Y-96785714D01*
X210595238Y-96976190D02*
X210547619Y-96880952D01*
X210500000Y-96833333D01*
X210404761Y-96785714D01*
X210309523Y-96785714D01*
X209976190Y-97452380D02*
X209976190Y-96785714D01*
X209976190Y-96452380D02*
X210023809Y-96500000D01*
X209976190Y-96547619D01*
X209928571Y-96500000D01*
X209976190Y-96452380D01*
X209976190Y-96547619D01*
X209071428Y-96785714D02*
X209071428Y-97595238D01*
X209119047Y-97690476D01*
X209166666Y-97738095D01*
X209261904Y-97785714D01*
X209404761Y-97785714D01*
X209500000Y-97738095D01*
X209071428Y-97404761D02*
X209166666Y-97452380D01*
X209357142Y-97452380D01*
X209452380Y-97404761D01*
X209500000Y-97357142D01*
X209547619Y-97261904D01*
X209547619Y-96976190D01*
X209500000Y-96880952D01*
X209452380Y-96833333D01*
X209357142Y-96785714D01*
X209166666Y-96785714D01*
X209071428Y-96833333D01*
X208595238Y-97452380D02*
X208595238Y-96452380D01*
X208166666Y-97452380D02*
X208166666Y-96928571D01*
X208214285Y-96833333D01*
X208309523Y-96785714D01*
X208452380Y-96785714D01*
X208547619Y-96833333D01*
X208595238Y-96880952D01*
X207833333Y-96785714D02*
X207452380Y-96785714D01*
X207690476Y-96452380D02*
X207690476Y-97309523D01*
X207642857Y-97404761D01*
X207547619Y-97452380D01*
X207452380Y-97452380D01*
X206071428Y-97833333D02*
X206119047Y-97785714D01*
X206214285Y-97642857D01*
X206261904Y-97547619D01*
X206309523Y-97404761D01*
X206357142Y-97166666D01*
X206357142Y-96976190D01*
X206309523Y-96738095D01*
X206261904Y-96595238D01*
X206214285Y-96500000D01*
X206119047Y-96357142D01*
X206071428Y-96309523D01*
X205119047Y-97357142D02*
X205166666Y-97404761D01*
X205309523Y-97452380D01*
X205404761Y-97452380D01*
X205547619Y-97404761D01*
X205642857Y-97309523D01*
X205690476Y-97214285D01*
X205738095Y-97023809D01*
X205738095Y-96880952D01*
X205690476Y-96690476D01*
X205642857Y-96595238D01*
X205547619Y-96500000D01*
X205404761Y-96452380D01*
X205309523Y-96452380D01*
X205166666Y-96500000D01*
X205119047Y-96547619D01*
X204785714Y-97833333D02*
X204738095Y-97785714D01*
X204642857Y-97642857D01*
X204595238Y-97547619D01*
X204547619Y-97404761D01*
X204500000Y-97166666D01*
X204500000Y-96976190D01*
X204547619Y-96738095D01*
X204595238Y-96595238D01*
X204642857Y-96500000D01*
X204738095Y-96357142D01*
X204785714Y-96309523D01*
X203309523Y-96547619D02*
X203261904Y-96500000D01*
X203166666Y-96452380D01*
X202928571Y-96452380D01*
X202833333Y-96500000D01*
X202785714Y-96547619D01*
X202738095Y-96642857D01*
X202738095Y-96738095D01*
X202785714Y-96880952D01*
X203357142Y-97452380D01*
X202738095Y-97452380D01*
X202119047Y-96452380D02*
X202023809Y-96452380D01*
X201928571Y-96500000D01*
X201880952Y-96547619D01*
X201833333Y-96642857D01*
X201785714Y-96833333D01*
X201785714Y-97071428D01*
X201833333Y-97261904D01*
X201880952Y-97357142D01*
X201928571Y-97404761D01*
X202023809Y-97452380D01*
X202119047Y-97452380D01*
X202214285Y-97404761D01*
X202261904Y-97357142D01*
X202309523Y-97261904D01*
X202357142Y-97071428D01*
X202357142Y-96833333D01*
X202309523Y-96642857D01*
X202261904Y-96547619D01*
X202214285Y-96500000D01*
X202119047Y-96452380D01*
X201404761Y-96547619D02*
X201357142Y-96500000D01*
X201261904Y-96452380D01*
X201023809Y-96452380D01*
X200928571Y-96500000D01*
X200880952Y-96547619D01*
X200833333Y-96642857D01*
X200833333Y-96738095D01*
X200880952Y-96880952D01*
X201452380Y-97452380D01*
X200833333Y-97452380D01*
X200214285Y-96452380D02*
X200119047Y-96452380D01*
X200023809Y-96500000D01*
X199976190Y-96547619D01*
X199928571Y-96642857D01*
X199880952Y-96833333D01*
X199880952Y-97071428D01*
X199928571Y-97261904D01*
X199976190Y-97357142D01*
X200023809Y-97404761D01*
X200119047Y-97452380D01*
X200214285Y-97452380D01*
X200309523Y-97404761D01*
X200357142Y-97357142D01*
X200404761Y-97261904D01*
X200452380Y-97071428D01*
X200452380Y-96833333D01*
X200404761Y-96642857D01*
X200357142Y-96547619D01*
X200309523Y-96500000D01*
X200214285Y-96452380D01*
X198690476Y-97452380D02*
X198690476Y-96452380D01*
X198452380Y-96452380D01*
X198309523Y-96500000D01*
X198214285Y-96595238D01*
X198166666Y-96690476D01*
X198119047Y-96880952D01*
X198119047Y-97023809D01*
X198166666Y-97214285D01*
X198214285Y-97309523D01*
X198309523Y-97404761D01*
X198452380Y-97452380D01*
X198690476Y-97452380D01*
X197261904Y-97452380D02*
X197261904Y-96928571D01*
X197309523Y-96833333D01*
X197404761Y-96785714D01*
X197595238Y-96785714D01*
X197690476Y-96833333D01*
X197261904Y-97404761D02*
X197357142Y-97452380D01*
X197595238Y-97452380D01*
X197690476Y-97404761D01*
X197738095Y-97309523D01*
X197738095Y-97214285D01*
X197690476Y-97119047D01*
X197595238Y-97071428D01*
X197357142Y-97071428D01*
X197261904Y-97023809D01*
X196785714Y-96785714D02*
X196785714Y-97452380D01*
X196785714Y-96880952D02*
X196738095Y-96833333D01*
X196642857Y-96785714D01*
X196500000Y-96785714D01*
X196404761Y-96833333D01*
X196357142Y-96928571D01*
X196357142Y-97452380D01*
X195880952Y-97452380D02*
X195880952Y-96785714D01*
X195880952Y-96452380D02*
X195928571Y-96500000D01*
X195880952Y-96547619D01*
X195833333Y-96500000D01*
X195880952Y-96452380D01*
X195880952Y-96547619D01*
X195023809Y-97404761D02*
X195119047Y-97452380D01*
X195309523Y-97452380D01*
X195404761Y-97404761D01*
X195452380Y-97309523D01*
X195452380Y-96928571D01*
X195404761Y-96833333D01*
X195309523Y-96785714D01*
X195119047Y-96785714D01*
X195023809Y-96833333D01*
X194976190Y-96928571D01*
X194976190Y-97023809D01*
X195452380Y-97119047D01*
X194404761Y-97452380D02*
X194500000Y-97404761D01*
X194547619Y-97309523D01*
X194547619Y-96452380D01*
X193261904Y-97452380D02*
X193261904Y-96452380D01*
X193261904Y-96928571D02*
X192690476Y-96928571D01*
X192690476Y-97452380D02*
X192690476Y-96452380D01*
X191833333Y-97404761D02*
X191928571Y-97452380D01*
X192119047Y-97452380D01*
X192214285Y-97404761D01*
X192261904Y-97309523D01*
X192261904Y-96928571D01*
X192214285Y-96833333D01*
X192119047Y-96785714D01*
X191928571Y-96785714D01*
X191833333Y-96833333D01*
X191785714Y-96928571D01*
X191785714Y-97023809D01*
X192261904Y-97119047D01*
X217880952Y-99054761D02*
X217738095Y-99102380D01*
X217500000Y-99102380D01*
X217404761Y-99054761D01*
X217357142Y-99007142D01*
X217309523Y-98911904D01*
X217309523Y-98816666D01*
X217357142Y-98721428D01*
X217404761Y-98673809D01*
X217500000Y-98626190D01*
X217690476Y-98578571D01*
X217785714Y-98530952D01*
X217833333Y-98483333D01*
X217880952Y-98388095D01*
X217880952Y-98292857D01*
X217833333Y-98197619D01*
X217785714Y-98150000D01*
X217690476Y-98102380D01*
X217452380Y-98102380D01*
X217309523Y-98150000D01*
X216500000Y-99054761D02*
X216595238Y-99102380D01*
X216785714Y-99102380D01*
X216880952Y-99054761D01*
X216928571Y-98959523D01*
X216928571Y-98578571D01*
X216880952Y-98483333D01*
X216785714Y-98435714D01*
X216595238Y-98435714D01*
X216500000Y-98483333D01*
X216452380Y-98578571D01*
X216452380Y-98673809D01*
X216928571Y-98769047D01*
X215642857Y-99054761D02*
X215738095Y-99102380D01*
X215928571Y-99102380D01*
X216023809Y-99054761D01*
X216071428Y-98959523D01*
X216071428Y-98578571D01*
X216023809Y-98483333D01*
X215928571Y-98435714D01*
X215738095Y-98435714D01*
X215642857Y-98483333D01*
X215595238Y-98578571D01*
X215595238Y-98673809D01*
X216071428Y-98769047D01*
X213642857Y-98435714D02*
X214404761Y-98721428D01*
X213642857Y-99007142D01*
X213166666Y-99102380D02*
X213166666Y-98102380D01*
X212738095Y-99102380D02*
X212738095Y-98578571D01*
X212785714Y-98483333D01*
X212880952Y-98435714D01*
X213023809Y-98435714D01*
X213119047Y-98483333D01*
X213166666Y-98530952D01*
X212404761Y-98435714D02*
X212023809Y-98435714D01*
X212261904Y-98102380D02*
X212261904Y-98959523D01*
X212214285Y-99054761D01*
X212119047Y-99102380D01*
X212023809Y-99102380D01*
X211833333Y-98435714D02*
X211452380Y-98435714D01*
X211690476Y-98102380D02*
X211690476Y-98959523D01*
X211642857Y-99054761D01*
X211547619Y-99102380D01*
X211452380Y-99102380D01*
X211119047Y-98435714D02*
X211119047Y-99435714D01*
X211119047Y-98483333D02*
X211023809Y-98435714D01*
X210833333Y-98435714D01*
X210738095Y-98483333D01*
X210690476Y-98530952D01*
X210642857Y-98626190D01*
X210642857Y-98911904D01*
X210690476Y-99007142D01*
X210738095Y-99054761D01*
X210833333Y-99102380D01*
X211023809Y-99102380D01*
X211119047Y-99054761D01*
X210261904Y-99054761D02*
X210166666Y-99102380D01*
X209976190Y-99102380D01*
X209880952Y-99054761D01*
X209833333Y-98959523D01*
X209833333Y-98911904D01*
X209880952Y-98816666D01*
X209976190Y-98769047D01*
X210119047Y-98769047D01*
X210214285Y-98721428D01*
X210261904Y-98626190D01*
X210261904Y-98578571D01*
X210214285Y-98483333D01*
X210119047Y-98435714D01*
X209976190Y-98435714D01*
X209880952Y-98483333D01*
X209404761Y-99007142D02*
X209357142Y-99054761D01*
X209404761Y-99102380D01*
X209452380Y-99054761D01*
X209404761Y-99007142D01*
X209404761Y-99102380D01*
X209404761Y-98483333D02*
X209357142Y-98530952D01*
X209404761Y-98578571D01*
X209452380Y-98530952D01*
X209404761Y-98483333D01*
X209404761Y-98578571D01*
X208214285Y-98054761D02*
X209071428Y-99340476D01*
X207166666Y-98054761D02*
X208023809Y-99340476D01*
X206928571Y-98435714D02*
X206738095Y-99102380D01*
X206547619Y-98626190D01*
X206357142Y-99102380D01*
X206166666Y-98435714D01*
X205880952Y-98435714D02*
X205690476Y-99102380D01*
X205500000Y-98626190D01*
X205309523Y-99102380D01*
X205119047Y-98435714D01*
X204833333Y-98435714D02*
X204642857Y-99102380D01*
X204452380Y-98626190D01*
X204261904Y-99102380D01*
X204071428Y-98435714D01*
X203690476Y-99007142D02*
X203642857Y-99054761D01*
X203690476Y-99102380D01*
X203738095Y-99054761D01*
X203690476Y-99007142D01*
X203690476Y-99102380D01*
X202785714Y-98435714D02*
X202785714Y-99245238D01*
X202833333Y-99340476D01*
X202880952Y-99388095D01*
X202976190Y-99435714D01*
X203119047Y-99435714D01*
X203214285Y-99388095D01*
X202785714Y-99054761D02*
X202880952Y-99102380D01*
X203071428Y-99102380D01*
X203166666Y-99054761D01*
X203214285Y-99007142D01*
X203261904Y-98911904D01*
X203261904Y-98626190D01*
X203214285Y-98530952D01*
X203166666Y-98483333D01*
X203071428Y-98435714D01*
X202880952Y-98435714D01*
X202785714Y-98483333D01*
X202309523Y-98435714D02*
X202309523Y-99102380D01*
X202309523Y-98530952D02*
X202261904Y-98483333D01*
X202166666Y-98435714D01*
X202023809Y-98435714D01*
X201928571Y-98483333D01*
X201880952Y-98578571D01*
X201880952Y-99102380D01*
X200976190Y-98435714D02*
X200976190Y-99102380D01*
X201404761Y-98435714D02*
X201404761Y-98959523D01*
X201357142Y-99054761D01*
X201261904Y-99102380D01*
X201119047Y-99102380D01*
X201023809Y-99054761D01*
X200976190Y-99007142D01*
X200500000Y-99007142D02*
X200452380Y-99054761D01*
X200500000Y-99102380D01*
X200547619Y-99054761D01*
X200500000Y-99007142D01*
X200500000Y-99102380D01*
X199880952Y-99102380D02*
X199976190Y-99054761D01*
X200023809Y-99007142D01*
X200071428Y-98911904D01*
X200071428Y-98626190D01*
X200023809Y-98530952D01*
X199976190Y-98483333D01*
X199880952Y-98435714D01*
X199738095Y-98435714D01*
X199642857Y-98483333D01*
X199595238Y-98530952D01*
X199547619Y-98626190D01*
X199547619Y-98911904D01*
X199595238Y-99007142D01*
X199642857Y-99054761D01*
X199738095Y-99102380D01*
X199880952Y-99102380D01*
X199119047Y-99102380D02*
X199119047Y-98435714D01*
X199119047Y-98626190D02*
X199071428Y-98530952D01*
X199023809Y-98483333D01*
X198928571Y-98435714D01*
X198833333Y-98435714D01*
X198071428Y-98435714D02*
X198071428Y-99245238D01*
X198119047Y-99340476D01*
X198166666Y-99388095D01*
X198261904Y-99435714D01*
X198404761Y-99435714D01*
X198500000Y-99388095D01*
X198071428Y-99054761D02*
X198166666Y-99102380D01*
X198357142Y-99102380D01*
X198452380Y-99054761D01*
X198500000Y-99007142D01*
X198547619Y-98911904D01*
X198547619Y-98626190D01*
X198500000Y-98530952D01*
X198452380Y-98483333D01*
X198357142Y-98435714D01*
X198166666Y-98435714D01*
X198071428Y-98483333D01*
X196880952Y-98054761D02*
X197738095Y-99340476D01*
X196404761Y-99102380D02*
X196500000Y-99054761D01*
X196547619Y-98959523D01*
X196547619Y-98102380D01*
X196023809Y-99102380D02*
X196023809Y-98435714D01*
X196023809Y-98102380D02*
X196071428Y-98150000D01*
X196023809Y-98197619D01*
X195976190Y-98150000D01*
X196023809Y-98102380D01*
X196023809Y-98197619D01*
X195119047Y-99054761D02*
X195214285Y-99102380D01*
X195404761Y-99102380D01*
X195500000Y-99054761D01*
X195547619Y-99007142D01*
X195595238Y-98911904D01*
X195595238Y-98626190D01*
X195547619Y-98530952D01*
X195500000Y-98483333D01*
X195404761Y-98435714D01*
X195214285Y-98435714D01*
X195119047Y-98483333D01*
X194309523Y-99054761D02*
X194404761Y-99102380D01*
X194595238Y-99102380D01*
X194690476Y-99054761D01*
X194738095Y-98959523D01*
X194738095Y-98578571D01*
X194690476Y-98483333D01*
X194595238Y-98435714D01*
X194404761Y-98435714D01*
X194309523Y-98483333D01*
X194261904Y-98578571D01*
X194261904Y-98673809D01*
X194738095Y-98769047D01*
X193833333Y-98435714D02*
X193833333Y-99102380D01*
X193833333Y-98530952D02*
X193785714Y-98483333D01*
X193690476Y-98435714D01*
X193547619Y-98435714D01*
X193452380Y-98483333D01*
X193404761Y-98578571D01*
X193404761Y-99102380D01*
X192976190Y-99054761D02*
X192880952Y-99102380D01*
X192690476Y-99102380D01*
X192595238Y-99054761D01*
X192547619Y-98959523D01*
X192547619Y-98911904D01*
X192595238Y-98816666D01*
X192690476Y-98769047D01*
X192833333Y-98769047D01*
X192928571Y-98721428D01*
X192976190Y-98626190D01*
X192976190Y-98578571D01*
X192928571Y-98483333D01*
X192833333Y-98435714D01*
X192690476Y-98435714D01*
X192595238Y-98483333D01*
X191738095Y-99054761D02*
X191833333Y-99102380D01*
X192023809Y-99102380D01*
X192119047Y-99054761D01*
X192166666Y-98959523D01*
X192166666Y-98578571D01*
X192119047Y-98483333D01*
X192023809Y-98435714D01*
X191833333Y-98435714D01*
X191738095Y-98483333D01*
X191690476Y-98578571D01*
X191690476Y-98673809D01*
X192166666Y-98769047D01*
X191309523Y-99054761D02*
X191214285Y-99102380D01*
X191023809Y-99102380D01*
X190928571Y-99054761D01*
X190880952Y-98959523D01*
X190880952Y-98911904D01*
X190928571Y-98816666D01*
X191023809Y-98769047D01*
X191166666Y-98769047D01*
X191261904Y-98721428D01*
X191309523Y-98626190D01*
X191309523Y-98578571D01*
X191261904Y-98483333D01*
X191166666Y-98435714D01*
X191023809Y-98435714D01*
X190928571Y-98483333D01*
X189738095Y-98054761D02*
X190595238Y-99340476D01*
X189404761Y-98435714D02*
X188642857Y-98721428D01*
X189404761Y-99007142D01*
X188166666Y-99007142D02*
X188119047Y-99054761D01*
X188166666Y-99102380D01*
X188214285Y-99054761D01*
X188166666Y-99007142D01*
X188166666Y-99102380D01*
D11*
%TO.C,J1*%
X105270000Y-97670000D02*
X105270000Y-100330000D01*
X77270000Y-97670000D02*
X105270000Y-97670000D01*
X77270000Y-100330000D02*
X105270000Y-100330000D01*
X77270000Y-97670000D02*
X77270000Y-100330000D01*
X76000000Y-97670000D02*
X74670000Y-97670000D01*
X74670000Y-97670000D02*
X74670000Y-99000000D01*
%TO.C,J2*%
X105270000Y-94670000D02*
X105270000Y-97330000D01*
X77270000Y-94670000D02*
X105270000Y-94670000D01*
X77270000Y-97330000D02*
X105270000Y-97330000D01*
X77270000Y-94670000D02*
X77270000Y-97330000D01*
X76000000Y-94670000D02*
X74670000Y-94670000D01*
X74670000Y-94670000D02*
X74670000Y-96000000D01*
%TO.C,J3*%
X138270000Y-97670000D02*
X138270000Y-100330000D01*
X110270000Y-97670000D02*
X138270000Y-97670000D01*
X110270000Y-100330000D02*
X138270000Y-100330000D01*
X110270000Y-97670000D02*
X110270000Y-100330000D01*
X109000000Y-97670000D02*
X107670000Y-97670000D01*
X107670000Y-97670000D02*
X107670000Y-99000000D01*
%TO.C,J4*%
X107670000Y-94670000D02*
X107670000Y-96000000D01*
X109000000Y-94670000D02*
X107670000Y-94670000D01*
X110270000Y-94670000D02*
X110270000Y-97330000D01*
X110270000Y-97330000D02*
X138270000Y-97330000D01*
X110270000Y-94670000D02*
X138270000Y-94670000D01*
X138270000Y-94670000D02*
X138270000Y-97330000D01*
%TO.C,J5*%
X140670000Y-97670000D02*
X140670000Y-99000000D01*
X142000000Y-97670000D02*
X140670000Y-97670000D01*
X143270000Y-97670000D02*
X143270000Y-100330000D01*
X143270000Y-100330000D02*
X171270000Y-100330000D01*
X143270000Y-97670000D02*
X171270000Y-97670000D01*
X171270000Y-97670000D02*
X171270000Y-100330000D01*
%TO.C,J6*%
X140670000Y-94670000D02*
X140670000Y-96000000D01*
X142000000Y-94670000D02*
X140670000Y-94670000D01*
X143270000Y-94670000D02*
X143270000Y-97330000D01*
X143270000Y-97330000D02*
X171270000Y-97330000D01*
X143270000Y-94670000D02*
X171270000Y-94670000D01*
X171270000Y-94670000D02*
X171270000Y-97330000D01*
%TO.C,R1*%
X100196078Y-73290000D02*
X99678922Y-73290000D01*
X100196078Y-74710000D02*
X99678922Y-74710000D01*
%TO.C,R2*%
X121258578Y-73290000D02*
X120741422Y-73290000D01*
X121258578Y-74710000D02*
X120741422Y-74710000D01*
%TO.C,R3*%
X154258578Y-73290000D02*
X153741422Y-73290000D01*
X154258578Y-74710000D02*
X153741422Y-74710000D01*
%TO.C,R4*%
X175258578Y-74710000D02*
X174741422Y-74710000D01*
X175258578Y-73290000D02*
X174741422Y-73290000D01*
%TO.C,R5*%
X208258578Y-74710000D02*
X207741422Y-74710000D01*
X208258578Y-73290000D02*
X207741422Y-73290000D01*
%TO.C,R6*%
X229258578Y-74710000D02*
X228741422Y-74710000D01*
X229258578Y-73290000D02*
X228741422Y-73290000D01*
%TO.C,J1*%
D10*
X73122380Y-98666666D02*
X73836666Y-98666666D01*
X73979523Y-98619047D01*
X74074761Y-98523809D01*
X74122380Y-98380952D01*
X74122380Y-98285714D01*
X74122380Y-99666666D02*
X74122380Y-99095238D01*
X74122380Y-99380952D02*
X73122380Y-99380952D01*
X73265238Y-99285714D01*
X73360476Y-99190476D01*
X73408095Y-99095238D01*
%TO.C,J2*%
X73122380Y-95666666D02*
X73836666Y-95666666D01*
X73979523Y-95619047D01*
X74074761Y-95523809D01*
X74122380Y-95380952D01*
X74122380Y-95285714D01*
X73217619Y-96095238D02*
X73170000Y-96142857D01*
X73122380Y-96238095D01*
X73122380Y-96476190D01*
X73170000Y-96571428D01*
X73217619Y-96619047D01*
X73312857Y-96666666D01*
X73408095Y-96666666D01*
X73550952Y-96619047D01*
X74122380Y-96047619D01*
X74122380Y-96666666D01*
%TO.C,J3*%
X106122380Y-98666666D02*
X106836666Y-98666666D01*
X106979523Y-98619047D01*
X107074761Y-98523809D01*
X107122380Y-98380952D01*
X107122380Y-98285714D01*
X106122380Y-99047619D02*
X106122380Y-99666666D01*
X106503333Y-99333333D01*
X106503333Y-99476190D01*
X106550952Y-99571428D01*
X106598571Y-99619047D01*
X106693809Y-99666666D01*
X106931904Y-99666666D01*
X107027142Y-99619047D01*
X107074761Y-99571428D01*
X107122380Y-99476190D01*
X107122380Y-99190476D01*
X107074761Y-99095238D01*
X107027142Y-99047619D01*
%TO.C,J4*%
X106122380Y-95666666D02*
X106836666Y-95666666D01*
X106979523Y-95619047D01*
X107074761Y-95523809D01*
X107122380Y-95380952D01*
X107122380Y-95285714D01*
X106455714Y-96571428D02*
X107122380Y-96571428D01*
X106074761Y-96333333D02*
X106789047Y-96095238D01*
X106789047Y-96714285D01*
%TO.C,J5*%
X139122380Y-98666666D02*
X139836666Y-98666666D01*
X139979523Y-98619047D01*
X140074761Y-98523809D01*
X140122380Y-98380952D01*
X140122380Y-98285714D01*
X139122380Y-99619047D02*
X139122380Y-99142857D01*
X139598571Y-99095238D01*
X139550952Y-99142857D01*
X139503333Y-99238095D01*
X139503333Y-99476190D01*
X139550952Y-99571428D01*
X139598571Y-99619047D01*
X139693809Y-99666666D01*
X139931904Y-99666666D01*
X140027142Y-99619047D01*
X140074761Y-99571428D01*
X140122380Y-99476190D01*
X140122380Y-99238095D01*
X140074761Y-99142857D01*
X140027142Y-99095238D01*
%TO.C,J6*%
X139122380Y-95666666D02*
X139836666Y-95666666D01*
X139979523Y-95619047D01*
X140074761Y-95523809D01*
X140122380Y-95380952D01*
X140122380Y-95285714D01*
X139122380Y-96571428D02*
X139122380Y-96380952D01*
X139170000Y-96285714D01*
X139217619Y-96238095D01*
X139360476Y-96142857D01*
X139550952Y-96095238D01*
X139931904Y-96095238D01*
X140027142Y-96142857D01*
X140074761Y-96190476D01*
X140122380Y-96285714D01*
X140122380Y-96476190D01*
X140074761Y-96571428D01*
X140027142Y-96619047D01*
X139931904Y-96666666D01*
X139693809Y-96666666D01*
X139598571Y-96619047D01*
X139550952Y-96571428D01*
X139503333Y-96476190D01*
X139503333Y-96285714D01*
X139550952Y-96190476D01*
X139598571Y-96142857D01*
X139693809Y-96095238D01*
%TO.C,R1*%
X100104166Y-72802380D02*
X100437500Y-72326190D01*
X100675595Y-72802380D02*
X100675595Y-71802380D01*
X100294642Y-71802380D01*
X100199404Y-71850000D01*
X100151785Y-71897619D01*
X100104166Y-71992857D01*
X100104166Y-72135714D01*
X100151785Y-72230952D01*
X100199404Y-72278571D01*
X100294642Y-72326190D01*
X100675595Y-72326190D01*
X99151785Y-72802380D02*
X99723214Y-72802380D01*
X99437500Y-72802380D02*
X99437500Y-71802380D01*
X99532738Y-71945238D01*
X99627976Y-72040476D01*
X99723214Y-72088095D01*
%TO.C,R2*%
X121166666Y-72802380D02*
X121500000Y-72326190D01*
X121738095Y-72802380D02*
X121738095Y-71802380D01*
X121357142Y-71802380D01*
X121261904Y-71850000D01*
X121214285Y-71897619D01*
X121166666Y-71992857D01*
X121166666Y-72135714D01*
X121214285Y-72230952D01*
X121261904Y-72278571D01*
X121357142Y-72326190D01*
X121738095Y-72326190D01*
X120785714Y-71897619D02*
X120738095Y-71850000D01*
X120642857Y-71802380D01*
X120404761Y-71802380D01*
X120309523Y-71850000D01*
X120261904Y-71897619D01*
X120214285Y-71992857D01*
X120214285Y-72088095D01*
X120261904Y-72230952D01*
X120833333Y-72802380D01*
X120214285Y-72802380D01*
%TO.C,R3*%
X154166666Y-72802380D02*
X154500000Y-72326190D01*
X154738095Y-72802380D02*
X154738095Y-71802380D01*
X154357142Y-71802380D01*
X154261904Y-71850000D01*
X154214285Y-71897619D01*
X154166666Y-71992857D01*
X154166666Y-72135714D01*
X154214285Y-72230952D01*
X154261904Y-72278571D01*
X154357142Y-72326190D01*
X154738095Y-72326190D01*
X153833333Y-71802380D02*
X153214285Y-71802380D01*
X153547619Y-72183333D01*
X153404761Y-72183333D01*
X153309523Y-72230952D01*
X153261904Y-72278571D01*
X153214285Y-72373809D01*
X153214285Y-72611904D01*
X153261904Y-72707142D01*
X153309523Y-72754761D01*
X153404761Y-72802380D01*
X153690476Y-72802380D01*
X153785714Y-72754761D01*
X153833333Y-72707142D01*
%TO.C,R4*%
X175166666Y-72802380D02*
X175500000Y-72326190D01*
X175738095Y-72802380D02*
X175738095Y-71802380D01*
X175357142Y-71802380D01*
X175261904Y-71850000D01*
X175214285Y-71897619D01*
X175166666Y-71992857D01*
X175166666Y-72135714D01*
X175214285Y-72230952D01*
X175261904Y-72278571D01*
X175357142Y-72326190D01*
X175738095Y-72326190D01*
X174309523Y-72135714D02*
X174309523Y-72802380D01*
X174547619Y-71754761D02*
X174785714Y-72469047D01*
X174166666Y-72469047D01*
%TO.C,R5*%
X208166666Y-72802380D02*
X208500000Y-72326190D01*
X208738095Y-72802380D02*
X208738095Y-71802380D01*
X208357142Y-71802380D01*
X208261904Y-71850000D01*
X208214285Y-71897619D01*
X208166666Y-71992857D01*
X208166666Y-72135714D01*
X208214285Y-72230952D01*
X208261904Y-72278571D01*
X208357142Y-72326190D01*
X208738095Y-72326190D01*
X207261904Y-71802380D02*
X207738095Y-71802380D01*
X207785714Y-72278571D01*
X207738095Y-72230952D01*
X207642857Y-72183333D01*
X207404761Y-72183333D01*
X207309523Y-72230952D01*
X207261904Y-72278571D01*
X207214285Y-72373809D01*
X207214285Y-72611904D01*
X207261904Y-72707142D01*
X207309523Y-72754761D01*
X207404761Y-72802380D01*
X207642857Y-72802380D01*
X207738095Y-72754761D01*
X207785714Y-72707142D01*
%TO.C,R6*%
X229166666Y-72802380D02*
X229500000Y-72326190D01*
X229738095Y-72802380D02*
X229738095Y-71802380D01*
X229357142Y-71802380D01*
X229261904Y-71850000D01*
X229214285Y-71897619D01*
X229166666Y-71992857D01*
X229166666Y-72135714D01*
X229214285Y-72230952D01*
X229261904Y-72278571D01*
X229357142Y-72326190D01*
X229738095Y-72326190D01*
X228309523Y-71802380D02*
X228500000Y-71802380D01*
X228595238Y-71850000D01*
X228642857Y-71897619D01*
X228738095Y-72040476D01*
X228785714Y-72230952D01*
X228785714Y-72611904D01*
X228738095Y-72707142D01*
X228690476Y-72754761D01*
X228595238Y-72802380D01*
X228404761Y-72802380D01*
X228309523Y-72754761D01*
X228261904Y-72707142D01*
X228214285Y-72611904D01*
X228214285Y-72373809D01*
X228261904Y-72278571D01*
X228309523Y-72230952D01*
X228404761Y-72183333D01*
X228595238Y-72183333D01*
X228690476Y-72230952D01*
X228738095Y-72278571D01*
X228785714Y-72373809D01*
%TD*%
M02*
