%TF.GenerationSoftware,KiCad,Pcbnew,(5.1.5-131-g305ed0b65)-1*%
%TF.CreationDate,2020-07-29T16:59:42+08:00*%
%TF.ProjectId,IN-8,494e2d38-2e6b-4696-9361-645f70636258,rev?*%
%TF.SameCoordinates,Original*%
%TF.FileFunction,Copper,L1,Top*%
%TF.FilePolarity,Positive*%
%FSLAX46Y46*%
G04 Gerber Fmt 4.6, Leading zero omitted, Abs format (unit mm)*
G04 Created by KiCad (PCBNEW (5.1.5-131-g305ed0b65)-1) date 2020-07-29 16:59:42*
%MOMM*%
%LPD*%
G01*
G04 APERTURE LIST*
%TA.AperFunction,ComponentPad*%
%ADD10C,1.524000*%
%TD*%
%TA.AperFunction,ComponentPad*%
%ADD11O,1.700000X1.700000*%
%TD*%
%TA.AperFunction,ComponentPad*%
%ADD12R,1.700000X1.700000*%
%TD*%
%TA.AperFunction,ViaPad*%
%ADD13C,0.500000*%
%TD*%
%TA.AperFunction,Conductor*%
%ADD14C,0.203200*%
%TD*%
%TA.AperFunction,Conductor*%
%ADD15C,0.101600*%
%TD*%
%TA.AperFunction,Conductor*%
%ADD16C,0.254000*%
%TD*%
G04 APERTURE END LIST*
D10*
%TO.P,U6,1*%
%TO.N,Net-(J6-Pad2)*%
X219625000Y-73886380D03*
%TO.P,U6,2*%
%TO.N,Net-(J6-Pad3)*%
X217886380Y-75625000D03*
%TO.P,U6,3*%
%TO.N,Net-(J6-Pad4)*%
X217250000Y-78000000D03*
%TO.P,U6,4*%
%TO.N,Net-(J6-Pad5)*%
X217886380Y-80374999D03*
%TO.P,U6,5*%
%TO.N,Net-(J6-Pad6)*%
X219625001Y-82113620D03*
%TO.P,U6,6*%
%TO.N,Net-(J6-Pad7)*%
X222000000Y-82750000D03*
%TO.P,U6,7*%
%TO.N,Net-(J6-Pad8)*%
X224375000Y-82113620D03*
%TO.P,U6,8*%
%TO.N,Net-(J6-Pad9)*%
X226113620Y-80374999D03*
%TO.P,U6,9*%
%TO.N,Net-(J6-Pad10)*%
X226750000Y-78000000D03*
%TO.P,U6,10*%
%TO.N,Net-(J6-Pad1)*%
X226113620Y-75625001D03*
%TO.P,U6,11*%
%TO.N,Net-(R6-Pad2)*%
X224375000Y-73886380D03*
%TD*%
%TO.P,U5,1*%
%TO.N,Net-(J5-Pad2)*%
X198625000Y-73886380D03*
%TO.P,U5,2*%
%TO.N,Net-(J5-Pad3)*%
X196886380Y-75625000D03*
%TO.P,U5,3*%
%TO.N,Net-(J5-Pad4)*%
X196250000Y-78000000D03*
%TO.P,U5,4*%
%TO.N,Net-(J5-Pad5)*%
X196886380Y-80374999D03*
%TO.P,U5,5*%
%TO.N,Net-(J5-Pad6)*%
X198625001Y-82113620D03*
%TO.P,U5,6*%
%TO.N,Net-(J5-Pad7)*%
X201000000Y-82750000D03*
%TO.P,U5,7*%
%TO.N,Net-(J5-Pad8)*%
X203375000Y-82113620D03*
%TO.P,U5,8*%
%TO.N,Net-(J5-Pad9)*%
X205113620Y-80374999D03*
%TO.P,U5,9*%
%TO.N,Net-(J5-Pad10)*%
X205750000Y-78000000D03*
%TO.P,U5,10*%
%TO.N,Net-(J5-Pad1)*%
X205113620Y-75625001D03*
%TO.P,U5,11*%
%TO.N,Net-(R5-Pad2)*%
X203375000Y-73886380D03*
%TD*%
%TO.P,U4,1*%
%TO.N,Net-(J4-Pad2)*%
X165625000Y-73886380D03*
%TO.P,U4,2*%
%TO.N,Net-(J4-Pad3)*%
X163886380Y-75625000D03*
%TO.P,U4,3*%
%TO.N,Net-(J4-Pad4)*%
X163250000Y-78000000D03*
%TO.P,U4,4*%
%TO.N,Net-(J4-Pad5)*%
X163886380Y-80374999D03*
%TO.P,U4,5*%
%TO.N,Net-(J4-Pad6)*%
X165625001Y-82113620D03*
%TO.P,U4,6*%
%TO.N,Net-(J4-Pad7)*%
X168000000Y-82750000D03*
%TO.P,U4,7*%
%TO.N,Net-(J4-Pad8)*%
X170375000Y-82113620D03*
%TO.P,U4,8*%
%TO.N,Net-(J4-Pad9)*%
X172113620Y-80374999D03*
%TO.P,U4,9*%
%TO.N,Net-(J4-Pad10)*%
X172750000Y-78000000D03*
%TO.P,U4,10*%
%TO.N,Net-(J4-Pad1)*%
X172113620Y-75625001D03*
%TO.P,U4,11*%
%TO.N,Net-(R4-Pad2)*%
X170375000Y-73886380D03*
%TD*%
%TO.P,U3,1*%
%TO.N,Net-(J3-Pad2)*%
X144625000Y-73886380D03*
%TO.P,U3,2*%
%TO.N,Net-(J3-Pad3)*%
X142886380Y-75625000D03*
%TO.P,U3,3*%
%TO.N,Net-(J3-Pad4)*%
X142250000Y-78000000D03*
%TO.P,U3,4*%
%TO.N,Net-(J3-Pad5)*%
X142886380Y-80374999D03*
%TO.P,U3,5*%
%TO.N,Net-(J3-Pad6)*%
X144625001Y-82113620D03*
%TO.P,U3,6*%
%TO.N,Net-(J3-Pad7)*%
X147000000Y-82750000D03*
%TO.P,U3,7*%
%TO.N,Net-(J3-Pad8)*%
X149375000Y-82113620D03*
%TO.P,U3,8*%
%TO.N,Net-(J3-Pad9)*%
X151113620Y-80374999D03*
%TO.P,U3,9*%
%TO.N,Net-(J3-Pad10)*%
X151750000Y-78000000D03*
%TO.P,U3,10*%
%TO.N,Net-(J3-Pad1)*%
X151113620Y-75625001D03*
%TO.P,U3,11*%
%TO.N,Net-(R3-Pad2)*%
X149375000Y-73886380D03*
%TD*%
%TO.P,U2,1*%
%TO.N,Net-(J2-Pad2)*%
X111625000Y-73886380D03*
%TO.P,U2,2*%
%TO.N,Net-(J2-Pad3)*%
X109886380Y-75625000D03*
%TO.P,U2,3*%
%TO.N,Net-(J2-Pad4)*%
X109250000Y-78000000D03*
%TO.P,U2,4*%
%TO.N,Net-(J2-Pad5)*%
X109886380Y-80374999D03*
%TO.P,U2,5*%
%TO.N,Net-(J2-Pad6)*%
X111625001Y-82113620D03*
%TO.P,U2,6*%
%TO.N,Net-(J2-Pad7)*%
X114000000Y-82750000D03*
%TO.P,U2,7*%
%TO.N,Net-(J2-Pad8)*%
X116375000Y-82113620D03*
%TO.P,U2,8*%
%TO.N,Net-(J2-Pad9)*%
X118113620Y-80374999D03*
%TO.P,U2,9*%
%TO.N,Net-(J2-Pad10)*%
X118750000Y-78000000D03*
%TO.P,U2,10*%
%TO.N,Net-(J2-Pad1)*%
X118113620Y-75625001D03*
%TO.P,U2,11*%
%TO.N,Net-(R2-Pad2)*%
X116375000Y-73886380D03*
%TD*%
%TO.P,U1,1*%
%TO.N,Net-(J1-Pad2)*%
X90625000Y-73886380D03*
%TO.P,U1,2*%
%TO.N,Net-(J1-Pad3)*%
X88886380Y-75625000D03*
%TO.P,U1,3*%
%TO.N,Net-(J1-Pad4)*%
X88250000Y-78000000D03*
%TO.P,U1,4*%
%TO.N,Net-(J1-Pad5)*%
X88886380Y-80374999D03*
%TO.P,U1,5*%
%TO.N,Net-(J1-Pad6)*%
X90625001Y-82113620D03*
%TO.P,U1,6*%
%TO.N,Net-(J1-Pad7)*%
X93000000Y-82750000D03*
%TO.P,U1,7*%
%TO.N,Net-(J1-Pad8)*%
X95375000Y-82113620D03*
%TO.P,U1,8*%
%TO.N,Net-(J1-Pad9)*%
X97113620Y-80374999D03*
%TO.P,U1,9*%
%TO.N,Net-(J1-Pad10)*%
X97750000Y-78000000D03*
%TO.P,U1,10*%
%TO.N,Net-(J1-Pad1)*%
X97113620Y-75625001D03*
%TO.P,U1,11*%
%TO.N,Net-(R1-Pad2)*%
X95375000Y-73886380D03*
%TD*%
D11*
%TO.P,J1,12*%
%TO.N,GND*%
X103940000Y-99000000D03*
%TO.P,J1,11*%
%TO.N,HV*%
X101400000Y-99000000D03*
%TO.P,J1,10*%
%TO.N,Net-(J1-Pad10)*%
X98860000Y-99000000D03*
%TO.P,J1,9*%
%TO.N,Net-(J1-Pad9)*%
X96320000Y-99000000D03*
%TO.P,J1,8*%
%TO.N,Net-(J1-Pad8)*%
X93780000Y-99000000D03*
%TO.P,J1,7*%
%TO.N,Net-(J1-Pad7)*%
X91240000Y-99000000D03*
%TO.P,J1,6*%
%TO.N,Net-(J1-Pad6)*%
X88700000Y-99000000D03*
%TO.P,J1,5*%
%TO.N,Net-(J1-Pad5)*%
X86160000Y-99000000D03*
%TO.P,J1,4*%
%TO.N,Net-(J1-Pad4)*%
X83620000Y-99000000D03*
%TO.P,J1,3*%
%TO.N,Net-(J1-Pad3)*%
X81080000Y-99000000D03*
%TO.P,J1,2*%
%TO.N,Net-(J1-Pad2)*%
X78540000Y-99000000D03*
D12*
%TO.P,J1,1*%
%TO.N,Net-(J1-Pad1)*%
X76000000Y-99000000D03*
%TD*%
D11*
%TO.P,J2,12*%
%TO.N,GND*%
X103940000Y-96000000D03*
%TO.P,J2,11*%
%TO.N,HV*%
X101400000Y-96000000D03*
%TO.P,J2,10*%
%TO.N,Net-(J2-Pad10)*%
X98860000Y-96000000D03*
%TO.P,J2,9*%
%TO.N,Net-(J2-Pad9)*%
X96320000Y-96000000D03*
%TO.P,J2,8*%
%TO.N,Net-(J2-Pad8)*%
X93780000Y-96000000D03*
%TO.P,J2,7*%
%TO.N,Net-(J2-Pad7)*%
X91240000Y-96000000D03*
%TO.P,J2,6*%
%TO.N,Net-(J2-Pad6)*%
X88700000Y-96000000D03*
%TO.P,J2,5*%
%TO.N,Net-(J2-Pad5)*%
X86160000Y-96000000D03*
%TO.P,J2,4*%
%TO.N,Net-(J2-Pad4)*%
X83620000Y-96000000D03*
%TO.P,J2,3*%
%TO.N,Net-(J2-Pad3)*%
X81080000Y-96000000D03*
%TO.P,J2,2*%
%TO.N,Net-(J2-Pad2)*%
X78540000Y-96000000D03*
D12*
%TO.P,J2,1*%
%TO.N,Net-(J2-Pad1)*%
X76000000Y-96000000D03*
%TD*%
D11*
%TO.P,J3,12*%
%TO.N,GND*%
X136940000Y-99000000D03*
%TO.P,J3,11*%
%TO.N,HV*%
X134400000Y-99000000D03*
%TO.P,J3,10*%
%TO.N,Net-(J3-Pad10)*%
X131860000Y-99000000D03*
%TO.P,J3,9*%
%TO.N,Net-(J3-Pad9)*%
X129320000Y-99000000D03*
%TO.P,J3,8*%
%TO.N,Net-(J3-Pad8)*%
X126780000Y-99000000D03*
%TO.P,J3,7*%
%TO.N,Net-(J3-Pad7)*%
X124240000Y-99000000D03*
%TO.P,J3,6*%
%TO.N,Net-(J3-Pad6)*%
X121700000Y-99000000D03*
%TO.P,J3,5*%
%TO.N,Net-(J3-Pad5)*%
X119160000Y-99000000D03*
%TO.P,J3,4*%
%TO.N,Net-(J3-Pad4)*%
X116620000Y-99000000D03*
%TO.P,J3,3*%
%TO.N,Net-(J3-Pad3)*%
X114080000Y-99000000D03*
%TO.P,J3,2*%
%TO.N,Net-(J3-Pad2)*%
X111540000Y-99000000D03*
D12*
%TO.P,J3,1*%
%TO.N,Net-(J3-Pad1)*%
X109000000Y-99000000D03*
%TD*%
%TO.P,J4,1*%
%TO.N,Net-(J4-Pad1)*%
X109000000Y-96000000D03*
D11*
%TO.P,J4,2*%
%TO.N,Net-(J4-Pad2)*%
X111540000Y-96000000D03*
%TO.P,J4,3*%
%TO.N,Net-(J4-Pad3)*%
X114080000Y-96000000D03*
%TO.P,J4,4*%
%TO.N,Net-(J4-Pad4)*%
X116620000Y-96000000D03*
%TO.P,J4,5*%
%TO.N,Net-(J4-Pad5)*%
X119160000Y-96000000D03*
%TO.P,J4,6*%
%TO.N,Net-(J4-Pad6)*%
X121700000Y-96000000D03*
%TO.P,J4,7*%
%TO.N,Net-(J4-Pad7)*%
X124240000Y-96000000D03*
%TO.P,J4,8*%
%TO.N,Net-(J4-Pad8)*%
X126780000Y-96000000D03*
%TO.P,J4,9*%
%TO.N,Net-(J4-Pad9)*%
X129320000Y-96000000D03*
%TO.P,J4,10*%
%TO.N,Net-(J4-Pad10)*%
X131860000Y-96000000D03*
%TO.P,J4,11*%
%TO.N,HV*%
X134400000Y-96000000D03*
%TO.P,J4,12*%
%TO.N,GND*%
X136940000Y-96000000D03*
%TD*%
D12*
%TO.P,J5,1*%
%TO.N,Net-(J5-Pad1)*%
X142000000Y-99000000D03*
D11*
%TO.P,J5,2*%
%TO.N,Net-(J5-Pad2)*%
X144540000Y-99000000D03*
%TO.P,J5,3*%
%TO.N,Net-(J5-Pad3)*%
X147080000Y-99000000D03*
%TO.P,J5,4*%
%TO.N,Net-(J5-Pad4)*%
X149620000Y-99000000D03*
%TO.P,J5,5*%
%TO.N,Net-(J5-Pad5)*%
X152160000Y-99000000D03*
%TO.P,J5,6*%
%TO.N,Net-(J5-Pad6)*%
X154700000Y-99000000D03*
%TO.P,J5,7*%
%TO.N,Net-(J5-Pad7)*%
X157240000Y-99000000D03*
%TO.P,J5,8*%
%TO.N,Net-(J5-Pad8)*%
X159780000Y-99000000D03*
%TO.P,J5,9*%
%TO.N,Net-(J5-Pad9)*%
X162320000Y-99000000D03*
%TO.P,J5,10*%
%TO.N,Net-(J5-Pad10)*%
X164860000Y-99000000D03*
%TO.P,J5,11*%
%TO.N,HV*%
X167400000Y-99000000D03*
%TO.P,J5,12*%
%TO.N,GND*%
X169940000Y-99000000D03*
%TD*%
D12*
%TO.P,J6,1*%
%TO.N,Net-(J6-Pad1)*%
X142000000Y-96000000D03*
D11*
%TO.P,J6,2*%
%TO.N,Net-(J6-Pad2)*%
X144540000Y-96000000D03*
%TO.P,J6,3*%
%TO.N,Net-(J6-Pad3)*%
X147080000Y-96000000D03*
%TO.P,J6,4*%
%TO.N,Net-(J6-Pad4)*%
X149620000Y-96000000D03*
%TO.P,J6,5*%
%TO.N,Net-(J6-Pad5)*%
X152160000Y-96000000D03*
%TO.P,J6,6*%
%TO.N,Net-(J6-Pad6)*%
X154700000Y-96000000D03*
%TO.P,J6,7*%
%TO.N,Net-(J6-Pad7)*%
X157240000Y-96000000D03*
%TO.P,J6,8*%
%TO.N,Net-(J6-Pad8)*%
X159780000Y-96000000D03*
%TO.P,J6,9*%
%TO.N,Net-(J6-Pad9)*%
X162320000Y-96000000D03*
%TO.P,J6,10*%
%TO.N,Net-(J6-Pad10)*%
X164860000Y-96000000D03*
%TO.P,J6,11*%
%TO.N,HV*%
X167400000Y-96000000D03*
%TO.P,J6,12*%
%TO.N,GND*%
X169940000Y-96000000D03*
%TD*%
D13*
%TO.N,HV*%
X102875000Y-72000000D03*
%TD*%
D14*
%TO.N,HV*%
X101400000Y-99000000D02*
X101400000Y-96000000D01*
X102875000Y-94525000D02*
X101400000Y-96000000D01*
X102875000Y-72000000D02*
X102875000Y-94525000D01*
D15*
%TO.N,Net-(J1-Pad10)*%
X99960801Y-80210801D02*
X97750000Y-78000000D01*
X99960801Y-97899199D02*
X99960801Y-80210801D01*
X98860000Y-99000000D02*
X99960801Y-97899199D01*
%TO.N,Net-(J1-Pad9)*%
X97420801Y-80682180D02*
X97113620Y-80374999D01*
X97420801Y-97899199D02*
X97420801Y-80682180D01*
X96320000Y-99000000D02*
X97420801Y-97899199D01*
%TO.N,Net-(J1-Pad8)*%
X94880801Y-97899199D02*
X94880801Y-82607819D01*
X94880801Y-82607819D02*
X95375000Y-82113620D01*
X93780000Y-99000000D02*
X94880801Y-97899199D01*
%TO.N,Net-(J1-Pad7)*%
X92340801Y-83409199D02*
X93000000Y-82750000D01*
X92340801Y-97899199D02*
X92340801Y-83409199D01*
X91240000Y-99000000D02*
X92340801Y-97899199D01*
%TO.N,Net-(J1-Pad6)*%
X89800801Y-82937820D02*
X90625001Y-82113620D01*
X89800801Y-97899199D02*
X89800801Y-82937820D01*
X88700000Y-99000000D02*
X89800801Y-97899199D01*
%TO.N,Net-(J1-Pad5)*%
X87260801Y-82000578D02*
X88886380Y-80374999D01*
X87260801Y-97899199D02*
X87260801Y-82000578D01*
X86160000Y-99000000D02*
X87260801Y-97899199D01*
%TO.N,Net-(J1-Pad4)*%
X84720801Y-97899199D02*
X84720801Y-81529199D01*
X84720801Y-81529199D02*
X88250000Y-78000000D01*
X83620000Y-99000000D02*
X84720801Y-97899199D01*
%TO.N,Net-(J1-Pad3)*%
X82180801Y-82330579D02*
X88886380Y-75625000D01*
X82180801Y-97899199D02*
X82180801Y-82330579D01*
X81080000Y-99000000D02*
X82180801Y-97899199D01*
%TO.N,Net-(J1-Pad2)*%
X79640801Y-83371633D02*
X89126054Y-73886380D01*
X79640801Y-97899199D02*
X79640801Y-83371633D01*
X89126054Y-73886380D02*
X90625000Y-73886380D01*
X78540000Y-99000000D02*
X79640801Y-97899199D01*
%TO.N,Net-(J1-Pad1)*%
X95614675Y-75625001D02*
X97113620Y-75625001D01*
X92863253Y-72873579D02*
X95614675Y-75625001D01*
X77100801Y-85485091D02*
X89712313Y-72873579D01*
X77100801Y-97899199D02*
X77100801Y-85485091D01*
X89712313Y-72873579D02*
X92863253Y-72873579D01*
X76000000Y-99000000D02*
X77100801Y-97899199D01*
%TO.N,Net-(J3-Pad10)*%
X132960801Y-97899199D02*
X132960801Y-93353199D01*
X131860000Y-99000000D02*
X132960801Y-97899199D01*
X152126421Y-81287687D02*
X152126421Y-78376421D01*
X149048086Y-84366022D02*
X152126421Y-81287687D01*
X141947978Y-84366022D02*
X149048086Y-84366022D01*
X152126421Y-78376421D02*
X151750000Y-78000000D01*
X132960801Y-93353199D02*
X141947978Y-84366022D01*
%TO.N,Net-(J3-Pad9)*%
X130759199Y-97560801D02*
X130759199Y-93776801D01*
X129320000Y-99000000D02*
X130759199Y-97560801D01*
X151113620Y-81873946D02*
X151113620Y-80374999D01*
X148923150Y-84064416D02*
X151113620Y-81873946D01*
X140471584Y-84064416D02*
X148923150Y-84064416D01*
X130759199Y-93776801D02*
X140471584Y-84064416D01*
%TO.N,Net-(J3-Pad8)*%
X147725819Y-83762801D02*
X149375000Y-82113620D01*
X139928013Y-83762801D02*
X147725819Y-83762801D01*
X127880801Y-95810013D02*
X139928013Y-83762801D01*
X127880801Y-97899199D02*
X127880801Y-95810013D01*
X126780000Y-99000000D02*
X127880801Y-97899199D01*
%TO.N,Net-(J3-Pad7)*%
X139752273Y-83511999D02*
X139803082Y-83461190D01*
X124240000Y-99000000D02*
X125340801Y-97899199D01*
X146288810Y-83461190D02*
X147000000Y-82750000D01*
X125340801Y-95810013D02*
X137638815Y-83511999D01*
X125340801Y-97899199D02*
X125340801Y-95810013D01*
X137638815Y-83511999D02*
X139752273Y-83511999D01*
X139803082Y-83461190D02*
X146288810Y-83461190D01*
%TO.N,Net-(J3-Pad6)*%
X136497194Y-82113620D02*
X144625001Y-82113620D01*
X122800801Y-95810013D02*
X136497194Y-82113620D01*
X122800801Y-97899199D02*
X122800801Y-95810013D01*
X121700000Y-99000000D02*
X122800801Y-97899199D01*
%TO.N,Net-(J3-Pad5)*%
X135695815Y-80374999D02*
X142886380Y-80374999D01*
X120599199Y-95471615D02*
X135695815Y-80374999D01*
X120599199Y-97560801D02*
X120599199Y-95471615D01*
X119160000Y-99000000D02*
X120599199Y-97560801D01*
%TO.N,Net-(J3-Pad4)*%
X117720801Y-95810013D02*
X135530814Y-78000000D01*
X117720801Y-97899199D02*
X117720801Y-95810013D01*
X135530814Y-78000000D02*
X142250000Y-78000000D01*
X116620000Y-99000000D02*
X117720801Y-97899199D01*
%TO.N,Net-(J3-Pad3)*%
X115519199Y-95471615D02*
X135365814Y-75625000D01*
X115519199Y-97560801D02*
X115519199Y-95471615D01*
X135365814Y-75625000D02*
X142886380Y-75625000D01*
X114080000Y-99000000D02*
X115519199Y-97560801D01*
%TO.N,Net-(J3-Pad2)*%
X134564434Y-73886380D02*
X144625000Y-73886380D01*
X112640801Y-95810013D02*
X134564434Y-73886380D01*
X112640801Y-97899199D02*
X112640801Y-95810013D01*
X111540000Y-99000000D02*
X112640801Y-97899199D01*
%TO.N,Net-(J3-Pad1)*%
X146863253Y-72873579D02*
X149614675Y-75625001D01*
X149614675Y-75625001D02*
X151113620Y-75625001D01*
X133037235Y-72873579D02*
X146863253Y-72873579D01*
X110100801Y-95810013D02*
X133037235Y-72873579D01*
X110100801Y-97899199D02*
X110100801Y-95810013D01*
X109000000Y-99000000D02*
X110100801Y-97899199D01*
%TO.N,Net-(J5-Pad1)*%
X155148013Y-83762801D02*
X186493199Y-83762801D01*
X143100801Y-95810013D02*
X155148013Y-83762801D01*
X143100801Y-97899199D02*
X143100801Y-95810013D01*
X142000000Y-99000000D02*
X143100801Y-97899199D01*
X203614675Y-75625001D02*
X205113620Y-75625001D01*
X200863253Y-72873579D02*
X203614675Y-75625001D01*
X197382421Y-72873579D02*
X200863253Y-72873579D01*
X186493199Y-83762801D02*
X197382421Y-72873579D01*
%TO.N,Net-(J5-Pad2)*%
X157317046Y-84064412D02*
X186948022Y-84064412D01*
X147879191Y-93502267D02*
X157317046Y-84064412D01*
X147879190Y-93571624D02*
X147879191Y-93502267D01*
X145640801Y-97899199D02*
X145640801Y-95810013D01*
X145640801Y-95810013D02*
X147879190Y-93571624D01*
X186948022Y-84064412D02*
X197126054Y-73886380D01*
X144540000Y-99000000D02*
X145640801Y-97899199D01*
X197126054Y-73886380D02*
X198625000Y-73886380D01*
%TO.N,Net-(J5-Pad3)*%
X147080000Y-99000000D02*
X148180801Y-97899199D01*
X148180801Y-93627199D02*
X157441979Y-84366021D01*
X196124381Y-76386999D02*
X196886380Y-75625000D01*
X187072955Y-84366021D02*
X195051977Y-76386999D01*
X157441979Y-84366021D02*
X187072955Y-84366021D01*
X195051977Y-76386999D02*
X196124381Y-76386999D01*
X148180801Y-97899199D02*
X148180801Y-93627199D01*
%TO.N,Net-(J5-Pad4)*%
X193865518Y-78000000D02*
X195172370Y-78000000D01*
X195172370Y-78000000D02*
X196250000Y-78000000D01*
X187197886Y-84667632D02*
X193865518Y-78000000D01*
X149620000Y-99000000D02*
X150720801Y-97899199D01*
X158664368Y-84667632D02*
X187197886Y-84667632D01*
X150720801Y-97899199D02*
X150720801Y-92611199D01*
X150720801Y-92611199D02*
X158664368Y-84667632D01*
%TO.N,Net-(J5-Pad5)*%
X152160000Y-99000000D02*
X153599199Y-97560801D01*
X195808750Y-80374999D02*
X196886380Y-80374999D01*
X160394759Y-84969241D02*
X187322819Y-84969241D01*
X153599199Y-91764801D02*
X160394759Y-84969241D01*
X153599199Y-97560801D02*
X153599199Y-91764801D01*
X191917061Y-80374999D02*
X195808750Y-80374999D01*
X187322819Y-84969241D02*
X191917061Y-80374999D01*
%TO.N,Net-(J5-Pad6)*%
X187447750Y-85270852D02*
X190604982Y-82113620D01*
X190604982Y-82113620D02*
X197547371Y-82113620D01*
X156139199Y-97560801D02*
X156139199Y-89986801D01*
X197547371Y-82113620D02*
X198625001Y-82113620D01*
X156139199Y-89986801D02*
X160855148Y-85270852D01*
X154700000Y-99000000D02*
X156139199Y-97560801D01*
X160855148Y-85270852D02*
X187447750Y-85270852D01*
%TO.N,Net-(J5-Pad7)*%
X187572683Y-85572461D02*
X189633145Y-83511999D01*
X158679199Y-88970801D02*
X162077539Y-85572461D01*
X162077539Y-85572461D02*
X187572683Y-85572461D01*
X189633145Y-83511999D02*
X200238001Y-83511999D01*
X157240000Y-99000000D02*
X158679199Y-97560801D01*
X200238001Y-83511999D02*
X201000000Y-82750000D01*
X158679199Y-97560801D02*
X158679199Y-88970801D01*
%TO.N,Net-(J5-Pad8)*%
X188635610Y-84936076D02*
X200552544Y-84936076D01*
X160880801Y-89563199D02*
X164569928Y-85874072D01*
X200552544Y-84936076D02*
X203375000Y-82113620D01*
X164569928Y-85874072D02*
X187697614Y-85874072D01*
X159780000Y-99000000D02*
X160880801Y-97899199D01*
X160880801Y-97899199D02*
X160880801Y-89563199D01*
X187697614Y-85874072D02*
X188635610Y-84936076D01*
%TO.N,Net-(J5-Pad9)*%
X163420801Y-97899199D02*
X163420801Y-90325199D01*
X163420801Y-90325199D02*
X167570319Y-86175681D01*
X205113620Y-81873946D02*
X205113620Y-80374999D01*
X167570319Y-86175681D02*
X187822547Y-86175681D01*
X188760541Y-85237687D02*
X201749879Y-85237687D01*
X187822547Y-86175681D02*
X188760541Y-85237687D01*
X201749879Y-85237687D02*
X205113620Y-81873946D01*
X162320000Y-99000000D02*
X163420801Y-97899199D01*
%TO.N,Net-(J5-Pad10)*%
X165960801Y-97899199D02*
X165960801Y-90833199D01*
X206511999Y-78761999D02*
X205750000Y-78000000D01*
X187947478Y-86477292D02*
X188885472Y-85539298D01*
X170316708Y-86477292D02*
X187947478Y-86477292D01*
X203004702Y-85539298D02*
X206511999Y-82032001D01*
X206511999Y-82032001D02*
X206511999Y-78761999D01*
X164860000Y-99000000D02*
X165960801Y-97899199D01*
X165960801Y-90833199D02*
X170316708Y-86477292D01*
X188885472Y-85539298D02*
X203004702Y-85539298D01*
%TD*%
D16*
%TO.N,GND*%
G36*
X174922148Y-61294751D02*
G01*
X174629396Y-61732886D01*
X174427744Y-62219715D01*
X174324943Y-62736530D01*
X174324943Y-63263470D01*
X174427744Y-63780285D01*
X174629396Y-64267114D01*
X174922148Y-64705249D01*
X175294751Y-65077852D01*
X175732886Y-65370604D01*
X176219715Y-65572256D01*
X176736530Y-65675057D01*
X177263470Y-65675057D01*
X177780285Y-65572256D01*
X178267114Y-65370604D01*
X178705249Y-65077852D01*
X179077852Y-64705249D01*
X179370604Y-64267114D01*
X179572256Y-63780285D01*
X179675057Y-63263470D01*
X179675057Y-62736530D01*
X179572256Y-62219715D01*
X179370604Y-61732886D01*
X179077852Y-61294751D01*
X178951101Y-61168000D01*
X242048899Y-61168000D01*
X241922148Y-61294751D01*
X241629396Y-61732886D01*
X241427744Y-62219715D01*
X241324943Y-62736530D01*
X241324943Y-63263470D01*
X241427744Y-63780285D01*
X241629396Y-64267114D01*
X241922148Y-64705249D01*
X242294751Y-65077852D01*
X242732886Y-65370604D01*
X243219715Y-65572256D01*
X243736530Y-65675057D01*
X244263470Y-65675057D01*
X244780285Y-65572256D01*
X245267114Y-65370604D01*
X245705249Y-65077852D01*
X245832001Y-64951100D01*
X245832000Y-96048899D01*
X245705249Y-95922148D01*
X245267114Y-95629396D01*
X244780285Y-95427744D01*
X244263470Y-95324943D01*
X243736530Y-95324943D01*
X243219715Y-95427744D01*
X242732886Y-95629396D01*
X242294751Y-95922148D01*
X241922148Y-96294751D01*
X241629396Y-96732886D01*
X241427744Y-97219715D01*
X241324943Y-97736530D01*
X241324943Y-98263470D01*
X241427744Y-98780285D01*
X241629396Y-99267114D01*
X241922148Y-99705249D01*
X242048899Y-99832000D01*
X178951101Y-99832000D01*
X179077852Y-99705249D01*
X179370604Y-99267114D01*
X179572256Y-98780285D01*
X179675057Y-98263470D01*
X179675057Y-97736530D01*
X179572256Y-97219715D01*
X179370604Y-96732886D01*
X179077852Y-96294751D01*
X178705249Y-95922148D01*
X178267114Y-95629396D01*
X177780285Y-95427744D01*
X177263470Y-95324943D01*
X176736530Y-95324943D01*
X176219715Y-95427744D01*
X175732886Y-95629396D01*
X175294751Y-95922148D01*
X174922148Y-96294751D01*
X174629396Y-96732886D01*
X174427744Y-97219715D01*
X174324943Y-97736530D01*
X174324943Y-98263470D01*
X174427744Y-98780285D01*
X174629396Y-99267114D01*
X174922148Y-99705249D01*
X175048899Y-99832000D01*
X171164577Y-99832000D01*
X171284157Y-99631252D01*
X171381481Y-99356891D01*
X171260814Y-99127000D01*
X170067000Y-99127000D01*
X170067000Y-99147000D01*
X169813000Y-99147000D01*
X169813000Y-99127000D01*
X169793000Y-99127000D01*
X169793000Y-98873000D01*
X169813000Y-98873000D01*
X169813000Y-97679845D01*
X170067000Y-97679845D01*
X170067000Y-98873000D01*
X171260814Y-98873000D01*
X171381481Y-98643109D01*
X171284157Y-98368748D01*
X171135178Y-98118645D01*
X170940269Y-97902412D01*
X170706920Y-97728359D01*
X170444099Y-97603175D01*
X170296890Y-97558524D01*
X170067000Y-97679845D01*
X169813000Y-97679845D01*
X169583110Y-97558524D01*
X169435901Y-97603175D01*
X169173080Y-97728359D01*
X169022383Y-97840763D01*
X168948064Y-97729537D01*
X168718527Y-97500000D01*
X168948064Y-97270463D01*
X169022383Y-97159237D01*
X169173080Y-97271641D01*
X169435901Y-97396825D01*
X169583110Y-97441476D01*
X169813000Y-97320155D01*
X169813000Y-96127000D01*
X170067000Y-96127000D01*
X170067000Y-97320155D01*
X170296890Y-97441476D01*
X170444099Y-97396825D01*
X170706920Y-97271641D01*
X170940269Y-97097588D01*
X171135178Y-96881355D01*
X171284157Y-96631252D01*
X171381481Y-96356891D01*
X171260814Y-96127000D01*
X170067000Y-96127000D01*
X169813000Y-96127000D01*
X169793000Y-96127000D01*
X169793000Y-95873000D01*
X169813000Y-95873000D01*
X169813000Y-94679845D01*
X170067000Y-94679845D01*
X170067000Y-95873000D01*
X171260814Y-95873000D01*
X171381481Y-95643109D01*
X171284157Y-95368748D01*
X171135178Y-95118645D01*
X170940269Y-94902412D01*
X170706920Y-94728359D01*
X170444099Y-94603175D01*
X170296890Y-94558524D01*
X170067000Y-94679845D01*
X169813000Y-94679845D01*
X169583110Y-94558524D01*
X169435901Y-94603175D01*
X169173080Y-94728359D01*
X169022383Y-94840763D01*
X168948064Y-94729537D01*
X168670463Y-94451936D01*
X168344039Y-94233827D01*
X167981337Y-94083590D01*
X167596293Y-94007000D01*
X167203707Y-94007000D01*
X167154601Y-94016768D01*
X167154601Y-91327686D01*
X170811196Y-87671092D01*
X187888842Y-87671092D01*
X187947478Y-87676867D01*
X188006114Y-87671092D01*
X188006122Y-87671092D01*
X188181504Y-87653818D01*
X188406536Y-87585556D01*
X188613927Y-87474703D01*
X188795706Y-87325520D01*
X188833093Y-87279964D01*
X189379960Y-86733098D01*
X202946066Y-86733098D01*
X203004702Y-86738873D01*
X203063338Y-86733098D01*
X203063346Y-86733098D01*
X203238728Y-86715824D01*
X203463760Y-86647562D01*
X203671151Y-86536709D01*
X203852930Y-86387526D01*
X203890317Y-86341970D01*
X207314677Y-82917611D01*
X207360227Y-82880229D01*
X207509410Y-82698450D01*
X207620263Y-82491059D01*
X207688525Y-82266027D01*
X207705799Y-82090645D01*
X207705799Y-82090637D01*
X207711574Y-82032001D01*
X207705799Y-81973365D01*
X207705799Y-78820634D01*
X207711574Y-78761998D01*
X207705799Y-78703362D01*
X207705799Y-78703355D01*
X207688525Y-78527973D01*
X207627389Y-78326433D01*
X207655000Y-78187626D01*
X207655000Y-77812374D01*
X215345000Y-77812374D01*
X215345000Y-78187626D01*
X215418209Y-78555668D01*
X215561811Y-78902356D01*
X215770290Y-79214366D01*
X216035634Y-79479710D01*
X216160660Y-79563250D01*
X216054589Y-79819331D01*
X215981380Y-80187373D01*
X215981380Y-80562625D01*
X216054589Y-80930667D01*
X216198191Y-81277355D01*
X216406670Y-81589365D01*
X216672014Y-81854709D01*
X216984024Y-82063188D01*
X217330712Y-82206790D01*
X217698754Y-82279999D01*
X217720001Y-82279999D01*
X217720001Y-82301246D01*
X217793210Y-82669288D01*
X217936812Y-83015976D01*
X218145291Y-83327986D01*
X218410635Y-83593330D01*
X218722645Y-83801809D01*
X219069333Y-83945411D01*
X219437375Y-84018620D01*
X219812627Y-84018620D01*
X220180669Y-83945411D01*
X220436750Y-83839340D01*
X220520290Y-83964366D01*
X220785634Y-84229710D01*
X221097644Y-84438189D01*
X221444332Y-84581791D01*
X221812374Y-84655000D01*
X222187626Y-84655000D01*
X222555668Y-84581791D01*
X222902356Y-84438189D01*
X223214366Y-84229710D01*
X223479710Y-83964366D01*
X223563250Y-83839339D01*
X223819332Y-83945411D01*
X224187374Y-84018620D01*
X224562626Y-84018620D01*
X224930668Y-83945411D01*
X225277356Y-83801809D01*
X225589366Y-83593330D01*
X225854710Y-83327986D01*
X226063189Y-83015976D01*
X226206791Y-82669288D01*
X226280000Y-82301246D01*
X226280000Y-82279999D01*
X226301246Y-82279999D01*
X226669288Y-82206790D01*
X227015976Y-82063188D01*
X227327986Y-81854709D01*
X227593330Y-81589365D01*
X227801809Y-81277355D01*
X227945411Y-80930667D01*
X228018620Y-80562625D01*
X228018620Y-80187373D01*
X227945411Y-79819331D01*
X227839340Y-79563250D01*
X227964366Y-79479710D01*
X228229710Y-79214366D01*
X228438189Y-78902356D01*
X228581791Y-78555668D01*
X228655000Y-78187626D01*
X228655000Y-77812374D01*
X228581791Y-77444332D01*
X228438189Y-77097644D01*
X228229710Y-76785634D01*
X227964366Y-76520290D01*
X227839340Y-76436750D01*
X227945411Y-76180669D01*
X228018620Y-75812627D01*
X228018620Y-75437375D01*
X227945411Y-75069333D01*
X227801809Y-74722645D01*
X227593330Y-74410635D01*
X227327986Y-74145291D01*
X227015976Y-73936812D01*
X226669288Y-73793210D01*
X226301246Y-73720001D01*
X226280000Y-73720001D01*
X226280000Y-73698754D01*
X226206791Y-73330712D01*
X226063189Y-72984024D01*
X225854710Y-72672014D01*
X225589366Y-72406670D01*
X225277356Y-72198191D01*
X224930668Y-72054589D01*
X224562626Y-71981380D01*
X224187374Y-71981380D01*
X223819332Y-72054589D01*
X223472644Y-72198191D01*
X223160634Y-72406670D01*
X222895290Y-72672014D01*
X222686811Y-72984024D01*
X222543209Y-73330712D01*
X222470000Y-73698754D01*
X222470000Y-74074006D01*
X222543209Y-74442048D01*
X222686811Y-74788736D01*
X222895290Y-75100746D01*
X223160634Y-75366090D01*
X223472644Y-75574569D01*
X223819332Y-75718171D01*
X224187374Y-75791380D01*
X224208620Y-75791380D01*
X224208620Y-75812627D01*
X224281829Y-76180669D01*
X224425431Y-76527357D01*
X224633910Y-76839367D01*
X224899254Y-77104711D01*
X225024280Y-77188251D01*
X224918209Y-77444332D01*
X224845000Y-77812374D01*
X224845000Y-78187626D01*
X224918209Y-78555668D01*
X225024280Y-78811749D01*
X224899254Y-78895289D01*
X224633910Y-79160633D01*
X224425431Y-79472643D01*
X224281829Y-79819331D01*
X224208620Y-80187373D01*
X224208620Y-80208620D01*
X224187374Y-80208620D01*
X223819332Y-80281829D01*
X223472644Y-80425431D01*
X223160634Y-80633910D01*
X222895290Y-80899254D01*
X222811750Y-81024281D01*
X222555668Y-80918209D01*
X222187626Y-80845000D01*
X221812374Y-80845000D01*
X221444332Y-80918209D01*
X221188251Y-81024280D01*
X221104711Y-80899254D01*
X220839367Y-80633910D01*
X220527357Y-80425431D01*
X220180669Y-80281829D01*
X219812627Y-80208620D01*
X219791380Y-80208620D01*
X219791380Y-80187373D01*
X219718171Y-79819331D01*
X219574569Y-79472643D01*
X219366090Y-79160633D01*
X219100746Y-78895289D01*
X218975720Y-78811749D01*
X219081791Y-78555668D01*
X219155000Y-78187626D01*
X219155000Y-77812374D01*
X219081791Y-77444332D01*
X218975719Y-77188250D01*
X219100746Y-77104710D01*
X219366090Y-76839366D01*
X219574569Y-76527356D01*
X219718171Y-76180668D01*
X219791380Y-75812626D01*
X219791380Y-75791380D01*
X219812626Y-75791380D01*
X220180668Y-75718171D01*
X220527356Y-75574569D01*
X220839366Y-75366090D01*
X221104710Y-75100746D01*
X221313189Y-74788736D01*
X221456791Y-74442048D01*
X221530000Y-74074006D01*
X221530000Y-73698754D01*
X221456791Y-73330712D01*
X221313189Y-72984024D01*
X221104710Y-72672014D01*
X220839366Y-72406670D01*
X220527356Y-72198191D01*
X220180668Y-72054589D01*
X219812626Y-71981380D01*
X219437374Y-71981380D01*
X219069332Y-72054589D01*
X218722644Y-72198191D01*
X218410634Y-72406670D01*
X218145290Y-72672014D01*
X217936811Y-72984024D01*
X217793209Y-73330712D01*
X217720000Y-73698754D01*
X217720000Y-73720000D01*
X217698754Y-73720000D01*
X217330712Y-73793209D01*
X216984024Y-73936811D01*
X216672014Y-74145290D01*
X216406670Y-74410634D01*
X216198191Y-74722644D01*
X216054589Y-75069332D01*
X215981380Y-75437374D01*
X215981380Y-75812626D01*
X216054589Y-76180668D01*
X216160661Y-76436750D01*
X216035634Y-76520290D01*
X215770290Y-76785634D01*
X215561811Y-77097644D01*
X215418209Y-77444332D01*
X215345000Y-77812374D01*
X207655000Y-77812374D01*
X207581791Y-77444332D01*
X207438189Y-77097644D01*
X207229710Y-76785634D01*
X206964366Y-76520290D01*
X206839340Y-76436750D01*
X206945411Y-76180669D01*
X207018620Y-75812627D01*
X207018620Y-75437375D01*
X206945411Y-75069333D01*
X206801809Y-74722645D01*
X206593330Y-74410635D01*
X206327986Y-74145291D01*
X206015976Y-73936812D01*
X205669288Y-73793210D01*
X205301246Y-73720001D01*
X205280000Y-73720001D01*
X205280000Y-73698754D01*
X205206791Y-73330712D01*
X205063189Y-72984024D01*
X204854710Y-72672014D01*
X204589366Y-72406670D01*
X204277356Y-72198191D01*
X203930668Y-72054589D01*
X203562626Y-71981380D01*
X203187374Y-71981380D01*
X202819332Y-72054589D01*
X202472644Y-72198191D01*
X202160634Y-72406670D01*
X202122633Y-72444671D01*
X201748868Y-72070907D01*
X201711481Y-72025351D01*
X201529702Y-71876168D01*
X201322311Y-71765315D01*
X201097279Y-71697053D01*
X200921897Y-71679779D01*
X200921889Y-71679779D01*
X200863253Y-71674004D01*
X200804617Y-71679779D01*
X197441056Y-71679779D01*
X197382420Y-71674004D01*
X197323784Y-71679779D01*
X197323777Y-71679779D01*
X197148395Y-71697053D01*
X196923363Y-71765315D01*
X196715972Y-71876168D01*
X196534193Y-72025351D01*
X196496810Y-72070902D01*
X185998712Y-82569001D01*
X172226740Y-82569001D01*
X172280000Y-82301246D01*
X172280000Y-82279999D01*
X172301246Y-82279999D01*
X172669288Y-82206790D01*
X173015976Y-82063188D01*
X173327986Y-81854709D01*
X173593330Y-81589365D01*
X173801809Y-81277355D01*
X173945411Y-80930667D01*
X174018620Y-80562625D01*
X174018620Y-80187373D01*
X173945411Y-79819331D01*
X173839340Y-79563250D01*
X173964366Y-79479710D01*
X174229710Y-79214366D01*
X174438189Y-78902356D01*
X174581791Y-78555668D01*
X174655000Y-78187626D01*
X174655000Y-77812374D01*
X174581791Y-77444332D01*
X174438189Y-77097644D01*
X174229710Y-76785634D01*
X173964366Y-76520290D01*
X173839340Y-76436750D01*
X173945411Y-76180669D01*
X174018620Y-75812627D01*
X174018620Y-75437375D01*
X173945411Y-75069333D01*
X173801809Y-74722645D01*
X173593330Y-74410635D01*
X173327986Y-74145291D01*
X173015976Y-73936812D01*
X172669288Y-73793210D01*
X172301246Y-73720001D01*
X172280000Y-73720001D01*
X172280000Y-73698754D01*
X172206791Y-73330712D01*
X172063189Y-72984024D01*
X171854710Y-72672014D01*
X171589366Y-72406670D01*
X171277356Y-72198191D01*
X170930668Y-72054589D01*
X170562626Y-71981380D01*
X170187374Y-71981380D01*
X169819332Y-72054589D01*
X169472644Y-72198191D01*
X169160634Y-72406670D01*
X168895290Y-72672014D01*
X168686811Y-72984024D01*
X168543209Y-73330712D01*
X168470000Y-73698754D01*
X168470000Y-74074006D01*
X168543209Y-74442048D01*
X168686811Y-74788736D01*
X168895290Y-75100746D01*
X169160634Y-75366090D01*
X169472644Y-75574569D01*
X169819332Y-75718171D01*
X170187374Y-75791380D01*
X170208620Y-75791380D01*
X170208620Y-75812627D01*
X170281829Y-76180669D01*
X170425431Y-76527357D01*
X170633910Y-76839367D01*
X170899254Y-77104711D01*
X171024280Y-77188251D01*
X170918209Y-77444332D01*
X170845000Y-77812374D01*
X170845000Y-78187626D01*
X170918209Y-78555668D01*
X171024280Y-78811749D01*
X170899254Y-78895289D01*
X170633910Y-79160633D01*
X170425431Y-79472643D01*
X170281829Y-79819331D01*
X170208620Y-80187373D01*
X170208620Y-80208620D01*
X170187374Y-80208620D01*
X169819332Y-80281829D01*
X169472644Y-80425431D01*
X169160634Y-80633910D01*
X168895290Y-80899254D01*
X168811750Y-81024281D01*
X168555668Y-80918209D01*
X168187626Y-80845000D01*
X167812374Y-80845000D01*
X167444332Y-80918209D01*
X167188251Y-81024280D01*
X167104711Y-80899254D01*
X166839367Y-80633910D01*
X166527357Y-80425431D01*
X166180669Y-80281829D01*
X165812627Y-80208620D01*
X165791380Y-80208620D01*
X165791380Y-80187373D01*
X165718171Y-79819331D01*
X165574569Y-79472643D01*
X165366090Y-79160633D01*
X165100746Y-78895289D01*
X164975720Y-78811749D01*
X165081791Y-78555668D01*
X165155000Y-78187626D01*
X165155000Y-77812374D01*
X165081791Y-77444332D01*
X164975719Y-77188250D01*
X165100746Y-77104710D01*
X165366090Y-76839366D01*
X165574569Y-76527356D01*
X165718171Y-76180668D01*
X165791380Y-75812626D01*
X165791380Y-75791380D01*
X165812626Y-75791380D01*
X166180668Y-75718171D01*
X166527356Y-75574569D01*
X166839366Y-75366090D01*
X167104710Y-75100746D01*
X167313189Y-74788736D01*
X167456791Y-74442048D01*
X167530000Y-74074006D01*
X167530000Y-73698754D01*
X167456791Y-73330712D01*
X167313189Y-72984024D01*
X167104710Y-72672014D01*
X166839366Y-72406670D01*
X166527356Y-72198191D01*
X166180668Y-72054589D01*
X165812626Y-71981380D01*
X165437374Y-71981380D01*
X165069332Y-72054589D01*
X164722644Y-72198191D01*
X164410634Y-72406670D01*
X164145290Y-72672014D01*
X163936811Y-72984024D01*
X163793209Y-73330712D01*
X163720000Y-73698754D01*
X163720000Y-73720000D01*
X163698754Y-73720000D01*
X163330712Y-73793209D01*
X162984024Y-73936811D01*
X162672014Y-74145290D01*
X162406670Y-74410634D01*
X162198191Y-74722644D01*
X162054589Y-75069332D01*
X161981380Y-75437374D01*
X161981380Y-75812626D01*
X162054589Y-76180668D01*
X162160661Y-76436750D01*
X162035634Y-76520290D01*
X161770290Y-76785634D01*
X161561811Y-77097644D01*
X161418209Y-77444332D01*
X161345000Y-77812374D01*
X161345000Y-78187626D01*
X161418209Y-78555668D01*
X161561811Y-78902356D01*
X161770290Y-79214366D01*
X162035634Y-79479710D01*
X162160660Y-79563250D01*
X162054589Y-79819331D01*
X161981380Y-80187373D01*
X161981380Y-80562625D01*
X162054589Y-80930667D01*
X162198191Y-81277355D01*
X162406670Y-81589365D01*
X162672014Y-81854709D01*
X162984024Y-82063188D01*
X163330712Y-82206790D01*
X163698754Y-82279999D01*
X163720001Y-82279999D01*
X163720001Y-82301246D01*
X163773261Y-82569001D01*
X155206649Y-82569001D01*
X155148013Y-82563226D01*
X155089377Y-82569001D01*
X155089369Y-82569001D01*
X154913987Y-82586275D01*
X154688955Y-82654537D01*
X154481564Y-82765390D01*
X154299785Y-82914573D01*
X154262402Y-82960124D01*
X143169913Y-94052614D01*
X143074067Y-94023539D01*
X142850000Y-94001470D01*
X141150000Y-94001470D01*
X140925933Y-94023539D01*
X140710477Y-94088897D01*
X140511911Y-94195032D01*
X140337867Y-94337867D01*
X140195032Y-94511911D01*
X140088897Y-94710477D01*
X140023539Y-94925933D01*
X140001470Y-95150000D01*
X140001470Y-96850000D01*
X140023539Y-97074067D01*
X140088897Y-97289523D01*
X140195032Y-97488089D01*
X140204807Y-97500000D01*
X140195032Y-97511911D01*
X140088897Y-97710477D01*
X140023539Y-97925933D01*
X140001470Y-98150000D01*
X140001470Y-99832000D01*
X138164577Y-99832000D01*
X138284157Y-99631252D01*
X138381481Y-99356891D01*
X138260814Y-99127000D01*
X137067000Y-99127000D01*
X137067000Y-99147000D01*
X136813000Y-99147000D01*
X136813000Y-99127000D01*
X136793000Y-99127000D01*
X136793000Y-98873000D01*
X136813000Y-98873000D01*
X136813000Y-97679845D01*
X137067000Y-97679845D01*
X137067000Y-98873000D01*
X138260814Y-98873000D01*
X138381481Y-98643109D01*
X138284157Y-98368748D01*
X138135178Y-98118645D01*
X137940269Y-97902412D01*
X137706920Y-97728359D01*
X137444099Y-97603175D01*
X137296890Y-97558524D01*
X137067000Y-97679845D01*
X136813000Y-97679845D01*
X136583110Y-97558524D01*
X136435901Y-97603175D01*
X136173080Y-97728359D01*
X136022383Y-97840763D01*
X135948064Y-97729537D01*
X135718527Y-97500000D01*
X135948064Y-97270463D01*
X136022383Y-97159237D01*
X136173080Y-97271641D01*
X136435901Y-97396825D01*
X136583110Y-97441476D01*
X136813000Y-97320155D01*
X136813000Y-96127000D01*
X137067000Y-96127000D01*
X137067000Y-97320155D01*
X137296890Y-97441476D01*
X137444099Y-97396825D01*
X137706920Y-97271641D01*
X137940269Y-97097588D01*
X138135178Y-96881355D01*
X138284157Y-96631252D01*
X138381481Y-96356891D01*
X138260814Y-96127000D01*
X137067000Y-96127000D01*
X136813000Y-96127000D01*
X136793000Y-96127000D01*
X136793000Y-95873000D01*
X136813000Y-95873000D01*
X136813000Y-94679845D01*
X137067000Y-94679845D01*
X137067000Y-95873000D01*
X138260814Y-95873000D01*
X138381481Y-95643109D01*
X138284157Y-95368748D01*
X138135178Y-95118645D01*
X137940269Y-94902412D01*
X137706920Y-94728359D01*
X137444099Y-94603175D01*
X137296890Y-94558524D01*
X137067000Y-94679845D01*
X136813000Y-94679845D01*
X136583110Y-94558524D01*
X136435901Y-94603175D01*
X136173080Y-94728359D01*
X136022383Y-94840763D01*
X135948064Y-94729537D01*
X135670463Y-94451936D01*
X135344039Y-94233827D01*
X134981337Y-94083590D01*
X134596293Y-94007000D01*
X134203707Y-94007000D01*
X134154601Y-94016768D01*
X134154601Y-93847686D01*
X142442466Y-85559822D01*
X148989450Y-85559822D01*
X149048086Y-85565597D01*
X149106722Y-85559822D01*
X149106730Y-85559822D01*
X149282112Y-85542548D01*
X149507144Y-85474286D01*
X149714535Y-85363433D01*
X149896314Y-85214250D01*
X149933701Y-85168694D01*
X152929099Y-82173297D01*
X152974649Y-82135915D01*
X153123832Y-81954136D01*
X153234685Y-81746745D01*
X153302947Y-81521713D01*
X153320221Y-81346331D01*
X153320221Y-81346324D01*
X153325996Y-81287688D01*
X153320221Y-81229052D01*
X153320221Y-79078907D01*
X153438189Y-78902356D01*
X153581791Y-78555668D01*
X153655000Y-78187626D01*
X153655000Y-77812374D01*
X153581791Y-77444332D01*
X153438189Y-77097644D01*
X153229710Y-76785634D01*
X152964366Y-76520290D01*
X152839340Y-76436750D01*
X152945411Y-76180669D01*
X153018620Y-75812627D01*
X153018620Y-75437375D01*
X152945411Y-75069333D01*
X152801809Y-74722645D01*
X152593330Y-74410635D01*
X152327986Y-74145291D01*
X152015976Y-73936812D01*
X151669288Y-73793210D01*
X151301246Y-73720001D01*
X151280000Y-73720001D01*
X151280000Y-73698754D01*
X151206791Y-73330712D01*
X151063189Y-72984024D01*
X150854710Y-72672014D01*
X150589366Y-72406670D01*
X150277356Y-72198191D01*
X149930668Y-72054589D01*
X149562626Y-71981380D01*
X149187374Y-71981380D01*
X148819332Y-72054589D01*
X148472644Y-72198191D01*
X148160634Y-72406670D01*
X148122633Y-72444671D01*
X147748868Y-72070907D01*
X147711481Y-72025351D01*
X147529702Y-71876168D01*
X147322311Y-71765315D01*
X147097279Y-71697053D01*
X146921897Y-71679779D01*
X146921889Y-71679779D01*
X146863253Y-71674004D01*
X146804617Y-71679779D01*
X133095870Y-71679779D01*
X133037234Y-71674004D01*
X132978598Y-71679779D01*
X132978591Y-71679779D01*
X132803209Y-71697053D01*
X132578177Y-71765315D01*
X132370786Y-71876168D01*
X132189007Y-72025351D01*
X132151624Y-72070902D01*
X110169913Y-94052614D01*
X110074067Y-94023539D01*
X109850000Y-94001470D01*
X108150000Y-94001470D01*
X107925933Y-94023539D01*
X107710477Y-94088897D01*
X107511911Y-94195032D01*
X107337867Y-94337867D01*
X107195032Y-94511911D01*
X107088897Y-94710477D01*
X107023539Y-94925933D01*
X107001470Y-95150000D01*
X107001470Y-96850000D01*
X107023539Y-97074067D01*
X107088897Y-97289523D01*
X107195032Y-97488089D01*
X107204807Y-97500000D01*
X107195032Y-97511911D01*
X107088897Y-97710477D01*
X107023539Y-97925933D01*
X107001470Y-98150000D01*
X107001470Y-99832000D01*
X105164577Y-99832000D01*
X105284157Y-99631252D01*
X105381481Y-99356891D01*
X105260814Y-99127000D01*
X104067000Y-99127000D01*
X104067000Y-99147000D01*
X103813000Y-99147000D01*
X103813000Y-99127000D01*
X103793000Y-99127000D01*
X103793000Y-98873000D01*
X103813000Y-98873000D01*
X103813000Y-97679845D01*
X104067000Y-97679845D01*
X104067000Y-98873000D01*
X105260814Y-98873000D01*
X105381481Y-98643109D01*
X105284157Y-98368748D01*
X105135178Y-98118645D01*
X104940269Y-97902412D01*
X104706920Y-97728359D01*
X104444099Y-97603175D01*
X104296890Y-97558524D01*
X104067000Y-97679845D01*
X103813000Y-97679845D01*
X103583110Y-97558524D01*
X103435901Y-97603175D01*
X103173080Y-97728359D01*
X103022383Y-97840763D01*
X102948064Y-97729537D01*
X102718527Y-97500000D01*
X102948064Y-97270463D01*
X103022383Y-97159237D01*
X103173080Y-97271641D01*
X103435901Y-97396825D01*
X103583110Y-97441476D01*
X103813000Y-97320155D01*
X103813000Y-96127000D01*
X104067000Y-96127000D01*
X104067000Y-97320155D01*
X104296890Y-97441476D01*
X104444099Y-97396825D01*
X104706920Y-97271641D01*
X104940269Y-97097588D01*
X105135178Y-96881355D01*
X105284157Y-96631252D01*
X105381481Y-96356891D01*
X105260814Y-96127000D01*
X104067000Y-96127000D01*
X103813000Y-96127000D01*
X103793000Y-96127000D01*
X103793000Y-95873000D01*
X103813000Y-95873000D01*
X103813000Y-95853000D01*
X104067000Y-95853000D01*
X104067000Y-95873000D01*
X105260814Y-95873000D01*
X105381481Y-95643109D01*
X105284157Y-95368748D01*
X105135178Y-95118645D01*
X104940269Y-94902412D01*
X104706920Y-94728359D01*
X104444099Y-94603175D01*
X104296890Y-94558524D01*
X104112749Y-94655702D01*
X104119600Y-94586143D01*
X104119600Y-94586134D01*
X104125621Y-94525001D01*
X104119600Y-94463868D01*
X104119600Y-77812374D01*
X107345000Y-77812374D01*
X107345000Y-78187626D01*
X107418209Y-78555668D01*
X107561811Y-78902356D01*
X107770290Y-79214366D01*
X108035634Y-79479710D01*
X108160660Y-79563250D01*
X108054589Y-79819331D01*
X107981380Y-80187373D01*
X107981380Y-80562625D01*
X108054589Y-80930667D01*
X108198191Y-81277355D01*
X108406670Y-81589365D01*
X108672014Y-81854709D01*
X108984024Y-82063188D01*
X109330712Y-82206790D01*
X109698754Y-82279999D01*
X109720001Y-82279999D01*
X109720001Y-82301246D01*
X109793210Y-82669288D01*
X109936812Y-83015976D01*
X110145291Y-83327986D01*
X110410635Y-83593330D01*
X110722645Y-83801809D01*
X111069333Y-83945411D01*
X111437375Y-84018620D01*
X111812627Y-84018620D01*
X112180669Y-83945411D01*
X112436750Y-83839340D01*
X112520290Y-83964366D01*
X112785634Y-84229710D01*
X113097644Y-84438189D01*
X113444332Y-84581791D01*
X113812374Y-84655000D01*
X114187626Y-84655000D01*
X114555668Y-84581791D01*
X114902356Y-84438189D01*
X115214366Y-84229710D01*
X115479710Y-83964366D01*
X115563250Y-83839339D01*
X115819332Y-83945411D01*
X116187374Y-84018620D01*
X116562626Y-84018620D01*
X116930668Y-83945411D01*
X117277356Y-83801809D01*
X117589366Y-83593330D01*
X117854710Y-83327986D01*
X118063189Y-83015976D01*
X118206791Y-82669288D01*
X118280000Y-82301246D01*
X118280000Y-82279999D01*
X118301246Y-82279999D01*
X118669288Y-82206790D01*
X119015976Y-82063188D01*
X119327986Y-81854709D01*
X119593330Y-81589365D01*
X119801809Y-81277355D01*
X119945411Y-80930667D01*
X120018620Y-80562625D01*
X120018620Y-80187373D01*
X119945411Y-79819331D01*
X119839340Y-79563250D01*
X119964366Y-79479710D01*
X120229710Y-79214366D01*
X120438189Y-78902356D01*
X120581791Y-78555668D01*
X120655000Y-78187626D01*
X120655000Y-77812374D01*
X120581791Y-77444332D01*
X120438189Y-77097644D01*
X120229710Y-76785634D01*
X119964366Y-76520290D01*
X119839340Y-76436750D01*
X119945411Y-76180669D01*
X120018620Y-75812627D01*
X120018620Y-75437375D01*
X119945411Y-75069333D01*
X119801809Y-74722645D01*
X119593330Y-74410635D01*
X119327986Y-74145291D01*
X119015976Y-73936812D01*
X118669288Y-73793210D01*
X118301246Y-73720001D01*
X118280000Y-73720001D01*
X118280000Y-73698754D01*
X118206791Y-73330712D01*
X118063189Y-72984024D01*
X117854710Y-72672014D01*
X117589366Y-72406670D01*
X117277356Y-72198191D01*
X116930668Y-72054589D01*
X116562626Y-71981380D01*
X116187374Y-71981380D01*
X115819332Y-72054589D01*
X115472644Y-72198191D01*
X115160634Y-72406670D01*
X114895290Y-72672014D01*
X114686811Y-72984024D01*
X114543209Y-73330712D01*
X114470000Y-73698754D01*
X114470000Y-74074006D01*
X114543209Y-74442048D01*
X114686811Y-74788736D01*
X114895290Y-75100746D01*
X115160634Y-75366090D01*
X115472644Y-75574569D01*
X115819332Y-75718171D01*
X116187374Y-75791380D01*
X116208620Y-75791380D01*
X116208620Y-75812627D01*
X116281829Y-76180669D01*
X116425431Y-76527357D01*
X116633910Y-76839367D01*
X116899254Y-77104711D01*
X117024280Y-77188251D01*
X116918209Y-77444332D01*
X116845000Y-77812374D01*
X116845000Y-78187626D01*
X116918209Y-78555668D01*
X117024280Y-78811749D01*
X116899254Y-78895289D01*
X116633910Y-79160633D01*
X116425431Y-79472643D01*
X116281829Y-79819331D01*
X116208620Y-80187373D01*
X116208620Y-80208620D01*
X116187374Y-80208620D01*
X115819332Y-80281829D01*
X115472644Y-80425431D01*
X115160634Y-80633910D01*
X114895290Y-80899254D01*
X114811750Y-81024281D01*
X114555668Y-80918209D01*
X114187626Y-80845000D01*
X113812374Y-80845000D01*
X113444332Y-80918209D01*
X113188251Y-81024280D01*
X113104711Y-80899254D01*
X112839367Y-80633910D01*
X112527357Y-80425431D01*
X112180669Y-80281829D01*
X111812627Y-80208620D01*
X111791380Y-80208620D01*
X111791380Y-80187373D01*
X111718171Y-79819331D01*
X111574569Y-79472643D01*
X111366090Y-79160633D01*
X111100746Y-78895289D01*
X110975720Y-78811749D01*
X111081791Y-78555668D01*
X111155000Y-78187626D01*
X111155000Y-77812374D01*
X111081791Y-77444332D01*
X110975719Y-77188250D01*
X111100746Y-77104710D01*
X111366090Y-76839366D01*
X111574569Y-76527356D01*
X111718171Y-76180668D01*
X111791380Y-75812626D01*
X111791380Y-75791380D01*
X111812626Y-75791380D01*
X112180668Y-75718171D01*
X112527356Y-75574569D01*
X112839366Y-75366090D01*
X113104710Y-75100746D01*
X113313189Y-74788736D01*
X113456791Y-74442048D01*
X113530000Y-74074006D01*
X113530000Y-73698754D01*
X113456791Y-73330712D01*
X113313189Y-72984024D01*
X113104710Y-72672014D01*
X112839366Y-72406670D01*
X112527356Y-72198191D01*
X112180668Y-72054589D01*
X111812626Y-71981380D01*
X111437374Y-71981380D01*
X111069332Y-72054589D01*
X110722644Y-72198191D01*
X110410634Y-72406670D01*
X110145290Y-72672014D01*
X109936811Y-72984024D01*
X109793209Y-73330712D01*
X109720000Y-73698754D01*
X109720000Y-73720000D01*
X109698754Y-73720000D01*
X109330712Y-73793209D01*
X108984024Y-73936811D01*
X108672014Y-74145290D01*
X108406670Y-74410634D01*
X108198191Y-74722644D01*
X108054589Y-75069332D01*
X107981380Y-75437374D01*
X107981380Y-75812626D01*
X108054589Y-76180668D01*
X108160661Y-76436750D01*
X108035634Y-76520290D01*
X107770290Y-76785634D01*
X107561811Y-77097644D01*
X107418209Y-77444332D01*
X107345000Y-77812374D01*
X104119600Y-77812374D01*
X104119600Y-72635353D01*
X104214468Y-72406323D01*
X104268000Y-72137199D01*
X104268000Y-71862801D01*
X104214468Y-71593677D01*
X104109460Y-71340167D01*
X103957014Y-71112014D01*
X103762986Y-70917986D01*
X103534833Y-70765540D01*
X103281323Y-70660532D01*
X103012199Y-70607000D01*
X102737801Y-70607000D01*
X102468677Y-70660532D01*
X102215167Y-70765540D01*
X101987014Y-70917986D01*
X101792986Y-71112014D01*
X101640540Y-71340167D01*
X101535532Y-71593677D01*
X101482000Y-71862801D01*
X101482000Y-72137199D01*
X101535532Y-72406323D01*
X101630400Y-72635353D01*
X101630401Y-94009469D01*
X101626802Y-94013069D01*
X101596293Y-94007000D01*
X101203707Y-94007000D01*
X101154601Y-94016768D01*
X101154601Y-80269437D01*
X101160376Y-80210801D01*
X101154601Y-80152165D01*
X101154601Y-80152157D01*
X101137327Y-79976775D01*
X101069065Y-79751743D01*
X100958212Y-79544352D01*
X100809029Y-79362573D01*
X100763478Y-79325190D01*
X99650174Y-78211887D01*
X99655000Y-78187626D01*
X99655000Y-77812374D01*
X99581791Y-77444332D01*
X99438189Y-77097644D01*
X99229710Y-76785634D01*
X98964366Y-76520290D01*
X98839340Y-76436750D01*
X98945411Y-76180669D01*
X99018620Y-75812627D01*
X99018620Y-75437375D01*
X98945411Y-75069333D01*
X98801809Y-74722645D01*
X98593330Y-74410635D01*
X98327986Y-74145291D01*
X98015976Y-73936812D01*
X97669288Y-73793210D01*
X97301246Y-73720001D01*
X97280000Y-73720001D01*
X97280000Y-73698754D01*
X97206791Y-73330712D01*
X97063189Y-72984024D01*
X96854710Y-72672014D01*
X96589366Y-72406670D01*
X96277356Y-72198191D01*
X95930668Y-72054589D01*
X95562626Y-71981380D01*
X95187374Y-71981380D01*
X94819332Y-72054589D01*
X94472644Y-72198191D01*
X94160634Y-72406670D01*
X94122633Y-72444671D01*
X93748868Y-72070907D01*
X93711481Y-72025351D01*
X93529702Y-71876168D01*
X93322311Y-71765315D01*
X93097279Y-71697053D01*
X92921897Y-71679779D01*
X92921889Y-71679779D01*
X92863253Y-71674004D01*
X92804617Y-71679779D01*
X89770948Y-71679779D01*
X89712312Y-71674004D01*
X89653676Y-71679779D01*
X89653669Y-71679779D01*
X89478287Y-71697053D01*
X89253255Y-71765315D01*
X89045864Y-71876168D01*
X88864085Y-72025351D01*
X88826702Y-72070902D01*
X76298125Y-84599480D01*
X76252574Y-84636863D01*
X76215191Y-84682414D01*
X76215190Y-84682415D01*
X76210176Y-84688525D01*
X76103391Y-84818642D01*
X76059018Y-84901658D01*
X75992537Y-85026034D01*
X75924275Y-85251066D01*
X75901226Y-85485091D01*
X75907002Y-85543737D01*
X75907001Y-94001470D01*
X75150000Y-94001470D01*
X74925933Y-94023539D01*
X74710477Y-94088897D01*
X74511911Y-94195032D01*
X74337867Y-94337867D01*
X74195032Y-94511911D01*
X74088897Y-94710477D01*
X74023539Y-94925933D01*
X74001470Y-95150000D01*
X74001470Y-96850000D01*
X74023539Y-97074067D01*
X74088897Y-97289523D01*
X74195032Y-97488089D01*
X74204807Y-97500000D01*
X74195032Y-97511911D01*
X74088897Y-97710477D01*
X74023539Y-97925933D01*
X74001470Y-98150000D01*
X74001470Y-99832000D01*
X71951101Y-99832000D01*
X72077852Y-99705249D01*
X72370604Y-99267114D01*
X72572256Y-98780285D01*
X72675057Y-98263470D01*
X72675057Y-97736530D01*
X72572256Y-97219715D01*
X72370604Y-96732886D01*
X72077852Y-96294751D01*
X71705249Y-95922148D01*
X71267114Y-95629396D01*
X70780285Y-95427744D01*
X70263470Y-95324943D01*
X69736530Y-95324943D01*
X69219715Y-95427744D01*
X68732886Y-95629396D01*
X68294751Y-95922148D01*
X68168000Y-96048899D01*
X68168000Y-64951101D01*
X68294751Y-65077852D01*
X68732886Y-65370604D01*
X69219715Y-65572256D01*
X69736530Y-65675057D01*
X70263470Y-65675057D01*
X70780285Y-65572256D01*
X71267114Y-65370604D01*
X71705249Y-65077852D01*
X72077852Y-64705249D01*
X72370604Y-64267114D01*
X72572256Y-63780285D01*
X72675057Y-63263470D01*
X72675057Y-62736530D01*
X72572256Y-62219715D01*
X72370604Y-61732886D01*
X72077852Y-61294751D01*
X71951101Y-61168000D01*
X175048899Y-61168000D01*
X174922148Y-61294751D01*
G37*
X174922148Y-61294751D02*
X174629396Y-61732886D01*
X174427744Y-62219715D01*
X174324943Y-62736530D01*
X174324943Y-63263470D01*
X174427744Y-63780285D01*
X174629396Y-64267114D01*
X174922148Y-64705249D01*
X175294751Y-65077852D01*
X175732886Y-65370604D01*
X176219715Y-65572256D01*
X176736530Y-65675057D01*
X177263470Y-65675057D01*
X177780285Y-65572256D01*
X178267114Y-65370604D01*
X178705249Y-65077852D01*
X179077852Y-64705249D01*
X179370604Y-64267114D01*
X179572256Y-63780285D01*
X179675057Y-63263470D01*
X179675057Y-62736530D01*
X179572256Y-62219715D01*
X179370604Y-61732886D01*
X179077852Y-61294751D01*
X178951101Y-61168000D01*
X242048899Y-61168000D01*
X241922148Y-61294751D01*
X241629396Y-61732886D01*
X241427744Y-62219715D01*
X241324943Y-62736530D01*
X241324943Y-63263470D01*
X241427744Y-63780285D01*
X241629396Y-64267114D01*
X241922148Y-64705249D01*
X242294751Y-65077852D01*
X242732886Y-65370604D01*
X243219715Y-65572256D01*
X243736530Y-65675057D01*
X244263470Y-65675057D01*
X244780285Y-65572256D01*
X245267114Y-65370604D01*
X245705249Y-65077852D01*
X245832001Y-64951100D01*
X245832000Y-96048899D01*
X245705249Y-95922148D01*
X245267114Y-95629396D01*
X244780285Y-95427744D01*
X244263470Y-95324943D01*
X243736530Y-95324943D01*
X243219715Y-95427744D01*
X242732886Y-95629396D01*
X242294751Y-95922148D01*
X241922148Y-96294751D01*
X241629396Y-96732886D01*
X241427744Y-97219715D01*
X241324943Y-97736530D01*
X241324943Y-98263470D01*
X241427744Y-98780285D01*
X241629396Y-99267114D01*
X241922148Y-99705249D01*
X242048899Y-99832000D01*
X178951101Y-99832000D01*
X179077852Y-99705249D01*
X179370604Y-99267114D01*
X179572256Y-98780285D01*
X179675057Y-98263470D01*
X179675057Y-97736530D01*
X179572256Y-97219715D01*
X179370604Y-96732886D01*
X179077852Y-96294751D01*
X178705249Y-95922148D01*
X178267114Y-95629396D01*
X177780285Y-95427744D01*
X177263470Y-95324943D01*
X176736530Y-95324943D01*
X176219715Y-95427744D01*
X175732886Y-95629396D01*
X175294751Y-95922148D01*
X174922148Y-96294751D01*
X174629396Y-96732886D01*
X174427744Y-97219715D01*
X174324943Y-97736530D01*
X174324943Y-98263470D01*
X174427744Y-98780285D01*
X174629396Y-99267114D01*
X174922148Y-99705249D01*
X175048899Y-99832000D01*
X171164577Y-99832000D01*
X171284157Y-99631252D01*
X171381481Y-99356891D01*
X171260814Y-99127000D01*
X170067000Y-99127000D01*
X170067000Y-99147000D01*
X169813000Y-99147000D01*
X169813000Y-99127000D01*
X169793000Y-99127000D01*
X169793000Y-98873000D01*
X169813000Y-98873000D01*
X169813000Y-97679845D01*
X170067000Y-97679845D01*
X170067000Y-98873000D01*
X171260814Y-98873000D01*
X171381481Y-98643109D01*
X171284157Y-98368748D01*
X171135178Y-98118645D01*
X170940269Y-97902412D01*
X170706920Y-97728359D01*
X170444099Y-97603175D01*
X170296890Y-97558524D01*
X170067000Y-97679845D01*
X169813000Y-97679845D01*
X169583110Y-97558524D01*
X169435901Y-97603175D01*
X169173080Y-97728359D01*
X169022383Y-97840763D01*
X168948064Y-97729537D01*
X168718527Y-97500000D01*
X168948064Y-97270463D01*
X169022383Y-97159237D01*
X169173080Y-97271641D01*
X169435901Y-97396825D01*
X169583110Y-97441476D01*
X169813000Y-97320155D01*
X169813000Y-96127000D01*
X170067000Y-96127000D01*
X170067000Y-97320155D01*
X170296890Y-97441476D01*
X170444099Y-97396825D01*
X170706920Y-97271641D01*
X170940269Y-97097588D01*
X171135178Y-96881355D01*
X171284157Y-96631252D01*
X171381481Y-96356891D01*
X171260814Y-96127000D01*
X170067000Y-96127000D01*
X169813000Y-96127000D01*
X169793000Y-96127000D01*
X169793000Y-95873000D01*
X169813000Y-95873000D01*
X169813000Y-94679845D01*
X170067000Y-94679845D01*
X170067000Y-95873000D01*
X171260814Y-95873000D01*
X171381481Y-95643109D01*
X171284157Y-95368748D01*
X171135178Y-95118645D01*
X170940269Y-94902412D01*
X170706920Y-94728359D01*
X170444099Y-94603175D01*
X170296890Y-94558524D01*
X170067000Y-94679845D01*
X169813000Y-94679845D01*
X169583110Y-94558524D01*
X169435901Y-94603175D01*
X169173080Y-94728359D01*
X169022383Y-94840763D01*
X168948064Y-94729537D01*
X168670463Y-94451936D01*
X168344039Y-94233827D01*
X167981337Y-94083590D01*
X167596293Y-94007000D01*
X167203707Y-94007000D01*
X167154601Y-94016768D01*
X167154601Y-91327686D01*
X170811196Y-87671092D01*
X187888842Y-87671092D01*
X187947478Y-87676867D01*
X188006114Y-87671092D01*
X188006122Y-87671092D01*
X188181504Y-87653818D01*
X188406536Y-87585556D01*
X188613927Y-87474703D01*
X188795706Y-87325520D01*
X188833093Y-87279964D01*
X189379960Y-86733098D01*
X202946066Y-86733098D01*
X203004702Y-86738873D01*
X203063338Y-86733098D01*
X203063346Y-86733098D01*
X203238728Y-86715824D01*
X203463760Y-86647562D01*
X203671151Y-86536709D01*
X203852930Y-86387526D01*
X203890317Y-86341970D01*
X207314677Y-82917611D01*
X207360227Y-82880229D01*
X207509410Y-82698450D01*
X207620263Y-82491059D01*
X207688525Y-82266027D01*
X207705799Y-82090645D01*
X207705799Y-82090637D01*
X207711574Y-82032001D01*
X207705799Y-81973365D01*
X207705799Y-78820634D01*
X207711574Y-78761998D01*
X207705799Y-78703362D01*
X207705799Y-78703355D01*
X207688525Y-78527973D01*
X207627389Y-78326433D01*
X207655000Y-78187626D01*
X207655000Y-77812374D01*
X215345000Y-77812374D01*
X215345000Y-78187626D01*
X215418209Y-78555668D01*
X215561811Y-78902356D01*
X215770290Y-79214366D01*
X216035634Y-79479710D01*
X216160660Y-79563250D01*
X216054589Y-79819331D01*
X215981380Y-80187373D01*
X215981380Y-80562625D01*
X216054589Y-80930667D01*
X216198191Y-81277355D01*
X216406670Y-81589365D01*
X216672014Y-81854709D01*
X216984024Y-82063188D01*
X217330712Y-82206790D01*
X217698754Y-82279999D01*
X217720001Y-82279999D01*
X217720001Y-82301246D01*
X217793210Y-82669288D01*
X217936812Y-83015976D01*
X218145291Y-83327986D01*
X218410635Y-83593330D01*
X218722645Y-83801809D01*
X219069333Y-83945411D01*
X219437375Y-84018620D01*
X219812627Y-84018620D01*
X220180669Y-83945411D01*
X220436750Y-83839340D01*
X220520290Y-83964366D01*
X220785634Y-84229710D01*
X221097644Y-84438189D01*
X221444332Y-84581791D01*
X221812374Y-84655000D01*
X222187626Y-84655000D01*
X222555668Y-84581791D01*
X222902356Y-84438189D01*
X223214366Y-84229710D01*
X223479710Y-83964366D01*
X223563250Y-83839339D01*
X223819332Y-83945411D01*
X224187374Y-84018620D01*
X224562626Y-84018620D01*
X224930668Y-83945411D01*
X225277356Y-83801809D01*
X225589366Y-83593330D01*
X225854710Y-83327986D01*
X226063189Y-83015976D01*
X226206791Y-82669288D01*
X226280000Y-82301246D01*
X226280000Y-82279999D01*
X226301246Y-82279999D01*
X226669288Y-82206790D01*
X227015976Y-82063188D01*
X227327986Y-81854709D01*
X227593330Y-81589365D01*
X227801809Y-81277355D01*
X227945411Y-80930667D01*
X228018620Y-80562625D01*
X228018620Y-80187373D01*
X227945411Y-79819331D01*
X227839340Y-79563250D01*
X227964366Y-79479710D01*
X228229710Y-79214366D01*
X228438189Y-78902356D01*
X228581791Y-78555668D01*
X228655000Y-78187626D01*
X228655000Y-77812374D01*
X228581791Y-77444332D01*
X228438189Y-77097644D01*
X228229710Y-76785634D01*
X227964366Y-76520290D01*
X227839340Y-76436750D01*
X227945411Y-76180669D01*
X228018620Y-75812627D01*
X228018620Y-75437375D01*
X227945411Y-75069333D01*
X227801809Y-74722645D01*
X227593330Y-74410635D01*
X227327986Y-74145291D01*
X227015976Y-73936812D01*
X226669288Y-73793210D01*
X226301246Y-73720001D01*
X226280000Y-73720001D01*
X226280000Y-73698754D01*
X226206791Y-73330712D01*
X226063189Y-72984024D01*
X225854710Y-72672014D01*
X225589366Y-72406670D01*
X225277356Y-72198191D01*
X224930668Y-72054589D01*
X224562626Y-71981380D01*
X224187374Y-71981380D01*
X223819332Y-72054589D01*
X223472644Y-72198191D01*
X223160634Y-72406670D01*
X222895290Y-72672014D01*
X222686811Y-72984024D01*
X222543209Y-73330712D01*
X222470000Y-73698754D01*
X222470000Y-74074006D01*
X222543209Y-74442048D01*
X222686811Y-74788736D01*
X222895290Y-75100746D01*
X223160634Y-75366090D01*
X223472644Y-75574569D01*
X223819332Y-75718171D01*
X224187374Y-75791380D01*
X224208620Y-75791380D01*
X224208620Y-75812627D01*
X224281829Y-76180669D01*
X224425431Y-76527357D01*
X224633910Y-76839367D01*
X224899254Y-77104711D01*
X225024280Y-77188251D01*
X224918209Y-77444332D01*
X224845000Y-77812374D01*
X224845000Y-78187626D01*
X224918209Y-78555668D01*
X225024280Y-78811749D01*
X224899254Y-78895289D01*
X224633910Y-79160633D01*
X224425431Y-79472643D01*
X224281829Y-79819331D01*
X224208620Y-80187373D01*
X224208620Y-80208620D01*
X224187374Y-80208620D01*
X223819332Y-80281829D01*
X223472644Y-80425431D01*
X223160634Y-80633910D01*
X222895290Y-80899254D01*
X222811750Y-81024281D01*
X222555668Y-80918209D01*
X222187626Y-80845000D01*
X221812374Y-80845000D01*
X221444332Y-80918209D01*
X221188251Y-81024280D01*
X221104711Y-80899254D01*
X220839367Y-80633910D01*
X220527357Y-80425431D01*
X220180669Y-80281829D01*
X219812627Y-80208620D01*
X219791380Y-80208620D01*
X219791380Y-80187373D01*
X219718171Y-79819331D01*
X219574569Y-79472643D01*
X219366090Y-79160633D01*
X219100746Y-78895289D01*
X218975720Y-78811749D01*
X219081791Y-78555668D01*
X219155000Y-78187626D01*
X219155000Y-77812374D01*
X219081791Y-77444332D01*
X218975719Y-77188250D01*
X219100746Y-77104710D01*
X219366090Y-76839366D01*
X219574569Y-76527356D01*
X219718171Y-76180668D01*
X219791380Y-75812626D01*
X219791380Y-75791380D01*
X219812626Y-75791380D01*
X220180668Y-75718171D01*
X220527356Y-75574569D01*
X220839366Y-75366090D01*
X221104710Y-75100746D01*
X221313189Y-74788736D01*
X221456791Y-74442048D01*
X221530000Y-74074006D01*
X221530000Y-73698754D01*
X221456791Y-73330712D01*
X221313189Y-72984024D01*
X221104710Y-72672014D01*
X220839366Y-72406670D01*
X220527356Y-72198191D01*
X220180668Y-72054589D01*
X219812626Y-71981380D01*
X219437374Y-71981380D01*
X219069332Y-72054589D01*
X218722644Y-72198191D01*
X218410634Y-72406670D01*
X218145290Y-72672014D01*
X217936811Y-72984024D01*
X217793209Y-73330712D01*
X217720000Y-73698754D01*
X217720000Y-73720000D01*
X217698754Y-73720000D01*
X217330712Y-73793209D01*
X216984024Y-73936811D01*
X216672014Y-74145290D01*
X216406670Y-74410634D01*
X216198191Y-74722644D01*
X216054589Y-75069332D01*
X215981380Y-75437374D01*
X215981380Y-75812626D01*
X216054589Y-76180668D01*
X216160661Y-76436750D01*
X216035634Y-76520290D01*
X215770290Y-76785634D01*
X215561811Y-77097644D01*
X215418209Y-77444332D01*
X215345000Y-77812374D01*
X207655000Y-77812374D01*
X207581791Y-77444332D01*
X207438189Y-77097644D01*
X207229710Y-76785634D01*
X206964366Y-76520290D01*
X206839340Y-76436750D01*
X206945411Y-76180669D01*
X207018620Y-75812627D01*
X207018620Y-75437375D01*
X206945411Y-75069333D01*
X206801809Y-74722645D01*
X206593330Y-74410635D01*
X206327986Y-74145291D01*
X206015976Y-73936812D01*
X205669288Y-73793210D01*
X205301246Y-73720001D01*
X205280000Y-73720001D01*
X205280000Y-73698754D01*
X205206791Y-73330712D01*
X205063189Y-72984024D01*
X204854710Y-72672014D01*
X204589366Y-72406670D01*
X204277356Y-72198191D01*
X203930668Y-72054589D01*
X203562626Y-71981380D01*
X203187374Y-71981380D01*
X202819332Y-72054589D01*
X202472644Y-72198191D01*
X202160634Y-72406670D01*
X202122633Y-72444671D01*
X201748868Y-72070907D01*
X201711481Y-72025351D01*
X201529702Y-71876168D01*
X201322311Y-71765315D01*
X201097279Y-71697053D01*
X200921897Y-71679779D01*
X200921889Y-71679779D01*
X200863253Y-71674004D01*
X200804617Y-71679779D01*
X197441056Y-71679779D01*
X197382420Y-71674004D01*
X197323784Y-71679779D01*
X197323777Y-71679779D01*
X197148395Y-71697053D01*
X196923363Y-71765315D01*
X196715972Y-71876168D01*
X196534193Y-72025351D01*
X196496810Y-72070902D01*
X185998712Y-82569001D01*
X172226740Y-82569001D01*
X172280000Y-82301246D01*
X172280000Y-82279999D01*
X172301246Y-82279999D01*
X172669288Y-82206790D01*
X173015976Y-82063188D01*
X173327986Y-81854709D01*
X173593330Y-81589365D01*
X173801809Y-81277355D01*
X173945411Y-80930667D01*
X174018620Y-80562625D01*
X174018620Y-80187373D01*
X173945411Y-79819331D01*
X173839340Y-79563250D01*
X173964366Y-79479710D01*
X174229710Y-79214366D01*
X174438189Y-78902356D01*
X174581791Y-78555668D01*
X174655000Y-78187626D01*
X174655000Y-77812374D01*
X174581791Y-77444332D01*
X174438189Y-77097644D01*
X174229710Y-76785634D01*
X173964366Y-76520290D01*
X173839340Y-76436750D01*
X173945411Y-76180669D01*
X174018620Y-75812627D01*
X174018620Y-75437375D01*
X173945411Y-75069333D01*
X173801809Y-74722645D01*
X173593330Y-74410635D01*
X173327986Y-74145291D01*
X173015976Y-73936812D01*
X172669288Y-73793210D01*
X172301246Y-73720001D01*
X172280000Y-73720001D01*
X172280000Y-73698754D01*
X172206791Y-73330712D01*
X172063189Y-72984024D01*
X171854710Y-72672014D01*
X171589366Y-72406670D01*
X171277356Y-72198191D01*
X170930668Y-72054589D01*
X170562626Y-71981380D01*
X170187374Y-71981380D01*
X169819332Y-72054589D01*
X169472644Y-72198191D01*
X169160634Y-72406670D01*
X168895290Y-72672014D01*
X168686811Y-72984024D01*
X168543209Y-73330712D01*
X168470000Y-73698754D01*
X168470000Y-74074006D01*
X168543209Y-74442048D01*
X168686811Y-74788736D01*
X168895290Y-75100746D01*
X169160634Y-75366090D01*
X169472644Y-75574569D01*
X169819332Y-75718171D01*
X170187374Y-75791380D01*
X170208620Y-75791380D01*
X170208620Y-75812627D01*
X170281829Y-76180669D01*
X170425431Y-76527357D01*
X170633910Y-76839367D01*
X170899254Y-77104711D01*
X171024280Y-77188251D01*
X170918209Y-77444332D01*
X170845000Y-77812374D01*
X170845000Y-78187626D01*
X170918209Y-78555668D01*
X171024280Y-78811749D01*
X170899254Y-78895289D01*
X170633910Y-79160633D01*
X170425431Y-79472643D01*
X170281829Y-79819331D01*
X170208620Y-80187373D01*
X170208620Y-80208620D01*
X170187374Y-80208620D01*
X169819332Y-80281829D01*
X169472644Y-80425431D01*
X169160634Y-80633910D01*
X168895290Y-80899254D01*
X168811750Y-81024281D01*
X168555668Y-80918209D01*
X168187626Y-80845000D01*
X167812374Y-80845000D01*
X167444332Y-80918209D01*
X167188251Y-81024280D01*
X167104711Y-80899254D01*
X166839367Y-80633910D01*
X166527357Y-80425431D01*
X166180669Y-80281829D01*
X165812627Y-80208620D01*
X165791380Y-80208620D01*
X165791380Y-80187373D01*
X165718171Y-79819331D01*
X165574569Y-79472643D01*
X165366090Y-79160633D01*
X165100746Y-78895289D01*
X164975720Y-78811749D01*
X165081791Y-78555668D01*
X165155000Y-78187626D01*
X165155000Y-77812374D01*
X165081791Y-77444332D01*
X164975719Y-77188250D01*
X165100746Y-77104710D01*
X165366090Y-76839366D01*
X165574569Y-76527356D01*
X165718171Y-76180668D01*
X165791380Y-75812626D01*
X165791380Y-75791380D01*
X165812626Y-75791380D01*
X166180668Y-75718171D01*
X166527356Y-75574569D01*
X166839366Y-75366090D01*
X167104710Y-75100746D01*
X167313189Y-74788736D01*
X167456791Y-74442048D01*
X167530000Y-74074006D01*
X167530000Y-73698754D01*
X167456791Y-73330712D01*
X167313189Y-72984024D01*
X167104710Y-72672014D01*
X166839366Y-72406670D01*
X166527356Y-72198191D01*
X166180668Y-72054589D01*
X165812626Y-71981380D01*
X165437374Y-71981380D01*
X165069332Y-72054589D01*
X164722644Y-72198191D01*
X164410634Y-72406670D01*
X164145290Y-72672014D01*
X163936811Y-72984024D01*
X163793209Y-73330712D01*
X163720000Y-73698754D01*
X163720000Y-73720000D01*
X163698754Y-73720000D01*
X163330712Y-73793209D01*
X162984024Y-73936811D01*
X162672014Y-74145290D01*
X162406670Y-74410634D01*
X162198191Y-74722644D01*
X162054589Y-75069332D01*
X161981380Y-75437374D01*
X161981380Y-75812626D01*
X162054589Y-76180668D01*
X162160661Y-76436750D01*
X162035634Y-76520290D01*
X161770290Y-76785634D01*
X161561811Y-77097644D01*
X161418209Y-77444332D01*
X161345000Y-77812374D01*
X161345000Y-78187626D01*
X161418209Y-78555668D01*
X161561811Y-78902356D01*
X161770290Y-79214366D01*
X162035634Y-79479710D01*
X162160660Y-79563250D01*
X162054589Y-79819331D01*
X161981380Y-80187373D01*
X161981380Y-80562625D01*
X162054589Y-80930667D01*
X162198191Y-81277355D01*
X162406670Y-81589365D01*
X162672014Y-81854709D01*
X162984024Y-82063188D01*
X163330712Y-82206790D01*
X163698754Y-82279999D01*
X163720001Y-82279999D01*
X163720001Y-82301246D01*
X163773261Y-82569001D01*
X155206649Y-82569001D01*
X155148013Y-82563226D01*
X155089377Y-82569001D01*
X155089369Y-82569001D01*
X154913987Y-82586275D01*
X154688955Y-82654537D01*
X154481564Y-82765390D01*
X154299785Y-82914573D01*
X154262402Y-82960124D01*
X143169913Y-94052614D01*
X143074067Y-94023539D01*
X142850000Y-94001470D01*
X141150000Y-94001470D01*
X140925933Y-94023539D01*
X140710477Y-94088897D01*
X140511911Y-94195032D01*
X140337867Y-94337867D01*
X140195032Y-94511911D01*
X140088897Y-94710477D01*
X140023539Y-94925933D01*
X140001470Y-95150000D01*
X140001470Y-96850000D01*
X140023539Y-97074067D01*
X140088897Y-97289523D01*
X140195032Y-97488089D01*
X140204807Y-97500000D01*
X140195032Y-97511911D01*
X140088897Y-97710477D01*
X140023539Y-97925933D01*
X140001470Y-98150000D01*
X140001470Y-99832000D01*
X138164577Y-99832000D01*
X138284157Y-99631252D01*
X138381481Y-99356891D01*
X138260814Y-99127000D01*
X137067000Y-99127000D01*
X137067000Y-99147000D01*
X136813000Y-99147000D01*
X136813000Y-99127000D01*
X136793000Y-99127000D01*
X136793000Y-98873000D01*
X136813000Y-98873000D01*
X136813000Y-97679845D01*
X137067000Y-97679845D01*
X137067000Y-98873000D01*
X138260814Y-98873000D01*
X138381481Y-98643109D01*
X138284157Y-98368748D01*
X138135178Y-98118645D01*
X137940269Y-97902412D01*
X137706920Y-97728359D01*
X137444099Y-97603175D01*
X137296890Y-97558524D01*
X137067000Y-97679845D01*
X136813000Y-97679845D01*
X136583110Y-97558524D01*
X136435901Y-97603175D01*
X136173080Y-97728359D01*
X136022383Y-97840763D01*
X135948064Y-97729537D01*
X135718527Y-97500000D01*
X135948064Y-97270463D01*
X136022383Y-97159237D01*
X136173080Y-97271641D01*
X136435901Y-97396825D01*
X136583110Y-97441476D01*
X136813000Y-97320155D01*
X136813000Y-96127000D01*
X137067000Y-96127000D01*
X137067000Y-97320155D01*
X137296890Y-97441476D01*
X137444099Y-97396825D01*
X137706920Y-97271641D01*
X137940269Y-97097588D01*
X138135178Y-96881355D01*
X138284157Y-96631252D01*
X138381481Y-96356891D01*
X138260814Y-96127000D01*
X137067000Y-96127000D01*
X136813000Y-96127000D01*
X136793000Y-96127000D01*
X136793000Y-95873000D01*
X136813000Y-95873000D01*
X136813000Y-94679845D01*
X137067000Y-94679845D01*
X137067000Y-95873000D01*
X138260814Y-95873000D01*
X138381481Y-95643109D01*
X138284157Y-95368748D01*
X138135178Y-95118645D01*
X137940269Y-94902412D01*
X137706920Y-94728359D01*
X137444099Y-94603175D01*
X137296890Y-94558524D01*
X137067000Y-94679845D01*
X136813000Y-94679845D01*
X136583110Y-94558524D01*
X136435901Y-94603175D01*
X136173080Y-94728359D01*
X136022383Y-94840763D01*
X135948064Y-94729537D01*
X135670463Y-94451936D01*
X135344039Y-94233827D01*
X134981337Y-94083590D01*
X134596293Y-94007000D01*
X134203707Y-94007000D01*
X134154601Y-94016768D01*
X134154601Y-93847686D01*
X142442466Y-85559822D01*
X148989450Y-85559822D01*
X149048086Y-85565597D01*
X149106722Y-85559822D01*
X149106730Y-85559822D01*
X149282112Y-85542548D01*
X149507144Y-85474286D01*
X149714535Y-85363433D01*
X149896314Y-85214250D01*
X149933701Y-85168694D01*
X152929099Y-82173297D01*
X152974649Y-82135915D01*
X153123832Y-81954136D01*
X153234685Y-81746745D01*
X153302947Y-81521713D01*
X153320221Y-81346331D01*
X153320221Y-81346324D01*
X153325996Y-81287688D01*
X153320221Y-81229052D01*
X153320221Y-79078907D01*
X153438189Y-78902356D01*
X153581791Y-78555668D01*
X153655000Y-78187626D01*
X153655000Y-77812374D01*
X153581791Y-77444332D01*
X153438189Y-77097644D01*
X153229710Y-76785634D01*
X152964366Y-76520290D01*
X152839340Y-76436750D01*
X152945411Y-76180669D01*
X153018620Y-75812627D01*
X153018620Y-75437375D01*
X152945411Y-75069333D01*
X152801809Y-74722645D01*
X152593330Y-74410635D01*
X152327986Y-74145291D01*
X152015976Y-73936812D01*
X151669288Y-73793210D01*
X151301246Y-73720001D01*
X151280000Y-73720001D01*
X151280000Y-73698754D01*
X151206791Y-73330712D01*
X151063189Y-72984024D01*
X150854710Y-72672014D01*
X150589366Y-72406670D01*
X150277356Y-72198191D01*
X149930668Y-72054589D01*
X149562626Y-71981380D01*
X149187374Y-71981380D01*
X148819332Y-72054589D01*
X148472644Y-72198191D01*
X148160634Y-72406670D01*
X148122633Y-72444671D01*
X147748868Y-72070907D01*
X147711481Y-72025351D01*
X147529702Y-71876168D01*
X147322311Y-71765315D01*
X147097279Y-71697053D01*
X146921897Y-71679779D01*
X146921889Y-71679779D01*
X146863253Y-71674004D01*
X146804617Y-71679779D01*
X133095870Y-71679779D01*
X133037234Y-71674004D01*
X132978598Y-71679779D01*
X132978591Y-71679779D01*
X132803209Y-71697053D01*
X132578177Y-71765315D01*
X132370786Y-71876168D01*
X132189007Y-72025351D01*
X132151624Y-72070902D01*
X110169913Y-94052614D01*
X110074067Y-94023539D01*
X109850000Y-94001470D01*
X108150000Y-94001470D01*
X107925933Y-94023539D01*
X107710477Y-94088897D01*
X107511911Y-94195032D01*
X107337867Y-94337867D01*
X107195032Y-94511911D01*
X107088897Y-94710477D01*
X107023539Y-94925933D01*
X107001470Y-95150000D01*
X107001470Y-96850000D01*
X107023539Y-97074067D01*
X107088897Y-97289523D01*
X107195032Y-97488089D01*
X107204807Y-97500000D01*
X107195032Y-97511911D01*
X107088897Y-97710477D01*
X107023539Y-97925933D01*
X107001470Y-98150000D01*
X107001470Y-99832000D01*
X105164577Y-99832000D01*
X105284157Y-99631252D01*
X105381481Y-99356891D01*
X105260814Y-99127000D01*
X104067000Y-99127000D01*
X104067000Y-99147000D01*
X103813000Y-99147000D01*
X103813000Y-99127000D01*
X103793000Y-99127000D01*
X103793000Y-98873000D01*
X103813000Y-98873000D01*
X103813000Y-97679845D01*
X104067000Y-97679845D01*
X104067000Y-98873000D01*
X105260814Y-98873000D01*
X105381481Y-98643109D01*
X105284157Y-98368748D01*
X105135178Y-98118645D01*
X104940269Y-97902412D01*
X104706920Y-97728359D01*
X104444099Y-97603175D01*
X104296890Y-97558524D01*
X104067000Y-97679845D01*
X103813000Y-97679845D01*
X103583110Y-97558524D01*
X103435901Y-97603175D01*
X103173080Y-97728359D01*
X103022383Y-97840763D01*
X102948064Y-97729537D01*
X102718527Y-97500000D01*
X102948064Y-97270463D01*
X103022383Y-97159237D01*
X103173080Y-97271641D01*
X103435901Y-97396825D01*
X103583110Y-97441476D01*
X103813000Y-97320155D01*
X103813000Y-96127000D01*
X104067000Y-96127000D01*
X104067000Y-97320155D01*
X104296890Y-97441476D01*
X104444099Y-97396825D01*
X104706920Y-97271641D01*
X104940269Y-97097588D01*
X105135178Y-96881355D01*
X105284157Y-96631252D01*
X105381481Y-96356891D01*
X105260814Y-96127000D01*
X104067000Y-96127000D01*
X103813000Y-96127000D01*
X103793000Y-96127000D01*
X103793000Y-95873000D01*
X103813000Y-95873000D01*
X103813000Y-95853000D01*
X104067000Y-95853000D01*
X104067000Y-95873000D01*
X105260814Y-95873000D01*
X105381481Y-95643109D01*
X105284157Y-95368748D01*
X105135178Y-95118645D01*
X104940269Y-94902412D01*
X104706920Y-94728359D01*
X104444099Y-94603175D01*
X104296890Y-94558524D01*
X104112749Y-94655702D01*
X104119600Y-94586143D01*
X104119600Y-94586134D01*
X104125621Y-94525001D01*
X104119600Y-94463868D01*
X104119600Y-77812374D01*
X107345000Y-77812374D01*
X107345000Y-78187626D01*
X107418209Y-78555668D01*
X107561811Y-78902356D01*
X107770290Y-79214366D01*
X108035634Y-79479710D01*
X108160660Y-79563250D01*
X108054589Y-79819331D01*
X107981380Y-80187373D01*
X107981380Y-80562625D01*
X108054589Y-80930667D01*
X108198191Y-81277355D01*
X108406670Y-81589365D01*
X108672014Y-81854709D01*
X108984024Y-82063188D01*
X109330712Y-82206790D01*
X109698754Y-82279999D01*
X109720001Y-82279999D01*
X109720001Y-82301246D01*
X109793210Y-82669288D01*
X109936812Y-83015976D01*
X110145291Y-83327986D01*
X110410635Y-83593330D01*
X110722645Y-83801809D01*
X111069333Y-83945411D01*
X111437375Y-84018620D01*
X111812627Y-84018620D01*
X112180669Y-83945411D01*
X112436750Y-83839340D01*
X112520290Y-83964366D01*
X112785634Y-84229710D01*
X113097644Y-84438189D01*
X113444332Y-84581791D01*
X113812374Y-84655000D01*
X114187626Y-84655000D01*
X114555668Y-84581791D01*
X114902356Y-84438189D01*
X115214366Y-84229710D01*
X115479710Y-83964366D01*
X115563250Y-83839339D01*
X115819332Y-83945411D01*
X116187374Y-84018620D01*
X116562626Y-84018620D01*
X116930668Y-83945411D01*
X117277356Y-83801809D01*
X117589366Y-83593330D01*
X117854710Y-83327986D01*
X118063189Y-83015976D01*
X118206791Y-82669288D01*
X118280000Y-82301246D01*
X118280000Y-82279999D01*
X118301246Y-82279999D01*
X118669288Y-82206790D01*
X119015976Y-82063188D01*
X119327986Y-81854709D01*
X119593330Y-81589365D01*
X119801809Y-81277355D01*
X119945411Y-80930667D01*
X120018620Y-80562625D01*
X120018620Y-80187373D01*
X119945411Y-79819331D01*
X119839340Y-79563250D01*
X119964366Y-79479710D01*
X120229710Y-79214366D01*
X120438189Y-78902356D01*
X120581791Y-78555668D01*
X120655000Y-78187626D01*
X120655000Y-77812374D01*
X120581791Y-77444332D01*
X120438189Y-77097644D01*
X120229710Y-76785634D01*
X119964366Y-76520290D01*
X119839340Y-76436750D01*
X119945411Y-76180669D01*
X120018620Y-75812627D01*
X120018620Y-75437375D01*
X119945411Y-75069333D01*
X119801809Y-74722645D01*
X119593330Y-74410635D01*
X119327986Y-74145291D01*
X119015976Y-73936812D01*
X118669288Y-73793210D01*
X118301246Y-73720001D01*
X118280000Y-73720001D01*
X118280000Y-73698754D01*
X118206791Y-73330712D01*
X118063189Y-72984024D01*
X117854710Y-72672014D01*
X117589366Y-72406670D01*
X117277356Y-72198191D01*
X116930668Y-72054589D01*
X116562626Y-71981380D01*
X116187374Y-71981380D01*
X115819332Y-72054589D01*
X115472644Y-72198191D01*
X115160634Y-72406670D01*
X114895290Y-72672014D01*
X114686811Y-72984024D01*
X114543209Y-73330712D01*
X114470000Y-73698754D01*
X114470000Y-74074006D01*
X114543209Y-74442048D01*
X114686811Y-74788736D01*
X114895290Y-75100746D01*
X115160634Y-75366090D01*
X115472644Y-75574569D01*
X115819332Y-75718171D01*
X116187374Y-75791380D01*
X116208620Y-75791380D01*
X116208620Y-75812627D01*
X116281829Y-76180669D01*
X116425431Y-76527357D01*
X116633910Y-76839367D01*
X116899254Y-77104711D01*
X117024280Y-77188251D01*
X116918209Y-77444332D01*
X116845000Y-77812374D01*
X116845000Y-78187626D01*
X116918209Y-78555668D01*
X117024280Y-78811749D01*
X116899254Y-78895289D01*
X116633910Y-79160633D01*
X116425431Y-79472643D01*
X116281829Y-79819331D01*
X116208620Y-80187373D01*
X116208620Y-80208620D01*
X116187374Y-80208620D01*
X115819332Y-80281829D01*
X115472644Y-80425431D01*
X115160634Y-80633910D01*
X114895290Y-80899254D01*
X114811750Y-81024281D01*
X114555668Y-80918209D01*
X114187626Y-80845000D01*
X113812374Y-80845000D01*
X113444332Y-80918209D01*
X113188251Y-81024280D01*
X113104711Y-80899254D01*
X112839367Y-80633910D01*
X112527357Y-80425431D01*
X112180669Y-80281829D01*
X111812627Y-80208620D01*
X111791380Y-80208620D01*
X111791380Y-80187373D01*
X111718171Y-79819331D01*
X111574569Y-79472643D01*
X111366090Y-79160633D01*
X111100746Y-78895289D01*
X110975720Y-78811749D01*
X111081791Y-78555668D01*
X111155000Y-78187626D01*
X111155000Y-77812374D01*
X111081791Y-77444332D01*
X110975719Y-77188250D01*
X111100746Y-77104710D01*
X111366090Y-76839366D01*
X111574569Y-76527356D01*
X111718171Y-76180668D01*
X111791380Y-75812626D01*
X111791380Y-75791380D01*
X111812626Y-75791380D01*
X112180668Y-75718171D01*
X112527356Y-75574569D01*
X112839366Y-75366090D01*
X113104710Y-75100746D01*
X113313189Y-74788736D01*
X113456791Y-74442048D01*
X113530000Y-74074006D01*
X113530000Y-73698754D01*
X113456791Y-73330712D01*
X113313189Y-72984024D01*
X113104710Y-72672014D01*
X112839366Y-72406670D01*
X112527356Y-72198191D01*
X112180668Y-72054589D01*
X111812626Y-71981380D01*
X111437374Y-71981380D01*
X111069332Y-72054589D01*
X110722644Y-72198191D01*
X110410634Y-72406670D01*
X110145290Y-72672014D01*
X109936811Y-72984024D01*
X109793209Y-73330712D01*
X109720000Y-73698754D01*
X109720000Y-73720000D01*
X109698754Y-73720000D01*
X109330712Y-73793209D01*
X108984024Y-73936811D01*
X108672014Y-74145290D01*
X108406670Y-74410634D01*
X108198191Y-74722644D01*
X108054589Y-75069332D01*
X107981380Y-75437374D01*
X107981380Y-75812626D01*
X108054589Y-76180668D01*
X108160661Y-76436750D01*
X108035634Y-76520290D01*
X107770290Y-76785634D01*
X107561811Y-77097644D01*
X107418209Y-77444332D01*
X107345000Y-77812374D01*
X104119600Y-77812374D01*
X104119600Y-72635353D01*
X104214468Y-72406323D01*
X104268000Y-72137199D01*
X104268000Y-71862801D01*
X104214468Y-71593677D01*
X104109460Y-71340167D01*
X103957014Y-71112014D01*
X103762986Y-70917986D01*
X103534833Y-70765540D01*
X103281323Y-70660532D01*
X103012199Y-70607000D01*
X102737801Y-70607000D01*
X102468677Y-70660532D01*
X102215167Y-70765540D01*
X101987014Y-70917986D01*
X101792986Y-71112014D01*
X101640540Y-71340167D01*
X101535532Y-71593677D01*
X101482000Y-71862801D01*
X101482000Y-72137199D01*
X101535532Y-72406323D01*
X101630400Y-72635353D01*
X101630401Y-94009469D01*
X101626802Y-94013069D01*
X101596293Y-94007000D01*
X101203707Y-94007000D01*
X101154601Y-94016768D01*
X101154601Y-80269437D01*
X101160376Y-80210801D01*
X101154601Y-80152165D01*
X101154601Y-80152157D01*
X101137327Y-79976775D01*
X101069065Y-79751743D01*
X100958212Y-79544352D01*
X100809029Y-79362573D01*
X100763478Y-79325190D01*
X99650174Y-78211887D01*
X99655000Y-78187626D01*
X99655000Y-77812374D01*
X99581791Y-77444332D01*
X99438189Y-77097644D01*
X99229710Y-76785634D01*
X98964366Y-76520290D01*
X98839340Y-76436750D01*
X98945411Y-76180669D01*
X99018620Y-75812627D01*
X99018620Y-75437375D01*
X98945411Y-75069333D01*
X98801809Y-74722645D01*
X98593330Y-74410635D01*
X98327986Y-74145291D01*
X98015976Y-73936812D01*
X97669288Y-73793210D01*
X97301246Y-73720001D01*
X97280000Y-73720001D01*
X97280000Y-73698754D01*
X97206791Y-73330712D01*
X97063189Y-72984024D01*
X96854710Y-72672014D01*
X96589366Y-72406670D01*
X96277356Y-72198191D01*
X95930668Y-72054589D01*
X95562626Y-71981380D01*
X95187374Y-71981380D01*
X94819332Y-72054589D01*
X94472644Y-72198191D01*
X94160634Y-72406670D01*
X94122633Y-72444671D01*
X93748868Y-72070907D01*
X93711481Y-72025351D01*
X93529702Y-71876168D01*
X93322311Y-71765315D01*
X93097279Y-71697053D01*
X92921897Y-71679779D01*
X92921889Y-71679779D01*
X92863253Y-71674004D01*
X92804617Y-71679779D01*
X89770948Y-71679779D01*
X89712312Y-71674004D01*
X89653676Y-71679779D01*
X89653669Y-71679779D01*
X89478287Y-71697053D01*
X89253255Y-71765315D01*
X89045864Y-71876168D01*
X88864085Y-72025351D01*
X88826702Y-72070902D01*
X76298125Y-84599480D01*
X76252574Y-84636863D01*
X76215191Y-84682414D01*
X76215190Y-84682415D01*
X76210176Y-84688525D01*
X76103391Y-84818642D01*
X76059018Y-84901658D01*
X75992537Y-85026034D01*
X75924275Y-85251066D01*
X75901226Y-85485091D01*
X75907002Y-85543737D01*
X75907001Y-94001470D01*
X75150000Y-94001470D01*
X74925933Y-94023539D01*
X74710477Y-94088897D01*
X74511911Y-94195032D01*
X74337867Y-94337867D01*
X74195032Y-94511911D01*
X74088897Y-94710477D01*
X74023539Y-94925933D01*
X74001470Y-95150000D01*
X74001470Y-96850000D01*
X74023539Y-97074067D01*
X74088897Y-97289523D01*
X74195032Y-97488089D01*
X74204807Y-97500000D01*
X74195032Y-97511911D01*
X74088897Y-97710477D01*
X74023539Y-97925933D01*
X74001470Y-98150000D01*
X74001470Y-99832000D01*
X71951101Y-99832000D01*
X72077852Y-99705249D01*
X72370604Y-99267114D01*
X72572256Y-98780285D01*
X72675057Y-98263470D01*
X72675057Y-97736530D01*
X72572256Y-97219715D01*
X72370604Y-96732886D01*
X72077852Y-96294751D01*
X71705249Y-95922148D01*
X71267114Y-95629396D01*
X70780285Y-95427744D01*
X70263470Y-95324943D01*
X69736530Y-95324943D01*
X69219715Y-95427744D01*
X68732886Y-95629396D01*
X68294751Y-95922148D01*
X68168000Y-96048899D01*
X68168000Y-64951101D01*
X68294751Y-65077852D01*
X68732886Y-65370604D01*
X69219715Y-65572256D01*
X69736530Y-65675057D01*
X70263470Y-65675057D01*
X70780285Y-65572256D01*
X71267114Y-65370604D01*
X71705249Y-65077852D01*
X72077852Y-64705249D01*
X72370604Y-64267114D01*
X72572256Y-63780285D01*
X72675057Y-63263470D01*
X72675057Y-62736530D01*
X72572256Y-62219715D01*
X72370604Y-61732886D01*
X72077852Y-61294751D01*
X71951101Y-61168000D01*
X175048899Y-61168000D01*
X174922148Y-61294751D01*
%TD*%
M02*
